<?xml version="1.0" encoding="UTF-8" standalone="no"?>
<!DOCTYPE svg PUBLIC "-//W3C//DTD SVG 1.1//EN" "http://www.w3.org/Graphics/SVG/1.1/DTD/svg11.dtd">
<svg xmlns="http://www.w3.org/2000/svg" version="1.1" viewBox="0 0 63 80">
<g stroke-width="2.00" fill="none" stroke-linecap="butt">
<path stroke="#86bdd9" vector-effect="non-scaling-stroke" d="
  M 55.9603 8.3169
  A 0.63 0.63 0.0 0 0 55.3292 7.6880
  L 7.1292 7.7721
  A 0.63 0.63 0.0 0 0 6.5003 8.4032
  L 6.5797 53.9031
  A 0.63 0.63 0.0 0 0 7.2108 54.5320
  L 55.4108 54.4479
  A 0.63 0.63 0.0 0 0 56.0397 53.8168
  L 55.9603 8.3169"
/>
<path stroke="#86bdd9" vector-effect="non-scaling-stroke" d="
  M 43.16 71.50
  A 0.56 0.56 0.0 0 1 43.71 72.14
  L 43.27 74.99
  A 0.56 0.56 0.0 0 0 44.14 75.54
  L 55.46 67.95
  A 0.56 0.56 0.0 0 0 55.46 67.02
  L 44.20 59.44
  A 0.56 0.56 0.0 0 0 43.33 59.93
  L 43.51 62.91
  A 0.56 0.56 0.0 0 1 42.95 63.50
  L 7.25 63.50
  A 0.56 0.56 0.0 0 0 6.69 64.05
  L 6.55 70.88
  A 0.56 0.56 0.0 0 0 7.11 71.45
  L 43.16 71.50"
/>
<path stroke="#8e8d8d" vector-effect="non-scaling-stroke" d="
  M 29.25 34.66
  L 29.25 44.20
  A 0.97 0.95 -18.6 0 1 28.86 44.97
  C 26.57 46.65 22.77 48.34 24.27 51.87
  A 0.51 0.49 -24.1 0 0 24.95 52.12
  L 31.48 49.00
  A 1.02 0.99 -44.3 0 1 32.37 49.00
  L 38.60 52.08
  A 0.47 0.47 0.0 0 0 39.24 51.84
  C 40.85 48.08 37.02 46.80 34.81 44.91
  A 1.02 1.01 -69.0 0 1 34.45 44.09
  L 34.65 34.60
  A 0.42 0.41 -79.9 0 1 35.20 34.21
  L 49.83 39.21
  A 0.51 0.51 0.0 0 0 50.50 38.73
  L 50.50 33.92
  A 1.05 1.04 -75.3 0 0 49.97 33.01
  L 35.12 24.85
  A 0.93 0.92 13.0 0 1 34.63 24.07
  C 34.50 21.19 35.28 11.66 33.30 10.00
  A 1.21 1.21 0.0 0 0 32.40 9.72
  Q 29.08 10.04 29.23 13.49
  C 29.39 16.94 29.24 20.50 29.17 24.01
  A 1.03 1.00 -14.8 0 1 28.65 24.87
  L 13.90 33.13
  A 1.01 1.00 -14.7 0 0 13.38 34.01
  L 13.41 38.80
  A 0.48 0.47 80.4 0 0 14.04 39.25
  L 28.64 34.22
  A 0.46 0.46 0.0 0 1 29.25 34.66"
/>
</g>
<path fill="#0c7ab2" d="
  M 30.81 0.00
  L 58.06 0.00
  Q 62.42 0.78 62.44 5.19
  Q 62.58 39.46 62.53 73.75
  C 62.52 78.11 60.02 79.50 55.88 79.50
  Q 30.30 79.50 4.75 79.50
  C 1.71 79.51 0.45 76.68 0.45 73.84
  Q 0.46 38.92 0.50 4.00
  C 0.50 1.55 3.00 0.16 5.41 0.21
  Q 18.12 0.46 30.81 0.00
  Z
  M 55.9603 8.3169
  A 0.63 0.63 0.0 0 0 55.3292 7.6880
  L 7.1292 7.7721
  A 0.63 0.63 0.0 0 0 6.5003 8.4032
  L 6.5797 53.9031
  A 0.63 0.63 0.0 0 0 7.2108 54.5320
  L 55.4108 54.4479
  A 0.63 0.63 0.0 0 0 56.0397 53.8168
  L 55.9603 8.3169
  Z
  M 43.16 71.50
  A 0.56 0.56 0.0 0 1 43.71 72.14
  L 43.27 74.99
  A 0.56 0.56 0.0 0 0 44.14 75.54
  L 55.46 67.95
  A 0.56 0.56 0.0 0 0 55.46 67.02
  L 44.20 59.44
  A 0.56 0.56 0.0 0 0 43.33 59.93
  L 43.51 62.91
  A 0.56 0.56 0.0 0 1 42.95 63.50
  L 7.25 63.50
  A 0.56 0.56 0.0 0 0 6.69 64.05
  L 6.55 70.88
  A 0.56 0.56 0.0 0 0 7.11 71.45
  L 43.16 71.50
  Z"
/>
<path fill="#ffffff" d="
  M 56.0397 53.8168
  A 0.63 0.63 0.0 0 1 55.4108 54.4479
  L 7.2108 54.5320
  A 0.63 0.63 0.0 0 1 6.5797 53.9031
  L 6.5003 8.4032
  A 0.63 0.63 0.0 0 1 7.1292 7.7721
  L 55.3292 7.6880
  A 0.63 0.63 0.0 0 1 55.9603 8.3169
  L 56.0397 53.8168
  Z
  M 29.25 34.66
  L 29.25 44.20
  A 0.97 0.95 -18.6 0 1 28.86 44.97
  C 26.57 46.65 22.77 48.34 24.27 51.87
  A 0.51 0.49 -24.1 0 0 24.95 52.12
  L 31.48 49.00
  A 1.02 0.99 -44.3 0 1 32.37 49.00
  L 38.60 52.08
  A 0.47 0.47 0.0 0 0 39.24 51.84
  C 40.85 48.08 37.02 46.80 34.81 44.91
  A 1.02 1.01 -69.0 0 1 34.45 44.09
  L 34.65 34.60
  A 0.42 0.41 -79.9 0 1 35.20 34.21
  L 49.83 39.21
  A 0.51 0.51 0.0 0 0 50.50 38.73
  L 50.50 33.92
  A 1.05 1.04 -75.3 0 0 49.97 33.01
  L 35.12 24.85
  A 0.93 0.92 13.0 0 1 34.63 24.07
  C 34.50 21.19 35.28 11.66 33.30 10.00
  A 1.21 1.21 0.0 0 0 32.40 9.72
  Q 29.08 10.04 29.23 13.49
  C 29.39 16.94 29.24 20.50 29.17 24.01
  A 1.03 1.00 -14.8 0 1 28.65 24.87
  L 13.90 33.13
  A 1.01 1.00 -14.7 0 0 13.38 34.01
  L 13.41 38.80
  A 0.48 0.47 80.4 0 0 14.04 39.25
  L 28.64 34.22
  A 0.46 0.46 0.0 0 1 29.25 34.66
  Z"
/>
<path fill="#1c1b1a" d="
  M 28.64 34.22
  L 14.04 39.25
  A 0.48 0.47 80.4 0 1 13.41 38.80
  L 13.38 34.01
  A 1.01 1.00 -14.7 0 1 13.90 33.13
  L 28.65 24.87
  A 1.03 1.00 -14.8 0 0 29.17 24.01
  C 29.24 20.50 29.39 16.94 29.23 13.49
  Q 29.08 10.04 32.40 9.72
  A 1.21 1.21 0.0 0 1 33.30 10.00
  C 35.28 11.66 34.50 21.19 34.63 24.07
  A 0.93 0.92 13.0 0 0 35.12 24.85
  L 49.97 33.01
  A 1.05 1.04 -75.3 0 1 50.50 33.92
  L 50.50 38.73
  A 0.51 0.51 0.0 0 1 49.83 39.21
  L 35.20 34.21
  A 0.42 0.41 -79.9 0 0 34.65 34.60
  L 34.45 44.09
  A 1.02 1.01 -69.0 0 0 34.81 44.91
  C 37.02 46.80 40.85 48.08 39.24 51.84
  A 0.47 0.47 0.0 0 1 38.60 52.08
  L 32.37 49.00
  A 1.02 0.99 -44.3 0 0 31.48 49.00
  L 24.95 52.12
  A 0.51 0.49 -24.1 0 1 24.27 51.87
  C 22.77 48.34 26.57 46.65 28.86 44.97
  A 0.97 0.95 -18.6 0 0 29.25 44.20
  L 29.25 34.66
  A 0.46 0.46 0.0 0 0 28.64 34.22
  Z"
/>
<path fill="#ffffff" d="
  M 43.16 71.50
  L 7.11 71.45
  A 0.56 0.56 0.0 0 1 6.55 70.88
  L 6.69 64.05
  A 0.56 0.56 0.0 0 1 7.25 63.50
  L 42.95 63.50
  A 0.56 0.56 0.0 0 0 43.51 62.91
  L 43.33 59.93
  A 0.56 0.56 0.0 0 1 44.20 59.44
  L 55.46 67.02
  A 0.56 0.56 0.0 0 1 55.46 67.95
  L 44.14 75.54
  A 0.56 0.56 0.0 0 1 43.27 74.99
  L 43.71 72.14
  A 0.56 0.56 0.0 0 0 43.16 71.50
  Z"
/>
</svg>
