<?xml version="1.0" encoding="UTF-8" standalone="no"?>
<!DOCTYPE svg PUBLIC "-//W3C//DTD SVG 1.1//EN" "http://www.w3.org/Graphics/SVG/1.1/DTD/svg11.dtd">
<svg xmlns="http://www.w3.org/2000/svg" version="1.1" viewBox="0 0 63 81">
<g stroke-width="2.00" fill="none" stroke-linecap="butt">
<path stroke="#86bdda" vector-effect="non-scaling-stroke" d="
  M 56.2004 9.1369
  A 0.68 0.68 0.0 0 0 55.5192 8.4580
  L 7.3992 8.5420
  A 0.68 0.68 0.0 0 0 6.7204 9.2232
  L 6.7996 54.6031
  A 0.68 0.68 0.0 0 0 7.4808 55.2820
  L 55.6008 55.1980
  A 0.68 0.68 0.0 0 0 56.2796 54.5168
  L 56.2004 9.1369"
/>
<path stroke="#5bb2ca" vector-effect="non-scaling-stroke" d="
  M 15.00 66.68
  L 15.00 66.38
  A 0.62 0.62 0.0 0 1 15.62 65.75
  L 17.86 65.75
  A 0.64 0.63 0.9 0 0 18.50 65.14
  L 18.52 64.77
  A 0.74 0.74 0.0 0 0 17.78 64.01
  L 14.47 64.00
  A 0.84 0.83 2.2 0 0 13.63 64.77
  L 13.20 70.06
  A 0.56 0.56 0.0 0 0 14.20 70.44
  Q 14.84 69.60 15.76 69.50
  Q 18.10 69.24 17.88 71.59
  Q 17.64 74.06 15.82 74.02
  A 1.38 1.33 -23.6 0 1 14.98 73.71
  L 13.54 72.50
  Q 12.67 71.76 12.82 72.89
  C 13.22 75.98 18.05 76.37 18.77 74.35
  Q 20.87 68.46 15.47 67.27
  A 0.61 0.59 -84.1 0 1 15.00 66.68"
/>
<path stroke="#6abad9" vector-effect="non-scaling-stroke" d="
  M 27.4703 67.1853
  A 3.26 3.26 0.0 0 0 24.1595 63.9769
  L 23.6796 63.9845
  A 3.26 3.26 0.0 0 0 20.4712 67.2953
  L 20.5497 72.2947
  A 3.26 3.26 0.0 0 0 23.8605 75.5031
  L 24.3404 75.4955
  A 3.26 3.26 0.0 0 0 27.5488 72.1847
  L 27.4703 67.1853"
/>
<path stroke="#6abad9" vector-effect="non-scaling-stroke" d="
  M 35.4639 67.1176
  A 3.10 3.10 0.0 0 0 32.3802 64.0014
  L 31.8602 63.9987
  A 3.10 3.10 0.0 0 0 28.7440 67.0824
  L 28.7161 72.4024
  A 3.10 3.10 0.0 0 0 31.7998 75.5186
  L 32.3198 75.5213
  A 3.10 3.10 0.0 0 0 35.4360 72.4376
  L 35.4639 67.1176"
/>
<path stroke="#5bb2ca" vector-effect="non-scaling-stroke" d="
  M 43.02 68.71
  C 46.27 67.18 44.49 74.83 45.67 75.56
  A 0.69 0.69 0.0 0 0 46.73 74.95
  C 46.68 73.56 46.25 67.65 48.81 68.56
  A 0.88 0.87 -85.4 0 1 49.37 69.23
  C 49.45 69.72 49.76 75.53 50.27 75.64
  A 0.55 0.54 11.6 0 0 50.92 75.22
  C 53.08 65.02 48.34 67.12 41.91 66.70
  A 1.34 1.33 1.8 0 0 40.49 68.03
  L 40.52 75.28
  A 0.52 0.52 0.0 0 0 41.36 75.69
  L 41.66 75.46
  A 1.05 1.04 -16.7 0 0 42.06 74.73
  L 42.50 69.45
  A 0.90 0.88 -10.3 0 1 43.02 68.71"
/>
<path stroke="#8c8c8a" vector-effect="non-scaling-stroke" d="
  M 24.20 21.99
  Q 23.95 17.18 24.14 12.37
  A 0.56 0.55 88.7 0 0 23.54 11.79
  L 22.87 11.85
  A 0.78 0.78 0.0 0 0 22.17 12.54
  Q 21.19 20.51 21.12 26.70
  Q 21.09 29.07 23.47 30.05
  A 0.85 0.84 11.6 0 1 23.99 30.83
  L 24.00 52.38
  A 0.63 0.62 0.0 0 0 24.63 53.00
  L 28.62 53.00
  A 0.63 0.62 -0.0 0 0 29.25 52.38
  L 29.25 30.55
  A 0.90 0.87 73.6 0 1 29.64 29.81
  C 31.02 28.86 31.59 27.84 31.48 26.05
  Q 31.07 19.32 30.52 12.55
  A 0.49 0.49 0.0 0 0 30.03 12.09
  L 25.51 12.04
  A 0.59 0.59 0.0 0 0 24.91 12.67
  Q 25.19 17.35 24.69 22.00
  Q 24.36 25.19 24.20 21.99"
/>
<path stroke="#8c8c8a" vector-effect="non-scaling-stroke" d="
  M 43.11 11.94
  Q 37.34 11.53 37.29 17.25
  Q 37.24 24.59 37.26 31.94
  C 37.27 33.81 38.76 34.72 38.76 36.89
  Q 38.74 44.61 38.76 52.38
  A 0.64 0.64 0.0 0 0 39.42 53.02
  L 43.11 52.93
  A 0.73 0.72 89.2 0 0 43.81 52.20
  L 43.84 12.72
  A 0.78 0.78 0.0 0 0 43.11 11.94"
/>
<path stroke="#625e61" vector-effect="non-scaling-stroke" d="
  M 28.2578 22.5796
  A 4.73 0.54 89.3 0 0 28.7400 17.8434
  A 4.73 0.54 89.3 0 0 28.1422 13.1204
  A 4.73 0.54 89.3 0 0 27.6600 17.8566
  A 4.73 0.54 89.3 0 0 28.2578 22.5796"
/>
<path stroke="#8c8c8a" vector-effect="non-scaling-stroke" d="
  M 26.9295 32.0276
  A 0.45 0.45 0.0 0 0 26.4772 31.5800
  L 26.4372 31.5802
  A 0.45 0.45 0.0 0 0 25.9895 32.0326
  L 26.0705 47.4924
  A 0.45 0.45 0.0 0 0 26.5228 47.9400
  L 26.5628 47.9398
  A 0.45 0.45 0.0 0 0 27.0105 47.4874
  L 26.9295 32.0276"
/>
<path stroke="#484847" vector-effect="non-scaling-stroke" d="
  M 41.1342 48.7195
  A 6.07 0.95 89.3 0 0 42.0099 42.6384
  A 6.07 0.95 89.3 0 0 40.9858 36.5805
  A 6.07 0.95 89.3 0 0 40.1101 42.6616
  A 6.07 0.95 89.3 0 0 41.1342 48.7195"
/>
<path stroke="#73b8c3" vector-effect="non-scaling-stroke" d="
  M 24.0029 74.2598
  A 4.50 2.05 90.6 0 0 26.0999 69.7815
  A 4.50 2.05 90.6 0 0 24.0971 65.2602
  A 4.50 2.05 90.6 0 0 22.0001 69.7385
  A 4.50 2.05 90.6 0 0 24.0029 74.2598"
/>
<path stroke="#73b8c3" vector-effect="non-scaling-stroke" d="
  M 33.7362 67.1409
  A 1.62 1.62 0.0 0 0 32.1077 65.5294
  L 31.8477 65.5307
  A 1.62 1.62 0.0 0 0 30.2363 67.1592
  L 30.2638 72.4191
  A 1.62 1.62 0.0 0 0 31.8923 74.0306
  L 32.1523 74.0293
  A 1.62 1.62 0.0 0 0 33.7637 72.4008
  L 33.7362 67.1409"
/>
</g>
<path fill="#0c7ab5" d="
  M 62.4495 75.2841
  A 5.22 5.22 0.0 0 1 57.2204 80.4949
  L 5.6605 80.4049
  A 5.22 5.22 0.0 0 1 0.4496 75.1758
  L 0.5705 5.9359
  A 5.22 5.22 0.0 0 1 5.7996 0.7251
  L 57.3595 0.8151
  A 5.22 5.22 0.0 0 1 62.5704 6.0442
  L 62.4495 75.2841
  Z
  M 56.2004 9.1369
  A 0.68 0.68 0.0 0 0 55.5192 8.4580
  L 7.3992 8.5420
  A 0.68 0.68 0.0 0 0 6.7204 9.2232
  L 6.7996 54.6031
  A 0.68 0.68 0.0 0 0 7.4808 55.2820
  L 55.6008 55.1980
  A 0.68 0.68 0.0 0 0 56.2796 54.5168
  L 56.2004 9.1369
  Z
  M 15.00 66.68
  L 15.00 66.38
  A 0.62 0.62 0.0 0 1 15.62 65.75
  L 17.86 65.75
  A 0.64 0.63 0.9 0 0 18.50 65.14
  L 18.52 64.77
  A 0.74 0.74 0.0 0 0 17.78 64.01
  L 14.47 64.00
  A 0.84 0.83 2.2 0 0 13.63 64.77
  L 13.20 70.06
  A 0.56 0.56 0.0 0 0 14.20 70.44
  Q 14.84 69.60 15.76 69.50
  Q 18.10 69.24 17.88 71.59
  Q 17.64 74.06 15.82 74.02
  A 1.38 1.33 -23.6 0 1 14.98 73.71
  L 13.54 72.50
  Q 12.67 71.76 12.82 72.89
  C 13.22 75.98 18.05 76.37 18.77 74.35
  Q 20.87 68.46 15.47 67.27
  A 0.61 0.59 -84.1 0 1 15.00 66.68
  Z
  M 27.4703 67.1853
  A 3.26 3.26 0.0 0 0 24.1595 63.9769
  L 23.6796 63.9845
  A 3.26 3.26 0.0 0 0 20.4712 67.2953
  L 20.5497 72.2947
  A 3.26 3.26 0.0 0 0 23.8605 75.5031
  L 24.3404 75.4955
  A 3.26 3.26 0.0 0 0 27.5488 72.1847
  L 27.4703 67.1853
  Z
  M 35.4639 67.1176
  A 3.10 3.10 0.0 0 0 32.3802 64.0014
  L 31.8602 63.9987
  A 3.10 3.10 0.0 0 0 28.7440 67.0824
  L 28.7161 72.4024
  A 3.10 3.10 0.0 0 0 31.7998 75.5186
  L 32.3198 75.5213
  A 3.10 3.10 0.0 0 0 35.4360 72.4376
  L 35.4639 67.1176
  Z
  M 43.02 68.71
  C 46.27 67.18 44.49 74.83 45.67 75.56
  A 0.69 0.69 0.0 0 0 46.73 74.95
  C 46.68 73.56 46.25 67.65 48.81 68.56
  A 0.88 0.87 -85.4 0 1 49.37 69.23
  C 49.45 69.72 49.76 75.53 50.27 75.64
  A 0.55 0.54 11.6 0 0 50.92 75.22
  C 53.08 65.02 48.34 67.12 41.91 66.70
  A 1.34 1.33 1.8 0 0 40.49 68.03
  L 40.52 75.28
  A 0.52 0.52 0.0 0 0 41.36 75.69
  L 41.66 75.46
  A 1.05 1.04 -16.7 0 0 42.06 74.73
  L 42.50 69.45
  A 0.90 0.88 -10.3 0 1 43.02 68.71
  Z"
/>
<path fill="#ffffff" d="
  M 56.2796 54.5168
  A 0.68 0.68 0.0 0 1 55.6008 55.1980
  L 7.4808 55.2820
  A 0.68 0.68 0.0 0 1 6.7996 54.6031
  L 6.7204 9.2232
  A 0.68 0.68 0.0 0 1 7.3992 8.5420
  L 55.5192 8.4580
  A 0.68 0.68 0.0 0 1 56.2004 9.1369
  L 56.2796 54.5168
  Z
  M 24.20 21.99
  Q 23.95 17.18 24.14 12.37
  A 0.56 0.55 88.7 0 0 23.54 11.79
  L 22.87 11.85
  A 0.78 0.78 0.0 0 0 22.17 12.54
  Q 21.19 20.51 21.12 26.70
  Q 21.09 29.07 23.47 30.05
  A 0.85 0.84 11.6 0 1 23.99 30.83
  L 24.00 52.38
  A 0.63 0.62 0.0 0 0 24.63 53.00
  L 28.62 53.00
  A 0.63 0.62 -0.0 0 0 29.25 52.38
  L 29.25 30.55
  A 0.90 0.87 73.6 0 1 29.64 29.81
  C 31.02 28.86 31.59 27.84 31.48 26.05
  Q 31.07 19.32 30.52 12.55
  A 0.49 0.49 0.0 0 0 30.03 12.09
  L 25.51 12.04
  A 0.59 0.59 0.0 0 0 24.91 12.67
  Q 25.19 17.35 24.69 22.00
  Q 24.36 25.19 24.20 21.99
  Z
  M 43.11 11.94
  Q 37.34 11.53 37.29 17.25
  Q 37.24 24.59 37.26 31.94
  C 37.27 33.81 38.76 34.72 38.76 36.89
  Q 38.74 44.61 38.76 52.38
  A 0.64 0.64 0.0 0 0 39.42 53.02
  L 43.11 52.93
  A 0.73 0.72 89.2 0 0 43.81 52.20
  L 43.84 12.72
  A 0.78 0.78 0.0 0 0 43.11 11.94
  Z"
/>
<path fill="#181815" d="
  M 24.69 22.00
  Q 25.19 17.35 24.91 12.67
  A 0.59 0.59 0.0 0 1 25.51 12.04
  L 30.03 12.09
  A 0.49 0.49 0.0 0 1 30.52 12.55
  Q 31.07 19.32 31.48 26.05
  C 31.59 27.84 31.02 28.86 29.64 29.81
  A 0.90 0.87 73.6 0 0 29.25 30.55
  L 29.25 52.38
  A 0.63 0.62 -0.0 0 1 28.62 53.00
  L 24.63 53.00
  A 0.63 0.62 0.0 0 1 24.00 52.38
  L 23.99 30.83
  A 0.85 0.84 11.6 0 0 23.47 30.05
  Q 21.09 29.07 21.12 26.70
  Q 21.19 20.51 22.17 12.54
  A 0.78 0.78 0.0 0 1 22.87 11.85
  L 23.54 11.79
  A 0.56 0.55 88.7 0 1 24.14 12.37
  Q 23.95 17.18 24.20 21.99
  Q 24.36 25.19 24.69 22.00
  Z
  M 28.2578 22.5796
  A 4.73 0.54 89.3 0 0 28.7400 17.8434
  A 4.73 0.54 89.3 0 0 28.1422 13.1204
  A 4.73 0.54 89.3 0 0 27.6600 17.8566
  A 4.73 0.54 89.3 0 0 28.2578 22.5796
  Z
  M 26.9295 32.0276
  A 0.45 0.45 0.0 0 0 26.4772 31.5800
  L 26.4372 31.5802
  A 0.45 0.45 0.0 0 0 25.9895 32.0326
  L 26.0705 47.4924
  A 0.45 0.45 0.0 0 0 26.5228 47.9400
  L 26.5628 47.9398
  A 0.45 0.45 0.0 0 0 27.0105 47.4874
  L 26.9295 32.0276
  Z"
/>
<path fill="#181815" d="
  M 43.11 11.94
  A 0.78 0.78 0.0 0 1 43.84 12.72
  L 43.81 52.20
  A 0.73 0.72 89.2 0 1 43.11 52.93
  L 39.42 53.02
  A 0.64 0.64 0.0 0 1 38.76 52.38
  Q 38.74 44.61 38.76 36.89
  C 38.76 34.72 37.27 33.81 37.26 31.94
  Q 37.24 24.59 37.29 17.25
  Q 37.34 11.53 43.11 11.94
  Z
  M 41.1342 48.7195
  A 6.07 0.95 89.3 0 0 42.0099 42.6384
  A 6.07 0.95 89.3 0 0 40.9858 36.5805
  A 6.07 0.95 89.3 0 0 40.1101 42.6616
  A 6.07 0.95 89.3 0 0 41.1342 48.7195
  Z"
/>
<ellipse fill="#aba3ac" cx="0.00" cy="0.00" transform="translate(28.20,17.85) rotate(89.3)" rx="4.73" ry="0.54"/>
<rect fill="#ffffff" x="-0.47" y="-8.18" transform="translate(26.50,39.76) rotate(-0.3)" width="0.94" height="16.36" rx="0.45"/>
<ellipse fill="#787878" cx="0.00" cy="0.00" transform="translate(41.06,42.65) rotate(89.3)" rx="6.07" ry="0.95"/>
<path fill="#aaeade" d="
  M 15.47 67.27
  Q 20.87 68.46 18.77 74.35
  C 18.05 76.37 13.22 75.98 12.82 72.89
  Q 12.67 71.76 13.54 72.50
  L 14.98 73.71
  A 1.38 1.33 -23.6 0 0 15.82 74.02
  Q 17.64 74.06 17.88 71.59
  Q 18.10 69.24 15.76 69.50
  Q 14.84 69.60 14.20 70.44
  A 0.56 0.56 0.0 0 1 13.20 70.06
  L 13.63 64.77
  A 0.84 0.83 2.2 0 1 14.47 64.00
  L 17.78 64.01
  A 0.74 0.74 0.0 0 1 18.52 64.77
  L 18.50 65.14
  A 0.64 0.63 0.9 0 1 17.86 65.75
  L 15.62 65.75
  A 0.62 0.62 0.0 0 0 15.00 66.38
  L 15.00 66.68
  A 0.61 0.59 -84.1 0 0 15.47 67.27
  Z"
/>
<path fill="#c8fafd" d="
  M 27.5488 72.1847
  A 3.26 3.26 0.0 0 1 24.3404 75.4955
  L 23.8605 75.5031
  A 3.26 3.26 0.0 0 1 20.5497 72.2947
  L 20.4712 67.2953
  A 3.26 3.26 0.0 0 1 23.6796 63.9845
  L 24.1595 63.9769
  A 3.26 3.26 0.0 0 1 27.4703 67.1853
  L 27.5488 72.1847
  Z
  M 24.0029 74.2598
  A 4.50 2.05 90.6 0 0 26.0999 69.7815
  A 4.50 2.05 90.6 0 0 24.0971 65.2602
  A 4.50 2.05 90.6 0 0 22.0001 69.7385
  A 4.50 2.05 90.6 0 0 24.0029 74.2598
  Z"
/>
<path fill="#c8fafd" d="
  M 35.4360 72.4376
  A 3.10 3.10 0.0 0 1 32.3198 75.5213
  L 31.7998 75.5186
  A 3.10 3.10 0.0 0 1 28.7161 72.4024
  L 28.7440 67.0824
  A 3.10 3.10 0.0 0 1 31.8602 63.9987
  L 32.3802 64.0014
  A 3.10 3.10 0.0 0 1 35.4639 67.1176
  L 35.4360 72.4376
  Z
  M 33.7362 67.1409
  A 1.62 1.62 0.0 0 0 32.1077 65.5294
  L 31.8477 65.5307
  A 1.62 1.62 0.0 0 0 30.2363 67.1592
  L 30.2638 72.4191
  A 1.62 1.62 0.0 0 0 31.8923 74.0306
  L 32.1523 74.0293
  A 1.62 1.62 0.0 0 0 33.7637 72.4008
  L 33.7362 67.1409
  Z"
/>
<ellipse fill="#1d7589" cx="0.00" cy="0.00" transform="translate(24.05,69.76) rotate(90.6)" rx="4.50" ry="2.05"/>
<rect fill="#1d7589" x="-1.75" y="-4.25" transform="translate(32.00,69.78) rotate(-0.3)" width="3.50" height="8.50" rx="1.62"/>
<path fill="#aaeade" d="
  M 42.50 69.45
  L 42.06 74.73
  A 1.05 1.04 -16.7 0 1 41.66 75.46
  L 41.36 75.69
  A 0.52 0.52 0.0 0 1 40.52 75.28
  L 40.49 68.03
  A 1.34 1.33 1.8 0 1 41.91 66.70
  C 48.34 67.12 53.08 65.02 50.92 75.22
  A 0.55 0.54 11.6 0 1 50.27 75.64
  C 49.76 75.53 49.45 69.72 49.37 69.23
  A 0.88 0.87 -85.4 0 0 48.81 68.56
  C 46.25 67.65 46.68 73.56 46.73 74.95
  A 0.69 0.69 0.0 0 1 45.67 75.56
  C 44.49 74.83 46.27 67.18 43.02 68.71
  A 0.90 0.88 -10.3 0 0 42.50 69.45
  Z"
/>
</svg>
