<?xml version="1.0" encoding="UTF-8" standalone="no"?>
<!DOCTYPE svg PUBLIC "-//W3C//DTD SVG 1.1//EN" "http://www.w3.org/Graphics/SVG/1.1/DTD/svg11.dtd">
<svg xmlns="http://www.w3.org/2000/svg" version="1.1" viewBox="0 0 63 83">
<g stroke-width="2.00" fill="none" stroke-linecap="butt">
<path stroke="#86bdd9" vector-effect="non-scaling-stroke" d="
  M 55.75 8.80
  A 0.31 0.31 0.0 0 0 55.44 8.49
  L 6.80 8.49
  A 0.31 0.31 0.0 0 0 6.49 8.80
  L 6.49 56.44
  A 0.31 0.31 0.0 0 0 6.80 56.75
  L 55.44 56.75
  A 0.31 0.31 0.0 0 0 55.75 56.44
  L 55.75 8.80"
/>
<path stroke="#86bdd9" vector-effect="non-scaling-stroke" d="
  M 29.81 73.90
  C 33.50 73.81 38.10 74.12 42.42 73.93
  A 0.84 0.84 0.0 0 1 43.29 74.85
  L 42.98 78.26
  A 0.46 0.46 0.0 0 0 43.70 78.68
  L 55.26 70.46
  A 0.46 0.46 0.0 0 0 55.26 69.71
  L 43.73 61.41
  Q 43.07 60.94 43.10 61.75
  L 43.28 65.36
  A 0.53 0.53 0.0 0 1 42.77 65.91
  C 30.85 66.34 19.03 65.99 7.10 66.22
  A 0.61 0.61 0.0 0 0 6.50 66.83
  L 6.50 73.17
  A 0.65 0.65 0.0 0 0 7.13 73.82
  Q 18.50 74.19 29.81 73.90"
/>
<path stroke="#8e8c8c" vector-effect="non-scaling-stroke" d="
  M 25.14 37.83
  Q 33.72 38.00 36.23 37.25
  C 44.17 34.88 48.41 26.58 43.87 19.63
  C 38.69 11.72 24.98 13.29 16.99 13.62
  A 0.53 0.53 0.0 0 0 16.49 14.15
  L 16.51 51.47
  A 0.45 0.45 0.0 0 0 16.97 51.92
  L 24.17 51.68
  A 0.60 0.60 0.0 0 0 24.76 51.08
  L 24.74 38.22
  A 0.39 0.39 0.0 0 1 25.14 37.83"
/>
<path stroke="#8e8c8c" vector-effect="non-scaling-stroke" d="
  M 36.72 28.06
  C 39.56 21.42 30.02 20.12 25.68 20.53
  A 0.56 0.55 86.7 0 0 25.18 21.10
  L 25.47 30.42
  A 0.52 0.51 -87.3 0 0 25.91 30.91
  Q 31.50 31.65 36.17 28.70
  A 1.45 1.37 -6.0 0 0 36.72 28.06"
/>
</g>
<path fill="#0d7ab3" d="
  M 62.23 77.41
  A 5.08 5.08 0.0 0 1 57.15 82.49
  L 5.33 82.49
  A 5.08 5.08 0.0 0 1 0.25 77.41
  L 0.25 5.87
  A 5.08 5.08 0.0 0 1 5.33 0.79
  L 57.15 0.79
  A 5.08 5.08 0.0 0 1 62.23 5.87
  L 62.23 77.41
  Z
  M 55.75 8.80
  A 0.31 0.31 0.0 0 0 55.44 8.49
  L 6.80 8.49
  A 0.31 0.31 0.0 0 0 6.49 8.80
  L 6.49 56.44
  A 0.31 0.31 0.0 0 0 6.80 56.75
  L 55.44 56.75
  A 0.31 0.31 0.0 0 0 55.75 56.44
  L 55.75 8.80
  Z
  M 29.81 73.90
  C 33.50 73.81 38.10 74.12 42.42 73.93
  A 0.84 0.84 0.0 0 1 43.29 74.85
  L 42.98 78.26
  A 0.46 0.46 0.0 0 0 43.70 78.68
  L 55.26 70.46
  A 0.46 0.46 0.0 0 0 55.26 69.71
  L 43.73 61.41
  Q 43.07 60.94 43.10 61.75
  L 43.28 65.36
  A 0.53 0.53 0.0 0 1 42.77 65.91
  C 30.85 66.34 19.03 65.99 7.10 66.22
  A 0.61 0.61 0.0 0 0 6.50 66.83
  L 6.50 73.17
  A 0.65 0.65 0.0 0 0 7.13 73.82
  Q 18.50 74.19 29.81 73.90
  Z"
/>
<path fill="#ffffff" d="
  M 55.75 56.44
  A 0.31 0.31 0.0 0 1 55.44 56.75
  L 6.80 56.75
  A 0.31 0.31 0.0 0 1 6.49 56.44
  L 6.49 8.80
  A 0.31 0.31 0.0 0 1 6.80 8.49
  L 55.44 8.49
  A 0.31 0.31 0.0 0 1 55.75 8.80
  L 55.75 56.44
  Z
  M 25.14 37.83
  Q 33.72 38.00 36.23 37.25
  C 44.17 34.88 48.41 26.58 43.87 19.63
  C 38.69 11.72 24.98 13.29 16.99 13.62
  A 0.53 0.53 0.0 0 0 16.49 14.15
  L 16.51 51.47
  A 0.45 0.45 0.0 0 0 16.97 51.92
  L 24.17 51.68
  A 0.60 0.60 0.0 0 0 24.76 51.08
  L 24.74 38.22
  A 0.39 0.39 0.0 0 1 25.14 37.83
  Z"
/>
<path fill="#1d1918" d="
  M 24.74 38.22
  L 24.76 51.08
  A 0.60 0.60 0.0 0 1 24.17 51.68
  L 16.97 51.92
  A 0.45 0.45 0.0 0 1 16.51 51.47
  L 16.49 14.15
  A 0.53 0.53 0.0 0 1 16.99 13.62
  C 24.98 13.29 38.69 11.72 43.87 19.63
  C 48.41 26.58 44.17 34.88 36.23 37.25
  Q 33.72 38.00 25.14 37.83
  A 0.39 0.39 0.0 0 0 24.74 38.22
  Z
  M 36.72 28.06
  C 39.56 21.42 30.02 20.12 25.68 20.53
  A 0.56 0.55 86.7 0 0 25.18 21.10
  L 25.47 30.42
  A 0.52 0.51 -87.3 0 0 25.91 30.91
  Q 31.50 31.65 36.17 28.70
  A 1.45 1.37 -6.0 0 0 36.72 28.06
  Z"
/>
<path fill="#ffffff" d="
  M 25.68 20.53
  C 30.02 20.12 39.56 21.42 36.72 28.06
  A 1.45 1.37 -6.0 0 1 36.17 28.70
  Q 31.50 31.65 25.91 30.91
  A 0.52 0.51 -87.3 0 1 25.47 30.42
  L 25.18 21.10
  A 0.56 0.55 86.7 0 1 25.68 20.53
  Z"
/>
<path fill="#ffffff" d="
  M 29.81 73.90
  Q 18.50 74.19 7.13 73.82
  A 0.65 0.65 0.0 0 1 6.50 73.17
  L 6.50 66.83
  A 0.61 0.61 0.0 0 1 7.10 66.22
  C 19.03 65.99 30.85 66.34 42.77 65.91
  A 0.53 0.53 0.0 0 0 43.28 65.36
  L 43.10 61.75
  Q 43.07 60.94 43.73 61.41
  L 55.26 69.71
  A 0.46 0.46 0.0 0 1 55.26 70.46
  L 43.70 78.68
  A 0.46 0.46 0.0 0 1 42.98 78.26
  L 43.29 74.85
  A 0.84 0.84 0.0 0 0 42.42 73.93
  C 38.10 74.12 33.50 73.81 29.81 73.90
  Z"
/>
</svg>
