<?xml version="1.0" encoding="UTF-8" standalone="no"?>
<!DOCTYPE svg PUBLIC "-//W3C//DTD SVG 1.1//EN" "http://www.w3.org/Graphics/SVG/1.1/DTD/svg11.dtd">
<svg xmlns="http://www.w3.org/2000/svg" version="1.1" viewBox="0 0 63 81">
<g stroke-width="2.00" fill="none" stroke-linecap="butt">
<path stroke="#164c67" vector-effect="non-scaling-stroke" d="
  M 63.00 20.31
  L 62.79 25.00"
/>
<path stroke="#164c67" vector-effect="non-scaling-stroke" d="
  M 62.79 31.00
  L 63.00 59.81"
/>
<path stroke="#87bdd9" vector-effect="non-scaling-stroke" d="
  M 56.29 8.43
  A 0.46 0.46 0.0 0 0 55.83 7.97
  L 7.45 7.97
  A 0.46 0.46 0.0 0 0 6.99 8.43
  L 6.99 54.19
  A 0.46 0.46 0.0 0 0 7.45 54.65
  L 55.83 54.65
  A 0.46 0.46 0.0 0 0 56.29 54.19
  L 56.29 8.43"
/>
<path stroke="#87bdd9" vector-effect="non-scaling-stroke" d="
  M 43.68 63.91
  A 0.31 0.31 0.0 0 1 43.37 64.19
  L 7.36 64.27
  A 0.31 0.31 0.0 0 0 7.05 64.57
  L 6.90 71.21
  A 0.31 0.31 0.0 0 0 7.21 71.53
  L 43.67 71.49
  A 0.31 0.31 0.0 0 1 43.98 71.83
  L 43.62 76.12
  A 0.31 0.31 0.0 0 0 44.11 76.40
  L 56.17 68.01
  A 0.31 0.31 0.0 0 0 56.16 67.50
  L 44.53 59.69
  A 0.31 0.31 0.0 0 0 44.05 59.92
  L 43.68 63.91"
/>
<path stroke="#8e8e8d" vector-effect="non-scaling-stroke" d="
  M 15.98 18.71
  L 14.20 16.05
  A 0.68 0.68 0.0 0 0 12.96 16.40
  C 12.65 24.06 18.61 20.98 22.41 24.68
  Q 30.83 32.86 38.92 41.37
  C 41.85 44.44 39.56 48.83 45.23 50.09
  Q 46.04 50.27 45.64 49.55
  L 43.93 46.48
  Q 43.67 46.02 43.85 45.53
  Q 44.56 43.57 46.68 43.23
  Q 47.29 43.13 47.61 43.65
  L 49.53 46.69
  A 0.51 0.51 0.0 0 0 50.47 46.47
  Q 51.12 39.69 44.42 39.94
  Q 43.89 39.96 43.48 39.61
  C 36.86 33.88 30.79 27.43 24.60 21.23
  C 21.79 18.42 24.27 12.95 18.37 12.39
  Q 17.58 12.32 17.99 13.00
  L 19.92 16.21
  Q 20.20 16.69 19.89 17.15
  Q 18.77 18.84 16.79 19.08
  Q 16.27 19.14 15.98 18.71"
/>
</g>
<path fill="#0f7ab3" d="
  M 63.00 10.81
  L 63.00 20.31
  L 62.79 25.00
  L 62.79 31.00
  L 63.00 59.81
  L 63.00 73.56
  C 63.28 79.08 59.88 79.93 55.10 79.94
  Q 32.75 79.99 10.46 80.00
  C 7.29 80.00 0.82 80.40 0.80 75.56
  Q 0.61 20.37 0.80 4.81
  C 0.84 1.05 3.73 0.51 7.00 0.51
  Q 32.51 0.49 57.99 0.50
  C 63.85 0.51 62.67 7.09 63.00 10.81
  Z
  M 56.29 8.43
  A 0.46 0.46 0.0 0 0 55.83 7.97
  L 7.45 7.97
  A 0.46 0.46 0.0 0 0 6.99 8.43
  L 6.99 54.19
  A 0.46 0.46 0.0 0 0 7.45 54.65
  L 55.83 54.65
  A 0.46 0.46 0.0 0 0 56.29 54.19
  L 56.29 8.43
  Z
  M 43.68 63.91
  A 0.31 0.31 0.0 0 1 43.37 64.19
  L 7.36 64.27
  A 0.31 0.31 0.0 0 0 7.05 64.57
  L 6.90 71.21
  A 0.31 0.31 0.0 0 0 7.21 71.53
  L 43.67 71.49
  A 0.31 0.31 0.0 0 1 43.98 71.83
  L 43.62 76.12
  A 0.31 0.31 0.0 0 0 44.11 76.40
  L 56.17 68.01
  A 0.31 0.31 0.0 0 0 56.16 67.50
  L 44.53 59.69
  A 0.31 0.31 0.0 0 0 44.05 59.92
  L 43.68 63.91
  Z"
/>
<path fill="#ffffff" d="
  M 56.29 54.19
  A 0.46 0.46 0.0 0 1 55.83 54.65
  L 7.45 54.65
  A 0.46 0.46 0.0 0 1 6.99 54.19
  L 6.99 8.43
  A 0.46 0.46 0.0 0 1 7.45 7.97
  L 55.83 7.97
  A 0.46 0.46 0.0 0 1 56.29 8.43
  L 56.29 54.19
  Z
  M 15.98 18.71
  L 14.20 16.05
  A 0.68 0.68 0.0 0 0 12.96 16.40
  C 12.65 24.06 18.61 20.98 22.41 24.68
  Q 30.83 32.86 38.92 41.37
  C 41.85 44.44 39.56 48.83 45.23 50.09
  Q 46.04 50.27 45.64 49.55
  L 43.93 46.48
  Q 43.67 46.02 43.85 45.53
  Q 44.56 43.57 46.68 43.23
  Q 47.29 43.13 47.61 43.65
  L 49.53 46.69
  A 0.51 0.51 0.0 0 0 50.47 46.47
  Q 51.12 39.69 44.42 39.94
  Q 43.89 39.96 43.48 39.61
  C 36.86 33.88 30.79 27.43 24.60 21.23
  C 21.79 18.42 24.27 12.95 18.37 12.39
  Q 17.58 12.32 17.99 13.00
  L 19.92 16.21
  Q 20.20 16.69 19.89 17.15
  Q 18.77 18.84 16.79 19.08
  Q 16.27 19.14 15.98 18.71
  Z"
/>
<path fill="#1d1d1a" d="
  M 16.79 19.08
  Q 18.77 18.84 19.89 17.15
  Q 20.20 16.69 19.92 16.21
  L 17.99 13.00
  Q 17.58 12.32 18.37 12.39
  C 24.27 12.95 21.79 18.42 24.60 21.23
  C 30.79 27.43 36.86 33.88 43.48 39.61
  Q 43.89 39.96 44.42 39.94
  Q 51.12 39.69 50.47 46.47
  A 0.51 0.51 0.0 0 1 49.53 46.69
  L 47.61 43.65
  Q 47.29 43.13 46.68 43.23
  Q 44.56 43.57 43.85 45.53
  Q 43.67 46.02 43.93 46.48
  L 45.64 49.55
  Q 46.04 50.27 45.23 50.09
  C 39.56 48.83 41.85 44.44 38.92 41.37
  Q 30.83 32.86 22.41 24.68
  C 18.61 20.98 12.65 24.06 12.96 16.40
  A 0.68 0.68 0.0 0 1 14.20 16.05
  L 15.98 18.71
  Q 16.27 19.14 16.79 19.08
  Z"
/>
<path fill="#1d1d1a" d="
  M 63.00 20.31
  L 63.00 25.06
  Q 62.90 25.03 62.79 25.00
  L 63.00 20.31
  Z"
/>
<path fill="#1d1d1a" d="
  M 62.79 31.00
  Q 62.90 31.03 63.00 31.06
  L 63.00 59.81
  L 62.79 31.00
  Z"
/>
<path fill="#ffffff" d="
  M 43.68 63.91
  L 44.05 59.92
  A 0.31 0.31 0.0 0 1 44.53 59.69
  L 56.16 67.50
  A 0.31 0.31 0.0 0 1 56.17 68.01
  L 44.11 76.40
  A 0.31 0.31 0.0 0 1 43.62 76.12
  L 43.98 71.83
  A 0.31 0.31 0.0 0 0 43.67 71.49
  L 7.21 71.53
  A 0.31 0.31 0.0 0 1 6.90 71.21
  L 7.05 64.57
  A 0.31 0.31 0.0 0 1 7.36 64.27
  L 43.37 64.19
  A 0.31 0.31 0.0 0 0 43.68 63.91
  Z"
/>
</svg>
