<?xml version="1.0" encoding="UTF-8" standalone="no"?>
<!DOCTYPE svg PUBLIC "-//W3C//DTD SVG 1.1//EN" "http://www.w3.org/Graphics/SVG/1.1/DTD/svg11.dtd">
<svg xmlns="http://www.w3.org/2000/svg" version="1.1" viewBox="0 0 63 81">
<g stroke-width="2.00" fill="none" stroke-linecap="butt">
<path stroke="#85bddb" vector-effect="non-scaling-stroke" d="
  M 56.50 8.93
  A 0.42 0.42 0.0 0 0 56.08 8.51
  L 7.42 8.51
  A 0.42 0.42 0.0 0 0 7.00 8.93
  L 7.00 54.83
  A 0.42 0.42 0.0 0 0 7.42 55.25
  L 56.08 55.25
  A 0.42 0.42 0.0 0 0 56.50 54.83
  L 56.50 8.93"
/>
<path stroke="#69bad2" vector-effect="non-scaling-stroke" d="
  M 21.17 75.40
  L 21.29 64.90
  Q 21.29 64.20 20.59 64.22
  L 18.88 64.26
  Q 17.60 64.30 18.64 65.05
  L 19.46 65.64
  Q 19.97 66.01 19.98 66.64
  L 20.05 75.40
  A 0.56 0.56 0.0 0 0 21.17 75.40"
/>
<path stroke="#69bad2" vector-effect="non-scaling-stroke" d="
  M 30.78 68.95
  C 30.58 67.81 31.23 64.22 29.97 64.26
  Q 29.50 64.28 29.43 64.74
  Q 28.58 70.03 29.39 75.30
  A 0.56 0.56 0.0 0 0 30.48 75.40
  C 30.79 74.48 30.56 71.40 31.04 71.03
  Q 31.45 70.70 31.72 71.15
  L 33.92 74.77
  Q 34.21 75.25 34.78 75.25
  L 35.45 75.25
  Q 36.03 75.25 35.72 74.76
  L 32.95 70.27
  Q 32.62 69.74 32.95 69.22
  L 35.79 64.70
  Q 36.22 64.02 35.41 63.98
  C 34.06 63.92 32.18 67.93 31.71 69.05
  A 0.49 0.49 0.0 0 1 30.78 68.95"
/>
<path stroke="#69bad2" vector-effect="non-scaling-stroke" d="
  M 44.39 68.32
  C 46.30 68.99 45.87 73.54 46.09 75.32
  Q 46.13 75.69 46.50 75.75
  Q 46.67 75.78 46.85 75.73
  Q 47.25 75.61 47.25 75.19
  L 47.25 68.68
  Q 47.25 68.08 46.82 67.67
  Q 45.11 65.99 42.72 67.16
  Q 42.32 67.36 41.90 67.20
  Q 39.74 66.36 37.48 66.99
  A 1.03 1.03 0.0 0 0 36.73 68.01
  L 36.85 74.81
  Q 36.86 75.50 37.56 75.50
  L 37.88 75.50
  Q 38.50 75.50 38.50 74.87
  L 38.50 69.55
  Q 38.50 67.65 40.22 68.47
  C 41.77 69.20 41.54 73.71 41.57 75.17
  Q 41.58 75.42 41.83 75.45
  L 42.19 75.50
  Q 42.62 75.56 42.64 75.13
  L 42.97 69.27
  A 1.07 1.06 -78.6 0 1 44.39 68.32"
/>
<path stroke="#8f8e8c" vector-effect="non-scaling-stroke" d="
  M 22.28 21.56
  L 24.19 20.51
  A 1.23 1.22 58.4 0 0 24.61 18.74
  L 19.61 11.53
  Q 19.20 10.94 18.53 11.21
  C 15.98 12.27 14.33 13.96 14.52 16.99
  C 15.00 25.00 22.33 35.51 27.96 42.31
  Q 31.62 46.73 40.55 51.83
  Q 40.94 52.06 41.36 51.92
  Q 45.02 50.73 47.38 47.66
  Q 47.82 47.08 47.26 46.63
  L 39.13 40.13
  Q 38.53 39.65 37.98 40.18
  L 36.39 41.72
  A 0.74 0.74 0.0 0 1 35.27 41.61
  L 22.00 22.78
  Q 21.46 22.01 22.28 21.56"
/>
</g>
<path fill="#0a7bb7" d="
  M 62.76 75.39
  A 5.09 5.09 0.0 0 1 57.67 80.48
  L 5.85 80.48
  A 5.09 5.09 0.0 0 1 0.76 75.39
  L 0.76 5.87
  A 5.09 5.09 0.0 0 1 5.85 0.78
  L 57.67 0.78
  A 5.09 5.09 0.0 0 1 62.76 5.87
  L 62.76 75.39
  Z
  M 56.50 8.93
  A 0.42 0.42 0.0 0 0 56.08 8.51
  L 7.42 8.51
  A 0.42 0.42 0.0 0 0 7.00 8.93
  L 7.00 54.83
  A 0.42 0.42 0.0 0 0 7.42 55.25
  L 56.08 55.25
  A 0.42 0.42 0.0 0 0 56.50 54.83
  L 56.50 8.93
  Z
  M 21.17 75.40
  L 21.29 64.90
  Q 21.29 64.20 20.59 64.22
  L 18.88 64.26
  Q 17.60 64.30 18.64 65.05
  L 19.46 65.64
  Q 19.97 66.01 19.98 66.64
  L 20.05 75.40
  A 0.56 0.56 0.0 0 0 21.17 75.40
  Z
  M 30.78 68.95
  C 30.58 67.81 31.23 64.22 29.97 64.26
  Q 29.50 64.28 29.43 64.74
  Q 28.58 70.03 29.39 75.30
  A 0.56 0.56 0.0 0 0 30.48 75.40
  C 30.79 74.48 30.56 71.40 31.04 71.03
  Q 31.45 70.70 31.72 71.15
  L 33.92 74.77
  Q 34.21 75.25 34.78 75.25
  L 35.45 75.25
  Q 36.03 75.25 35.72 74.76
  L 32.95 70.27
  Q 32.62 69.74 32.95 69.22
  L 35.79 64.70
  Q 36.22 64.02 35.41 63.98
  C 34.06 63.92 32.18 67.93 31.71 69.05
  A 0.49 0.49 0.0 0 1 30.78 68.95
  Z
  M 44.39 68.32
  C 46.30 68.99 45.87 73.54 46.09 75.32
  Q 46.13 75.69 46.50 75.75
  Q 46.67 75.78 46.85 75.73
  Q 47.25 75.61 47.25 75.19
  L 47.25 68.68
  Q 47.25 68.08 46.82 67.67
  Q 45.11 65.99 42.72 67.16
  Q 42.32 67.36 41.90 67.20
  Q 39.74 66.36 37.48 66.99
  A 1.03 1.03 0.0 0 0 36.73 68.01
  L 36.85 74.81
  Q 36.86 75.50 37.56 75.50
  L 37.88 75.50
  Q 38.50 75.50 38.50 74.87
  L 38.50 69.55
  Q 38.50 67.65 40.22 68.47
  C 41.77 69.20 41.54 73.71 41.57 75.17
  Q 41.58 75.42 41.83 75.45
  L 42.19 75.50
  Q 42.62 75.56 42.64 75.13
  L 42.97 69.27
  A 1.07 1.06 -78.6 0 1 44.39 68.32
  Z"
/>
<path fill="#ffffff" d="
  M 56.50 54.83
  A 0.42 0.42 0.0 0 1 56.08 55.25
  L 7.42 55.25
  A 0.42 0.42 0.0 0 1 7.00 54.83
  L 7.00 8.93
  A 0.42 0.42 0.0 0 1 7.42 8.51
  L 56.08 8.51
  A 0.42 0.42 0.0 0 1 56.50 8.93
  L 56.50 54.83
  Z
  M 22.28 21.56
  L 24.19 20.51
  A 1.23 1.22 58.4 0 0 24.61 18.74
  L 19.61 11.53
  Q 19.20 10.94 18.53 11.21
  C 15.98 12.27 14.33 13.96 14.52 16.99
  C 15.00 25.00 22.33 35.51 27.96 42.31
  Q 31.62 46.73 40.55 51.83
  Q 40.94 52.06 41.36 51.92
  Q 45.02 50.73 47.38 47.66
  Q 47.82 47.08 47.26 46.63
  L 39.13 40.13
  Q 38.53 39.65 37.98 40.18
  L 36.39 41.72
  A 0.74 0.74 0.0 0 1 35.27 41.61
  L 22.00 22.78
  Q 21.46 22.01 22.28 21.56
  Z"
/>
<path fill="#1e1c19" d="
  M 22.00 22.78
  L 35.27 41.61
  A 0.74 0.74 0.0 0 0 36.39 41.72
  L 37.98 40.18
  Q 38.53 39.65 39.13 40.13
  L 47.26 46.63
  Q 47.82 47.08 47.38 47.66
  Q 45.02 50.73 41.36 51.92
  Q 40.94 52.06 40.55 51.83
  Q 31.62 46.73 27.96 42.31
  C 22.33 35.51 15.00 25.00 14.52 16.99
  C 14.33 13.96 15.98 12.27 18.53 11.21
  Q 19.20 10.94 19.61 11.53
  L 24.61 18.74
  A 1.23 1.22 58.4 0 1 24.19 20.51
  L 22.28 21.56
  Q 21.46 22.01 22.00 22.78
  Z"
/>
<path fill="#c7f8ec" d="
  M 21.17 75.40
  A 0.56 0.56 0.0 0 1 20.05 75.40
  L 19.98 66.64
  Q 19.97 66.01 19.46 65.64
  L 18.64 65.05
  Q 17.60 64.30 18.88 64.26
  L 20.59 64.22
  Q 21.29 64.20 21.29 64.90
  L 21.17 75.40
  Z"
/>
<path fill="#c7f8ec" d="
  M 30.78 68.95
  A 0.49 0.49 0.0 0 0 31.71 69.05
  C 32.18 67.93 34.06 63.92 35.41 63.98
  Q 36.22 64.02 35.79 64.70
  L 32.95 69.22
  Q 32.62 69.74 32.95 70.27
  L 35.72 74.76
  Q 36.03 75.25 35.45 75.25
  L 34.78 75.25
  Q 34.21 75.25 33.92 74.77
  L 31.72 71.15
  Q 31.45 70.70 31.04 71.03
  C 30.56 71.40 30.79 74.48 30.48 75.40
  A 0.56 0.56 0.0 0 1 29.39 75.30
  Q 28.58 70.03 29.43 64.74
  Q 29.50 64.28 29.97 64.26
  C 31.23 64.22 30.58 67.81 30.78 68.95
  Z"
/>
<path fill="#c7f8ec" d="
  M 44.39 68.32
  A 1.07 1.06 -78.6 0 0 42.97 69.27
  L 42.64 75.13
  Q 42.62 75.56 42.19 75.50
  L 41.83 75.45
  Q 41.58 75.42 41.57 75.17
  C 41.54 73.71 41.77 69.20 40.22 68.47
  Q 38.50 67.65 38.50 69.55
  L 38.50 74.87
  Q 38.50 75.50 37.88 75.50
  L 37.56 75.50
  Q 36.86 75.50 36.85 74.81
  L 36.73 68.01
  A 1.03 1.03 0.0 0 1 37.48 66.99
  Q 39.74 66.36 41.90 67.20
  Q 42.32 67.36 42.72 67.16
  Q 45.11 65.99 46.82 67.67
  Q 47.25 68.08 47.25 68.68
  L 47.25 75.19
  Q 47.25 75.61 46.85 75.73
  Q 46.67 75.78 46.50 75.75
  Q 46.13 75.69 46.09 75.32
  C 45.87 73.54 46.30 68.99 44.39 68.32
  Z"
/>
</svg>
