<?xml version="1.0" encoding="UTF-8" standalone="no"?>
<!DOCTYPE svg PUBLIC "-//W3C//DTD SVG 1.1//EN" "http://www.w3.org/Graphics/SVG/1.1/DTD/svg11.dtd">
<svg xmlns="http://www.w3.org/2000/svg" version="1.1" viewBox="0 0 64 81">
<g stroke-width="2.00" fill="none" stroke-linecap="butt">
<path stroke="#86bddb" vector-effect="non-scaling-stroke" d="
  M 56.6196 8.9341
  A 0.27 0.27 0.0 0 0 56.3487 8.6651
  L 7.6090 8.8352
  A 0.27 0.27 0.0 0 0 7.3399 9.1061
  L 7.5004 55.0659
  A 0.27 0.27 0.0 0 0 7.7713 55.3349
  L 56.5110 55.1648
  A 0.27 0.27 0.0 0 0 56.7801 54.8939
  L 56.6196 8.9341"
/>
<path stroke="#57adc5" vector-effect="non-scaling-stroke" d="
  M 16.46 65.64
  Q 17.26 64.33 18.92 64.78
  Q 19.41 64.92 19.67 64.48
  Q 19.83 64.20 19.72 63.87
  Q 19.47 63.12 18.68 63.15
  L 15.96 63.25
  Q 15.11 63.28 15.02 64.14
  L 14.66 67.92
  Q 14.58 68.76 15.37 68.45
  L 17.05 67.77
  Q 17.58 67.56 18.05 67.87
  Q 19.79 68.98 18.56 71.13
  A 1.18 1.18 0.0 0 1 16.78 71.45
  L 15.06 70.03
  Q 14.71 69.74 14.38 70.07
  C 12.66 71.81 19.54 75.90 20.60 70.68
  C 21.13 68.09 19.86 65.82 16.89 66.28
  Q 15.99 66.42 16.46 65.64"
/>
<path stroke="#57adc5" vector-effect="non-scaling-stroke" d="
  M 24.8800 73.2200
  A 5.11 3.39 90.0 0 0 28.2700 68.1100
  A 5.11 3.39 90.0 0 0 24.8800 63.0000
  A 5.11 3.39 90.0 0 0 21.4900 68.1100
  A 5.11 3.39 90.0 0 0 24.8800 73.2200"
/>
<path stroke="#57adc5" vector-effect="non-scaling-stroke" d="
  M 32.4292 73.2892
  A 5.11 3.48 89.0 0 0 35.8195 68.1193
  A 5.11 3.48 89.0 0 0 32.2508 63.0708
  A 5.11 3.48 89.0 0 0 28.8605 68.2407
  A 5.11 3.48 89.0 0 0 32.4292 73.2892"
/>
<path stroke="#57adc5" vector-effect="non-scaling-stroke" d="
  M 42.89 67.12
  C 46.41 65.70 43.45 73.34 45.65 72.70
  Q 45.99 72.60 46.03 72.25
  L 46.60 67.55
  Q 46.69 66.80 47.44 66.95
  C 49.67 67.39 48.21 71.08 49.20 72.70
  A 0.76 0.75 -62.4 0 0 50.60 72.26
  L 50.22 66.23
  Q 50.18 65.50 49.44 65.50
  L 41.17 65.50
  Q 40.59 65.50 40.61 66.08
  L 40.79 72.66
  Q 40.79 72.84 40.96 72.90
  Q 41.08 72.94 41.20 72.98
  Q 41.55 73.10 41.60 72.74
  L 42.20 68.02
  Q 42.28 67.37 42.89 67.12"
/>
<path stroke="#8f8d8b" vector-effect="non-scaling-stroke" d="
  M 28.44 29.38
  L 25.81 33.47
  Q 25.43 34.06 26.10 34.26
  Q 29.04 35.16 27.90 38.41
  A 1.34 1.34 0.0 0 0 29.09 40.19
  L 31.86 40.36
  A 1.30 1.29 -65.9 0 1 32.70 42.57
  Q 25.52 49.78 16.74 51.20
  Q 15.43 51.41 14.31 51.58
  Q 6.46 52.76 14.39 52.76
  L 54.09 52.78
  Q 54.70 52.78 54.70 52.16
  L 54.80 30.69
  Q 54.80 30.48 54.60 30.53
  C 54.21 30.61 48.96 42.52 48.30 43.92
  Q 48.03 44.50 47.51 44.12
  L 43.42 41.17
  Q 42.90 40.80 43.27 40.27
  Q 45.49 37.09 46.31 33.34
  Q 46.47 32.65 47.17 32.70
  L 47.89 32.75
  Q 48.41 32.79 48.44 32.26
  C 48.90 24.24 48.69 19.05 39.48 17.26
  C 30.79 15.58 30.00 21.08 26.88 27.18
  Q 26.59 27.74 27.22 27.74
  Q 27.93 27.74 28.43 28.51
  Q 28.72 28.94 28.44 29.38"
/>
<path stroke="#57adc5" vector-effect="non-scaling-stroke" d="
  M 24.9596 71.8098
  A 3.78 1.74 89.4 0 0 26.6599 68.0118
  A 3.78 1.74 89.4 0 0 24.8804 64.2502
  A 3.78 1.74 89.4 0 0 23.1801 68.0482
  A 3.78 1.74 89.4 0 0 24.9596 71.8098"
/>
<path stroke="#57adc5" vector-effect="non-scaling-stroke" d="
  M 34.0491 65.8837
  A 1.35 1.35 0.0 0 0 32.7109 64.5220
  L 32.2909 64.5183
  A 1.35 1.35 0.0 0 0 30.9292 65.8565
  L 30.8909 70.2363
  A 1.35 1.35 0.0 0 0 32.2291 71.5980
  L 32.6491 71.6017
  A 1.35 1.35 0.0 0 0 34.0108 70.2635
  L 34.0491 65.8837"
/>
</g>
<path fill="#0c7ab6" d="
  M 62.99 75.51
  A 4.72 4.72 0.0 0 1 58.27 80.23
  L 5.73 80.23
  A 4.72 4.72 0.0 0 1 1.01 75.51
  L 1.01 5.73
  A 4.72 4.72 0.0 0 1 5.73 1.01
  L 58.27 1.01
  A 4.72 4.72 0.0 0 1 62.99 5.73
  L 62.99 75.51
  Z
  M 56.6196 8.9341
  A 0.27 0.27 0.0 0 0 56.3487 8.6651
  L 7.6090 8.8352
  A 0.27 0.27 0.0 0 0 7.3399 9.1061
  L 7.5004 55.0659
  A 0.27 0.27 0.0 0 0 7.7713 55.3349
  L 56.5110 55.1648
  A 0.27 0.27 0.0 0 0 56.7801 54.8939
  L 56.6196 8.9341
  Z
  M 16.46 65.64
  Q 17.26 64.33 18.92 64.78
  Q 19.41 64.92 19.67 64.48
  Q 19.83 64.20 19.72 63.87
  Q 19.47 63.12 18.68 63.15
  L 15.96 63.25
  Q 15.11 63.28 15.02 64.14
  L 14.66 67.92
  Q 14.58 68.76 15.37 68.45
  L 17.05 67.77
  Q 17.58 67.56 18.05 67.87
  Q 19.79 68.98 18.56 71.13
  A 1.18 1.18 0.0 0 1 16.78 71.45
  L 15.06 70.03
  Q 14.71 69.74 14.38 70.07
  C 12.66 71.81 19.54 75.90 20.60 70.68
  C 21.13 68.09 19.86 65.82 16.89 66.28
  Q 15.99 66.42 16.46 65.64
  Z
  M 24.8800 73.2200
  A 5.11 3.39 90.0 0 0 28.2700 68.1100
  A 5.11 3.39 90.0 0 0 24.8800 63.0000
  A 5.11 3.39 90.0 0 0 21.4900 68.1100
  A 5.11 3.39 90.0 0 0 24.8800 73.2200
  Z
  M 32.4292 73.2892
  A 5.11 3.48 89.0 0 0 35.8195 68.1193
  A 5.11 3.48 89.0 0 0 32.2508 63.0708
  A 5.11 3.48 89.0 0 0 28.8605 68.2407
  A 5.11 3.48 89.0 0 0 32.4292 73.2892
  Z
  M 42.89 67.12
  C 46.41 65.70 43.45 73.34 45.65 72.70
  Q 45.99 72.60 46.03 72.25
  L 46.60 67.55
  Q 46.69 66.80 47.44 66.95
  C 49.67 67.39 48.21 71.08 49.20 72.70
  A 0.76 0.75 -62.4 0 0 50.60 72.26
  L 50.22 66.23
  Q 50.18 65.50 49.44 65.50
  L 41.17 65.50
  Q 40.59 65.50 40.61 66.08
  L 40.79 72.66
  Q 40.79 72.84 40.96 72.90
  Q 41.08 72.94 41.20 72.98
  Q 41.55 73.10 41.60 72.74
  L 42.20 68.02
  Q 42.28 67.37 42.89 67.12
  Z"
/>
<path fill="#ffffff" d="
  M 56.7801 54.8939
  A 0.27 0.27 0.0 0 1 56.5110 55.1648
  L 7.7713 55.3349
  A 0.27 0.27 0.0 0 1 7.5004 55.0659
  L 7.3399 9.1061
  A 0.27 0.27 0.0 0 1 7.6090 8.8352
  L 56.3487 8.6651
  A 0.27 0.27 0.0 0 1 56.6196 8.9341
  L 56.7801 54.8939
  Z
  M 28.44 29.38
  L 25.81 33.47
  Q 25.43 34.06 26.10 34.26
  Q 29.04 35.16 27.90 38.41
  A 1.34 1.34 0.0 0 0 29.09 40.19
  L 31.86 40.36
  A 1.30 1.29 -65.9 0 1 32.70 42.57
  Q 25.52 49.78 16.74 51.20
  Q 15.43 51.41 14.31 51.58
  Q 6.46 52.76 14.39 52.76
  L 54.09 52.78
  Q 54.70 52.78 54.70 52.16
  L 54.80 30.69
  Q 54.80 30.48 54.60 30.53
  C 54.21 30.61 48.96 42.52 48.30 43.92
  Q 48.03 44.50 47.51 44.12
  L 43.42 41.17
  Q 42.90 40.80 43.27 40.27
  Q 45.49 37.09 46.31 33.34
  Q 46.47 32.65 47.17 32.70
  L 47.89 32.75
  Q 48.41 32.79 48.44 32.26
  C 48.90 24.24 48.69 19.05 39.48 17.26
  C 30.79 15.58 30.00 21.08 26.88 27.18
  Q 26.59 27.74 27.22 27.74
  Q 27.93 27.74 28.43 28.51
  Q 28.72 28.94 28.44 29.38
  Z"
/>
<path fill="#1e1a17" d="
  M 28.43 28.51
  Q 27.93 27.74 27.22 27.74
  Q 26.59 27.74 26.88 27.18
  C 30.00 21.08 30.79 15.58 39.48 17.26
  C 48.69 19.05 48.90 24.24 48.44 32.26
  Q 48.41 32.79 47.89 32.75
  L 47.17 32.70
  Q 46.47 32.65 46.31 33.34
  Q 45.49 37.09 43.27 40.27
  Q 42.90 40.80 43.42 41.17
  L 47.51 44.12
  Q 48.03 44.50 48.30 43.92
  C 48.96 42.52 54.21 30.61 54.60 30.53
  Q 54.80 30.48 54.80 30.69
  L 54.70 52.16
  Q 54.70 52.78 54.09 52.78
  L 14.39 52.76
  Q 6.46 52.76 14.31 51.58
  Q 15.43 51.41 16.74 51.20
  Q 25.52 49.78 32.70 42.57
  A 1.30 1.29 -65.9 0 0 31.86 40.36
  L 29.09 40.19
  A 1.34 1.34 0.0 0 1 27.90 38.41
  Q 29.04 35.16 26.10 34.26
  Q 25.43 34.06 25.81 33.47
  L 28.44 29.38
  Q 28.72 28.94 28.43 28.51
  Z"
/>
<path fill="#a2dfd4" d="
  M 16.89 66.28
  C 19.86 65.82 21.13 68.09 20.60 70.68
  C 19.54 75.90 12.66 71.81 14.38 70.07
  Q 14.71 69.74 15.06 70.03
  L 16.78 71.45
  A 1.18 1.18 0.0 0 0 18.56 71.13
  Q 19.79 68.98 18.05 67.87
  Q 17.58 67.56 17.05 67.77
  L 15.37 68.45
  Q 14.58 68.76 14.66 67.92
  L 15.02 64.14
  Q 15.11 63.28 15.96 63.25
  L 18.68 63.15
  Q 19.47 63.12 19.72 63.87
  Q 19.83 64.20 19.67 64.48
  Q 19.41 64.92 18.92 64.78
  Q 17.26 64.33 16.46 65.64
  Q 15.99 66.42 16.89 66.28
  Z"
/>
<path fill="#a2dfd4" d="
  M 24.8800 73.2200
  A 5.11 3.39 90.0 0 1 21.4900 68.1100
  A 5.11 3.39 90.0 0 1 24.8800 63.0000
  A 5.11 3.39 90.0 0 1 28.2700 68.1100
  A 5.11 3.39 90.0 0 1 24.8800 73.2200
  Z
  M 24.9596 71.8098
  A 3.78 1.74 89.4 0 0 26.6599 68.0118
  A 3.78 1.74 89.4 0 0 24.8804 64.2502
  A 3.78 1.74 89.4 0 0 23.1801 68.0482
  A 3.78 1.74 89.4 0 0 24.9596 71.8098
  Z"
/>
<path fill="#a2dfd4" d="
  M 32.4292 73.2892
  A 5.11 3.48 89.0 0 1 28.8605 68.2407
  A 5.11 3.48 89.0 0 1 32.2508 63.0708
  A 5.11 3.48 89.0 0 1 35.8195 68.1193
  A 5.11 3.48 89.0 0 1 32.4292 73.2892
  Z
  M 34.0491 65.8837
  A 1.35 1.35 0.0 0 0 32.7109 64.5220
  L 32.2909 64.5183
  A 1.35 1.35 0.0 0 0 30.9292 65.8565
  L 30.8909 70.2363
  A 1.35 1.35 0.0 0 0 32.2291 71.5980
  L 32.6491 71.6017
  A 1.35 1.35 0.0 0 0 34.0108 70.2635
  L 34.0491 65.8837
  Z"
/>
<ellipse fill="#0c7ab6" cx="0.00" cy="0.00" transform="translate(24.92,68.03) rotate(89.4)" rx="3.78" ry="1.74"/>
<rect fill="#0c7ab6" x="-1.56" y="-3.54" transform="translate(32.47,68.06) rotate(0.5)" width="3.12" height="7.08" rx="1.35"/>
<path fill="#a2dfd4" d="
  M 42.20 68.02
  L 41.60 72.74
  Q 41.55 73.10 41.20 72.98
  Q 41.08 72.94 40.96 72.90
  Q 40.79 72.84 40.79 72.66
  L 40.61 66.08
  Q 40.59 65.50 41.17 65.50
  L 49.44 65.50
  Q 50.18 65.50 50.22 66.23
  L 50.60 72.26
  A 0.76 0.75 -62.4 0 1 49.20 72.70
  C 48.21 71.08 49.67 67.39 47.44 66.95
  Q 46.69 66.80 46.60 67.55
  L 46.03 72.25
  Q 45.99 72.60 45.65 72.70
  C 43.45 73.34 46.41 65.70 42.89 67.12
  Q 42.28 67.37 42.20 68.02
  Z"
/>
</svg>
