<?xml version="1.0" encoding="UTF-8" standalone="no"?>
<!DOCTYPE svg PUBLIC "-//W3C//DTD SVG 1.1//EN" "http://www.w3.org/Graphics/SVG/1.1/DTD/svg11.dtd">
<svg xmlns="http://www.w3.org/2000/svg" version="1.1" viewBox="0 0 63 81">
<g stroke-width="2.00" fill="none" stroke-linecap="butt">
<path stroke="#3c98c7" vector-effect="non-scaling-stroke" d="
  M 7.04 12.75
  Q 5.90 26.51 7.05 40.26"
/>
<path stroke="#84bddc" vector-effect="non-scaling-stroke" d="
  M 7.05 40.26
  Q 7.62 47.30 7.11 54.16
  A 0.41 0.40 -88.0 0 0 7.51 54.60
  L 55.87 54.53
  Q 56.26 54.53 56.26 54.13
  L 56.26 8.76
  Q 56.26 8.01 55.51 8.01
  L 7.58 7.99
  Q 7.07 7.99 7.07 8.49
  L 7.04 12.75"
/>
<path stroke="#b8daea" vector-effect="non-scaling-stroke" d="
  M 7.05 40.26
  Q 8.07 26.48 7.04 12.75"
/>
<path stroke="#8f8d8c" vector-effect="non-scaling-stroke" d="
  M 34.59 14.22
  A 3.28 3.28 0.0 0 0 31.31 10.94
  A 3.28 3.28 0.0 0 0 28.03 14.22
  A 3.28 3.28 0.0 0 0 31.31 17.50
  A 3.28 3.28 0.0 0 0 34.59 14.22"
/>
<path stroke="#8f8d8c" vector-effect="non-scaling-stroke" d="
  M 31.50 26.51
  C 31.23 32.87 26.14 36.96 24.33 43.56
  Q 23.63 46.15 22.94 48.76
  Q 22.78 49.38 22.14 49.43
  L 20.21 49.58
  Q 19.49 49.63 19.39 50.34
  L 19.19 51.65
  Q 19.06 52.50 19.92 52.50
  L 25.69 52.50
  Q 26.12 52.50 26.25 52.09
  C 28.26 46.08 29.62 40.84 34.21 35.58
  Q 34.66 35.06 34.75 35.75
  Q 35.71 43.04 40.08 49.01
  Q 40.58 49.69 39.82 50.07
  L 38.47 50.73
  Q 37.99 50.96 37.68 51.40
  Q 37.26 52.00 37.68 52.56
  Q 38.00 52.97 38.53 52.99
  C 42.15 53.11 45.48 51.76 43.34 47.35
  C 39.89 40.22 40.44 33.57 38.45 26.25
  Q 38.20 25.34 39.04 25.78
  C 41.10 26.85 40.48 30.29 41.00 32.38
  Q 41.21 33.21 41.95 32.77
  L 42.89 32.21
  Q 43.45 31.88 43.49 31.23
  Q 43.63 28.61 44.29 26.08
  Q 44.43 25.55 44.07 25.13
  C 40.40 20.84 36.95 16.62 31.07 18.31
  Q 30.62 18.44 30.40 18.87
  Q 27.84 23.95 22.65 27.89
  Q 21.13 29.04 22.57 30.63
  Q 22.92 31.02 23.40 30.82
  Q 27.53 29.07 31.01 26.26
  A 0.30 0.30 0.0 0 1 31.50 26.51"
/>
</g>
<path fill="#087bb9" d="
  M 62.8202 74.7156
  A 5.20 5.20 0.0 0 1 57.6293 79.9247
  L 5.7894 80.0152
  A 5.20 5.20 0.0 0 1 0.5803 74.8243
  L 0.4598 5.7444
  A 5.20 5.20 0.0 0 1 5.6507 0.5353
  L 57.4906 0.4448
  A 5.20 5.20 0.0 0 1 62.6997 5.6357
  L 62.8202 74.7156
  Z
  M 7.04 12.75
  Q 5.90 26.51 7.05 40.26
  Q 7.62 47.30 7.11 54.16
  A 0.41 0.40 -88.0 0 0 7.51 54.60
  L 55.87 54.53
  Q 56.26 54.53 56.26 54.13
  L 56.26 8.76
  Q 56.26 8.01 55.51 8.01
  L 7.58 7.99
  Q 7.07 7.99 7.07 8.49
  L 7.04 12.75
  Z"
/>
<path fill="#ffffff" d="
  M 7.05 40.26
  Q 8.07 26.48 7.04 12.75
  L 7.07 8.49
  Q 7.07 7.99 7.58 7.99
  L 55.51 8.01
  Q 56.26 8.01 56.26 8.76
  L 56.26 54.13
  Q 56.26 54.53 55.87 54.53
  L 7.51 54.60
  A 0.41 0.40 -88.0 0 1 7.11 54.16
  Q 7.62 47.30 7.05 40.26
  Z
  M 34.59 14.22
  A 3.28 3.28 0.0 0 0 31.31 10.94
  A 3.28 3.28 0.0 0 0 28.03 14.22
  A 3.28 3.28 0.0 0 0 31.31 17.50
  A 3.28 3.28 0.0 0 0 34.59 14.22
  Z
  M 31.50 26.51
  C 31.23 32.87 26.14 36.96 24.33 43.56
  Q 23.63 46.15 22.94 48.76
  Q 22.78 49.38 22.14 49.43
  L 20.21 49.58
  Q 19.49 49.63 19.39 50.34
  L 19.19 51.65
  Q 19.06 52.50 19.92 52.50
  L 25.69 52.50
  Q 26.12 52.50 26.25 52.09
  C 28.26 46.08 29.62 40.84 34.21 35.58
  Q 34.66 35.06 34.75 35.75
  Q 35.71 43.04 40.08 49.01
  Q 40.58 49.69 39.82 50.07
  L 38.47 50.73
  Q 37.99 50.96 37.68 51.40
  Q 37.26 52.00 37.68 52.56
  Q 38.00 52.97 38.53 52.99
  C 42.15 53.11 45.48 51.76 43.34 47.35
  C 39.89 40.22 40.44 33.57 38.45 26.25
  Q 38.20 25.34 39.04 25.78
  C 41.10 26.85 40.48 30.29 41.00 32.38
  Q 41.21 33.21 41.95 32.77
  L 42.89 32.21
  Q 43.45 31.88 43.49 31.23
  Q 43.63 28.61 44.29 26.08
  Q 44.43 25.55 44.07 25.13
  C 40.40 20.84 36.95 16.62 31.07 18.31
  Q 30.62 18.44 30.40 18.87
  Q 27.84 23.95 22.65 27.89
  Q 21.13 29.04 22.57 30.63
  Q 22.92 31.02 23.40 30.82
  Q 27.53 29.07 31.01 26.26
  A 0.30 0.30 0.0 0 1 31.50 26.51
  Z"
/>
<circle fill="#1e1a19" cx="31.31" cy="14.22" r="3.28"/>
<path fill="#70b4d5" d="
  M 7.04 12.75
  Q 8.07 26.48 7.05 40.26
  Q 5.90 26.51 7.04 12.75
  Z"
/>
<path fill="#1e1a19" d="
  M 31.50 26.51
  A 0.30 0.30 0.0 0 0 31.01 26.26
  Q 27.53 29.07 23.40 30.82
  Q 22.92 31.02 22.57 30.63
  Q 21.13 29.04 22.65 27.89
  Q 27.84 23.95 30.40 18.87
  Q 30.62 18.44 31.07 18.31
  C 36.95 16.62 40.40 20.84 44.07 25.13
  Q 44.43 25.55 44.29 26.08
  Q 43.63 28.61 43.49 31.23
  Q 43.45 31.88 42.89 32.21
  L 41.95 32.77
  Q 41.21 33.21 41.00 32.38
  C 40.48 30.29 41.10 26.85 39.04 25.78
  Q 38.20 25.34 38.45 26.25
  C 40.44 33.57 39.89 40.22 43.34 47.35
  C 45.48 51.76 42.15 53.11 38.53 52.99
  Q 38.00 52.97 37.68 52.56
  Q 37.26 52.00 37.68 51.40
  Q 37.99 50.96 38.47 50.73
  L 39.82 50.07
  Q 40.58 49.69 40.08 49.01
  Q 35.71 43.04 34.75 35.75
  Q 34.66 35.06 34.21 35.58
  C 29.62 40.84 28.26 46.08 26.25 52.09
  Q 26.12 52.50 25.69 52.50
  L 19.92 52.50
  Q 19.06 52.50 19.19 51.65
  L 19.39 50.34
  Q 19.49 49.63 20.21 49.58
  L 22.14 49.43
  Q 22.78 49.38 22.94 48.76
  Q 23.63 46.15 24.33 43.56
  C 26.14 36.96 31.23 32.87 31.50 26.51
  Z"
/>
</svg>
