<?xml version="1.0" encoding="UTF-8" standalone="no"?>
<!DOCTYPE svg PUBLIC "-//W3C//DTD SVG 1.1//EN" "http://www.w3.org/Graphics/SVG/1.1/DTD/svg11.dtd">
<svg xmlns="http://www.w3.org/2000/svg" version="1.1" viewBox="0 0 63 81">
<g stroke-width="2.00" fill="none" stroke-linecap="butt">
<path stroke="#84bddb" vector-effect="non-scaling-stroke" d="
  M 56.25 8.46
  A 0.48 0.48 0.0 0 0 55.77 7.98
  L 7.47 7.98
  A 0.48 0.48 0.0 0 0 6.99 8.46
  L 6.99 54.22
  A 0.48 0.48 0.0 0 0 7.47 54.70
  L 55.77 54.70
  A 0.48 0.48 0.0 0 0 56.25 54.22
  L 56.25 8.46"
/>
<path stroke="#5fb6d0" vector-effect="non-scaling-stroke" d="
  M 20.41 73.70
  C 21.69 72.42 21.29 64.57 21.15 62.73
  A 0.56 0.55 -4.1 0 0 20.55 62.22
  L 18.25 62.39
  Q 17.58 62.45 18.06 62.93
  L 19.04 63.92
  A 1.34 1.30 22.1 0 1 19.43 64.80
  L 19.77 73.45
  Q 19.80 74.30 20.41 73.70"
/>
<path stroke="#5fb6d0" vector-effect="non-scaling-stroke" d="
  M 31.36 69.04
  C 32.16 69.20 33.58 74.61 35.36 73.70
  A 0.47 0.46 61.6 0 0 35.55 73.05
  L 32.58 68.03
  A 0.74 0.72 47.8 0 1 32.61 67.24
  L 35.57 62.88
  A 0.38 0.38 0.0 0 0 35.30 62.29
  L 34.80 62.23
  A 0.96 0.95 -70.7 0 0 33.88 62.68
  L 31.52 66.52
  A 0.38 0.38 0.0 0 1 30.93 66.59
  C 30.29 65.95 31.73 61.63 29.74 62.27
  A 0.96 0.95 -9.6 0 0 29.08 63.19
  L 29.12 73.05
  A 0.67 0.67 0.0 0 0 29.89 73.70
  C 31.15 73.51 30.75 70.42 30.79 69.48
  A 0.48 0.48 0.0 0 1 31.36 69.04"
/>
<path stroke="#5fb6d0" vector-effect="non-scaling-stroke" d="
  M 37.27 73.54
  C 39.50 73.76 36.41 64.16 40.67 66.51
  A 1.01 1.00 14.7 0 1 41.19 67.39
  L 41.28 73.20
  A 0.55 0.53 2.5 0 0 41.77 73.72
  L 42.05 73.74
  A 0.58 0.57 3.9 0 0 42.68 73.20
  L 42.97 67.05
  A 0.69 0.69 0.0 0 1 43.70 66.39
  L 44.62 66.45
  A 0.75 0.75 0.0 0 1 45.32 67.15
  C 45.39 68.23 45.30 73.92 46.51 73.97
  A 0.56 0.54 -82.9 0 0 47.08 73.51
  Q 47.74 69.82 46.98 66.23
  A 1.21 1.19 -85.0 0 0 46.26 65.36
  Q 44.45 64.61 42.53 65.20
  A 1.50 1.47 45.6 0 1 41.61 65.18
  Q 39.47 64.44 37.28 65.04
  A 0.73 0.73 0.0 0 0 36.75 65.74
  L 36.75 72.97
  A 0.58 0.57 2.8 0 0 37.27 73.54"
/>
<path stroke="#8a8a89" vector-effect="non-scaling-stroke" d="
  M 39.55 12.27
  A 0.27 0.27 0.0 0 0 39.28 12.00
  L 14.98 12.00
  A 0.27 0.27 0.0 0 0 14.71 12.27
  L 14.71 28.47
  A 0.27 0.27 0.0 0 0 14.98 28.74
  L 39.28 28.74
  A 0.27 0.27 0.0 0 0 39.55 28.47
  L 39.55 12.27"
/>
<path stroke="#8f8c8c" vector-effect="non-scaling-stroke" d="
  M 38.86 32.84
  C 39.65 36.08 36.67 48.68 42.94 48.87
  C 48.34 49.04 47.73 44.66 47.11 40.94
  Q 45.27 29.70 43.45 18.46
  C 43.26 17.28 42.72 16.51 41.51 16.49
  A 0.86 0.85 -11.7 0 0 40.71 17.70
  Q 41.67 19.78 41.92 22.01
  Q 43.13 32.97 45.19 44.52
  A 1.44 1.44 0.0 0 1 43.82 46.21
  L 42.71 46.26
  A 0.81 0.81 0.0 0 1 41.91 45.70
  C 40.78 42.30 42.70 32.65 40.39 30.63
  C 38.52 29.00 20.77 29.73 17.34 29.81
  A 0.66 0.65 89.6 0 0 16.70 30.47
  L 16.73 48.24
  A 0.51 0.51 0.0 0 0 17.24 48.75
  L 36.25 48.75
  A 0.50 0.50 0.0 0 0 36.75 48.25
  L 36.75 32.56
  A 0.54 0.54 0.0 0 1 37.44 32.04
  L 38.31 32.28
  A 0.78 0.77 0.7 0 1 38.86 32.84"
/>
<path stroke="#8a8a89" vector-effect="non-scaling-stroke" d="
  M 36.5137 15.8803
  A 1.00 1.00 0.0 0 0 35.5190 14.8751
  L 18.3392 14.7851
  A 1.00 1.00 0.0 0 0 17.3340 15.7798
  L 17.2863 24.8997
  A 1.00 1.00 0.0 0 0 18.2810 25.9049
  L 35.4608 25.9949
  A 1.00 1.00 0.0 0 0 36.4660 25.0002
  L 36.5137 15.8803"
/>
</g>
<path fill="#0a7bb6" d="
  M 62.75 74.81
  A 5.15 5.15 0.0 0 1 57.60 79.96
  L 5.66 79.96
  A 5.15 5.15 0.0 0 1 0.51 74.81
  L 0.51 5.65
  A 5.15 5.15 0.0 0 1 5.66 0.50
  L 57.60 0.50
  A 5.15 5.15 0.0 0 1 62.75 5.65
  L 62.75 74.81
  Z
  M 56.25 8.46
  A 0.48 0.48 0.0 0 0 55.77 7.98
  L 7.47 7.98
  A 0.48 0.48 0.0 0 0 6.99 8.46
  L 6.99 54.22
  A 0.48 0.48 0.0 0 0 7.47 54.70
  L 55.77 54.70
  A 0.48 0.48 0.0 0 0 56.25 54.22
  L 56.25 8.46
  Z
  M 20.41 73.70
  C 21.69 72.42 21.29 64.57 21.15 62.73
  A 0.56 0.55 -4.1 0 0 20.55 62.22
  L 18.25 62.39
  Q 17.58 62.45 18.06 62.93
  L 19.04 63.92
  A 1.34 1.30 22.1 0 1 19.43 64.80
  L 19.77 73.45
  Q 19.80 74.30 20.41 73.70
  Z
  M 31.36 69.04
  C 32.16 69.20 33.58 74.61 35.36 73.70
  A 0.47 0.46 61.6 0 0 35.55 73.05
  L 32.58 68.03
  A 0.74 0.72 47.8 0 1 32.61 67.24
  L 35.57 62.88
  A 0.38 0.38 0.0 0 0 35.30 62.29
  L 34.80 62.23
  A 0.96 0.95 -70.7 0 0 33.88 62.68
  L 31.52 66.52
  A 0.38 0.38 0.0 0 1 30.93 66.59
  C 30.29 65.95 31.73 61.63 29.74 62.27
  A 0.96 0.95 -9.6 0 0 29.08 63.19
  L 29.12 73.05
  A 0.67 0.67 0.0 0 0 29.89 73.70
  C 31.15 73.51 30.75 70.42 30.79 69.48
  A 0.48 0.48 0.0 0 1 31.36 69.04
  Z
  M 37.27 73.54
  C 39.50 73.76 36.41 64.16 40.67 66.51
  A 1.01 1.00 14.7 0 1 41.19 67.39
  L 41.28 73.20
  A 0.55 0.53 2.5 0 0 41.77 73.72
  L 42.05 73.74
  A 0.58 0.57 3.9 0 0 42.68 73.20
  L 42.97 67.05
  A 0.69 0.69 0.0 0 1 43.70 66.39
  L 44.62 66.45
  A 0.75 0.75 0.0 0 1 45.32 67.15
  C 45.39 68.23 45.30 73.92 46.51 73.97
  A 0.56 0.54 -82.9 0 0 47.08 73.51
  Q 47.74 69.82 46.98 66.23
  A 1.21 1.19 -85.0 0 0 46.26 65.36
  Q 44.45 64.61 42.53 65.20
  A 1.50 1.47 45.6 0 1 41.61 65.18
  Q 39.47 64.44 37.28 65.04
  A 0.73 0.73 0.0 0 0 36.75 65.74
  L 36.75 72.97
  A 0.58 0.57 2.8 0 0 37.27 73.54
  Z"
/>
<path fill="#feffff" d="
  M 56.25 54.22
  A 0.48 0.48 0.0 0 1 55.77 54.70
  L 7.47 54.70
  A 0.48 0.48 0.0 0 1 6.99 54.22
  L 6.99 8.46
  A 0.48 0.48 0.0 0 1 7.47 7.98
  L 55.77 7.98
  A 0.48 0.48 0.0 0 1 56.25 8.46
  L 56.25 54.22
  Z
  M 39.55 12.27
  A 0.27 0.27 0.0 0 0 39.28 12.00
  L 14.98 12.00
  A 0.27 0.27 0.0 0 0 14.71 12.27
  L 14.71 28.47
  A 0.27 0.27 0.0 0 0 14.98 28.74
  L 39.28 28.74
  A 0.27 0.27 0.0 0 0 39.55 28.47
  L 39.55 12.27
  Z
  M 38.86 32.84
  C 39.65 36.08 36.67 48.68 42.94 48.87
  C 48.34 49.04 47.73 44.66 47.11 40.94
  Q 45.27 29.70 43.45 18.46
  C 43.26 17.28 42.72 16.51 41.51 16.49
  A 0.86 0.85 -11.7 0 0 40.71 17.70
  Q 41.67 19.78 41.92 22.01
  Q 43.13 32.97 45.19 44.52
  A 1.44 1.44 0.0 0 1 43.82 46.21
  L 42.71 46.26
  A 0.81 0.81 0.0 0 1 41.91 45.70
  C 40.78 42.30 42.70 32.65 40.39 30.63
  C 38.52 29.00 20.77 29.73 17.34 29.81
  A 0.66 0.65 89.6 0 0 16.70 30.47
  L 16.73 48.24
  A 0.51 0.51 0.0 0 0 17.24 48.75
  L 36.25 48.75
  A 0.50 0.50 0.0 0 0 36.75 48.25
  L 36.75 32.56
  A 0.54 0.54 0.0 0 1 37.44 32.04
  L 38.31 32.28
  A 0.78 0.77 0.7 0 1 38.86 32.84
  Z"
/>
<path fill="#161513" d="
  M 39.55 28.47
  A 0.27 0.27 0.0 0 1 39.28 28.74
  L 14.98 28.74
  A 0.27 0.27 0.0 0 1 14.71 28.47
  L 14.71 12.27
  A 0.27 0.27 0.0 0 1 14.98 12.00
  L 39.28 12.00
  A 0.27 0.27 0.0 0 1 39.55 12.27
  L 39.55 28.47
  Z
  M 36.5137 15.8803
  A 1.00 1.00 0.0 0 0 35.5190 14.8751
  L 18.3392 14.7851
  A 1.00 1.00 0.0 0 0 17.3340 15.7798
  L 17.2863 24.8997
  A 1.00 1.00 0.0 0 0 18.2810 25.9049
  L 35.4608 25.9949
  A 1.00 1.00 0.0 0 0 36.4660 25.0002
  L 36.5137 15.8803
  Z"
/>
<rect fill="#feffff" x="-9.59" y="-5.56" transform="translate(26.90,20.39) rotate(0.3)" width="19.18" height="11.12" rx="1.00"/>
<path fill="#1f1918" d="
  M 38.31 32.28
  L 37.44 32.04
  A 0.54 0.54 0.0 0 0 36.75 32.56
  L 36.75 48.25
  A 0.50 0.50 0.0 0 1 36.25 48.75
  L 17.24 48.75
  A 0.51 0.51 0.0 0 1 16.73 48.24
  L 16.70 30.47
  A 0.66 0.65 89.6 0 1 17.34 29.81
  C 20.77 29.73 38.52 29.00 40.39 30.63
  C 42.70 32.65 40.78 42.30 41.91 45.70
  A 0.81 0.81 0.0 0 0 42.71 46.26
  L 43.82 46.21
  A 1.44 1.44 0.0 0 0 45.19 44.52
  Q 43.13 32.97 41.92 22.01
  Q 41.67 19.78 40.71 17.70
  A 0.86 0.85 -11.7 0 1 41.51 16.49
  C 42.72 16.51 43.26 17.28 43.45 18.46
  Q 45.27 29.70 47.11 40.94
  C 47.73 44.66 48.34 49.04 42.94 48.87
  C 36.67 48.68 39.65 36.08 38.86 32.84
  A 0.78 0.77 0.7 0 0 38.31 32.28
  Z"
/>
<path fill="#b4f0ea" d="
  M 21.15 62.73
  C 21.29 64.57 21.69 72.42 20.41 73.70
  Q 19.80 74.30 19.77 73.45
  L 19.43 64.80
  A 1.34 1.30 22.1 0 0 19.04 63.92
  L 18.06 62.93
  Q 17.58 62.45 18.25 62.39
  L 20.55 62.22
  A 0.56 0.55 -4.1 0 1 21.15 62.73
  Z"
/>
<path fill="#b4f0ea" d="
  M 30.79 69.48
  C 30.75 70.42 31.15 73.51 29.89 73.70
  A 0.67 0.67 0.0 0 1 29.12 73.05
  L 29.08 63.19
  A 0.96 0.95 -9.6 0 1 29.74 62.27
  C 31.73 61.63 30.29 65.95 30.93 66.59
  A 0.38 0.38 0.0 0 0 31.52 66.52
  L 33.88 62.68
  A 0.96 0.95 -70.7 0 1 34.80 62.23
  L 35.30 62.29
  A 0.38 0.38 0.0 0 1 35.57 62.88
  L 32.61 67.24
  A 0.74 0.72 47.8 0 0 32.58 68.03
  L 35.55 73.05
  A 0.47 0.46 61.6 0 1 35.36 73.70
  C 33.58 74.61 32.16 69.20 31.36 69.04
  A 0.48 0.48 0.0 0 0 30.79 69.48
  Z"
/>
<path fill="#b4f0ea" d="
  M 40.67 66.51
  C 36.41 64.16 39.50 73.76 37.27 73.54
  A 0.58 0.57 2.8 0 1 36.75 72.97
  L 36.75 65.74
  A 0.73 0.73 0.0 0 1 37.28 65.04
  Q 39.47 64.44 41.61 65.18
  A 1.50 1.47 45.6 0 0 42.53 65.20
  Q 44.45 64.61 46.26 65.36
  A 1.21 1.19 -85.0 0 1 46.98 66.23
  Q 47.74 69.82 47.08 73.51
  A 0.56 0.54 -82.9 0 1 46.51 73.97
  C 45.30 73.92 45.39 68.23 45.32 67.15
  A 0.75 0.75 0.0 0 0 44.62 66.45
  L 43.70 66.39
  A 0.69 0.69 0.0 0 0 42.97 67.05
  L 42.68 73.20
  A 0.58 0.57 3.9 0 1 42.05 73.74
  L 41.77 73.72
  A 0.55 0.53 2.5 0 1 41.28 73.20
  L 41.19 67.39
  A 1.01 1.00 14.7 0 0 40.67 66.51
  Z"
/>
</svg>
