<?xml version="1.0" encoding="UTF-8" standalone="no"?>
<svg
   version="1.1"
   viewBox="0 0 63 80"
   id="svg220"
   sodipodi:docname="hospedaje.svg"
   inkscape:version="1.2.1 (9c6d41e410, 2022-07-14)"
   xmlns:inkscape="http://www.inkscape.org/namespaces/inkscape"
   xmlns:sodipodi="http://sodipodi.sourceforge.net/DTD/sodipodi-0.dtd"
   xmlns="http://www.w3.org/2000/svg"
   xmlns:svg="http://www.w3.org/2000/svg">
  <defs
     id="defs224" />
  <sodipodi:namedview
     id="namedview222"
     pagecolor="#ffffff"
     bordercolor="#666666"
     borderopacity="1.0"
     inkscape:showpageshadow="2"
     inkscape:pageopacity="0.0"
     inkscape:pagecheckerboard="0"
     inkscape:deskcolor="#d1d1d1"
     showgrid="false"
     inkscape:zoom="6.6415072"
     inkscape:cx="31.46876"
     inkscape:cy="39.750013"
     inkscape:window-width="1366"
     inkscape:window-height="705"
     inkscape:window-x="-8"
     inkscape:window-y="-8"
     inkscape:window-maximized="1"
     inkscape:current-layer="svg220" />
  <rect
     style="fill:#ffffff;fill-rule:evenodd;stroke:#ffffff;stroke-width:2.422;stroke-linecap:square"
     id="rect720"
     width="54.806835"
     height="50.440357"
     x="3.4630694"
     y="6.3238659" />
  <path
     fill="#0c7ab2"
     d="   M 30.81 0.00   L 58.06 0.00   Q 62.42 0.78 62.44 5.19   Q 62.58 39.46 62.53 73.75   C 62.52 78.11 60.02 79.50 55.88 79.50   Q 30.30 79.50 4.75 79.50   C 1.71 79.51 0.45 76.68 0.45 73.84   Q 0.46 38.92 0.50 4.00   C 0.50 1.55 3.00 0.16 5.41 0.21   Q 18.12 0.46 30.81 0.00   Z   M 55.9603 8.3169   A 0.63 0.63 0.0 0 0 55.3292 7.6880   L 7.1292 7.7721   A 0.63 0.63 0.0 0 0 6.5003 8.4032   L 6.5797 53.9031   A 0.63 0.63 0.0 0 0 7.2108 54.5320   L 55.4108 54.4479   A 0.63 0.63 0.0 0 0 56.0397 53.8168   L 55.9603 8.3169   Z   M 43.16 71.50   A 0.56 0.56 0.0 0 1 43.71 72.14   L 43.27 74.99   A 0.56 0.56 0.0 0 0 44.14 75.54   L 55.46 67.95   A 0.56 0.56 0.0 0 0 55.46 67.02   L 44.20 59.44   A 0.56 0.56 0.0 0 0 43.33 59.93   L 43.51 62.91   A 0.56 0.56 0.0 0 1 42.95 63.50   L 7.25 63.50   A 0.56 0.56 0.0 0 0 6.69 64.05   L 6.55 70.88   A 0.56 0.56 0.0 0 0 7.11 71.45   L 43.16 71.50   Z"
     id="path212" />
  <path
     fill="#ffffff"
     d="   M 43.16 71.50   L 7.11 71.45   A 0.56 0.56 0.0 0 1 6.55 70.88   L 6.69 64.05   A 0.56 0.56 0.0 0 1 7.25 63.50   L 42.95 63.50   A 0.56 0.56 0.0 0 0 43.51 62.91   L 43.33 59.93   A 0.56 0.56 0.0 0 1 44.20 59.44   L 55.46 67.02   A 0.56 0.56 0.0 0 1 55.46 67.95   L 44.14 75.54   A 0.56 0.56 0.0 0 1 43.27 74.99   L 43.71 72.14   A 0.56 0.56 0.0 0 0 43.16 71.50   Z"
     id="path218" />
  <path
     stroke="#80bedf"
     vector-effect="non-scaling-stroke"
     d="m 31.215587,10.506248 c -0.496976,0.342511 -0.651442,0.67159 -1.215577,0.93351 q -9.093326,4.150425 -19.100014,8.018782 a 0.96708931,0.97380521 80 0 0 -0.624578,0.886499 l -0.08059,4.049686 a 0.24848822,0.25520412 80.9 0 0 0.342511,0.241772 c 2.907983,-1.114839 19.905921,-8.576201 21.511021,-7.904611 q 9.858938,4.089981 19.825331,7.931475 a 0.26192002,0.26192002 0 0 0 0.355942,-0.241772 v -4.244448 a 0.48354465,0.48354465 0 0 0 -0.288783,-0.443249 l -5.950286,-2.511746"
     id="path376"
     style="fill:#000000;stroke-width:1.34318;stroke-linecap:butt" />
  <path
     stroke="#62abcc"
     vector-effect="non-scaling-stroke"
     d="M 27.884502,31.856087 H 27.045015"
     id="path382"
     style="fill:#000000;stroke-width:1.34318;stroke-linecap:butt" />
  <path
     stroke="#80bedf"
     vector-effect="non-scaling-stroke"
     d="m 27.045015,31.856087 q -1.087976,-0.315647 -2.149088,0.100739 a 0.58428312,0.59099902 79.1 0 0 -0.369374,0.543987 v 3.680313 a 0.68502159,0.68502159 0 0 1 -0.691737,0.691737 c -1.000669,-0.01343 -5.345855,-0.329079 -5.883127,0.496977"
     id="path384"
     style="fill:#000000;stroke-width:1.34318;stroke-linecap:butt" />
  <path
     stroke="#62abcc"
     vector-effect="non-scaling-stroke"
     d="M 17.951689,37.36984 H 17.501724"
     id="path386"
     style="fill:#000000;stroke-width:1.34318;stroke-linecap:butt" />
  <path
     stroke="#80bedf"
     vector-effect="non-scaling-stroke"
     d="m 17.501724,37.36984 -0.248488,-9.49628 a 0.44996516,0.44996516 0 0 0 -0.349227,-0.429818 q -1.793145,-0.409669 -3.532562,0.06044 a 0.51712414,0.51712414 0 0 0 -0.389523,0.503693 l -0.0067,21.222237 a 0.38280618,0.38280618 0 0 0 0.402954,0.382806 l 3.619873,-0.201476 a 0.36937439,0.36265849 89.5 0 0 0.349227,-0.362659 l 0.100739,-3.875073 a 0.45668106,0.45668106 0 0 1 0.456681,-0.443249 l 25.970377,0.107454 a 0.47011286,0.46339696 0.4 0 1 0.463397,0.463397 v 3.915369 a 0.42310157,0.42310157 0 0 0 0.429818,0.423101 l 3.324369,-0.05373 A 0.47682876,0.48354465 89.2 0 0 48.569468,49.10251 L 48.462013,32.42022 a 0.51712414,0.51712414 0 0 0 -0.510408,-0.510409 l -2.99529,-0.0403 a 0.49026055,0.49026055 0 0 0 -0.503693,0.510408 l 0.214909,6.648739 a 0.86635084,0.84620314 66.9 0 1 -0.248488,0.638011 l -0.174613,0.181329 a 0.3425108,0.3357949 67.5 0 1 -0.577568,-0.241772 l -0.0067,-6.279365 a 1.4036227,1.4036227 0 0 0 -1.302884,-1.396907 q -7.159147,-0.503692 -14.47276,-0.07388"
     id="path388"
     style="fill:#000000;stroke-width:1.34318;stroke-linecap:butt" />
  <path
     stroke="#deedec"
     vector-effect="non-scaling-stroke"
     d="m 17.501724,37.36984 -0.100739,2.269973 a 0.30221541,0.29549951 1.9 0 0 0.2955,0.308931 c 2.411007,0.02686 25.486833,0.349227 25.580855,-0.161181 a 0.23505643,0.23505643 0 0 0 -0.235056,-0.275352 l -14.88243,0.154466 a 0.41638567,0.41638567 0 0 1 -0.423102,-0.423102 l 0.14775,-7.387488"
     id="path390"
     style="fill:#000000;stroke-width:1.34318;stroke-linecap:butt" />
  <path
     stroke="#deedec"
     vector-effect="non-scaling-stroke"
     d="m 27.045015,31.856087 q 0.839487,3.740755 0.214909,7.454647 a 0.48354465,0.47682876 8 0 1 -0.530556,0.396238 q -4.11013,-0.463397 -8.193396,0 A 0.59099902,0.58428312 87.8 0 1 17.88453,39.095825 l 0.06716,-1.725985"
     id="path392"
     style="fill:#000000;stroke-width:1.34318;stroke-linecap:butt" />
  <path
     stroke="#80bedf"
     vector-effect="non-scaling-stroke"
     d="M 23.774372,32.984358 A 2.8609725,2.8609725 0 0 0 20.9134,30.123386 2.8609725,2.8609725 0 0 0 18.052427,32.984358 2.8609725,2.8609725 0 0 0 20.9134,35.845331 2.8609725,2.8609725 0 0 0 23.774372,32.984358"
     id="path394"
     style="fill:#000000;stroke-width:1.34318;stroke-linecap:butt" />
  <path
     fill="#fbffff"
     d="m 17.501724,37.36984 -0.100739,2.269973 a 0.30221541,0.29549951 1.9 0 0 0.2955,0.308931 c 2.411007,0.02686 25.486833,0.349227 25.580855,-0.161181 a 0.23505643,0.23505643 0 0 0 -0.235056,-0.275352 l -14.88243,0.154466 a 0.41638567,0.41638567 0 0 1 -0.423102,-0.423102 l 0.14775,-7.387488 q 7.313613,-0.429817 14.47276,0.07388 a 1.4036227,1.4036227 0 0 1 1.302884,1.396907 l 0.0067,6.279365 a 0.3425108,0.3357949 67.5 0 0 0.577568,0.241772 l 0.174613,-0.181329 a 0.86635084,0.84620314 66.9 0 0 0.248488,-0.638011 l -0.214909,-6.648739 a 0.49026055,0.49026055 0 0 1 0.503693,-0.510408 l 2.99529,0.0403 a 0.51712414,0.51712414 0 0 1 0.510408,0.510409 l 0.107455,16.68229 a 0.47682876,0.48354465 89.2 0 1 -0.476829,0.483545 l -3.324369,0.05373 A 0.42310157,0.42310157 0 0 1 44.338452,49.216684 V 45.301315 A 0.47011286,0.46339696 0.4 0 0 43.875055,44.837918 L 17.904678,44.730464 a 0.45668106,0.45668106 0 0 0 -0.456681,0.443249 l -0.100739,3.875073 a 0.36937439,0.36265849 89.5 0 1 -0.349227,0.362659 l -3.619869,0.201476 a 0.38280618,0.38280618 0 0 1 -0.402953,-0.382806 l 0.0067,-21.222237 a 0.51712414,0.51712414 0 0 1 0.389522,-0.503693 q 1.739417,-0.470112 3.532562,-0.06044 a 0.44996516,0.44996516 0 0 1 0.349227,0.429818 z"
     id="path404"
     style="fill:#000000;stroke-width:0.67159" />
  <circle
     fill="#fbffff"
     cx="20.913401"
     cy="32.98436"
     r="2.8609726"
     id="circle406"
     style="fill:#000000;stroke-width:0.67159" />
  <path
     fill="#fbffff"
     d="m 27.045015,31.856087 q 0.839487,3.740755 0.214909,7.454647 a 0.48354465,0.47682876 8 0 1 -0.530556,0.396238 q -4.11013,-0.463397 -8.193396,0 A 0.59099902,0.58428312 87.8 0 1 17.88453,39.095825 l 0.06716,-1.725985 c 0.537272,-0.826056 4.882458,-0.510409 5.883127,-0.496977 a 0.68502159,0.68502159 0 0 0 0.691737,-0.691737 v -3.680313 a 0.58428312,0.59099902 79.1 0 1 0.369374,-0.543987 q 1.061112,-0.416386 2.149088,-0.100739 z"
     id="path408"
     style="fill:#000000;stroke-width:0.67159" />
  <path
     fill="#c0dad9"
     d="m 27.045015,31.856087 h 0.839487 l -0.14775,7.387488 a 0.41638567,0.41638567 0 0 0 0.423102,0.423102 l 14.88243,-0.154466 a 0.23505643,0.23505643 0 0 1 0.235056,0.275352 c -0.09402,0.510408 -23.169848,0.188045 -25.580855,0.161181 a 0.30221541,0.29549951 1.9 0 1 -0.2955,-0.308931 l 0.100739,-2.269973 h 0.449965 l -0.06716,1.725985 a 0.59099902,0.58428312 87.8 0 0 0.651442,0.611147 q 4.083266,-0.463397 8.193396,0 a 0.48354465,0.47682876 8 0 0 0.530556,-0.396238 q 0.624578,-3.713892 -0.214909,-7.454647 z"
     id="path410"
     style="fill:#000000;stroke-width:0.67159" />
</svg>
