<?xml version="1.0" encoding="UTF-8" standalone="no"?>
<!DOCTYPE svg PUBLIC "-//W3C//DTD SVG 1.1//EN" "http://www.w3.org/Graphics/SVG/1.1/DTD/svg11.dtd">
<svg xmlns="http://www.w3.org/2000/svg" version="1.1" viewBox="0 0 63 81">
<g stroke-width="2.00" fill="none" stroke-linecap="butt">
<path stroke="#87bdd9" vector-effect="non-scaling-stroke" d="
  M 56.2901 8.6931
  A 0.43 0.43 0.0 0 0 55.8609 8.2624
  L 7.3410 8.1777
  A 0.43 0.43 0.0 0 0 6.9102 8.6069
  L 6.8299 54.6469
  A 0.43 0.43 0.0 0 0 7.2591 55.0776
  L 55.7790 55.1623
  A 0.43 0.43 0.0 0 0 56.2098 54.7331
  L 56.2901 8.6931"
/>
<path stroke="#87bdd9" vector-effect="non-scaling-stroke" d="
  M 56.13 68.35
  A 0.31 0.31 0.0 0 0 56.13 67.83
  L 44.52 59.95
  A 0.31 0.31 0.0 0 0 44.04 60.18
  L 43.67 63.97
  A 0.31 0.31 0.0 0 1 43.36 64.25
  L 7.06 64.25
  A 0.31 0.31 0.0 0 0 6.75 64.56
  L 6.75 71.69
  A 0.31 0.31 0.0 0 0 7.06 72.00
  L 43.44 72.00
  A 0.31 0.31 0.0 0 1 43.75 72.31
  L 43.75 76.16
  A 0.31 0.31 0.0 0 0 44.23 76.41
  L 56.13 68.35"
/>
<path stroke="#ede2e2" vector-effect="non-scaling-stroke" d="
  M 45.00 14.21
  L 45.29 14.50"
/>
<path stroke="#8f8c8b" vector-effect="non-scaling-stroke" d="
  M 45.29 14.50
  L 43.71 37.82
  Q 43.63 38.93 42.71 38.31
  L 26.06 27.22
  Q 25.53 26.87 25.00 27.22
  L 8.85 37.83
  A 0.48 0.48 0.0 0 0 9.08 38.71
  L 10.13 38.79
  Q 10.60 38.82 11.00 38.56
  L 24.97 29.32
  A 1.89 1.88 45.1 0 1 27.07 29.33
  L 43.25 40.24
  A 0.25 0.25 0.0 0 1 43.23 40.67
  C 42.63 40.99 28.43 31.15 26.76 30.04
  A 1.36 1.36 0.0 0 0 25.24 30.04
  L 11.85 38.93
  A 1.02 1.00 75.4 0 0 11.42 39.68
  L 10.57 52.22
  A 0.63 0.63 0.0 0 0 11.21 52.89
  L 19.79 52.76
  Q 19.92 52.76 19.94 52.64
  L 21.48 42.40
  Q 21.55 41.88 22.01 41.62
  Q 25.44 39.67 28.47 41.80
  Q 28.90 42.10 28.98 42.61
  L 30.55 52.29
  Q 30.63 52.75 31.10 52.76
  L 53.83 52.87
  Q 54.27 52.88 54.24 52.44
  L 51.71 15.00"
/>
<path stroke="#ede2e2" vector-effect="non-scaling-stroke" d="
  M 51.71 15.00
  L 52.25 14.46"
/>
<path stroke="#abb0af" vector-effect="non-scaling-stroke" d="
  M 52.25 14.46
  Q 52.92 14.44 53.40 13.99
  Q 53.79 13.63 53.41 13.26
  L 49.36 9.31
  A 1.70 1.70 0.0 0 0 46.86 9.44
  L 43.61 13.38
  Q 43.34 13.71 43.69 13.96
  Q 44.28 14.37 45.00 14.21"
/>
<path stroke="#999292" vector-effect="non-scaling-stroke" d="
  M 52.25 14.46
  Q 51.09 11.83 48.77 10.25
  Q 48.34 9.95 47.94 10.27
  Q 45.95 11.85 45.00 14.21"
/>
<path stroke="#7c6f6e" vector-effect="non-scaling-stroke" d="
  M 51.71 15.00
  Q 50.66 12.92 48.65 11.87
  Q 48.12 11.59 47.70 12.02
  L 45.29 14.50"
/>
<path stroke="#8f8c8b" vector-effect="non-scaling-stroke" d="
  M 50.4897 22.3248
  A 0.81 0.81 0.0 0 0 49.6769 21.5176
  L 48.2969 21.5224
  A 0.81 0.81 0.0 0 0 47.4897 22.3353
  L 47.5103 28.2152
  A 0.81 0.81 0.0 0 0 48.3231 29.0224
  L 49.7031 29.0176
  A 0.81 0.81 0.0 0 0 50.5103 28.2047
  L 50.4897 22.3248"
/>
<path stroke="#7c6f6e" vector-effect="non-scaling-stroke" d="
  M 17.20 39.85
  Q 17.16 38.85 16.59 38.27
  Q 15.94 37.59 15.70 38.50
  Q 15.17 40.56 13.05 40.54
  Q 10.20 40.51 12.92 41.35
  Q 13.69 41.58 14.50 41.51
  Q 15.19 41.45 15.20 42.15
  L 15.33 48.30
  Q 15.34 48.74 15.40 49.17
  Q 15.66 51.15 16.46 51.01
  Q 17.14 50.88 17.15 50.20
  L 17.29 42.41
  A 0.81 0.80 -89.3 0 1 18.09 41.62
  L 20.44 41.63
  Q 20.75 41.63 20.75 41.31
  L 20.75 40.88
  Q 20.75 40.51 20.38 40.51
  L 17.86 40.48
  Q 17.23 40.48 17.20 39.85"
/>
</g>
<path fill="#0f7ab2" d="
  M 62.8107 75.3858
  A 5.04 5.04 0.0 0 1 57.7795 80.4346
  L 5.8596 80.5252
  A 5.04 5.04 0.0 0 1 0.8108 75.4941
  L 0.6893 5.8342
  A 5.04 5.04 0.0 0 1 5.7205 0.7854
  L 57.6404 0.6948
  A 5.04 5.04 0.0 0 1 62.6892 5.7259
  L 62.8107 75.3858
  Z
  M 56.2901 8.6931
  A 0.43 0.43 0.0 0 0 55.8609 8.2624
  L 7.3410 8.1777
  A 0.43 0.43 0.0 0 0 6.9102 8.6069
  L 6.8299 54.6469
  A 0.43 0.43 0.0 0 0 7.2591 55.0776
  L 55.7790 55.1623
  A 0.43 0.43 0.0 0 0 56.2098 54.7331
  L 56.2901 8.6931
  Z
  M 56.13 68.35
  A 0.31 0.31 0.0 0 0 56.13 67.83
  L 44.52 59.95
  A 0.31 0.31 0.0 0 0 44.04 60.18
  L 43.67 63.97
  A 0.31 0.31 0.0 0 1 43.36 64.25
  L 7.06 64.25
  A 0.31 0.31 0.0 0 0 6.75 64.56
  L 6.75 71.69
  A 0.31 0.31 0.0 0 0 7.06 72.00
  L 43.44 72.00
  A 0.31 0.31 0.0 0 1 43.75 72.31
  L 43.75 76.16
  A 0.31 0.31 0.0 0 0 44.23 76.41
  L 56.13 68.35
  Z"
/>
<path fill="#ffffff" d="
  M 56.2098 54.7331
  A 0.43 0.43 0.0 0 1 55.7790 55.1623
  L 7.2591 55.0776
  A 0.43 0.43 0.0 0 1 6.8299 54.6469
  L 6.9102 8.6069
  A 0.43 0.43 0.0 0 1 7.3410 8.1777
  L 55.8609 8.2624
  A 0.43 0.43 0.0 0 1 56.2901 8.6931
  L 56.2098 54.7331
  Z
  M 45.00 14.21
  L 45.29 14.50
  L 43.71 37.82
  Q 43.63 38.93 42.71 38.31
  L 26.06 27.22
  Q 25.53 26.87 25.00 27.22
  L 8.85 37.83
  A 0.48 0.48 0.0 0 0 9.08 38.71
  L 10.13 38.79
  Q 10.60 38.82 11.00 38.56
  L 24.97 29.32
  A 1.89 1.88 45.1 0 1 27.07 29.33
  L 43.25 40.24
  A 0.25 0.25 0.0 0 1 43.23 40.67
  C 42.63 40.99 28.43 31.15 26.76 30.04
  A 1.36 1.36 0.0 0 0 25.24 30.04
  L 11.85 38.93
  A 1.02 1.00 75.4 0 0 11.42 39.68
  L 10.57 52.22
  A 0.63 0.63 0.0 0 0 11.21 52.89
  L 19.79 52.76
  Q 19.92 52.76 19.94 52.64
  L 21.48 42.40
  Q 21.55 41.88 22.01 41.62
  Q 25.44 39.67 28.47 41.80
  Q 28.90 42.10 28.98 42.61
  L 30.55 52.29
  Q 30.63 52.75 31.10 52.76
  L 53.83 52.87
  Q 54.27 52.88 54.24 52.44
  L 51.71 15.00
  L 52.25 14.46
  Q 52.92 14.44 53.40 13.99
  Q 53.79 13.63 53.41 13.26
  L 49.36 9.31
  A 1.70 1.70 0.0 0 0 46.86 9.44
  L 43.61 13.38
  Q 43.34 13.71 43.69 13.96
  Q 44.28 14.37 45.00 14.21
  Z"
/>
<path fill="#57605e" d="
  M 52.25 14.46
  Q 51.09 11.83 48.77 10.25
  Q 48.34 9.95 47.94 10.27
  Q 45.95 11.85 45.00 14.21
  Q 44.28 14.37 43.69 13.96
  Q 43.34 13.71 43.61 13.38
  L 46.86 9.44
  A 1.70 1.70 0.0 0 1 49.36 9.31
  L 53.41 13.26
  Q 53.79 13.63 53.40 13.99
  Q 52.92 14.44 52.25 14.46
  Z"
/>
<path fill="#dac4c5" d="
  M 52.25 14.46
  L 51.71 15.00
  Q 50.66 12.92 48.65 11.87
  Q 48.12 11.59 47.70 12.02
  L 45.29 14.50
  L 45.00 14.21
  Q 45.95 11.85 47.94 10.27
  Q 48.34 9.95 48.77 10.25
  Q 51.09 11.83 52.25 14.46
  Z"
/>
<path fill="#1e1916" d="
  M 51.71 15.00
  L 54.24 52.44
  Q 54.27 52.88 53.83 52.87
  L 31.10 52.76
  Q 30.63 52.75 30.55 52.29
  L 28.98 42.61
  Q 28.90 42.10 28.47 41.80
  Q 25.44 39.67 22.01 41.62
  Q 21.55 41.88 21.48 42.40
  L 19.94 52.64
  Q 19.92 52.76 19.79 52.76
  L 11.21 52.89
  A 0.63 0.63 0.0 0 1 10.57 52.22
  L 11.42 39.68
  A 1.02 1.00 75.4 0 1 11.85 38.93
  L 25.24 30.04
  A 1.36 1.36 0.0 0 1 26.76 30.04
  C 28.43 31.15 42.63 40.99 43.23 40.67
  A 0.25 0.25 0.0 0 0 43.25 40.24
  L 27.07 29.33
  A 1.89 1.88 45.1 0 0 24.97 29.32
  L 11.00 38.56
  Q 10.60 38.82 10.13 38.79
  L 9.08 38.71
  A 0.48 0.48 0.0 0 1 8.85 37.83
  L 25.00 27.22
  Q 25.53 26.87 26.06 27.22
  L 42.71 38.31
  Q 43.63 38.93 43.71 37.82
  L 45.29 14.50
  L 47.70 12.02
  Q 48.12 11.59 48.65 11.87
  Q 50.66 12.92 51.71 15.00
  Z
  M 50.4897 22.3248
  A 0.81 0.81 0.0 0 0 49.6769 21.5176
  L 48.2969 21.5224
  A 0.81 0.81 0.0 0 0 47.4897 22.3353
  L 47.5103 28.2152
  A 0.81 0.81 0.0 0 0 48.3231 29.0224
  L 49.7031 29.0176
  A 0.81 0.81 0.0 0 0 50.5103 28.2047
  L 50.4897 22.3248
  Z
  M 17.20 39.85
  Q 17.16 38.85 16.59 38.27
  Q 15.94 37.59 15.70 38.50
  Q 15.17 40.56 13.05 40.54
  Q 10.20 40.51 12.92 41.35
  Q 13.69 41.58 14.50 41.51
  Q 15.19 41.45 15.20 42.15
  L 15.33 48.30
  Q 15.34 48.74 15.40 49.17
  Q 15.66 51.15 16.46 51.01
  Q 17.14 50.88 17.15 50.20
  L 17.29 42.41
  A 0.81 0.80 -89.3 0 1 18.09 41.62
  L 20.44 41.63
  Q 20.75 41.63 20.75 41.31
  L 20.75 40.88
  Q 20.75 40.51 20.38 40.51
  L 17.86 40.48
  Q 17.23 40.48 17.20 39.85
  Z"
/>
<rect fill="#ffffff" x="-1.50" y="-3.75" transform="translate(49.00,25.27) rotate(-0.2)" width="3.00" height="7.50" rx="0.81"/>
<path fill="#dac4c5" d="
  M 17.86 40.48
  L 20.38 40.51
  Q 20.75 40.51 20.75 40.88
  L 20.75 41.31
  Q 20.75 41.63 20.44 41.63
  L 18.09 41.62
  A 0.81 0.80 -89.3 0 0 17.29 42.41
  L 17.15 50.20
  Q 17.14 50.88 16.46 51.01
  Q 15.66 51.15 15.40 49.17
  Q 15.34 48.74 15.33 48.30
  L 15.20 42.15
  Q 15.19 41.45 14.50 41.51
  Q 13.69 41.58 12.92 41.35
  Q 10.20 40.51 13.05 40.54
  Q 15.17 40.56 15.70 38.50
  Q 15.94 37.59 16.59 38.27
  Q 17.16 38.85 17.20 39.85
  Q 17.23 40.48 17.86 40.48
  Z"
/>
<path fill="#ffffff" d="
  M 56.13 68.35
  L 44.23 76.41
  A 0.31 0.31 0.0 0 1 43.75 76.16
  L 43.75 72.31
  A 0.31 0.31 0.0 0 0 43.44 72.00
  L 7.06 72.00
  A 0.31 0.31 0.0 0 1 6.75 71.69
  L 6.75 64.56
  A 0.31 0.31 0.0 0 1 7.06 64.25
  L 43.36 64.25
  A 0.31 0.31 0.0 0 0 43.67 63.97
  L 44.04 60.18
  A 0.31 0.31 0.0 0 1 44.52 59.95
  L 56.13 67.83
  A 0.31 0.31 0.0 0 1 56.13 68.35
  Z"
/>
</svg>
