<?xml version="1.0" encoding="UTF-8" standalone="no"?>
<!DOCTYPE svg PUBLIC "-//W3C//DTD SVG 1.1//EN" "http://www.w3.org/Graphics/SVG/1.1/DTD/svg11.dtd">
<svg xmlns="http://www.w3.org/2000/svg" version="1.1" viewBox="0 0 64 81">
<g stroke-width="2.00" fill="none" stroke-linecap="butt">
<path stroke="#83bedd" vector-effect="non-scaling-stroke" d="
  M 56.7800 8.3830
  A 0.35 0.35 0.0 0 0 56.4306 8.0324
  L 7.8907 7.9477
  A 0.35 0.35 0.0 0 0 7.5401 8.2971
  L 7.4600 54.2170
  A 0.35 0.35 0.0 0 0 7.8094 54.5676
  L 56.3493 54.6523
  A 0.35 0.35 0.0 0 0 56.6999 54.3029
  L 56.7800 8.3830"
/>
<path stroke="#8e8d8d" vector-effect="non-scaling-stroke" d="
  M 27.25 25.36
  L 27.25 20.53
  Q 27.25 19.98 27.71 19.70
  C 34.36 15.68 27.23 7.30 22.21 13.20
  Q 21.86 13.61 21.92 14.15
  Q 23.15 24.08 22.98 34.10
  A 0.91 0.90 -0.0 0 0 23.91 35.02
  L 36.93 34.76
  Q 37.61 34.74 37.83 35.39
  L 41.82 47.31
  Q 41.96 47.72 42.36 47.57
  L 49.83 44.88
  Q 50.36 44.69 50.20 44.15
  L 49.51 41.87
  Q 49.30 41.16 48.59 41.41
  L 45.23 42.65
  A 0.61 0.60 -19.5 0 1 44.45 42.28
  L 40.97 31.94
  A 0.65 0.64 80.5 0 0 40.36 31.50
  C 38.81 31.50 27.04 32.27 27.60 30.26
  A 0.98 0.97 -82.3 0 1 28.52 29.55
  L 36.35 29.47
  Q 36.93 29.47 36.89 28.89
  L 36.74 26.42
  Q 36.71 25.89 36.18 25.90
  L 27.93 26.03
  Q 27.25 26.04 27.25 25.36"
/>
<path stroke="#8e8d8d" vector-effect="non-scaling-stroke" d="
  M 21.15 26.64
  C 3.19 34.05 19.37 62.06 37.75 46.98
  Q 41.28 44.09 38.76 40.74
  Q 38.42 40.29 38.11 40.76
  C 34.50 46.29 27.13 49.75 21.23 45.46
  Q 15.72 41.45 18.37 33.76
  C 19.26 31.20 23.73 30.26 21.87 26.89
  Q 21.62 26.44 21.15 26.64"
/>
</g>
<path fill="#077cbb" d="
  M 62.9107 74.9558
  A 4.94 4.94 0.0 0 1 57.9793 79.9044
  L 5.7994 79.9955
  A 4.94 4.94 0.0 0 1 0.8507 75.0641
  L 0.7293 5.5042
  A 4.94 4.94 0.0 0 1 5.6607 0.5556
  L 57.8406 0.4645
  A 4.94 4.94 0.0 0 1 62.7893 5.3959
  L 62.9107 74.9558
  Z
  M 56.7800 8.3830
  A 0.35 0.35 0.0 0 0 56.4306 8.0324
  L 7.8907 7.9477
  A 0.35 0.35 0.0 0 0 7.5401 8.2971
  L 7.4600 54.2170
  A 0.35 0.35 0.0 0 0 7.8094 54.5676
  L 56.3493 54.6523
  A 0.35 0.35 0.0 0 0 56.6999 54.3029
  L 56.7800 8.3830
  Z"
/>
<path fill="#ffffff" d="
  M 56.6999 54.3029
  A 0.35 0.35 0.0 0 1 56.3493 54.6523
  L 7.8094 54.5676
  A 0.35 0.35 0.0 0 1 7.4600 54.2170
  L 7.5401 8.2971
  A 0.35 0.35 0.0 0 1 7.8907 7.9477
  L 56.4306 8.0324
  A 0.35 0.35 0.0 0 1 56.7800 8.3830
  L 56.6999 54.3029
  Z
  M 27.25 25.36
  L 27.25 20.53
  Q 27.25 19.98 27.71 19.70
  C 34.36 15.68 27.23 7.30 22.21 13.20
  Q 21.86 13.61 21.92 14.15
  Q 23.15 24.08 22.98 34.10
  A 0.91 0.90 -0.0 0 0 23.91 35.02
  L 36.93 34.76
  Q 37.61 34.74 37.83 35.39
  L 41.82 47.31
  Q 41.96 47.72 42.36 47.57
  L 49.83 44.88
  Q 50.36 44.69 50.20 44.15
  L 49.51 41.87
  Q 49.30 41.16 48.59 41.41
  L 45.23 42.65
  A 0.61 0.60 -19.5 0 1 44.45 42.28
  L 40.97 31.94
  A 0.65 0.64 80.5 0 0 40.36 31.50
  C 38.81 31.50 27.04 32.27 27.60 30.26
  A 0.98 0.97 -82.3 0 1 28.52 29.55
  L 36.35 29.47
  Q 36.93 29.47 36.89 28.89
  L 36.74 26.42
  Q 36.71 25.89 36.18 25.90
  L 27.93 26.03
  Q 27.25 26.04 27.25 25.36
  Z
  M 21.15 26.64
  C 3.19 34.05 19.37 62.06 37.75 46.98
  Q 41.28 44.09 38.76 40.74
  Q 38.42 40.29 38.11 40.76
  C 34.50 46.29 27.13 49.75 21.23 45.46
  Q 15.72 41.45 18.37 33.76
  C 19.26 31.20 23.73 30.26 21.87 26.89
  Q 21.62 26.44 21.15 26.64
  Z"
/>
<path fill="#1c1b1a" d="
  M 27.93 26.03
  L 36.18 25.90
  Q 36.71 25.89 36.74 26.42
  L 36.89 28.89
  Q 36.93 29.47 36.35 29.47
  L 28.52 29.55
  A 0.98 0.97 -82.3 0 0 27.60 30.26
  C 27.04 32.27 38.81 31.50 40.36 31.50
  A 0.65 0.64 80.5 0 1 40.97 31.94
  L 44.45 42.28
  A 0.61 0.60 -19.5 0 0 45.23 42.65
  L 48.59 41.41
  Q 49.30 41.16 49.51 41.87
  L 50.20 44.15
  Q 50.36 44.69 49.83 44.88
  L 42.36 47.57
  Q 41.96 47.72 41.82 47.31
  L 37.83 35.39
  Q 37.61 34.74 36.93 34.76
  L 23.91 35.02
  A 0.91 0.90 -0.0 0 1 22.98 34.10
  Q 23.15 24.08 21.92 14.15
  Q 21.86 13.61 22.21 13.20
  C 27.23 7.30 34.36 15.68 27.71 19.70
  Q 27.25 19.98 27.25 20.53
  L 27.25 25.36
  Q 27.25 26.04 27.93 26.03
  Z"
/>
<path fill="#1c1b1a" d="
  M 37.75 46.98
  C 19.37 62.06 3.19 34.05 21.15 26.64
  Q 21.62 26.44 21.87 26.89
  C 23.73 30.26 19.26 31.20 18.37 33.76
  Q 15.72 41.45 21.23 45.46
  C 27.13 49.75 34.50 46.29 38.11 40.76
  Q 38.42 40.29 38.76 40.74
  Q 41.28 44.09 37.75 46.98
  Z"
/>
</svg>
