<?xml version="1.0" encoding="UTF-8" standalone="no"?>
<!DOCTYPE svg PUBLIC "-//W3C//DTD SVG 1.1//EN" "http://www.w3.org/Graphics/SVG/1.1/DTD/svg11.dtd">
<svg xmlns="http://www.w3.org/2000/svg" version="1.1" viewBox="0 0 64 81">
<g stroke-width="2.00" fill="none" stroke-linecap="butt">
<path stroke="#84bddc" vector-effect="non-scaling-stroke" d="
  M 57.0401 8.3032
  A 0.27 0.27 0.0 0 0 56.7706 8.0327
  L 7.8506 7.9473
  A 0.27 0.27 0.0 0 0 7.5802 8.2169
  L 7.4999 54.1968
  A 0.27 0.27 0.0 0 0 7.7694 54.4673
  L 56.6894 54.5527
  A 0.27 0.27 0.0 0 0 56.9598 54.2831
  L 57.0401 8.3032"
/>
<path stroke="#8d8d8c" vector-effect="non-scaling-stroke" d="
  M 32.76 30.90
  C 31.54 31.68 32.01 33.04 32.67 34.00
  A 0.73 0.72 44.6 0 1 32.68 34.80
  Q 31.69 36.36 33.16 37.49
  A 0.77 0.77 0.0 0 1 33.41 38.35
  L 33.00 39.55
  A 0.77 0.76 18.5 0 0 33.49 40.53
  L 34.30 40.79
  A 0.48 0.47 20.5 0 1 34.60 41.43
  L 33.98 42.83
  A 0.53 0.53 0.0 0 0 34.44 43.57
  Q 36.43 43.67 35.96 45.58
  A 0.49 0.48 -67.1 0 1 35.23 45.88
  L 32.94 44.43
  A 0.45 0.45 0.0 0 0 32.28 44.65
  L 31.74 46.07
  A 0.32 0.32 0.0 0 1 31.21 46.18
  L 29.28 44.25
  A 0.58 0.58 0.0 0 0 28.31 44.53
  L 28.00 45.88
  A 0.42 0.42 0.0 0 1 27.31 46.11
  L 25.09 44.20
  A 1.11 1.09 21.2 0 1 24.72 43.38
  L 24.71 42.51
  A 0.52 0.52 0.0 0 0 24.19 41.99
  L 22.83 42.00
  Q 21.88 42.01 22.52 42.71
  L 23.61 43.92
  Q 23.94 44.29 24.11 44.75
  C 24.94 47.02 26.46 48.17 29.03 48.24
  C 33.68 48.36 39.94 49.24 41.67 44.89
  Q 47.02 31.38 41.29 18.10
  C 38.41 11.43 33.43 12.77 26.20 13.12
  Q 24.32 13.21 23.54 15.70
  Q 23.22 16.72 24.20 16.28
  L 26.39 15.30
  A 0.55 0.54 -32.7 0 1 27.04 15.44
  Q 28.42 17.04 29.92 15.44
  A 0.60 0.60 0.0 0 1 30.80 15.44
  Q 32.15 16.89 33.77 15.64
  A 0.85 0.85 0.0 0 1 34.73 15.58
  L 35.19 15.85
  A 0.51 0.51 0.0 0 1 35.20 16.72
  L 33.73 17.65
  A 0.65 0.64 -34.9 0 0 33.56 18.60
  L 33.94 19.08
  A 0.54 0.53 -35.8 0 1 33.81 19.85
  Q 32.11 20.94 33.03 22.85
  A 0.79 0.79 0.0 0 1 32.85 23.76
  Q 31.70 24.78 32.59 26.18
  A 0.86 0.85 44.7 0 1 32.60 27.06
  Q 31.53 28.84 32.83 30.38
  A 0.35 0.34 53.6 0 1 32.76 30.90"
/>
<path stroke="#8d8d8c" vector-effect="non-scaling-stroke" d="
  M 24.7137 17.7943
  A 1.49 1.05 -15.8 0 0 22.9941 17.1897
  A 1.49 1.05 -15.8 0 0 21.8463 18.6057
  A 1.49 1.05 -15.8 0 0 23.5659 19.2103
  A 1.49 1.05 -15.8 0 0 24.7137 17.7943"
/>
<path stroke="#8d8d8c" vector-effect="non-scaling-stroke" d="
  M 28.7050 17.8385
  A 1.49 1.11 -10.5 0 0 27.0377 17.0186
  A 1.49 1.11 -10.5 0 0 25.7750 18.3815
  A 1.49 1.11 -10.5 0 0 27.4423 19.2014
  A 1.49 1.11 -10.5 0 0 28.7050 17.8385"
/>
<path stroke="#8d8d8c" vector-effect="non-scaling-stroke" d="
  M 32.7183 17.9015
  A 1.55 1.07 -9.6 0 0 31.0116 17.1050
  A 1.55 1.07 -9.6 0 0 29.6617 18.4185
  A 1.55 1.07 -9.6 0 0 31.3684 19.2150
  A 1.55 1.07 -9.6 0 0 32.7183 17.9015"
/>
<path stroke="#8d8d8c" vector-effect="non-scaling-stroke" d="
  M 23.7496 20.9716
  A 0.82 0.82 0.0 0 0 22.9797 20.1044
  L 21.9016 20.0404
  A 0.82 0.82 0.0 0 0 21.0344 20.8103
  L 20.9704 21.8884
  A 0.82 0.82 0.0 0 0 21.7403 22.7556
  L 22.8184 22.8196
  A 0.82 0.82 0.0 0 0 23.6856 22.0497
  L 23.7496 20.9716"
/>
<path stroke="#8d8d8c" vector-effect="non-scaling-stroke" d="
  M 27.4821 20.4273
  A 1.60 1.28 -40.2 0 0 25.4338 20.4823
  A 1.60 1.28 -40.2 0 0 25.0379 22.4927
  A 1.60 1.28 -40.2 0 0 27.0862 22.4377
  A 1.60 1.28 -40.2 0 0 27.4821 20.4273"
/>
<path stroke="#8d8d8c" vector-effect="non-scaling-stroke" d="
  M 29.0956 22.6420
  A 1.61 1.36 133.8 0 0 31.1916 22.4213
  A 1.61 1.36 133.8 0 0 31.3244 20.3180
  A 1.61 1.36 133.8 0 0 29.2284 20.5387
  A 1.61 1.36 133.8 0 0 29.0956 22.6420"
/>
<path stroke="#8d8d8c" vector-effect="non-scaling-stroke" d="
  M 23.0659 25.2714
  A 1.35 1.27 12.9 0 0 22.0335 23.7321
  A 1.35 1.27 12.9 0 0 20.4341 24.6686
  A 1.35 1.27 12.9 0 0 21.4665 26.2079
  A 1.35 1.27 12.9 0 0 23.0659 25.2714"
/>
<path stroke="#8d8d8c" vector-effect="non-scaling-stroke" d="
  M 27.1296 25.0662
  A 1.48 1.20 1.4 0 0 25.6793 23.8304
  A 1.48 1.20 1.4 0 0 24.1704 24.9938
  A 1.48 1.20 1.4 0 0 25.6207 26.2296
  A 1.48 1.20 1.4 0 0 27.1296 25.0662"
/>
<path stroke="#8d8d8c" vector-effect="non-scaling-stroke" d="
  M 31.3151 24.5938
  A 1.60 1.28 -13.6 0 0 29.4590 23.7259
  A 1.60 1.28 -13.6 0 0 28.2049 25.3462
  A 1.60 1.28 -13.6 0 0 30.0610 26.2141
  A 1.60 1.28 -13.6 0 0 31.3151 24.5938"
/>
<path stroke="#8d8d8c" vector-effect="non-scaling-stroke" d="
  M 23.06 28.63
  A 1.45 1.45 0.0 0 0 21.61 27.18
  A 1.45 1.45 0.0 0 0 20.16 28.63
  A 1.45 1.45 0.0 0 0 21.61 30.08
  A 1.45 1.45 0.0 0 0 23.06 28.63"
/>
<path stroke="#8d8d8c" vector-effect="non-scaling-stroke" d="
  M 27.04 28.61
  A 1.49 1.49 0.0 0 0 25.55 27.12
  A 1.49 1.49 0.0 0 0 24.06 28.61
  A 1.49 1.49 0.0 0 0 25.55 30.10
  A 1.49 1.49 0.0 0 0 27.04 28.61"
/>
<path stroke="#8d8d8c" vector-effect="non-scaling-stroke" d="
  M 30.9700 27.9180
  A 0.75 0.75 0.0 0 0 30.1868 27.2028
  L 28.9280 27.2600
  A 0.75 0.75 0.0 0 0 28.2128 28.0432
  L 28.2700 29.3020
  A 0.75 0.75 0.0 0 0 29.0532 30.0172
  L 30.3120 29.9600
  A 0.75 0.75 0.0 0 0 31.0272 29.1768
  L 30.9700 27.9180"
/>
<path stroke="#8d8d8c" vector-effect="non-scaling-stroke" d="
  M 23.05 31.78
  A 0.73 0.72 -89.0 0 0 22.27 30.96
  L 20.98 31.09
  A 0.71 0.69 -0.6 0 0 20.35 31.72
  Q 20.14 34.02 22.25 33.86
  A 0.65 0.64 -88.3 0 0 22.84 33.30
  L 23.05 31.78"
/>
<path stroke="#8d8d8c" vector-effect="non-scaling-stroke" d="
  M 27.11 32.44
  A 1.55 1.55 0.0 0 0 25.56 30.89
  A 1.55 1.55 0.0 0 0 24.01 32.44
  A 1.55 1.55 0.0 0 0 25.56 33.99
  A 1.55 1.55 0.0 0 0 27.11 32.44"
/>
<path stroke="#8d8d8c" vector-effect="non-scaling-stroke" d="
  M 30.9973 31.9325
  A 0.92 0.92 0.0 0 0 30.0725 31.0173
  L 29.0325 31.0227
  A 0.92 0.92 0.0 0 0 28.1173 31.9475
  L 28.1227 32.9875
  A 0.92 0.92 0.0 0 0 29.0475 33.9027
  L 30.0875 33.8973
  A 0.92 0.92 0.0 0 0 31.0027 32.9725
  L 30.9973 31.9325"
/>
<path stroke="#8d8d8c" vector-effect="non-scaling-stroke" d="
  M 21.03 34.89
  Q 20.91 34.75 20.75 34.75
  A 0.30 0.29 -11.1 0 0 20.48 35.15
  L 21.51 37.81
  A 0.83 0.83 0.0 0 0 23.12 37.51
  L 23.12 35.72
  A 0.71 0.71 0.0 0 0 22.41 35.01
  L 21.26 35.00
  A 0.30 0.29 70.0 0 1 21.03 34.89"
/>
<path stroke="#8d8d8c" vector-effect="non-scaling-stroke" d="
  M 27.31 35.89
  A 0.74 0.74 0.0 0 0 26.55 35.01
  L 25.00 35.09
  A 0.57 0.57 0.0 0 0 24.46 35.71
  Q 24.65 37.74 26.46 37.78
  A 0.59 0.59 0.0 0 0 27.04 37.30
  L 27.31 35.89"
/>
<path stroke="#8d8d8c" vector-effect="non-scaling-stroke" d="
  M 30.65 37.62
  C 32.51 35.23 30.04 34.20 28.55 35.32
  A 0.68 0.68 0.0 0 0 28.43 36.29
  L 29.51 37.63
  A 0.73 0.72 44.4 0 0 30.65 37.62"
/>
<path stroke="#8d8d8c" vector-effect="non-scaling-stroke" d="
  M 22.06 38.69
  L 21.87 38.49
  A 0.11 0.11 0.0 0 0 21.69 38.53
  Q 20.92 40.40 22.65 40.89
  A 0.94 0.94 0.0 0 0 23.84 39.89
  L 23.73 38.84
  A 0.56 0.56 0.0 0 0 22.90 38.41
  L 22.35 38.73
  A 0.24 0.24 0.0 0 1 22.06 38.69"
/>
<path stroke="#8d8d8c" vector-effect="non-scaling-stroke" d="
  M 26.04 38.61
  Q 25.36 38.27 25.09 39.36
  A 0.87 0.86 20.1 0 0 25.56 40.36
  L 26.78 40.91
  A 0.74 0.74 0.0 0 0 27.80 40.47
  C 28.04 39.71 27.58 38.07 26.47 38.61
  A 0.52 0.50 -43.6 0 1 26.04 38.61"
/>
<path stroke="#8d8d8c" vector-effect="non-scaling-stroke" d="
  M 31.8801 40.1878
  A 1.47 1.15 22.3 0 0 30.9564 38.5660
  A 1.47 1.15 22.3 0 0 29.1599 39.0722
  A 1.47 1.15 22.3 0 0 30.0836 40.6940
  A 1.47 1.15 22.3 0 0 31.8801 40.1878"
/>
<path stroke="#8d8d8c" vector-effect="non-scaling-stroke" d="
  M 26.23 43.15
  L 27.94 43.84
  A 0.59 0.59 0.0 0 0 28.76 43.26
  L 28.72 42.27
  A 0.55 0.55 0.0 0 0 28.01 41.77
  L 26.27 42.30
  A 0.45 0.45 0.0 0 0 26.23 43.15"
/>
<path stroke="#8d8d8c" vector-effect="non-scaling-stroke" d="
  M 32.46 43.50
  L 32.81 42.89
  A 0.48 0.47 27.6 0 0 32.60 42.23
  Q 31.67 41.77 30.58 42.06
  Q 29.44 42.37 30.43 43.02
  L 31.52 43.73
  A 0.66 0.66 0.0 0 0 32.46 43.50"
/>
<path stroke="#8d8d8c" vector-effect="non-scaling-stroke" d="
  M 37.93 18.31
  A 0.27 0.27 0.0 0 0 37.48 18.53
  Q 37.55 19.50 38.42 20.00
  A 1.38 1.32 6.6 0 1 38.99 20.69
  C 40.93 26.03 42.66 37.28 39.28 42.30
  Q 38.96 42.77 39.53 42.80
  C 42.49 42.95 41.74 28.33 41.64 26.46
  Q 41.38 21.64 37.93 18.31"
/>
<path stroke="#8d8d8c" vector-effect="non-scaling-stroke" d="
  M 37.6673 37.0594
  A 6.38 1.08 86.7 0 0 38.3782 30.6278
  A 6.38 1.08 86.7 0 0 36.9327 24.3206
  A 6.38 1.08 86.7 0 0 36.2218 30.7522
  A 6.38 1.08 86.7 0 0 37.6673 37.0594"
/>
</g>
<path fill="#087bb9" d="
  M 63.2292 75.0840
  A 4.91 4.91 0.0 0 1 58.3107 79.9854
  L 6.1907 79.8945
  A 4.91 4.91 0.0 0 1 1.2893 74.9759
  L 1.4108 5.3760
  A 4.91 4.91 0.0 0 1 6.3293 0.4746
  L 58.4493 0.5655
  A 4.91 4.91 0.0 0 1 63.3507 5.4841
  L 63.2292 75.0840
  Z
  M 57.0401 8.3032
  A 0.27 0.27 0.0 0 0 56.7706 8.0327
  L 7.8506 7.9473
  A 0.27 0.27 0.0 0 0 7.5802 8.2169
  L 7.4999 54.1968
  A 0.27 0.27 0.0 0 0 7.7694 54.4673
  L 56.6894 54.5527
  A 0.27 0.27 0.0 0 0 56.9598 54.2831
  L 57.0401 8.3032
  Z"
/>
<path fill="#ffffff" d="
  M 56.9598 54.2831
  A 0.27 0.27 0.0 0 1 56.6894 54.5527
  L 7.7694 54.4673
  A 0.27 0.27 0.0 0 1 7.4999 54.1968
  L 7.5802 8.2169
  A 0.27 0.27 0.0 0 1 7.8506 7.9473
  L 56.7706 8.0327
  A 0.27 0.27 0.0 0 1 57.0401 8.3032
  L 56.9598 54.2831
  Z
  M 32.76 30.90
  C 31.54 31.68 32.01 33.04 32.67 34.00
  A 0.73 0.72 44.6 0 1 32.68 34.80
  Q 31.69 36.36 33.16 37.49
  A 0.77 0.77 0.0 0 1 33.41 38.35
  L 33.00 39.55
  A 0.77 0.76 18.5 0 0 33.49 40.53
  L 34.30 40.79
  A 0.48 0.47 20.5 0 1 34.60 41.43
  L 33.98 42.83
  A 0.53 0.53 0.0 0 0 34.44 43.57
  Q 36.43 43.67 35.96 45.58
  A 0.49 0.48 -67.1 0 1 35.23 45.88
  L 32.94 44.43
  A 0.45 0.45 0.0 0 0 32.28 44.65
  L 31.74 46.07
  A 0.32 0.32 0.0 0 1 31.21 46.18
  L 29.28 44.25
  A 0.58 0.58 0.0 0 0 28.31 44.53
  L 28.00 45.88
  A 0.42 0.42 0.0 0 1 27.31 46.11
  L 25.09 44.20
  A 1.11 1.09 21.2 0 1 24.72 43.38
  L 24.71 42.51
  A 0.52 0.52 0.0 0 0 24.19 41.99
  L 22.83 42.00
  Q 21.88 42.01 22.52 42.71
  L 23.61 43.92
  Q 23.94 44.29 24.11 44.75
  C 24.94 47.02 26.46 48.17 29.03 48.24
  C 33.68 48.36 39.94 49.24 41.67 44.89
  Q 47.02 31.38 41.29 18.10
  C 38.41 11.43 33.43 12.77 26.20 13.12
  Q 24.32 13.21 23.54 15.70
  Q 23.22 16.72 24.20 16.28
  L 26.39 15.30
  A 0.55 0.54 -32.7 0 1 27.04 15.44
  Q 28.42 17.04 29.92 15.44
  A 0.60 0.60 0.0 0 1 30.80 15.44
  Q 32.15 16.89 33.77 15.64
  A 0.85 0.85 0.0 0 1 34.73 15.58
  L 35.19 15.85
  A 0.51 0.51 0.0 0 1 35.20 16.72
  L 33.73 17.65
  A 0.65 0.64 -34.9 0 0 33.56 18.60
  L 33.94 19.08
  A 0.54 0.53 -35.8 0 1 33.81 19.85
  Q 32.11 20.94 33.03 22.85
  A 0.79 0.79 0.0 0 1 32.85 23.76
  Q 31.70 24.78 32.59 26.18
  A 0.86 0.85 44.7 0 1 32.60 27.06
  Q 31.53 28.84 32.83 30.38
  A 0.35 0.34 53.6 0 1 32.76 30.90
  Z
  M 24.7137 17.7943
  A 1.49 1.05 -15.8 0 0 22.9941 17.1897
  A 1.49 1.05 -15.8 0 0 21.8463 18.6057
  A 1.49 1.05 -15.8 0 0 23.5659 19.2103
  A 1.49 1.05 -15.8 0 0 24.7137 17.7943
  Z
  M 28.7050 17.8385
  A 1.49 1.11 -10.5 0 0 27.0377 17.0186
  A 1.49 1.11 -10.5 0 0 25.7750 18.3815
  A 1.49 1.11 -10.5 0 0 27.4423 19.2014
  A 1.49 1.11 -10.5 0 0 28.7050 17.8385
  Z
  M 32.7183 17.9015
  A 1.55 1.07 -9.6 0 0 31.0116 17.1050
  A 1.55 1.07 -9.6 0 0 29.6617 18.4185
  A 1.55 1.07 -9.6 0 0 31.3684 19.2150
  A 1.55 1.07 -9.6 0 0 32.7183 17.9015
  Z
  M 23.7496 20.9716
  A 0.82 0.82 0.0 0 0 22.9797 20.1044
  L 21.9016 20.0404
  A 0.82 0.82 0.0 0 0 21.0344 20.8103
  L 20.9704 21.8884
  A 0.82 0.82 0.0 0 0 21.7403 22.7556
  L 22.8184 22.8196
  A 0.82 0.82 0.0 0 0 23.6856 22.0497
  L 23.7496 20.9716
  Z
  M 27.4821 20.4273
  A 1.60 1.28 -40.2 0 0 25.4338 20.4823
  A 1.60 1.28 -40.2 0 0 25.0379 22.4927
  A 1.60 1.28 -40.2 0 0 27.0862 22.4377
  A 1.60 1.28 -40.2 0 0 27.4821 20.4273
  Z
  M 29.0956 22.6420
  A 1.61 1.36 133.8 0 0 31.1916 22.4213
  A 1.61 1.36 133.8 0 0 31.3244 20.3180
  A 1.61 1.36 133.8 0 0 29.2284 20.5387
  A 1.61 1.36 133.8 0 0 29.0956 22.6420
  Z
  M 23.0659 25.2714
  A 1.35 1.27 12.9 0 0 22.0335 23.7321
  A 1.35 1.27 12.9 0 0 20.4341 24.6686
  A 1.35 1.27 12.9 0 0 21.4665 26.2079
  A 1.35 1.27 12.9 0 0 23.0659 25.2714
  Z
  M 27.1296 25.0662
  A 1.48 1.20 1.4 0 0 25.6793 23.8304
  A 1.48 1.20 1.4 0 0 24.1704 24.9938
  A 1.48 1.20 1.4 0 0 25.6207 26.2296
  A 1.48 1.20 1.4 0 0 27.1296 25.0662
  Z
  M 31.3151 24.5938
  A 1.60 1.28 -13.6 0 0 29.4590 23.7259
  A 1.60 1.28 -13.6 0 0 28.2049 25.3462
  A 1.60 1.28 -13.6 0 0 30.0610 26.2141
  A 1.60 1.28 -13.6 0 0 31.3151 24.5938
  Z
  M 23.06 28.63
  A 1.45 1.45 0.0 0 0 21.61 27.18
  A 1.45 1.45 0.0 0 0 20.16 28.63
  A 1.45 1.45 0.0 0 0 21.61 30.08
  A 1.45 1.45 0.0 0 0 23.06 28.63
  Z
  M 27.04 28.61
  A 1.49 1.49 0.0 0 0 25.55 27.12
  A 1.49 1.49 0.0 0 0 24.06 28.61
  A 1.49 1.49 0.0 0 0 25.55 30.10
  A 1.49 1.49 0.0 0 0 27.04 28.61
  Z
  M 30.9700 27.9180
  A 0.75 0.75 0.0 0 0 30.1868 27.2028
  L 28.9280 27.2600
  A 0.75 0.75 0.0 0 0 28.2128 28.0432
  L 28.2700 29.3020
  A 0.75 0.75 0.0 0 0 29.0532 30.0172
  L 30.3120 29.9600
  A 0.75 0.75 0.0 0 0 31.0272 29.1768
  L 30.9700 27.9180
  Z
  M 23.05 31.78
  A 0.73 0.72 -89.0 0 0 22.27 30.96
  L 20.98 31.09
  A 0.71 0.69 -0.6 0 0 20.35 31.72
  Q 20.14 34.02 22.25 33.86
  A 0.65 0.64 -88.3 0 0 22.84 33.30
  L 23.05 31.78
  Z
  M 27.11 32.44
  A 1.55 1.55 0.0 0 0 25.56 30.89
  A 1.55 1.55 0.0 0 0 24.01 32.44
  A 1.55 1.55 0.0 0 0 25.56 33.99
  A 1.55 1.55 0.0 0 0 27.11 32.44
  Z
  M 30.9973 31.9325
  A 0.92 0.92 0.0 0 0 30.0725 31.0173
  L 29.0325 31.0227
  A 0.92 0.92 0.0 0 0 28.1173 31.9475
  L 28.1227 32.9875
  A 0.92 0.92 0.0 0 0 29.0475 33.9027
  L 30.0875 33.8973
  A 0.92 0.92 0.0 0 0 31.0027 32.9725
  L 30.9973 31.9325
  Z
  M 21.03 34.89
  Q 20.91 34.75 20.75 34.75
  A 0.30 0.29 -11.1 0 0 20.48 35.15
  L 21.51 37.81
  A 0.83 0.83 0.0 0 0 23.12 37.51
  L 23.12 35.72
  A 0.71 0.71 0.0 0 0 22.41 35.01
  L 21.26 35.00
  A 0.30 0.29 70.0 0 1 21.03 34.89
  Z
  M 27.31 35.89
  A 0.74 0.74 0.0 0 0 26.55 35.01
  L 25.00 35.09
  A 0.57 0.57 0.0 0 0 24.46 35.71
  Q 24.65 37.74 26.46 37.78
  A 0.59 0.59 0.0 0 0 27.04 37.30
  L 27.31 35.89
  Z
  M 30.65 37.62
  C 32.51 35.23 30.04 34.20 28.55 35.32
  A 0.68 0.68 0.0 0 0 28.43 36.29
  L 29.51 37.63
  A 0.73 0.72 44.4 0 0 30.65 37.62
  Z
  M 22.06 38.69
  L 21.87 38.49
  A 0.11 0.11 0.0 0 0 21.69 38.53
  Q 20.92 40.40 22.65 40.89
  A 0.94 0.94 0.0 0 0 23.84 39.89
  L 23.73 38.84
  A 0.56 0.56 0.0 0 0 22.90 38.41
  L 22.35 38.73
  A 0.24 0.24 0.0 0 1 22.06 38.69
  Z
  M 26.04 38.61
  Q 25.36 38.27 25.09 39.36
  A 0.87 0.86 20.1 0 0 25.56 40.36
  L 26.78 40.91
  A 0.74 0.74 0.0 0 0 27.80 40.47
  C 28.04 39.71 27.58 38.07 26.47 38.61
  A 0.52 0.50 -43.6 0 1 26.04 38.61
  Z
  M 31.8801 40.1878
  A 1.47 1.15 22.3 0 0 30.9564 38.5660
  A 1.47 1.15 22.3 0 0 29.1599 39.0722
  A 1.47 1.15 22.3 0 0 30.0836 40.6940
  A 1.47 1.15 22.3 0 0 31.8801 40.1878
  Z
  M 26.23 43.15
  L 27.94 43.84
  A 0.59 0.59 0.0 0 0 28.76 43.26
  L 28.72 42.27
  A 0.55 0.55 0.0 0 0 28.01 41.77
  L 26.27 42.30
  A 0.45 0.45 0.0 0 0 26.23 43.15
  Z
  M 32.46 43.50
  L 32.81 42.89
  A 0.48 0.47 27.6 0 0 32.60 42.23
  Q 31.67 41.77 30.58 42.06
  Q 29.44 42.37 30.43 43.02
  L 31.52 43.73
  A 0.66 0.66 0.0 0 0 32.46 43.50
  Z"
/>
<path fill="#1b1a19" d="
  M 32.83 30.38
  Q 31.53 28.84 32.60 27.06
  A 0.86 0.85 44.7 0 0 32.59 26.18
  Q 31.70 24.78 32.85 23.76
  A 0.79 0.79 0.0 0 0 33.03 22.85
  Q 32.11 20.94 33.81 19.85
  A 0.54 0.53 -35.8 0 0 33.94 19.08
  L 33.56 18.60
  A 0.65 0.64 -34.9 0 1 33.73 17.65
  L 35.20 16.72
  A 0.51 0.51 0.0 0 0 35.19 15.85
  L 34.73 15.58
  A 0.85 0.85 0.0 0 0 33.77 15.64
  Q 32.15 16.89 30.80 15.44
  A 0.60 0.60 0.0 0 0 29.92 15.44
  Q 28.42 17.04 27.04 15.44
  A 0.55 0.54 -32.7 0 0 26.39 15.30
  L 24.20 16.28
  Q 23.22 16.72 23.54 15.70
  Q 24.32 13.21 26.20 13.12
  C 33.43 12.77 38.41 11.43 41.29 18.10
  Q 47.02 31.38 41.67 44.89
  C 39.94 49.24 33.68 48.36 29.03 48.24
  C 26.46 48.17 24.94 47.02 24.11 44.75
  Q 23.94 44.29 23.61 43.92
  L 22.52 42.71
  Q 21.88 42.01 22.83 42.00
  L 24.19 41.99
  A 0.52 0.52 0.0 0 1 24.71 42.51
  L 24.72 43.38
  A 1.11 1.09 21.2 0 0 25.09 44.20
  L 27.31 46.11
  A 0.42 0.42 0.0 0 0 28.00 45.88
  L 28.31 44.53
  A 0.58 0.58 0.0 0 1 29.28 44.25
  L 31.21 46.18
  A 0.32 0.32 0.0 0 0 31.74 46.07
  L 32.28 44.65
  A 0.45 0.45 0.0 0 1 32.94 44.43
  L 35.23 45.88
  A 0.49 0.48 -67.1 0 0 35.96 45.58
  Q 36.43 43.67 34.44 43.57
  A 0.53 0.53 0.0 0 1 33.98 42.83
  L 34.60 41.43
  A 0.48 0.47 20.5 0 0 34.30 40.79
  L 33.49 40.53
  A 0.77 0.76 18.5 0 1 33.00 39.55
  L 33.41 38.35
  A 0.77 0.77 0.0 0 0 33.16 37.49
  Q 31.69 36.36 32.68 34.80
  A 0.73 0.72 44.6 0 0 32.67 34.00
  C 32.01 33.04 31.54 31.68 32.76 30.90
  A 0.35 0.34 53.6 0 0 32.83 30.38
  Z
  M 37.93 18.31
  A 0.27 0.27 0.0 0 0 37.48 18.53
  Q 37.55 19.50 38.42 20.00
  A 1.38 1.32 6.6 0 1 38.99 20.69
  C 40.93 26.03 42.66 37.28 39.28 42.30
  Q 38.96 42.77 39.53 42.80
  C 42.49 42.95 41.74 28.33 41.64 26.46
  Q 41.38 21.64 37.93 18.31
  Z
  M 37.6673 37.0594
  A 6.38 1.08 86.7 0 0 38.3782 30.6278
  A 6.38 1.08 86.7 0 0 36.9327 24.3206
  A 6.38 1.08 86.7 0 0 36.2218 30.7522
  A 6.38 1.08 86.7 0 0 37.6673 37.0594
  Z"
/>
<ellipse fill="#1b1a19" cx="0.00" cy="0.00" transform="translate(23.28,18.20) rotate(-15.8)" rx="1.49" ry="1.05"/>
<ellipse fill="#1b1a19" cx="0.00" cy="0.00" transform="translate(27.24,18.11) rotate(-10.5)" rx="1.49" ry="1.11"/>
<ellipse fill="#1b1a19" cx="0.00" cy="0.00" transform="translate(31.19,18.16) rotate(-9.6)" rx="1.55" ry="1.07"/>
<path fill="#ffffff" d="
  M 37.93 18.31
  Q 41.38 21.64 41.64 26.46
  C 41.74 28.33 42.49 42.95 39.53 42.80
  Q 38.96 42.77 39.28 42.30
  C 42.66 37.28 40.93 26.03 38.99 20.69
  A 1.38 1.32 6.6 0 0 38.42 20.00
  Q 37.55 19.50 37.48 18.53
  A 0.27 0.27 0.0 0 1 37.93 18.31
  Z"
/>
<rect fill="#1b1a19" x="-1.36" y="-1.36" transform="translate(22.36,21.43) rotate(3.4)" width="2.72" height="2.72" rx="0.82"/>
<ellipse fill="#1b1a19" cx="0.00" cy="0.00" transform="translate(26.26,21.46) rotate(-40.2)" rx="1.60" ry="1.28"/>
<ellipse fill="#1b1a19" cx="0.00" cy="0.00" transform="translate(30.21,21.48) rotate(133.8)" rx="1.61" ry="1.36"/>
<ellipse fill="#1b1a19" cx="0.00" cy="0.00" transform="translate(21.75,24.97) rotate(12.9)" rx="1.35" ry="1.27"/>
<ellipse fill="#1b1a19" cx="0.00" cy="0.00" transform="translate(25.65,25.03) rotate(1.4)" rx="1.48" ry="1.20"/>
<ellipse fill="#1b1a19" cx="0.00" cy="0.00" transform="translate(29.76,24.97) rotate(-13.6)" rx="1.60" ry="1.28"/>
<ellipse fill="#ffffff" cx="0.00" cy="0.00" transform="translate(37.30,30.69) rotate(86.7)" rx="6.38" ry="1.08"/>
<circle fill="#1b1a19" cx="21.61" cy="28.63" r="1.45"/>
<circle fill="#1b1a19" cx="25.55" cy="28.61" r="1.49"/>
<rect fill="#1b1a19" x="-1.38" y="-1.38" transform="translate(29.62,28.61) rotate(-2.6)" width="2.76" height="2.76" rx="0.75"/>
<path fill="#1b1a19" d="
  M 23.05 31.78
  L 22.84 33.30
  A 0.65 0.64 -88.3 0 1 22.25 33.86
  Q 20.14 34.02 20.35 31.72
  A 0.71 0.69 -0.6 0 1 20.98 31.09
  L 22.27 30.96
  A 0.73 0.72 -89.0 0 1 23.05 31.78
  Z"
/>
<circle fill="#1b1a19" cx="25.56" cy="32.44" r="1.55"/>
<rect fill="#1b1a19" x="-1.44" y="-1.44" transform="translate(29.56,32.46) rotate(-0.3)" width="2.88" height="2.88" rx="0.92"/>
<path fill="#1b1a19" d="
  M 21.26 35.00
  L 22.41 35.01
  A 0.71 0.71 0.0 0 1 23.12 35.72
  L 23.12 37.51
  A 0.83 0.83 0.0 0 1 21.51 37.81
  L 20.48 35.15
  A 0.30 0.29 -11.1 0 1 20.75 34.75
  Q 20.91 34.75 21.03 34.89
  A 0.30 0.29 70.0 0 0 21.26 35.00
  Z"
/>
<path fill="#1b1a19" d="
  M 27.31 35.89
  L 27.04 37.30
  A 0.59 0.59 0.0 0 1 26.46 37.78
  Q 24.65 37.74 24.46 35.71
  A 0.57 0.57 0.0 0 1 25.00 35.09
  L 26.55 35.01
  A 0.74 0.74 0.0 0 1 27.31 35.89
  Z"
/>
<path fill="#1b1a19" d="
  M 30.65 37.62
  A 0.73 0.72 44.4 0 1 29.51 37.63
  L 28.43 36.29
  A 0.68 0.68 0.0 0 1 28.55 35.32
  C 30.04 34.20 32.51 35.23 30.65 37.62
  Z"
/>
<path fill="#1b1a19" d="
  M 22.35 38.73
  L 22.90 38.41
  A 0.56 0.56 0.0 0 1 23.73 38.84
  L 23.84 39.89
  A 0.94 0.94 0.0 0 1 22.65 40.89
  Q 20.92 40.40 21.69 38.53
  A 0.11 0.11 0.0 0 1 21.87 38.49
  L 22.06 38.69
  A 0.24 0.24 0.0 0 0 22.35 38.73
  Z"
/>
<path fill="#1b1a19" d="
  M 26.47 38.61
  C 27.58 38.07 28.04 39.71 27.80 40.47
  A 0.74 0.74 0.0 0 1 26.78 40.91
  L 25.56 40.36
  A 0.87 0.86 20.1 0 1 25.09 39.36
  Q 25.36 38.27 26.04 38.61
  A 0.52 0.50 -43.6 0 0 26.47 38.61
  Z"
/>
<ellipse fill="#1b1a19" cx="0.00" cy="0.00" transform="translate(30.52,39.63) rotate(22.3)" rx="1.47" ry="1.15"/>
<path fill="#1b1a19" d="
  M 26.23 43.15
  A 0.45 0.45 0.0 0 1 26.27 42.30
  L 28.01 41.77
  A 0.55 0.55 0.0 0 1 28.72 42.27
  L 28.76 43.26
  A 0.59 0.59 0.0 0 1 27.94 43.84
  L 26.23 43.15
  Z"
/>
<path fill="#1b1a19" d="
  M 32.46 43.50
  A 0.66 0.66 0.0 0 1 31.52 43.73
  L 30.43 43.02
  Q 29.44 42.37 30.58 42.06
  Q 31.67 41.77 32.60 42.23
  A 0.48 0.47 27.6 0 1 32.81 42.89
  L 32.46 43.50
  Z"
/>
</svg>
