<?xml version="1.0" encoding="UTF-8" standalone="no"?>
<!DOCTYPE svg PUBLIC "-//W3C//DTD SVG 1.1//EN" "http://www.w3.org/Graphics/SVG/1.1/DTD/svg11.dtd">
<svg xmlns="http://www.w3.org/2000/svg" version="1.1" viewBox="0 0 63 80">
<g stroke-width="2.00" fill="none" stroke-linecap="butt">
<path stroke="#82bede" vector-effect="non-scaling-stroke" d="
  M 56.76 8.59
  A 0.54 0.54 0.0 0 0 56.22 8.05
  L 8.04 8.05
  A 0.54 0.54 0.0 0 0 7.50 8.59
  L 7.50 54.05
  A 0.54 0.54 0.0 0 0 8.04 54.59
  L 56.22 54.59
  A 0.54 0.54 0.0 0 0 56.76 54.05
  L 56.76 8.59"
/>
<path stroke="#b4b1af" vector-effect="non-scaling-stroke" d="
  M 36.75 35.21
  L 37.71 35.25"
/>
<path stroke="#8f8d8d" vector-effect="non-scaling-stroke" d="
  M 37.71 35.25
  Q 38.25 37.04 40.04 37.43
  A 1.00 0.99 28.8 0 0 40.94 37.17
  L 42.41 35.73
  A 1.44 1.44 0.0 0 1 43.35 35.31
  L 51.49 34.76
  A 0.63 0.63 0.0 0 0 52.08 34.06
  L 50.85 23.60
  A 0.74 0.74 0.0 0 0 50.11 22.94
  L 13.15 22.70
  A 0.74 0.73 -86.5 0 0 12.42 23.35
  Q 11.95 27.67 12.59 31.98
  Q 12.67 32.48 12.58 32.97
  L 12.22 35.12
  Q 12.06 36.07 12.91 35.62
  L 14.38 34.85
  A 0.54 0.53 -24.9 0 1 15.13 35.12
  Q 15.75 36.62 17.26 37.24
  A 1.96 1.96 0.0 0 0 19.76 36.27
  Q 20.61 34.52 19.50 32.83
  A 0.42 0.42 0.0 0 0 18.85 32.77
  L 18.50 33.14
  A 0.36 0.35 45.6 0 0 18.50 33.63
  L 18.85 34.01
  A 0.79 0.79 0.0 0 1 18.95 34.96
  L 18.43 35.82
  A 0.68 0.67 -55.3 0 1 17.43 36.01
  Q 15.98 34.86 17.01 33.56
  Q 17.52 32.92 16.71 32.99
  L 16.28 33.02
  Q 14.70 33.15 16.12 32.44
  Q 17.78 31.62 19.63 32.28
  A 1.22 1.22 0.0 0 1 20.36 32.97
  L 21.22 35.07
  A 0.72 0.71 -11.1 0 0 21.90 35.52
  L 36.75 35.21"
/>
<path stroke="#433f3c" vector-effect="non-scaling-stroke" d="
  M 37.71 35.25
  Q 37.65 34.24 38.28 33.63
  A 0.35 0.35 0.0 0 1 38.85 33.75
  L 39.04 34.25"
/>
<path stroke="#8f8d8d" vector-effect="non-scaling-stroke" d="
  M 39.04 34.25
  Q 38.97 35.19 39.58 35.72
  A 0.93 0.90 55.3 0 0 40.49 35.90
  Q 41.44 35.57 41.25 34.29"
/>
<path stroke="#433f3c" vector-effect="non-scaling-stroke" d="
  M 41.25 34.29
  Q 41.90 34.20 42.38 33.88
  A 0.55 0.54 56.0 0 0 42.52 33.13
  C 40.68 30.39 37.16 32.51 36.75 35.21"
/>
<path stroke="#b4b1af" vector-effect="non-scaling-stroke" d="
  M 41.25 34.29
  Q 40.18 33.19 39.04 34.25"
/>
<path stroke="#8f8d8d" vector-effect="non-scaling-stroke" d="
  M 27.7615 23.6854
  A 0.26 0.26 0.0 0 0 27.4874 23.4403
  L 21.6166 23.7685
  A 0.26 0.26 0.0 0 0 21.3715 24.0426
  L 21.6585 29.1746
  A 0.26 0.26 0.0 0 0 21.9326 29.4197
  L 27.8034 29.0915
  A 0.26 0.26 0.0 0 0 28.0485 28.8174
  L 27.7615 23.6854"
/>
<path stroke="#8f8d8d" vector-effect="non-scaling-stroke" d="
  M 35.11 28.26
  L 34.66 24.02
  A 0.56 0.55 87.1 0 0 34.11 23.52
  L 29.25 23.49
  A 0.70 0.70 0.0 0 0 28.55 24.26
  L 29.01 28.65
  A 0.65 0.64 87.0 0 0 29.65 29.23
  L 41.81 29.23
  A 0.67 0.67 0.0 0 0 42.47 28.44
  L 41.74 24.33
  A 0.72 0.72 0.0 0 0 41.07 23.74
  L 36.30 23.44
  A 0.68 0.67 -86.1 0 0 35.59 24.07
  C 35.53 25.01 36.17 27.93 35.95 28.38
  Q 35.27 29.76 35.11 28.26"
/>
<path stroke="#8f8d8d" vector-effect="non-scaling-stroke" d="
  M 20.6560 23.9931
  A 0.27 0.27 0.0 0 0 20.3814 23.7279
  L 14.3623 23.8330
  A 0.27 0.27 0.0 0 0 14.0970 24.1076
  L 14.1840 29.0869
  A 0.27 0.27 0.0 0 0 14.4586 29.3521
  L 20.4777 29.2470
  A 0.27 0.27 0.0 0 0 20.7430 28.9724
  L 20.6560 23.9931"
/>
<path stroke="#8f8d8d" vector-effect="non-scaling-stroke" d="
  M 49.5120 23.8867
  A 0.26 0.26 0.0 0 0 49.2422 23.6369
  L 43.2466 23.8672
  A 0.26 0.26 0.0 0 0 42.9968 24.1370
  L 43.1880 29.1133
  A 0.26 0.26 0.0 0 0 43.4578 29.3631
  L 49.4534 29.1328
  A 0.26 0.26 0.0 0 0 49.7032 28.8630
  L 49.5120 23.8867"
/>
</g>
<path fill="#000000" fill-opacity="0.004" d="
  M 0.00 0.00
  L 63.00 0.00
  L 63.00 6.56
  Q 62.75 3.19 60.13 1.31
  A 1.58 1.57 62.5 0 0 59.22 1.02
  Q 33.54 0.97 7.86 1.01
  C 4.07 1.02 1.01 2.43 1.01 6.50
  Q 1.00 39.62 0.98 72.75
  Q 0.98 76.75 4.09 78.96
  A 1.58 1.57 62.5 0 0 5.00 79.25
  L 59.88 79.25
  Q 61.80 79.24 62.20 77.37
  L 63.00 73.56
  L 63.00 80.00
  L 0.00 80.00
  L 0.00 0.00
  Z"
/>
<path fill="#047cbd" d="
  M 63.00 6.56
  L 63.00 73.56
  L 62.20 77.37
  Q 61.80 79.24 59.88 79.25
  L 5.00 79.25
  A 1.58 1.57 62.5 0 1 4.09 78.96
  Q 0.98 76.75 0.98 72.75
  Q 1.00 39.62 1.01 6.50
  C 1.01 2.43 4.07 1.02 7.86 1.01
  Q 33.54 0.97 59.22 1.02
  A 1.58 1.57 62.5 0 1 60.13 1.31
  Q 62.75 3.19 63.00 6.56
  Z
  M 56.76 8.59
  A 0.54 0.54 0.0 0 0 56.22 8.05
  L 8.04 8.05
  A 0.54 0.54 0.0 0 0 7.50 8.59
  L 7.50 54.05
  A 0.54 0.54 0.0 0 0 8.04 54.59
  L 56.22 54.59
  A 0.54 0.54 0.0 0 0 56.76 54.05
  L 56.76 8.59
  Z"
/>
<path fill="#ffffff" d="
  M 56.76 54.05
  A 0.54 0.54 0.0 0 1 56.22 54.59
  L 8.04 54.59
  A 0.54 0.54 0.0 0 1 7.50 54.05
  L 7.50 8.59
  A 0.54 0.54 0.0 0 1 8.04 8.05
  L 56.22 8.05
  A 0.54 0.54 0.0 0 1 56.76 8.59
  L 56.76 54.05
  Z
  M 36.75 35.21
  L 37.71 35.25
  Q 38.25 37.04 40.04 37.43
  A 1.00 0.99 28.8 0 0 40.94 37.17
  L 42.41 35.73
  A 1.44 1.44 0.0 0 1 43.35 35.31
  L 51.49 34.76
  A 0.63 0.63 0.0 0 0 52.08 34.06
  L 50.85 23.60
  A 0.74 0.74 0.0 0 0 50.11 22.94
  L 13.15 22.70
  A 0.74 0.73 -86.5 0 0 12.42 23.35
  Q 11.95 27.67 12.59 31.98
  Q 12.67 32.48 12.58 32.97
  L 12.22 35.12
  Q 12.06 36.07 12.91 35.62
  L 14.38 34.85
  A 0.54 0.53 -24.9 0 1 15.13 35.12
  Q 15.75 36.62 17.26 37.24
  A 1.96 1.96 0.0 0 0 19.76 36.27
  Q 20.61 34.52 19.50 32.83
  A 0.42 0.42 0.0 0 0 18.85 32.77
  L 18.50 33.14
  A 0.36 0.35 45.6 0 0 18.50 33.63
  L 18.85 34.01
  A 0.79 0.79 0.0 0 1 18.95 34.96
  L 18.43 35.82
  A 0.68 0.67 -55.3 0 1 17.43 36.01
  Q 15.98 34.86 17.01 33.56
  Q 17.52 32.92 16.71 32.99
  L 16.28 33.02
  Q 14.70 33.15 16.12 32.44
  Q 17.78 31.62 19.63 32.28
  A 1.22 1.22 0.0 0 1 20.36 32.97
  L 21.22 35.07
  A 0.72 0.71 -11.1 0 0 21.90 35.52
  L 36.75 35.21
  Z"
/>
<path fill="#1e1b1a" d="
  M 37.71 35.25
  Q 37.65 34.24 38.28 33.63
  A 0.35 0.35 0.0 0 1 38.85 33.75
  L 39.04 34.25
  Q 38.97 35.19 39.58 35.72
  A 0.93 0.90 55.3 0 0 40.49 35.90
  Q 41.44 35.57 41.25 34.29
  Q 41.90 34.20 42.38 33.88
  A 0.55 0.54 56.0 0 0 42.52 33.13
  C 40.68 30.39 37.16 32.51 36.75 35.21
  L 21.90 35.52
  A 0.72 0.71 -11.1 0 1 21.22 35.07
  L 20.36 32.97
  A 1.22 1.22 0.0 0 0 19.63 32.28
  Q 17.78 31.62 16.12 32.44
  Q 14.70 33.15 16.28 33.02
  L 16.71 32.99
  Q 17.52 32.92 17.01 33.56
  Q 15.98 34.86 17.43 36.01
  A 0.68 0.67 -55.3 0 0 18.43 35.82
  L 18.95 34.96
  A 0.79 0.79 0.0 0 0 18.85 34.01
  L 18.50 33.63
  A 0.36 0.35 45.6 0 1 18.50 33.14
  L 18.85 32.77
  A 0.42 0.42 0.0 0 1 19.50 32.83
  Q 20.61 34.52 19.76 36.27
  A 1.96 1.96 0.0 0 1 17.26 37.24
  Q 15.75 36.62 15.13 35.12
  A 0.54 0.53 -24.9 0 0 14.38 34.85
  L 12.91 35.62
  Q 12.06 36.07 12.22 35.12
  L 12.58 32.97
  Q 12.67 32.48 12.59 31.98
  Q 11.95 27.67 12.42 23.35
  A 0.74 0.73 -86.5 0 1 13.15 22.70
  L 50.11 22.94
  A 0.74 0.74 0.0 0 1 50.85 23.60
  L 52.08 34.06
  A 0.63 0.63 0.0 0 1 51.49 34.76
  L 43.35 35.31
  A 1.44 1.44 0.0 0 0 42.41 35.73
  L 40.94 37.17
  A 1.00 0.99 28.8 0 1 40.04 37.43
  Q 38.25 37.04 37.71 35.25
  Z
  M 27.7615 23.6854
  A 0.26 0.26 0.0 0 0 27.4874 23.4403
  L 21.6166 23.7685
  A 0.26 0.26 0.0 0 0 21.3715 24.0426
  L 21.6585 29.1746
  A 0.26 0.26 0.0 0 0 21.9326 29.4197
  L 27.8034 29.0915
  A 0.26 0.26 0.0 0 0 28.0485 28.8174
  L 27.7615 23.6854
  Z
  M 35.11 28.26
  L 34.66 24.02
  A 0.56 0.55 87.1 0 0 34.11 23.52
  L 29.25 23.49
  A 0.70 0.70 0.0 0 0 28.55 24.26
  L 29.01 28.65
  A 0.65 0.64 87.0 0 0 29.65 29.23
  L 41.81 29.23
  A 0.67 0.67 0.0 0 0 42.47 28.44
  L 41.74 24.33
  A 0.72 0.72 0.0 0 0 41.07 23.74
  L 36.30 23.44
  A 0.68 0.67 -86.1 0 0 35.59 24.07
  C 35.53 25.01 36.17 27.93 35.95 28.38
  Q 35.27 29.76 35.11 28.26
  Z
  M 20.6560 23.9931
  A 0.27 0.27 0.0 0 0 20.3814 23.7279
  L 14.3623 23.8330
  A 0.27 0.27 0.0 0 0 14.0970 24.1076
  L 14.1840 29.0869
  A 0.27 0.27 0.0 0 0 14.4586 29.3521
  L 20.4777 29.2470
  A 0.27 0.27 0.0 0 0 20.7430 28.9724
  L 20.6560 23.9931
  Z
  M 49.5120 23.8867
  A 0.26 0.26 0.0 0 0 49.2422 23.6369
  L 43.2466 23.8672
  A 0.26 0.26 0.0 0 0 42.9968 24.1370
  L 43.1880 29.1133
  A 0.26 0.26 0.0 0 0 43.4578 29.3631
  L 49.4534 29.1328
  A 0.26 0.26 0.0 0 0 49.7032 28.8630
  L 49.5120 23.8867
  Z"
/>
<rect fill="#ffffff" x="-3.20" y="-2.83" transform="translate(24.71,26.43) rotate(-3.2)" width="6.40" height="5.66" rx="0.26"/>
<path fill="#ffffff" d="
  M 35.95 28.38
  C 36.17 27.93 35.53 25.01 35.59 24.07
  A 0.68 0.67 -86.1 0 1 36.30 23.44
  L 41.07 23.74
  A 0.72 0.72 0.0 0 1 41.74 24.33
  L 42.47 28.44
  A 0.67 0.67 0.0 0 1 41.81 29.23
  L 29.65 29.23
  A 0.65 0.64 87.0 0 1 29.01 28.65
  L 28.55 24.26
  A 0.70 0.70 0.0 0 1 29.25 23.49
  L 34.11 23.52
  A 0.56 0.55 87.1 0 1 34.66 24.02
  L 35.11 28.26
  Q 35.27 29.76 35.95 28.38
  Z"
/>
<rect fill="#ffffff" x="-3.28" y="-2.76" transform="translate(17.42,26.54) rotate(-1.0)" width="6.56" height="5.52" rx="0.27"/>
<rect fill="#ffffff" x="-3.26" y="-2.75" transform="translate(46.35,26.50) rotate(-2.2)" width="6.52" height="5.50" rx="0.26"/>
<path fill="#68635e" d="
  M 41.25 34.29
  Q 40.18 33.19 39.04 34.25
  L 38.85 33.75
  A 0.35 0.35 0.0 0 0 38.28 33.63
  Q 37.65 34.24 37.71 35.25
  L 36.75 35.21
  C 37.16 32.51 40.68 30.39 42.52 33.13
  A 0.55 0.54 56.0 0 1 42.38 33.88
  Q 41.90 34.20 41.25 34.29
  Z"
/>
<path fill="#ffffff" d="
  M 41.25 34.29
  Q 41.44 35.57 40.49 35.90
  A 0.93 0.90 55.3 0 1 39.58 35.72
  Q 38.97 35.19 39.04 34.25
  Q 40.18 33.19 41.25 34.29
  Z"
/>
</svg>
