<?xml version="1.0" encoding="UTF-8" standalone="no"?>
<!DOCTYPE svg PUBLIC "-//W3C//DTD SVG 1.1//EN" "http://www.w3.org/Graphics/SVG/1.1/DTD/svg11.dtd">
<svg xmlns="http://www.w3.org/2000/svg" version="1.1" viewBox="0 0 64 81">
<g stroke-width="2.00" fill="none" stroke-linecap="butt">
<path stroke="#82bedf" vector-effect="non-scaling-stroke" d="
  M 56.7797 9.0170
  A 0.31 0.31 0.0 0 0 56.4692 8.7075
  L 7.7693 8.7925
  A 0.31 0.31 0.0 0 0 7.4598 9.1031
  L 7.5403 55.2030
  A 0.31 0.31 0.0 0 0 7.8508 55.5125
  L 56.5507 55.4275
  A 0.31 0.31 0.0 0 0 56.8602 55.1169
  L 56.7797 9.0170"
/>
<path stroke="#e99490" vector-effect="non-scaling-stroke" d="
  M 39.35 26.20
  A 0.39 0.39 0.0 0 1 38.97 25.82
  L 38.67 15.60
  A 0.39 0.39 0.0 0 0 38.28 15.22
  L 26.12 15.36
  A 0.39 0.39 0.0 0 0 25.73 15.74
  L 25.56 25.87
  A 0.39 0.39 0.0 0 1 25.17 26.25
  L 14.99 26.25
  A 0.39 0.39 0.0 0 0 14.60 26.64
  L 14.68 39.11
  A 0.39 0.39 0.0 0 0 15.07 39.50
  L 25.22 39.50
  A 0.39 0.39 0.0 0 1 25.61 39.88
  L 25.80 50.12
  A 0.39 0.39 0.0 0 0 26.19 50.50
  L 38.33 50.50
  A 0.39 0.39 0.0 0 0 38.72 50.11
  L 38.85 39.89
  A 0.39 0.39 0.0 0 1 39.24 39.50
  L 49.33 39.50
  A 0.39 0.39 0.0 0 0 49.72 39.11
  L 49.80 26.77
  A 0.39 0.39 0.0 0 0 49.41 26.37
  L 39.35 26.20"
/>
</g>
<path fill="#057cbe" d="
  M 63.3109 75.6756
  A 4.75 4.75 0.0 0 1 58.5692 80.4339
  L 5.8492 80.5259
  A 4.75 4.75 0.0 0 1 1.0910 75.7842
  L 0.9691 5.9844
  A 4.75 4.75 0.0 0 1 5.7108 1.2261
  L 58.4308 1.1341
  A 4.75 4.75 0.0 0 1 63.1890 5.8758
  L 63.3109 75.6756
  Z
  M 56.7797 9.0170
  A 0.31 0.31 0.0 0 0 56.4692 8.7075
  L 7.7693 8.7925
  A 0.31 0.31 0.0 0 0 7.4598 9.1031
  L 7.5403 55.2030
  A 0.31 0.31 0.0 0 0 7.8508 55.5125
  L 56.5507 55.4275
  A 0.31 0.31 0.0 0 0 56.8602 55.1169
  L 56.7797 9.0170
  Z"
/>
<path fill="#ffffff" d="
  M 56.8602 55.1169
  A 0.31 0.31 0.0 0 1 56.5507 55.4275
  L 7.8508 55.5125
  A 0.31 0.31 0.0 0 1 7.5403 55.2030
  L 7.4598 9.1031
  A 0.31 0.31 0.0 0 1 7.7693 8.7925
  L 56.4692 8.7075
  A 0.31 0.31 0.0 0 1 56.7797 9.0170
  L 56.8602 55.1169
  Z
  M 39.35 26.20
  A 0.39 0.39 0.0 0 1 38.97 25.82
  L 38.67 15.60
  A 0.39 0.39 0.0 0 0 38.28 15.22
  L 26.12 15.36
  A 0.39 0.39 0.0 0 0 25.73 15.74
  L 25.56 25.87
  A 0.39 0.39 0.0 0 1 25.17 26.25
  L 14.99 26.25
  A 0.39 0.39 0.0 0 0 14.60 26.64
  L 14.68 39.11
  A 0.39 0.39 0.0 0 0 15.07 39.50
  L 25.22 39.50
  A 0.39 0.39 0.0 0 1 25.61 39.88
  L 25.80 50.12
  A 0.39 0.39 0.0 0 0 26.19 50.50
  L 38.33 50.50
  A 0.39 0.39 0.0 0 0 38.72 50.11
  L 38.85 39.89
  A 0.39 0.39 0.0 0 1 39.24 39.50
  L 49.33 39.50
  A 0.39 0.39 0.0 0 0 49.72 39.11
  L 49.80 26.77
  A 0.39 0.39 0.0 0 0 49.41 26.37
  L 39.35 26.20
  Z"
/>
<path fill="#d22820" d="
  M 39.35 26.20
  L 49.41 26.37
  A 0.39 0.39 0.0 0 1 49.80 26.77
  L 49.72 39.11
  A 0.39 0.39 0.0 0 1 49.33 39.50
  L 39.24 39.50
  A 0.39 0.39 0.0 0 0 38.85 39.89
  L 38.72 50.11
  A 0.39 0.39 0.0 0 1 38.33 50.50
  L 26.19 50.50
  A 0.39 0.39 0.0 0 1 25.80 50.12
  L 25.61 39.88
  A 0.39 0.39 0.0 0 0 25.22 39.50
  L 15.07 39.50
  A 0.39 0.39 0.0 0 1 14.68 39.11
  L 14.60 26.64
  A 0.39 0.39 0.0 0 1 14.99 26.25
  L 25.17 26.25
  A 0.39 0.39 0.0 0 0 25.56 25.87
  L 25.73 15.74
  A 0.39 0.39 0.0 0 1 26.12 15.36
  L 38.28 15.22
  A 0.39 0.39 0.0 0 1 38.67 15.60
  L 38.97 25.82
  A 0.39 0.39 0.0 0 0 39.35 26.20
  Z"
/>
</svg>
