<?xml version="1.0" encoding="UTF-8" standalone="no"?>
<!DOCTYPE svg PUBLIC "-//W3C//DTD SVG 1.1//EN" "http://www.w3.org/Graphics/SVG/1.1/DTD/svg11.dtd">
<svg xmlns="http://www.w3.org/2000/svg" version="1.1" viewBox="0 0 370 807">
<g stroke-width="2.00" fill="none" stroke-linecap="butt">
<path stroke="#aaa462" vector-effect="non-scaling-stroke" d="
  M 306.96 148.25
  Q 304.77 145.79 301.50 145.46"
/>
<path stroke="#40557f" vector-effect="non-scaling-stroke" d="
  M 301.50 145.46
  L 301.43 136.07
  A 0.97 0.96 -73.6 0 0 301.01 135.29
  C 231.95 87.65 127.24 88.15 58.00 135.25
  A 0.95 0.93 74.3 0 0 57.58 136.02
  L 57.37 145.26"
/>
<path stroke="#aaa462" vector-effect="non-scaling-stroke" d="
  M 57.37 145.26
  Q 54.13 146.20 52.00 148.29"
/>
<path stroke="#958d45" vector-effect="non-scaling-stroke" d="
  M 301.50 145.46
  Q 298.17 145.50 296.92 147.42
  Q 289.44 158.91 300.99 165.16"
/>
<path stroke="#323b4d" vector-effect="non-scaling-stroke" d="
  M 300.73 175.77
  Q 298.30 176.33 297.19 177.72"
/>
<path stroke="#392e31" vector-effect="non-scaling-stroke" d="
  M 297.19 177.72
  Q 286.06 184.75 274.43 190.62"
/>
<path stroke="#323b4d" vector-effect="non-scaling-stroke" d="
  M 274.43 190.62
  L 271.25 192.04"
/>
<path stroke="#938a95" vector-effect="non-scaling-stroke" d="
  M 271.25 192.04
  Q 257.77 197.71 243.74 201.81
  C 241.87 202.36 239.39 203.62 237.03 203.96
  Q 232.72 204.58 232.64 204.60
  Q 178.86 216.23 125.13 204.34
  Q 124.40 204.17 122.37 204.00
  C 120.21 203.81 117.42 202.42 116.13 202.06
  Q 99.89 197.49 84.59 190.41"
/>
<path stroke="#323b4d" vector-effect="non-scaling-stroke" d="
  M 84.59 190.41
  Q 72.32 184.72 61.19 177.06
  C 60.11 176.32 59.03 176.25 57.79 176.00"
/>
<path stroke="#958d45" vector-effect="non-scaling-stroke" d="
  M 56.75 165.54
  Q 63.72 164.16 64.73 157.01
  Q 66.06 147.61 57.37 145.26"
/>
<path stroke="#f1c7a7" vector-effect="non-scaling-stroke" d="
  M 220.00 362.54
  Q 217.42 364.01 214.58 364.87
  Q 176.38 376.34 139.05 362.86"
/>
<path stroke="#9a8881" vector-effect="non-scaling-stroke" d="
  M 84.59 190.41
  C 79.22 210.49 79.64 227.03 79.98 250.43
  Q 80.05 255.36 77.62 262.75
  Q 77.46 263.24 77.32 262.74
  Q 76.64 260.24 75.69 255.02
  C 73.72 244.22 65.68 225.97 54.25 220.96"
/>
<path stroke="#9a8881" vector-effect="non-scaling-stroke" d="
  M 304.70 220.70
  C 290.78 222.44 282.63 241.66 280.79 253.63
  A 0.45 0.44 22.2 0 1 280.09 253.92
  Q 275.84 250.84 276.10 245.24
  C 276.96 226.50 277.16 210.12 271.25 192.04"
/>
<path stroke="#402b1d" vector-effect="non-scaling-stroke" d="
  M 274.43 190.62
  Q 284.39 192.64 293.57 189.08
  Q 296.14 188.08 297.20 186.09
  Q 299.31 182.10 297.19 177.72"
/>
<path stroke="#9d9191" vector-effect="non-scaling-stroke" d="
  M 220.54 366.00
  C 216.97 395.31 175.89 394.87 156.24 386.49
  Q 141.24 380.09 138.21 365.25"
/>
<path stroke="#aaa462" vector-effect="non-scaling-stroke" d="
  M 224.50 372.96
  L 224.03 373.01
  A 0.92 0.90 -78.4 0 0 223.33 373.48
  L 202.44 411.92"
/>
<path stroke="#40557f" vector-effect="non-scaling-stroke" d="
  M 202.44 411.92
  Q 192.70 401.71 181.66 393.10
  A 1.81 1.80 -45.7 0 0 179.42 393.13
  L 155.75 412.29"
/>
<path stroke="#aaa462" vector-effect="non-scaling-stroke" d="
  M 155.75 412.29
  L 134.48 373.40
  A 0.29 0.28 79.0 0 0 134.27 373.25
  L 134.00 373.21"
/>
<path stroke="#aaa462" vector-effect="non-scaling-stroke" d="
  M 242.50 388.79
  Q 245.57 393.17 248.87 397.38
  C 258.02 409.06 264.54 422.30 269.79 436.48
  Q 273.35 446.12 275.18 453.08"
/>
<path stroke="#ffee94" vector-effect="non-scaling-stroke" d="
  M 283.61 497.25
  Q 282.08 497.42 280.73 497.96
  Q 260.48 506.01 185.73 535.44
  Q 185.40 535.56 184.29 535.50"
/>
<path stroke="#958d45" vector-effect="non-scaling-stroke" d="
  M 184.29 535.50
  L 178.97 460.06
  Q 178.94 459.54 178.90 460.06
  L 173.55 536.07"
/>
<path stroke="#ffee94" vector-effect="non-scaling-stroke" d="
  M 173.55 536.07
  L 140.50 523.21"
/>
<path stroke="#fdda79" vector-effect="non-scaling-stroke" d="
  M 140.50 523.21
  Q 148.07 519.57 146.53 511.25
  Q 145.11 503.59 144.95 497.52
  A 1.64 1.64 0.0 0 1 145.21 496.60
  Q 149.26 490.28 147.94 483.06
  Q 145.55 469.98 147.52 457.69
  C 148.49 451.65 142.32 443.08 140.77 437.82
  C 139.29 432.79 138.84 426.82 136.89 422.55
  C 130.86 409.37 118.68 404.67 104.90 404.98
  A 1.05 1.03 -24.0 0 1 104.22 404.73
  L 103.96 404.50"
/>
<path stroke="#aaa462" vector-effect="non-scaling-stroke" d="
  M 103.96 404.50
  L 109.25 396.54"
/>
<path stroke="#958d45" vector-effect="non-scaling-stroke" d="
  M 155.75 412.29
  L 178.67 454.65
  Q 178.94 455.15 179.22 454.65
  L 202.44 411.92"
/>
<path stroke="#ffee94" vector-effect="non-scaling-stroke" d="
  M 284.29 516.75
  Q 284.28 517.30 283.94 517.44
  Q 241.60 534.48 185.75 556.04"
/>
<path stroke="#a8a2b3" vector-effect="non-scaling-stroke" d="
  M 103.96 404.50
  L 103.73 404.63
  Q 103.53 404.76 103.29 404.78
  C 74.57 407.15 23.27 426.65 22.90 462.40
  Q 22.61 490.69 41.31 512.47
  Q 45.21 517.01 49.00 521.71"
/>
<path stroke="#ffee94" vector-effect="non-scaling-stroke" d="
  M 172.21 555.75
  L 92.61 524.46"
/>
<path stroke="#fdebe4" vector-effect="non-scaling-stroke" d="
  M 140.50 523.21
  C 129.96 524.45 119.99 522.46 109.61 521.43
  Q 102.06 520.68 100.90 520.78
  Q 96.29 521.18 92.61 524.46"
/>
<path stroke="#fdda79" vector-effect="non-scaling-stroke" d="
  M 92.61 524.46
  Q 88.17 529.92 88.53 537.01
  A 0.93 0.88 17.8 0 0 88.90 537.69
  L 89.25 537.96"
/>
<path stroke="#fdebe4" vector-effect="non-scaling-stroke" d="
  M 89.25 537.96
  L 88.94 538.20
  A 0.87 0.87 0.0 0 0 88.58 538.96
  Q 89.14 549.06 91.02 558.88"
/>
<path stroke="#fdda79" vector-effect="non-scaling-stroke" d="
  M 91.02 558.88
  C 91.25 564.35 91.99 582.07 88.75 585.96"
/>
<path stroke="#959eb0" vector-effect="non-scaling-stroke" d="
  M 184.29 535.50
  Q 184.24 545.83 185.75 556.04"
/>
<path stroke="#958d45" vector-effect="non-scaling-stroke" d="
  M 185.75 556.04
  L 186.62 569.92"
/>
<path stroke="#959eb0" vector-effect="non-scaling-stroke" d="
  M 186.62 569.92
  Q 186.63 579.81 188.00 590.04"
/>
<path stroke="#958d45" vector-effect="non-scaling-stroke" d="
  M 188.00 590.04
  L 188.04 592.25"
/>
<path stroke="#40557f" vector-effect="non-scaling-stroke" d="
  M 188.04 592.25
  Q 185.50 595.34 181.73 596.66
  A 1.33 1.30 45.6 0 1 180.79 596.64
  Q 174.66 594.16 170.23 588.97"
/>
<path stroke="#959eb0" vector-effect="non-scaling-stroke" d="
  M 170.23 588.97
  L 171.21 569.75"
/>
<path stroke="#958d45" vector-effect="non-scaling-stroke" d="
  M 171.21 569.75
  L 172.21 555.75"
/>
<path stroke="#959eb0" vector-effect="non-scaling-stroke" d="
  M 172.21 555.75
  L 173.55 536.07"
/>
<path stroke="#a8a2b3" vector-effect="non-scaling-stroke" d="
  M 349.93 570.06
  Q 332.74 572.08 315.59 574.47
  C 315.03 574.54 314.75 574.39 314.25 574.21"
/>
<path stroke="#ffee94" vector-effect="non-scaling-stroke" d="
  M 285.59 530.96
  C 280.06 532.75 273.21 535.83 269.52 537.28
  Q 228.06 553.59 186.62 569.92"
/>
<path stroke="#ffee94" vector-effect="non-scaling-stroke" d="
  M 171.21 569.75
  L 170.86 569.87
  A 1.01 0.99 -43.5 0 1 170.15 569.86
  L 89.25 537.96"
/>
<path stroke="#aaa462" vector-effect="non-scaling-stroke" d="
  M 169.71 589.75
  L 168.79 607.75"
/>
<path stroke="#958d45" vector-effect="non-scaling-stroke" d="
  M 168.79 607.75
  Q 167.57 617.20 167.56 626.42
  A 0.66 0.66 0.0 0 1 166.59 627.01
  L 141.50 613.71"
/>
<path stroke="#93832b" vector-effect="non-scaling-stroke" d="
  M 141.50 613.71
  L 93.00 587.79"
/>
<path stroke="#aab6ce" vector-effect="non-scaling-stroke" d="
  M 170.23 588.97
  L 169.71 589.75"
/>
<path stroke="#ffee94" vector-effect="non-scaling-stroke" d="
  M 169.71 589.75
  L 91.02 558.88"
/>
<path stroke="#40557f" vector-effect="non-scaling-stroke" d="
  M 170.00 607.79
  L 168.79 607.75"
/>
<path stroke="#ffee94" vector-effect="non-scaling-stroke" d="
  M 286.91 552.98
  Q 280.83 553.47 272.06 557.07
  Q 254.11 564.43 188.00 590.04"
/>
<path stroke="#93832b" vector-effect="non-scaling-stroke" d="
  M 265.96 587.25
  L 216.75 613.54"
/>
<path stroke="#958d45" vector-effect="non-scaling-stroke" d="
  M 216.75 613.54
  L 191.19 627.04
  A 0.44 0.44 0.0 0 1 190.54 626.69
  L 189.93 619.98
  Q 189.87 619.29 189.46 619.85
  C 186.79 623.44 179.73 622.26 175.74 622.25
  C 168.94 622.22 168.84 619.03 168.90 613.09
  Q 168.93 610.37 170.00 607.79"
/>
<path stroke="#aaa462" vector-effect="non-scaling-stroke" d="
  M 170.00 607.79
  C 172.42 604.94 181.93 605.98 185.58 606.02
  C 186.90 606.03 187.64 606.63 188.72 607.22
  Q 189.16 607.47 189.13 606.96
  L 188.04 592.25"
/>
<path stroke="#293348" vector-effect="non-scaling-stroke" d="
  M 235.57 761.22
  Q 206.11 771.16 189.34 796.33
  Q 188.99 796.86 188.58 796.96
  A 0.47 0.46 80.0 0 1 188.00 796.55
  L 187.96 796.00"
/>
<path stroke="#293348" vector-effect="non-scaling-stroke" d="
  M 171.71 798.50
  L 171.27 798.58
  A 0.49 0.48 68.0 0 1 170.76 798.36
  Q 154.46 772.15 125.25 761.71"
/>
<path stroke="#40557f" vector-effect="non-scaling-stroke" d="
  M 125.25 761.71
  Q 125.08 760.66 124.04 760.75"
/>
<path stroke="#293348" vector-effect="non-scaling-stroke" d="
  M 141.50 613.71
  C 137.45 613.91 131.15 611.74 123.97 609.11
  Q 107.02 602.91 93.04 591.76"
/>
<path stroke="#293348" vector-effect="non-scaling-stroke" d="
  M 266.05 592.07
  Q 249.12 604.94 228.75 611.26
  Q 223.49 612.88 218.17 614.35
  C 217.41 614.56 216.98 614.23 216.75 613.54"
/>
<path stroke="#3d4b65" vector-effect="non-scaling-stroke" d="
  M 123.50 761.04
  L 123.40 761.38
  A 0.40 0.39 -71.6 0 0 123.63 761.85
  Q 124.42 762.17 125.25 761.71"
/>
<path stroke="#aaa462" vector-effect="non-scaling-stroke" d="
  M 154.42 62.13
  C 151.59 72.23 169.92 81.55 177.52 83.16
  Q 179.50 83.58 181.45 83.07
  Q 192.85 80.10 200.84 71.61
  C 204.73 67.46 204.79 64.34 203.00 58.79
  C 201.55 54.31 200.21 49.76 198.65 45.32
  Q 196.15 38.22 199.77 31.56
  A 3.25 3.24 -39.4 0 0 200.02 29.06
  C 199.42 27.12 197.98 27.24 196.31 27.84
  Q 178.93 34.13 161.25 27.58
  A 2.58 2.55 -51.5 0 0 158.92 27.86
  C 157.19 29.04 159.52 33.84 160.08 35.44
  C 162.34 41.88 156.30 55.37 154.42 62.13"
/>
<path stroke="#9a8881" vector-effect="non-scaling-stroke" d="
  M 208.25 226.46
  L 208.52 226.50
  A 0.19 0.19 0.0 0 1 208.68 226.73
  C 207.67 233.03 209.08 243.39 215.87 246.48
  C 220.61 248.64 224.72 244.43 226.29 240.32
  Q 230.93 228.14 224.46 217.25"
/>
<path stroke="#a17b65" vector-effect="non-scaling-stroke" d="
  M 224.46 217.25
  L 224.50 216.99
  A 0.32 0.31 -4.8 0 1 224.72 216.74
  Q 231.90 214.32 239.31 216.00
  C 243.26 216.90 248.75 212.80 243.48 210.91
  C 229.03 205.72 203.65 212.87 196.00 226.83
  Q 194.68 229.24 197.04 230.65
  C 202.46 233.88 204.81 229.62 208.25 226.46"
/>
<path stroke="#402b1d" vector-effect="non-scaling-stroke" d="
  M 224.46 217.25
  L 223.71 217.50"
/>
<path stroke="#a38f80" vector-effect="non-scaling-stroke" d="
  M 223.71 217.50
  Q 218.38 218.55 214.00 221.79"
/>
<path stroke="#402b1d" vector-effect="non-scaling-stroke" d="
  M 214.00 221.79
  Q 210.81 223.71 208.25 226.46"
/>
<path stroke="#9c9c9c" vector-effect="non-scaling-stroke" d="
  M 214.00 221.79
  C 214.44 233.30 231.26 227.37 223.71 217.50"
/>
<path stroke="#9a8881" vector-effect="non-scaling-stroke" d="
  M 133.07 219.57
  Q 128.84 229.98 132.73 240.02
  C 136.79 250.50 146.68 248.38 149.46 238.72
  Q 151.08 233.10 150.75 226.71"
/>
<path stroke="#a17b65" vector-effect="non-scaling-stroke" d="
  M 150.75 226.71
  C 154.46 229.64 158.07 232.97 162.34 228.31
  Q 164.02 226.48 162.31 224.68
  C 150.11 211.80 129.82 209.78 113.64 215.47
  Q 110.40 216.61 111.86 219.71
  C 112.74 221.60 116.28 221.37 118.29 220.57
  Q 125.44 217.72 133.07 219.57"
/>
<path stroke="#402b1d" vector-effect="non-scaling-stroke" d="
  M 150.75 226.71
  L 147.54 224.75"
/>
<path stroke="#a38f80" vector-effect="non-scaling-stroke" d="
  M 147.54 224.75
  Q 142.52 221.29 136.50 220.29"
/>
<path stroke="#402b1d" vector-effect="non-scaling-stroke" d="
  M 136.50 220.29
  Q 134.90 219.56 133.07 219.57"
/>
<path stroke="#9c9c9c" vector-effect="non-scaling-stroke" d="
  M 136.50 220.29
  C 135.13 227.90 144.24 231.13 147.54 224.75"
/>
<path stroke="#f1c7a7" vector-effect="non-scaling-stroke" d="
  M 160.63 275.76
  C 171.11 284.05 187.09 283.03 198.02 276.45
  A 1.63 1.63 0.0 0 0 198.44 274.01
  Q 197.15 272.46 194.33 273.68
  Q 179.61 280.06 165.08 273.64
  C 163.46 272.93 161.72 273.11 160.54 274.30
  A 0.98 0.98 0.0 0 0 160.63 275.76"
/>
<path stroke="#f1c7a7" vector-effect="non-scaling-stroke" d="
  M 227.25 290.75
  C 220.83 287.80 212.36 289.95 205.85 291.47
  C 190.72 295.00 138.86 310.62 133.67 326.17
  Q 133.22 327.51 134.41 326.75
  Q 177.12 299.81 227.17 292.32
  Q 227.73 292.24 227.79 292.08
  A 1.05 1.05 0.0 0 0 227.25 290.75"
/>
<path stroke="#f1c7a7" vector-effect="non-scaling-stroke" d="
  M 159.19 326.06
  C 168.73 329.50 194.64 317.00 197.80 306.84
  A 0.55 0.53 -58.3 0 0 197.68 306.30
  L 197.45 306.07
  A 0.38 0.36 46.1 0 0 196.93 306.05
  Q 180.70 321.54 158.39 324.36
  A 0.48 0.48 0.0 0 0 158.03 325.06
  Q 158.41 325.78 159.19 326.06"
/>
<path stroke="#fdc632" vector-effect="non-scaling-stroke" d="
  M 258.11 441.16
  Q 256.99 441.01 255.71 441.47
  Q 237.63 447.90 219.78 440.88
  Q 219.19 440.65 218.03 441.25
  A 0.85 0.85 0.0 0 0 217.58 442.06
  Q 217.80 445.70 219.35 449.04
  Q 220.73 452.01 219.85 455.16
  C 217.80 462.49 214.25 470.45 213.34 477.90
  Q 213.03 480.38 214.53 482.39
  C 220.52 490.37 232.67 498.78 243.08 495.93
  C 250.01 494.03 265.46 484.79 263.10 475.87
  C 261.35 469.26 258.45 462.47 257.17 455.85
  C 256.22 450.92 258.12 447.47 259.36 443.06
  A 1.51 1.51 0.0 0 0 258.11 441.16"
/>
<path stroke="#293348" vector-effect="non-scaling-stroke" d="
  M 166.81 428.31
  C 172.15 425.37 171.60 436.32 175.73 436.02
  A 1.25 1.24 1.1 0 0 176.87 434.93
  L 177.65 428.20
  A 2.08 2.05 86.3 0 1 179.18 426.44
  L 180.05 426.21
  A 0.83 0.82 75.9 0 1 181.06 426.82
  L 183.58 436.92
  A 2.03 2.02 79.8 0 0 185.76 438.44
  Q 186.35 438.38 186.80 437.95
  C 188.91 435.96 187.26 427.70 191.84 427.66
  A 1.06 1.06 0.0 0 0 192.68 427.22
  L 193.48 426.11
  Q 195.02 423.97 192.45 423.37
  Q 178.37 420.07 164.73 424.77
  A 0.42 0.42 0.0 0 0 164.49 425.36
  L 166.06 428.55
  A 0.40 0.39 60.3 0 0 166.63 428.71
  Q 166.81 428.60 166.81 428.31"
/>
<path stroke="#93832b" vector-effect="non-scaling-stroke" d="
  M 187.0205 611.1162
  A 2.11 2.11 0.0 0 0 184.9178 608.9988
  L 174.1379 608.9612
  A 2.11 2.11 0.0 0 0 172.0206 611.0638
  L 171.9995 617.0838
  A 2.11 2.11 0.0 0 0 174.1022 619.2012
  L 184.8821 619.2388
  A 2.11 2.11 0.0 0 0 186.9994 617.1362
  L 187.0205 611.1162"
/>
</g>
<path fill="#546c9c" d="
  M 306.96 148.25
  Q 304.77 145.79 301.50 145.46
  L 301.43 136.07
  A 0.97 0.96 -73.6 0 0 301.01 135.29
  C 231.95 87.65 127.24 88.15 58.00 135.25
  A 0.95 0.93 74.3 0 0 57.58 136.02
  L 57.37 145.26
  Q 54.13 146.20 52.00 148.29
  Q 38.24 137.48 22.17 130.51
  A 0.32 0.32 0.0 0 1 22.09 129.98
  C 41.64 112.39 56.21 90.36 61.72 64.41
  A 1.35 1.33 -5.4 0 1 62.51 63.47
  Q 123.44 38.42 178.01 1.55
  A 2.61 2.61 0.0 0 1 180.79 1.46
  Q 185.83 4.42 191.05 7.89
  C 224.12 29.88 258.59 46.89 294.84 62.90
  Q 297.49 64.07 298.08 67.02
  C 303.17 92.70 314.93 115.22 336.94 130.27
  Q 337.41 130.59 336.87 130.77
  C 327.23 134.05 318.21 139.95 306.96 148.25
  Z
  M 154.42 62.13
  C 151.59 72.23 169.92 81.55 177.52 83.16
  Q 179.50 83.58 181.45 83.07
  Q 192.85 80.10 200.84 71.61
  C 204.73 67.46 204.79 64.34 203.00 58.79
  C 201.55 54.31 200.21 49.76 198.65 45.32
  Q 196.15 38.22 199.77 31.56
  A 3.25 3.24 -39.4 0 0 200.02 29.06
  C 199.42 27.12 197.98 27.24 196.31 27.84
  Q 178.93 34.13 161.25 27.58
  A 2.58 2.55 -51.5 0 0 158.92 27.86
  C 157.19 29.04 159.52 33.84 160.08 35.44
  C 162.34 41.88 156.30 55.37 154.42 62.13
  Z"
/>
<path fill="#ffdc28" d="
  M 177.52 83.16
  C 169.92 81.55 151.59 72.23 154.42 62.13
  C 156.30 55.37 162.34 41.88 160.08 35.44
  C 159.52 33.84 157.19 29.04 158.92 27.86
  A 2.58 2.55 -51.5 0 1 161.25 27.58
  Q 178.93 34.13 196.31 27.84
  C 197.98 27.24 199.42 27.12 200.02 29.06
  A 3.25 3.24 -39.4 0 1 199.77 31.56
  Q 196.15 38.22 198.65 45.32
  C 200.21 49.76 201.55 54.31 203.00 58.79
  C 204.79 64.34 204.73 67.46 200.84 71.61
  Q 192.85 80.10 181.45 83.07
  Q 179.50 83.58 177.52 83.16
  Z"
/>
<path fill="#2b3d61" d="
  M 301.50 145.46
  Q 298.17 145.50 296.92 147.42
  Q 289.44 158.91 300.99 165.16
  Q 301.90 170.05 300.73 175.77
  Q 298.30 176.33 297.19 177.72
  Q 286.06 184.75 274.43 190.62
  L 271.25 192.04
  Q 257.77 197.71 243.74 201.81
  C 241.87 202.36 239.39 203.62 237.03 203.96
  Q 232.72 204.58 232.64 204.60
  Q 178.86 216.23 125.13 204.34
  Q 124.40 204.17 122.37 204.00
  C 120.21 203.81 117.42 202.42 116.13 202.06
  Q 99.89 197.49 84.59 190.41
  Q 72.32 184.72 61.19 177.06
  C 60.11 176.32 59.03 176.25 57.79 176.00
  C 57.70 171.92 58.40 168.05 56.75 165.54
  Q 63.72 164.16 64.73 157.01
  Q 66.06 147.61 57.37 145.26
  L 57.58 136.02
  A 0.95 0.93 74.3 0 1 58.00 135.25
  C 127.24 88.15 231.95 87.65 301.01 135.29
  A 0.97 0.96 -73.6 0 1 301.43 136.07
  L 301.50 145.46
  Z"
/>
<path fill="#ffdc28" d="
  M 57.37 145.26
  Q 66.06 147.61 64.73 157.01
  Q 63.72 164.16 56.75 165.54
  L 52.99 163.43
  A 1.38 1.35 5.3 0 1 52.38 162.71
  Q 49.67 155.64 52.00 148.29
  Q 54.13 146.20 57.37 145.26
  Z"
/>
<path fill="#ffdc28" d="
  M 301.50 145.46
  Q 304.77 145.79 306.96 148.25
  C 308.30 151.92 309.74 158.94 306.43 161.98
  Q 304.26 163.97 300.99 165.16
  Q 289.44 158.91 296.92 147.42
  Q 298.17 145.50 301.50 145.46
  Z"
/>
<path fill="#383838" d="
  M 300.73 175.77
  C 304.48 190.94 305.96 205.07 304.70 220.70
  C 290.78 222.44 282.63 241.66 280.79 253.63
  A 0.45 0.44 22.2 0 1 280.09 253.92
  Q 275.84 250.84 276.10 245.24
  C 276.96 226.50 277.16 210.12 271.25 192.04
  L 274.43 190.62
  Q 284.39 192.64 293.57 189.08
  Q 296.14 188.08 297.20 186.09
  Q 299.31 182.10 297.19 177.72
  Q 298.30 176.33 300.73 175.77
  Z"
/>
<path fill="#383838" d="
  M 57.79 176.00
  C 59.03 176.25 60.11 176.32 61.19 177.06
  Q 72.32 184.72 84.59 190.41
  C 79.22 210.49 79.64 227.03 79.98 250.43
  Q 80.05 255.36 77.62 262.75
  Q 77.46 263.24 77.32 262.74
  Q 76.64 260.24 75.69 255.02
  C 73.72 244.22 65.68 225.97 54.25 220.96
  Q 52.28 198.17 57.79 176.00
  Z"
/>
<path fill="#471e01" d="
  M 297.19 177.72
  Q 299.31 182.10 297.20 186.09
  Q 296.14 188.08 293.57 189.08
  Q 284.39 192.64 274.43 190.62
  Q 286.06 184.75 297.19 177.72
  Z"
/>
<path fill="#fbd7c9" d="
  M 84.59 190.41
  Q 99.89 197.49 116.13 202.06
  C 117.42 202.42 120.21 203.81 122.37 204.00
  Q 124.40 204.17 125.13 204.34
  Q 178.86 216.23 232.64 204.60
  Q 232.72 204.58 237.03 203.96
  C 239.39 203.62 241.87 202.36 243.74 201.81
  Q 257.77 197.71 271.25 192.04
  C 277.16 210.12 276.96 226.50 276.10 245.24
  Q 275.84 250.84 280.09 253.92
  A 0.45 0.44 22.2 0 0 280.79 253.63
  C 282.63 241.66 290.78 222.44 304.70 220.70
  Q 310.57 222.70 313.16 227.97
  C 314.15 229.98 315.03 235.52 314.98 238.01
  C 314.73 250.47 307.24 275.57 292.78 278.22
  A 0.78 0.77 -88.2 0 0 292.17 278.80
  Q 277.39 339.11 220.00 362.54
  Q 217.42 364.01 214.58 364.87
  Q 176.38 376.34 139.05 362.86
  Q 122.68 355.05 115.70 350.35
  Q 77.20 324.40 67.40 278.93
  A 1.38 1.32 14.1 0 0 66.90 278.14
  C 54.00 268.42 47.58 252.27 45.83 236.43
  Q 45.08 229.56 48.32 224.32
  C 49.68 222.12 51.96 221.69 54.25 220.96
  C 65.68 225.97 73.72 244.22 75.69 255.02
  Q 76.64 260.24 77.32 262.74
  Q 77.46 263.24 77.62 262.75
  Q 80.05 255.36 79.98 250.43
  C 79.64 227.03 79.22 210.49 84.59 190.41
  Z
  M 208.25 226.46
  L 208.52 226.50
  A 0.19 0.19 0.0 0 1 208.68 226.73
  C 207.67 233.03 209.08 243.39 215.87 246.48
  C 220.61 248.64 224.72 244.43 226.29 240.32
  Q 230.93 228.14 224.46 217.25
  L 224.50 216.99
  A 0.32 0.31 -4.8 0 1 224.72 216.74
  Q 231.90 214.32 239.31 216.00
  C 243.26 216.90 248.75 212.80 243.48 210.91
  C 229.03 205.72 203.65 212.87 196.00 226.83
  Q 194.68 229.24 197.04 230.65
  C 202.46 233.88 204.81 229.62 208.25 226.46
  Z
  M 133.07 219.57
  Q 128.84 229.98 132.73 240.02
  C 136.79 250.50 146.68 248.38 149.46 238.72
  Q 151.08 233.10 150.75 226.71
  C 154.46 229.64 158.07 232.97 162.34 228.31
  Q 164.02 226.48 162.31 224.68
  C 150.11 211.80 129.82 209.78 113.64 215.47
  Q 110.40 216.61 111.86 219.71
  C 112.74 221.60 116.28 221.37 118.29 220.57
  Q 125.44 217.72 133.07 219.57
  Z
  M 160.63 275.76
  C 171.11 284.05 187.09 283.03 198.02 276.45
  A 1.63 1.63 0.0 0 0 198.44 274.01
  Q 197.15 272.46 194.33 273.68
  Q 179.61 280.06 165.08 273.64
  C 163.46 272.93 161.72 273.11 160.54 274.30
  A 0.98 0.98 0.0 0 0 160.63 275.76
  Z
  M 227.25 290.75
  C 220.83 287.80 212.36 289.95 205.85 291.47
  C 190.72 295.00 138.86 310.62 133.67 326.17
  Q 133.22 327.51 134.41 326.75
  Q 177.12 299.81 227.17 292.32
  Q 227.73 292.24 227.79 292.08
  A 1.05 1.05 0.0 0 0 227.25 290.75
  Z
  M 159.19 326.06
  C 168.73 329.50 194.64 317.00 197.80 306.84
  A 0.55 0.53 -58.3 0 0 197.68 306.30
  L 197.45 306.07
  A 0.38 0.36 46.1 0 0 196.93 306.05
  Q 180.70 321.54 158.39 324.36
  A 0.48 0.48 0.0 0 0 158.03 325.06
  Q 158.41 325.78 159.19 326.06
  Z"
/>
<path fill="#471e01" d="
  M 224.46 217.25
  L 223.71 217.50
  Q 218.38 218.55 214.00 221.79
  Q 210.81 223.71 208.25 226.46
  C 204.81 229.62 202.46 233.88 197.04 230.65
  Q 194.68 229.24 196.00 226.83
  C 203.65 212.87 229.03 205.72 243.48 210.91
  C 248.75 212.80 243.26 216.90 239.31 216.00
  Q 231.90 214.32 224.72 216.74
  A 0.32 0.31 -4.8 0 0 224.50 216.99
  L 224.46 217.25
  Z"
/>
<path fill="#471e01" d="
  M 150.75 226.71
  L 147.54 224.75
  Q 142.52 221.29 136.50 220.29
  Q 134.90 219.56 133.07 219.57
  Q 125.44 217.72 118.29 220.57
  C 116.28 221.37 112.74 221.60 111.86 219.71
  Q 110.40 216.61 113.64 215.47
  C 129.82 209.78 150.11 211.80 162.31 224.68
  Q 164.02 226.48 162.34 228.31
  C 158.07 232.97 154.46 229.64 150.75 226.71
  Z"
/>
<path fill="#383838" d="
  M 224.46 217.25
  Q 230.93 228.14 226.29 240.32
  C 224.72 244.43 220.61 248.64 215.87 246.48
  C 209.08 243.39 207.67 233.03 208.68 226.73
  A 0.19 0.19 0.0 0 0 208.52 226.50
  L 208.25 226.46
  Q 210.81 223.71 214.00 221.79
  C 214.44 233.30 231.26 227.37 223.71 217.50
  L 224.46 217.25
  Z"
/>
<path fill="#ffffff" d="
  M 223.71 217.50
  C 231.26 227.37 214.44 233.30 214.00 221.79
  Q 218.38 218.55 223.71 217.50
  Z"
/>
<path fill="#383838" d="
  M 133.07 219.57
  Q 134.90 219.56 136.50 220.29
  C 135.13 227.90 144.24 231.13 147.54 224.75
  L 150.75 226.71
  Q 151.08 233.10 149.46 238.72
  C 146.68 248.38 136.79 250.50 132.73 240.02
  Q 128.84 229.98 133.07 219.57
  Z"
/>
<path fill="#ffffff" d="
  M 136.50 220.29
  Q 142.52 221.29 147.54 224.75
  C 144.24 231.13 135.13 227.90 136.50 220.29
  Z"
/>
<path fill="#e6b685" d="
  M 160.63 275.76
  A 0.98 0.98 0.0 0 1 160.54 274.30
  C 161.72 273.11 163.46 272.93 165.08 273.64
  Q 179.61 280.06 194.33 273.68
  Q 197.15 272.46 198.44 274.01
  A 1.63 1.63 0.0 0 1 198.02 276.45
  C 187.09 283.03 171.11 284.05 160.63 275.76
  Z"
/>
<path fill="#e6b685" d="
  M 227.25 290.75
  A 1.05 1.05 0.0 0 1 227.79 292.08
  Q 227.73 292.24 227.17 292.32
  Q 177.12 299.81 134.41 326.75
  Q 133.22 327.51 133.67 326.17
  C 138.86 310.62 190.72 295.00 205.85 291.47
  C 212.36 289.95 220.83 287.80 227.25 290.75
  Z"
/>
<path fill="#e6b685" d="
  M 159.19 326.06
  Q 158.41 325.78 158.03 325.06
  A 0.48 0.48 0.0 0 1 158.39 324.36
  Q 180.70 321.54 196.93 306.05
  A 0.38 0.36 46.1 0 1 197.45 306.07
  L 197.68 306.30
  A 0.55 0.53 -58.3 0 1 197.80 306.84
  C 194.64 317.00 168.73 329.50 159.19 326.06
  Z"
/>
<path fill="#e6b685" d="
  M 220.00 362.54
  L 220.54 366.00
  C 216.97 395.31 175.89 394.87 156.24 386.49
  Q 141.24 380.09 138.21 365.25
  L 139.05 362.86
  Q 176.38 376.34 214.58 364.87
  Q 217.42 364.01 220.00 362.54
  Z"
/>
<path fill="#546c9c" d="
  M 138.21 365.25
  Q 141.24 380.09 156.24 386.49
  C 175.89 394.87 216.97 395.31 220.54 366.00
  Q 222.06 369.76 224.50 372.96
  L 224.03 373.01
  A 0.92 0.90 -78.4 0 0 223.33 373.48
  L 202.44 411.92
  Q 192.70 401.71 181.66 393.10
  A 1.81 1.80 -45.7 0 0 179.42 393.13
  L 155.75 412.29
  L 134.48 373.40
  A 0.29 0.28 79.0 0 0 134.27 373.25
  L 134.00 373.21
  L 138.21 365.25
  Z"
/>
<path fill="#ffdc28" d="
  M 224.50 372.96
  C 233.65 376.30 236.88 381.32 242.50 388.79
  Q 245.57 393.17 248.87 397.38
  C 258.02 409.06 264.54 422.30 269.79 436.48
  Q 273.35 446.12 275.18 453.08
  Q 281.27 474.82 283.61 497.25
  Q 282.08 497.42 280.73 497.96
  Q 260.48 506.01 185.73 535.44
  Q 185.40 535.56 184.29 535.50
  L 178.97 460.06
  Q 178.94 459.54 178.90 460.06
  L 173.55 536.07
  L 140.50 523.21
  Q 148.07 519.57 146.53 511.25
  Q 145.11 503.59 144.95 497.52
  A 1.64 1.64 0.0 0 1 145.21 496.60
  Q 149.26 490.28 147.94 483.06
  Q 145.55 469.98 147.52 457.69
  C 148.49 451.65 142.32 443.08 140.77 437.82
  C 139.29 432.79 138.84 426.82 136.89 422.55
  C 130.86 409.37 118.68 404.67 104.90 404.98
  A 1.05 1.03 -24.0 0 1 104.22 404.73
  L 103.96 404.50
  L 109.25 396.54
  Q 113.42 393.01 113.95 391.93
  C 118.37 383.01 123.96 375.94 134.00 373.21
  L 134.27 373.25
  A 0.29 0.28 79.0 0 1 134.48 373.40
  L 155.75 412.29
  L 178.67 454.65
  Q 178.94 455.15 179.22 454.65
  L 202.44 411.92
  L 223.33 373.48
  A 0.92 0.90 -78.4 0 1 224.03 373.01
  L 224.50 372.96
  Z
  M 258.11 441.16
  Q 256.99 441.01 255.71 441.47
  Q 237.63 447.90 219.78 440.88
  Q 219.19 440.65 218.03 441.25
  A 0.85 0.85 0.0 0 0 217.58 442.06
  Q 217.80 445.70 219.35 449.04
  Q 220.73 452.01 219.85 455.16
  C 217.80 462.49 214.25 470.45 213.34 477.90
  Q 213.03 480.38 214.53 482.39
  C 220.52 490.37 232.67 498.78 243.08 495.93
  C 250.01 494.03 265.46 484.79 263.10 475.87
  C 261.35 469.26 258.45 462.47 257.17 455.85
  C 256.22 450.92 258.12 447.47 259.36 443.06
  A 1.51 1.51 0.0 0 0 258.11 441.16
  Z"
/>
<path fill="#546c9c" d="
  M 349.93 570.06
  Q 332.74 572.08 315.59 574.47
  C 315.03 574.54 314.75 574.39 314.25 574.21
  Q 314.68 573.16 314.50 572.00
  C 308.29 531.14 300.56 489.01 277.32 453.71
  Q 276.78 452.88 275.18 453.08
  Q 273.35 446.12 269.79 436.48
  C 264.54 422.30 258.02 409.06 248.87 397.38
  Q 245.57 393.17 242.50 388.79
  Q 243.77 387.24 245.49 387.77
  C 321.64 410.89 341.24 500.30 350.42 567.56
  Q 350.67 569.44 349.93 570.06
  Z"
/>
<path fill="#2b3d61" d="
  M 202.44 411.92
  L 179.22 454.65
  Q 178.94 455.15 178.67 454.65
  L 155.75 412.29
  L 179.42 393.13
  A 1.81 1.80 -45.7 0 1 181.66 393.10
  Q 192.70 401.71 202.44 411.92
  Z
  M 166.81 428.31
  C 172.15 425.37 171.60 436.32 175.73 436.02
  A 1.25 1.24 1.1 0 0 176.87 434.93
  L 177.65 428.20
  A 2.08 2.05 86.3 0 1 179.18 426.44
  L 180.05 426.21
  A 0.83 0.82 75.9 0 1 181.06 426.82
  L 183.58 436.92
  A 2.03 2.02 79.8 0 0 185.76 438.44
  Q 186.35 438.38 186.80 437.95
  C 188.91 435.96 187.26 427.70 191.84 427.66
  A 1.06 1.06 0.0 0 0 192.68 427.22
  L 193.48 426.11
  Q 195.02 423.97 192.45 423.37
  Q 178.37 420.07 164.73 424.77
  A 0.42 0.42 0.0 0 0 164.49 425.36
  L 166.06 428.55
  A 0.40 0.39 60.3 0 0 166.63 428.71
  Q 166.81 428.60 166.81 428.31
  Z"
/>
<path fill="#546c9c" d="
  M 109.25 396.54
  L 103.96 404.50
  L 103.73 404.63
  Q 103.53 404.76 103.29 404.78
  C 74.57 407.15 23.27 426.65 22.90 462.40
  Q 22.61 490.69 41.31 512.47
  Q 45.21 517.01 49.00 521.71
  C 33.50 514.23 15.81 499.87 10.71 482.53
  C 9.95 479.94 8.75 477.34 8.56 474.72
  C 5.18 426.72 71.93 404.61 107.78 396.64
  Q 108.50 396.48 109.25 396.54
  Z"
/>
<path fill="#fbd7c9" d="
  M 103.96 404.50
  L 104.22 404.73
  A 1.05 1.03 -24.0 0 0 104.90 404.98
  C 118.68 404.67 130.86 409.37 136.89 422.55
  C 138.84 426.82 139.29 432.79 140.77 437.82
  C 142.32 443.08 148.49 451.65 147.52 457.69
  Q 145.55 469.98 147.94 483.06
  Q 149.26 490.28 145.21 496.60
  A 1.64 1.64 0.0 0 0 144.95 497.52
  Q 145.11 503.59 146.53 511.25
  Q 148.07 519.57 140.50 523.21
  C 129.96 524.45 119.99 522.46 109.61 521.43
  Q 102.06 520.68 100.90 520.78
  Q 96.29 521.18 92.61 524.46
  Q 88.17 529.92 88.53 537.01
  A 0.93 0.88 17.8 0 0 88.90 537.69
  L 89.25 537.96
  L 88.94 538.20
  A 0.87 0.87 0.0 0 0 88.58 538.96
  Q 89.14 549.06 91.02 558.88
  C 91.25 564.35 91.99 582.07 88.75 585.96
  Q 87.98 587.03 87.42 588.20
  C 85.37 592.48 81.81 594.53 76.92 594.25
  Q 74.59 594.11 73.28 592.19
  Q 69.46 586.62 68.76 579.83
  Q 67.46 567.34 66.39 554.82
  Q 65.55 545.02 63.84 540.40
  Q 59.60 528.95 49.00 521.71
  Q 45.21 517.01 41.31 512.47
  Q 22.61 490.69 22.90 462.40
  C 23.27 426.65 74.57 407.15 103.29 404.78
  Q 103.53 404.76 103.73 404.63
  L 103.96 404.50
  Z"
/>
<path fill="#26292e" d="
  M 166.81 428.31
  Q 166.81 428.60 166.63 428.71
  A 0.40 0.39 60.3 0 1 166.06 428.55
  L 164.49 425.36
  A 0.42 0.42 0.0 0 1 164.73 424.77
  Q 178.37 420.07 192.45 423.37
  Q 195.02 423.97 193.48 426.11
  L 192.68 427.22
  A 1.06 1.06 0.0 0 1 191.84 427.66
  C 187.26 427.70 188.91 435.96 186.80 437.95
  Q 186.35 438.38 185.76 438.44
  A 2.03 2.02 79.8 0 1 183.58 436.92
  L 181.06 426.82
  A 0.83 0.82 75.9 0 0 180.05 426.21
  L 179.18 426.44
  A 2.08 2.05 86.3 0 0 177.65 428.20
  L 176.87 434.93
  A 1.25 1.24 1.1 0 1 175.73 436.02
  C 171.60 436.32 172.15 425.37 166.81 428.31
  Z"
/>
<path fill="#fbb03b" d="
  M 258.11 441.16
  A 1.51 1.51 0.0 0 1 259.36 443.06
  C 258.12 447.47 256.22 450.92 257.17 455.85
  C 258.45 462.47 261.35 469.26 263.10 475.87
  C 265.46 484.79 250.01 494.03 243.08 495.93
  C 232.67 498.78 220.52 490.37 214.53 482.39
  Q 213.03 480.38 213.34 477.90
  C 214.25 470.45 217.80 462.49 219.85 455.16
  Q 220.73 452.01 219.35 449.04
  Q 217.80 445.70 217.58 442.06
  A 0.85 0.85 0.0 0 1 218.03 441.25
  Q 219.19 440.65 219.78 440.88
  Q 237.63 447.90 255.71 441.47
  Q 256.99 441.01 258.11 441.16
  Z"
/>
<path fill="#2b3d61" d="
  M 184.29 535.50
  Q 184.24 545.83 185.75 556.04
  L 186.62 569.92
  Q 186.63 579.81 188.00 590.04
  L 188.04 592.25
  Q 185.50 595.34 181.73 596.66
  A 1.33 1.30 45.6 0 1 180.79 596.64
  Q 174.66 594.16 170.23 588.97
  L 171.21 569.75
  L 172.21 555.75
  L 173.55 536.07
  L 178.90 460.06
  Q 178.94 459.54 178.97 460.06
  L 184.29 535.50
  Z"
/>
<path fill="#ffffff" d="
  M 283.61 497.25
  L 284.29 516.75
  Q 284.28 517.30 283.94 517.44
  Q 241.60 534.48 185.75 556.04
  Q 184.24 545.83 184.29 535.50
  Q 185.40 535.56 185.73 535.44
  Q 260.48 506.01 280.73 497.96
  Q 282.08 497.42 283.61 497.25
  Z"
/>
<path fill="#ffdc28" d="
  M 284.29 516.75
  L 285.43 516.76
  A 0.61 0.61 0.0 0 1 286.03 517.28
  Q 287.10 524.26 285.59 530.96
  C 280.06 532.75 273.21 535.83 269.52 537.28
  Q 228.06 553.59 186.62 569.92
  L 185.75 556.04
  Q 241.60 534.48 283.94 517.44
  Q 284.28 517.30 284.29 516.75
  Z"
/>
<path fill="#ffffff" d="
  M 140.50 523.21
  L 173.55 536.07
  L 172.21 555.75
  L 92.61 524.46
  Q 96.29 521.18 100.90 520.78
  Q 102.06 520.68 109.61 521.43
  C 119.99 522.46 129.96 524.45 140.50 523.21
  Z"
/>
<path fill="#ffdc28" d="
  M 92.61 524.46
  L 172.21 555.75
  L 171.21 569.75
  L 170.86 569.87
  A 1.01 0.99 -43.5 0 1 170.15 569.86
  L 89.25 537.96
  L 88.90 537.69
  A 0.93 0.88 17.8 0 1 88.53 537.01
  Q 88.17 529.92 92.61 524.46
  Z"
/>
<path fill="#ffffff" d="
  M 285.59 530.96
  L 286.91 552.98
  Q 280.83 553.47 272.06 557.07
  Q 254.11 564.43 188.00 590.04
  Q 186.63 579.81 186.62 569.92
  Q 228.06 553.59 269.52 537.28
  C 273.21 535.83 280.06 532.75 285.59 530.96
  Z"
/>
<path fill="#ffffff" d="
  M 89.25 537.96
  L 170.15 569.86
  A 1.01 0.99 -43.5 0 0 170.86 569.87
  L 171.21 569.75
  L 170.23 588.97
  L 169.71 589.75
  L 91.02 558.88
  Q 89.14 549.06 88.58 538.96
  A 0.87 0.87 0.0 0 1 88.94 538.20
  L 89.25 537.96
  Z"
/>
<path fill="#ffdc28" d="
  M 286.91 552.98
  L 286.93 573.50
  Q 286.93 575.88 284.84 577.01
  L 265.96 587.25
  L 216.75 613.54
  L 191.19 627.04
  A 0.44 0.44 0.0 0 1 190.54 626.69
  L 189.93 619.98
  Q 189.87 619.29 189.46 619.85
  C 186.79 623.44 179.73 622.26 175.74 622.25
  C 168.94 622.22 168.84 619.03 168.90 613.09
  Q 168.93 610.37 170.00 607.79
  C 172.42 604.94 181.93 605.98 185.58 606.02
  C 186.90 606.03 187.64 606.63 188.72 607.22
  Q 189.16 607.47 189.13 606.96
  L 188.04 592.25
  L 188.00 590.04
  Q 254.11 564.43 272.06 557.07
  Q 280.83 553.47 286.91 552.98
  Z
  M 187.0205 611.1162
  A 2.11 2.11 0.0 0 0 184.9178 608.9988
  L 174.1379 608.9612
  A 2.11 2.11 0.0 0 0 172.0206 611.0638
  L 171.9995 617.0838
  A 2.11 2.11 0.0 0 0 174.1022 619.2012
  L 184.8821 619.2388
  A 2.11 2.11 0.0 0 0 186.9994 617.1362
  L 187.0205 611.1162
  Z"
/>
<path fill="#ffdc28" d="
  M 91.02 558.88
  L 169.71 589.75
  L 168.79 607.75
  Q 167.57 617.20 167.56 626.42
  A 0.66 0.66 0.0 0 1 166.59 627.01
  L 141.50 613.71
  L 93.00 587.79
  Q 91.08 586.37 88.75 585.96
  C 91.99 582.07 91.25 564.35 91.02 558.88
  Z"
/>
<path fill="#fbd7c9" d="
  M 349.93 570.06
  C 361.58 582.21 365.90 605.18 365.91 620.99
  Q 365.92 622.94 365.64 624.86
  Q 365.05 629.10 362.44 629.07
  Q 359.97 629.05 359.59 626.60
  C 358.96 622.58 357.76 606.64 355.08 604.67
  Q 353.22 603.30 352.34 603.80
  Q 350.45 604.89 350.73 607.05
  Q 352.43 620.12 353.55 631.27
  C 353.90 634.79 353.42 639.19 349.64 640.40
  A 0.96 0.94 54.5 0 1 348.77 640.24
  Q 345.88 637.97 345.72 633.99
  Q 345.35 624.89 344.68 615.80
  C 344.45 612.68 343.58 610.48 340.02 611.10
  Q 337.95 611.46 337.97 613.57
  Q 338.13 626.50 338.28 639.94
  Q 338.31 642.02 335.58 644.66
  A 1.03 1.01 -62.2 0 1 334.71 644.94
  C 331.20 644.39 330.21 639.98 330.25 637.43
  C 330.36 629.13 331.75 617.64 329.95 609.72
  A 0.81 0.80 84.0 0 0 329.18 609.09
  L 325.62 609.00
  Q 323.41 608.95 323.45 611.16
  C 323.54 615.39 324.37 635.67 318.61 636.20
  Q 316.02 636.44 315.65 633.86
  C 314.26 624.28 315.72 614.46 315.31 604.76
  C 315.18 601.74 314.18 595.29 309.80 596.17
  Q 307.45 596.64 306.32 598.74
  L 301.86 607.01
  Q 300.63 609.31 298.70 607.55
  C 292.36 601.72 309.80 578.75 314.25 574.21
  C 314.75 574.39 315.03 574.54 315.59 574.47
  Q 332.74 572.08 349.93 570.06
  Z"
/>
<path fill="#26292e" d="
  M 265.96 587.25
  L 266.05 592.07
  Q 249.12 604.94 228.75 611.26
  Q 223.49 612.88 218.17 614.35
  C 217.41 614.56 216.98 614.23 216.75 613.54
  L 265.96 587.25
  Z"
/>
<path fill="#26292e" d="
  M 93.00 587.79
  L 141.50 613.71
  C 137.45 613.91 131.15 611.74 123.97 609.11
  Q 107.02 602.91 93.04 591.76
  L 93.00 587.79
  Z"
/>
<path fill="#546c9c" d="
  M 170.23 588.97
  Q 174.66 594.16 180.79 596.64
  A 1.33 1.30 45.6 0 0 181.73 596.66
  Q 185.50 595.34 188.04 592.25
  L 189.13 606.96
  Q 189.16 607.47 188.72 607.22
  C 187.64 606.63 186.90 606.03 185.58 606.02
  C 181.93 605.98 172.42 604.94 170.00 607.79
  L 168.79 607.75
  L 169.71 589.75
  L 170.23 588.97
  Z"
/>
<path fill="#2b3d61" d="
  M 141.50 613.71
  L 166.59 627.01
  A 0.66 0.66 0.0 0 0 167.56 626.42
  Q 167.57 617.20 168.79 607.75
  L 170.00 607.79
  Q 168.93 610.37 168.90 613.09
  C 168.84 619.03 168.94 622.22 175.74 622.25
  C 179.73 622.26 186.79 623.44 189.46 619.85
  Q 189.87 619.29 189.93 619.98
  L 190.54 626.69
  A 0.44 0.44 0.0 0 0 191.19 627.04
  L 216.75 613.54
  C 216.98 614.23 217.41 614.56 218.17 614.35
  Q 223.49 612.88 228.75 611.26
  Q 249.12 604.94 266.05 592.07
  Q 268.64 637.73 260.80 682.31
  C 256.12 708.95 247.95 735.26 235.09 759.13
  Q 234.52 760.19 235.57 761.22
  Q 206.11 771.16 189.34 796.33
  Q 188.99 796.86 188.58 796.96
  A 0.47 0.46 80.0 0 1 188.00 796.55
  L 187.96 796.00
  C 190.79 775.06 191.38 755.29 191.67 733.19
  Q 191.92 714.12 191.71 651.91
  A 0.45 0.45 0.0 0 0 191.14 651.49
  Q 179.87 654.66 168.50 651.56
  A 1.08 1.08 0.0 0 0 167.14 652.54
  Q 165.59 683.88 166.31 714.24
  Q 167.32 756.71 168.37 766.93
  Q 169.99 782.72 171.71 798.50
  L 171.27 798.58
  A 0.49 0.48 68.0 0 1 170.76 798.36
  Q 154.46 772.15 125.25 761.71
  Q 125.08 760.66 124.04 760.75
  Q 124.17 759.91 123.80 759.19
  Q 116.86 745.84 111.67 731.68
  C 95.88 688.62 90.41 639.61 93.04 591.76
  Q 107.02 602.91 123.97 609.11
  C 131.15 611.74 137.45 613.91 141.50 613.71
  Z"
/>
<rect fill="#26292e" x="-7.50" y="-5.12" transform="translate(179.51,614.10) rotate(0.2)" width="15.00" height="10.24" rx="2.11"/>
<path fill="#26292e" d="
  M 123.50 761.04
  L 123.40 761.38
  A 0.40 0.39 -71.6 0 0 123.63 761.85
  Q 124.42 762.17 125.25 761.71
  Q 154.46 772.15 170.76 798.36
  A 0.49 0.48 68.0 0 0 171.27 798.58
  L 171.71 798.50
  L 171.84 801.07
  A 0.50 0.50 0.0 0 1 171.34 801.60
  C 134.55 802.02 97.79 802.04 61.00 801.97
  C 50.80 801.95 55.82 787.84 57.76 782.05
  C 64.80 761.06 87.19 753.98 107.48 757.65
  Q 115.53 759.11 123.50 761.04
  Z"
/>
<path fill="#26292e" d="
  M 187.96 796.00
  L 188.00 796.55
  A 0.47 0.46 80.0 0 0 188.58 796.96
  Q 188.99 796.86 189.34 796.33
  Q 206.11 771.16 235.57 761.22
  Q 242.45 759.47 252.74 757.78
  C 264.91 755.79 283.53 757.38 292.23 767.09
  Q 303.14 779.27 303.88 797.00
  C 304.10 802.27 301.25 801.91 296.94 801.93
  Q 243.03 802.19 189.08 801.77
  A 1.32 1.31 1.5 0 1 187.77 800.40
  L 187.96 796.00
  Z"
/>
<path fill="#546c9c" d="
  M 124.04 760.75
  Q 125.08 760.66 125.25 761.71
  Q 124.42 762.17 123.63 761.85
  A 0.40 0.39 -71.6 0 1 123.40 761.38
  L 123.50 761.04
  L 124.04 760.75
  Z"
/>
</svg>
