<?xml version="1.0" encoding="UTF-8" standalone="no"?>
<!DOCTYPE svg PUBLIC "-//W3C//DTD SVG 1.1//EN" "http://www.w3.org/Graphics/SVG/1.1/DTD/svg11.dtd">
<svg xmlns="http://www.w3.org/2000/svg" version="1.1" viewBox="0 0 512 512">
<g stroke-width="2.00" fill="none" stroke-linecap="butt">
<path stroke="#9aa7ae" vector-effect="non-scaling-stroke" d="
  M 152.32 179.01
  C 168.25 152.54 194.71 133.63 224.29 125.36
  C 270.63 112.40 319.82 125.79 351.99 161.60
  C 356.97 167.14 361.46 174.87 366.99 178.96
  C 376.50 185.98 391.52 183.55 399.07 175.08
  C 408.97 163.98 403.58 154.19 395.42 143.48
  C 314.01 36.70 155.44 56.45 101.67 179.00
  A 0.79 0.78 -77.6 0 1 100.96 179.46
  C 87.55 179.63 74.14 179.32 60.72 179.47
  Q 57.90 179.50 55.33 183.10
  C 52.59 186.95 54.96 190.44 57.57 194.54
  Q 83.74 235.70 109.98 276.83
  C 113.80 282.82 120.39 284.31 124.77 277.50
  Q 152.04 235.15 179.35 192.80
  C 184.70 184.50 179.52 179.85 170.99 179.64
  Q 161.79 179.41 152.56 179.44
  Q 152.06 179.44 152.32 179.01"
/>
<path stroke="#9aa7ae" vector-effect="non-scaling-stroke" d="
  M 358.20 332.81
  A 0.35 0.35 0.0 0 1 358.49 333.35
  C 313.12 401.34 215.68 410.46 159.80 349.44
  Q 157.00 346.38 150.29 337.56
  C 132.74 314.50 94.14 336.00 111.97 361.52
  C 187.79 470.06 346.55 459.15 405.60 340.65
  Q 407.38 337.07 409.30 333.46
  A 0.85 0.83 -75.7 0 1 410.04 333.01
  Q 424.64 332.99 439.22 333.00
  C 446.33 333.01 451.91 327.70 447.40 320.63
  Q 420.64 278.75 393.94 236.82
  C 391.10 232.37 387.38 228.26 382.07 231.36
  Q 379.75 232.71 376.33 238.01
  Q 349.40 279.76 322.70 321.65
  C 320.18 325.61 322.21 330.25 326.06 331.93
  Q 327.87 332.72 332.17 332.73
  Q 345.28 332.74 358.20 332.81"
/>
</g>
<path fill="#344e5d" d="
  M 252.56 0.00
  L 260.06 0.00
  C 400.42 3.16 509.30 114.23 512.00 253.81
  L 512.00 258.56
  C 509.72 398.98 398.58 509.33 258.69 512.00
  L 252.44 512.00
  C 113.57 508.96 2.89 399.30 0.00 259.94
  L 0.00 252.69
  Q 2.39 159.79 61.09 90.19
  C 108.96 33.45 178.73 1.60 252.56 0.00
  Z
  M 152.32 179.01
  C 168.25 152.54 194.71 133.63 224.29 125.36
  C 270.63 112.40 319.82 125.79 351.99 161.60
  C 356.97 167.14 361.46 174.87 366.99 178.96
  C 376.50 185.98 391.52 183.55 399.07 175.08
  C 408.97 163.98 403.58 154.19 395.42 143.48
  C 314.01 36.70 155.44 56.45 101.67 179.00
  A 0.79 0.78 -77.6 0 1 100.96 179.46
  C 87.55 179.63 74.14 179.32 60.72 179.47
  Q 57.90 179.50 55.33 183.10
  C 52.59 186.95 54.96 190.44 57.57 194.54
  Q 83.74 235.70 109.98 276.83
  C 113.80 282.82 120.39 284.31 124.77 277.50
  Q 152.04 235.15 179.35 192.80
  C 184.70 184.50 179.52 179.85 170.99 179.64
  Q 161.79 179.41 152.56 179.44
  Q 152.06 179.44 152.32 179.01
  Z
  M 358.20 332.81
  A 0.35 0.35 0.0 0 1 358.49 333.35
  C 313.12 401.34 215.68 410.46 159.80 349.44
  Q 157.00 346.38 150.29 337.56
  C 132.74 314.50 94.14 336.00 111.97 361.52
  C 187.79 470.06 346.55 459.15 405.60 340.65
  Q 407.38 337.07 409.30 333.46
  A 0.85 0.83 -75.7 0 1 410.04 333.01
  Q 424.64 332.99 439.22 333.00
  C 446.33 333.01 451.91 327.70 447.40 320.63
  Q 420.64 278.75 393.94 236.82
  C 391.10 232.37 387.38 228.26 382.07 231.36
  Q 379.75 232.71 376.33 238.01
  Q 349.40 279.76 322.70 321.65
  C 320.18 325.61 322.21 330.25 326.06 331.93
  Q 327.87 332.72 332.17 332.73
  Q 345.28 332.74 358.20 332.81
  Z"
/>
<path fill="#ffffff" d="
  M 152.56 179.44
  Q 161.79 179.41 170.99 179.64
  C 179.52 179.85 184.70 184.50 179.35 192.80
  Q 152.04 235.15 124.77 277.50
  C 120.39 284.31 113.80 282.82 109.98 276.83
  Q 83.74 235.70 57.57 194.54
  C 54.96 190.44 52.59 186.95 55.33 183.10
  Q 57.90 179.50 60.72 179.47
  C 74.14 179.32 87.55 179.63 100.96 179.46
  A 0.79 0.78 -77.6 0 0 101.67 179.00
  C 155.44 56.45 314.01 36.70 395.42 143.48
  C 403.58 154.19 408.97 163.98 399.07 175.08
  C 391.52 183.55 376.50 185.98 366.99 178.96
  C 361.46 174.87 356.97 167.14 351.99 161.60
  C 319.82 125.79 270.63 112.40 224.29 125.36
  C 194.71 133.63 168.25 152.54 152.32 179.01
  Q 152.06 179.44 152.56 179.44
  Z"
/>
<path fill="#ffffff" d="
  M 358.20 332.81
  Q 345.28 332.74 332.17 332.73
  Q 327.87 332.72 326.06 331.93
  C 322.21 330.25 320.18 325.61 322.70 321.65
  Q 349.40 279.76 376.33 238.01
  Q 379.75 232.71 382.07 231.36
  C 387.38 228.26 391.10 232.37 393.94 236.82
  Q 420.64 278.75 447.40 320.63
  C 451.91 327.70 446.33 333.01 439.22 333.00
  Q 424.64 332.99 410.04 333.01
  A 0.85 0.83 -75.7 0 0 409.30 333.46
  Q 407.38 337.07 405.60 340.65
  C 346.55 459.15 187.79 470.06 111.97 361.52
  C 94.14 336.00 132.74 314.50 150.29 337.56
  Q 157.00 346.38 159.80 349.44
  C 215.68 410.46 313.12 401.34 358.49 333.35
  A 0.35 0.35 0.0 0 0 358.20 332.81
  Z"
/>
</svg>
