<?xml version="1.0" encoding="UTF-8" standalone="no"?>
<!DOCTYPE svg PUBLIC "-//W3C//DTD SVG 1.1//EN" "http://www.w3.org/Graphics/SVG/1.1/DTD/svg11.dtd">
<svg xmlns="http://www.w3.org/2000/svg" version="1.1" viewBox="0 0 512 512">
<path fill="#000000" d="
  M 506.95 255.99
  A 250.95 250.95 0.0 0 1 256.00 506.94
  A 250.95 250.95 0.0 0 1 5.05 255.99
  A 250.95 250.95 0.0 0 1 256.00 5.04
  A 250.95 250.95 0.0 0 1 506.95 255.99
  Z
  M 465.66 255.99
  A 209.66 209.66 0.0 0 0 256.00 46.33
  A 209.66 209.66 0.0 0 0 46.34 255.99
  A 209.66 209.66 0.0 0 0 256.00 465.65
  A 209.66 209.66 0.0 0 0 465.66 255.99
  Z"
/>
<path fill="#000000" d="
  M 255.88 226.75
  A 0.35 0.34 44.4 0 0 256.37 226.75
  Q 283.00 200.13 309.67 173.45
  Q 316.34 166.78 320.14 165.14
  C 336.85 157.90 353.92 175.54 346.64 192.21
  Q 345.09 195.76 339.83 201.03
  Q 312.64 228.25 285.40 255.48
  A 0.74 0.74 0.0 0 0 285.40 256.52
  Q 312.71 283.83 340.20 311.33
  Q 344.96 316.08 346.57 319.59
  C 351.95 331.29 345.06 344.91 332.25 347.94
  C 323.17 350.08 317.13 346.00 310.42 339.29
  Q 283.48 312.36 256.52 285.40
  A 0.73 0.72 44.7 0 0 255.49 285.40
  Q 228.59 312.27 201.53 339.35
  Q 195.94 344.95 192.24 346.65
  C 176.26 354.04 157.49 337.00 165.15 319.95
  Q 166.74 316.40 172.34 310.80
  Q 199.44 283.66 226.61 256.53
  A 0.75 0.74 -45.3 0 0 226.61 255.48
  Q 199.49 228.39 172.23 201.09
  Q 166.82 195.67 165.31 192.13
  C 160.28 180.33 167.09 166.94 179.56 164.09
  C 189.63 161.79 195.53 166.55 202.92 174.01
  Q 229.20 200.53 255.88 226.75
  Z"
/>
</svg>
