<?xml version="1.0" encoding="UTF-8" standalone="no"?>
<!DOCTYPE svg PUBLIC "-//W3C//DTD SVG 1.1//EN" "http://www.w3.org/Graphics/SVG/1.1/DTD/svg11.dtd">
<svg xmlns="http://www.w3.org/2000/svg" version="1.1" viewBox="0 0 361 807">
<g stroke-width="2.00" fill="none" stroke-linecap="butt">
<path stroke="#aaa462" vector-effect="non-scaling-stroke" d="
  M 299.21 148.50
  Q 297.17 145.82 293.31 145.16"
/>
<path stroke="#40557f" vector-effect="non-scaling-stroke" d="
  M 293.31 145.16
  Q 294.17 140.94 293.66 136.20
  A 1.60 1.58 -76.2 0 0 292.98 135.06
  C 223.94 88.31 120.38 87.87 51.37 134.41
  Q 49.71 135.53 49.67 137.53
  L 49.50 145.46"
/>
<path stroke="#aaa462" vector-effect="non-scaling-stroke" d="
  M 49.50 145.46
  Q 46.04 146.17 44.19 148.60"
/>
<path stroke="#958d45" vector-effect="non-scaling-stroke" d="
  M 293.31 145.16
  Q 282.50 150.34 287.93 161.32
  Q 289.62 164.72 294.00 165.04"
/>
<path stroke="#323b4d" vector-effect="non-scaling-stroke" d="
  M 292.96 176.50
  Q 290.99 176.46 289.50 177.71"
/>
<path stroke="#392e31" vector-effect="non-scaling-stroke" d="
  M 289.50 177.71
  Q 278.48 184.63 266.71 190.65"
/>
<path stroke="#323b4d" vector-effect="non-scaling-stroke" d="
  M 266.71 190.65
  Q 264.50 190.80 263.62 192.26"
/>
<path stroke="#938a95" vector-effect="non-scaling-stroke" d="
  M 263.62 192.26
  L 236.94 201.65"
/>
<path stroke="#392e31" vector-effect="non-scaling-stroke" d="
  M 236.94 201.65
  Q 234.21 201.96 231.75 203.46"
/>
<path stroke="#40557f" vector-effect="non-scaling-stroke" d="
  M 231.75 203.46
  Q 230.32 202.74 229.21 203.75"
/>
<path stroke="#392e31" vector-effect="non-scaling-stroke" d="
  M 229.21 203.75
  Q 227.13 203.67 225.50 204.71"
/>
<path stroke="#938a95" vector-effect="non-scaling-stroke" d="
  M 225.50 204.71
  L 202.25 208.54"
/>
<path stroke="#392e31" vector-effect="non-scaling-stroke" d="
  M 202.25 208.54
  L 191.75 210.04"
/>
<path stroke="#938a95" vector-effect="non-scaling-stroke" d="
  M 191.75 210.04
  Q 190.54 209.60 189.24 209.69
  Q 170.62 210.96 152.03 209.75"
/>
<path stroke="#392e31" vector-effect="non-scaling-stroke" d="
  M 152.03 209.75
  L 142.00 208.87"
/>
<path stroke="#938a95" vector-effect="non-scaling-stroke" d="
  M 142.00 208.87
  C 134.02 206.92 125.42 206.07 117.33 204.47"
/>
<path stroke="#392e31" vector-effect="non-scaling-stroke" d="
  M 117.33 204.47
  Q 113.79 204.30 110.26 202.76
  Q 108.86 202.15 106.54 201.75"
/>
<path stroke="#938a95" vector-effect="non-scaling-stroke" d="
  M 106.54 201.75
  Q 91.45 196.91 76.79 190.66"
/>
<path stroke="#323b4d" vector-effect="non-scaling-stroke" d="
  M 76.79 190.66
  L 50.03 175.47"
/>
<path stroke="#958d45" vector-effect="non-scaling-stroke" d="
  M 49.92 165.12
  Q 61.18 160.02 55.22 148.54
  Q 53.64 145.49 49.50 145.46"
/>
<path stroke="#a17b65" vector-effect="non-scaling-stroke" d="
  M 106.54 201.75
  L 101.78 204.99
  Q 98.56 207.19 102.14 208.72
  C 104.39 209.68 106.11 209.38 108.38 208.14
  Q 112.51 205.89 117.33 204.47"
/>
<path stroke="#a17b65" vector-effect="non-scaling-stroke" d="
  M 142.00 208.87
  Q 146.74 213.85 152.03 209.75"
/>
<path stroke="#a17b65" vector-effect="non-scaling-stroke" d="
  M 191.75 210.04
  Q 197.55 213.49 202.25 208.54"
/>
<path stroke="#a17b65" vector-effect="non-scaling-stroke" d="
  M 225.50 204.71
  Q 230.16 205.48 236.20 208.78
  Q 240.17 210.96 242.43 207.19
  A 0.79 0.78 43.5 0 0 242.40 206.34
  Q 240.34 203.29 236.94 201.65"
/>
<path stroke="#f1c7a7" vector-effect="non-scaling-stroke" d="
  M 212.25 363.54
  Q 211.22 363.42 211.00 363.50
  Q 170.88 376.95 130.96 363.00"
/>
<path stroke="#9a8881" vector-effect="non-scaling-stroke" d="
  M 296.93 221.27
  C 283.46 220.02 274.78 243.86 272.78 253.52
  A 0.35 0.35 0.0 0 1 272.25 253.74
  C 265.97 249.50 268.51 237.86 268.98 229.00
  Q 269.86 212.25 263.62 192.26"
/>
<path stroke="#402b1d" vector-effect="non-scaling-stroke" d="
  M 266.71 190.65
  Q 271.35 191.88 276.04 191.34
  C 283.14 190.53 294.25 187.64 289.50 177.71"
/>
<path stroke="#4e454f" vector-effect="non-scaling-stroke" d="
  M 229.21 203.75
  Q 230.54 204.25 231.75 203.46"
/>
<path stroke="#9a8881" vector-effect="non-scaling-stroke" d="
  M 76.79 190.66
  Q 71.65 209.83 71.87 229.50
  C 71.99 240.51 73.01 250.89 70.29 261.75
  Q 70.10 262.52 70.00 262.60
  Q 69.22 263.28 69.09 262.25
  C 67.38 248.74 59.98 226.72 46.40 220.89"
/>
<path stroke="#9d9191" vector-effect="non-scaling-stroke" d="
  M 212.48 365.71
  Q 210.99 380.70 198.19 386.48
  Q 176.73 396.16 152.87 388.43
  C 141.80 384.84 131.80 376.97 130.46 364.75"
/>
<path stroke="#aaa462" vector-effect="non-scaling-stroke" d="
  M 215.67 372.63
  Q 204.62 391.16 194.54 410.63"
/>
<path stroke="#40557f" vector-effect="non-scaling-stroke" d="
  M 194.54 410.63
  Q 184.91 402.81 175.86 394.58
  C 173.64 392.57 172.20 392.51 170.07 394.59
  Q 166.66 397.92 147.29 412.75"
/>
<path stroke="#aaa462" vector-effect="non-scaling-stroke" d="
  M 147.29 412.75
  L 125.71 373.50"
/>
<path stroke="#293348" vector-effect="non-scaling-stroke" d="
  M 186.68 424.64
  Q 172.30 419.22 157.95 424.57
  A 0.88 0.88 0.0 0 0 157.38 425.30
  Q 157.21 426.99 158.28 428.45
  A 0.52 0.51 -35.9 0 0 159.00 428.56
  Q 160.28 427.66 161.87 428.07
  A 1.15 1.12 -4.3 0 1 162.61 428.69
  C 163.39 430.33 165.86 437.46 168.49 435.61
  A 1.37 1.34 -13.6 0 0 169.04 434.73
  L 170.34 426.71
  Q 170.73 424.33 172.44 426.02
  C 176.14 429.69 173.04 436.71 178.75 439.29"
/>
<path stroke="#fdda79" vector-effect="non-scaling-stroke" d="
  M 233.25 386.96
  Q 233.00 388.83 234.79 389.75"
/>
<path stroke="#aaa462" vector-effect="non-scaling-stroke" d="
  M 234.79 389.75
  C 235.00 390.42 235.17 391.04 235.64 391.60
  C 249.96 408.22 258.78 427.77 265.39 448.81
  C 265.54 449.29 265.96 449.80 266.25 450.21"
/>
<path stroke="#fdda79" vector-effect="non-scaling-stroke" d="
  M 266.25 450.21
  Q 265.41 451.30 266.25 452.29"
/>
<path stroke="#ffee94" vector-effect="non-scaling-stroke" d="
  M 274.96 497.25
  L 251.75 506.29"
/>
<path stroke="#958d45" vector-effect="non-scaling-stroke" d="
  M 175.75 536.04
  L 170.35 460.07
  Q 170.31 459.54 170.27 460.07
  L 164.96 535.75"
/>
<path stroke="#ffee94" vector-effect="non-scaling-stroke" d="
  M 164.96 535.75
  L 164.43 535.85
  A 1.69 1.69 0.0 0 1 163.48 535.75
  L 132.05 523.41"
/>
<path stroke="#aaa462" vector-effect="non-scaling-stroke" d="
  M 82.46 428.75
  Q 89.54 411.76 100.25 396.79"
/>
<path stroke="#958d45" vector-effect="non-scaling-stroke" d="
  M 147.29 412.75
  L 169.98 454.51
  Q 170.32 455.12 170.64 454.51
  L 178.75 439.29"
/>
<path stroke="#93832b" vector-effect="non-scaling-stroke" d="
  M 178.75 439.29
  L 186.68 424.64"
/>
<path stroke="#958d45" vector-effect="non-scaling-stroke" d="
  M 186.68 424.64
  L 194.54 410.63"
/>
<path stroke="#a8a2b3" vector-effect="non-scaling-stroke" d="
  M 235.46 388.00
  L 234.79 389.75"
/>
<path stroke="#ffee94" vector-effect="non-scaling-stroke" d="
  M 277.21 517.50
  C 276.53 517.50 275.95 517.42 275.29 517.68
  Q 226.17 536.85 177.04 556.00"
/>
<path stroke="#939497" vector-effect="non-scaling-stroke" d="
  M 176.75 553.71
  L 176.00 537.29"
/>
<path stroke="#ffee94" vector-effect="non-scaling-stroke" d="
  M 163.46 555.75
  L 125.46 540.87"
/>
<path stroke="#293348" vector-effect="non-scaling-stroke" d="
  M 175.29 537.25
  C 175.36 537.97 176.19 553.65 176.75 553.71"
/>
<path stroke="#959eb0" vector-effect="non-scaling-stroke" d="
  M 176.75 553.71
  L 177.04 556.00"
/>
<path stroke="#958d45" vector-effect="non-scaling-stroke" d="
  M 177.04 556.00
  L 178.25 569.71"
/>
<path stroke="#959eb0" vector-effect="non-scaling-stroke" d="
  M 178.25 569.71
  Q 177.87 580.41 179.46 591.00"
/>
<path stroke="#958d45" vector-effect="non-scaling-stroke" d="
  M 179.46 591.00
  L 179.46 593.52"
/>
<path stroke="#40557f" vector-effect="non-scaling-stroke" d="
  M 179.46 593.52
  C 173.01 600.10 167.10 594.11 162.98 589.07
  A 1.33 1.31 74.9 0 0 162.16 588.59
  L 161.54 588.50"
/>
<path stroke="#959eb0" vector-effect="non-scaling-stroke" d="
  M 162.29 570.00
  L 162.25 569.79"
/>
<path stroke="#958d45" vector-effect="non-scaling-stroke" d="
  M 162.25 569.79
  L 162.49 569.64
  A 0.47 0.46 74.8 0 0 162.70 569.27
  L 163.46 555.75"
/>
<path stroke="#959eb0" vector-effect="non-scaling-stroke" d="
  M 163.46 555.75
  L 164.96 535.75"
/>
<path stroke="#a8a2b3" vector-effect="non-scaling-stroke" d="
  M 342.77 569.54
  Q 326.06 572.27 309.24 574.11
  Q 307.87 574.26 306.50 574.21"
/>
<path stroke="#a8a2b3" vector-effect="non-scaling-stroke" d="
  M 267.25 451.96
  L 267.50 451.73
  A 0.30 0.30 0.0 0 0 267.49 451.28
  L 266.25 450.21"
/>
<path stroke="#a8a2b3" vector-effect="non-scaling-stroke" d="
  M 82.45 400.26
  C 81.41 410.33 79.14 420.98 82.46 428.75"
/>
<path stroke="#fdda79" vector-effect="non-scaling-stroke" d="
  M 82.46 428.75
  C 84.87 435.84 93.08 436.48 99.44 435.71
  Q 110.99 434.30 122.56 433.05
  Q 125.85 432.70 129.75 433.30
  C 147.91 436.13 131.74 454.49 139.46 463.90
  Q 139.78 464.29 139.87 464.78
  C 140.85 470.28 139.70 476.06 139.15 481.56
  C 138.54 487.58 138.71 492.72 139.55 498.34
  C 140.80 506.73 132.73 513.84 132.05 523.41"
/>
<path stroke="#fdebe4" vector-effect="non-scaling-stroke" d="
  M 132.05 523.41
  Q 130.40 532.87 125.46 540.87"
/>
<path stroke="#fdda79" vector-effect="non-scaling-stroke" d="
  M 125.46 540.87
  C 122.58 543.13 120.30 545.65 117.19 547.53
  Q 114.96 548.89 112.75 550.29"
/>
<path stroke="#fdebe4" vector-effect="non-scaling-stroke" d="
  M 110.00 550.46
  L 97.00 548.46"
/>
<path stroke="#a8a2b3" vector-effect="non-scaling-stroke" d="
  M 97.00 548.46
  L 97.70 548.20
  Q 98.01 548.09 97.68 548.08
  L 93.25 547.96"
/>
<path stroke="#fdebe4" vector-effect="non-scaling-stroke" d="
  M 93.25 547.96
  C 86.96 546.95 81.10 544.97 74.73 543.83
  Q 70.19 543.02 65.85 541.66"
/>
<path stroke="#a8a2b3" vector-effect="non-scaling-stroke" d="
  M 15.46 503.00
  C 12.14 471.32 25.71 452.26 45.77 430.27
  C 50.91 424.63 55.98 418.23 56.75 410.54"
/>
<path stroke="#ffee94" vector-effect="non-scaling-stroke" d="
  M 277.71 530.25
  Q 255.71 538.67 248.19 541.94
  Q 245.30 543.19 244.50 543.29"
/>
<path stroke="#ffee94" vector-effect="non-scaling-stroke" d="
  M 238.00 546.04
  Q 209.66 557.22 181.44 568.69
  Q 180.62 569.02 178.25 569.71"
/>
<path stroke="#ffee94" vector-effect="non-scaling-stroke" d="
  M 278.00 553.46
  Q 276.54 553.60 275.16 554.12
  Q 227.21 572.31 179.46 591.00"
/>
<path stroke="#93832b" vector-effect="non-scaling-stroke" d="
  M 257.96 587.00
  L 207.75 613.71"
/>
<path stroke="#958d45" vector-effect="non-scaling-stroke" d="
  M 207.75 613.71
  L 182.84 626.91
  A 0.71 0.71 0.0 0 1 181.80 626.33
  L 181.49 621.03
  Q 181.45 620.39 180.95 620.79
  C 177.88 623.28 169.65 622.23 165.83 622.02
  C 159.34 621.66 160.88 612.46 161.96 608.00"
/>
<path stroke="#aaa462" vector-effect="non-scaling-stroke" d="
  M 161.96 608.00
  C 164.72 604.52 177.58 606.13 180.12 606.37
  A 0.41 0.41 0.0 0 0 180.57 605.92
  L 179.46 593.52"
/>
<path stroke="#aab6ce" vector-effect="non-scaling-stroke" d="
  M 93.25 547.96
  L 97.00 548.46"
/>
<path stroke="#ffee94" vector-effect="non-scaling-stroke" d="
  M 149.21 564.75
  L 162.25 569.79"
/>
<path stroke="#ffee94" vector-effect="non-scaling-stroke" d="
  M 160.29 589.75
  Q 159.88 590.21 159.30 589.98
  Q 110.68 570.48 61.96 551.25"
/>
<path stroke="#40557f" vector-effect="non-scaling-stroke" d="
  M 161.96 608.00
  L 160.29 607.50"
/>
<path stroke="#293348" vector-effect="non-scaling-stroke" d="
  M 227.73 761.12
  Q 198.46 771.50 180.54 796.99"
/>
<path stroke="#293348" vector-effect="non-scaling-stroke" d="
  M 163.96 798.75
  Q 163.70 799.07 163.38 799.17
  A 0.58 0.58 0.0 0 1 162.66 798.83
  Q 161.54 795.97 160.70 794.77
  Q 143.69 770.51 115.50 761.04"
/>
<path stroke="#293348" vector-effect="non-scaling-stroke" d="
  M 258.46 592.25
  C 257.88 592.20 257.51 592.17 257.02 592.55
  C 242.52 604.02 227.02 609.95 209.23 614.42
  Q 208.17 614.69 207.75 613.71"
/>
<path stroke="#aaa462" vector-effect="non-scaling-stroke" d="
  M 161.25 590.04
  L 160.29 607.50"
/>
<path stroke="#958d45" vector-effect="non-scaling-stroke" d="
  M 160.29 607.50
  L 158.79 626.44
  A 0.64 0.64 0.0 0 1 157.86 626.96
  L 131.29 612.95"
/>
<path stroke="#93832b" vector-effect="non-scaling-stroke" d="
  M 131.29 612.95
  L 85.54 588.50"
/>
<path stroke="#293348" vector-effect="non-scaling-stroke" d="
  M 131.29 612.95
  Q 127.27 612.75 119.77 610.22
  Q 100.61 603.77 87.20 592.86
  A 0.82 0.81 53.8 0 0 86.39 592.73
  L 85.04 593.24"
/>
<path stroke="#aaa462" vector-effect="non-scaling-stroke" d="
  M 151.19 73.06
  Q 159.01 80.03 167.62 82.55
  C 172.22 83.91 175.87 82.76 180.06 80.83
  C 185.74 78.21 198.79 69.88 196.29 62.25
  Q 190.97 45.96 190.28 42.95
  C 188.87 36.80 191.08 34.65 192.38 29.69
  Q 193.01 27.28 190.52 27.50
  Q 189.14 27.63 187.84 28.09
  C 175.57 32.46 165.69 31.15 153.45 27.73
  C 151.68 27.23 150.53 27.59 150.48 29.61
  Q 150.44 31.37 151.33 32.89
  C 155.35 39.73 149.81 52.12 147.29 59.09
  Q 144.41 67.03 151.19 73.06"
/>
<path stroke="#9a8881" vector-effect="non-scaling-stroke" d="
  M 147.28 238.96
  C 149.66 235.28 143.00 233.16 140.51 232.65
  Q 130.12 230.54 119.91 233.26
  Q 118.89 233.53 117.92 233.94
  Q 113.47 235.80 114.86 238.71
  A 0.91 0.90 -23.4 0 0 116.02 239.16
  Q 131.27 233.08 146.53 239.19
  A 0.62 0.62 0.0 0 0 147.28 238.96"
/>
<path stroke="#9a8881" vector-effect="non-scaling-stroke" d="
  M 230.15 239.16
  C 233.40 235.84 226.84 233.48 224.99 233.03
  Q 214.79 230.58 204.56 232.82
  C 201.71 233.45 196.51 235.22 198.19 238.82
  A 0.92 0.91 62.0 0 0 199.48 239.22
  C 206.66 234.97 222.13 235.18 229.35 239.27
  A 0.66 0.65 -52.5 0 0 230.15 239.16"
/>
<path stroke="#f1c7a7" vector-effect="non-scaling-stroke" d="
  M 152.71 275.79
  C 164.00 283.86 179.05 283.34 190.53 276.23
  Q 192.65 274.91 190.43 273.77
  Q 188.53 272.79 186.57 273.65
  Q 171.93 280.03 157.47 273.72
  C 155.68 272.94 153.33 272.97 152.46 274.83
  A 0.77 0.76 -59.9 0 0 152.71 275.79"
/>
<path stroke="#fdebe4" vector-effect="non-scaling-stroke" d="
  M 198.54 295.75
  L 198.43 295.52
  Q 198.41 295.49 198.38 295.50
  C 193.20 296.67 151.66 305.19 150.71 306.75"
/>
<path stroke="#f4bca3" vector-effect="non-scaling-stroke" d="
  M 150.71 306.75
  C 149.13 305.83 124.65 312.06 120.64 312.96
  Q 119.80 313.15 120.41 313.76
  C 158.08 351.21 211.33 340.32 228.78 289.18
  Q 228.94 288.72 228.46 288.82
  L 199.56 295.23
  Q 199.19 295.31 198.87 295.52
  L 198.54 295.75"
/>
<path stroke="#f6d0be" vector-effect="non-scaling-stroke" d="
  M 150.71 306.75
  C 151.80 309.00 156.63 308.88 158.98 308.79
  Q 175.90 308.14 191.50 301.78
  Q 196.86 299.60 198.54 295.75"
/>
<path stroke="#fdc632" vector-effect="non-scaling-stroke" d="
  M 205.08 480.56
  C 207.95 487.53 217.83 493.55 224.99 495.84
  C 230.30 497.53 234.28 496.43 239.06 494.06
  C 245.01 491.11 256.57 483.84 254.61 476.19
  Q 252.50 467.94 249.58 459.93
  Q 246.82 452.32 250.14 445.28
  C 250.62 444.26 250.58 443.01 250.37 441.98
  A 0.80 0.79 -88.9 0 0 249.78 441.36
  Q 248.08 440.95 247.29 441.25
  C 234.17 446.22 223.51 444.68 210.41 440.96
  A 1.16 1.16 0.0 0 0 208.94 442.22
  C 209.55 447.28 212.47 451.73 210.80 457.02
  Q 207.92 466.14 204.89 475.46
  Q 204.05 478.04 205.08 480.56"
/>
<path stroke="#93832b" vector-effect="non-scaling-stroke" d="
  M 179.2339 611.0108
  A 2.06 2.06 0.0 0 0 177.1632 608.9616
  L 166.2833 609.0186
  A 2.06 2.06 0.0 0 0 164.2341 611.0893
  L 164.2661 617.1892
  A 2.06 2.06 0.0 0 0 166.3368 619.2384
  L 177.2167 619.1814
  A 2.06 2.06 0.0 0 0 179.2659 617.1107
  L 179.2339 611.0108"
/>
</g>
<path fill="#546c9c" d="
  M 299.21 148.50
  Q 297.17 145.82 293.31 145.16
  Q 294.17 140.94 293.66 136.20
  A 1.60 1.58 -76.2 0 0 292.98 135.06
  C 223.94 88.31 120.38 87.87 51.37 134.41
  Q 49.71 135.53 49.67 137.53
  L 49.50 145.46
  Q 46.04 146.17 44.19 148.60
  Q 35.65 141.55 26.10 136.06
  C 21.95 133.68 17.29 132.31 12.69 130.71
  Q 12.23 130.55 12.67 130.35
  Q 14.90 129.37 16.95 127.48
  Q 44.75 101.85 53.83 65.44
  A 1.48 1.45 78.1 0 1 54.34 64.64
  Q 56.44 62.90 60.06 61.31
  C 100.46 43.53 134.93 25.67 169.33 1.87
  Q 171.53 0.35 173.78 1.81
  C 182.79 7.66 192.48 14.18 201.29 19.46
  Q 239.16 42.17 279.80 59.55
  C 282.59 60.75 285.46 62.42 288.28 63.81
  Q 289.75 64.54 290.05 66.15
  C 294.81 91.20 307.54 117.71 331.12 131.30
  Q 331.55 131.54 331.06 131.61
  C 319.11 133.12 308.66 140.96 299.21 148.50
  Z
  M 151.19 73.06
  Q 159.01 80.03 167.62 82.55
  C 172.22 83.91 175.87 82.76 180.06 80.83
  C 185.74 78.21 198.79 69.88 196.29 62.25
  Q 190.97 45.96 190.28 42.95
  C 188.87 36.80 191.08 34.65 192.38 29.69
  Q 193.01 27.28 190.52 27.50
  Q 189.14 27.63 187.84 28.09
  C 175.57 32.46 165.69 31.15 153.45 27.73
  C 151.68 27.23 150.53 27.59 150.48 29.61
  Q 150.44 31.37 151.33 32.89
  C 155.35 39.73 149.81 52.12 147.29 59.09
  Q 144.41 67.03 151.19 73.06
  Z"
/>
<path fill="#ffdc28" d="
  M 151.19 73.06
  Q 144.41 67.03 147.29 59.09
  C 149.81 52.12 155.35 39.73 151.33 32.89
  Q 150.44 31.37 150.48 29.61
  C 150.53 27.59 151.68 27.23 153.45 27.73
  C 165.69 31.15 175.57 32.46 187.84 28.09
  Q 189.14 27.63 190.52 27.50
  Q 193.01 27.28 192.38 29.69
  C 191.08 34.65 188.87 36.80 190.28 42.95
  Q 190.97 45.96 196.29 62.25
  C 198.79 69.88 185.74 78.21 180.06 80.83
  C 175.87 82.76 172.22 83.91 167.62 82.55
  Q 159.01 80.03 151.19 73.06
  Z"
/>
<path fill="#2b3d61" d="
  M 293.31 145.16
  Q 282.50 150.34 287.93 161.32
  Q 289.62 164.72 294.00 165.04
  L 293.80 165.20
  A 0.80 0.77 -18.5 0 0 293.51 165.76
  L 292.96 176.50
  Q 290.99 176.46 289.50 177.71
  Q 278.48 184.63 266.71 190.65
  Q 264.50 190.80 263.62 192.26
  L 236.94 201.65
  Q 234.21 201.96 231.75 203.46
  Q 230.32 202.74 229.21 203.75
  Q 227.13 203.67 225.50 204.71
  L 202.25 208.54
  L 191.75 210.04
  Q 190.54 209.60 189.24 209.69
  Q 170.62 210.96 152.03 209.75
  L 142.00 208.87
  C 134.02 206.92 125.42 206.07 117.33 204.47
  Q 113.79 204.30 110.26 202.76
  Q 108.86 202.15 106.54 201.75
  Q 91.45 196.91 76.79 190.66
  L 50.03 175.47
  L 49.92 165.12
  Q 61.18 160.02 55.22 148.54
  Q 53.64 145.49 49.50 145.46
  L 49.67 137.53
  Q 49.71 135.53 51.37 134.41
  C 120.38 87.87 223.94 88.31 292.98 135.06
  A 1.60 1.58 -76.2 0 1 293.66 136.20
  Q 294.17 140.94 293.31 145.16
  Z"
/>
<path fill="#ffdc28" d="
  M 49.50 145.46
  Q 53.64 145.49 55.22 148.54
  Q 61.18 160.02 49.92 165.12
  C 41.72 162.12 42.30 155.63 44.19 148.60
  Q 46.04 146.17 49.50 145.46
  Z"
/>
<path fill="#ffdc28" d="
  M 293.31 145.16
  Q 297.17 145.82 299.21 148.50
  C 301.58 154.88 301.23 162.36 294.00 165.04
  Q 289.62 164.72 287.93 161.32
  Q 282.50 150.34 293.31 145.16
  Z"
/>
<path fill="#383838" d="
  M 50.03 175.47
  L 76.79 190.66
  Q 71.65 209.83 71.87 229.50
  C 71.99 240.51 73.01 250.89 70.29 261.75
  Q 70.10 262.52 70.00 262.60
  Q 69.22 263.28 69.09 262.25
  C 67.38 248.74 59.98 226.72 46.40 220.89
  C 45.24 203.72 46.50 192.87 50.03 175.47
  Z"
/>
<path fill="#383838" d="
  M 292.96 176.50
  Q 299.01 198.47 296.93 221.27
  C 283.46 220.02 274.78 243.86 272.78 253.52
  A 0.35 0.35 0.0 0 1 272.25 253.74
  C 265.97 249.50 268.51 237.86 268.98 229.00
  Q 269.86 212.25 263.62 192.26
  Q 264.50 190.80 266.71 190.65
  Q 271.35 191.88 276.04 191.34
  C 283.14 190.53 294.25 187.64 289.50 177.71
  Q 290.99 176.46 292.96 176.50
  Z"
/>
<path fill="#471e01" d="
  M 289.50 177.71
  C 294.25 187.64 283.14 190.53 276.04 191.34
  Q 271.35 191.88 266.71 190.65
  Q 278.48 184.63 289.50 177.71
  Z"
/>
<path fill="#fbd7c9" d="
  M 76.79 190.66
  Q 91.45 196.91 106.54 201.75
  L 101.78 204.99
  Q 98.56 207.19 102.14 208.72
  C 104.39 209.68 106.11 209.38 108.38 208.14
  Q 112.51 205.89 117.33 204.47
  C 125.42 206.07 134.02 206.92 142.00 208.87
  Q 146.74 213.85 152.03 209.75
  Q 170.62 210.96 189.24 209.69
  Q 190.54 209.60 191.75 210.04
  Q 197.55 213.49 202.25 208.54
  L 225.50 204.71
  Q 230.16 205.48 236.20 208.78
  Q 240.17 210.96 242.43 207.19
  A 0.79 0.78 43.5 0 0 242.40 206.34
  Q 240.34 203.29 236.94 201.65
  L 263.62 192.26
  Q 269.86 212.25 268.98 229.00
  C 268.51 237.86 265.97 249.50 272.25 253.74
  A 0.35 0.35 0.0 0 0 272.78 253.52
  C 274.78 243.86 283.46 220.02 296.93 221.27
  Q 304.56 223.31 305.98 230.03
  C 309.66 247.48 301.68 271.66 284.48 278.82
  A 1.61 1.60 85.0 0 0 283.53 279.96
  C 275.74 315.38 250.47 347.62 216.23 360.69
  Q 213.58 361.70 212.25 363.54
  Q 211.22 363.42 211.00 363.50
  Q 170.88 376.95 130.96 363.00
  Q 130.96 362.05 130.44 361.85
  C 93.05 347.24 68.33 317.83 59.69 279.20
  A 1.38 1.37 -76.7 0 0 59.20 278.40
  C 46.57 268.19 40.11 253.74 38.21 237.55
  C 37.43 230.92 38.26 222.25 46.40 220.89
  C 59.98 226.72 67.38 248.74 69.09 262.25
  Q 69.22 263.28 70.00 262.60
  Q 70.10 262.52 70.29 261.75
  C 73.01 250.89 71.99 240.51 71.87 229.50
  Q 71.65 209.83 76.79 190.66
  Z
  M 147.28 238.96
  C 149.66 235.28 143.00 233.16 140.51 232.65
  Q 130.12 230.54 119.91 233.26
  Q 118.89 233.53 117.92 233.94
  Q 113.47 235.80 114.86 238.71
  A 0.91 0.90 -23.4 0 0 116.02 239.16
  Q 131.27 233.08 146.53 239.19
  A 0.62 0.62 0.0 0 0 147.28 238.96
  Z
  M 230.15 239.16
  C 233.40 235.84 226.84 233.48 224.99 233.03
  Q 214.79 230.58 204.56 232.82
  C 201.71 233.45 196.51 235.22 198.19 238.82
  A 0.92 0.91 62.0 0 0 199.48 239.22
  C 206.66 234.97 222.13 235.18 229.35 239.27
  A 0.66 0.65 -52.5 0 0 230.15 239.16
  Z
  M 152.71 275.79
  C 164.00 283.86 179.05 283.34 190.53 276.23
  Q 192.65 274.91 190.43 273.77
  Q 188.53 272.79 186.57 273.65
  Q 171.93 280.03 157.47 273.72
  C 155.68 272.94 153.33 272.97 152.46 274.83
  A 0.77 0.76 -59.9 0 0 152.71 275.79
  Z
  M 198.54 295.75
  L 198.43 295.52
  Q 198.41 295.49 198.38 295.50
  C 193.20 296.67 151.66 305.19 150.71 306.75
  C 149.13 305.83 124.65 312.06 120.64 312.96
  Q 119.80 313.15 120.41 313.76
  C 158.08 351.21 211.33 340.32 228.78 289.18
  Q 228.94 288.72 228.46 288.82
  L 199.56 295.23
  Q 199.19 295.31 198.87 295.52
  L 198.54 295.75
  Z"
/>
<path fill="#471e01" d="
  M 106.54 201.75
  Q 108.86 202.15 110.26 202.76
  Q 113.79 204.30 117.33 204.47
  Q 112.51 205.89 108.38 208.14
  C 106.11 209.38 104.39 209.68 102.14 208.72
  Q 98.56 207.19 101.78 204.99
  L 106.54 201.75
  Z"
/>
<path fill="#471e01" d="
  M 236.94 201.65
  Q 240.34 203.29 242.40 206.34
  A 0.79 0.78 43.5 0 1 242.43 207.19
  Q 240.17 210.96 236.20 208.78
  Q 230.16 205.48 225.50 204.71
  Q 227.13 203.67 229.21 203.75
  Q 230.54 204.25 231.75 203.46
  Q 234.21 201.96 236.94 201.65
  Z"
/>
<path fill="#546c9c" d="
  M 231.75 203.46
  Q 230.54 204.25 229.21 203.75
  Q 230.32 202.74 231.75 203.46
  Z"
/>
<path fill="#471e01" d="
  M 152.03 209.75
  Q 146.74 213.85 142.00 208.87
  L 152.03 209.75
  Z"
/>
<path fill="#471e01" d="
  M 202.25 208.54
  Q 197.55 213.49 191.75 210.04
  L 202.25 208.54
  Z"
/>
<path fill="#383838" d="
  M 140.51 232.65
  C 143.00 233.16 149.66 235.28 147.28 238.96
  A 0.62 0.62 0.0 0 1 146.53 239.19
  Q 131.27 233.08 116.02 239.16
  A 0.91 0.90 -23.4 0 1 114.86 238.71
  Q 113.47 235.80 117.92 233.94
  Q 118.89 233.53 119.91 233.26
  Q 130.12 230.54 140.51 232.65
  Z"
/>
<path fill="#383838" d="
  M 224.99 233.03
  C 226.84 233.48 233.40 235.84 230.15 239.16
  A 0.66 0.65 -52.5 0 1 229.35 239.27
  C 222.13 235.18 206.66 234.97 199.48 239.22
  A 0.92 0.91 62.0 0 1 198.19 238.82
  C 196.51 235.22 201.71 233.45 204.56 232.82
  Q 214.79 230.58 224.99 233.03
  Z"
/>
<path fill="#e6b685" d="
  M 152.71 275.79
  A 0.77 0.76 -59.9 0 1 152.46 274.83
  C 153.33 272.97 155.68 272.94 157.47 273.72
  Q 171.93 280.03 186.57 273.65
  Q 188.53 272.79 190.43 273.77
  Q 192.65 274.91 190.53 276.23
  C 179.05 283.34 164.00 283.86 152.71 275.79
  Z"
/>
<path fill="#eda17d" d="
  M 150.71 306.75
  C 151.80 309.00 156.63 308.88 158.98 308.79
  Q 175.90 308.14 191.50 301.78
  Q 196.86 299.60 198.54 295.75
  L 198.87 295.52
  Q 199.19 295.31 199.56 295.23
  L 228.46 288.82
  Q 228.94 288.72 228.78 289.18
  C 211.33 340.32 158.08 351.21 120.41 313.76
  Q 119.80 313.15 120.64 312.96
  C 124.65 312.06 149.13 305.83 150.71 306.75
  Z"
/>
<path fill="#ffffff" d="
  M 198.54 295.75
  Q 196.86 299.60 191.50 301.78
  Q 175.90 308.14 158.98 308.79
  C 156.63 308.88 151.80 309.00 150.71 306.75
  C 151.66 305.19 193.20 296.67 198.38 295.50
  Q 198.41 295.49 198.43 295.52
  L 198.54 295.75
  Z"
/>
<path fill="#fbd7c9" d="
  M 82.45 400.26
  C 81.41 410.33 79.14 420.98 82.46 428.75
  C 84.87 435.84 93.08 436.48 99.44 435.71
  Q 110.99 434.30 122.56 433.05
  Q 125.85 432.70 129.75 433.30
  C 147.91 436.13 131.74 454.49 139.46 463.90
  Q 139.78 464.29 139.87 464.78
  C 140.85 470.28 139.70 476.06 139.15 481.56
  C 138.54 487.58 138.71 492.72 139.55 498.34
  C 140.80 506.73 132.73 513.84 132.05 523.41
  Q 130.40 532.87 125.46 540.87
  C 122.58 543.13 120.30 545.65 117.19 547.53
  Q 114.96 548.89 112.75 550.29
  Q 111.23 549.62 110.00 550.46
  L 97.00 548.46
  L 97.70 548.20
  Q 98.01 548.09 97.68 548.08
  L 93.25 547.96
  C 86.96 546.95 81.10 544.97 74.73 543.83
  Q 70.19 543.02 65.85 541.66
  C 48.72 533.86 31.55 528.10 21.10 512.36
  C 18.80 508.89 18.00 504.93 15.46 503.00
  C 12.14 471.32 25.71 452.26 45.77 430.27
  C 50.91 424.63 55.98 418.23 56.75 410.54
  C 60.38 406.19 61.08 397.49 60.95 392.03
  C 60.75 383.29 60.66 370.99 66.48 364.37
  C 68.80 361.74 72.24 361.88 75.37 362.44
  A 2.14 2.12 80.7 0 1 76.87 363.53
  C 79.84 369.03 81.42 373.82 81.67 380.44
  Q 82.04 390.35 82.45 400.26
  Z"
/>
<path fill="#e6b685" d="
  M 130.96 363.00
  Q 170.88 376.95 211.00 363.50
  Q 211.22 363.42 212.25 363.54
  Q 212.63 364.60 212.48 365.71
  Q 210.99 380.70 198.19 386.48
  Q 176.73 396.16 152.87 388.43
  C 141.80 384.84 131.80 376.97 130.46 364.75
  L 130.96 363.00
  Z"
/>
<path fill="#546c9c" d="
  M 130.46 364.75
  C 131.80 376.97 141.80 384.84 152.87 388.43
  Q 176.73 396.16 198.19 386.48
  Q 210.99 380.70 212.48 365.71
  Q 215.03 369.49 215.67 372.63
  Q 204.62 391.16 194.54 410.63
  Q 184.91 402.81 175.86 394.58
  C 173.64 392.57 172.20 392.51 170.07 394.59
  Q 166.66 397.92 147.29 412.75
  L 125.71 373.50
  Q 128.69 369.48 130.46 364.75
  Z"
/>
<path fill="#ffdc28" d="
  M 215.67 372.63
  Q 225.36 376.70 228.94 381.81
  Q 231.58 385.60 233.25 386.96
  Q 233.00 388.83 234.79 389.75
  C 235.00 390.42 235.17 391.04 235.64 391.60
  C 249.96 408.22 258.78 427.77 265.39 448.81
  C 265.54 449.29 265.96 449.80 266.25 450.21
  Q 265.41 451.30 266.25 452.29
  Q 271.39 470.53 274.50 492.00
  Q 275.02 495.59 274.96 497.25
  L 251.75 506.29
  Q 249.37 507.02 247.08 507.94
  Q 211.48 522.16 175.75 536.04
  L 170.35 460.07
  Q 170.31 459.54 170.27 460.07
  L 164.96 535.75
  L 164.43 535.85
  A 1.69 1.69 0.0 0 1 163.48 535.75
  L 132.05 523.41
  C 132.73 513.84 140.80 506.73 139.55 498.34
  C 138.71 492.72 138.54 487.58 139.15 481.56
  C 139.70 476.06 140.85 470.28 139.87 464.78
  Q 139.78 464.29 139.46 463.90
  C 131.74 454.49 147.91 436.13 129.75 433.30
  Q 125.85 432.70 122.56 433.05
  Q 110.99 434.30 99.44 435.71
  C 93.08 436.48 84.87 435.84 82.46 428.75
  Q 89.54 411.76 100.25 396.79
  C 105.23 393.05 107.38 387.51 110.72 383.00
  Q 116.31 375.48 125.71 373.50
  L 147.29 412.75
  L 169.98 454.51
  Q 170.32 455.12 170.64 454.51
  L 178.75 439.29
  L 186.68 424.64
  L 194.54 410.63
  Q 204.62 391.16 215.67 372.63
  Z
  M 205.08 480.56
  C 207.95 487.53 217.83 493.55 224.99 495.84
  C 230.30 497.53 234.28 496.43 239.06 494.06
  C 245.01 491.11 256.57 483.84 254.61 476.19
  Q 252.50 467.94 249.58 459.93
  Q 246.82 452.32 250.14 445.28
  C 250.62 444.26 250.58 443.01 250.37 441.98
  A 0.80 0.79 -88.9 0 0 249.78 441.36
  Q 248.08 440.95 247.29 441.25
  C 234.17 446.22 223.51 444.68 210.41 440.96
  A 1.16 1.16 0.0 0 0 208.94 442.22
  C 209.55 447.28 212.47 451.73 210.80 457.02
  Q 207.92 466.14 204.89 475.46
  Q 204.05 478.04 205.08 480.56
  Z"
/>
<path fill="#fbd7c9" d="
  M 233.25 386.96
  Q 234.19 387.91 235.46 388.00
  L 234.79 389.75
  Q 233.00 388.83 233.25 386.96
  Z"
/>
<path fill="#546c9c" d="
  M 342.77 569.54
  Q 326.06 572.27 309.24 574.11
  Q 307.87 574.26 306.50 574.21
  Q 306.75 571.58 306.54 570.24
  C 300.26 529.71 292.24 487.05 268.66 452.66
  C 268.30 452.14 267.83 451.99 267.25 451.96
  L 267.50 451.73
  A 0.30 0.30 0.0 0 0 267.49 451.28
  L 266.25 450.21
  C 265.96 449.80 265.54 449.29 265.39 448.81
  C 258.78 427.77 249.96 408.22 235.64 391.60
  C 235.17 391.04 235.00 390.42 234.79 389.75
  L 235.46 388.00
  L 236.03 387.68
  A 1.06 1.03 41.8 0 1 236.94 387.64
  C 239.88 388.87 242.80 388.69 245.51 389.92
  Q 256.26 394.79 264.19 399.55
  C 295.68 418.45 314.21 453.08 325.06 486.93
  Q 337.98 527.22 342.77 569.54
  Z"
/>
<path fill="#2b3d61" d="
  M 194.54 410.63
  L 186.68 424.64
  Q 172.30 419.22 157.95 424.57
  A 0.88 0.88 0.0 0 0 157.38 425.30
  Q 157.21 426.99 158.28 428.45
  A 0.52 0.51 -35.9 0 0 159.00 428.56
  Q 160.28 427.66 161.87 428.07
  A 1.15 1.12 -4.3 0 1 162.61 428.69
  C 163.39 430.33 165.86 437.46 168.49 435.61
  A 1.37 1.34 -13.6 0 0 169.04 434.73
  L 170.34 426.71
  Q 170.73 424.33 172.44 426.02
  C 176.14 429.69 173.04 436.71 178.75 439.29
  L 170.64 454.51
  Q 170.32 455.12 169.98 454.51
  L 147.29 412.75
  Q 166.66 397.92 170.07 394.59
  C 172.20 392.51 173.64 392.57 175.86 394.58
  Q 184.91 402.81 194.54 410.63
  Z"
/>
<path fill="#546c9c" d="
  M 100.25 396.79
  Q 89.54 411.76 82.46 428.75
  C 79.14 420.98 81.41 410.33 82.45 400.26
  Q 88.44 399.30 98.25 396.75
  Q 98.56 396.67 100.25 396.79
  Z"
/>
<path fill="#546c9c" d="
  M 56.75 410.54
  C 55.98 418.23 50.91 424.63 45.77 430.27
  C 25.71 452.26 12.14 471.32 15.46 503.00
  C 3.82 490.42 -2.45 476.57 2.17 459.18
  C 8.56 435.12 34.30 419.82 55.41 410.61
  C 55.84 410.43 56.31 410.50 56.75 410.54
  Z"
/>
<path fill="#26292e" d="
  M 186.68 424.64
  L 178.75 439.29
  C 173.04 436.71 176.14 429.69 172.44 426.02
  Q 170.73 424.33 170.34 426.71
  L 169.04 434.73
  A 1.37 1.34 -13.6 0 1 168.49 435.61
  C 165.86 437.46 163.39 430.33 162.61 428.69
  A 1.15 1.12 -4.3 0 0 161.87 428.07
  Q 160.28 427.66 159.00 428.56
  A 0.52 0.51 -35.9 0 1 158.28 428.45
  Q 157.21 426.99 157.38 425.30
  A 0.88 0.88 0.0 0 1 157.95 424.57
  Q 172.30 419.22 186.68 424.64
  Z"
/>
<path fill="#fbb03b" d="
  M 224.99 495.84
  C 217.83 493.55 207.95 487.53 205.08 480.56
  Q 204.05 478.04 204.89 475.46
  Q 207.92 466.14 210.80 457.02
  C 212.47 451.73 209.55 447.28 208.94 442.22
  A 1.16 1.16 0.0 0 1 210.41 440.96
  C 223.51 444.68 234.17 446.22 247.29 441.25
  Q 248.08 440.95 249.78 441.36
  A 0.80 0.79 -88.9 0 1 250.37 441.98
  C 250.58 443.01 250.62 444.26 250.14 445.28
  Q 246.82 452.32 249.58 459.93
  Q 252.50 467.94 254.61 476.19
  C 256.57 483.84 245.01 491.11 239.06 494.06
  C 234.28 496.43 230.30 497.53 224.99 495.84
  Z"
/>
<path fill="#fbd7c9" d="
  M 266.25 450.21
  L 267.49 451.28
  A 0.30 0.30 0.0 0 1 267.50 451.73
  L 267.25 451.96
  L 266.25 452.29
  Q 265.41 451.30 266.25 450.21
  Z"
/>
<path fill="#2b3d61" d="
  M 175.75 536.04
  L 175.29 537.25
  C 175.36 537.97 176.19 553.65 176.75 553.71
  L 177.04 556.00
  L 178.25 569.71
  Q 177.87 580.41 179.46 591.00
  L 179.46 593.52
  C 173.01 600.10 167.10 594.11 162.98 589.07
  A 1.33 1.31 74.9 0 0 162.16 588.59
  L 161.54 588.50
  L 162.91 570.35
  A 0.33 0.33 0.0 0 0 162.58 569.99
  L 162.29 570.00
  L 162.25 569.79
  L 162.49 569.64
  A 0.47 0.46 74.8 0 0 162.70 569.27
  L 163.46 555.75
  L 164.96 535.75
  L 170.27 460.07
  Q 170.31 459.54 170.35 460.07
  L 175.75 536.04
  Z"
/>
<path fill="#ffffff" d="
  M 274.96 497.25
  L 277.21 517.50
  C 276.53 517.50 275.95 517.42 275.29 517.68
  Q 226.17 536.85 177.04 556.00
  L 176.75 553.71
  L 176.00 537.29
  Q 177.06 536.53 178.30 536.03
  Q 215.11 521.37 251.75 506.29
  L 274.96 497.25
  Z"
/>
<path fill="#ffdc28" d="
  M 277.21 517.50
  Q 277.99 523.85 277.71 530.25
  Q 255.71 538.67 248.19 541.94
  Q 245.30 543.19 244.50 543.29
  Q 240.54 543.17 238.00 546.04
  Q 209.66 557.22 181.44 568.69
  Q 180.62 569.02 178.25 569.71
  L 177.04 556.00
  Q 226.17 536.85 275.29 517.68
  C 275.95 517.42 276.53 517.50 277.21 517.50
  Z"
/>
<path fill="#ffffff" d="
  M 132.05 523.41
  L 163.48 535.75
  A 1.69 1.69 0.0 0 0 164.43 535.85
  L 164.96 535.75
  L 163.46 555.75
  L 125.46 540.87
  Q 130.40 532.87 132.05 523.41
  Z"
/>
<path fill="#ffffff" d="
  M 277.71 530.25
  L 278.00 553.46
  Q 276.54 553.60 275.16 554.12
  Q 227.21 572.31 179.46 591.00
  Q 177.87 580.41 178.25 569.71
  Q 180.62 569.02 181.44 568.69
  Q 209.66 557.22 238.00 546.04
  L 244.50 543.29
  Q 245.30 543.19 248.19 541.94
  Q 255.71 538.67 277.71 530.25
  Z"
/>
<path fill="#26292e" d="
  M 175.29 537.25
  L 176.00 537.29
  L 176.75 553.71
  C 176.19 553.65 175.36 537.97 175.29 537.25
  Z"
/>
<path fill="#ffffff" d="
  M 65.85 541.66
  Q 70.19 543.02 74.73 543.83
  C 81.10 544.97 86.96 546.95 93.25 547.96
  L 97.00 548.46
  L 110.00 550.46
  Q 112.68 551.07 115.23 552.04
  Q 132.18 558.52 149.21 564.75
  L 162.25 569.79
  L 162.29 570.00
  L 160.29 589.75
  Q 159.88 590.21 159.30 589.98
  Q 110.68 570.48 61.96 551.25
  L 62.06 541.54
  A 0.44 0.43 -85.0 0 1 62.57 541.11
  L 65.85 541.66
  Z"
/>
<path fill="#ffdc28" d="
  M 125.46 540.87
  L 163.46 555.75
  L 162.70 569.27
  A 0.47 0.46 74.8 0 1 162.49 569.64
  L 162.25 569.79
  L 149.21 564.75
  Q 148.51 564.34 147.77 564.05
  Q 130.28 557.12 112.75 550.29
  Q 114.96 548.89 117.19 547.53
  C 120.30 545.65 122.58 543.13 125.46 540.87
  Z"
/>
<path fill="#546c9c" d="
  M 97.00 548.46
  L 93.25 547.96
  L 97.68 548.08
  Q 98.01 548.09 97.70 548.20
  L 97.00 548.46
  Z"
/>
<path fill="#ffdc28" d="
  M 61.96 551.25
  Q 110.68 570.48 159.30 589.98
  Q 159.88 590.21 160.29 589.75
  L 161.25 590.04
  L 160.29 607.50
  L 158.79 626.44
  A 0.64 0.64 0.0 0 1 157.86 626.96
  L 131.29 612.95
  L 85.54 588.50
  L 63.13 576.29
  A 0.95 0.95 0.0 0 1 62.64 575.55
  Q 61.65 563.41 61.96 551.25
  Z"
/>
<path fill="#ffdc28" d="
  M 278.00 553.46
  Q 278.97 564.13 277.67 575.61
  A 1.36 1.36 0.0 0 1 276.98 576.64
  L 257.96 587.00
  L 207.75 613.71
  L 182.84 626.91
  A 0.71 0.71 0.0 0 1 181.80 626.33
  L 181.49 621.03
  Q 181.45 620.39 180.95 620.79
  C 177.88 623.28 169.65 622.23 165.83 622.02
  C 159.34 621.66 160.88 612.46 161.96 608.00
  C 164.72 604.52 177.58 606.13 180.12 606.37
  A 0.41 0.41 0.0 0 0 180.57 605.92
  L 179.46 593.52
  L 179.46 591.00
  Q 227.21 572.31 275.16 554.12
  Q 276.54 553.60 278.00 553.46
  Z
  M 179.2339 611.0108
  A 2.06 2.06 0.0 0 0 177.1632 608.9616
  L 166.2833 609.0186
  A 2.06 2.06 0.0 0 0 164.2341 611.0893
  L 164.2661 617.1892
  A 2.06 2.06 0.0 0 0 166.3368 619.2384
  L 177.2167 619.1814
  A 2.06 2.06 0.0 0 0 179.2659 617.1107
  L 179.2339 611.0108
  Z"
/>
<path fill="#fbd7c9" d="
  M 342.77 569.54
  Q 342.63 571.53 344.12 572.06
  A 1.45 1.43 82.6 0 1 344.85 572.63
  C 354.45 586.77 358.09 606.41 357.99 623.19
  Q 357.97 626.89 355.31 628.75
  Q 353.50 630.01 352.61 628.00
  C 350.27 622.70 351.09 606.76 346.58 604.35
  Q 345.28 603.65 344.59 603.87
  Q 342.68 604.47 342.94 606.46
  Q 344.60 619.12 345.97 631.50
  C 346.37 635.11 345.76 639.38 341.74 640.59
  A 1.04 1.04 0.0 0 1 340.84 640.43
  C 336.70 637.39 337.27 620.21 337.26 614.78
  Q 337.25 612.72 335.47 611.69
  Q 333.65 610.64 331.60 611.26
  A 1.18 1.15 1.4 0 0 330.86 611.95
  C 328.52 618.14 334.07 642.98 326.84 644.65
  Q 324.57 645.17 323.79 642.97
  Q 322.81 640.17 322.73 637.99
  C 322.40 628.85 323.25 619.76 322.46 610.70
  Q 322.29 608.75 320.38 608.31
  C 317.36 607.62 315.98 610.34 315.81 613.04
  Q 315.24 622.64 314.44 632.25
  Q 314.11 636.33 311.27 636.56
  Q 308.43 636.79 307.99 633.97
  C 306.36 623.39 308.14 611.65 307.52 601.99
  C 307.29 598.23 302.70 592.94 299.36 598.36
  Q 296.39 603.17 293.30 607.41
  A 1.54 1.53 43.2 0 1 290.87 607.48
  C 285.04 600.41 301.49 579.21 306.50 574.21
  Q 307.87 574.26 309.24 574.11
  Q 326.06 572.27 342.77 569.54
  Z"
/>
<path fill="#26292e" d="
  M 257.96 587.00
  L 258.46 592.25
  C 257.88 592.20 257.51 592.17 257.02 592.55
  C 242.52 604.02 227.02 609.95 209.23 614.42
  Q 208.17 614.69 207.75 613.71
  L 257.96 587.00
  Z"
/>
<path fill="#26292e" d="
  M 85.54 588.50
  L 131.29 612.95
  Q 127.27 612.75 119.77 610.22
  Q 100.61 603.77 87.20 592.86
  A 0.82 0.81 53.8 0 0 86.39 592.73
  L 85.04 593.24
  L 85.54 588.50
  Z"
/>
<path fill="#546c9c" d="
  M 161.54 588.50
  L 162.16 588.59
  A 1.33 1.31 74.9 0 1 162.98 589.07
  C 167.10 594.11 173.01 600.10 179.46 593.52
  L 180.57 605.92
  A 0.41 0.41 0.0 0 1 180.12 606.37
  C 177.58 606.13 164.72 604.52 161.96 608.00
  L 160.29 607.50
  L 161.25 590.04
  L 161.54 588.50
  Z"
/>
<path fill="#2b3d61" d="
  M 258.46 592.25
  C 258.67 599.17 258.60 606.03 259.26 612.92
  C 259.49 615.39 258.78 617.89 258.77 620.03
  Q 258.53 671.37 243.51 720.43
  Q 237.51 740.04 227.04 760.02
  Q 226.62 760.81 227.73 761.12
  Q 198.46 771.50 180.54 796.99
  Q 183.86 763.53 183.74 730.55
  C 183.74 729.90 184.19 728.88 184.19 728.44
  Q 184.00 690.48 183.76 651.63
  A 0.26 0.26 0.0 0 0 183.42 651.38
  Q 172.42 654.83 161.19 651.71
  Q 159.19 651.15 159.15 653.23
  C 158.93 665.84 158.28 679.18 158.21 690.28
  C 157.98 727.59 159.50 761.51 163.96 798.75
  Q 163.70 799.07 163.38 799.17
  A 0.58 0.58 0.0 0 1 162.66 798.83
  Q 161.54 795.97 160.70 794.77
  Q 143.69 770.51 115.50 761.04
  Q 116.55 760.50 116.03 759.48
  C 89.96 708.29 82.30 650.19 85.04 593.24
  L 86.39 592.73
  A 0.82 0.81 53.8 0 1 87.20 592.86
  Q 100.61 603.77 119.77 610.22
  Q 127.27 612.75 131.29 612.95
  L 157.86 626.96
  A 0.64 0.64 0.0 0 0 158.79 626.44
  L 160.29 607.50
  L 161.96 608.00
  C 160.88 612.46 159.34 621.66 165.83 622.02
  C 169.65 622.23 177.88 623.28 180.95 620.79
  Q 181.45 620.39 181.49 621.03
  L 181.80 626.33
  A 0.71 0.71 0.0 0 0 182.84 626.91
  L 207.75 613.71
  Q 208.17 614.69 209.23 614.42
  C 227.02 609.95 242.52 604.02 257.02 592.55
  C 257.51 592.17 257.88 592.20 258.46 592.25
  Z"
/>
<rect fill="#26292e" x="-7.50" y="-5.11" transform="translate(171.75,614.10) rotate(-0.3)" width="15.00" height="10.22" rx="2.06"/>
<path fill="#26292e" d="
  M 115.50 761.04
  Q 143.69 770.51 160.70 794.77
  Q 161.54 795.97 162.66 798.83
  A 0.58 0.58 0.0 0 0 163.38 799.17
  Q 163.70 799.07 163.96 798.75
  L 164.02 799.74
  Q 164.14 801.77 162.11 801.79
  Q 108.12 802.17 54.75 801.95
  Q 51.43 801.94 48.86 801.24
  A 1.17 1.16 83.2 0 1 48.13 800.66
  C 44.59 794.16 50.94 777.91 54.95 772.31
  C 69.19 752.40 95.06 755.92 115.50 761.04
  Z"
/>
<path fill="#26292e" d="
  M 180.54 796.99
  Q 198.46 771.50 227.73 761.12
  Q 233.18 759.88 238.53 758.68
  C 259.08 754.06 282.43 757.54 292.06 778.53
  C 294.71 784.29 296.34 792.30 296.08 798.55
  Q 295.93 802.01 292.46 802.01
  L 183.75 801.93
  Q 181.47 801.92 180.01 799.99
  Q 179.14 798.84 180.54 796.99
  Z"
/>
</svg>
