<?xml version="1.0" encoding="UTF-8" standalone="no"?>
<!DOCTYPE svg PUBLIC "-//W3C//DTD SVG 1.1//EN" "http://www.w3.org/Graphics/SVG/1.1/DTD/svg11.dtd">
<svg xmlns="http://www.w3.org/2000/svg" version="1.1" viewBox="0 0 327 807">
<g stroke-width="2.00" fill="none" stroke-linecap="butt">
<path stroke="#aaa462" vector-effect="non-scaling-stroke" d="
  M 289.96 148.50
  Q 288.03 146.04 285.00 145.46"
/>
<path stroke="#40557f" vector-effect="non-scaling-stroke" d="
  M 285.00 145.46
  Q 284.10 141.28 284.60 136.92
  A 1.77 1.77 0.0 0 0 283.84 135.26
  C 215.29 88.08 110.24 87.85 41.48 134.90
  A 2.36 2.35 73.6 0 0 40.45 136.79
  L 40.24 145.15"
/>
<path stroke="#aaa462" vector-effect="non-scaling-stroke" d="
  M 40.24 145.15
  Q 36.51 146.17 34.79 148.75"
/>
<path stroke="#958d45" vector-effect="non-scaling-stroke" d="
  M 285.00 145.46
  C 274.70 145.43 274.35 164.16 284.21 164.75"
/>
<path stroke="#323b4d" vector-effect="non-scaling-stroke" d="
  M 283.50 175.04
  L 280.13 177.68"
/>
<path stroke="#392e31" vector-effect="non-scaling-stroke" d="
  M 280.13 177.68
  Q 268.78 184.95 256.96 190.75"
/>
<path stroke="#323b4d" vector-effect="non-scaling-stroke" d="
  M 256.96 190.75
  L 254.24 192.14"
/>
<path stroke="#938a95" vector-effect="non-scaling-stroke" d="
  M 254.24 192.14
  L 227.46 201.75"
/>
<path stroke="#392e31" vector-effect="non-scaling-stroke" d="
  M 227.46 201.75
  Q 224.34 201.96 221.79 204.05
  A 1.80 1.79 40.7 0 1 219.74 204.20
  Q 218.15 203.25 216.96 204.75"
/>
<path stroke="#938a95" vector-effect="non-scaling-stroke" d="
  M 216.96 204.75
  L 193.00 208.71"
/>
<path stroke="#392e31" vector-effect="non-scaling-stroke" d="
  M 193.00 208.71
  L 182.47 209.77"
/>
<path stroke="#938a95" vector-effect="non-scaling-stroke" d="
  M 182.47 209.77
  Q 164.13 210.91 145.75 209.75
  Q 144.18 209.65 142.79 209.88"
/>
<path stroke="#392e31" vector-effect="non-scaling-stroke" d="
  M 142.79 209.88
  L 131.77 208.48"
/>
<path stroke="#938a95" vector-effect="non-scaling-stroke" d="
  M 131.77 208.48
  L 108.05 204.50"
/>
<path stroke="#392e31" vector-effect="non-scaling-stroke" d="
  M 108.05 204.50
  Q 106.34 203.52 104.24 204.15
  A 1.19 1.14 50.6 0 1 103.33 204.04
  Q 100.48 202.39 97.29 201.75"
/>
<path stroke="#938a95" vector-effect="non-scaling-stroke" d="
  M 97.29 201.75
  Q 82.05 196.87 67.37 190.57"
/>
<path stroke="#323b4d" vector-effect="non-scaling-stroke" d="
  M 67.37 190.57
  Q 54.93 184.26 43.22 176.61
  C 42.50 176.14 41.75 176.06 40.96 175.75"
/>
<path stroke="#958d45" vector-effect="non-scaling-stroke" d="
  M 40.50 165.04
  Q 45.25 164.32 46.81 160.07
  Q 50.89 148.95 40.24 145.15"
/>
<path stroke="#9a8881" vector-effect="non-scaling-stroke" d="
  M 287.46 220.75
  C 273.47 222.78 265.65 241.49 263.52 253.54
  A 0.31 0.31 0.0 0 1 263.03 253.74
  Q 257.90 250.03 258.67 243.74
  Q 261.92 217.00 254.24 192.14"
/>
<path stroke="#402b1d" vector-effect="non-scaling-stroke" d="
  M 256.96 190.75
  L 257.00 191.01
  A 0.09 0.09 0.0 0 0 257.07 191.08
  C 263.03 191.84 274.99 191.69 279.28 186.84
  Q 282.40 183.32 280.13 177.68"
/>
<path stroke="#9a8881" vector-effect="non-scaling-stroke" d="
  M 67.37 190.57
  C 63.17 207.25 61.92 223.45 62.86 240.44
  C 63.04 243.73 62.64 261.50 60.34 263.01
  A 0.35 0.35 0.0 0 1 59.80 262.76
  C 58.25 248.88 51.17 227.56 37.00 220.96"
/>
<path stroke="#a17b65" vector-effect="non-scaling-stroke" d="
  M 97.29 201.75
  L 92.64 204.72
  Q 90.79 205.90 91.98 207.74
  C 93.27 209.76 96.15 209.58 98.23 208.49
  Q 102.85 206.08 108.05 204.50"
/>
<path stroke="#a17b65" vector-effect="non-scaling-stroke" d="
  M 131.77 208.48
  Q 136.91 213.67 142.79 209.88"
/>
<path stroke="#a17b65" vector-effect="non-scaling-stroke" d="
  M 182.47 209.77
  C 186.15 213.55 189.51 210.79 193.00 208.71"
/>
<path stroke="#a17b65" vector-effect="non-scaling-stroke" d="
  M 216.96 204.75
  Q 222.03 205.86 226.52 208.40
  C 228.70 209.63 233.46 209.99 233.08 206.26
  A 1.41 1.40 19.6 0 0 232.66 205.39
  Q 230.39 203.15 227.46 201.75"
/>
<path stroke="#f1c7a7" vector-effect="non-scaling-stroke" d="
  M 202.96 363.00
  Q 161.89 377.49 121.00 362.54"
/>
<path stroke="#9d9191" vector-effect="non-scaling-stroke" d="
  M 203.29 365.25
  C 200.91 398.80 143.84 396.98 127.37 378.54
  Q 122.41 372.99 120.79 365.25"
/>
<path stroke="#aaa462" vector-effect="non-scaling-stroke" d="
  M 207.50 373.21
  C 206.83 373.69 206.52 373.68 206.08 374.49
  Q 195.81 393.37 185.54 412.25"
/>
<path stroke="#40557f" vector-effect="non-scaling-stroke" d="
  M 185.54 412.25
  C 185.38 411.61 185.13 410.84 184.61 410.38
  Q 174.93 401.93 165.17 393.50
  Q 163.79 392.30 162.35 393.44
  L 139.00 412.04"
/>
<path stroke="#aaa462" vector-effect="non-scaling-stroke" d="
  M 139.00 412.04
  L 117.19 372.95"
/>
<path stroke="#958d45" vector-effect="non-scaling-stroke" d="
  M 139.00 412.04
  L 162.05 454.74
  Q 162.30 455.20 162.55 454.74
  L 185.54 412.25"
/>
<path stroke="#aaa462" vector-effect="non-scaling-stroke" d="
  M 232.41 396.85
  C 244.23 413.57 250.61 429.68 258.00 449.92"
/>
<path stroke="#aaa462" vector-effect="non-scaling-stroke" d="
  M 267.04 492.25
  L 267.29 497.00"
/>
<path stroke="#feeb8f" vector-effect="non-scaling-stroke" d="
  M 267.29 497.00
  L 167.78 536.13"
/>
<path stroke="#958d45" vector-effect="non-scaling-stroke" d="
  M 167.78 536.13
  L 162.47 460.06
  Q 162.44 459.56 162.36 460.05
  Q 161.94 462.64 161.77 465.25
  Q 159.43 500.78 156.75 536.29"
/>
<path stroke="#feeb8f" vector-effect="non-scaling-stroke" d="
  M 156.75 536.29
  L 57.25 497.21"
/>
<path stroke="#aaa462" vector-effect="non-scaling-stroke" d="
  M 57.25 497.21
  L 57.42 494.19
  A 1.65 1.61 -58.8 0 0 57.21 493.28
  Q 56.75 492.47 57.00 492.33"
/>
<path stroke="#aaa462" vector-effect="non-scaling-stroke" d="
  M 66.82 449.02
  Q 69.86 440.85 73.23 432.13
  Q 80.49 413.36 92.23 396.64"
/>
<path stroke="#a8b3c9" vector-effect="non-scaling-stroke" d="
  M 57.25 497.21
  Q 55.56 506.91 55.29 516.75"
/>
<path stroke="#aaa462" vector-effect="non-scaling-stroke" d="
  M 55.29 516.75
  L 54.29 529.00"
/>
<path stroke="#a8b3c9" vector-effect="non-scaling-stroke" d="
  M 54.29 529.00
  L 53.71 532.50"
/>
<path stroke="#949cac" vector-effect="non-scaling-stroke" d="
  M 167.78 536.13
  L 169.04 556.00"
/>
<path stroke="#958d45" vector-effect="non-scaling-stroke" d="
  M 169.04 556.00
  L 169.79 567.75"
/>
<path stroke="#949cac" vector-effect="non-scaling-stroke" d="
  M 169.79 567.75
  L 169.94 570.75"
/>
<path stroke="#949cac" vector-effect="non-scaling-stroke" d="
  M 171.37 589.77
  L 171.50 592.75"
/>
<path stroke="#40557f" vector-effect="non-scaling-stroke" d="
  M 171.50 592.75
  L 170.72 592.76
  A 1.00 1.00 0.0 0 0 169.92 593.19
  C 165.13 600.15 158.48 594.79 154.90 590.40
  A 1.02 1.00 67.7 0 0 154.07 590.04
  Q 153.68 590.06 153.29 590.25"
/>
<path stroke="#949cac" vector-effect="non-scaling-stroke" d="
  M 153.29 590.25
  L 153.29 589.75"
/>
<path stroke="#949cac" vector-effect="non-scaling-stroke" d="
  M 154.46 571.00
  L 154.64 568.26"
/>
<path stroke="#958d45" vector-effect="non-scaling-stroke" d="
  M 154.64 568.26
  L 155.46 555.75"
/>
<path stroke="#949cac" vector-effect="non-scaling-stroke" d="
  M 155.46 555.75
  L 156.75 536.29"
/>
<path stroke="#a8b3c9" vector-effect="non-scaling-stroke" d="
  M 270.29 531.25
  L 269.96 529.25"
/>
<path stroke="#aaa462" vector-effect="non-scaling-stroke" d="
  M 269.96 529.25
  Q 270.28 523.08 269.20 516.53"
/>
<path stroke="#a8b3c9" vector-effect="non-scaling-stroke" d="
  M 269.20 516.53
  Q 268.96 506.93 267.29 497.00"
/>
<path stroke="#feeb8f" vector-effect="non-scaling-stroke" d="
  M 155.46 555.75
  Q 105.86 536.50 56.44 516.81
  Q 56.12 516.68 55.29 516.75"
/>
<path stroke="#feeb8f" vector-effect="non-scaling-stroke" d="
  M 269.20 516.53
  L 169.04 556.00"
/>
<path stroke="#a8b3c9" vector-effect="non-scaling-stroke" d="
  M 153.29 590.25
  L 152.79 594.00"
/>
<path stroke="#feeb8f" vector-effect="non-scaling-stroke" d="
  M 152.79 594.00
  L 53.85 553.08"
/>
<path stroke="#feeb8f" vector-effect="non-scaling-stroke" d="
  M 154.64 568.26
  L 54.29 529.00"
/>
<path stroke="#40557f" vector-effect="non-scaling-stroke" d="
  M 152.25 608.79
  L 152.04 608.75"
/>
<path stroke="#feeb8f" vector-effect="non-scaling-stroke" d="
  M 269.96 529.25
  Q 220.32 548.13 170.94 567.69
  Q 170.61 567.82 169.79 567.75"
/>
<path stroke="#93832b" vector-effect="non-scaling-stroke" d="
  M 248.75 587.54
  L 199.74 613.74"
/>
<path stroke="#958d45" vector-effect="non-scaling-stroke" d="
  M 199.74 613.74
  L 174.26 627.20
  A 0.33 0.33 0.0 0 1 173.78 626.93
  L 173.32 617.51
  Q 173.29 616.93 173.18 617.50
  C 172.44 621.23 170.25 622.26 166.49 622.25
  C 154.89 622.25 149.75 623.74 152.25 608.79"
/>
<path stroke="#aaa462" vector-effect="non-scaling-stroke" d="
  M 152.25 608.79
  C 154.30 604.67 161.77 605.97 167.82 606.01
  C 169.60 606.02 170.57 606.67 172.03 607.48
  Q 172.47 607.72 172.43 607.22
  L 171.50 592.75"
/>
<path stroke="#feeb8f" vector-effect="non-scaling-stroke" d="
  M 270.29 555.00
  Q 221.56 573.69 172.94 592.69
  Q 172.59 592.82 171.50 592.75"
/>
<path stroke="#aaa462" vector-effect="non-scaling-stroke" d="
  M 152.79 594.00
  L 152.04 608.75"
/>
<path stroke="#958d45" vector-effect="non-scaling-stroke" d="
  M 152.04 608.75
  Q 150.82 617.70 150.84 626.41
  A 0.66 0.65 -76.1 0 1 149.88 626.99
  L 124.26 613.52"
/>
<path stroke="#93832b" vector-effect="non-scaling-stroke" d="
  M 124.26 613.52
  L 75.87 587.61"
/>
<path stroke="#293348" vector-effect="non-scaling-stroke" d="
  M 218.50 761.04
  C 218.66 761.87 217.98 762.22 217.31 761.91
  A 1.10 1.08 -42.3 0 0 216.47 761.88
  Q 188.30 772.03 171.93 796.99
  A 0.42 0.42 0.0 0 1 171.21 796.96
  L 170.96 796.50"
/>
<path stroke="#293348" vector-effect="non-scaling-stroke" d="
  M 154.50 799.08
  Q 152.61 797.00 151.09 794.69
  C 140.46 778.47 124.41 767.03 105.95 761.18"
/>
<path stroke="#293348" vector-effect="non-scaling-stroke" d="
  M 248.95 591.88
  Q 233.29 604.11 211.47 611.20
  Q 203.97 613.64 199.74 613.74"
/>
<path stroke="#293348" vector-effect="non-scaling-stroke" d="
  M 124.26 613.52
  Q 116.48 612.75 106.74 609.03
  Q 89.08 602.26 76.08 591.85"
/>
<path stroke="#aaa462" vector-effect="non-scaling-stroke" d="
  M 137.04 65.94
  C 139.06 73.79 156.05 85.09 164.50 83.02
  C 171.90 81.22 189.52 72.18 186.72 61.94
  C 184.01 52.02 177.96 41.30 182.31 32.14
  C 182.91 30.87 183.12 29.49 182.58 28.33
  A 1.77 1.76 66.8 0 0 180.34 27.43
  Q 161.92 34.52 143.52 27.33
  Q 140.72 26.24 141.17 29.21
  C 141.69 32.66 143.63 35.63 143.53 38.92
  C 143.33 45.32 140.17 52.93 137.71 60.61
  Q 136.58 64.13 137.04 65.94"
/>
<path stroke="#9a8881" vector-effect="non-scaling-stroke" d="
  M 123.6600 247.1400
  A 16.68 9.92 90.0 0 0 133.5800 230.4600
  A 16.68 9.92 90.0 0 0 123.6600 213.7800
  A 16.68 9.92 90.0 0 0 113.7400 230.4600
  A 16.68 9.92 90.0 0 0 123.6600 247.1400"
/>
<path stroke="#9a8881" vector-effect="non-scaling-stroke" d="
  M 201.1500 247.1400
  A 16.69 9.91 90.0 0 0 211.0600 230.4500
  A 16.69 9.91 90.0 0 0 201.1500 213.7600
  A 16.69 9.91 90.0 0 0 191.2400 230.4500
  A 16.69 9.91 90.0 0 0 201.1500 247.1400"
/>
<path stroke="#f1c7a7" vector-effect="non-scaling-stroke" d="
  M 143.38 275.72
  C 154.50 283.87 169.55 283.26 180.99 276.46
  A 1.57 1.57 0.0 0 0 181.39 274.10
  Q 179.90 272.32 177.23 273.52
  Q 163.05 279.91 148.87 274.02
  C 146.76 273.15 144.61 272.64 143.20 274.52
  A 0.85 0.85 0.0 0 0 143.38 275.72"
/>
<path stroke="#f1c7a7" vector-effect="non-scaling-stroke" d="
  M 111.89 301.00
  C 112.01 303.15 120.21 305.81 122.25 306.25
  C 145.61 311.33 172.80 311.13 196.97 307.17
  C 199.62 306.74 211.37 303.66 211.79 300.89
  A 0.82 0.82 0.0 0 0 210.81 299.96
  Q 161.98 310.12 113.16 299.91
  A 1.06 1.06 0.0 0 0 111.89 301.00"
/>
<path stroke="#f1c7a7" vector-effect="non-scaling-stroke" d="
  M 142.19 318.06
  C 151.83 323.13 167.45 322.61 178.00 319.77
  C 178.98 319.51 184.40 316.95 183.74 315.31
  A 0.57 0.57 0.0 0 0 183.04 314.98
  Q 161.89 321.95 140.81 314.85
  A 0.41 0.41 0.0 0 0 140.27 315.24
  Q 140.29 317.06 142.19 318.06"
/>
<path stroke="#9a9997" vector-effect="non-scaling-stroke" d="
  M 131.02 222.20
  A 5.90 5.90 0.0 0 0 125.12 216.30
  A 5.90 5.90 0.0 0 0 119.22 222.20
  A 5.90 5.90 0.0 0 0 125.12 228.10
  A 5.90 5.90 0.0 0 0 131.02 222.20"
/>
<path stroke="#9a9997" vector-effect="non-scaling-stroke" d="
  M 208.48 222.20
  A 5.89 5.89 0.0 0 0 202.59 216.31
  A 5.89 5.89 0.0 0 0 196.70 222.20
  A 5.89 5.89 0.0 0 0 202.59 228.09
  A 5.89 5.89 0.0 0 0 208.48 222.20"
/>
<path stroke="#fdc632" vector-effect="non-scaling-stroke" d="
  M 196.97 475.24
  C 193.64 485.85 215.67 498.35 224.43 496.43
  C 231.55 494.86 245.14 487.21 246.51 479.53
  C 247.43 474.39 242.91 464.35 241.18 459.15
  Q 238.61 451.43 242.70 444.39
  Q 243.75 442.58 242.02 441.40
  Q 240.95 440.68 239.51 441.22
  C 226.14 446.28 215.76 444.56 202.43 440.96
  A 1.13 1.13 0.0 0 0 201.00 442.11
  C 201.27 447.61 204.51 451.36 202.80 456.76
  Q 199.87 465.99 196.97 475.24"
/>
<path stroke="#293348" vector-effect="non-scaling-stroke" d="
  M 152.78 427.97
  Q 154.68 431.23 156.23 434.67
  C 157.28 437.01 159.61 436.35 159.88 433.88
  Q 160.29 430.19 161.10 426.52
  A 0.60 0.60 0.0 0 1 161.80 426.06
  L 163.33 426.34
  A 0.79 0.78 -1.7 0 1 163.96 426.93
  C 164.54 429.36 165.91 438.75 168.99 438.75
  A 1.08 1.08 0.0 0 0 170.05 437.86
  C 170.68 434.46 171.26 428.41 175.26 427.41
  A 1.05 1.04 -87.9 0 0 176.00 426.72
  Q 176.17 426.20 176.69 425.73
  Q 178.37 424.25 176.21 423.67
  Q 161.83 419.81 147.83 424.88
  A 0.49 0.49 0.0 0 0 147.56 425.56
  L 149.19 428.77
  A 0.56 0.55 -29.5 0 0 149.98 428.98
  L 151.89 427.76
  A 0.64 0.63 -31.4 0 1 152.78 427.97"
/>
<path stroke="#93832b" vector-effect="non-scaling-stroke" d="
  M 169.9653 611.0331
  A 2.03 2.03 0.0 0 0 167.9389 608.9995
  L 157.0189 608.9805
  A 2.03 2.03 0.0 0 0 154.9854 611.0069
  L 154.9747 617.1469
  A 2.03 2.03 0.0 0 0 157.0011 619.1805
  L 167.9211 619.1995
  A 2.03 2.03 0.0 0 0 169.9546 617.1731
  L 169.9653 611.0331"
/>
</g>
<path fill="#546c9c" d="
  M 289.96 148.50
  Q 288.03 146.04 285.00 145.46
  Q 284.10 141.28 284.60 136.92
  A 1.77 1.77 0.0 0 0 283.84 135.26
  C 215.29 88.08 110.24 87.85 41.48 134.90
  A 2.36 2.35 73.6 0 0 40.45 136.79
  L 40.24 145.15
  Q 36.51 146.17 34.79 148.75
  Q 21.45 137.25 4.92 130.77
  A 0.49 0.49 0.0 0 1 4.74 129.98
  Q 8.23 126.23 11.87 122.62
  C 29.01 105.61 38.71 87.65 44.68 64.22
  A 1.02 1.01 85.3 0 1 45.26 63.53
  Q 67.89 53.87 89.98 43.10
  C 114.02 31.39 136.75 17.50 160.01 1.99
  C 162.20 0.53 164.41 1.05 166.61 2.54
  C 178.40 10.52 190.33 18.86 202.45 25.73
  Q 235.77 44.60 270.95 59.78
  Q 275.25 61.63 279.45 63.70
  A 1.08 1.06 6.3 0 1 280.02 64.40
  C 286.66 91.54 295.63 112.67 318.60 129.70
  A 0.60 0.60 0.0 0 1 318.51 130.72
  C 308.52 135.80 298.37 141.00 289.96 148.50
  Z
  M 137.04 65.94
  C 139.06 73.79 156.05 85.09 164.50 83.02
  C 171.90 81.22 189.52 72.18 186.72 61.94
  C 184.01 52.02 177.96 41.30 182.31 32.14
  C 182.91 30.87 183.12 29.49 182.58 28.33
  A 1.77 1.76 66.8 0 0 180.34 27.43
  Q 161.92 34.52 143.52 27.33
  Q 140.72 26.24 141.17 29.21
  C 141.69 32.66 143.63 35.63 143.53 38.92
  C 143.33 45.32 140.17 52.93 137.71 60.61
  Q 136.58 64.13 137.04 65.94
  Z"
/>
<path fill="#ffdc28" d="
  M 164.50 83.02
  C 156.05 85.09 139.06 73.79 137.04 65.94
  Q 136.58 64.13 137.71 60.61
  C 140.17 52.93 143.33 45.32 143.53 38.92
  C 143.63 35.63 141.69 32.66 141.17 29.21
  Q 140.72 26.24 143.52 27.33
  Q 161.92 34.52 180.34 27.43
  A 1.77 1.76 66.8 0 1 182.58 28.33
  C 183.12 29.49 182.91 30.87 182.31 32.14
  C 177.96 41.30 184.01 52.02 186.72 61.94
  C 189.52 72.18 171.90 81.22 164.50 83.02
  Z"
/>
<path fill="#2b3d61" d="
  M 285.00 145.46
  C 274.70 145.43 274.35 164.16 284.21 164.75
  L 284.25 173.75
  A 1.26 1.24 67.0 0 1 283.91 174.61
  L 283.50 175.04
  L 280.13 177.68
  Q 268.78 184.95 256.96 190.75
  L 254.24 192.14
  L 227.46 201.75
  Q 224.34 201.96 221.79 204.05
  A 1.80 1.79 40.7 0 1 219.74 204.20
  Q 218.15 203.25 216.96 204.75
  L 193.00 208.71
  L 182.47 209.77
  Q 164.13 210.91 145.75 209.75
  Q 144.18 209.65 142.79 209.88
  L 131.77 208.48
  L 108.05 204.50
  Q 106.34 203.52 104.24 204.15
  A 1.19 1.14 50.6 0 1 103.33 204.04
  Q 100.48 202.39 97.29 201.75
  Q 82.05 196.87 67.37 190.57
  Q 54.93 184.26 43.22 176.61
  C 42.50 176.14 41.75 176.06 40.96 175.75
  L 40.50 165.04
  Q 45.25 164.32 46.81 160.07
  Q 50.89 148.95 40.24 145.15
  L 40.45 136.79
  A 2.36 2.35 73.6 0 1 41.48 134.90
  C 110.24 87.85 215.29 88.08 283.84 135.26
  A 1.77 1.77 0.0 0 1 284.60 136.92
  Q 284.10 141.28 285.00 145.46
  Z"
/>
<path fill="#ffdc28" d="
  M 40.24 145.15
  Q 50.89 148.95 46.81 160.07
  Q 45.25 164.32 40.50 165.04
  C 32.71 162.01 33.55 155.60 34.79 148.75
  Q 36.51 146.17 40.24 145.15
  Z"
/>
<path fill="#ffdc28" d="
  M 285.00 145.46
  Q 288.03 146.04 289.96 148.50
  C 292.47 154.31 291.94 163.50 284.21 164.75
  C 274.35 164.16 274.70 145.43 285.00 145.46
  Z"
/>
<path fill="#383838" d="
  M 283.50 175.04
  C 286.95 190.58 289.18 204.73 287.46 220.75
  C 273.47 222.78 265.65 241.49 263.52 253.54
  A 0.31 0.31 0.0 0 1 263.03 253.74
  Q 257.90 250.03 258.67 243.74
  Q 261.92 217.00 254.24 192.14
  L 256.96 190.75
  L 257.00 191.01
  A 0.09 0.09 0.0 0 0 257.07 191.08
  C 263.03 191.84 274.99 191.69 279.28 186.84
  Q 282.40 183.32 280.13 177.68
  L 283.50 175.04
  Z"
/>
<path fill="#383838" d="
  M 40.96 175.75
  C 41.75 176.06 42.50 176.14 43.22 176.61
  Q 54.93 184.26 67.37 190.57
  C 63.17 207.25 61.92 223.45 62.86 240.44
  C 63.04 243.73 62.64 261.50 60.34 263.01
  A 0.35 0.35 0.0 0 1 59.80 262.76
  C 58.25 248.88 51.17 227.56 37.00 220.96
  C 36.41 202.41 36.95 190.99 40.96 175.75
  Z"
/>
<path fill="#471e01" d="
  M 280.13 177.68
  Q 282.40 183.32 279.28 186.84
  C 274.99 191.69 263.03 191.84 257.07 191.08
  A 0.09 0.09 0.0 0 1 257.00 191.01
  L 256.96 190.75
  Q 268.78 184.95 280.13 177.68
  Z"
/>
<path fill="#fbd7c9" d="
  M 67.37 190.57
  Q 82.05 196.87 97.29 201.75
  L 92.64 204.72
  Q 90.79 205.90 91.98 207.74
  C 93.27 209.76 96.15 209.58 98.23 208.49
  Q 102.85 206.08 108.05 204.50
  L 131.77 208.48
  Q 136.91 213.67 142.79 209.88
  Q 144.18 209.65 145.75 209.75
  Q 164.13 210.91 182.47 209.77
  C 186.15 213.55 189.51 210.79 193.00 208.71
  L 216.96 204.75
  Q 222.03 205.86 226.52 208.40
  C 228.70 209.63 233.46 209.99 233.08 206.26
  A 1.41 1.40 19.6 0 0 232.66 205.39
  Q 230.39 203.15 227.46 201.75
  L 254.24 192.14
  Q 261.92 217.00 258.67 243.74
  Q 257.90 250.03 263.03 253.74
  A 0.31 0.31 0.0 0 0 263.52 253.54
  C 265.65 241.49 273.47 222.78 287.46 220.75
  Q 288.34 222.26 290.06 222.04
  A 1.09 1.08 63.6 0 1 290.97 222.35
  L 292.04 223.41
  A 1.39 1.38 70.2 0 0 292.88 223.81
  Q 293.86 223.90 294.07 224.86
  Q 294.18 225.39 294.51 225.82
  C 297.24 229.44 297.95 236.65 297.71 240.89
  C 296.97 254.55 289.44 274.01 275.00 278.63
  A 0.96 0.95 88.9 0 0 274.39 279.27
  C 272.97 284.28 271.95 289.71 270.35 294.23
  C 258.83 326.77 234.99 349.22 203.35 362.37
  Q 202.95 362.54 202.96 363.00
  Q 161.89 377.49 121.00 362.54
  L 120.50 361.93
  Q 120.22 361.59 119.80 361.41
  C 86.04 347.45 58.35 318.26 50.95 281.54
  C 49.75 275.57 44.51 274.70 41.45 270.25
  C 34.30 259.86 22.79 234.14 32.11 222.59
  A 1.52 1.51 -78.3 0 1 32.90 222.07
  L 37.00 220.96
  C 51.17 227.56 58.25 248.88 59.80 262.76
  A 0.35 0.35 0.0 0 0 60.34 263.01
  C 62.64 261.50 63.04 243.73 62.86 240.44
  C 61.92 223.45 63.17 207.25 67.37 190.57
  Z
  M 123.6600 247.1400
  A 16.68 9.92 90.0 0 0 133.5800 230.4600
  A 16.68 9.92 90.0 0 0 123.6600 213.7800
  A 16.68 9.92 90.0 0 0 113.7400 230.4600
  A 16.68 9.92 90.0 0 0 123.6600 247.1400
  Z
  M 201.1500 247.1400
  A 16.69 9.91 90.0 0 0 211.0600 230.4500
  A 16.69 9.91 90.0 0 0 201.1500 213.7600
  A 16.69 9.91 90.0 0 0 191.2400 230.4500
  A 16.69 9.91 90.0 0 0 201.1500 247.1400
  Z
  M 143.38 275.72
  C 154.50 283.87 169.55 283.26 180.99 276.46
  A 1.57 1.57 0.0 0 0 181.39 274.10
  Q 179.90 272.32 177.23 273.52
  Q 163.05 279.91 148.87 274.02
  C 146.76 273.15 144.61 272.64 143.20 274.52
  A 0.85 0.85 0.0 0 0 143.38 275.72
  Z
  M 111.89 301.00
  C 112.01 303.15 120.21 305.81 122.25 306.25
  C 145.61 311.33 172.80 311.13 196.97 307.17
  C 199.62 306.74 211.37 303.66 211.79 300.89
  A 0.82 0.82 0.0 0 0 210.81 299.96
  Q 161.98 310.12 113.16 299.91
  A 1.06 1.06 0.0 0 0 111.89 301.00
  Z
  M 142.19 318.06
  C 151.83 323.13 167.45 322.61 178.00 319.77
  C 178.98 319.51 184.40 316.95 183.74 315.31
  A 0.57 0.57 0.0 0 0 183.04 314.98
  Q 161.89 321.95 140.81 314.85
  A 0.41 0.41 0.0 0 0 140.27 315.24
  Q 140.29 317.06 142.19 318.06
  Z"
/>
<path fill="#471e01" d="
  M 227.46 201.75
  Q 230.39 203.15 232.66 205.39
  A 1.41 1.40 19.6 0 1 233.08 206.26
  C 233.46 209.99 228.70 209.63 226.52 208.40
  Q 222.03 205.86 216.96 204.75
  Q 218.15 203.25 219.74 204.20
  A 1.80 1.79 40.7 0 0 221.79 204.05
  Q 224.34 201.96 227.46 201.75
  Z"
/>
<path fill="#471e01" d="
  M 97.29 201.75
  Q 100.48 202.39 103.33 204.04
  A 1.19 1.14 50.6 0 0 104.24 204.15
  Q 106.34 203.52 108.05 204.50
  Q 102.85 206.08 98.23 208.49
  C 96.15 209.58 93.27 209.76 91.98 207.74
  Q 90.79 205.90 92.64 204.72
  L 97.29 201.75
  Z"
/>
<path fill="#471e01" d="
  M 142.79 209.88
  Q 136.91 213.67 131.77 208.48
  L 142.79 209.88
  Z"
/>
<path fill="#471e01" d="
  M 193.00 208.71
  C 189.51 210.79 186.15 213.55 182.47 209.77
  L 193.00 208.71
  Z"
/>
<path fill="#383838" d="
  M 123.6600 247.1400
  A 16.68 9.92 90.0 0 1 113.7400 230.4600
  A 16.68 9.92 90.0 0 1 123.6600 213.7800
  A 16.68 9.92 90.0 0 1 133.5800 230.4600
  A 16.68 9.92 90.0 0 1 123.6600 247.1400
  Z
  M 131.02 222.20
  A 5.90 5.90 0.0 0 0 125.12 216.30
  A 5.90 5.90 0.0 0 0 119.22 222.20
  A 5.90 5.90 0.0 0 0 125.12 228.10
  A 5.90 5.90 0.0 0 0 131.02 222.20
  Z"
/>
<path fill="#383838" d="
  M 201.1500 247.1400
  A 16.69 9.91 90.0 0 1 191.2400 230.4500
  A 16.69 9.91 90.0 0 1 201.1500 213.7600
  A 16.69 9.91 90.0 0 1 211.0600 230.4500
  A 16.69 9.91 90.0 0 1 201.1500 247.1400
  Z
  M 208.48 222.20
  A 5.89 5.89 0.0 0 0 202.59 216.31
  A 5.89 5.89 0.0 0 0 196.70 222.20
  A 5.89 5.89 0.0 0 0 202.59 228.09
  A 5.89 5.89 0.0 0 0 208.48 222.20
  Z"
/>
<circle fill="#fcfaf6" cx="125.12" cy="222.20" r="5.90"/>
<circle fill="#fcfaf6" cx="202.59" cy="222.20" r="5.89"/>
<path fill="#e6b685" d="
  M 143.38 275.72
  A 0.85 0.85 0.0 0 1 143.20 274.52
  C 144.61 272.64 146.76 273.15 148.87 274.02
  Q 163.05 279.91 177.23 273.52
  Q 179.90 272.32 181.39 274.10
  A 1.57 1.57 0.0 0 1 180.99 276.46
  C 169.55 283.26 154.50 283.87 143.38 275.72
  Z"
/>
<path fill="#e6b685" d="
  M 122.25 306.25
  C 120.21 305.81 112.01 303.15 111.89 301.00
  A 1.06 1.06 0.0 0 1 113.16 299.91
  Q 161.98 310.12 210.81 299.96
  A 0.82 0.82 0.0 0 1 211.79 300.89
  C 211.37 303.66 199.62 306.74 196.97 307.17
  C 172.80 311.13 145.61 311.33 122.25 306.25
  Z"
/>
<path fill="#e6b685" d="
  M 142.19 318.06
  Q 140.29 317.06 140.27 315.24
  A 0.41 0.41 0.0 0 1 140.81 314.85
  Q 161.89 321.95 183.04 314.98
  A 0.57 0.57 0.0 0 1 183.74 315.31
  C 184.40 316.95 178.98 319.51 178.00 319.77
  C 167.45 322.61 151.83 323.13 142.19 318.06
  Z"
/>
<path fill="#e6b685" d="
  M 121.00 362.54
  Q 161.89 377.49 202.96 363.00
  L 203.29 365.25
  C 200.91 398.80 143.84 396.98 127.37 378.54
  Q 122.41 372.99 120.79 365.25
  L 121.00 362.54
  Z"
/>
<path fill="#546c9c" d="
  M 120.79 365.25
  Q 122.41 372.99 127.37 378.54
  C 143.84 396.98 200.91 398.80 203.29 365.25
  Q 204.66 369.62 207.50 373.21
  C 206.83 373.69 206.52 373.68 206.08 374.49
  Q 195.81 393.37 185.54 412.25
  C 185.38 411.61 185.13 410.84 184.61 410.38
  Q 174.93 401.93 165.17 393.50
  Q 163.79 392.30 162.35 393.44
  L 139.00 412.04
  L 117.19 372.95
  L 120.79 365.25
  Z"
/>
<path fill="#ffdc28" d="
  M 117.19 372.95
  L 139.00 412.04
  L 162.05 454.74
  Q 162.30 455.20 162.55 454.74
  L 185.54 412.25
  Q 195.81 393.37 206.08 374.49
  C 206.52 373.68 206.83 373.69 207.50 373.21
  C 218.50 376.39 222.88 384.21 228.52 393.21
  Q 229.69 395.09 232.41 396.85
  C 244.23 413.57 250.61 429.68 258.00 449.92
  Q 263.46 471.00 267.04 492.25
  L 267.29 497.00
  L 167.78 536.13
  L 162.47 460.06
  Q 162.44 459.56 162.36 460.05
  Q 161.94 462.64 161.77 465.25
  Q 159.43 500.78 156.75 536.29
  L 57.25 497.21
  L 57.42 494.19
  A 1.65 1.61 -58.8 0 0 57.21 493.28
  Q 56.75 492.47 57.00 492.33
  Q 57.86 491.86 57.89 491.68
  Q 61.15 470.15 66.82 449.02
  Q 69.86 440.85 73.23 432.13
  Q 80.49 413.36 92.23 396.64
  C 97.08 393.36 98.17 390.11 101.18 385.21
  Q 106.59 376.40 117.19 372.95
  Z
  M 196.97 475.24
  C 193.64 485.85 215.67 498.35 224.43 496.43
  C 231.55 494.86 245.14 487.21 246.51 479.53
  C 247.43 474.39 242.91 464.35 241.18 459.15
  Q 238.61 451.43 242.70 444.39
  Q 243.75 442.58 242.02 441.40
  Q 240.95 440.68 239.51 441.22
  C 226.14 446.28 215.76 444.56 202.43 440.96
  A 1.13 1.13 0.0 0 0 201.00 442.11
  C 201.27 447.61 204.51 451.36 202.80 456.76
  Q 199.87 465.99 196.97 475.24
  Z"
/>
<path fill="#2b3d61" d="
  M 185.54 412.25
  L 162.55 454.74
  Q 162.30 455.20 162.05 454.74
  L 139.00 412.04
  L 162.35 393.44
  Q 163.79 392.30 165.17 393.50
  Q 174.93 401.93 184.61 410.38
  C 185.13 410.84 185.38 411.61 185.54 412.25
  Z
  M 152.78 427.97
  Q 154.68 431.23 156.23 434.67
  C 157.28 437.01 159.61 436.35 159.88 433.88
  Q 160.29 430.19 161.10 426.52
  A 0.60 0.60 0.0 0 1 161.80 426.06
  L 163.33 426.34
  A 0.79 0.78 -1.7 0 1 163.96 426.93
  C 164.54 429.36 165.91 438.75 168.99 438.75
  A 1.08 1.08 0.0 0 0 170.05 437.86
  C 170.68 434.46 171.26 428.41 175.26 427.41
  A 1.05 1.04 -87.9 0 0 176.00 426.72
  Q 176.17 426.20 176.69 425.73
  Q 178.37 424.25 176.21 423.67
  Q 161.83 419.81 147.83 424.88
  A 0.49 0.49 0.0 0 0 147.56 425.56
  L 149.19 428.77
  A 0.56 0.55 -29.5 0 0 149.98 428.98
  L 151.89 427.76
  A 0.64 0.63 -31.4 0 1 152.78 427.97
  Z"
/>
<path fill="#546c9c" d="
  M 92.23 396.64
  Q 80.49 413.36 73.23 432.13
  Q 69.86 440.85 66.82 449.02
  Q 58.02 454.11 51.70 464.44
  C 45.95 473.85 48.26 485.68 57.00 492.33
  Q 56.75 492.47 57.21 493.28
  A 1.65 1.61 -58.8 0 1 57.42 494.19
  L 57.25 497.21
  Q 55.56 506.91 55.29 516.75
  L 54.29 529.00
  L 53.71 532.50
  Q 52.87 533.90 53.29 535.62
  A 0.48 0.47 79.4 0 1 52.90 536.20
  L 52.57 536.24
  A 0.59 0.59 0.0 0 1 52.02 536.02
  Q 50.93 534.68 49.93 534.07
  C 19.44 515.35 -0.26 480.54 20.19 445.95
  C 35.13 420.68 63.59 403.29 92.23 396.64
  Z"
/>
<path fill="#546c9c" d="
  M 232.41 396.85
  C 262.92 404.24 293.19 423.46 306.77 452.70
  C 321.86 485.20 301.66 516.27 274.71 533.48
  Q 273.50 534.25 271.87 535.71
  Q 271.36 536.17 271.23 535.49
  Q 271.20 535.31 271.11 535.15
  A 0.84 0.84 0.0 0 1 271.03 534.54
  Q 271.48 532.64 270.29 531.25
  L 269.96 529.25
  Q 270.28 523.08 269.20 516.53
  Q 268.96 506.93 267.29 497.00
  L 267.04 492.25
  C 273.80 485.95 277.53 476.43 273.50 467.49
  Q 268.49 456.38 258.00 449.92
  C 250.61 429.68 244.23 413.57 232.41 396.85
  Z"
/>
<path fill="#26292e" d="
  M 151.89 427.76
  L 149.98 428.98
  A 0.56 0.55 -29.5 0 1 149.19 428.77
  L 147.56 425.56
  A 0.49 0.49 0.0 0 1 147.83 424.88
  Q 161.83 419.81 176.21 423.67
  Q 178.37 424.25 176.69 425.73
  Q 176.17 426.20 176.00 426.72
  A 1.05 1.04 -87.9 0 1 175.26 427.41
  C 171.26 428.41 170.68 434.46 170.05 437.86
  A 1.08 1.08 0.0 0 1 168.99 438.75
  C 165.91 438.75 164.54 429.36 163.96 426.93
  A 0.79 0.78 -1.7 0 0 163.33 426.34
  L 161.80 426.06
  A 0.60 0.60 0.0 0 0 161.10 426.52
  Q 160.29 430.19 159.88 433.88
  C 159.61 436.35 157.28 437.01 156.23 434.67
  Q 154.68 431.23 152.78 427.97
  A 0.64 0.63 -31.4 0 0 151.89 427.76
  Z"
/>
<path fill="#fbb03b" d="
  M 224.43 496.43
  C 215.67 498.35 193.64 485.85 196.97 475.24
  Q 199.87 465.99 202.80 456.76
  C 204.51 451.36 201.27 447.61 201.00 442.11
  A 1.13 1.13 0.0 0 1 202.43 440.96
  C 215.76 444.56 226.14 446.28 239.51 441.22
  Q 240.95 440.68 242.02 441.40
  Q 243.75 442.58 242.70 444.39
  Q 238.61 451.43 241.18 459.15
  C 242.91 464.35 247.43 474.39 246.51 479.53
  C 245.14 487.21 231.55 494.86 224.43 496.43
  Z"
/>
<path fill="#2b3d61" d="
  M 167.78 536.13
  L 169.04 556.00
  L 169.79 567.75
  L 169.94 570.75
  Q 169.83 580.31 171.37 589.77
  L 171.50 592.75
  L 170.72 592.76
  A 1.00 1.00 0.0 0 0 169.92 593.19
  C 165.13 600.15 158.48 594.79 154.90 590.40
  A 1.02 1.00 67.7 0 0 154.07 590.04
  Q 153.68 590.06 153.29 590.25
  L 153.29 589.75
  Q 154.06 589.64 154.01 588.50
  Q 153.76 582.46 154.56 573.41
  Q 154.60 572.92 154.83 572.48
  Q 155.24 571.67 154.46 571.00
  L 154.64 568.26
  L 155.46 555.75
  L 156.75 536.29
  Q 159.43 500.78 161.77 465.25
  Q 161.94 462.64 162.36 460.05
  Q 162.44 459.56 162.47 460.06
  L 167.78 536.13
  Z"
/>
<path fill="#fcfaf6" d="
  M 267.29 497.00
  Q 268.96 506.93 269.20 516.53
  L 169.04 556.00
  L 167.78 536.13
  L 267.29 497.00
  Z"
/>
<path fill="#fcfaf6" d="
  M 57.25 497.21
  L 156.75 536.29
  L 155.46 555.75
  Q 105.86 536.50 56.44 516.81
  Q 56.12 516.68 55.29 516.75
  Q 55.56 506.91 57.25 497.21
  Z"
/>
<path fill="#ffdc28" d="
  M 55.29 516.75
  Q 56.12 516.68 56.44 516.81
  Q 105.86 536.50 155.46 555.75
  L 154.64 568.26
  L 54.29 529.00
  L 55.29 516.75
  Z"
/>
<path fill="#ffdc28" d="
  M 269.20 516.53
  Q 270.28 523.08 269.96 529.25
  Q 220.32 548.13 170.94 567.69
  Q 170.61 567.82 169.79 567.75
  L 169.04 556.00
  L 269.20 516.53
  Z"
/>
<path fill="#fcfaf6" d="
  M 54.29 529.00
  L 154.64 568.26
  L 154.46 571.00
  C 154.12 571.61 153.96 571.38 153.93 572.28
  Q 153.61 581.02 153.29 589.75
  L 153.29 590.25
  L 152.79 594.00
  L 53.85 553.08
  L 53.71 532.50
  L 54.29 529.00
  Z"
/>
<path fill="#fcfaf6" d="
  M 269.96 529.25
  L 270.29 531.25
  Q 269.67 543.13 270.29 555.00
  Q 221.56 573.69 172.94 592.69
  Q 172.59 592.82 171.50 592.75
  L 171.37 589.77
  Q 171.47 580.21 169.94 570.75
  L 169.79 567.75
  Q 170.61 567.82 170.94 567.69
  Q 220.32 548.13 269.96 529.25
  Z"
/>
<path fill="#ffdc28" d="
  M 53.85 553.08
  L 152.79 594.00
  L 152.04 608.75
  Q 150.82 617.70 150.84 626.41
  A 0.66 0.65 -76.1 0 1 149.88 626.99
  L 124.26 613.52
  L 75.87 587.61
  L 54.98 576.41
  A 0.93 0.91 12.3 0 1 54.50 575.68
  Q 53.64 564.59 53.85 553.08
  Z"
/>
<path fill="#ffdc28" d="
  M 270.29 555.00
  L 270.11 575.38
  A 1.18 1.16 -13.0 0 1 269.44 576.43
  Q 258.94 581.33 248.75 587.54
  L 199.74 613.74
  L 174.26 627.20
  A 0.33 0.33 0.0 0 1 173.78 626.93
  L 173.32 617.51
  Q 173.29 616.93 173.18 617.50
  C 172.44 621.23 170.25 622.26 166.49 622.25
  C 154.89 622.25 149.75 623.74 152.25 608.79
  C 154.30 604.67 161.77 605.97 167.82 606.01
  C 169.60 606.02 170.57 606.67 172.03 607.48
  Q 172.47 607.72 172.43 607.22
  L 171.50 592.75
  Q 172.59 592.82 172.94 592.69
  Q 221.56 573.69 270.29 555.00
  Z
  M 169.9653 611.0331
  A 2.03 2.03 0.0 0 0 167.9389 608.9995
  L 157.0189 608.9805
  A 2.03 2.03 0.0 0 0 154.9854 611.0069
  L 154.9747 617.1469
  A 2.03 2.03 0.0 0 0 157.0011 619.1805
  L 167.9211 619.1995
  A 2.03 2.03 0.0 0 0 169.9546 617.1731
  L 169.9653 611.0331
  Z"
/>
<path fill="#26292e" d="
  M 248.75 587.54
  L 248.95 591.88
  Q 233.29 604.11 211.47 611.20
  Q 203.97 613.64 199.74 613.74
  L 248.75 587.54
  Z"
/>
<path fill="#26292e" d="
  M 75.87 587.61
  L 124.26 613.52
  Q 116.48 612.75 106.74 609.03
  Q 89.08 602.26 76.08 591.85
  Q 75.47 590.10 75.87 587.61
  Z"
/>
<path fill="#546c9c" d="
  M 171.50 592.75
  L 172.43 607.22
  Q 172.47 607.72 172.03 607.48
  C 170.57 606.67 169.60 606.02 167.82 606.01
  C 161.77 605.97 154.30 604.67 152.25 608.79
  L 152.04 608.75
  L 152.79 594.00
  L 153.29 590.25
  Q 153.68 590.06 154.07 590.04
  A 1.02 1.00 67.7 0 1 154.90 590.40
  C 158.48 594.79 165.13 600.15 169.92 593.19
  A 1.00 1.00 0.0 0 1 170.72 592.76
  L 171.50 592.75
  Z"
/>
<path fill="#2b3d61" d="
  M 248.95 591.88
  C 251.63 648.35 244.95 708.07 218.23 759.01
  C 217.83 759.78 217.90 760.46 218.50 761.04
  C 218.66 761.87 217.98 762.22 217.31 761.91
  A 1.10 1.08 -42.3 0 0 216.47 761.88
  Q 188.30 772.03 171.93 796.99
  A 0.42 0.42 0.0 0 1 171.21 796.96
  L 170.96 796.50
  Q 173.60 776.05 173.80 761.00
  C 173.83 758.87 174.28 756.78 174.30 755.32
  Q 175.04 703.68 174.68 652.04
  A 0.54 0.54 0.0 0 0 174.16 651.51
  C 172.82 651.47 171.71 652.21 170.59 652.39
  Q 161.50 653.87 152.03 651.90
  Q 150.12 651.50 150.02 653.45
  C 148.34 683.46 148.87 714.07 149.83 744.19
  C 149.85 744.77 150.27 745.66 150.29 746.30
  Q 151.31 772.68 154.50 799.08
  Q 152.61 797.00 151.09 794.69
  C 140.46 778.47 124.41 767.03 105.95 761.18
  Q 107.35 760.47 106.81 759.44
  C 96.10 738.87 88.58 717.55 83.78 694.88
  C 76.49 660.51 73.31 626.68 76.08 591.85
  Q 89.08 602.26 106.74 609.03
  Q 116.48 612.75 124.26 613.52
  L 149.88 626.99
  A 0.66 0.65 -76.1 0 0 150.84 626.41
  Q 150.82 617.70 152.04 608.75
  L 152.25 608.79
  C 149.75 623.74 154.89 622.25 166.49 622.25
  C 170.25 622.26 172.44 621.23 173.18 617.50
  Q 173.29 616.93 173.32 617.51
  L 173.78 626.93
  A 0.33 0.33 0.0 0 0 174.26 627.20
  L 199.74 613.74
  Q 203.97 613.64 211.47 611.20
  Q 233.29 604.11 248.95 591.88
  Z"
/>
<rect fill="#26292e" x="-7.49" y="-5.10" transform="translate(162.47,614.09) rotate(0.1)" width="14.98" height="10.20" rx="2.03"/>
<path fill="#26292e" d="
  M 105.95 761.18
  C 124.41 767.03 140.46 778.47 151.09 794.69
  Q 152.61 797.00 154.50 799.08
  Q 155.01 799.83 154.69 800.73
  A 0.75 0.74 -81.2 0 1 154.02 801.23
  C 117.83 803.24 80.81 802.08 44.50 801.91
  Q 42.11 801.90 40.41 801.37
  Q 38.37 800.73 38.16 798.60
  C 37.42 790.89 39.27 783.87 42.76 776.94
  C 54.57 753.44 84.69 754.37 105.95 761.18
  Z"
/>
<path fill="#26292e" d="
  M 170.96 796.50
  L 171.21 796.96
  A 0.42 0.42 0.0 0 0 171.93 796.99
  Q 188.30 772.03 216.47 761.88
  A 1.10 1.08 -42.3 0 1 217.31 761.91
  C 217.98 762.22 218.66 761.87 218.50 761.04
  Q 222.62 760.28 226.71 759.24
  C 253.74 752.31 283.11 760.17 286.32 792.29
  C 286.44 793.54 287.26 797.75 286.56 799.23
  Q 285.25 801.99 282.19 801.99
  Q 229.09 802.01 176.50 802.00
  Q 174.44 802.00 171.31 800.98
  A 0.72 0.72 0.0 0 1 170.82 800.27
  L 170.96 796.50
  Z"
/>
</svg>
