<?xml version="1.0" encoding="UTF-8" standalone="no"?>
<!DOCTYPE svg PUBLIC "-//W3C//DTD SVG 1.1//EN" "http://www.w3.org/Graphics/SVG/1.1/DTD/svg11.dtd">
<svg xmlns="http://www.w3.org/2000/svg" version="1.1" viewBox="0 0 370 810">
<g stroke-width="2.00" fill="none" stroke-linecap="butt">
<path stroke="#aaa462" vector-effect="non-scaling-stroke" d="
  M 302.25 154.29
  Q 300.53 152.45 297.19 150.98"
/>
<path stroke="#40557f" vector-effect="non-scaling-stroke" d="
  M 297.19 150.98
  L 297.05 143.27
  A 2.77 2.75 16.7 0 0 295.83 141.02
  C 226.99 94.16 123.84 94.27 54.81 140.34
  C 54.29 140.69 53.49 141.63 53.07 142.11
  Q 52.72 142.51 52.71 143.02
  L 52.50 151.46"
/>
<path stroke="#aaa462" vector-effect="non-scaling-stroke" d="
  M 52.50 151.46
  Q 49.39 152.32 47.00 154.54"
/>
<path stroke="#958d45" vector-effect="non-scaling-stroke" d="
  M 297.19 150.98
  Q 284.03 157.23 292.73 169.49
  Q 293.68 170.82 296.97 170.99"
/>
<path stroke="#323b4d" vector-effect="non-scaling-stroke" d="
  M 296.71 183.50
  Q 295.24 182.72 293.69 183.28"
/>
<path stroke="#392e32" vector-effect="non-scaling-stroke" d="
  M 293.69 183.28
  Q 281.83 190.57 269.46 196.75"
/>
<path stroke="#323b4d" vector-effect="non-scaling-stroke" d="
  M 269.46 196.75
  Q 267.86 197.13 266.71 198.25"
/>
<path stroke="#938a95" vector-effect="non-scaling-stroke" d="
  M 266.71 198.25
  Q 253.69 203.51 240.25 207.54"
/>
<path stroke="#392e32" vector-effect="non-scaling-stroke" d="
  M 240.25 207.54
  Q 236.99 208.20 234.22 210.11
  Q 233.78 210.41 233.26 210.31
  Q 230.77 209.83 228.48 210.55"
/>
<path stroke="#938a95" vector-effect="non-scaling-stroke" d="
  M 228.48 210.55
  C 220.56 212.27 211.58 212.95 204.04 215.50"
/>
<path stroke="#392e32" vector-effect="non-scaling-stroke" d="
  M 204.04 215.50
  Q 204.09 215.26 204.29 215.04
  Q 204.64 214.65 204.12 214.73
  L 195.00 216.04"
/>
<path stroke="#938a95" vector-effect="non-scaling-stroke" d="
  M 195.00 216.04
  Q 194.11 215.67 193.75 215.70
  Q 175.00 217.25 156.25 215.71
  Q 155.88 215.68 155.00 216.04"
/>
<path stroke="#392e32" vector-effect="non-scaling-stroke" d="
  M 155.00 216.04
  Q 149.81 214.89 144.50 214.79"
/>
<path stroke="#938a95" vector-effect="non-scaling-stroke" d="
  M 144.50 214.79
  L 120.77 210.51"
/>
<path stroke="#392e32" vector-effect="non-scaling-stroke" d="
  M 120.77 210.51
  Q 115.96 210.71 111.98 208.25
  Q 111.57 208.00 111.09 207.99
  L 109.75 207.96"
/>
<path stroke="#938a95" vector-effect="non-scaling-stroke" d="
  M 109.75 207.96
  Q 94.53 202.96 79.84 196.65"
/>
<path stroke="#323b4d" vector-effect="non-scaling-stroke" d="
  M 79.84 196.65
  Q 66.94 190.31 55.03 182.27
  C 54.61 181.99 54.02 181.90 53.54 181.75"
/>
<path stroke="#958d45" vector-effect="non-scaling-stroke" d="
  M 52.74 171.17
  Q 64.92 166.12 57.94 154.06
  Q 56.50 151.57 52.50 151.46"
/>
<path stroke="#9a8881" vector-effect="non-scaling-stroke" d="
  M 79.84 196.65
  Q 74.36 218.10 75.14 240.00
  C 75.45 248.62 76.31 260.58 72.73 269.07
  Q 72.37 269.94 72.27 269.00
  C 70.93 256.80 63.05 231.79 50.08 227.60"
/>
<path stroke="#a17b66" vector-effect="non-scaling-stroke" d="
  M 109.75 207.96
  C 107.80 208.75 103.39 211.26 104.35 213.68
  C 105.26 215.96 109.07 215.63 110.74 214.71
  Q 115.98 211.84 120.77 210.51"
/>
<path stroke="#a17b66" vector-effect="non-scaling-stroke" d="
  M 144.50 214.79
  Q 149.36 219.75 155.00 216.04"
/>
<path stroke="#a17b66" vector-effect="non-scaling-stroke" d="
  M 195.00 216.04
  Q 199.70 219.69 204.04 215.50"
/>
<path stroke="#a17b66" vector-effect="non-scaling-stroke" d="
  M 228.48 210.55
  Q 233.95 211.85 238.80 214.46
  C 241.12 215.71 243.20 215.90 245.15 214.21
  Q 245.55 213.86 245.51 213.33
  C 245.27 209.89 241.97 209.56 240.25 207.54"
/>
<path stroke="#f1c7a7" vector-effect="non-scaling-stroke" d="
  M 214.96 369.00
  C 190.13 378.66 160.46 378.24 135.50 369.52
  Q 135.04 369.36 134.72 368.99
  Q 134.33 368.54 133.79 368.50"
/>
<path stroke="#9a8881" vector-effect="non-scaling-stroke" d="
  M 299.96 227.00
  C 285.91 228.75 278.11 247.51 276.08 259.58
  A 0.60 0.59 -65.6 0 1 275.11 259.95
  C 269.15 254.98 271.73 244.99 272.03 238.25
  Q 272.93 217.76 266.71 198.25"
/>
<path stroke="#402c1d" vector-effect="non-scaling-stroke" d="
  M 269.46 196.75
  Q 269.47 196.92 269.49 197.04
  Q 269.53 197.36 269.84 197.39
  C 275.58 197.93 289.04 197.82 292.64 191.78
  C 293.92 189.62 293.57 186.00 293.69 183.28"
/>
<path stroke="#9d9191" vector-effect="non-scaling-stroke" d="
  M 215.54 371.00
  C 215.06 384.47 205.69 392.24 193.48 395.44
  Q 172.55 400.94 152.47 392.95
  C 142.55 389.01 134.32 381.61 133.71 370.25"
/>
<path stroke="#aaa462" vector-effect="non-scaling-stroke" d="
  M 221.46 380.76
  L 200.71 419.00"
/>
<path stroke="#40557f" vector-effect="non-scaling-stroke" d="
  M 200.71 419.00
  Q 199.35 418.38 198.82 417.92
  Q 189.44 409.83 180.04 401.67
  C 175.74 397.94 174.50 399.95 171.09 402.62
  Q 161.68 409.99 152.25 417.29"
/>
<path stroke="#aaa462" vector-effect="non-scaling-stroke" d="
  M 152.25 417.29
  Q 142.52 400.02 133.25 382.51
  C 132.51 381.11 131.51 380.62 130.04 381.25"
/>
<path stroke="#293348" vector-effect="non-scaling-stroke" d="
  M 170.72 442.69
  Q 173.45 438.83 172.98 433.93
  Q 172.92 433.32 173.39 432.91
  Q 174.89 431.60 176.36 432.87
  Q 176.71 433.16 176.80 433.60
  C 177.31 435.92 178.19 443.35 180.63 444.25
  A 1.45 1.44 -74.3 0 0 182.54 443.17
  C 183.14 440.20 183.62 436.08 185.86 433.94
  Q 186.26 433.54 186.82 433.64
  Q 188.71 433.97 189.14 431.63
  A 1.89 1.89 0.0 0 0 187.74 429.45
  Q 173.30 425.80 159.90 431.48"
/>
<path stroke="#a8a2b3" vector-effect="non-scaling-stroke" d="
  M 95.54 404.00
  L 95.79 421.75"
/>
<path stroke="#fdda79" vector-effect="non-scaling-stroke" d="
  M 95.79 421.75
  C 95.50 425.98 95.86 441.77 103.23 440.91
  C 108.13 440.34 109.43 432.20 109.76 428.00
  Q 110.80 414.64 110.46 401.25"
/>
<path stroke="#a8a2b3" vector-effect="non-scaling-stroke" d="
  M 110.46 401.25
  L 110.71 399.25"
/>
<path stroke="#a8a2b3" vector-effect="non-scaling-stroke" d="
  M 129.66 378.20
  Q 128.73 379.74 130.04 381.25"
/>
<path stroke="#fdda79" vector-effect="non-scaling-stroke" d="
  M 130.04 381.25
  C 134.18 406.33 127.73 431.43 131.72 456.70
  C 132.57 462.12 136.29 470.13 142.61 468.01
  C 152.67 464.64 153.49 445.75 164.54 440.00"
/>
<path stroke="#938a95" vector-effect="non-scaling-stroke" d="
  M 164.54 440.00
  L 168.25 440.96"
/>
<path stroke="#91807c" vector-effect="non-scaling-stroke" d="
  M 168.25 440.96
  L 170.72 442.69"
/>
<path stroke="#938a95" vector-effect="non-scaling-stroke" d="
  M 170.72 442.69
  C 173.17 446.72 172.77 450.63 172.56 455.22"
/>
<path stroke="#fdda79" vector-effect="non-scaling-stroke" d="
  M 172.56 455.22
  Q 170.17 465.32 165.71 474.73
  C 156.89 493.33 144.24 513.55 128.36 526.94"
/>
<path stroke="#fdebe4" vector-effect="non-scaling-stroke" d="
  M 128.36 526.94
  L 109.62 539.78"
/>
<path stroke="#fdda79" vector-effect="non-scaling-stroke" d="
  M 109.62 539.78
  Q 108.90 539.62 108.56 539.81
  Q 100.27 544.48 91.00 546.54"
/>
<path stroke="#fdebe4" vector-effect="non-scaling-stroke" d="
  M 91.00 546.54
  C 87.54 545.47 84.94 546.89 81.85 546.58
  Q 75.02 545.90 68.54 543.50"
/>
<path stroke="#a8a2b3" vector-effect="non-scaling-stroke" d="
  M 46.50 529.46
  C 27.51 508.05 18.86 474.76 14.92 447.12"
/>
<path stroke="#a8a2b3" vector-effect="non-scaling-stroke" d="
  M 32.75 430.29
  C 33.87 437.25 34.83 447.88 42.72 450.18
  A 2.16 2.16 0.0 0 0 45.43 448.60
  Q 46.03 446.01 45.84 443.76
  Q 45.01 433.75 44.55 423.72"
/>
<path stroke="#a8a2b3" vector-effect="non-scaling-stroke" d="
  M 61.50 415.04
  C 62.49 420.22 62.56 426.98 64.94 431.63
  C 68.06 437.73 73.75 436.57 75.41 430.27
  C 77.22 423.39 76.55 416.53 76.71 409.50"
/>
<path stroke="#958d45" vector-effect="non-scaling-stroke" d="
  M 152.25 417.29
  L 159.90 431.48"
/>
<path stroke="#93832b" vector-effect="non-scaling-stroke" d="
  M 159.90 431.48
  L 161.71 434.75"
/>
<path stroke="#958d45" vector-effect="non-scaling-stroke" d="
  M 161.71 434.75
  L 164.54 440.00"
/>
<path stroke="#aaa462" vector-effect="non-scaling-stroke" d="
  M 238.79 393.75
  C 240.58 396.56 242.14 399.32 244.31 401.91
  C 256.76 416.78 264.48 434.28 270.64 453.05
  Q 272.37 458.32 274.50 463.46"
/>
<path stroke="#fdda79" vector-effect="non-scaling-stroke" d="
  M 274.50 463.46
  Q 273.44 464.47 274.50 465.29"
/>
<path stroke="#ffee94" vector-effect="non-scaling-stroke" d="
  M 281.71 505.00
  L 182.29 543.75"
/>
<path stroke="#958d45" vector-effect="non-scaling-stroke" d="
  M 182.29 543.75
  L 177.04 467.95
  A 0.23 0.23 0.0 0 0 176.58 467.95
  L 171.46 543.75"
/>
<path stroke="#ffee94" vector-effect="non-scaling-stroke" d="
  M 171.46 543.75
  C 171.00 543.75 170.65 543.81 170.20 543.63
  Q 149.37 535.45 128.36 526.94"
/>
<path stroke="#958d45" vector-effect="non-scaling-stroke" d="
  M 172.56 455.22
  L 176.41 462.20
  A 0.49 0.49 0.0 0 0 177.27 462.20
  L 200.71 419.00"
/>
<path stroke="#293348" vector-effect="non-scaling-stroke" d="
  M 168.25 440.96
  Q 167.71 437.21 165.21 434.41
  Q 164.87 434.03 164.37 433.99
  Q 162.91 433.88 161.71 434.75"
/>
<path stroke="#aab6ce" vector-effect="non-scaling-stroke" d="
  M 168.04 597.50
  L 167.79 597.75"
/>
<path stroke="#ffee94" vector-effect="non-scaling-stroke" d="
  M 167.79 597.75
  L 68.50 558.83
  Q 68.27 558.74 68.25 558.50
  Q 68.24 558.38 68.21 558.25"
/>
<path stroke="#ffee94" vector-effect="non-scaling-stroke" d="
  M 169.21 577.50
  L 91.58 547.15
  Q 91.34 547.05 91.20 546.84
  L 91.00 546.54"
/>
<path stroke="#ffee94" vector-effect="non-scaling-stroke" d="
  M 170.00 563.79
  L 109.62 539.78"
/>
<path stroke="#aaa462" vector-effect="non-scaling-stroke" d="
  M 110.46 401.25
  C 104.53 406.29 99.73 415.06 95.79 421.75"
/>
<path stroke="#a8a2b3" vector-effect="non-scaling-stroke" d="
  M 345.96 575.75
  L 309.50 580.71"
/>
<path stroke="#a8a2b3" vector-effect="non-scaling-stroke" d="
  M 275.25 464.96
  Q 275.73 463.87 274.50 463.46"
/>
<path stroke="#ffee94" vector-effect="non-scaling-stroke" d="
  M 283.96 525.00
  L 283.48 524.87
  Q 283.00 524.75 282.54 524.93
  L 183.75 563.79"
/>
<path stroke="#959eb0" vector-effect="non-scaling-stroke" d="
  M 182.29 543.75
  C 182.11 544.25 181.96 544.54 182.02 545.10
  Q 182.91 554.01 183.30 562.94
  Q 183.31 563.23 183.75 563.79"
/>
<path stroke="#958d45" vector-effect="non-scaling-stroke" d="
  M 183.75 563.79
  L 184.54 577.50"
/>
<path stroke="#959eb0" vector-effect="non-scaling-stroke" d="
  M 184.54 577.50
  L 185.71 596.50"
/>
<path stroke="#40557f" vector-effect="non-scaling-stroke" d="
  M 185.71 596.50
  C 183.84 597.01 181.51 600.62 178.94 602.20
  C 175.48 604.32 170.60 599.96 168.04 597.50"
/>
<path stroke="#959eb0" vector-effect="non-scaling-stroke" d="
  M 168.04 597.50
  L 169.21 577.50"
/>
<path stroke="#958d45" vector-effect="non-scaling-stroke" d="
  M 169.21 577.50
  L 170.00 563.79"
/>
<path stroke="#959eb0" vector-effect="non-scaling-stroke" d="
  M 170.00 563.79
  L 171.46 543.75"
/>
<path stroke="#aaa462" vector-effect="non-scaling-stroke" d="
  M 167.79 597.75
  L 166.88 611.79
  Q 166.85 612.30 167.36 612.26
  C 171.86 611.90 182.17 610.74 184.71 614.25"
/>
<path stroke="#958d45" vector-effect="non-scaling-stroke" d="
  M 184.71 614.25
  C 185.94 618.73 187.36 627.88 180.25 628.15
  Q 171.76 628.46 166.27 627.80
  Q 165.71 627.74 165.68 628.30
  L 165.43 634.06
  A 0.80 0.80 0.0 0 1 164.26 634.73
  L 134.99 619.31"
/>
<path stroke="#93832b" vector-effect="non-scaling-stroke" d="
  M 134.99 619.31
  L 88.50 594.29"
/>
<path stroke="#40557f" vector-effect="non-scaling-stroke" d="
  M 186.96 613.00
  Q 186.17 614.14 184.71 614.25"
/>
<path stroke="#ffee94" vector-effect="non-scaling-stroke" d="
  M 284.71 538.75
  C 284.28 538.77 283.85 538.68 283.44 538.84
  Q 234.60 558.23 185.66 577.36
  Q 185.13 577.56 184.54 577.50"
/>
<path stroke="#ffee94" vector-effect="non-scaling-stroke" d="
  M 285.40 559.22
  Q 284.11 559.18 283.26 559.52
  Q 236.43 577.92 189.62 596.40
  C 188.52 596.84 187.22 596.93 186.04 597.50"
/>
<path stroke="#aab6ce" vector-effect="non-scaling-stroke" d="
  M 186.04 597.50
  L 185.71 596.50"
/>
<path stroke="#293348" vector-effect="non-scaling-stroke" d="
  M 134.99 619.31
  Q 121.65 616.97 108.57 610.67
  Q 97.99 605.56 89.82 598.57
  Q 89.45 598.25 88.96 598.25
  L 88.29 598.25"
/>
<path stroke="#293348" vector-effect="non-scaling-stroke" d="
  M 230.33 767.60
  Q 201.51 777.33 184.34 803.09
  Q 183.88 803.78 183.21 803.25"
/>
<path stroke="#293348" vector-effect="non-scaling-stroke" d="
  M 166.54 803.25
  L 166.45 803.90
  A 0.31 0.31 0.0 0 1 165.88 804.02
  C 154.11 785.09 139.85 776.33 120.00 767.41"
/>
<path stroke="#958d45" vector-effect="non-scaling-stroke" d="
  M 262.25 597.04
  L 261.25 596.79"
/>
<path stroke="#93832b" vector-effect="non-scaling-stroke" d="
  M 261.25 596.79
  Q 242.01 606.27 223.30 616.98"
/>
<path stroke="#958d45" vector-effect="non-scaling-stroke" d="
  M 223.30 616.98
  L 189.19 634.86
  A 0.58 0.58 0.0 0 1 188.34 634.39
  L 186.96 613.00"
/>
<path stroke="#aaa462" vector-effect="non-scaling-stroke" d="
  M 186.96 613.00
  L 186.04 597.50"
/>
<path stroke="#293348" vector-effect="non-scaling-stroke" d="
  M 261.25 596.79
  Q 261.38 598.12 260.23 598.31
  Q 259.75 598.39 259.40 598.73
  Q 256.74 601.33 255.76 602.02
  Q 240.89 612.47 223.30 616.98"
/>
<path stroke="#aaa462" vector-effect="non-scaling-stroke" d="
  M 149.69 68.38
  C 147.16 78.15 164.40 86.92 171.37 88.86
  C 180.24 91.32 202.67 78.41 199.20 67.56
  C 196.99 60.66 192.75 51.15 193.06 43.98
  C 193.17 41.32 194.85 38.61 195.37 35.53
  A 1.72 1.71 1.3 0 0 193.46 33.54
  Q 192.33 33.68 190.52 34.30
  Q 173.65 40.05 156.92 33.95
  Q 156.19 33.68 155.36 33.54
  A 1.73 1.73 0.0 0 0 153.43 35.78
  Q 154.29 38.39 155.24 41.02
  C 157.87 48.36 151.63 60.90 149.69 68.38"
/>
<path stroke="#9a8881" vector-effect="non-scaling-stroke" d="
  M 136.1300 253.2300
  A 16.68 9.92 90.0 0 0 146.0500 236.5500
  A 16.68 9.92 90.0 0 0 136.1300 219.8700
  A 16.68 9.92 90.0 0 0 126.2100 236.5500
  A 16.68 9.92 90.0 0 0 136.1300 253.2300"
/>
<path stroke="#9a8881" vector-effect="non-scaling-stroke" d="
  M 213.6100 253.2300
  A 16.68 9.93 90.0 0 0 223.5400 236.5500
  A 16.68 9.93 90.0 0 0 213.6100 219.8700
  A 16.68 9.93 90.0 0 0 203.6800 236.5500
  A 16.68 9.93 90.0 0 0 213.6100 253.2300"
/>
<path stroke="#f1c7a7" vector-effect="non-scaling-stroke" d="
  M 156.38 282.49
  Q 174.67 293.02 193.05 282.75
  A 1.74 1.74 0.0 0 0 193.78 280.48
  C 192.86 278.54 190.25 279.25 188.48 280.03
  C 177.82 284.70 169.83 282.74 159.19 279.70
  Q 157.31 279.16 156.20 280.06
  A 1.48 1.47 -49.3 0 0 156.38 282.49"
/>
<path stroke="#f1c7a7" vector-effect="non-scaling-stroke" d="
  M 124.32 306.47
  C 124.68 312.31 146.60 314.50 152.25 314.99
  Q 181.75 317.55 208.33 313.48
  C 213.60 312.68 220.92 310.89 224.61 306.76
  A 0.55 0.55 0.0 0 0 224.09 305.86
  C 190.56 313.01 158.52 312.23 124.94 305.92
  Q 124.28 305.79 124.32 306.47"
/>
<path stroke="#f1c7a7" vector-effect="non-scaling-stroke" d="
  M 152.54 321.52
  C 153.60 329.60 193.23 330.45 196.26 321.46
  A 0.38 0.37 -0.2 0 0 195.78 320.99
  Q 174.50 328.04 153.23 320.95
  A 0.53 0.53 0.0 0 0 152.54 321.52"
/>
<path stroke="#9c9c9c" vector-effect="non-scaling-stroke" d="
  M 143.46 228.30
  A 5.90 5.90 0.0 0 0 137.56 222.40
  A 5.90 5.90 0.0 0 0 131.66 228.30
  A 5.90 5.90 0.0 0 0 137.56 234.20
  A 5.90 5.90 0.0 0 0 143.46 228.30"
/>
<path stroke="#9c9c9c" vector-effect="non-scaling-stroke" d="
  M 220.97 228.32
  A 5.90 5.90 0.0 0 0 215.07 222.42
  A 5.90 5.90 0.0 0 0 209.17 228.32
  A 5.90 5.90 0.0 0 0 215.07 234.22
  A 5.90 5.90 0.0 0 0 220.97 228.32"
/>
<path stroke="#fdc632" vector-effect="non-scaling-stroke" d="
  M 213.57 491.88
  C 217.87 497.72 231.55 506.10 239.00 504.27
  Q 250.63 501.42 258.95 491.70
  Q 262.43 487.64 260.60 481.69
  C 258.59 475.15 254.35 465.65 254.97 458.93
  C 255.21 456.26 257.17 453.59 257.01 450.56
  A 1.88 1.88 0.0 0 0 254.47 448.90
  Q 236.37 455.63 218.29 448.91
  A 2.07 2.06 16.4 0 0 215.56 450.39
  C 215.31 451.49 215.92 453.43 216.53 454.73
  C 222.45 467.23 205.78 481.34 213.57 491.88"
/>
<path stroke="#93832b" vector-effect="non-scaling-stroke" d="
  M 182.46 617.12
  A 2.11 2.11 0.0 0 0 180.35 615.01
  L 169.59 615.01
  A 2.11 2.11 0.0 0 0 167.48 617.12
  L 167.48 623.12
  A 2.11 2.11 0.0 0 0 169.59 625.23
  L 180.35 625.23
  A 2.11 2.11 0.0 0 0 182.46 623.12
  L 182.46 617.12"
/>
</g>
<path fill="#546c9c" d="
  M 302.25 154.29
  Q 300.53 152.45 297.19 150.98
  L 297.05 143.27
  A 2.77 2.75 16.7 0 0 295.83 141.02
  C 226.99 94.16 123.84 94.27 54.81 140.34
  C 54.29 140.69 53.49 141.63 53.07 142.11
  Q 52.72 142.51 52.71 143.02
  L 52.50 151.46
  Q 49.39 152.32 47.00 154.54
  Q 33.84 143.06 17.71 136.95
  A 0.67 0.67 0.0 0 1 17.48 135.84
  C 36.64 117.45 50.60 98.34 56.50 71.96
  C 56.73 70.92 57.80 69.85 58.86 69.38
  C 98.78 51.37 134.34 33.65 169.47 10.20
  C 171.29 8.99 174.19 5.41 176.44 7.00
  C 213.36 32.94 250.72 51.84 291.90 69.65
  Q 292.39 69.87 292.53 70.38
  C 294.83 79.09 296.48 87.04 300.31 96.20
  C 307.26 112.81 317.14 126.04 332.19 136.28
  A 0.31 0.31 0.0 0 1 332.14 136.82
  Q 316.04 143.64 302.25 154.29
  Z
  M 149.69 68.38
  C 147.16 78.15 164.40 86.92 171.37 88.86
  C 180.24 91.32 202.67 78.41 199.20 67.56
  C 196.99 60.66 192.75 51.15 193.06 43.98
  C 193.17 41.32 194.85 38.61 195.37 35.53
  A 1.72 1.71 1.3 0 0 193.46 33.54
  Q 192.33 33.68 190.52 34.30
  Q 173.65 40.05 156.92 33.95
  Q 156.19 33.68 155.36 33.54
  A 1.73 1.73 0.0 0 0 153.43 35.78
  Q 154.29 38.39 155.24 41.02
  C 157.87 48.36 151.63 60.90 149.69 68.38
  Z"
/>
<path fill="#ffdc28" d="
  M 171.37 88.86
  C 164.40 86.92 147.16 78.15 149.69 68.38
  C 151.63 60.90 157.87 48.36 155.24 41.02
  Q 154.29 38.39 153.43 35.78
  A 1.73 1.73 0.0 0 1 155.36 33.54
  Q 156.19 33.68 156.92 33.95
  Q 173.65 40.05 190.52 34.30
  Q 192.33 33.68 193.46 33.54
  A 1.72 1.71 1.3 0 1 195.37 35.53
  C 194.85 38.61 193.17 41.32 193.06 43.98
  C 192.75 51.15 196.99 60.66 199.20 67.56
  C 202.67 78.41 180.24 91.32 171.37 88.86
  Z"
/>
<path fill="#2b3d61" d="
  M 297.19 150.98
  Q 284.03 157.23 292.73 169.49
  Q 293.68 170.82 296.97 170.99
  L 296.71 183.50
  Q 295.24 182.72 293.69 183.28
  Q 281.83 190.57 269.46 196.75
  Q 267.86 197.13 266.71 198.25
  Q 253.69 203.51 240.25 207.54
  Q 236.99 208.20 234.22 210.11
  Q 233.78 210.41 233.26 210.31
  Q 230.77 209.83 228.48 210.55
  C 220.56 212.27 211.58 212.95 204.04 215.50
  Q 204.09 215.26 204.29 215.04
  Q 204.64 214.65 204.12 214.73
  L 195.00 216.04
  Q 194.11 215.67 193.75 215.70
  Q 175.00 217.25 156.25 215.71
  Q 155.88 215.68 155.00 216.04
  Q 149.81 214.89 144.50 214.79
  L 120.77 210.51
  Q 115.96 210.71 111.98 208.25
  Q 111.57 208.00 111.09 207.99
  L 109.75 207.96
  Q 94.53 202.96 79.84 196.65
  Q 66.94 190.31 55.03 182.27
  C 54.61 181.99 54.02 181.90 53.54 181.75
  C 53.20 180.71 52.82 179.75 52.80 178.63
  Q 52.74 174.50 52.74 171.17
  Q 64.92 166.12 57.94 154.06
  Q 56.50 151.57 52.50 151.46
  L 52.71 143.02
  Q 52.72 142.51 53.07 142.11
  C 53.49 141.63 54.29 140.69 54.81 140.34
  C 123.84 94.27 226.99 94.16 295.83 141.02
  A 2.77 2.75 16.7 0 1 297.05 143.27
  L 297.19 150.98
  Z"
/>
<path fill="#ffdc28" d="
  M 52.50 151.46
  Q 56.50 151.57 57.94 154.06
  Q 64.92 166.12 52.74 171.17
  Q 46.01 167.67 45.92 161.17
  C 45.89 159.24 46.90 156.84 47.00 154.54
  Q 49.39 152.32 52.50 151.46
  Z"
/>
<path fill="#ffdc28" d="
  M 297.19 150.98
  Q 300.53 152.45 302.25 154.29
  Q 307.01 165.80 296.97 170.99
  Q 293.68 170.82 292.73 169.49
  Q 284.03 157.23 297.19 150.98
  Z"
/>
<path fill="#383838" d="
  M 53.54 181.75
  C 54.02 181.90 54.61 181.99 55.03 182.27
  Q 66.94 190.31 79.84 196.65
  Q 74.36 218.10 75.14 240.00
  C 75.45 248.62 76.31 260.58 72.73 269.07
  Q 72.37 269.94 72.27 269.00
  C 70.93 256.80 63.05 231.79 50.08 227.60
  C 49.88 227.04 49.70 226.72 49.65 226.18
  Q 47.24 203.57 53.54 181.75
  Z"
/>
<path fill="#383838" d="
  M 296.71 183.50
  C 298.07 191.09 299.78 198.99 300.24 206.24
  Q 300.91 216.61 299.96 227.00
  C 285.91 228.75 278.11 247.51 276.08 259.58
  A 0.60 0.59 -65.6 0 1 275.11 259.95
  C 269.15 254.98 271.73 244.99 272.03 238.25
  Q 272.93 217.76 266.71 198.25
  Q 267.86 197.13 269.46 196.75
  Q 269.47 196.92 269.49 197.04
  Q 269.53 197.36 269.84 197.39
  C 275.58 197.93 289.04 197.82 292.64 191.78
  C 293.92 189.62 293.57 186.00 293.69 183.28
  Q 295.24 182.72 296.71 183.50
  Z"
/>
<path fill="#471f02" d="
  M 293.69 183.28
  C 293.57 186.00 293.92 189.62 292.64 191.78
  C 289.04 197.82 275.58 197.93 269.84 197.39
  Q 269.53 197.36 269.49 197.04
  Q 269.47 196.92 269.46 196.75
  Q 281.83 190.57 293.69 183.28
  Z"
/>
<path fill="#fbd7c9" d="
  M 79.84 196.65
  Q 94.53 202.96 109.75 207.96
  C 107.80 208.75 103.39 211.26 104.35 213.68
  C 105.26 215.96 109.07 215.63 110.74 214.71
  Q 115.98 211.84 120.77 210.51
  L 144.50 214.79
  Q 149.36 219.75 155.00 216.04
  Q 155.88 215.68 156.25 215.71
  Q 175.00 217.25 193.75 215.70
  Q 194.11 215.67 195.00 216.04
  Q 199.70 219.69 204.04 215.50
  C 211.58 212.95 220.56 212.27 228.48 210.55
  Q 233.95 211.85 238.80 214.46
  C 241.12 215.71 243.20 215.90 245.15 214.21
  Q 245.55 213.86 245.51 213.33
  C 245.27 209.89 241.97 209.56 240.25 207.54
  Q 253.69 203.51 266.71 198.25
  Q 272.93 217.76 272.03 238.25
  C 271.73 244.99 269.15 254.98 275.11 259.95
  A 0.60 0.59 -65.6 0 0 276.08 259.58
  C 278.11 247.51 285.91 228.75 299.96 227.00
  Q 300.03 227.46 300.37 227.76
  Q 300.77 228.10 301.28 228.03
  C 309.56 226.83 310.43 245.02 309.86 249.75
  C 308.37 262.12 300.73 280.56 287.72 284.68
  Q 287.22 284.84 286.95 285.29
  C 285.76 287.28 285.79 290.25 285.29 291.94
  Q 269.06 346.85 215.76 368.14
  C 215.27 368.34 215.17 368.55 214.96 369.00
  C 190.13 378.66 160.46 378.24 135.50 369.52
  Q 135.04 369.36 134.72 368.99
  Q 134.33 368.54 133.79 368.50
  Q 133.41 367.91 133.20 367.82
  Q 76.78 344.65 62.66 285.09
  Q 62.54 284.59 62.13 284.30
  C 48.39 274.57 38.29 248.47 42.38 232.21
  Q 43.86 226.33 50.08 227.60
  C 63.05 231.79 70.93 256.80 72.27 269.00
  Q 72.37 269.94 72.73 269.07
  C 76.31 260.58 75.45 248.62 75.14 240.00
  Q 74.36 218.10 79.84 196.65
  Z
  M 136.1300 253.2300
  A 16.68 9.92 90.0 0 0 146.0500 236.5500
  A 16.68 9.92 90.0 0 0 136.1300 219.8700
  A 16.68 9.92 90.0 0 0 126.2100 236.5500
  A 16.68 9.92 90.0 0 0 136.1300 253.2300
  Z
  M 213.6100 253.2300
  A 16.68 9.93 90.0 0 0 223.5400 236.5500
  A 16.68 9.93 90.0 0 0 213.6100 219.8700
  A 16.68 9.93 90.0 0 0 203.6800 236.5500
  A 16.68 9.93 90.0 0 0 213.6100 253.2300
  Z
  M 156.38 282.49
  Q 174.67 293.02 193.05 282.75
  A 1.74 1.74 0.0 0 0 193.78 280.48
  C 192.86 278.54 190.25 279.25 188.48 280.03
  C 177.82 284.70 169.83 282.74 159.19 279.70
  Q 157.31 279.16 156.20 280.06
  A 1.48 1.47 -49.3 0 0 156.38 282.49
  Z
  M 124.32 306.47
  C 124.68 312.31 146.60 314.50 152.25 314.99
  Q 181.75 317.55 208.33 313.48
  C 213.60 312.68 220.92 310.89 224.61 306.76
  A 0.55 0.55 0.0 0 0 224.09 305.86
  C 190.56 313.01 158.52 312.23 124.94 305.92
  Q 124.28 305.79 124.32 306.47
  Z
  M 152.54 321.52
  C 153.60 329.60 193.23 330.45 196.26 321.46
  A 0.38 0.37 -0.2 0 0 195.78 320.99
  Q 174.50 328.04 153.23 320.95
  A 0.53 0.53 0.0 0 0 152.54 321.52
  Z"
/>
<path fill="#471f02" d="
  M 240.25 207.54
  C 241.97 209.56 245.27 209.89 245.51 213.33
  Q 245.55 213.86 245.15 214.21
  C 243.20 215.90 241.12 215.71 238.80 214.46
  Q 233.95 211.85 228.48 210.55
  Q 230.77 209.83 233.26 210.31
  Q 233.78 210.41 234.22 210.11
  Q 236.99 208.20 240.25 207.54
  Z"
/>
<path fill="#471f02" d="
  M 109.75 207.96
  L 111.09 207.99
  Q 111.57 208.00 111.98 208.25
  Q 115.96 210.71 120.77 210.51
  Q 115.98 211.84 110.74 214.71
  C 109.07 215.63 105.26 215.96 104.35 213.68
  C 103.39 211.26 107.80 208.75 109.75 207.96
  Z"
/>
<path fill="#471f02" d="
  M 155.00 216.04
  Q 149.36 219.75 144.50 214.79
  Q 149.81 214.89 155.00 216.04
  Z"
/>
<path fill="#471f02" d="
  M 204.04 215.50
  Q 199.70 219.69 195.00 216.04
  L 204.12 214.73
  Q 204.64 214.65 204.29 215.04
  Q 204.09 215.26 204.04 215.50
  Z"
/>
<path fill="#383838" d="
  M 136.1300 253.2300
  A 16.68 9.92 90.0 0 1 126.2100 236.5500
  A 16.68 9.92 90.0 0 1 136.1300 219.8700
  A 16.68 9.92 90.0 0 1 146.0500 236.5500
  A 16.68 9.92 90.0 0 1 136.1300 253.2300
  Z
  M 143.46 228.30
  A 5.90 5.90 0.0 0 0 137.56 222.40
  A 5.90 5.90 0.0 0 0 131.66 228.30
  A 5.90 5.90 0.0 0 0 137.56 234.20
  A 5.90 5.90 0.0 0 0 143.46 228.30
  Z"
/>
<path fill="#383838" d="
  M 213.6100 253.2300
  A 16.68 9.93 90.0 0 1 203.6800 236.5500
  A 16.68 9.93 90.0 0 1 213.6100 219.8700
  A 16.68 9.93 90.0 0 1 223.5400 236.5500
  A 16.68 9.93 90.0 0 1 213.6100 253.2300
  Z
  M 220.97 228.32
  A 5.90 5.90 0.0 0 0 215.07 222.42
  A 5.90 5.90 0.0 0 0 209.17 228.32
  A 5.90 5.90 0.0 0 0 215.07 234.22
  A 5.90 5.90 0.0 0 0 220.97 228.32
  Z"
/>
<circle fill="#ffffff" cx="137.56" cy="228.30" r="5.90"/>
<circle fill="#ffffff" cx="215.07" cy="228.32" r="5.90"/>
<path fill="#e6b685" d="
  M 156.38 282.49
  A 1.48 1.47 -49.3 0 1 156.20 280.06
  Q 157.31 279.16 159.19 279.70
  C 169.83 282.74 177.82 284.70 188.48 280.03
  C 190.25 279.25 192.86 278.54 193.78 280.48
  A 1.74 1.74 0.0 0 1 193.05 282.75
  Q 174.67 293.02 156.38 282.49
  Z"
/>
<path fill="#e6b685" d="
  M 152.25 314.99
  C 146.60 314.50 124.68 312.31 124.32 306.47
  Q 124.28 305.79 124.94 305.92
  C 158.52 312.23 190.56 313.01 224.09 305.86
  A 0.55 0.55 0.0 0 1 224.61 306.76
  C 220.92 310.89 213.60 312.68 208.33 313.48
  Q 181.75 317.55 152.25 314.99
  Z"
/>
<path fill="#e6b685" d="
  M 196.26 321.46
  C 193.23 330.45 153.60 329.60 152.54 321.52
  A 0.53 0.53 0.0 0 1 153.23 320.95
  Q 174.50 328.04 195.78 320.99
  A 0.38 0.37 -0.2 0 1 196.26 321.46
  Z"
/>
<path fill="#fbd7c9" d="
  M 95.54 404.00
  L 95.79 421.75
  C 95.50 425.98 95.86 441.77 103.23 440.91
  C 108.13 440.34 109.43 432.20 109.76 428.00
  Q 110.80 414.64 110.46 401.25
  L 110.71 399.25
  C 112.97 392.56 112.41 379.18 120.16 375.89
  C 124.88 373.89 125.99 377.69 129.66 378.20
  Q 128.73 379.74 130.04 381.25
  C 134.18 406.33 127.73 431.43 131.72 456.70
  C 132.57 462.12 136.29 470.13 142.61 468.01
  C 152.67 464.64 153.49 445.75 164.54 440.00
  L 168.25 440.96
  L 170.72 442.69
  C 173.17 446.72 172.77 450.63 172.56 455.22
  Q 170.17 465.32 165.71 474.73
  C 156.89 493.33 144.24 513.55 128.36 526.94
  L 109.62 539.78
  Q 108.90 539.62 108.56 539.81
  Q 100.27 544.48 91.00 546.54
  C 87.54 545.47 84.94 546.89 81.85 546.58
  Q 75.02 545.90 68.54 543.50
  C 65.74 541.75 62.70 540.38 60.09 538.48
  Q 53.49 533.67 46.50 529.46
  C 27.51 508.05 18.86 474.76 14.92 447.12
  Q 12.34 426.11 12.58 407.33
  C 12.64 402.63 14.30 395.02 19.07 392.89
  C 30.53 387.79 31.60 423.79 32.07 429.40
  Q 32.10 429.82 32.45 430.07
  L 32.75 430.29
  C 33.87 437.25 34.83 447.88 42.72 450.18
  A 2.16 2.16 0.0 0 0 45.43 448.60
  Q 46.03 446.01 45.84 443.76
  Q 45.01 433.75 44.55 423.72
  C 42.55 411.41 36.12 374.64 46.64 367.49
  C 50.98 364.54 56.01 368.41 57.76 372.74
  Q 60.07 378.45 60.53 388.75
  Q 61.11 401.89 61.50 415.04
  C 62.49 420.22 62.56 426.98 64.94 431.63
  C 68.06 437.73 73.75 436.57 75.41 430.27
  C 77.22 423.39 76.55 416.53 76.71 409.50
  Q 76.40 393.24 75.97 377.00
  C 75.81 370.90 77.35 356.34 86.73 356.68
  C 94.69 356.97 95.79 371.79 95.75 377.25
  Q 95.66 390.62 95.54 404.00
  Z"
/>
<path fill="#e6b685" d="
  M 133.79 368.50
  Q 134.33 368.54 134.72 368.99
  Q 135.04 369.36 135.50 369.52
  C 160.46 378.24 190.13 378.66 214.96 369.00
  L 215.54 371.00
  C 215.06 384.47 205.69 392.24 193.48 395.44
  Q 172.55 400.94 152.47 392.95
  C 142.55 389.01 134.32 381.61 133.71 370.25
  L 133.79 368.50
  Z"
/>
<path fill="#546c9c" d="
  M 133.71 370.25
  C 134.32 381.61 142.55 389.01 152.47 392.95
  Q 172.55 400.94 193.48 395.44
  C 205.69 392.24 215.06 384.47 215.54 371.00
  Q 217.48 376.60 221.46 380.76
  L 200.71 419.00
  Q 199.35 418.38 198.82 417.92
  Q 189.44 409.83 180.04 401.67
  C 175.74 397.94 174.50 399.95 171.09 402.62
  Q 161.68 409.99 152.25 417.29
  Q 142.52 400.02 133.25 382.51
  C 132.51 381.11 131.51 380.62 130.04 381.25
  Q 128.73 379.74 129.66 378.20
  Q 132.27 374.48 133.71 370.25
  Z"
/>
<path fill="#ffdc28" d="
  M 221.46 380.76
  C 229.26 383.06 233.16 386.90 238.79 393.75
  C 240.58 396.56 242.14 399.32 244.31 401.91
  C 256.76 416.78 264.48 434.28 270.64 453.05
  Q 272.37 458.32 274.50 463.46
  Q 273.44 464.47 274.50 465.29
  Q 279.09 484.47 281.96 503.98
  C 282.01 504.30 281.83 504.69 281.71 505.00
  L 182.29 543.75
  L 177.04 467.95
  A 0.23 0.23 0.0 0 0 176.58 467.95
  L 171.46 543.75
  C 171.00 543.75 170.65 543.81 170.20 543.63
  Q 149.37 535.45 128.36 526.94
  C 144.24 513.55 156.89 493.33 165.71 474.73
  Q 170.17 465.32 172.56 455.22
  L 176.41 462.20
  A 0.49 0.49 0.0 0 0 177.27 462.20
  L 200.71 419.00
  L 221.46 380.76
  Z
  M 213.57 491.88
  C 217.87 497.72 231.55 506.10 239.00 504.27
  Q 250.63 501.42 258.95 491.70
  Q 262.43 487.64 260.60 481.69
  C 258.59 475.15 254.35 465.65 254.97 458.93
  C 255.21 456.26 257.17 453.59 257.01 450.56
  A 1.88 1.88 0.0 0 0 254.47 448.90
  Q 236.37 455.63 218.29 448.91
  A 2.07 2.06 16.4 0 0 215.56 450.39
  C 215.31 451.49 215.92 453.43 216.53 454.73
  C 222.45 467.23 205.78 481.34 213.57 491.88
  Z"
/>
<path fill="#ffdc28" d="
  M 152.25 417.29
  L 159.90 431.48
  L 161.71 434.75
  L 164.54 440.00
  C 153.49 445.75 152.67 464.64 142.61 468.01
  C 136.29 470.13 132.57 462.12 131.72 456.70
  C 127.73 431.43 134.18 406.33 130.04 381.25
  C 131.51 380.62 132.51 381.11 133.25 382.51
  Q 142.52 400.02 152.25 417.29
  Z"
/>
<path fill="#546c9c" d="
  M 238.79 393.75
  Q 247.13 395.58 253.07 398.16
  C 297.19 417.38 319.55 460.69 331.81 504.85
  Q 341.44 539.57 346.15 575.30
  Q 346.16 575.42 346.10 575.51
  Q 346.02 575.61 345.96 575.75
  L 309.50 580.71
  Q 308.30 565.56 305.25 550.67
  Q 305.18 550.30 304.35 548.06
  C 303.87 546.74 304.06 545.49 303.82 544.32
  C 298.36 516.88 290.22 489.50 275.99 465.29
  Q 275.82 465.00 275.25 464.96
  Q 275.73 463.87 274.50 463.46
  Q 272.37 458.32 270.64 453.05
  C 264.48 434.28 256.76 416.78 244.31 401.91
  C 242.14 399.32 240.58 396.56 238.79 393.75
  Z"
/>
<path fill="#546c9c" d="
  M 110.71 399.25
  L 110.46 401.25
  C 104.53 406.29 99.73 415.06 95.79 421.75
  L 95.54 404.00
  L 107.46 401.61
  Q 107.95 401.51 108.34 401.20
  L 110.71 399.25
  Z"
/>
<path fill="#2b3d61" d="
  M 200.71 419.00
  L 177.27 462.20
  A 0.49 0.49 0.0 0 1 176.41 462.20
  L 172.56 455.22
  C 172.77 450.63 173.17 446.72 170.72 442.69
  Q 173.45 438.83 172.98 433.93
  Q 172.92 433.32 173.39 432.91
  Q 174.89 431.60 176.36 432.87
  Q 176.71 433.16 176.80 433.60
  C 177.31 435.92 178.19 443.35 180.63 444.25
  A 1.45 1.44 -74.3 0 0 182.54 443.17
  C 183.14 440.20 183.62 436.08 185.86 433.94
  Q 186.26 433.54 186.82 433.64
  Q 188.71 433.97 189.14 431.63
  A 1.89 1.89 0.0 0 0 187.74 429.45
  Q 173.30 425.80 159.90 431.48
  L 152.25 417.29
  Q 161.68 409.99 171.09 402.62
  C 174.50 399.95 175.74 397.94 180.04 401.67
  Q 189.44 409.83 198.82 417.92
  Q 199.35 418.38 200.71 419.00
  Z"
/>
<path fill="#ffdc28" d="
  M 110.46 401.25
  Q 110.80 414.64 109.76 428.00
  C 109.43 432.20 108.13 440.34 103.23 440.91
  C 95.86 441.77 95.50 425.98 95.79 421.75
  C 99.73 415.06 104.53 406.29 110.46 401.25
  Z"
/>
<path fill="#546c9c" d="
  M 76.71 409.50
  C 76.55 416.53 77.22 423.39 75.41 430.27
  C 73.75 436.57 68.06 437.73 64.94 431.63
  C 62.56 426.98 62.49 420.22 61.50 415.04
  L 76.71 409.50
  Z"
/>
<path fill="#546c9c" d="
  M 44.55 423.72
  Q 45.01 433.75 45.84 443.76
  Q 46.03 446.01 45.43 448.60
  A 2.16 2.16 0.0 0 1 42.72 450.18
  C 34.83 447.88 33.87 437.25 32.75 430.29
  C 34.84 429.19 42.95 423.67 44.55 423.72
  Z"
/>
<path fill="#26292e" d="
  M 170.72 442.69
  L 168.25 440.96
  Q 167.71 437.21 165.21 434.41
  Q 164.87 434.03 164.37 433.99
  Q 162.91 433.88 161.71 434.75
  L 159.90 431.48
  Q 173.30 425.80 187.74 429.45
  A 1.89 1.89 0.0 0 1 189.14 431.63
  Q 188.71 433.97 186.82 433.64
  Q 186.26 433.54 185.86 433.94
  C 183.62 436.08 183.14 440.20 182.54 443.17
  A 1.45 1.44 -74.3 0 1 180.63 444.25
  C 178.19 443.35 177.31 435.92 176.80 433.60
  Q 176.71 433.16 176.36 432.87
  Q 174.89 431.60 173.39 432.91
  Q 172.92 433.32 172.98 433.93
  Q 173.45 438.83 170.72 442.69
  Z"
/>
<path fill="#2b3d61" d="
  M 168.25 440.96
  L 164.54 440.00
  L 161.71 434.75
  Q 162.91 433.88 164.37 433.99
  Q 164.87 434.03 165.21 434.41
  Q 167.71 437.21 168.25 440.96
  Z"
/>
<path fill="#546c9c" d="
  M 14.92 447.12
  C 18.86 474.76 27.51 508.05 46.50 529.46
  C 27.27 519.11 4.00 501.05 3.63 476.91
  Q 3.38 460.15 14.92 447.12
  Z"
/>
<path fill="#fbb03b" d="
  M 213.57 491.88
  C 205.78 481.34 222.45 467.23 216.53 454.73
  C 215.92 453.43 215.31 451.49 215.56 450.39
  A 2.07 2.06 16.4 0 1 218.29 448.91
  Q 236.37 455.63 254.47 448.90
  A 1.88 1.88 0.0 0 1 257.01 450.56
  C 257.17 453.59 255.21 456.26 254.97 458.93
  C 254.35 465.65 258.59 475.15 260.60 481.69
  Q 262.43 487.64 258.95 491.70
  Q 250.63 501.42 239.00 504.27
  C 231.55 506.10 217.87 497.72 213.57 491.88
  Z"
/>
<path fill="#fbd7c9" d="
  M 274.50 463.46
  Q 275.73 463.87 275.25 464.96
  L 274.50 465.29
  Q 273.44 464.47 274.50 463.46
  Z"
/>
<path fill="#2b3d61" d="
  M 182.29 543.75
  C 182.11 544.25 181.96 544.54 182.02 545.10
  Q 182.91 554.01 183.30 562.94
  Q 183.31 563.23 183.75 563.79
  L 184.54 577.50
  L 185.71 596.50
  C 183.84 597.01 181.51 600.62 178.94 602.20
  C 175.48 604.32 170.60 599.96 168.04 597.50
  L 169.21 577.50
  L 170.00 563.79
  L 171.46 543.75
  L 176.58 467.95
  A 0.23 0.23 0.0 0 1 177.04 467.95
  L 182.29 543.75
  Z"
/>
<path fill="#ffffff" d="
  M 281.71 505.00
  L 283.96 525.00
  L 283.48 524.87
  Q 283.00 524.75 282.54 524.93
  L 183.75 563.79
  Q 183.31 563.23 183.30 562.94
  Q 182.91 554.01 182.02 545.10
  C 181.96 544.54 182.11 544.25 182.29 543.75
  L 281.71 505.00
  Z"
/>
<path fill="#ffdc28" d="
  M 283.96 525.00
  Q 284.90 531.84 284.71 538.75
  C 284.28 538.77 283.85 538.68 283.44 538.84
  Q 234.60 558.23 185.66 577.36
  Q 185.13 577.56 184.54 577.50
  L 183.75 563.79
  L 282.54 524.93
  Q 283.00 524.75 283.48 524.87
  L 283.96 525.00
  Z"
/>
<path fill="#ffffff" d="
  M 128.36 526.94
  Q 149.37 535.45 170.20 543.63
  C 170.65 543.81 171.00 543.75 171.46 543.75
  L 170.00 563.79
  L 109.62 539.78
  L 128.36 526.94
  Z"
/>
<path fill="#ffffff" d="
  M 284.71 538.75
  Q 284.14 548.99 285.40 559.22
  Q 284.11 559.18 283.26 559.52
  Q 236.43 577.92 189.62 596.40
  C 188.52 596.84 187.22 596.93 186.04 597.50
  L 185.71 596.50
  L 184.54 577.50
  Q 185.13 577.56 185.66 577.36
  Q 234.60 558.23 283.44 538.84
  C 283.85 538.68 284.28 538.77 284.71 538.75
  Z"
/>
<path fill="#ffdc28" d="
  M 109.62 539.78
  L 170.00 563.79
  L 169.21 577.50
  L 91.58 547.15
  Q 91.34 547.05 91.20 546.84
  L 91.00 546.54
  Q 100.27 544.48 108.56 539.81
  Q 108.90 539.62 109.62 539.78
  Z"
/>
<path fill="#ffffff" d="
  M 68.54 543.50
  Q 75.02 545.90 81.85 546.58
  C 84.94 546.89 87.54 545.47 91.00 546.54
  L 91.20 546.84
  Q 91.34 547.05 91.58 547.15
  L 169.21 577.50
  L 168.04 597.50
  L 167.79 597.75
  L 68.50 558.83
  Q 68.27 558.74 68.25 558.50
  Q 68.24 558.38 68.21 558.25
  L 68.54 543.50
  Z"
/>
<path fill="#ffdc28" d="
  M 68.21 558.25
  Q 68.24 558.38 68.25 558.50
  Q 68.27 558.74 68.50 558.83
  L 167.79 597.75
  L 166.88 611.79
  Q 166.85 612.30 167.36 612.26
  C 171.86 611.90 182.17 610.74 184.71 614.25
  C 185.94 618.73 187.36 627.88 180.25 628.15
  Q 171.76 628.46 166.27 627.80
  Q 165.71 627.74 165.68 628.30
  L 165.43 634.06
  A 0.80 0.80 0.0 0 1 164.26 634.73
  L 134.99 619.31
  L 88.50 594.29
  L 69.27 583.97
  Q 68.83 583.74 68.82 583.24
  L 68.21 558.25
  Z
  M 182.46 617.12
  A 2.11 2.11 0.0 0 0 180.35 615.01
  L 169.59 615.01
  A 2.11 2.11 0.0 0 0 167.48 617.12
  L 167.48 623.12
  A 2.11 2.11 0.0 0 0 169.59 625.23
  L 180.35 625.23
  A 2.11 2.11 0.0 0 0 182.46 623.12
  L 182.46 617.12
  Z"
/>
<path fill="#ffdc28" d="
  M 285.40 559.22
  L 285.00 583.32
  Q 284.99 583.83 284.54 584.07
  L 263.63 595.14
  Q 263.20 595.37 263.12 595.86
  Q 262.98 596.67 262.25 597.04
  L 261.25 596.79
  Q 242.01 606.27 223.30 616.98
  L 189.19 634.86
  A 0.58 0.58 0.0 0 1 188.34 634.39
  L 186.96 613.00
  L 186.04 597.50
  C 187.22 596.93 188.52 596.84 189.62 596.40
  Q 236.43 577.92 283.26 559.52
  Q 284.11 559.18 285.40 559.22
  Z"
/>
<path fill="#fbd7c9" d="
  M 345.96 575.75
  C 346.20 576.95 346.16 577.30 346.98 578.28
  C 357.56 590.87 359.53 609.60 361.31 625.49
  C 361.61 628.13 360.65 636.88 356.32 634.88
  Q 355.88 634.68 355.74 634.22
  Q 353.72 627.63 353.44 620.76
  C 353.34 618.44 351.53 605.89 346.39 611.18
  Q 346.02 611.55 346.08 612.08
  Q 347.05 621.85 348.98 636.75
  C 349.26 638.92 349.02 644.72 346.45 645.83
  C 344.53 646.67 342.12 645.85 341.82 643.43
  Q 340.52 633.09 340.42 624.02
  Q 340.38 620.13 338.72 616.99
  Q 338.47 616.53 337.97 616.41
  Q 333.60 615.45 333.32 619.83
  Q 332.94 626.01 333.58 636.96
  C 333.71 639.32 333.66 655.38 327.81 650.21
  C 323.88 646.73 326.34 623.99 325.72 617.74
  C 325.46 615.11 323.98 613.90 321.42 614.03
  Q 320.92 614.06 320.58 614.41
  C 317.90 617.14 318.07 629.35 318.05 635.51
  Q 318.05 637.16 315.98 641.41
  Q 315.76 641.87 315.28 642.06
  L 313.63 642.72
  Q 313.22 642.88 312.93 642.57
  Q 310.81 640.28 310.78 638.50
  Q 310.58 627.87 310.78 617.25
  Q 310.94 608.86 310.48 606.77
  C 309.59 602.75 305.26 599.98 302.48 604.21
  Q 299.54 608.68 296.62 613.34
  A 1.62 1.62 0.0 0 1 294.36 613.83
  C 291.53 611.99 292.82 608.29 293.92 605.14
  Q 298.84 591.13 309.50 580.71
  L 345.96 575.75
  Z"
/>
<path fill="#26292e" d="
  M 88.50 594.29
  L 134.99 619.31
  Q 121.65 616.97 108.57 610.67
  Q 97.99 605.56 89.82 598.57
  Q 89.45 598.25 88.96 598.25
  L 88.29 598.25
  L 88.50 594.29
  Z"
/>
<path fill="#546c9c" d="
  M 185.71 596.50
  L 186.04 597.50
  L 186.96 613.00
  Q 186.17 614.14 184.71 614.25
  C 182.17 610.74 171.86 611.90 167.36 612.26
  Q 166.85 612.30 166.88 611.79
  L 167.79 597.75
  L 168.04 597.50
  C 170.60 599.96 175.48 604.32 178.94 602.20
  C 181.51 600.62 183.84 597.01 185.71 596.50
  Z"
/>
<path fill="#26292e" d="
  M 261.25 596.79
  Q 261.38 598.12 260.23 598.31
  Q 259.75 598.39 259.40 598.73
  Q 256.74 601.33 255.76 602.02
  Q 240.89 612.47 223.30 616.98
  Q 242.01 606.27 261.25 596.79
  Z"
/>
<path fill="#2b3d61" d="
  M 261.25 596.79
  L 262.25 597.04
  L 261.88 598.04
  Q 261.71 598.50 261.72 599.00
  C 263.69 656.51 257.04 714.49 230.08 766.53
  Q 229.85 766.98 230.33 767.60
  Q 201.51 777.33 184.34 803.09
  Q 183.88 803.78 183.21 803.25
  C 185.08 787.57 186.58 771.88 186.82 756.07
  Q 187.57 706.98 187.16 657.89
  Q 187.15 657.33 186.62 657.49
  Q 175.44 660.92 164.10 657.89
  Q 162.57 657.48 162.49 659.06
  Q 158.87 731.11 166.54 803.25
  L 166.45 803.90
  A 0.31 0.31 0.0 0 1 165.88 804.02
  C 154.11 785.09 139.85 776.33 120.00 767.41
  Q 111.45 750.49 105.02 732.69
  C 100.84 721.12 97.17 707.33 94.77 694.82
  Q 85.57 646.99 88.29 598.25
  L 88.96 598.25
  Q 89.45 598.25 89.82 598.57
  Q 97.99 605.56 108.57 610.67
  Q 121.65 616.97 134.99 619.31
  L 164.26 634.73
  A 0.80 0.80 0.0 0 0 165.43 634.06
  L 165.68 628.30
  Q 165.71 627.74 166.27 627.80
  Q 171.76 628.46 180.25 628.15
  C 187.36 627.88 185.94 618.73 184.71 614.25
  Q 186.17 614.14 186.96 613.00
  L 188.34 634.39
  A 0.58 0.58 0.0 0 0 189.19 634.86
  L 223.30 616.98
  Q 240.89 612.47 255.76 602.02
  Q 256.74 601.33 259.40 598.73
  Q 259.75 598.39 260.23 598.31
  Q 261.38 598.12 261.25 596.79
  Z"
/>
<rect fill="#26292e" x="167.48" y="615.01" width="14.98" height="10.22" rx="2.11"/>
<path fill="#26292e" d="
  M 120.00 767.41
  C 139.85 776.33 154.11 785.09 165.88 804.02
  A 0.31 0.31 0.0 0 0 166.45 803.90
  L 166.54 803.25
  Q 167.01 804.89 166.41 806.42
  Q 166.23 806.88 165.77 807.03
  Q 162.96 807.99 161.00 807.99
  Q 108.34 808.04 55.69 807.92
  Q 50.10 807.90 50.49 802.55
  Q 51.10 794.23 53.58 786.41
  C 59.01 769.31 78.13 762.55 94.50 762.99
  Q 102.49 763.21 120.00 767.41
  Z"
/>
<path fill="#26292e" d="
  M 183.21 803.25
  Q 183.88 803.78 184.34 803.09
  Q 201.51 777.33 230.33 767.60
  C 253.40 760.21 285.38 759.05 296.08 786.63
  C 298.65 793.25 300.29 798.95 298.92 805.62
  Q 298.81 806.12 298.40 806.43
  Q 296.30 807.97 294.19 807.98
  Q 244.97 808.04 195.75 807.93
  Q 189.58 807.92 183.46 807.29
  Q 182.92 807.24 182.82 806.70
  Q 182.46 804.79 183.21 803.25
  Z"
/>
</svg>
