<?xml version="1.0" encoding="UTF-8" standalone="no"?>
<!DOCTYPE svg PUBLIC "-//W3C//DTD SVG 1.1//EN" "http://www.w3.org/Graphics/SVG/1.1/DTD/svg11.dtd">
<svg xmlns="http://www.w3.org/2000/svg" version="1.1" viewBox="0 0 107 107">
<g stroke-width="2.00" fill="none" stroke-linecap="butt">
<path stroke="#847634" vector-effect="non-scaling-stroke" d="
  M 18.00 72.29
  C 20.27 72.55 42.58 95.99 46.11 99.39
  C 53.57 106.60 55.71 105.44 62.73 98.48
  Q 82.37 78.99 101.76 59.23
  C 105.12 55.80 105.34 52.26 101.77 48.67
  Q 82.05 28.83 62.43 8.85
  C 57.77 4.11 53.59 0.49 47.94 6.19
  Q 18.79 35.56 7.67 46.57
  C 4.24 49.98 1.61 53.66 4.80 57.94
  Q 7.08 61.01 16.39 69.68
  Q 16.67 69.94 16.39 70.19
  Q 16.15 70.41 16.00 70.29"
/>
<path stroke="#866f0c" vector-effect="non-scaling-stroke" d="
  M 98.9176 56.9613
  A 4.38 4.38 0.0 0 0 98.9176 50.7670
  L 56.8730 8.7224
  A 4.38 4.38 0.0 0 0 50.6787 8.7224
  L 8.6624 50.7387
  A 4.38 4.38 0.0 0 0 8.6624 56.9330
  L 50.7070 98.9776
  A 4.38 4.38 0.0 0 0 56.9013 98.9776
  L 98.9176 56.9613"
/>
<path stroke="#7e6c0b" vector-effect="non-scaling-stroke" d="
  M 58.99 24.32
  L 66.78 24.10
  Q 70.01 24.01 67.70 21.76
  L 54.62 9.05
  A 1.33 1.32 44.2 0 0 52.75 9.07
  L 39.12 22.93
  A 0.61 0.60 22.9 0 0 39.54 23.96
  L 47.84 24.14
  Q 48.55 24.15 48.66 24.85
  L 48.94 26.58
  Q 49.02 27.04 49.48 26.97
  Q 53.76 26.31 57.97 27.19
  Q 58.50 27.30 58.50 26.76
  L 58.50 24.82
  Q 58.50 24.33 58.99 24.32"
/>
<path stroke="#d47f0d" vector-effect="non-scaling-stroke" d="
  M 82.52 45.26
  C 78.54 40.18 73.65 36.20 69.34 31.90
  C 64.15 26.72 60.54 29.50 54.43 29.23
  C 50.95 29.07 42.66 27.66 40.04 30.05
  Q 36.15 33.62 24.87 45.08
  Q 24.50 45.45 24.50 45.97
  L 24.50 69.00
  Q 24.50 69.51 24.87 69.87
  L 40.85 85.13
  Q 41.22 85.49 41.74 85.49
  L 65.75 85.54
  Q 66.28 85.54 66.67 85.17
  L 83.17 68.83
  Q 83.35 68.65 83.23 68.43
  L 82.90 67.88
  Q 82.68 67.52 82.69 67.09
  L 82.82 46.12
  Q 82.82 45.64 82.52 45.26"
/>
<path stroke="#cf5836" vector-effect="non-scaling-stroke" d="
  M 79.46 44.96
  C 75.03 40.51 70.84 35.78 66.34 31.37
  Q 65.95 31.00 65.42 30.94
  Q 53.85 29.75 42.30 31.00
  Q 41.70 31.06 41.27 31.49
  L 27.04 45.86
  Q 26.65 46.26 26.64 46.82
  Q 26.44 56.03 26.53 65.25
  Q 26.56 68.25 28.70 70.30
  Q 34.95 76.26 41.04 82.40
  C 42.70 84.07 43.57 83.73 45.77 83.74
  Q 55.11 83.76 64.65 83.76
  Q 65.17 83.76 65.54 83.39
  L 80.08 68.94
  Q 80.47 68.56 80.51 68.02
  C 80.73 64.77 81.99 47.51 79.46 44.96"
/>
<path stroke="#f04837" vector-effect="non-scaling-stroke" d="
  M 71.02 38.14
  C 68.56 35.50 65.93 32.09 62.00 32.20
  Q 53.79 32.43 45.56 32.09
  C 42.82 31.98 41.17 33.07 39.39 34.90
  C 37.64 36.71 28.04 45.65 28.09 47.32
  C 28.19 50.67 27.56 67.32 29.08 68.93
  Q 34.26 74.42 42.55 81.90
  Q 42.87 82.20 43.31 82.20
  L 64.49 82.15
  Q 64.98 82.15 65.33 81.82
  Q 71.62 75.86 77.55 69.57
  Q 79.55 67.45 79.36 65.34
  C 78.86 59.61 79.23 53.33 79.26 47.49
  Q 79.27 46.97 78.94 46.56
  C 76.51 43.60 73.10 40.36 71.02 38.14"
/>
<path stroke="#f46c6a" vector-effect="non-scaling-stroke" d="
  M 64.07 65.86
  A 0.44 0.44 0.0 0 0 64.50 65.33
  Q 63.97 62.68 63.24 60.01
  C 62.75 58.24 64.38 56.59 64.66 55.11
  C 65.66 49.79 62.49 48.44 58.05 47.75
  Q 57.49 47.66 57.45 48.23
  C 57.34 50.14 56.71 66.09 58.33 66.00
  Q 58.83 65.97 58.89 65.48
  C 59.08 63.82 58.53 59.69 59.60 58.50
  A 0.92 0.91 -30.0 0 1 61.18 58.92
  L 62.52 65.37
  Q 62.62 65.86 63.12 65.86
  L 64.07 65.86"
/>
<path stroke="#f5605d" vector-effect="non-scaling-stroke" d="
  M 70.75 63.77
  L 70.75 58.98
  Q 70.75 58.29 71.43 58.30
  Q 72.39 58.31 72.96 57.58
  Q 73.51 56.89 72.63 56.80
  L 71.26 56.66
  Q 70.75 56.61 70.75 56.09
  L 70.75 51.39
  A 0.88 0.87 89.7 0 1 71.61 50.51
  L 73.80 50.48
  Q 74.39 50.47 74.44 49.88
  C 74.65 47.59 70.80 47.98 69.47 47.91
  A 1.17 1.16 1.2 0 0 68.25 49.07
  L 68.25 65.29
  Q 68.25 65.95 68.90 65.99
  Q 71.79 66.17 74.60 65.52
  Q 76.47 65.09 74.58 64.76
  Q 72.96 64.47 71.31 64.37
  Q 70.75 64.33 70.75 63.77"
/>
<path stroke="#f5605d" vector-effect="non-scaling-stroke" d="
  M 36.46 58.50
  C 42.59 58.94 43.25 47.31 34.56 48.09
  Q 33.50 48.19 33.50 49.25
  L 33.50 65.40
  Q 33.50 66.13 34.22 66.00
  L 35.46 65.78
  Q 36.07 65.67 36.05 65.05
  L 35.89 59.05
  Q 35.87 58.46 36.46 58.50"
/>
<path stroke="#f46c6a" vector-effect="non-scaling-stroke" d="
  M 47.78 61.04
  C 52.01 60.06 49.25 67.00 52.34 65.84
  Q 52.85 65.64 52.71 65.01
  L 49.28 48.81
  A 0.86 0.85 -44.9 0 0 47.61 48.81
  L 43.97 65.22
  A 0.88 0.87 60.9 0 0 45.65 65.70
  L 47.05 61.70
  Q 47.23 61.17 47.78 61.04"
/>
<path stroke="#d37c69" vector-effect="non-scaling-stroke" d="
  M 60.58 49.86
  Q 59.47 49.21 59.25 50.48
  Q 58.76 53.39 59.33 56.24
  Q 59.43 56.73 59.92 56.76
  C 63.95 57.01 64.11 51.95 60.58 49.86"
/>
<path stroke="#d4705c" vector-effect="non-scaling-stroke" d="
  M 37.87 50.30
  Q 35.75 48.31 35.75 51.22
  L 35.75 56.05
  Q 35.75 56.70 36.39 56.78
  C 39.79 57.21 39.89 52.20 37.87 50.30"
/>
<path stroke="#d37c69" vector-effect="non-scaling-stroke" d="
  M 47.97 54.66
  C 47.72 55.75 46.50 60.51 49.09 59.69
  Q 49.69 59.50 49.55 58.89
  L 48.63 54.67
  A 0.34 0.34 0.0 0 0 47.97 54.66"
/>
</g>
<path fill="#f8e466" d="
  M 18.00 72.29
  C 20.27 72.55 42.58 95.99 46.11 99.39
  C 53.57 106.60 55.71 105.44 62.73 98.48
  Q 82.37 78.99 101.76 59.23
  C 105.12 55.80 105.34 52.26 101.77 48.67
  Q 82.05 28.83 62.43 8.85
  C 57.77 4.11 53.59 0.49 47.94 6.19
  Q 18.79 35.56 7.67 46.57
  C 4.24 49.98 1.61 53.66 4.80 57.94
  Q 7.08 61.01 16.39 69.68
  Q 16.67 69.94 16.39 70.19
  Q 16.15 70.41 16.00 70.29
  L 13.74 69.16
  Q 13.31 68.95 13.05 68.55
  Q 9.45 63.12 7.04 61.20
  C 3.32 58.23 0.20 56.64 1.78 51.18
  Q 2.14 49.96 3.34 48.76
  Q 10.91 41.22 18.44 33.66
  C 19.48 32.63 21.97 30.83 23.36 28.94
  Q 24.45 27.47 25.30 26.71
  C 33.65 19.25 40.10 11.67 49.04 3.05
  C 54.50 -2.22 60.15 4.36 63.27 8.14
  C 65.25 10.53 67.88 12.30 69.87 14.89
  C 71.73 17.33 74.17 18.23 76.11 20.68
  Q 78.01 23.09 79.17 24.07
  Q 87.65 31.31 95.28 39.43
  C 97.81 42.13 104.41 47.16 105.35 50.55
  Q 105.76 52.01 106.19 53.50
  Q 106.33 53.97 106.20 54.45
  C 105.09 58.51 103.02 59.08 100.81 62.13
  C 95.83 68.98 90.36 72.87 85.96 77.53
  Q 85.63 77.88 85.20 78.09
  C 81.94 79.67 81.64 83.10 78.19 85.00
  Q 77.75 85.24 77.45 85.65
  Q 75.27 88.77 72.02 90.81
  Q 71.57 91.09 71.39 91.59
  C 70.19 94.92 67.11 94.84 65.52 97.51
  C 63.65 100.64 61.17 103.03 58.15 105.01
  C 53.25 108.22 47.32 104.89 44.42 100.61
  Q 42.35 97.54 40.48 96.51
  C 38.10 95.19 37.91 93.87 36.50 92.45
  Q 30.39 86.30 24.24 80.19
  C 22.43 78.39 21.33 75.57 18.58 74.03
  Q 18.15 73.79 18.03 73.31
  Q 17.91 72.81 18.00 72.29
  Z"
/>
<path fill="#0f0701" d="
  M 18.00 72.29
  Q 17.44 70.85 16.00 70.29
  Q 16.15 70.41 16.39 70.19
  Q 16.67 69.94 16.39 69.68
  Q 7.08 61.01 4.80 57.94
  C 1.61 53.66 4.24 49.98 7.67 46.57
  Q 18.79 35.56 47.94 6.19
  C 53.59 0.49 57.77 4.11 62.43 8.85
  Q 82.05 28.83 101.77 48.67
  C 105.34 52.26 105.12 55.80 101.76 59.23
  Q 82.37 78.99 62.73 98.48
  C 55.71 105.44 53.57 106.60 46.11 99.39
  C 42.58 95.99 20.27 72.55 18.00 72.29
  Z
  M 98.9176 56.9613
  A 4.38 4.38 0.0 0 0 98.9176 50.7670
  L 56.8730 8.7224
  A 4.38 4.38 0.0 0 0 50.6787 8.7224
  L 8.6624 50.7387
  A 4.38 4.38 0.0 0 0 8.6624 56.9330
  L 50.7070 98.9776
  A 4.38 4.38 0.0 0 0 56.9013 98.9776
  L 98.9176 56.9613
  Z"
/>
<path fill="#fcd716" d="
  M 56.9013 98.9776
  A 4.38 4.38 0.0 0 1 50.7070 98.9776
  L 8.6624 56.9330
  A 4.38 4.38 0.0 0 1 8.6624 50.7387
  L 50.6787 8.7224
  A 4.38 4.38 0.0 0 1 56.8730 8.7224
  L 98.9176 50.7670
  A 4.38 4.38 0.0 0 1 98.9176 56.9613
  L 56.9013 98.9776
  Z
  M 58.99 24.32
  L 66.78 24.10
  Q 70.01 24.01 67.70 21.76
  L 54.62 9.05
  A 1.33 1.32 44.2 0 0 52.75 9.07
  L 39.12 22.93
  A 0.61 0.60 22.9 0 0 39.54 23.96
  L 47.84 24.14
  Q 48.55 24.15 48.66 24.85
  L 48.94 26.58
  Q 49.02 27.04 49.48 26.97
  Q 53.76 26.31 57.97 27.19
  Q 58.50 27.30 58.50 26.76
  L 58.50 24.82
  Q 58.50 24.33 58.99 24.32
  Z
  M 82.52 45.26
  C 78.54 40.18 73.65 36.20 69.34 31.90
  C 64.15 26.72 60.54 29.50 54.43 29.23
  C 50.95 29.07 42.66 27.66 40.04 30.05
  Q 36.15 33.62 24.87 45.08
  Q 24.50 45.45 24.50 45.97
  L 24.50 69.00
  Q 24.50 69.51 24.87 69.87
  L 40.85 85.13
  Q 41.22 85.49 41.74 85.49
  L 65.75 85.54
  Q 66.28 85.54 66.67 85.17
  L 83.17 68.83
  Q 83.35 68.65 83.23 68.43
  L 82.90 67.88
  Q 82.68 67.52 82.69 67.09
  L 82.82 46.12
  Q 82.82 45.64 82.52 45.26
  Z"
/>
<path fill="#000000" d="
  M 58.50 24.82
  L 58.50 26.76
  Q 58.50 27.30 57.97 27.19
  Q 53.76 26.31 49.48 26.97
  Q 49.02 27.04 48.94 26.58
  L 48.66 24.85
  Q 48.55 24.15 47.84 24.14
  L 39.54 23.96
  A 0.61 0.60 22.9 0 1 39.12 22.93
  L 52.75 9.07
  A 1.33 1.32 44.2 0 1 54.62 9.05
  L 67.70 21.76
  Q 70.01 24.01 66.78 24.10
  L 58.99 24.32
  Q 58.50 24.33 58.50 24.82
  Z"
/>
<path fill="#ab2704" d="
  M 69.34 31.90
  C 73.65 36.20 78.54 40.18 82.52 45.26
  Q 82.82 45.64 82.82 46.12
  L 82.69 67.09
  Q 82.68 67.52 82.90 67.88
  L 83.23 68.43
  Q 83.35 68.65 83.17 68.83
  L 66.67 85.17
  Q 66.28 85.54 65.75 85.54
  L 41.74 85.49
  Q 41.22 85.49 40.85 85.13
  L 24.87 69.87
  Q 24.50 69.51 24.50 69.00
  L 24.50 45.97
  Q 24.50 45.45 24.87 45.08
  Q 36.15 33.62 40.04 30.05
  C 42.66 27.66 50.95 29.07 54.43 29.23
  C 60.54 29.50 64.15 26.72 69.34 31.90
  Z
  M 79.46 44.96
  C 75.03 40.51 70.84 35.78 66.34 31.37
  Q 65.95 31.00 65.42 30.94
  Q 53.85 29.75 42.30 31.00
  Q 41.70 31.06 41.27 31.49
  L 27.04 45.86
  Q 26.65 46.26 26.64 46.82
  Q 26.44 56.03 26.53 65.25
  Q 26.56 68.25 28.70 70.30
  Q 34.95 76.26 41.04 82.40
  C 42.70 84.07 43.57 83.73 45.77 83.74
  Q 55.11 83.76 64.65 83.76
  Q 65.17 83.76 65.54 83.39
  L 80.08 68.94
  Q 80.47 68.56 80.51 68.02
  C 80.73 64.77 81.99 47.51 79.46 44.96
  Z"
/>
<path fill="#f38868" d="
  M 66.34 31.37
  C 70.84 35.78 75.03 40.51 79.46 44.96
  C 81.99 47.51 80.73 64.77 80.51 68.02
  Q 80.47 68.56 80.08 68.94
  L 65.54 83.39
  Q 65.17 83.76 64.65 83.76
  Q 55.11 83.76 45.77 83.74
  C 43.57 83.73 42.70 84.07 41.04 82.40
  Q 34.95 76.26 28.70 70.30
  Q 26.56 68.25 26.53 65.25
  Q 26.44 56.03 26.64 46.82
  Q 26.65 46.26 27.04 45.86
  L 41.27 31.49
  Q 41.70 31.06 42.30 31.00
  Q 53.85 29.75 65.42 30.94
  Q 65.95 31.00 66.34 31.37
  Z
  M 71.02 38.14
  C 68.56 35.50 65.93 32.09 62.00 32.20
  Q 53.79 32.43 45.56 32.09
  C 42.82 31.98 41.17 33.07 39.39 34.90
  C 37.64 36.71 28.04 45.65 28.09 47.32
  C 28.19 50.67 27.56 67.32 29.08 68.93
  Q 34.26 74.42 42.55 81.90
  Q 42.87 82.20 43.31 82.20
  L 64.49 82.15
  Q 64.98 82.15 65.33 81.82
  Q 71.62 75.86 77.55 69.57
  Q 79.55 67.45 79.36 65.34
  C 78.86 59.61 79.23 53.33 79.26 47.49
  Q 79.27 46.97 78.94 46.56
  C 76.51 43.60 73.10 40.36 71.02 38.14
  Z"
/>
<path fill="#ed0806" d="
  M 71.02 38.14
  C 73.10 40.36 76.51 43.60 78.94 46.56
  Q 79.27 46.97 79.26 47.49
  C 79.23 53.33 78.86 59.61 79.36 65.34
  Q 79.55 67.45 77.55 69.57
  Q 71.62 75.86 65.33 81.82
  Q 64.98 82.15 64.49 82.15
  L 43.31 82.20
  Q 42.87 82.20 42.55 81.90
  Q 34.26 74.42 29.08 68.93
  C 27.56 67.32 28.19 50.67 28.09 47.32
  C 28.04 45.65 37.64 36.71 39.39 34.90
  C 41.17 33.07 42.82 31.98 45.56 32.09
  Q 53.79 32.43 62.00 32.20
  C 65.93 32.09 68.56 35.50 71.02 38.14
  Z
  M 64.07 65.86
  A 0.44 0.44 0.0 0 0 64.50 65.33
  Q 63.97 62.68 63.24 60.01
  C 62.75 58.24 64.38 56.59 64.66 55.11
  C 65.66 49.79 62.49 48.44 58.05 47.75
  Q 57.49 47.66 57.45 48.23
  C 57.34 50.14 56.71 66.09 58.33 66.00
  Q 58.83 65.97 58.89 65.48
  C 59.08 63.82 58.53 59.69 59.60 58.50
  A 0.92 0.91 -30.0 0 1 61.18 58.92
  L 62.52 65.37
  Q 62.62 65.86 63.12 65.86
  L 64.07 65.86
  Z
  M 70.75 63.77
  L 70.75 58.98
  Q 70.75 58.29 71.43 58.30
  Q 72.39 58.31 72.96 57.58
  Q 73.51 56.89 72.63 56.80
  L 71.26 56.66
  Q 70.75 56.61 70.75 56.09
  L 70.75 51.39
  A 0.88 0.87 89.7 0 1 71.61 50.51
  L 73.80 50.48
  Q 74.39 50.47 74.44 49.88
  C 74.65 47.59 70.80 47.98 69.47 47.91
  A 1.17 1.16 1.2 0 0 68.25 49.07
  L 68.25 65.29
  Q 68.25 65.95 68.90 65.99
  Q 71.79 66.17 74.60 65.52
  Q 76.47 65.09 74.58 64.76
  Q 72.96 64.47 71.31 64.37
  Q 70.75 64.33 70.75 63.77
  Z
  M 36.46 58.50
  C 42.59 58.94 43.25 47.31 34.56 48.09
  Q 33.50 48.19 33.50 49.25
  L 33.50 65.40
  Q 33.50 66.13 34.22 66.00
  L 35.46 65.78
  Q 36.07 65.67 36.05 65.05
  L 35.89 59.05
  Q 35.87 58.46 36.46 58.50
  Z
  M 47.78 61.04
  C 52.01 60.06 49.25 67.00 52.34 65.84
  Q 52.85 65.64 52.71 65.01
  L 49.28 48.81
  A 0.86 0.85 -44.9 0 0 47.61 48.81
  L 43.97 65.22
  A 0.88 0.87 60.9 0 0 45.65 65.70
  L 47.05 61.70
  Q 47.23 61.17 47.78 61.04
  Z"
/>
<path fill="#fbd0cd" d="
  M 64.07 65.86
  L 63.12 65.86
  Q 62.62 65.86 62.52 65.37
  L 61.18 58.92
  A 0.92 0.91 -30.0 0 0 59.60 58.50
  C 58.53 59.69 59.08 63.82 58.89 65.48
  Q 58.83 65.97 58.33 66.00
  C 56.71 66.09 57.34 50.14 57.45 48.23
  Q 57.49 47.66 58.05 47.75
  C 62.49 48.44 65.66 49.79 64.66 55.11
  C 64.38 56.59 62.75 58.24 63.24 60.01
  Q 63.97 62.68 64.50 65.33
  A 0.44 0.44 0.0 0 1 64.07 65.86
  Z
  M 60.58 49.86
  Q 59.47 49.21 59.25 50.48
  Q 58.76 53.39 59.33 56.24
  Q 59.43 56.73 59.92 56.76
  C 63.95 57.01 64.11 51.95 60.58 49.86
  Z"
/>
<path fill="#fdb8b4" d="
  M 71.31 64.37
  Q 72.96 64.47 74.58 64.76
  Q 76.47 65.09 74.60 65.52
  Q 71.79 66.17 68.90 65.99
  Q 68.25 65.95 68.25 65.29
  L 68.25 49.07
  A 1.17 1.16 1.2 0 1 69.47 47.91
  C 70.80 47.98 74.65 47.59 74.44 49.88
  Q 74.39 50.47 73.80 50.48
  L 71.61 50.51
  A 0.88 0.87 89.7 0 0 70.75 51.39
  L 70.75 56.09
  Q 70.75 56.61 71.26 56.66
  L 72.63 56.80
  Q 73.51 56.89 72.96 57.58
  Q 72.39 58.31 71.43 58.30
  Q 70.75 58.29 70.75 58.98
  L 70.75 63.77
  Q 70.75 64.33 71.31 64.37
  Z"
/>
<path fill="#fdb8b4" d="
  M 35.89 59.05
  L 36.05 65.05
  Q 36.07 65.67 35.46 65.78
  L 34.22 66.00
  Q 33.50 66.13 33.50 65.40
  L 33.50 49.25
  Q 33.50 48.19 34.56 48.09
  C 43.25 47.31 42.59 58.94 36.46 58.50
  Q 35.87 58.46 35.89 59.05
  Z
  M 37.87 50.30
  Q 35.75 48.31 35.75 51.22
  L 35.75 56.05
  Q 35.75 56.70 36.39 56.78
  C 39.79 57.21 39.89 52.20 37.87 50.30
  Z"
/>
<path fill="#fbd0cd" d="
  M 47.05 61.70
  L 45.65 65.70
  A 0.88 0.87 60.9 0 1 43.97 65.22
  L 47.61 48.81
  A 0.86 0.85 -44.9 0 1 49.28 48.81
  L 52.71 65.01
  Q 52.85 65.64 52.34 65.84
  C 49.25 67.00 52.01 60.06 47.78 61.04
  Q 47.23 61.17 47.05 61.70
  Z
  M 47.97 54.66
  C 47.72 55.75 46.50 60.51 49.09 59.69
  Q 49.69 59.50 49.55 58.89
  L 48.63 54.67
  A 0.34 0.34 0.0 0 0 47.97 54.66
  Z"
/>
<path fill="#ab2704" d="
  M 37.87 50.30
  C 39.89 52.20 39.79 57.21 36.39 56.78
  Q 35.75 56.70 35.75 56.05
  L 35.75 51.22
  Q 35.75 48.31 37.87 50.30
  Z"
/>
<path fill="#ab2704" d="
  M 60.58 49.86
  C 64.11 51.95 63.95 57.01 59.92 56.76
  Q 59.43 56.73 59.33 56.24
  Q 58.76 53.39 59.25 50.48
  Q 59.47 49.21 60.58 49.86
  Z"
/>
<path fill="#ab2704" d="
  M 47.97 54.66
  A 0.34 0.34 0.0 0 1 48.63 54.67
  L 49.55 58.89
  Q 49.69 59.50 49.09 59.69
  C 46.50 60.51 47.72 55.75 47.97 54.66
  Z"
/>
</svg>
