<?xml version="1.0" encoding="UTF-8" standalone="no"?>
<svg
   xmlns:dc="http://purl.org/dc/elements/1.1/"
   xmlns:cc="http://creativecommons.org/ns#"
   xmlns:rdf="http://www.w3.org/1999/02/22-rdf-syntax-ns#"
   xmlns:svg="http://www.w3.org/2000/svg"
   xmlns="http://www.w3.org/2000/svg"
   xmlns:sodipodi="http://sodipodi.sourceforge.net/DTD/sodipodi-0.dtd"
   xmlns:inkscape="http://www.inkscape.org/namespaces/inkscape"
   version="1.1"
   viewBox="0 0 105 104"
   id="svg5514"
   sodipodi:docname="curvapizq.svg"
   inkscape:version="0.92.2 (5c3e80d, 2017-08-06)">
  <metadata
     id="metadata5520">
    <rdf:RDF>
      <cc:Work
         rdf:about="">
        <dc:format>image/svg+xml</dc:format>
        <dc:type
           rdf:resource="http://purl.org/dc/dcmitype/StillImage" />
        <dc:title></dc:title>
      </cc:Work>
    </rdf:RDF>
  </metadata>
  <defs
     id="defs5518" />
  <sodipodi:namedview
     pagecolor="#ffffff"
     bordercolor="#666666"
     borderopacity="1"
     objecttolerance="10"
     gridtolerance="10"
     guidetolerance="10"
     inkscape:pageopacity="0"
     inkscape:pageshadow="2"
     inkscape:window-width="1600"
     inkscape:window-height="837"
     id="namedview5516"
     showgrid="false"
     inkscape:zoom="2.2692308"
     inkscape:cx="52.5"
     inkscape:cy="52"
     inkscape:window-x="-8"
     inkscape:window-y="-8"
     inkscape:window-maximized="1"
     inkscape:current-layer="svg5514" />
  <g
     id="g5496"
     transform="matrix(-1,0,0,1,105.13756,0)"
     style="fill:none;stroke-width:2;stroke-linecap:butt">
    <path
       d="M 57.7148,4.758 A 7.55,7.55 0 0 0 47.0375,4.7394 L 5.288,46.3435 A 7.55,7.55 0 0 0 5.2693,57.0208 L 46.8452,98.742 a 7.55,7.55 0 0 0 10.6773,0.0186 L 99.272,57.1565 A 7.55,7.55 0 0 0 99.2907,46.4792 L 57.7148,4.758"
       id="path5472"
       inkscape:connector-curvature="0"
       style="vector-effect:non-scaling-stroke;stroke:#817234" />
    <path
       d="m 55.5761,7.7165 a 4.49,4.49 0 0 0 -6.3498,0 L 8.2565,48.6863 a 4.49,4.49 0 0 0 0,6.3498 l 40.9274,40.9274 a 4.49,4.49 0 0 0 6.3498,0 L 96.5035,54.9937 a 4.49,4.49 0 0 0 0,-6.3498 L 55.5761,7.7165"
       id="path5474"
       inkscape:connector-curvature="0"
       style="vector-effect:non-scaling-stroke;stroke:#857221" />
    <path
       d="m 46,29.79 q 1.24,2.87 3.25,4.65 1.12,1 -0.23,1.63 -8.51,4.01 -11.77,12.47"
       id="path5476"
       inkscape:connector-curvature="0"
       style="vector-effect:non-scaling-stroke;stroke:#7a6c22" />
    <path
       d="m 37.25,48.54 c -3.32,5.23 -1.76,20.13 -1.27,29.32 q 0.03,0.56 0.59,0.56 l 3.68,0.04"
       id="path5478"
       inkscape:connector-curvature="0"
       style="vector-effect:non-scaling-stroke;stroke:#af9b2e" />
    <path
       d="m 40.25,78.46 6.88,-0.2 Q 47.66,78.25 47.62,77.72 46.74,66.45 47.3,55.1 c 0.23,-4.59 3.83,-7.55 7.67,-9.31 q 0.4,-0.18 0.59,0.21 l 2.65,5.36 a 1.17,1.17 0 0 0 2.02,0.13 l 1.52,-2.28"
       id="path5480"
       inkscape:connector-curvature="0"
       style="vector-effect:non-scaling-stroke;stroke:#7a6c22" />
    <path
       d="m 61.75,49.21 q 3.2,-4.45 4.71,-9.71"
       id="path5482"
       inkscape:connector-curvature="0"
       style="vector-effect:non-scaling-stroke;stroke:#af9b2e" />
    <path
       d="m 66.46,39.5 4.45,-8.88 a 1.04,1.04 0 0 0 -0.96,-1.5 q -6.42,0.2 -12.18,0.13 c -3,-0.03 -6.53,-1.02 -10.02,-0.84"
       id="path5484"
       inkscape:connector-curvature="0"
       style="vector-effect:non-scaling-stroke;stroke:#7a6c22" />
    <path
       d="m 47.75,28.41 q 3.84,-2.03 8.16,-1.91 c 4.69,0.12 8.52,-0.75 13.2,0.54 a 0.77,0.77 0 0 0 0.75,-1.28 L 53.51,9.28 Q 53.08,8.85 52.53,9.1 c -2.69,1.25 -4.69,3.75 -6.3,5.11 q -3.11,2.63 -6.05,5.44 -0.36,0.35 -0.46,0.83 -0.51,2.49 -2.67,3.25 -0.51,0.19 -0.88,0.58 c -3.67,3.92 -7.64,7.19 -11.33,11.34 -4.17,4.71 -9.26,8.71 -13.87,13.02 -1.48,1.4 -1.51,2.72 -1.07,4.61 q 0.11,0.51 0.49,0.86 l 19.46,18.29 q 1.07,1 1.96,-0.16 l 1.53,-2.01 q 0.29,-0.38 0.25,-0.86 c -0.28,-3.23 0.17,-24.06 2.68,-25.44 q 0.46,-0.25 0.71,-0.71 1.92,-3.56 5.06,-6.15 0.4,-0.33 0.91,-0.32 2.36,0.02 4.05,-1.65 0.36,-0.35 0.01,-0.72 L 45.4,32.76 Q 45.06,32.4 45,31.92 44.83,30.49 46,29.79"
       id="path5486"
       inkscape:connector-curvature="0"
       style="vector-effect:non-scaling-stroke;stroke:#f6d722" />
    <path
       d="M 47.75,28.41 46,29.79"
       id="path5488"
       inkscape:connector-curvature="0"
       style="vector-effect:non-scaling-stroke;stroke:#816f04" />
    <path
       d="m 66.46,39.5 q -3.03,4.54 -4.71,9.71"
       id="path5490"
       inkscape:connector-curvature="0"
       style="vector-effect:non-scaling-stroke;stroke:#393210" />
    <path
       d="m 40.25,78.46 q -1.6,-0.71 -3.18,-0.42 A 0.48,0.48 0 0 1 36.5,77.56 q 0.26,-12.25 0.03,-23.63 c -0.03,-1.81 0.73,-3.46 0.72,-5.39"
       id="path5492"
       inkscape:connector-curvature="0"
       style="vector-effect:non-scaling-stroke;stroke:#393210" />
    <path
       d="M 88.74,44.29 C 83.38,39.63 79.81,35.13 75.15,30.69 a 1.05,1.05 0 0 0 -1.77,0.84 q 0.25,3.02 -1.87,5.03 -0.39,0.37 -0.48,0.91 c -0.83,5.24 -3.96,7.6 -6.41,11.34 q -1.55,2.35 -3.36,4.56 a 2.17,2.16 40.1 0 1 -3.1,0.26 q -2.29,-1.99 -5.01,-3.05 a 1.08,1.06 -68.6 0 0 -1.39,0.62 c -1.02,2.64 -2.02,4.93 -1.99,7.84 q 0.08,6.76 0.54,13.51 c 0.19,2.78 -0.58,4.79 -1.18,7.36 a 2.09,2.09 0 0 1 -2.34,1.59 l -7.08,-1.03 q -0.89,-0.13 -0.73,0.75 c 0.71,3.75 3.15,4.69 5.93,6.9 2.39,1.9 3.77,4.92 6.5,6.93 q 0.4,0.29 0.83,0.06 5.72,-3 8.37,-8.79 0.21,-0.45 0.64,-0.69 l 4.45,-2.42 q 0.36,-0.19 0.58,-0.53 c 2.3,-3.35 5.72,-5.95 8.19,-8.71 2.55,-2.85 5.38,-4.85 7.87,-8.04 0.51,-0.65 4.66,-4.25 4.65,-4.3 q -0.01,-0.52 0.49,-0.71 1.49,-0.54 2,-2 0.16,-0.47 0.57,-0.75 3.85,-2.75 3.45,-7.65 -0.04,-0.49 -0.35,-0.89 C 91.7,47.74 90.59,45.89 88.74,44.29"
       id="path5494"
       inkscape:connector-curvature="0"
       style="vector-effect:non-scaling-stroke;stroke:#f6d722" />
  </g>
  <path
     d="m 81.957563,77.26 q 0.87,-0.24 1.5,-0.88 0.33,-0.34 0.48,-0.79 0.45,-1.34 2,-2.8 c 3.81,-3.56 8.93,-10.3 11.73,-10.83 q 0.44,-0.08 0.51,-0.53 0.21,-1.35 1.34,-2.18 0.45,-0.33 0.669997,-0.86 0.84,-2.01 2.58,-3.35 0.49,-0.38 0.6,-0.99 0.68,-4.01 -1.39,-7.53 -0.26,-0.44 -0.73,-0.63 c -1.529997,-0.64 -1.779997,-2.04 -2.679997,-2.95 q -19.73,-19.96 -39.48,-39.89 -4.07,-4.1 -9.25,-1.63 c -2.48,1.17 -4.59,3.79 -6.64,5.88 -1.6,1.64 -4.01,2.14 -5.26,4.74 -1.41,2.89 -3.51,3.05 -5.52,4.97 q -0.35,0.33 -1.74,2.65 c -1.09,1.82 -3.03,2.23 -4.32,3.53 q -2,2 -4.04,3.96 -0.32,0.31 -0.41,0.75 -0.26,1.33 -1.62,1.78 -0.52,0.17 -0.9,0.55 -6.97,6.98 -13.9899996,13.91 c -4.83000005,4.77 -5.12000005,9.42 -0.47,14.25 13.9399996,14.48 27.6099996,27.9 41.5799996,41.53 4.15,4.05 7.38,4.33 11.81,0.53 1.17,-1 2.77,-1.58 3.71,-2.72 q 3.36,-4.08 6.99,-7.95 0.33,-0.36 0.81,-0.48 c 2.03,-0.54 1.97,-3.59 5.04,-4.48 q 0.5,-0.14 0.83,-0.54 l 5.37,-6.44 q 0.35,-0.43 0.89,-0.58 z M 47.422763,4.758 a 7.55,7.55 0 0 1 10.6773,-0.0186 l 41.7495,41.6041 a 7.55,7.55 0 0 1 0.0187,10.6773 l -41.5759,41.7212 a 7.55,7.55 0 0 1 -10.6773,0.0186 L 5.8655634,57.1565 a 7.55,7.55 0 0 1 -0.0187,-10.6773 z"
     id="path5498"
     inkscape:connector-curvature="0"
     style="fill:#e7d466" />
  <path
     d="m 5.8468634,46.4792 a 7.55,7.55 0 0 0 0.0187,10.6773 L 47.615063,98.7606 a 7.55,7.55 0 0 0 10.6773,-0.0186 l 41.5759,-41.7212 a 7.55,7.55 0 0 0 -0.0187,-10.6773 L 58.100063,4.7394 A 7.55,7.55 0 0 0 47.422763,4.758 Z M 49.561463,7.7165 a 4.49,4.49 0 0 1 6.3498,0 l 40.9698,40.9698 a 4.49,4.49 0 0 1 0,6.3498 l -40.9274,40.9274 a 4.49,4.49 0 0 1 -6.3498,0 L 8.6340634,54.9937 a 4.49,4.49 0 0 1 0,-6.3498 z"
     id="path5500"
     inkscape:connector-curvature="0"
     style="fill:#1b0f02" />
  <path
     d="m 8.6340634,48.6439 a 4.49,4.49 0 0 0 0,6.3498 L 49.603863,95.9635 a 4.49,4.49 0 0 0 6.3498,0 l 40.9274,-40.9274 a 4.49,4.49 0 0 0 0,-6.3498 L 55.911263,7.7165 a 4.49,4.49 0 0 0 -6.3498,0 z M 59.137563,29.79 q -1.24,2.87 -3.25,4.65 -1.12,1 0.23,1.63 8.51,4.01 11.77,12.47 c 3.32,5.23 1.76,20.13 1.27,29.32 q -0.03,0.56 -0.59,0.56 l -3.68,0.04 -6.88,-0.2 q -0.53,-0.01 -0.49,-0.54 0.88,-11.27 0.32,-22.62 c -0.23,-4.59 -3.83,-7.55 -7.67,-9.31 q -0.4,-0.18 -0.59,0.21 l -2.65,5.36 a 1.17,1.17 0 0 1 -2.02,0.13 l -1.52,-2.28 q -3.2,-4.45 -4.71,-9.71 l -4.45,-8.88 a 1.04,1.04 0 0 1 0.96,-1.5 q 6.42,0.2 12.18,0.13 c 3,-0.03 6.53,-1.02 10.02,-0.84 q -3.84,-2.03 -8.16,-1.91 c -4.69,0.12 -8.52,-0.75 -13.2,0.54 a 0.77,0.77 0 0 1 -0.75,-1.28 l 16.35,-16.48 q 0.43,-0.43 0.98,-0.18 c 2.69,1.25 4.69,3.75 6.3,5.11 q 3.11,2.63 6.05,5.44 0.36,0.35 0.46,0.83 0.51,2.49 2.67,3.25 0.51,0.19 0.88,0.58 c 3.67,3.92 7.64,7.19 11.33,11.34 4.17,4.71 9.26,8.71 13.87,13.02 1.48,1.4 1.51,2.72 1.07,4.61 q -0.11,0.51 -0.49,0.86 l -19.46,18.29 q -1.07,1 -1.96,-0.16 l -1.53,-2.01 q -0.29,-0.38 -0.25,-0.86 c 0.28,-3.23 -0.17,-24.06 -2.68,-25.44 q -0.46,-0.25 -0.71,-0.71 -1.92,-3.56 -5.06,-6.15 -0.4,-0.33 -0.91,-0.32 -2.36,0.02 -4.05,-1.65 -0.36,-0.35 -0.01,-0.72 l 1.61,-1.65 q 0.34,-0.36 0.4,-0.84 0.17,-1.43 -1,-2.13 z m -42.74,14.5 c 5.36,-4.66 8.93,-9.16 13.59,-13.6 a 1.05,1.05 0 0 1 1.77,0.84 q -0.25,3.02 1.87,5.03 0.39,0.37 0.48,0.91 c 0.83,5.24 3.96,7.6 6.41,11.34 q 1.55,2.35 3.36,4.56 a 2.16,2.17 49.9 0 0 3.1,0.26 q 2.29,-1.99 5.01,-3.05 a 1.08,1.06 68.6 0 1 1.39,0.62 c 1.02,2.64 2.02,4.93 1.99,7.84 q -0.08,6.76 -0.54,13.51 c -0.19,2.78 0.58,4.79 1.18,7.36 a 2.09,2.09 0 0 0 2.34,1.59 l 7.08,-1.03 q 0.89,-0.13 0.73,0.75 c -0.71,3.75 -3.15,4.69 -5.93,6.9 -2.39,1.9 -3.77,4.92 -6.5,6.93 q -0.4,0.29 -0.83,0.06 -5.72,-3 -8.37,-8.79 -0.21,-0.45 -0.64,-0.69 l -4.45,-2.42 q -0.36,-0.19 -0.58,-0.53 c -2.3,-3.35 -5.72,-5.95 -8.19,-8.71 -2.55,-2.85 -5.38,-4.85 -7.87,-8.04 -0.51,-0.65 -4.66,-4.25 -4.65,-4.3 q 0.01,-0.52 -0.49,-0.71 -1.49,-0.54 -2,-2 -0.16,-0.47 -0.57,-0.75 -3.85,-2.75 -3.45,-7.65 0.04,-0.49 0.35,-0.89 c 1.45,-1.89 2.56,-3.74 4.41,-5.34 z"
     id="path5502"
     inkscape:connector-curvature="0"
     style="fill:#efd440" />
  <path
     d="m 57.387563,28.41 1.75,1.38 q 1.17,0.7 1,2.13 -0.06,0.48 -0.4,0.84 l -1.61,1.65 q -0.35,0.37 0.01,0.72 1.69,1.67 4.05,1.65 0.51,-0.01 0.91,0.32 3.14,2.59 5.06,6.15 0.25,0.46 0.71,0.71 c 2.51,1.38 2.96,22.21 2.68,25.44 q -0.04,0.48 0.25,0.86 l 1.53,2.01 q 0.89,1.16 1.96,0.16 l 19.46,-18.29 q 0.38,-0.35 0.49,-0.86 c 0.44,-1.89 0.41,-3.21 -1.07,-4.61 -4.61,-4.31 -9.7,-8.31 -13.87,-13.02 -3.69,-4.15 -7.66,-7.42 -11.33,-11.34 q -0.37,-0.39 -0.88,-0.58 -2.16,-0.76 -2.67,-3.25 -0.1,-0.48 -0.46,-0.83 -2.94,-2.81 -6.05,-5.44 c -1.61,-1.36 -3.61,-3.86 -6.3,-5.11 q -0.55,-0.25 -0.98,0.18 l -16.35,16.48 a 0.77,0.77 0 0 0 0.75,1.28 c 4.68,-1.29 8.51,-0.42 13.2,-0.54 q 4.32,-0.12 8.16,1.91 z"
     id="path5504"
     inkscape:connector-curvature="0"
     style="fill:#fdda04" />
  <path
     d="m 57.387563,28.41 c -3.49,-0.18 -7.02,0.81 -10.02,0.84 q -5.76,0.07 -12.18,-0.13 a 1.04,1.04 0 0 0 -0.96,1.5 l 4.45,8.88 q 3.03,4.54 4.71,9.71 l 1.52,2.28 a 1.17,1.17 0 0 0 2.02,-0.13 l 2.65,-5.36 q 0.19,-0.39 0.59,-0.21 c 3.84,1.76 7.44,4.72 7.67,9.31 q 0.56,11.35 -0.32,22.62 -0.04,0.53 0.49,0.54 l 6.88,0.2 q 1.6,-0.71 3.18,-0.42 a 0.48,0.48 0 0 0 0.57,-0.48 q -0.26,-12.25 -0.03,-23.63 c 0.03,-1.81 -0.73,-3.46 -0.72,-5.39 q -3.26,-8.46 -11.77,-12.47 -1.35,-0.63 -0.23,-1.63 2.01,-1.78 3.25,-4.65 z"
     id="path5506"
     inkscape:connector-curvature="0"
     style="fill:#040304" />
  <path
     d="m 29.987563,30.69 c -4.66,4.44 -8.23,8.94 -13.59,13.6 -1.85,1.6 -2.96,3.45 -4.41,5.34 q -0.31,0.4 -0.35,0.89 -0.4,4.9 3.45,7.65 0.41,0.28 0.57,0.75 0.51,1.46 2,2 0.5,0.19 0.49,0.71 c -0.01,0.05 4.14,3.65 4.65,4.3 2.49,3.19 5.32,5.19 7.87,8.04 2.47,2.76 5.89,5.36 8.19,8.71 q 0.22,0.34 0.58,0.53 l 4.45,2.42 q 0.43,0.24 0.64,0.69 2.65,5.79 8.37,8.79 0.43,0.23 0.83,-0.06 c 2.73,-2.01 4.11,-5.03 6.5,-6.93 2.78,-2.21 5.22,-3.15 5.93,-6.9 q 0.16,-0.88 -0.73,-0.75 l -7.08,1.03 a 2.09,2.09 0 0 1 -2.34,-1.59 c -0.6,-2.57 -1.37,-4.58 -1.18,-7.36 q 0.46,-6.75 0.54,-13.51 c 0.03,-2.91 -0.97,-5.2 -1.99,-7.84 a 1.08,1.06 68.6 0 0 -1.39,-0.62 q -2.72,1.06 -5.01,3.05 a 2.16,2.17 49.9 0 1 -3.1,-0.26 q -1.81,-2.21 -3.36,-4.56 c -2.45,-3.74 -5.58,-6.1 -6.41,-11.34 q -0.09,-0.54 -0.48,-0.91 -2.12,-2.01 -1.87,-5.03 a 1.05,1.05 0 0 0 -1.77,-0.84 z"
     id="path5508"
     inkscape:connector-curvature="0"
     style="fill:#fdda04" />
  <path
     d="m 38.677563,39.5 q 1.51,5.26 4.71,9.71 -1.68,-5.17 -4.71,-9.71 z"
     id="path5510"
     inkscape:connector-curvature="0"
     style="fill:#6e611c" />
  <path
     d="m 67.887563,48.54 c -0.01,1.93 0.75,3.58 0.72,5.39 q -0.23,11.38 0.03,23.63 a 0.48,0.48 0 0 1 -0.57,0.48 q -1.58,-0.29 -3.18,0.42 l 3.68,-0.04 q 0.56,0 0.59,-0.56 c 0.49,-9.19 2.05,-24.09 -1.27,-29.32 z"
     id="path5512"
     inkscape:connector-curvature="0"
     style="fill:#6e611c" />
</svg>
