<?xml version="1.0" encoding="UTF-8" standalone="no"?>
<svg
   version="1.1"
   viewBox="0.00 0.00 120.00 112.00"
   id="svg652"
   sodipodi:docname="doscontrauno.svg"
   inkscape:version="1.2.1 (9c6d41e410, 2022-07-14)"
   xmlns:inkscape="http://www.inkscape.org/namespaces/inkscape"
   xmlns:sodipodi="http://sodipodi.sourceforge.net/DTD/sodipodi-0.dtd"
   xmlns="http://www.w3.org/2000/svg"
   xmlns:svg="http://www.w3.org/2000/svg">
  <defs
     id="defs656" />
  <sodipodi:namedview
     id="namedview654"
     pagecolor="#ffffff"
     bordercolor="#666666"
     borderopacity="1.0"
     inkscape:showpageshadow="2"
     inkscape:pageopacity="0.0"
     inkscape:pagecheckerboard="0"
     inkscape:deskcolor="#d1d1d1"
     showgrid="false"
     inkscape:zoom="4.9196429"
     inkscape:cx="93.502722"
     inkscape:cy="39.84029"
     inkscape:window-width="1366"
     inkscape:window-height="705"
     inkscape:window-x="-8"
     inkscape:window-y="-8"
     inkscape:window-maximized="1"
     inkscape:current-layer="svg652" />
  <path
     fill="#ebd869"
     d="   M 31.64 84.77   C 25.84 78.92 20.03 74.02 14.16 67.14   C 8.78 60.84 5.52 57.12 12.21 50.45   C 22.07 40.63 31.53 30.66 41.78 20.96   Q 47.61 15.45 53.29 9.80   C 57.72 5.40 62.50 3.26 67.39 8.19   Q 79.54 20.45 91.75 32.64   C 93.42 34.31 96.39 36.47 98.30 38.89   Q 98.58 39.25 99.01 39.44   Q 100.82 40.23 101.32 42.23   Q 101.43 42.69 101.77 43.02   Q 106.35 47.57 110.93 52.15   Q 117.24 58.45 110.86 65.10   Q 95.83 80.75 80.11 95.71   C 78.78 96.97 75.73 99.07 74.01 101.35   C 67.86 109.52 61.68 114.95 52.50 105.75   Q 42.05 95.29 31.64 84.77   Z   M 66.1100 10.8379   A 7.22 7.22 0.0 0 0 55.8993 10.8379   L 13.9679 52.7693   A 7.22 7.22 0.0 0 0 13.9679 62.9800   L 55.9700 104.9821   A 7.22 7.22 0.0 0 0 66.1807 104.9821   L 108.1121 63.0507   A 7.22 7.22 0.0 0 0 108.1121 52.8400   L 66.1100 10.8379   Z"
     id="path620" />
  <path
     fill="#140801"
     d="   M 108.1121 52.8400   A 7.22 7.22 0.0 0 1 108.1121 63.0507   L 66.1807 104.9821   A 7.22 7.22 0.0 0 1 55.9700 104.9821   L 13.9679 62.9800   A 7.22 7.22 0.0 0 1 13.9679 52.7693   L 55.8993 10.8379   A 7.22 7.22 0.0 0 1 66.1100 10.8379   L 108.1121 52.8400   Z   M 64.0098 13.6668   A 4.22 4.22 0.0 0 0 58.0419 13.6668   L 16.7468 54.9619   A 4.22 4.22 0.0 0 0 16.7468 60.9298   L 58.0702 102.2532   A 4.22 4.22 0.0 0 0 64.0381 102.2532   L 105.3332 60.9581   A 4.22 4.22 0.0 0 0 105.3332 54.9902   L 64.0098 13.6668   Z"
     id="path634" />
  <path
     fill="#f2d73d"
     d="   M 105.3332 54.9902   A 4.22 4.22 0.0 0 1 105.3332 60.9581   L 64.0381 102.2532   A 4.22 4.22 0.0 0 1 58.0702 102.2532   L 16.7468 60.9298   A 4.22 4.22 0.0 0 1 16.7468 54.9619   L 58.0419 13.6668   A 4.22 4.22 0.0 0 1 64.0098 13.6668   L 105.3332 54.9902   Z   M 52.38 45.32   C 55.14 38.88 58.99 30.01 65.50 40.98   Q 65.75 41.39 65.73 41.88   C 65.62 45.26 68.97 47.54 71.24 44.01   Q 73.68 40.24 74.62 37.35   Q 74.77 36.86 75.21 36.60   L 77.79 35.06   Q 78.20 34.82 78.58 35.10   Q 80.25 36.35 80.70 37.24   C 82.06 39.95 83.48 42.44 85.62 44.84   C 88.08 47.61 90.13 51.72 86.36 54.08   A 1.48 1.48 0.0 0 0 85.76 54.80   C 85.02 56.75 84.25 58.15 84.29 60.32   Q 84.41 68.12 83.91 77.16   A 1.00 1.00 0.0 0 0 84.59 78.16   Q 85.86 78.57 86.35 77.02   C 86.94 75.12 88.49 74.73 89.48 73.59   Q 96.49 65.55 104.38 58.58   A 0.48 0.48 0.0 0 0 104.40 57.88   Q 99.75 53.31 95.50 48.29   C 91.13 43.12 86.64 39.05 82.01 34.50   C 80.56 33.08 78.28 31.71 76.77 29.68   Q 75.25 27.64 73.91 26.61   C 69.89 23.55 66.96 19.50 63.46 16.03   C 60.37 12.96 57.88 16.83 55.84 18.84   Q 48.98 25.59 43.02 32.28   A 1.52 1.52 0.0 0 0 44.03 34.81   Q 46.62 35.02 48.69 36.93   A 1.98 1.97 31.2 0 1 49.22 39.05   Q 47.83 42.90 48.43 46.94   Q 48.50 47.41 48.97 47.37   Q 51.60 47.15 52.38 45.32   Z   M 35.60 66.44   L 36.41 43.15   A 2.54 2.48 58.4 0 1 36.61 42.27   Q 37.30 40.63 35.57 39.50   A 1.42 1.41 20.7 0 0 33.40 40.48   Q 33.08 42.65 30.87 44.64   Q 23.87 50.94 18.44 58.67   Q 18.15 59.09 18.57 59.38   L 20.50 60.71   Q 20.92 61.00 21.19 61.42   Q 24.65 67.00 30.55 69.74   Q 31.02 69.96 31.48 69.73   L 34.91 68.05   L 42.89 80.78   Q 43.20 81.27 43.50 80.77   L 51.12 68.28   Q 52.44 66.13 49.94 66.51   Q 48.50 66.73 47.20 67.21   Q 46.50 67.47 46.50 66.73   L 46.50 37.78   Q 46.50 37.06 45.78 37.06   L 39.42 37.02   Q 38.75 37.02 38.75 37.69   Q 38.75 51.98 38.75 66.27   Q 38.75 66.77 38.28 66.93   Q 37.35 67.25 35.60 66.44   Z   M 66.02 51.79   Q 65.46 64.04 66.05 76.44   Q 66.15 78.47 65.50 81.06   Q 65.39 81.50 65.04 81.78   Q 60.53 85.53 56.07 83.67   C 51.68 81.83 53.83 77.39 53.30 73.86   A 1.49 1.49 0.0 0 0 50.45 73.52   Q 49.52 75.81 47.65 77.58   Q 47.28 77.93 47.20 78.42   Q 46.71 81.26 44.18 82.42   A 1.43 1.43 0.0 0 0 43.65 84.61   C 46.59 88.36 50.31 91.05 53.59 94.86   C 55.66 97.26 60.32 102.15 63.76 99.01   C 68.44 94.74 72.45 89.91 77.53 86.12   A 1.35 1.35 0.0 0 0 76.59 83.70   L 74.07 83.94   A 1.56 1.56 0.0 0 1 72.36 82.38   C 72.39 75.75 72.23 68.96 72.44 62.24   C 72.56 58.44 71.01 56.15 71.27 52.99   Q 71.31 52.49 70.85 52.28   Q 69.11 51.48 67.99 51.59   Q 64.66 44.19 60.20 37.38   A 0.18 0.18 0.0 0 0 59.90 37.38   L 51.33 50.31   A 0.96 0.96 0.0 0 0 52.24 51.80   L 55.07 51.47   Q 55.74 51.39 55.74 52.07   L 55.83 81.18   Q 55.83 81.78 56.43 81.77   L 62.91 81.69   Q 63.50 81.68 63.50 81.10   L 63.50 52.03   Q 63.50 51.60 63.92 51.53   Q 65.16 51.33 66.02 51.79   Z   M 73.38 51.50   A 0.61 0.61 0.0 0 1 73.99 52.11   L 74.00 81.22   A 0.61 0.61 0.0 0 0 74.64 81.82   L 81.17 81.46   A 0.61 0.61 0.0 0 0 81.75 80.85   L 81.75 52.09   A 0.61 0.61 0.0 0 1 82.42 51.48   L 86.13 51.86   A 0.61 0.61 0.0 0 0 86.71 50.93   L 78.82 37.84   A 0.61 0.61 0.0 0 0 77.78 37.83   L 69.67 50.56   A 0.61 0.61 0.0 0 0 70.18 51.50   L 73.38 51.50   Z"
     id="path638" />
  <path
     fill="#fcdb07"
     d="   M 65.50 40.98   C 58.99 30.01 55.14 38.88 52.38 45.32   Q 51.60 47.15 48.97 47.37   Q 48.50 47.41 48.43 46.94   Q 47.83 42.90 49.22 39.05   A 1.98 1.97 31.2 0 0 48.69 36.93   Q 46.62 35.02 44.03 34.81   A 1.52 1.52 0.0 0 1 43.02 32.28   Q 48.98 25.59 55.84 18.84   C 57.88 16.83 60.37 12.96 63.46 16.03   C 66.96 19.50 69.89 23.55 73.91 26.61   Q 75.25 27.64 76.77 29.68   C 78.28 31.71 80.56 33.08 82.01 34.50   C 86.64 39.05 91.13 43.12 95.50 48.29   Q 99.75 53.31 104.40 57.88   A 0.48 0.48 0.0 0 1 104.38 58.58   Q 96.49 65.55 89.48 73.59   C 88.49 74.73 86.94 75.12 86.35 77.02   Q 85.86 78.57 84.59 78.16   A 1.00 1.00 0.0 0 1 83.91 77.16   Q 84.41 68.12 84.29 60.32   C 84.25 58.15 85.02 56.75 85.76 54.80   A 1.48 1.48 0.0 0 1 86.36 54.08   C 90.13 51.72 88.08 47.61 85.62 44.84   C 83.48 42.44 82.06 39.95 80.70 37.24   Q 80.25 36.35 78.58 35.10   Q 78.20 34.82 77.79 35.06   L 75.21 36.60   Q 74.77 36.86 74.62 37.35   Q 73.68 40.24 71.24 44.01   C 68.97 47.54 65.62 45.26 65.73 41.88   Q 65.75 41.39 65.50 40.98   Z"
     id="path640" />
  <path
     fill="#050201"
     d="   M 34.91 68.05   Q 34.25 66.31 35.60 66.44   Q 37.35 67.25 38.28 66.93   Q 38.75 66.77 38.75 66.27   Q 38.75 51.98 38.75 37.69   Q 38.75 37.02 39.42 37.02   L 45.78 37.06   Q 46.50 37.06 46.50 37.78   L 46.50 66.73   Q 46.50 67.47 47.20 67.21   Q 48.50 66.73 49.94 66.51   Q 52.44 66.13 51.12 68.28   L 43.50 80.77   Q 43.20 81.27 42.89 80.78   L 34.91 68.05   Z"
     id="path642" />
  <path
     fill="#050201"
     d="   M 67.99 51.59   L 66.02 51.79   Q 65.16 51.33 63.92 51.53   Q 63.50 51.60 63.50 52.03   L 63.50 81.10   Q 63.50 81.68 62.91 81.69   L 56.43 81.77   Q 55.83 81.78 55.83 81.18   L 55.74 52.07   Q 55.74 51.39 55.07 51.47   L 52.24 51.80   A 0.96 0.96 0.0 0 1 51.33 50.31   L 59.90 37.38   A 0.18 0.18 0.0 0 1 60.20 37.38   Q 64.66 44.19 67.99 51.59   Z"
     id="path644" />
  <path
     fill="#050201"
     d="   M 73.38 51.50   L 70.18 51.50   A 0.61 0.61 0.0 0 1 69.67 50.56   L 77.78 37.83   A 0.61 0.61 0.0 0 1 78.82 37.84   L 86.71 50.93   A 0.61 0.61 0.0 0 1 86.13 51.86   L 82.42 51.48   A 0.61 0.61 0.0 0 0 81.75 52.09   L 81.75 80.85   A 0.61 0.61 0.0 0 1 81.17 81.46   L 74.64 81.82   A 0.61 0.61 0.0 0 1 74.00 81.22   L 73.99 52.11   A 0.61 0.61 0.0 0 0 73.38 51.50   Z"
     id="path646" />
  <path
     fill="#fcdb07"
     d="   M 35.60 66.44   Q 34.25 66.31 34.91 68.05   L 31.48 69.73   Q 31.02 69.96 30.55 69.74   Q 24.65 67.00 21.19 61.42   Q 20.92 61.00 20.50 60.71   L 18.57 59.38   Q 18.15 59.09 18.44 58.67   Q 23.87 50.94 30.87 44.64   Q 33.08 42.65 33.40 40.48   A 1.42 1.41 20.7 0 1 35.57 39.50   Q 37.30 40.63 36.61 42.27   A 2.54 2.48 58.4 0 0 36.41 43.15   L 35.60 66.44   Z"
     id="path648" />
  <path
     fill="#fcdb07"
     d="   M 66.02 51.79   L 67.99 51.59   Q 69.11 51.48 70.85 52.28   Q 71.31 52.49 71.27 52.99   C 71.01 56.15 72.56 58.44 72.44 62.24   C 72.23 68.96 72.39 75.75 72.36 82.38   A 1.56 1.56 0.0 0 0 74.07 83.94   L 76.59 83.70   A 1.35 1.35 0.0 0 1 77.53 86.12   C 72.45 89.91 68.44 94.74 63.76 99.01   C 60.32 102.15 55.66 97.26 53.59 94.86   C 50.31 91.05 46.59 88.36 43.65 84.61   A 1.43 1.43 0.0 0 1 44.18 82.42   Q 46.71 81.26 47.20 78.42   Q 47.28 77.93 47.65 77.58   Q 49.52 75.81 50.45 73.52   A 1.49 1.49 0.0 0 1 53.30 73.86   C 53.83 77.39 51.68 81.83 56.07 83.67   Q 60.53 85.53 65.04 81.78   Q 65.39 81.50 65.50 81.06   Q 66.15 78.47 66.05 76.44   Q 65.46 64.04 66.02 51.79   Z"
     id="path650" />
</svg>
