<?xml version="1.0" encoding="UTF-8" standalone="no"?>
<svg
   xmlns:dc="http://purl.org/dc/elements/1.1/"
   xmlns:cc="http://creativecommons.org/ns#"
   xmlns:rdf="http://www.w3.org/1999/02/22-rdf-syntax-ns#"
   xmlns:svg="http://www.w3.org/2000/svg"
   xmlns="http://www.w3.org/2000/svg"
   xmlns:sodipodi="http://sodipodi.sourceforge.net/DTD/sodipodi-0.dtd"
   xmlns:inkscape="http://www.inkscape.org/namespaces/inkscape"
   version="1.1"
   viewBox="0.00 0.00 88.00 80.00"
   id="svg6193"
   sodipodi:docname="ensader.svg"
   inkscape:version="0.92.2 (5c3e80d, 2017-08-06)">
  <metadata
     id="metadata6199">
    <rdf:RDF>
      <cc:Work
         rdf:about="">
        <dc:format>image/svg+xml</dc:format>
        <dc:type
           rdf:resource="http://purl.org/dc/dcmitype/StillImage" />
        <dc:title></dc:title>
      </cc:Work>
    </rdf:RDF>
  </metadata>
  <defs
     id="defs6197" />
  <sodipodi:namedview
     pagecolor="#ffffff"
     bordercolor="#666666"
     borderopacity="1"
     objecttolerance="10"
     gridtolerance="10"
     guidetolerance="10"
     inkscape:pageopacity="0"
     inkscape:pageshadow="2"
     inkscape:window-width="1600"
     inkscape:window-height="837"
     id="namedview6195"
     showgrid="false"
     inkscape:zoom="2.95"
     inkscape:cx="-18.542373"
     inkscape:cy="40"
     inkscape:window-x="-8"
     inkscape:window-y="-8"
     inkscape:window-maximized="1"
     inkscape:current-layer="svg6193" />
  <path
     d="m 72.256149,52.15 q 3.21,-3 6.11,-6.32 c 2.97,-3.41 3.98,-7.48 1.01,-11.03 q -3.77,-4.48 -18.67,-18.36 c -2.86,-2.67 -5.17,-6.48 -8.19,-9.15 q -2.43,-2.14 -4.93,-4.21 c -2.9,-2.4 -6.96,-2.8 -9.5,-0.13 q -5.15,5.42 -10.33,10.84 c -0.92,0.96 -1.48,2.87 -3.38,3.47 q -0.47,0.15 -0.79,0.54 -3.38,4.04 -7.42,7.36 c -3.73,3.08 -6.3600005,6.49 -9.7500005,9.74 -2.7,2.58 -3.41,6.44 -0.75,9.2 Q 17.676149,56.51 36.406149,74.75 c 4.13,4.02 7.5,5.19 11.97,0.8 7.95,-7.82 15.72,-15.79 23.88,-23.4 z M 38.813749,5.5583 a 5.53,5.53 0 0 1 7.8206,-0.0136 l 30.3736,30.2678 a 5.53,5.53 0 0 1 0.0137,7.8206 l -30.1831,30.2886 a 5.53,5.53 0 0 1 -7.8206,0.0136 L 8.6443485,43.6675 a 5.53,5.53 0 0 1 -0.0137,-7.8206 z"
     id="path6169"
     inkscape:connector-curvature="0"
     style="fill:#e9da72" />
  <path
     d="m 8.6306485,35.8469 a 5.53,5.53 0 0 0 0.0137,7.8206 L 39.017949,73.9353 a 5.53,5.53 0 0 0 7.8206,-0.0136 l 30.1831,-30.2886 a 5.53,5.53 0 0 0 -0.0137,-7.8206 L 46.634349,5.5447 a 5.53,5.53 0 0 0 -7.8206,0.0136 z M 40.734949,7.4064 a 2.93,2.93 0 0 1 4.1436,-0.0072 l 30.3311,30.2254 a 2.93,2.93 0 0 1 0.0073,4.1437 l -30.2396,30.3453 a 2.93,2.93 0 0 1 -4.1436,0.0072 l -30.3311,-30.2254 a 2.93,2.93 0 0 1 -0.0073,-4.1437 z"
     id="path6179"
     inkscape:connector-curvature="0"
     style="fill:#070201" />
  <path
     d="m 10.495349,37.7517 a 2.93,2.93 0 0 0 0.0073,4.1437 l 30.3311,30.2254 a 2.93,2.93 0 0 0 4.1436,-0.0072 l 30.2396,-30.3453 a 2.93,2.93 0 0 0 -0.0073,-4.1437 L 44.878549,7.3992 a 2.93,2.93 0 0 0 -4.1436,0.0072 z M 57.506149,21.69 q 0.41,6.51 -0.25,13.05 c 1.25,5.02 -5.06,8.56 -9.95,12.46 a 1.08,1.06 71 0 0 -0.4,0.84 v 10.54 q 0,0.57 -0.57,0.55 l -3.97,-0.19 q -0.46,-0.02 -0.46,-0.48 v -13.5 q 0,-0.55 0.4,-0.92 c 2.07,-1.94 10.04,-7.43 10.16,-9.88 q 0.32,-6.16 0.16,-12.42 -0.01,-0.55 0.52,-0.65 2.26,-0.44 4.36,0.6 z m -23.08,0.56 -0.23,3.78 0.09,23.41 q 0.47,3.65 -0.23,6.95 l 0.07,1.86 q 0.03,0.78 -0.75,0.78 l -4.07,0.01 q -0.65,0 -0.65,-0.64 V 21.59 q 0,-0.6 0.6,-0.59 l 4.55,0.09 q 0.53,0.01 0.57,0.54 z"
     id="path6181"
     inkscape:connector-curvature="0"
     style="fill:#fcd908" />
  <path
     d="m 57.256149,34.74 q -0.42,-6.51 0.25,-13.05 -2.1,-1.04 -4.36,-0.6 -0.53,0.1 -0.52,0.65 0.16,6.26 -0.16,12.42 c -0.12,2.45 -8.09,7.94 -10.16,9.88 q -0.4,0.37 -0.4,0.92 v 13.5 q 0,0.46 0.46,0.48 l 3.97,0.19 q 0.57,0.02 0.57,-0.55 V 48.04 a 1.08,1.06 71 0 1 0.4,-0.84 c 4.89,-3.9 11.2,-7.44 9.95,-12.46 z"
     id="path6183"
     inkscape:connector-curvature="0"
     style="fill:#070201" />
  <path
     d="m 34.056149,56.39 q -0.64,-3.76 0.23,-6.95 l -0.09,-23.41 -0.47,-3.27 q -0.07,-0.48 0.41,-0.5 l 0.29,-0.01 -0.05,-0.62 q -0.04,-0.53 -0.57,-0.54 l -4.55,-0.09 q -0.6,-0.01 -0.6,0.59 V 58.4 q 0,0.64 0.65,0.64 l 4.07,-0.01 q 0.78,0 0.75,-0.78 z"
     id="path6185"
     inkscape:connector-curvature="0"
     style="fill:#070201" />
  <path
     d="m 57.506149,21.69 q -0.67,6.54 -0.25,13.05 0.66,-6.54 0.25,-13.05 z"
     id="path6187"
     inkscape:connector-curvature="0"
     style="fill:#76733b" />
  <path
     d="m 34.426149,22.25 -0.29,0.01 q -0.48,0.02 -0.41,0.5 l 0.47,3.27 z"
     id="path6189"
     inkscape:connector-curvature="0"
     style="fill:#76733b" />
  <path
     d="m 34.286149,49.44 q -0.87,3.19 -0.23,6.95 0.7,-3.3 0.23,-6.95 z"
     id="path6191"
     inkscape:connector-curvature="0"
     style="fill:#76733b" />
</svg>
