<?xml version="1.0" encoding="UTF-8" standalone="no"?>
<svg
   xmlns:dc="http://purl.org/dc/elements/1.1/"
   xmlns:cc="http://creativecommons.org/ns#"
   xmlns:rdf="http://www.w3.org/1999/02/22-rdf-syntax-ns#"
   xmlns:svg="http://www.w3.org/2000/svg"
   xmlns="http://www.w3.org/2000/svg"
   xmlns:sodipodi="http://sodipodi.sourceforge.net/DTD/sodipodi-0.dtd"
   xmlns:inkscape="http://www.inkscape.org/namespaces/inkscape"
   version="1.1"
   viewBox="0.00 0.00 88.00 80.00"
   id="svg6193"
   sodipodi:docname="ensaizq.svg"
   inkscape:version="0.92.2 (5c3e80d, 2017-08-06)">
  <metadata
     id="metadata6199">
    <rdf:RDF>
      <cc:Work
         rdf:about="">
        <dc:format>image/svg+xml</dc:format>
        <dc:type
           rdf:resource="http://purl.org/dc/dcmitype/StillImage" />
        <dc:title></dc:title>
      </cc:Work>
    </rdf:RDF>
  </metadata>
  <defs
     id="defs6197" />
  <sodipodi:namedview
     pagecolor="#ffffff"
     bordercolor="#666666"
     borderopacity="1"
     objecttolerance="10"
     gridtolerance="10"
     guidetolerance="10"
     inkscape:pageopacity="0"
     inkscape:pageshadow="2"
     inkscape:window-width="1600"
     inkscape:window-height="837"
     id="namedview6195"
     showgrid="false"
     inkscape:zoom="2.95"
     inkscape:cx="44"
     inkscape:cy="40"
     inkscape:window-x="-8"
     inkscape:window-y="-8"
     inkscape:window-maximized="1"
     inkscape:current-layer="svg6193" />
  <path
     fill="#e9da72"
     d="   M 12.90 52.15   Q 9.69 49.15 6.79 45.83   C 3.82 42.42 2.81 38.35 5.78 34.80   Q 9.55 30.32 24.45 16.44   C 27.31 13.77 29.62 9.96 32.64 7.29   Q 35.07 5.15 37.57 3.08   C 40.47 0.68 44.53 0.28 47.07 2.95   Q 52.22 8.37 57.40 13.79   C 58.32 14.75 58.88 16.66 60.78 17.26   Q 61.25 17.41 61.57 17.80   Q 64.95 21.84 68.99 25.16   C 72.72 28.24 75.35 31.65 78.74 34.90   C 81.44 37.48 82.15 41.34 79.49 44.10   Q 67.48 56.51 48.75 74.75   C 44.62 78.77 41.25 79.94 36.78 75.55   C 28.83 67.73 21.06 59.76 12.90 52.15   Z   M 46.3424 5.5583   A 5.53 5.53 0.0 0 0 38.5218 5.5447   L 8.1482 35.8125   A 5.53 5.53 0.0 0 0 8.1345 43.6331   L 38.3176 73.9217   A 5.53 5.53 0.0 0 0 46.1382 73.9353   L 76.5118 43.6675   A 5.53 5.53 0.0 0 0 76.5255 35.8469   L 46.3424 5.5583   Z"
     id="path6169" />
  <path
     fill="#070201"
     d="   M 76.5255 35.8469   A 5.53 5.53 0.0 0 1 76.5118 43.6675   L 46.1382 73.9353   A 5.53 5.53 0.0 0 1 38.3176 73.9217   L 8.1345 43.6331   A 5.53 5.53 0.0 0 1 8.1482 35.8125   L 38.5218 5.5447   A 5.53 5.53 0.0 0 1 46.3424 5.5583   L 76.5255 35.8469   Z   M 44.4212 7.4064   A 2.93 2.93 0.0 0 0 40.2776 7.3992   L 9.9465 37.6246   A 2.93 2.93 0.0 0 0 9.9392 41.7683   L 40.1788 72.1136   A 2.93 2.93 0.0 0 0 44.3224 72.1208   L 74.6535 41.8954   A 2.93 2.93 0.0 0 0 74.6608 37.7517   L 44.4212 7.4064   Z"
     id="path6179" />
  <path
     fill="#fcd908"
     d="   M 74.6608 37.7517   A 2.93 2.93 0.0 0 1 74.6535 41.8954   L 44.3224 72.1208   A 2.93 2.93 0.0 0 1 40.1788 72.1136   L 9.9392 41.7683   A 2.93 2.93 0.0 0 1 9.9465 37.6246   L 40.2776 7.3992   A 2.93 2.93 0.0 0 1 44.4212 7.4064   L 74.6608 37.7517   Z   M 27.65 21.69   Q 27.24 28.20 27.90 34.74   C 26.65 39.76 32.96 43.30 37.85 47.20   A 1.08 1.06 -71.0 0 1 38.25 48.04   L 38.25 58.58   Q 38.25 59.15 38.82 59.13   L 42.79 58.94   Q 43.25 58.92 43.25 58.46   L 43.25 44.96   Q 43.25 44.41 42.85 44.04   C 40.78 42.10 32.81 36.61 32.69 34.16   Q 32.37 28.00 32.53 21.74   Q 32.54 21.19 32.01 21.09   Q 29.75 20.65 27.65 21.69   Z   M 50.73 22.25   L 50.96 26.03   L 50.87 49.44   Q 50.40 53.09 51.10 56.39   L 51.03 58.25   Q 51.00 59.03 51.78 59.03   L 55.85 59.04   Q 56.50 59.04 56.50 58.40   L 56.50 21.59   Q 56.50 20.99 55.90 21.00   L 51.35 21.09   Q 50.82 21.10 50.78 21.63   L 50.73 22.25   Z"
     id="path6181" />
  <path
     fill="#070201"
     d="   M 27.90 34.74   Q 28.32 28.23 27.65 21.69   Q 29.75 20.65 32.01 21.09   Q 32.54 21.19 32.53 21.74   Q 32.37 28.00 32.69 34.16   C 32.81 36.61 40.78 42.10 42.85 44.04   Q 43.25 44.41 43.25 44.96   L 43.25 58.46   Q 43.25 58.92 42.79 58.94   L 38.82 59.13   Q 38.25 59.15 38.25 58.58   L 38.25 48.04   A 1.08 1.06 -71.0 0 0 37.85 47.20   C 32.96 43.30 26.65 39.76 27.90 34.74   Z"
     id="path6183" />
  <path
     fill="#070201"
     d="   M 51.10 56.39   Q 51.74 52.63 50.87 49.44   L 50.96 26.03   L 51.43 22.76   Q 51.50 22.28 51.02 22.26   L 50.73 22.25   L 50.78 21.63   Q 50.82 21.10 51.35 21.09   L 55.90 21.00   Q 56.50 20.99 56.50 21.59   L 56.50 58.40   Q 56.50 59.04 55.85 59.04   L 51.78 59.03   Q 51.00 59.03 51.03 58.25   L 51.10 56.39   Z"
     id="path6185" />
  <path
     fill="#76733b"
     d="   M 27.65 21.69   Q 28.32 28.23 27.90 34.74   Q 27.24 28.20 27.65 21.69   Z"
     id="path6187" />
  <path
     fill="#76733b"
     d="   M 50.73 22.25   L 51.02 22.26   Q 51.50 22.28 51.43 22.76   L 50.96 26.03   L 50.73 22.25   Z"
     id="path6189" />
  <path
     fill="#76733b"
     d="   M 50.87 49.44   Q 51.74 52.63 51.10 56.39   Q 50.40 53.09 50.87 49.44   Z"
     id="path6191" />
</svg>
