<?xml version="1.0" encoding="UTF-8" standalone="no"?>
<!-- Created with Inkscape (http://www.inkscape.org/) -->

<svg
   xmlns:dc="http://purl.org/dc/elements/1.1/"
   xmlns:cc="http://creativecommons.org/ns#"
   xmlns:rdf="http://www.w3.org/1999/02/22-rdf-syntax-ns#"
   xmlns:svg="http://www.w3.org/2000/svg"
   xmlns="http://www.w3.org/2000/svg"
   xmlns:sodipodi="http://sodipodi.sourceforge.net/DTD/sodipodi-0.dtd"
   xmlns:inkscape="http://www.inkscape.org/namespaces/inkscape"
   width="69.510086"
   height="46.241451"
   viewBox="0 0 69.510086 46.241453"
   version="1.1"
   id="svg5425"
   inkscape:version="0.92.2 (5c3e80d, 2017-08-06)"
   sodipodi:docname="flechas.svg">
  <defs
     id="defs5419" />
  <sodipodi:namedview
     id="base"
     pagecolor="#ffffff"
     bordercolor="#666666"
     borderopacity="1.0"
     inkscape:pageopacity="0.0"
     inkscape:pageshadow="2"
     inkscape:zoom="1.4"
     inkscape:cx="40.119076"
     inkscape:cy="-83.181564"
     inkscape:document-units="px"
     inkscape:current-layer="layer1"
     showgrid="false"
     units="px"
     fit-margin-top="0"
     fit-margin-left="0"
     fit-margin-right="0"
     fit-margin-bottom="0"
     inkscape:window-width="1600"
     inkscape:window-height="837"
     inkscape:window-x="-8"
     inkscape:window-y="-8"
     inkscape:window-maximized="1" />
  <metadata
     id="metadata5422">
    <rdf:RDF>
      <cc:Work
         rdf:about="">
        <dc:format>image/svg+xml</dc:format>
        <dc:type
           rdf:resource="http://purl.org/dc/dcmitype/StillImage" />
        <dc:title></dc:title>
      </cc:Work>
    </rdf:RDF>
  </metadata>
  <g
     inkscape:label="Capa 1"
     inkscape:groupmode="layer"
     id="layer1"
     transform="translate(215.42766,-56.920943)">
    <rect
       style="opacity:1;fill:#cfcfd1;fill-opacity:0.41568627;stroke:#000000;stroke-width:1.074;stroke-linecap:butt;stroke-linejoin:round;stroke-miterlimit:4;stroke-dasharray:none;stroke-dashoffset:0;stroke-opacity:1"
       id="rect5214"
       width="22.115286"
       height="22.115286"
       x="-191.74348"
       y="57.457943"
       rx="2.6458333"
       ry="2.6458333" />
    <rect
       style="opacity:1;fill:#cfcfd1;fill-opacity:0.41568627;stroke:#000000;stroke-width:1.074;stroke-linecap:butt;stroke-linejoin:round;stroke-miterlimit:4;stroke-dasharray:none;stroke-dashoffset:0;stroke-opacity:1"
       id="rect5214-2"
       width="22.115286"
       height="22.115286"
       x="-191.74348"
       y="80.510109"
       rx="2.6458333"
       ry="2.6458333" />
    <rect
       style="opacity:1;fill:#cfcfd1;fill-opacity:0.41568627;stroke:#000000;stroke-width:1.074;stroke-linecap:butt;stroke-linejoin:round;stroke-miterlimit:4;stroke-dasharray:none;stroke-dashoffset:0;stroke-opacity:1"
       id="rect5214-2-8"
       width="22.115286"
       height="22.115286"
       x="-214.89066"
       y="80.510109"
       rx="2.6458333"
       ry="2.6458333" />
    <rect
       style="opacity:1;fill:#cfcfd1;fill-opacity:0.41568627;stroke:#000000;stroke-width:1.074;stroke-linecap:butt;stroke-linejoin:round;stroke-miterlimit:4;stroke-dasharray:none;stroke-dashoffset:0;stroke-opacity:1"
       id="rect5214-2-9"
       width="22.115286"
       height="22.115286"
       x="-168.56985"
       y="80.510109"
       rx="2.6458333"
       ry="2.6458333" />
    <path
       d="m -179.47273,63.323485 3.85331,8.009698 c 0.16323,0.333988 -0.0874,0.721712 -0.45893,0.710049 l -2.81422,-0.103909 c -0.3406,-0.01155 -0.51089,0.150092 -0.51089,0.484911 l 0.009,-2.79276 -0.026,5.403299 c 0.002,0.331511 -0.25013,0.609421 -0.58016,0.640776 l -1.12569,0.121228 c -0.32528,0.03494 -0.61366,-0.213937 -0.63212,-0.545526 l -0.32038,-5.212798 0.28575,2.385781 c 0.0116,-0.346366 -0.15587,-0.510889 -0.50224,-0.493571 l -3.20387,0.129887 c -0.21765,0.0066 -0.36685,-0.217253 -0.2771,-0.415639 l 4.77119,-10.209117 c 0.12234,-0.272903 0.50978,-0.272903 0.63212,0 z"
       id="path1433-0"
       inkscape:connector-curvature="0"
       style="fill:#000000;stroke-width:0.86591333"
       sodipodi:nodetypes="cccccccccccccccccc" />
    <path
       d="m -181.89894,96.759849 -3.85331,-8.0097 c -0.16323,-0.333986 0.0874,-0.721712 0.45893,-0.710049 l 2.81422,0.10391 c 0.3406,0.01154 0.51089,-0.150093 0.51089,-0.484912 l -0.009,2.792761 0.026,-5.403299 c -0.002,-0.33151 0.25013,-0.60942 0.58016,-0.640776 l 1.12569,-0.121227 c 0.32528,-0.03494 0.61366,0.213937 0.63212,0.545523 l 0.32038,5.2128 -0.28575,-2.38578 c -0.0116,0.346364 0.15586,0.510887 0.50223,0.49357 l 3.20388,-0.129887 c 0.21765,-0.0066 0.36685,0.217252 0.27709,0.41564 l -4.77118,10.209117 c -0.12233,0.272902 -0.50977,0.272902 -0.63211,0 z"
       id="path1433-0-0"
       inkscape:connector-curvature="0"
       style="fill:#000000;stroke-width:0.86591333"
       sodipodi:nodetypes="cccccccccccccccccc" />
    <path
       d="m -152.32012,92.780854 -8.0097,3.853312 c -0.33399,0.163227 -0.72171,-0.08738 -0.71005,-0.458933 l 0.10391,-2.814222 c 0.0115,-0.340595 -0.15009,-0.510886 -0.48491,-0.510886 l 2.79276,0.0087 -5.4033,-0.02596 c -0.33151,0.0016 -0.60942,-0.250132 -0.64078,-0.580163 l -0.12122,-1.125688 c -0.0349,-0.325281 0.21393,-0.613659 0.54552,-0.632119 l 5.2128,-0.320381 -2.38578,0.285747 c 0.34637,0.01156 0.51089,-0.155863 0.49357,-0.502232 l -0.12989,-3.203874 c -0.007,-0.217648 0.21726,-0.366852 0.41564,-0.277095 l 10.20912,4.771178 c 0.2729,0.122338 0.2729,0.509778 0,0.632116 z"
       id="path1433-0-3"
       inkscape:connector-curvature="0"
       style="fill:#000000;stroke-width:0.86591333"
       sodipodi:nodetypes="cccccccccccccccccc" />
    <path
       d="m -209.02512,90.354641 8.0097,-3.853312 c 0.33399,-0.163227 0.72171,0.08738 0.71005,0.458933 l -0.10391,2.814222 c -0.0115,0.340595 0.15009,0.510886 0.48491,0.510886 l -2.79276,-0.0087 5.4033,0.02596 c 0.33151,-0.0016 0.60942,0.250132 0.64078,0.580163 l 0.12122,1.125688 c 0.0349,0.325281 -0.21393,0.613659 -0.54552,0.632119 l -5.2128,0.320381 2.38578,-0.285747 c -0.34636,-0.01156 -0.51089,0.155863 -0.49357,0.502232 l 0.12989,3.203874 c 0.007,0.217648 -0.21726,0.366852 -0.41564,0.277095 l -10.20912,-4.771187 c -0.2729,-0.122338 -0.2729,-0.509778 0,-0.632116 z"
       id="path1433-0-3-1"
       inkscape:connector-curvature="0"
       style="fill:#000000;stroke-width:0.86591333"
       sodipodi:nodetypes="cccccccccccccccccc" />
  </g>
</svg>
