<?xml version="1.0" encoding="UTF-8" standalone="no"?>
<svg
   xmlns:dc="http://purl.org/dc/elements/1.1/"
   xmlns:cc="http://creativecommons.org/ns#"
   xmlns:rdf="http://www.w3.org/1999/02/22-rdf-syntax-ns#"
   xmlns:svg="http://www.w3.org/2000/svg"
   xmlns="http://www.w3.org/2000/svg"
   xmlns:sodipodi="http://sodipodi.sourceforge.net/DTD/sodipodi-0.dtd"
   xmlns:inkscape="http://www.inkscape.org/namespaces/inkscape"
   version="1.1"
   viewBox="0 0 94 94"
   id="svg3631"
   sodipodi:docname="girobizq.svg"
   inkscape:version="0.92.2 (5c3e80d, 2017-08-06)">
  <metadata
     id="metadata3637">
    <rdf:RDF>
      <cc:Work
         rdf:about="">
        <dc:format>image/svg+xml</dc:format>
        <dc:type
           rdf:resource="http://purl.org/dc/dcmitype/StillImage" />
        <dc:title></dc:title>
      </cc:Work>
    </rdf:RDF>
  </metadata>
  <defs
     id="defs3635" />
  <sodipodi:namedview
     pagecolor="#ffffff"
     bordercolor="#666666"
     borderopacity="1"
     objecttolerance="10"
     gridtolerance="10"
     guidetolerance="10"
     inkscape:pageopacity="0"
     inkscape:pageshadow="2"
     inkscape:window-width="1600"
     inkscape:window-height="837"
     id="namedview3633"
     showgrid="false"
     inkscape:zoom="2.5106383"
     inkscape:cx="-26.487288"
     inkscape:cy="47"
     inkscape:window-x="-8"
     inkscape:window-y="-8"
     inkscape:window-maximized="1"
     inkscape:current-layer="svg3631" />
  <g
     id="g3623"
     style="fill:none;stroke-width:2;stroke-linecap:butt">
    <path
       d="M 84.49,46.97 A 37.38,37.38 0 0 0 47.11,9.59 37.38,37.38 0 0 0 9.73,46.97 37.38,37.38 0 0 0 47.11,84.35 37.38,37.38 0 0 0 84.49,46.97"
       id="path3619"
       inkscape:connector-curvature="0"
       style="vector-effect:non-scaling-stroke;stroke:#e49692" />
    <path
       d="m 39.9,27.57 0.67,-5.3 q 0.36,-2.83 -2.09,-1.38 L 17.65,33.18 a 0.43,0.42 46.8 0 0 -0.02,0.72 l 21.83,14.57 a 0.73,0.73 0 0 0 1.13,-0.67 l -0.6,-6.82 a 0.7,0.7 0 0 1 0.67,-0.77 q 13.49,-0.6 17.38,10.35 C 60,56.09 58.9,65.14 59.05,71.54 A 0.47,0.46 89.4 0 0 59.51,72 h 11.24 q 0.51,0 0.51,-0.52 C 71.22,64 72.15,54.71 70.1,48 Q 65.31,32.35 48.5,28.6 c -2.46,-0.55 -5.46,-0.23 -8.21,-0.53 q -0.45,-0.05 -0.39,-0.5"
       id="path3621"
       inkscape:connector-curvature="0"
       style="vector-effect:non-scaling-stroke;stroke:#8e8d8c" />
  </g>
  <path
     d="M 93.32,46.87 A 46.31,46.31 0 0 1 47.01,93.18 46.31,46.31 0 0 1 0.7,46.87 46.31,46.31 0 0 1 47.01,0.56 46.31,46.31 0 0 1 93.32,46.87 Z m -8.83,0.1 A 37.38,37.38 0 0 0 47.11,9.59 37.38,37.38 0 0 0 9.73,46.97 37.38,37.38 0 0 0 47.11,84.35 37.38,37.38 0 0 0 84.49,46.97 Z"
     id="path3625"
     inkscape:connector-curvature="0"
     style="fill:#c82d24" />
  <path
     d="M 84.49,46.97 A 37.38,37.38 0 0 1 47.11,84.35 37.38,37.38 0 0 1 9.73,46.97 37.38,37.38 0 0 1 47.11,9.59 37.38,37.38 0 0 1 84.49,46.97 Z m -44.59,-19.4 0.67,-5.3 q 0.36,-2.83 -2.09,-1.38 L 17.65,33.18 a 0.43,0.42 46.8 0 0 -0.02,0.72 l 21.83,14.57 a 0.73,0.73 0 0 0 1.13,-0.67 l -0.6,-6.82 a 0.7,0.7 0 0 1 0.67,-0.77 q 13.49,-0.6 17.38,10.35 C 60,56.09 58.9,65.14 59.05,71.54 A 0.47,0.46 89.4 0 0 59.51,72 h 11.24 q 0.51,0 0.51,-0.52 C 71.22,64 72.15,54.71 70.1,48 Q 65.31,32.35 48.5,28.6 c -2.46,-0.55 -5.46,-0.23 -8.21,-0.53 q -0.45,-0.05 -0.39,-0.5 z"
     id="path3627"
     inkscape:connector-curvature="0"
     style="fill:#ffffff" />
  <path
     d="m 40.29,28.07 c 2.75,0.3 5.75,-0.02 8.21,0.53 Q 65.31,32.35 70.1,48 c 2.05,6.71 1.12,16 1.16,23.48 Q 71.26,72 70.75,72 H 59.51 A 0.47,0.46 89.4 0 1 59.05,71.54 C 58.9,65.14 60,56.09 58.04,50.56 Q 54.15,39.61 40.66,40.21 a 0.7,0.7 0 0 0 -0.67,0.77 l 0.6,6.82 a 0.73,0.73 0 0 1 -1.13,0.67 L 17.63,33.9 a 0.43,0.42 46.8 0 1 0.02,-0.72 L 38.48,20.89 q 2.45,-1.45 2.09,1.38 l -0.67,5.3 q -0.06,0.45 0.39,0.5 z"
     id="path3629"
     inkscape:connector-curvature="0"
     style="fill:#1d1a19" />
</svg>
