<?xml version="1.0" encoding="UTF-8" standalone="no"?>
<!-- Created with Inkscape (http://www.inkscape.org/) -->

<svg
   width="24.503574mm"
   height="48.072521mm"
   viewBox="0 0 24.503574 48.072521"
   version="1.1"
   id="svg5593"
   inkscape:version="1.2.1 (9c6d41e410, 2022-07-14)"
   sodipodi:docname="otro2.svg"
   xmlns:inkscape="http://www.inkscape.org/namespaces/inkscape"
   xmlns:sodipodi="http://sodipodi.sourceforge.net/DTD/sodipodi-0.dtd"
   xmlns="http://www.w3.org/2000/svg"
   xmlns:svg="http://www.w3.org/2000/svg">
  <sodipodi:namedview
     id="namedview5595"
     pagecolor="#ffffff"
     bordercolor="#666666"
     borderopacity="1.0"
     inkscape:showpageshadow="2"
     inkscape:pageopacity="0.0"
     inkscape:pagecheckerboard="0"
     inkscape:deskcolor="#d1d1d1"
     inkscape:document-units="mm"
     showgrid="false"
     inkscape:zoom="0.49085999"
     inkscape:cx="-34.633094"
     inkscape:cy="209.8358"
     inkscape:window-width="1366"
     inkscape:window-height="705"
     inkscape:window-x="-8"
     inkscape:window-y="-8"
     inkscape:window-maximized="1"
     inkscape:current-layer="layer1" />
  <defs
     id="defs5590">
    <linearGradient
       id="SVGID_1_"
       gradientUnits="userSpaceOnUse"
       x1="418.31909"
       y1="54.9608"
       x2="388.38419"
       y2="80.969803">
			<stop
   offset="0"
   style="stop-color:#FFFFFF"
   id="stop1806" />

			<stop
   offset="1"
   style="stop-color:#9EBA00"
   id="stop1808" />

		</linearGradient>
    <linearGradient
       id="SVGID_00000168107616406578897080000005498599119716834199_"
       gradientUnits="userSpaceOnUse"
       x1="380.22449"
       y1="176.7529"
       x2="413.3345"
       y2="176.7529">
			<stop
   offset="0"
   style="stop-color:#FFFFFF"
   id="stop1867" />

			<stop
   offset="0.1856"
   style="stop-color:#C4C4C4"
   id="stop1869" />

			<stop
   offset="0.4039"
   style="stop-color:#858585"
   id="stop1871" />

			<stop
   offset="0.5638"
   style="stop-color:#5E5E5E"
   id="stop1873" />

			<stop
   offset="0.6468"
   style="stop-color:#4F4F4F"
   id="stop1875" />

			<stop
   offset="0.7343"
   style="stop-color:#525252"
   id="stop1877" />

			<stop
   offset="0.7916"
   style="stop-color:#5A5A5A"
   id="stop1879" />

			<stop
   offset="0.8404"
   style="stop-color:#696969"
   id="stop1881" />

			<stop
   offset="0.8843"
   style="stop-color:#7F7F7F"
   id="stop1883" />

			<stop
   offset="0.925"
   style="stop-color:#9A9A9A"
   id="stop1885" />

			<stop
   offset="0.9628"
   style="stop-color:#BBBBBB"
   id="stop1887" />

			<stop
   offset="0.9986"
   style="stop-color:#E2E2E2"
   id="stop1889" />

			<stop
   offset="1"
   style="stop-color:#E4E4E4"
   id="stop1891" />

		</linearGradient>
    <linearGradient
       id="SVGID_00000140008586426012919290000011475280016628113304_"
       gradientUnits="userSpaceOnUse"
       x1="408.1814"
       y1="123.8522"
       x2="393.9678"
       y2="145.5786">
			<stop
   offset="0"
   style="stop-color:#FFFFFF"
   id="stop1900" />

			<stop
   offset="1"
   style="stop-color:#9EBA00"
   id="stop1902" />

		</linearGradient>
    <linearGradient
       id="SVGID_00000041991924184088547690000008709037602005160841_"
       gradientUnits="userSpaceOnUse"
       x1="388.6156"
       y1="103.9021"
       x2="414.46109"
       y2="103.9021">
			<stop
   offset="0"
   style="stop-color:#FFFFFF"
   id="stop2007" />

			<stop
   offset="0.1856"
   style="stop-color:#C4C4C4"
   id="stop2009" />

			<stop
   offset="0.4039"
   style="stop-color:#858585"
   id="stop2011" />

			<stop
   offset="0.5638"
   style="stop-color:#5E5E5E"
   id="stop2013" />

			<stop
   offset="0.6468"
   style="stop-color:#4F4F4F"
   id="stop2015" />

			<stop
   offset="0.7343"
   style="stop-color:#525252"
   id="stop2017" />

			<stop
   offset="0.7916"
   style="stop-color:#5A5A5A"
   id="stop2019" />

			<stop
   offset="0.8404"
   style="stop-color:#696969"
   id="stop2021" />

			<stop
   offset="0.8843"
   style="stop-color:#7F7F7F"
   id="stop2023" />

			<stop
   offset="0.925"
   style="stop-color:#9A9A9A"
   id="stop2025" />

			<stop
   offset="0.9628"
   style="stop-color:#BBBBBB"
   id="stop2027" />

			<stop
   offset="0.9986"
   style="stop-color:#E2E2E2"
   id="stop2029" />

			<stop
   offset="1"
   style="stop-color:#E4E4E4"
   id="stop2031" />

		</linearGradient>
    <linearGradient
       id="SVGID_00000133491910618603231260000011459889276909784251_"
       gradientUnits="userSpaceOnUse"
       x1="365.7207"
       y1="56.219398"
       x2="365.3988"
       y2="78.372498">
			<stop
   offset="0"
   style="stop-color:#FFFFFF"
   id="stop2036" />

			<stop
   offset="1"
   style="stop-color:#9EBA00"
   id="stop2038" />

		</linearGradient>
    <linearGradient
       id="SVGID_00000052063178913993794900000016970031713783386783_"
       gradientUnits="userSpaceOnUse"
       x1="430.34311"
       y1="56.219799"
       x2="430.02109"
       y2="78.372498">
			<stop
   offset="0"
   style="stop-color:#FFFFFF"
   id="stop2043" />

			<stop
   offset="1"
   style="stop-color:#9EBA00"
   id="stop2045" />

		</linearGradient>
  </defs>
  <g
     inkscape:label="Capa 1"
     inkscape:groupmode="layer"
     id="layer1"
     transform="translate(-61.054928,-93.470091)">
    <g
       id="g2062"
       transform="matrix(0.26458333,0,0,0.26458333,-31.999832,84.214648)">
		<g
   id="g1782">
			<path
   style="fill:#484d51"
   d="m 417.546,213.018 v 0 c 11.566,-1.758 15.67,-4.616 15.67,-6.53 l 2.268,-7.319 c 0,0 2.268,5.288 2.268,7.319 v 0 c 0,4.43 -5.012,7.711 -14.915,9.776 -2.457,0.513 -4.875,-0.992 -5.291,-3.246 z"
   id="path1780" />

		</g>

		<g
   id="g1786">
			<path
   style="fill:#484d51"
   d="m 380.224,213.259 c -0.372,2.278 -2.786,3.794 -5.274,3.33 -10.869,-2.026 -16.576,-5.487 -16.576,-10.101 v 0 c 0,-2.031 2.268,-7.632 2.268,-7.632 l 2.268,7.632 c 0,2.212 5.354,5.161 17.315,6.765 z"
   id="path1784" />

		</g>

		<path
   style="fill:#484d51"
   d="m 437.127,55.86 -78.06,0.257 -0.024,-7.183 c -0.061,-18.431 77.999,-18.689 78.059,-0.257 z"
   id="path1788" />

		<rect
   x="360.642"
   y="60.705002"
   style="fill:#9eba00"
   width="74.842003"
   height="133.302"
   id="rect1790" />

		<path
   style="fill:#c3de2c"
   d="m 435.484,55.588 h -74.842 v -6.373 c 0,-16.353 74.842,-16.353 74.842,0 z"
   id="path1792" />

		<path
   style="fill:#797d00"
   d="m 433.34,55.588 h -70.555 v -5.483 c 0,-14.069 70.555,-14.069 70.555,0 z"
   id="path1794" />

		<path
   style="fill:#fbfbfb"
   d="m 381.013,42.618 -4.554,2.835 v -6.465 c 0,-0.624 0.41,-1.13 0.916,-1.13 l 2.722,-0.907 c 0.506,0 0.916,0.506 0.916,1.13 z"
   id="path1796" />

		<path
   style="fill:#fbfbfb"
   d="m 414.996,42.618 4.554,2.835 v -6.465 c 0,-0.624 -0.41,-1.13 -0.916,-1.13 l -2.722,-0.907 c -0.506,0 -0.916,0.506 -0.916,1.13 z"
   id="path1798" />

		<path
   style="fill:#9eba00"
   d="m 435.484,61.032 h -74.842 v -5.49 c 0,-14.087 74.842,-14.087 74.842,0 z"
   id="path1800" />

		<path
   style="fill:#81990a"
   d="m 427.479,97.03 h -58.831 l 5.461,-48.252 c 0.145,-1.878 1.343,-3.475 3.275,-4.781 8.754,-5.951 32.586,-5.951 41.349,-0.009 1.932,1.306 3.139,2.903 3.284,4.79 z"
   id="path1802" />

		<path
   style="fill:#9eba00"
   d="m 423.451,97.03 h -50.775 l 4.708,-53.032 c 8.754,-5.951 32.586,-5.951 41.349,-0.009 z"
   id="path1804" />

		<linearGradient
   id="linearGradient5422"
   gradientUnits="userSpaceOnUse"
   x1="418.31909"
   y1="54.9608"
   x2="388.38419"
   y2="80.969803">
			<stop
   offset="0"
   style="stop-color:#FFFFFF"
   id="stop5418" />

			<stop
   offset="1"
   style="stop-color:#9EBA00"
   id="stop5420" />

		</linearGradient>

		<path
   style="opacity:0.3;fill:url(#SVGID_1_)"
   d="m 423.451,97.03 h -50.775 l 4.708,-53.032 c 8.754,-5.951 32.586,-5.951 41.349,-0.009 z"
   id="path1811" />

		<g
   id="g1817">
			<polygon
   style="fill:#81990a"
   points="384.643,53.005 381.338,92.739 384.643,92.739 "
   id="polygon1813" />

			<polygon
   style="fill:#81990a"
   points="411.366,53.005 414.671,92.739 411.366,92.739 "
   id="polygon1815" />

		</g>

		<path
   style="fill:#1b3338"
   d="m 430.037,101.457 v 82.508 c 0,9.879 -63.956,9.879 -63.956,0 v -82.508 c 0,-1.751 0.934,-3.284 2.567,-4.618 4.209,-3.411 13.063,-5.434 22.779,-6.06 6.35,-0.408 13.063,-0.218 19.087,0.563 7.321,0.943 13.608,2.776 16.946,5.488 1.643,1.334 2.577,2.877 2.577,4.627 z"
   id="path1819" />

		<path
   style="fill:#232323"
   d="m 430.037,183.965 c 0,9.879 -63.956,9.879 -63.956,0 z"
   id="path1821" />

		<path
   style="fill:#9eba00"
   d="m 435.484,193.679 h -74.842 v 10.587 c 0,14.59 74.842,14.59 74.842,0 z"
   id="path1823" />

		<path
   style="fill:#484d51"
   d="m 423.716,192.683 v 5.996 c -0.009,0.299 -0.055,0.599 -0.154,0.88 -0.045,0.145 -0.109,0.281 -0.182,0.426 -0.19,0.381 -0.472,0.744 -0.826,1.089 -6.795,6.677 -41.431,6.74 -48.77,0.2 -0.408,-0.363 -0.726,-0.735 -0.953,-1.134 -0.082,-0.145 -0.154,-0.299 -0.218,-0.454 -0.109,-0.29 -0.181,-0.581 -0.19,-0.889 -0.009,-0.054 -0.009,-0.109 -0.009,-0.163 v -5.951 c 0,-0.68 0.617,-1.197 1.288,-1.089 17.109,2.849 33.303,2.704 48.716,0.018 0.672,-0.126 1.289,0.382 1.298,1.071 z"
   id="path1825" />

		<g
   id="g1855">
			<g
   id="g1829">
				<path
   style="fill:#262424"
   d="m 423.716,192.683 v 0.807 c -8.655,1.27 -17.327,1.896 -25.964,1.896 -8.509,0 -16.964,-0.608 -25.338,-1.842 v -0.798 c 16.884,2.486 34.129,2.468 51.302,-0.063 z"
   id="path1827" />

			</g>

			<g
   id="g1833">
				<path
   style="fill:#262424"
   d="m 423.716,193.89 v 0.798 c -8.655,1.524 -17.336,2.277 -25.964,2.277 -8.5,0 -16.964,-0.735 -25.338,-2.205 v -0.798 c 16.874,2.976 34.12,2.949 51.302,-0.072 z"
   id="path1831" />

			</g>

			<g
   id="g1837">
				<path
   style="fill:#262424"
   d="m 423.716,195.096 v 0.798 c -8.664,1.769 -17.336,2.658 -25.964,2.658 -8.5,0 -16.964,-0.862 -25.338,-2.567 v -0.807 c 16.874,3.465 34.12,3.438 51.302,-0.082 z"
   id="path1835" />

			</g>

			<g
   id="g1841">
				<path
   style="fill:#262424"
   d="m 423.716,196.276 v 0.825 c -8.655,2.023 -17.327,3.03 -25.964,3.03 -8.5,0 -16.973,-0.98 -25.338,-2.93 v -0.816 c 16.874,3.964 34.129,3.937 51.302,-0.109 z"
   id="path1839" />

			</g>

			<g
   id="g1845">
				<path
   style="fill:#262424"
   d="m 423.716,197.482 v 0.826 c -8.664,2.268 -17.336,3.402 -25.964,3.402 -8.5,0 -16.964,-1.098 -25.338,-3.293 v -0.826 c 16.874,4.473 34.12,4.427 51.302,-0.109 z"
   id="path1843" />

			</g>

			<g
   id="g1849">
				<path
   style="fill:#262424"
   d="m 423.716,198.68 c -0.009,0.299 -0.055,0.599 -0.154,0.88 -8.609,2.486 -17.227,3.729 -25.809,3.729 -8.437,0 -16.837,-1.198 -25.138,-3.602 -0.109,-0.29 -0.181,-0.581 -0.19,-0.889 16.873,4.971 34.118,4.935 51.291,-0.118 z"
   id="path1847" />

			</g>

			<g
   id="g1853">
				<path
   style="fill:#262424"
   d="m 423.38,199.986 c -0.19,0.381 -0.472,0.744 -0.826,1.089 -8.273,2.531 -16.556,3.792 -24.802,3.792 -8.038,0 -16.039,-1.197 -23.968,-3.592 -0.408,-0.363 -0.726,-0.735 -0.953,-1.134 16.63,5.297 33.612,5.252 50.549,-0.155 z"
   id="path1851" />

			</g>

		</g>

		<path
   style="fill:#9eba00"
   d="m 375.51,115.461 -6.86,-18.615 c -1.81,-0.705 -3.775,1.715 -2.565,4.61 l 6.591,16.84 z"
   id="path1857" />

		<path
   style="fill:#9eba00"
   d="m 363.526,135.717 c -1.202,0 -1.202,4.649 0,4.649 l 10.439,-1.037 v -3.952 z"
   id="path1859" />

		<path
   style="fill:#9eba00"
   d="m 432.945,135.717 c 1.202,0 1.202,4.649 0,4.649 l -10.439,-1.037 v -3.952 z"
   id="path1861" />

		<path
   style="fill:#9eba00"
   d="m 420.242,115.461 6.86,-18.615 c 1.81,-0.705 3.775,1.715 2.566,4.61 l -6.591,16.84 z"
   id="path1863" />

		<path
   style="fill:#9eba00"
   d="m 375.551,161.794 -6.502,28.133 c -1.771,1.052 -3.759,-2.563 -2.623,-6.904 l 6.25,-25.572 z"
   id="path1865" />

		
			<linearGradient
   id="linearGradient5478"
   gradientUnits="userSpaceOnUse"
   x1="380.22449"
   y1="176.7529"
   x2="413.3345"
   y2="176.7529">
			<stop
   offset="0"
   style="stop-color:#FFFFFF"
   id="stop5452" />

			<stop
   offset="0.1856"
   style="stop-color:#C4C4C4"
   id="stop5454" />

			<stop
   offset="0.4039"
   style="stop-color:#858585"
   id="stop5456" />

			<stop
   offset="0.5638"
   style="stop-color:#5E5E5E"
   id="stop5458" />

			<stop
   offset="0.6468"
   style="stop-color:#4F4F4F"
   id="stop5460" />

			<stop
   offset="0.7343"
   style="stop-color:#525252"
   id="stop5462" />

			<stop
   offset="0.7916"
   style="stop-color:#5A5A5A"
   id="stop5464" />

			<stop
   offset="0.8404"
   style="stop-color:#696969"
   id="stop5466" />

			<stop
   offset="0.8843"
   style="stop-color:#7F7F7F"
   id="stop5468" />

			<stop
   offset="0.925"
   style="stop-color:#9A9A9A"
   id="stop5470" />

			<stop
   offset="0.9628"
   style="stop-color:#BBBBBB"
   id="stop5472" />

			<stop
   offset="0.9986"
   style="stop-color:#E2E2E2"
   id="stop5474" />

			<stop
   offset="1"
   style="stop-color:#E4E4E4"
   id="stop5476" />

		</linearGradient>

		<path
   style="opacity:0.2;fill:url(#SVGID_00000168107616406578897080000005498599119716834199_)"
   d="m 413.335,190.565 c -8.765,0.951 -17.81,1.063 -27.134,0.337 l -5.976,-27.299 c 6.35,-0.408 22.42,-2.043 28.443,-1.263 z"
   id="path1894" />

		<path
   style="fill:#9eba00"
   d="m 420.202,161.794 6.502,28.133 c 1.771,1.052 3.759,-2.563 2.623,-6.904 l -6.25,-25.572 z"
   id="path1896" />

		<path
   style="fill:#c3de2c"
   d="m 420.792,163.197 c -15.84,1.248 -31.061,1.373 -45.458,0 -1.468,0 -2.658,-1.19 -2.658,-2.658 v -42.42 c 0,-1.468 1.19,-2.658 2.658,-2.658 14.397,-1.643 29.619,-1.493 45.458,0 1.468,0 2.658,1.19 2.658,2.658 v 42.42 c 0,1.468 -1.19,2.658 -2.658,2.658 z"
   id="path1898" />

		
			<linearGradient
   id="linearGradient5487"
   gradientUnits="userSpaceOnUse"
   x1="408.1814"
   y1="123.8522"
   x2="393.9678"
   y2="145.5786">
			<stop
   offset="0"
   style="stop-color:#FFFFFF"
   id="stop5483" />

			<stop
   offset="1"
   style="stop-color:#9EBA00"
   id="stop5485" />

		</linearGradient>

		<path
   style="opacity:0.3;fill:url(#SVGID_00000140008586426012919290000011475280016628113304_)"
   d="m 415.841,160.688 c -12.39,1.117 -24.296,1.229 -35.557,0 -1.148,0 -2.079,-1.065 -2.079,-2.38 v -37.979 c 0,-1.314 0.931,-2.38 2.079,-2.38 11.262,-1.471 23.168,-1.337 35.557,0 1.148,0 2.079,1.065 2.079,2.38 v 37.979 c 0,1.315 -0.93,2.38 -2.079,2.38 z"
   id="path1905" />

		<path
   style="fill:#81990a"
   d="m 360.642,55.543 v 145.86 c 0,0 -7.24,-96.691 0,-145.86 z"
   id="path1907" />

		<path
   style="fill:#81990a"
   d="m 435.484,55.543 v 145.86 c 0,0 7.24,-96.691 0,-145.86 z"
   id="path1909" />

		<g
   style="opacity:0.4"
   id="g1919">
			<path
   style="fill:#cbf655"
   d="m 386.403,155.642 h -0.127 c -1.224,0 -2.216,-0.992 -2.216,-2.216 v -30.865 c 0,-1.224 0.992,-2.216 2.216,-2.216 h 0.127 c 1.224,0 2.216,0.992 2.216,2.216 v 30.865 c 0,1.224 -0.992,2.216 -2.216,2.216 z"
   id="path1911" />

			<path
   style="fill:#cbf655"
   d="m 394.218,155.642 h -0.126 c -1.224,0 -2.216,-0.992 -2.216,-2.216 v -30.865 c 0,-1.224 0.992,-2.216 2.216,-2.216 h 0.126 c 1.224,0 2.216,0.992 2.216,2.216 v 30.865 c 10e-4,1.224 -0.992,2.216 -2.216,2.216 z"
   id="path1913" />

			<path
   style="fill:#cbf655"
   d="m 402.034,155.642 h -0.126 c -1.224,0 -2.216,-0.992 -2.216,-2.216 v -30.865 c 0,-1.224 0.992,-2.216 2.216,-2.216 h 0.126 c 1.224,0 2.216,0.992 2.216,2.216 v 30.865 c 0,1.224 -0.992,2.216 -2.216,2.216 z"
   id="path1915" />

			<path
   style="fill:#cbf655"
   d="m 409.85,155.642 h -0.127 c -1.224,0 -2.216,-0.992 -2.216,-2.216 v -30.865 c 0,-1.224 0.992,-2.216 2.216,-2.216 h 0.127 c 1.224,0 2.216,0.992 2.216,2.216 v 30.865 c 0,1.224 -0.992,2.216 -2.216,2.216 z"
   id="path1917" />

		</g>

		<g
   id="g1937">
			<g
   id="g1927">
				<rect
   x="378.34601"
   y="123.596"
   style="fill:#e5e5e5"
   width="1.5470001"
   height="32.466"
   id="rect1921" />

				<path
   style="fill:#232323"
   d="m 377.031,125.131 h 4.177 c 0,0 -0.232,-5.411 -2.089,-5.411 -1.857,0 -2.088,5.411 -2.088,5.411 z"
   id="path1923" />

				<path
   style="fill:#232323"
   d="m 381.208,152.04 h -4.177 c 0,0 0.232,5.411 2.089,5.411 1.857,0 2.088,-5.411 2.088,-5.411 z"
   id="path1925" />

			</g>

			<g
   id="g1935">
				<rect
   x="415.776"
   y="123.596"
   style="fill:#e5e5e5"
   width="1.5470001"
   height="32.466"
   id="rect1929" />

				<path
   style="fill:#232323"
   d="m 414.461,125.131 h 4.177 c 0,0 -0.232,-5.411 -2.089,-5.411 -1.856,0 -2.088,5.411 -2.088,5.411 z"
   id="path1931" />

				<path
   style="fill:#232323"
   d="m 418.638,152.04 h -4.177 c 0,0 0.232,5.411 2.089,5.411 1.856,0.001 2.088,-5.411 2.088,-5.411 z"
   id="path1933" />

			</g>

		</g>

		<g
   id="g1963">
			<g
   id="g1949">
				<g
   id="g1945">
					<path
   style="fill:#232323"
   d="m 352.167,109.421 10.738,-2.63 -0.357,-1.457 c -0.487,-1.986 -2.491,-3.202 -4.477,-2.716 l -3.545,0.868 c -1.986,0.486 -3.202,2.491 -2.716,4.477 z"
   id="path1939" />

					<path
   style="fill:#4d4d4d"
   d="m 352.167,109.421 10.738,-2.63 0.187,0.766 c 0.04,0.164 -0.06,0.329 -0.224,0.37 l -10.144,2.484 c -0.164,0.04 -0.329,-0.06 -0.37,-0.224 z"
   id="path1941" />

					<path
   style="fill:#232323"
   d="m 364.213,107.296 v 0 c 0.662,0.007 0.719,-5.217 0.057,-5.225 l -1.217,0.222 c -0.609,0.111 -0.999,0.712 -0.852,1.314 l 0.71,2.9 c 0.143,0.577 0.725,0.93 1.302,0.789 z"
   id="path1943" />

				</g>

				<path
   style="fill:#232323"
   d="m 363.526,105.228 c 0,0.748 -0.607,1.355 -1.355,1.355 -0.748,0 -1.355,-0.606 -1.355,-1.355 0,-0.748 0.607,-1.355 1.355,-1.355 0.749,10e-4 1.355,0.607 1.355,1.355 z"
   id="path1947" />

			</g>

			<g
   id="g1961">
				<g
   id="g1957">
					<path
   style="fill:#232323"
   d="m 443.851,109.421 -10.738,-2.63 0.357,-1.457 c 0.486,-1.986 2.491,-3.202 4.477,-2.716 l 3.545,0.868 c 1.986,0.486 3.202,2.491 2.716,4.477 z"
   id="path1951" />

					<path
   style="fill:#4d4d4d"
   d="m 443.851,109.421 -10.738,-2.63 -0.188,0.766 c -0.04,0.164 0.06,0.329 0.224,0.37 l 10.145,2.484 c 0.164,0.04 0.329,-0.06 0.37,-0.224 z"
   id="path1953" />

					<path
   style="fill:#232323"
   d="m 431.805,107.296 v 0 c -0.975,0.011 -1.032,-5.214 -0.057,-5.225 l 1.217,0.222 c 0.609,0.111 0.999,0.712 0.851,1.314 l -0.71,2.9 c -0.142,0.577 -0.724,0.93 -1.301,0.789 z"
   id="path1955" />

				</g>

				<path
   style="fill:#232323"
   d="m 434.695,105.712 c 0,0.748 -0.607,1.355 -1.355,1.355 -0.748,0 -1.355,-0.606 -1.355,-1.355 0,-0.748 0.607,-1.355 1.355,-1.355 0.748,0 1.355,0.607 1.355,1.355 z"
   id="path1959" />

			</g>

		</g>

		<g
   id="g1973">
			<g
   id="g1969">
				<ellipse
   style="fill:#546d70"
   cx="362.44101"
   cy="89.584999"
   rx="1.232"
   ry="2.9690001"
   id="ellipse1965" />

				<path
   style="fill:#ef7911"
   d="m 362.849,89.585 c 0,1.295 -0.303,2.345 -0.677,2.345 -0.374,0 -0.677,-1.05 -0.677,-2.345 0,-1.295 0.303,-2.345 0.677,-2.345 0.374,0 0.677,1.05 0.677,2.345 z"
   id="path1967" />

			</g>

			<path
   style="opacity:0.2;fill:#fbfbfb"
   d="m 363.523,89.536 c 0,0.689 -0.243,1.247 -0.367,1.247 -0.124,0 -0.081,-0.559 -0.081,-1.247 0,-0.688 -0.043,-1.247 0.081,-1.247 0.124,0 0.367,0.558 0.367,1.247 z"
   id="path1971" />

		</g>

		<g
   id="g1983">
			<g
   id="g1979">
				<path
   style="fill:#546d70"
   d="m 369.191,55.405 c -2.944,1.318 -5.816,1.3 -6.416,-0.038 -0.599,-1.339 1.302,-3.492 4.246,-4.81 2.944,-1.318 5.816,-1.3 6.416,0.039 0.599,1.338 -1.302,3.491 -4.246,4.809 z"
   id="path1975" />

				<path
   style="fill:#fbfbfb"
   d="m 368.465,53.782 c -2.326,1.041 -4.478,1.288 -4.807,0.552 -0.329,-0.736 1.289,-2.176 3.614,-3.217 2.326,-1.041 4.478,-1.288 4.807,-0.552 0.329,0.736 -1.289,2.176 -3.614,3.217 z"
   id="path1977" />

			</g>

			<path
   style="opacity:0.2;fill:#fbfbfb"
   d="m 369.146,55.069 c -1.237,0.554 -2.454,0.524 -2.563,0.281 -0.109,-0.243 0.931,-0.608 2.168,-1.162 1.237,-0.554 2.202,-1.086 2.311,-0.843 0.11,0.243 -0.679,1.17 -1.916,1.724 z"
   id="path1981" />

		</g>

		<g
   id="g1993">
			<g
   id="g1989">
				<path
   style="fill:#546d70"
   d="m 427.092,55.405 c 2.944,1.318 5.816,1.3 6.416,-0.038 0.599,-1.339 -1.302,-3.492 -4.246,-4.81 -2.944,-1.318 -5.816,-1.3 -6.416,0.039 -0.599,1.338 1.302,3.491 4.246,4.809 z"
   id="path1985" />

				<path
   style="fill:#fbfbfb"
   d="m 427.818,53.782 c 2.326,1.041 4.478,1.288 4.807,0.552 0.329,-0.736 -1.289,-2.176 -3.614,-3.217 -2.326,-1.041 -4.478,-1.288 -4.807,-0.552 -0.33,0.736 1.289,2.176 3.614,3.217 z"
   id="path1987" />

			</g>

			<path
   style="opacity:0.2;fill:#fbfbfb"
   d="m 427.137,55.069 c 1.237,0.554 2.454,0.524 2.563,0.281 0.109,-0.243 -0.931,-0.608 -2.168,-1.162 -1.237,-0.554 -2.202,-1.086 -2.311,-0.843 -0.11,0.243 0.679,1.17 1.916,1.724 z"
   id="path1991" />

		</g>

		<g
   id="g2003">
			<g
   id="g1999">
				<ellipse
   style="fill:#546d70"
   cx="433.34"
   cy="89.584999"
   rx="1.232"
   ry="2.9690001"
   id="ellipse1995" />

				<path
   style="fill:#ef7911"
   d="m 432.933,89.585 c 0,1.295 0.303,2.345 0.677,2.345 0.374,0 0.677,-1.05 0.677,-2.345 0,-1.295 -0.303,-2.345 -0.677,-2.345 -0.374,0 -0.677,1.05 -0.677,2.345 z"
   id="path1997" />

			</g>

			<path
   style="opacity:0.2;fill:#fbfbfb"
   d="m 432.258,89.536 c 0,0.689 0.243,1.247 0.367,1.247 0.124,0 0.081,-0.559 0.081,-1.247 0,-0.688 0.043,-1.247 -0.081,-1.247 -0.123,0 -0.367,0.558 -0.367,1.247 z"
   id="path2001" />

		</g>

		<path
   style="fill:#232323"
   d="M 427.479,97.03 368.648,96.849 V 96.84 c 10.296,-8.355 48.516,-8.355 58.812,-0.009 0.01,0.127 0.019,0.199 0.019,0.199 z"
   id="path2005" />

		
			<linearGradient
   id="linearGradient5566"
   gradientUnits="userSpaceOnUse"
   x1="388.6156"
   y1="103.9021"
   x2="414.46109"
   y2="103.9021">
			<stop
   offset="0"
   style="stop-color:#FFFFFF"
   id="stop5540" />

			<stop
   offset="0.1856"
   style="stop-color:#C4C4C4"
   id="stop5542" />

			<stop
   offset="0.4039"
   style="stop-color:#858585"
   id="stop5544" />

			<stop
   offset="0.5638"
   style="stop-color:#5E5E5E"
   id="stop5546" />

			<stop
   offset="0.6468"
   style="stop-color:#4F4F4F"
   id="stop5548" />

			<stop
   offset="0.7343"
   style="stop-color:#525252"
   id="stop5550" />

			<stop
   offset="0.7916"
   style="stop-color:#5A5A5A"
   id="stop5552" />

			<stop
   offset="0.8404"
   style="stop-color:#696969"
   id="stop5554" />

			<stop
   offset="0.8843"
   style="stop-color:#7F7F7F"
   id="stop5556" />

			<stop
   offset="0.925"
   style="stop-color:#9A9A9A"
   id="stop5558" />

			<stop
   offset="0.9628"
   style="stop-color:#BBBBBB"
   id="stop5560" />

			<stop
   offset="0.9986"
   style="stop-color:#E2E2E2"
   id="stop5562" />

			<stop
   offset="1"
   style="stop-color:#E4E4E4"
   id="stop5564" />

		</linearGradient>

		<path
   style="opacity:0.2;fill:url(#SVGID_00000041991924184088547690000008709037602005160841_)"
   d="m 414.461,117.233 h -25.845 l 2.812,-26.453 c 6.35,-0.408 13.063,-0.218 19.087,0.563 z"
   id="path2034" />

		
			<linearGradient
   id="linearGradient5573"
   gradientUnits="userSpaceOnUse"
   x1="365.7207"
   y1="56.219398"
   x2="365.3988"
   y2="78.372498">
			<stop
   offset="0"
   style="stop-color:#FFFFFF"
   id="stop5569" />

			<stop
   offset="1"
   style="stop-color:#9EBA00"
   id="stop5571" />

		</linearGradient>

		<path
   style="opacity:0.5;fill:url(#SVGID_00000133491910618603231260000011459889276909784251_)"
   d="m 367.868,65.751 c 0,5.026 -1.024,13.154 -2.286,13.154 -1.263,0 -2.286,-8.128 -2.286,-13.154 0,-5.026 1.024,-5.046 2.286,-5.046 1.263,0 2.286,0.02 2.286,5.046 z"
   id="path2041" />

		
			<linearGradient
   id="linearGradient5580"
   gradientUnits="userSpaceOnUse"
   x1="430.34311"
   y1="56.219799"
   x2="430.02109"
   y2="78.372498">
			<stop
   offset="0"
   style="stop-color:#FFFFFF"
   id="stop5576" />

			<stop
   offset="1"
   style="stop-color:#9EBA00"
   id="stop5578" />

		</linearGradient>

		<path
   style="opacity:0.5;fill:url(#SVGID_00000052063178913993794900000016970031713783386783_)"
   d="m 432.232,65.751 c 0,5.026 -0.908,13.154 -2.028,13.154 -1.12,0 -2.028,-8.128 -2.028,-13.154 0,-5.026 0.908,-5.046 2.028,-5.046 1.12,0 2.028,0.02 2.028,5.046 z"
   id="path2048" />

		<path
   style="fill:#0c0c0c"
   d="m 368.396,96.563 c 2.072,-1.732 4.465,-2.758 6.889,-3.691 2.445,-0.87 4.959,-1.53 7.501,-2.009 5.088,-0.965 10.274,-1.187 15.411,-1.178 1.284,0.013 2.569,0.05 3.853,0.116 1.285,0.043 2.568,0.131 3.852,0.226 2.565,0.195 5.133,0.446 7.676,0.899 2.544,0.428 5.076,0.985 7.55,1.789 1.227,0.435 2.45,0.89 3.615,1.515 1.142,0.631 2.36,1.29 3.082,2.64 l -0.694,0.315 c -0.579,-0.893 -1.747,-1.518 -2.846,-2.021 -1.123,-0.517 -2.328,-0.884 -3.53,-1.228 -2.417,-0.677 -4.907,-1.135 -7.414,-1.458 -5.009,-0.686 -10.088,-0.952 -15.164,-0.98 -5.071,-0.096 -10.136,0.137 -15.124,0.91 -2.495,0.371 -4.958,0.927 -7.359,1.671 -2.386,0.725 -4.795,1.675 -6.795,3.053 z"
   id="path2050" />

		<path
   style="fill:#e5e5e5"
   d="m 363.59,135.377 v 0 c -0.634,0 -1.149,-0.514 -1.149,-1.149 v -6.321 c 0,-0.634 0.514,-1.149 1.149,-1.149 v 0 c 0.634,0 1.149,0.514 1.149,1.149 v 6.321 c 0,0.635 -0.514,1.149 -1.149,1.149 z"
   id="path2052" />

		<path
   style="fill:#e5e5e5"
   d="m 432.714,135.377 v 0 c -0.634,0 -1.149,-0.514 -1.149,-1.149 v -6.321 c 0,-0.634 0.514,-1.149 1.149,-1.149 v 0 c 0.634,0 1.149,0.514 1.149,1.149 v 6.321 c -10e-4,0.635 -0.515,1.149 -1.149,1.149 z"
   id="path2054" />

		<path
   style="fill:#e5e5e5"
   d="m 363.59,181.014 v 0 c -0.634,0 -1.149,-0.514 -1.149,-1.149 v -6.321 c 0,-0.634 0.514,-1.149 1.149,-1.149 v 0 c 0.634,0 1.149,0.514 1.149,1.149 v 6.321 c 0,0.635 -0.514,1.149 -1.149,1.149 z"
   id="path2056" />

		<path
   style="fill:#e5e5e5"
   d="m 432.714,181.014 v 0 c -0.634,0 -1.149,-0.514 -1.149,-1.149 v -6.321 c 0,-0.634 0.514,-1.149 1.149,-1.149 v 0 c 0.634,0 1.149,0.514 1.149,1.149 v 6.321 c -10e-4,0.635 -0.515,1.149 -1.149,1.149 z"
   id="path2058" />

		<rect
   x="396.42401"
   y="192.968"
   style="fill:#9eba00"
   width="2.5220001"
   height="13.62"
   id="rect2060" />

	</g>
  </g>
</svg>
