<?xml version="1.0" encoding="UTF-8" standalone="no"?>
<!DOCTYPE svg PUBLIC "-//W3C//DTD SVG 1.1//EN" "http://www.w3.org/Graphics/SVG/1.1/DTD/svg11.dtd">
<svg xmlns="http://www.w3.org/2000/svg" version="1.1" viewBox="0 0 98 95">
<g stroke-width="2.00" fill="none" stroke-linecap="butt">
<path stroke="#cdaca9" vector-effect="non-scaling-stroke" d="
  M 26.69 89.35
  C 28.45 91.03 28.44 92.41 31.57 92.43
  C 39.98 92.48 68.67 93.27 70.24 91.73
  Q 82.63 79.62 94.43 67.03
  A 2.13 2.11 66.7 0 0 95.00 65.58
  Q 95.00 48.87 95.00 32.24
  C 95.00 29.25 94.25 29.02 92.39 27.09
  Q 75.96 10.05 67.15 1.92
  Q 66.71 1.51 66.10 1.51
  L 29.53 1.50
  Q 28.98 1.50 28.59 1.88
  Q 15.85 14.23 3.47 26.94
  C 0.95 29.53 2.38 58.43 2.53 63.73
  C 2.63 67.21 24.32 87.10 26.69 89.35"
/>
<path stroke="#d7908a" vector-effect="non-scaling-stroke" d="
  M 29.50 4.96
  L 28.65 5.43
  Q 28.22 5.67 27.88 6.02
  Q 17.08 17.03 6.19 27.95
  C 5.39 28.74 4.73 30.13 4.75 31.07
  Q 5.05 46.16 4.47 61.24
  Q 4.37 63.88 5.76 65.24
  Q 17.97 77.25 30.02 89.43
  Q 30.43 89.84 31.01 89.84
  L 67.58 89.96
  Q 68.15 89.96 68.55 89.55
  L 92.13 66.15
  Q 92.50 65.78 92.50 65.26
  L 92.50 31.03
  Q 92.50 30.48 92.11 30.11
  Q 80.24 18.75 68.80 6.95
  C 67.26 5.36 65.87 4.14 63.44 4.21
  Q 49.21 4.64 35.00 4.46"
/>
<path stroke="#cdaca9" vector-effect="non-scaling-stroke" d="
  M 35.00 4.46
  Q 32.02 2.99 29.50 4.96"
/>
<path stroke="#a65d59" vector-effect="non-scaling-stroke" d="
  M 35.00 4.46
  L 29.50 4.96"
/>
<path stroke="#c3342c" vector-effect="non-scaling-stroke" d="
  M 10.41 66.56
  C 12.39 69.32 14.82 71.13 17.26 73.72
  C 20.26 76.90 22.96 78.76 26.26 83.25
  Q 26.53 83.62 26.67 84.06
  Q 26.97 85.02 27.85 85.01
  Q 28.36 85.00 28.71 85.37
  L 31.55 88.40
  Q 31.93 88.81 32.48 88.72
  C 34.43 88.41 48.70 86.84 49.23 88.18
  Q 49.32 88.41 49.57 88.41
  L 68.05 88.44
  Q 68.52 88.44 68.81 88.07
  Q 71.01 85.16 73.31 82.32
  C 78.45 75.99 86.24 71.91 90.49 65.04
  Q 90.74 64.62 90.74 64.14
  Q 90.65 53.47 91.16 42.81
  C 91.32 39.37 90.74 32.54 88.91 29.72
  C 84.91 23.52 79.10 17.91 73.41 14.34
  C 68.53 11.28 68.17 6.40 61.03 5.72
  C 59.18 5.54 58.34 4.96 56.63 6.23
  Q 56.26 6.50 55.79 6.54
  Q 46.37 7.41 36.96 6.31
  Q 36.47 6.25 36.12 5.89
  C 35.08 4.79 33.50 5.28 32.75 6.46
  Q 32.48 6.89 31.97 6.89
  Q 28.62 6.92 26.93 9.87
  Q 26.64 10.37 26.11 10.59
  Q 25.15 11.00 24.78 11.95
  Q 24.59 12.45 24.17 12.79
  Q 20.01 16.17 16.71 20.35
  C 13.77 24.07 10.07 26.62 6.94 30.12
  Q 6.61 30.50 6.56 30.99
  C 5.31 42.98 6.60 52.30 6.15 62.59
  Q 6.13 63.07 6.37 63.49
  Q 7.46 65.39 9.55 65.96
  Q 10.08 66.11 10.41 66.56"
/>
<path stroke="#ea837c" vector-effect="non-scaling-stroke" d="
  M 16.75 32.82
  C 16.84 41.98 16.68 51.15 16.84 60.31
  Q 16.85 61.31 18.05 61.18
  Q 18.69 61.10 18.69 60.46
  L 18.78 49.24
  A 0.90 0.89 3.9 0 1 19.80 48.36
  C 28.62 49.57 29.52 41.85 27.70 35.52
  C 26.47 31.23 21.07 32.15 17.25 32.29
  Q 16.74 32.31 16.75 32.82"
/>
<path stroke="#ea8f8b" vector-effect="non-scaling-stroke" d="
  M 61.36 49.13
  C 61.80 50.93 63.50 61.26 65.18 61.27
  Q 65.83 61.27 65.70 60.63
  L 63.30 48.81
  A 0.89 0.88 -27.7 0 1 63.56 47.99
  Q 68.10 43.66 66.55 37.55
  C 66.22 36.22 65.99 33.40 64.19 32.79
  Q 61.08 31.74 55.57 32.44
  Q 55.22 32.48 55.22 32.84
  L 55.27 60.22
  Q 55.27 60.68 55.66 60.92
  L 56.20 61.25
  A 0.55 0.55 0.0 0 0 57.03 60.79
  L 57.34 48.93
  Q 57.36 48.13 58.15 48.21
  L 60.59 48.45
  Q 61.22 48.52 61.36 49.13"
/>
<path stroke="#ea8f8b" vector-effect="non-scaling-stroke" d="
  M 76.00 35.17
  C 77.37 34.98 82.32 35.24 82.77 33.71
  A 0.88 0.88 0.0 0 0 81.96 32.58
  L 73.77 32.24
  Q 73.25 32.21 73.25 32.73
  L 73.25 60.35
  Q 73.25 60.95 73.85 60.93
  L 83.17 60.66
  Q 83.80 60.64 83.77 60.01
  C 83.69 58.33 77.28 58.74 76.03 58.70
  Q 75.37 58.69 75.39 58.02
  L 75.70 48.41
  Q 75.73 47.73 76.40 47.73
  L 79.89 47.76
  Q 80.62 47.76 80.52 47.04
  L 80.30 45.60
  Q 80.21 45.00 79.61 45.00
  L 76.17 45.00
  Q 75.60 45.00 75.59 44.43
  L 75.46 35.80
  Q 75.45 35.25 76.00 35.17"
/>
<path stroke="#ea8d84" vector-effect="non-scaling-stroke" d="
  M 44.09 53.90
  C 44.55 55.51 44.99 61.27 47.29 60.94
  A 0.57 0.56 -9.8 0 0 47.77 60.26
  L 42.08 33.32
  A 1.40 1.40 0.0 0 0 39.34 33.33
  L 33.85 60.60
  Q 33.68 61.42 34.51 61.29
  C 36.58 60.95 37.11 55.85 37.48 54.13
  Q 37.60 53.54 38.21 53.53
  L 43.46 53.44
  Q 43.96 53.43 44.09 53.90"
/>
<path stroke="#de8881" vector-effect="non-scaling-stroke" d="
  M 25.78 43.94
  Q 27.24 39.43 25.22 35.10
  Q 24.99 34.61 24.45 34.56
  L 19.73 34.20
  A 0.91 0.90 2.3 0 0 18.75 35.10
  L 18.76 45.07
  A 0.62 0.61 0.0 0 0 19.38 45.68
  L 23.47 45.64
  A 2.46 2.44 -81.1 0 0 25.78 43.94"
/>
<path stroke="#de9490" vector-effect="non-scaling-stroke" d="
  M 64.96 42.24
  C 65.72 36.26 64.30 33.47 57.72 34.34
  Q 57.10 34.42 57.11 35.03
  L 57.26 45.24
  Q 57.27 45.92 57.95 45.93
  C 61.03 45.97 64.44 46.30 64.96 42.24"
/>
<path stroke="#d79a93" vector-effect="non-scaling-stroke" d="
  M 38.20 50.16
  A 0.56 0.56 0.0 0 0 38.77 50.83
  L 42.80 50.70
  A 0.56 0.56 0.0 0 0 43.32 49.99
  L 41.01 41.33
  A 0.56 0.56 0.0 0 0 39.92 41.37
  L 38.20 50.16"
/>
</g>
<path fill="#9c7878" d="
  M 27.81 0.00
  L 67.81 0.00
  L 73.07 5.40
  Q 73.41 5.76 73.85 6.00
  Q 75.17 6.75 76.52 8.73
  Q 77.74 10.53 82.88 15.06
  C 88.09 19.65 92.24 24.07 96.67 28.91
  Q 97.00 29.27 97.00 29.75
  L 97.00 66.98
  Q 97.00 67.39 96.71 67.68
  L 70.75 93.60
  Q 70.36 94.00 69.79 94.00
  Q 49.64 94.00 29.49 94.01
  C 27.38 94.01 4.42 70.00 1.16 66.73
  Q 0.82 66.39 0.71 65.91
  Q 0.29 64.04 0.28 63.50
  Q 0.08 45.64 0.56 27.97
  A 1.67 1.65 68.4 0 1 1.03 26.86
  L 27.81 0.00
  Z
  M 26.69 89.35
  C 28.45 91.03 28.44 92.41 31.57 92.43
  C 39.98 92.48 68.67 93.27 70.24 91.73
  Q 82.63 79.62 94.43 67.03
  A 2.13 2.11 66.7 0 0 95.00 65.58
  Q 95.00 48.87 95.00 32.24
  C 95.00 29.25 94.25 29.02 92.39 27.09
  Q 75.96 10.05 67.15 1.92
  Q 66.71 1.51 66.10 1.51
  L 29.53 1.50
  Q 28.98 1.50 28.59 1.88
  Q 15.85 14.23 3.47 26.94
  C 0.95 29.53 2.38 58.43 2.53 63.73
  C 2.63 67.21 24.32 87.10 26.69 89.35
  Z"
/>
<path fill="#fedfda" d="
  M 26.69 89.35
  C 24.32 87.10 2.63 67.21 2.53 63.73
  C 2.38 58.43 0.95 29.53 3.47 26.94
  Q 15.85 14.23 28.59 1.88
  Q 28.98 1.50 29.53 1.50
  L 66.10 1.51
  Q 66.71 1.51 67.15 1.92
  Q 75.96 10.05 92.39 27.09
  C 94.25 29.02 95.00 29.25 95.00 32.24
  Q 95.00 48.87 95.00 65.58
  A 2.13 2.11 66.7 0 1 94.43 67.03
  Q 82.63 79.62 70.24 91.73
  C 68.67 93.27 39.98 92.48 31.57 92.43
  C 28.44 92.41 28.45 91.03 26.69 89.35
  Z
  M 29.50 4.96
  L 28.65 5.43
  Q 28.22 5.67 27.88 6.02
  Q 17.08 17.03 6.19 27.95
  C 5.39 28.74 4.73 30.13 4.75 31.07
  Q 5.05 46.16 4.47 61.24
  Q 4.37 63.88 5.76 65.24
  Q 17.97 77.25 30.02 89.43
  Q 30.43 89.84 31.01 89.84
  L 67.58 89.96
  Q 68.15 89.96 68.55 89.55
  L 92.13 66.15
  Q 92.50 65.78 92.50 65.26
  L 92.50 31.03
  Q 92.50 30.48 92.11 30.11
  Q 80.24 18.75 68.80 6.95
  C 67.26 5.36 65.87 4.14 63.44 4.21
  Q 49.21 4.64 35.00 4.46
  Q 32.02 2.99 29.50 4.96
  Z"
/>
<path fill="#9c7878" d="
  M 35.00 4.46
  L 29.50 4.96
  Q 32.02 2.99 35.00 4.46
  Z"
/>
<path fill="#b0413a" d="
  M 29.50 4.96
  L 35.00 4.46
  Q 49.21 4.64 63.44 4.21
  C 65.87 4.14 67.26 5.36 68.80 6.95
  Q 80.24 18.75 92.11 30.11
  Q 92.50 30.48 92.50 31.03
  L 92.50 65.26
  Q 92.50 65.78 92.13 66.15
  L 68.55 89.55
  Q 68.15 89.96 67.58 89.96
  L 31.01 89.84
  Q 30.43 89.84 30.02 89.43
  Q 17.97 77.25 5.76 65.24
  Q 4.37 63.88 4.47 61.24
  Q 5.05 46.16 4.75 31.07
  C 4.73 30.13 5.39 28.74 6.19 27.95
  Q 17.08 17.03 27.88 6.02
  Q 28.22 5.67 28.65 5.43
  L 29.50 4.96
  Z
  M 10.41 66.56
  C 12.39 69.32 14.82 71.13 17.26 73.72
  C 20.26 76.90 22.96 78.76 26.26 83.25
  Q 26.53 83.62 26.67 84.06
  Q 26.97 85.02 27.85 85.01
  Q 28.36 85.00 28.71 85.37
  L 31.55 88.40
  Q 31.93 88.81 32.48 88.72
  C 34.43 88.41 48.70 86.84 49.23 88.18
  Q 49.32 88.41 49.57 88.41
  L 68.05 88.44
  Q 68.52 88.44 68.81 88.07
  Q 71.01 85.16 73.31 82.32
  C 78.45 75.99 86.24 71.91 90.49 65.04
  Q 90.74 64.62 90.74 64.14
  Q 90.65 53.47 91.16 42.81
  C 91.32 39.37 90.74 32.54 88.91 29.72
  C 84.91 23.52 79.10 17.91 73.41 14.34
  C 68.53 11.28 68.17 6.40 61.03 5.72
  C 59.18 5.54 58.34 4.96 56.63 6.23
  Q 56.26 6.50 55.79 6.54
  Q 46.37 7.41 36.96 6.31
  Q 36.47 6.25 36.12 5.89
  C 35.08 4.79 33.50 5.28 32.75 6.46
  Q 32.48 6.89 31.97 6.89
  Q 28.62 6.92 26.93 9.87
  Q 26.64 10.37 26.11 10.59
  Q 25.15 11.00 24.78 11.95
  Q 24.59 12.45 24.17 12.79
  Q 20.01 16.17 16.71 20.35
  C 13.77 24.07 10.07 26.62 6.94 30.12
  Q 6.61 30.50 6.56 30.99
  C 5.31 42.98 6.60 52.30 6.15 62.59
  Q 6.13 63.07 6.37 63.49
  Q 7.46 65.39 9.55 65.96
  Q 10.08 66.11 10.41 66.56
  Z"
/>
<path fill="#d6271d" d="
  M 9.55 65.96
  Q 7.46 65.39 6.37 63.49
  Q 6.13 63.07 6.15 62.59
  C 6.60 52.30 5.31 42.98 6.56 30.99
  Q 6.61 30.50 6.94 30.12
  C 10.07 26.62 13.77 24.07 16.71 20.35
  Q 20.01 16.17 24.17 12.79
  Q 24.59 12.45 24.78 11.95
  Q 25.15 11.00 26.11 10.59
  Q 26.64 10.37 26.93 9.87
  Q 28.62 6.92 31.97 6.89
  Q 32.48 6.89 32.75 6.46
  C 33.50 5.28 35.08 4.79 36.12 5.89
  Q 36.47 6.25 36.96 6.31
  Q 46.37 7.41 55.79 6.54
  Q 56.26 6.50 56.63 6.23
  C 58.34 4.96 59.18 5.54 61.03 5.72
  C 68.17 6.40 68.53 11.28 73.41 14.34
  C 79.10 17.91 84.91 23.52 88.91 29.72
  C 90.74 32.54 91.32 39.37 91.16 42.81
  Q 90.65 53.47 90.74 64.14
  Q 90.74 64.62 90.49 65.04
  C 86.24 71.91 78.45 75.99 73.31 82.32
  Q 71.01 85.16 68.81 88.07
  Q 68.52 88.44 68.05 88.44
  L 49.57 88.41
  Q 49.32 88.41 49.23 88.18
  C 48.70 86.84 34.43 88.41 32.48 88.72
  Q 31.93 88.81 31.55 88.40
  L 28.71 85.37
  Q 28.36 85.00 27.85 85.01
  Q 26.97 85.02 26.67 84.06
  Q 26.53 83.62 26.26 83.25
  C 22.96 78.76 20.26 76.90 17.26 73.72
  C 14.82 71.13 12.39 69.32 10.41 66.56
  Q 10.08 66.11 9.55 65.96
  Z
  M 16.75 32.82
  C 16.84 41.98 16.68 51.15 16.84 60.31
  Q 16.85 61.31 18.05 61.18
  Q 18.69 61.10 18.69 60.46
  L 18.78 49.24
  A 0.90 0.89 3.9 0 1 19.80 48.36
  C 28.62 49.57 29.52 41.85 27.70 35.52
  C 26.47 31.23 21.07 32.15 17.25 32.29
  Q 16.74 32.31 16.75 32.82
  Z
  M 61.36 49.13
  C 61.80 50.93 63.50 61.26 65.18 61.27
  Q 65.83 61.27 65.70 60.63
  L 63.30 48.81
  A 0.89 0.88 -27.7 0 1 63.56 47.99
  Q 68.10 43.66 66.55 37.55
  C 66.22 36.22 65.99 33.40 64.19 32.79
  Q 61.08 31.74 55.57 32.44
  Q 55.22 32.48 55.22 32.84
  L 55.27 60.22
  Q 55.27 60.68 55.66 60.92
  L 56.20 61.25
  A 0.55 0.55 0.0 0 0 57.03 60.79
  L 57.34 48.93
  Q 57.36 48.13 58.15 48.21
  L 60.59 48.45
  Q 61.22 48.52 61.36 49.13
  Z
  M 76.00 35.17
  C 77.37 34.98 82.32 35.24 82.77 33.71
  A 0.88 0.88 0.0 0 0 81.96 32.58
  L 73.77 32.24
  Q 73.25 32.21 73.25 32.73
  L 73.25 60.35
  Q 73.25 60.95 73.85 60.93
  L 83.17 60.66
  Q 83.80 60.64 83.77 60.01
  C 83.69 58.33 77.28 58.74 76.03 58.70
  Q 75.37 58.69 75.39 58.02
  L 75.70 48.41
  Q 75.73 47.73 76.40 47.73
  L 79.89 47.76
  Q 80.62 47.76 80.52 47.04
  L 80.30 45.60
  Q 80.21 45.00 79.61 45.00
  L 76.17 45.00
  Q 75.60 45.00 75.59 44.43
  L 75.46 35.80
  Q 75.45 35.25 76.00 35.17
  Z
  M 44.09 53.90
  C 44.55 55.51 44.99 61.27 47.29 60.94
  A 0.57 0.56 -9.8 0 0 47.77 60.26
  L 42.08 33.32
  A 1.40 1.40 0.0 0 0 39.34 33.33
  L 33.85 60.60
  Q 33.68 61.42 34.51 61.29
  C 36.58 60.95 37.11 55.85 37.48 54.13
  Q 37.60 53.54 38.21 53.53
  L 43.46 53.44
  Q 43.96 53.43 44.09 53.90
  Z"
/>
<path fill="#fedfda" d="
  M 16.84 60.31
  C 16.68 51.15 16.84 41.98 16.75 32.82
  Q 16.74 32.31 17.25 32.29
  C 21.07 32.15 26.47 31.23 27.70 35.52
  C 29.52 41.85 28.62 49.57 19.80 48.36
  A 0.90 0.89 3.9 0 0 18.78 49.24
  L 18.69 60.46
  Q 18.69 61.10 18.05 61.18
  Q 16.85 61.31 16.84 60.31
  Z
  M 25.78 43.94
  Q 27.24 39.43 25.22 35.10
  Q 24.99 34.61 24.45 34.56
  L 19.73 34.20
  A 0.91 0.90 2.3 0 0 18.75 35.10
  L 18.76 45.07
  A 0.62 0.61 0.0 0 0 19.38 45.68
  L 23.47 45.64
  A 2.46 2.44 -81.1 0 0 25.78 43.94
  Z"
/>
<path fill="#fdf6f8" d="
  M 60.59 48.45
  L 58.15 48.21
  Q 57.36 48.13 57.34 48.93
  L 57.03 60.79
  A 0.55 0.55 0.0 0 1 56.20 61.25
  L 55.66 60.92
  Q 55.27 60.68 55.27 60.22
  L 55.22 32.84
  Q 55.22 32.48 55.57 32.44
  Q 61.08 31.74 64.19 32.79
  C 65.99 33.40 66.22 36.22 66.55 37.55
  Q 68.10 43.66 63.56 47.99
  A 0.89 0.88 -27.7 0 0 63.30 48.81
  L 65.70 60.63
  Q 65.83 61.27 65.18 61.27
  C 63.50 61.26 61.80 50.93 61.36 49.13
  Q 61.22 48.52 60.59 48.45
  Z
  M 64.96 42.24
  C 65.72 36.26 64.30 33.47 57.72 34.34
  Q 57.10 34.42 57.11 35.03
  L 57.26 45.24
  Q 57.27 45.92 57.95 45.93
  C 61.03 45.97 64.44 46.30 64.96 42.24
  Z"
/>
<path fill="#fdf6f8" d="
  M 75.46 35.80
  L 75.59 44.43
  Q 75.60 45.00 76.17 45.00
  L 79.61 45.00
  Q 80.21 45.00 80.30 45.60
  L 80.52 47.04
  Q 80.62 47.76 79.89 47.76
  L 76.40 47.73
  Q 75.73 47.73 75.70 48.41
  L 75.39 58.02
  Q 75.37 58.69 76.03 58.70
  C 77.28 58.74 83.69 58.33 83.77 60.01
  Q 83.80 60.64 83.17 60.66
  L 73.85 60.93
  Q 73.25 60.95 73.25 60.35
  L 73.25 32.73
  Q 73.25 32.21 73.77 32.24
  L 81.96 32.58
  A 0.88 0.88 0.0 0 1 82.77 33.71
  C 82.32 35.24 77.37 34.98 76.00 35.17
  Q 75.45 35.25 75.46 35.80
  Z"
/>
<path fill="#fef3eb" d="
  M 43.46 53.44
  L 38.21 53.53
  Q 37.60 53.54 37.48 54.13
  C 37.11 55.85 36.58 60.95 34.51 61.29
  Q 33.68 61.42 33.85 60.60
  L 39.34 33.33
  A 1.40 1.40 0.0 0 1 42.08 33.32
  L 47.77 60.26
  A 0.57 0.56 -9.8 0 1 47.29 60.94
  C 44.99 61.27 44.55 55.51 44.09 53.90
  Q 43.96 53.43 43.46 53.44
  Z
  M 38.20 50.16
  A 0.56 0.56 0.0 0 0 38.77 50.83
  L 42.80 50.70
  A 0.56 0.56 0.0 0 0 43.32 49.99
  L 41.01 41.33
  A 0.56 0.56 0.0 0 0 39.92 41.37
  L 38.20 50.16
  Z"
/>
<path fill="#be3128" d="
  M 25.78 43.94
  A 2.46 2.44 -81.1 0 1 23.47 45.64
  L 19.38 45.68
  A 0.62 0.61 -0.0 0 1 18.76 45.07
  L 18.75 35.10
  A 0.91 0.90 2.3 0 1 19.73 34.20
  L 24.45 34.56
  Q 24.99 34.61 25.22 35.10
  Q 27.24 39.43 25.78 43.94
  Z"
/>
<path fill="#be3128" d="
  M 57.72 34.34
  C 64.30 33.47 65.72 36.26 64.96 42.24
  C 64.44 46.30 61.03 45.97 57.95 45.93
  Q 57.27 45.92 57.26 45.24
  L 57.11 35.03
  Q 57.10 34.42 57.72 34.34
  Z"
/>
<path fill="#b0413a" d="
  M 38.20 50.16
  L 39.92 41.37
  A 0.56 0.56 0.0 0 1 41.01 41.33
  L 43.32 49.99
  A 0.56 0.56 0.0 0 1 42.80 50.70
  L 38.77 50.83
  A 0.56 0.56 0.0 0 1 38.20 50.16
  Z"
/>
</svg>
