<?xml version="1.0" encoding="UTF-8" standalone="no"?>
<svg
   version="1.1"
   viewBox="0.00 0.00 122.00 112.00"
   id="svg2390"
   sodipodi:docname="redasim.svg"
   inkscape:version="1.2.1 (9c6d41e410, 2022-07-14)"
   xmlns:inkscape="http://www.inkscape.org/namespaces/inkscape"
   xmlns:sodipodi="http://sodipodi.sourceforge.net/DTD/sodipodi-0.dtd"
   xmlns="http://www.w3.org/2000/svg"
   xmlns:svg="http://www.w3.org/2000/svg">
  <defs
     id="defs2394" />
  <sodipodi:namedview
     id="namedview2392"
     pagecolor="#ffffff"
     bordercolor="#666666"
     borderopacity="1.0"
     inkscape:showpageshadow="2"
     inkscape:pageopacity="0.0"
     inkscape:pagecheckerboard="0"
     inkscape:deskcolor="#d1d1d1"
     showgrid="false"
     inkscape:zoom="4.9196429"
     inkscape:cx="94.519056"
     inkscape:cy="56.101633"
     inkscape:window-width="1366"
     inkscape:window-height="705"
     inkscape:window-x="-8"
     inkscape:window-y="-8"
     inkscape:window-maximized="1"
     inkscape:current-layer="svg2390" />
  <path
     fill="#e8d667"
     d="   M 16.41 66.41   Q 15.67 65.76 15.21 64.87   A 1.89 1.84 3.6 0 0 14.54 64.13   C 7.16 59.37 8.29 52.44 13.94 46.98   C 23.57 37.69 32.84 27.60 42.66 18.36   Q 47.77 13.56 52.41 8.29   C 53.19 7.40 54.70 6.51 55.31 4.90   A 1.23 1.21 89.6 0 1 55.99 4.20   Q 63.87 0.86 70.20 7.07   Q 79.99 16.65 87.38 24.38   C 89.67 26.78 94.42 30.35 97.21 34.08   C 101.10 39.27 105.71 43.63 110.30 48.19   Q 110.65 48.54 110.79 49.02   C 110.83 49.16 111.02 49.60 111.10 49.68   C 118.19 56.24 110.16 63.94 105.31 68.80   Q 96.02 78.11 86.69 87.36   C 85.66 88.38 84.48 90.27 82.73 91.11   Q 81.08 91.90 80.36 92.62   Q 72.78 100.16 70.73 102.70   C 66.61 107.81 60.95 109.91 55.50 105.59   C 48.13 99.76 42.42 92.12 35.24 85.93   C 32.95 83.96 30.74 81.22 28.29 79.00   Q 27.06 77.90 25.76 76.05   C 23.88 73.37 20.97 72.31 19.19 69.86   Q 18.17 68.46 17.08 67.11   A 6.99 6.24 22.9 0 0 16.41 66.41   Z   M 66.6247 8.6070   A 7.62 7.62 0.0 0 0 55.8484 8.5882   L 14.2971 49.9946   A 7.62 7.62 0.0 0 0 14.2783 60.7709   L 55.7553 102.3930   A 7.62 7.62 0.0 0 0 66.5316 102.4118   L 108.0829 61.0054   A 7.62 7.62 0.0 0 0 108.1017 50.2291   L 66.6247 8.6070   Z"
     id="path2360" />
  <path
     fill="#130702"
     d="   M 108.1017 50.2291   A 7.62 7.62 0.0 0 1 108.0829 61.0054   L 66.5316 102.4118   A 7.62 7.62 0.0 0 1 55.7553 102.3930   L 14.2783 60.7709   A 7.62 7.62 0.0 0 1 14.2971 49.9946   L 55.8484 8.5882   A 7.62 7.62 0.0 0 1 66.6247 8.6070   L 108.1017 50.2291   Z   M 64.3420 11.4441   A 4.46 4.46 0.0 0 0 58.0346 11.4441   L 16.9941 52.4846   A 4.46 4.46 0.0 0 0 16.9941 58.7920   L 57.9780 99.7759   A 4.46 4.46 0.0 0 0 64.2854 99.7759   L 105.3259 58.7354   A 4.46 4.46 0.0 0 0 105.3259 52.4280   L 64.3420 11.4441   Z"
     id="path2374" />
  <path
     fill="#eed543"
     d="   M 105.3259 52.4280   A 4.46 4.46 0.0 0 1 105.3259 58.7354   L 64.2854 99.7759   A 4.46 4.46 0.0 0 1 57.9780 99.7759   L 16.9941 58.7920   A 4.46 4.46 0.0 0 1 16.9941 52.4846   L 58.0346 11.4441   A 4.46 4.46 0.0 0 1 64.3420 11.4441   L 105.3259 52.4280   Z   M 46.01 83.49   Q 52.23 89.53 57.90 96.10   Q 59.14 97.53 62.01 98.27   Q 62.55 98.41 62.91 97.99   Q 70.28 89.56 78.76 82.26   A 0.88 0.88 0.0 0 0 78.32 80.73   C 76.17 80.38 72.02 81.91 71.23 79.29   Q 71.09 78.83 71.29 78.39   C 72.08 76.63 71.55 74.86 71.59 73.51   Q 71.77 68.04 71.36 59.07   C 71.27 57.11 70.58 57.11 69.98 55.81   Q 67.93 51.40 66.65 46.70   Q 66.52 46.20 66.15 45.84   C 64.82 44.54 66.16 39.89 66.52 38.20   Q 66.53 38.15 66.49 38.12   Q 66.40 38.02 66.30 37.92   Q 66.02 37.64 66.01 37.25   C 65.95 33.93 64.35 21.35 70.72 23.04   A 0.45 0.45 0.0 0 0 71.18 22.31   L 62.89 12.82   Q 62.49 12.36 61.87 12.36   Q 59.96 12.37 58.95 13.73   Q 55.23 18.77 51.72 21.13   Q 51.52 21.27 51.50 21.51   Q 51.48 21.71 51.30 21.81   A 0.52 0.37 14.1 0 0 51.88 22.49   C 56.99 21.22 56.50 33.34 56.53 36.28   C 56.57 39.96 55.27 43.99 55.15 48.05   C 55.08 50.61 54.12 52.53 52.98 54.66   C 49.66 60.92 51.33 70.18 51.48 77.12   C 51.56 81.19 47.55 80.48 45.04 81.64   Q 44.63 81.83 44.90 82.19   Q 45.44 82.93 46.01 83.49   Z   M 42.11 77.99   Q 41.95 78.13 42.02 78.41   A 0.43 0.42 83.0 0 0 42.43 78.74   L 48.20 78.75   Q 48.81 78.76 48.77 78.14   Q 48.03 68.21 48.89 58.31   C 49.18 54.95 51.05 51.81 52.48 48.76   C 55.36 42.61 54.48 31.97 54.04 25.26   Q 54.01 24.71 53.45 24.72   L 48.08 24.82   A 0.59 0.58 -0.5 0 0 47.50 25.40   Q 47.50 33.26 47.49 41.14   C 47.48 47.04 42.28 51.17 42.27 57.43   Q 42.27 67.62 42.19 77.81   Q 42.19 77.92 42.11 77.99   Z   M 80.67 57.30   Q 80.82 55.65 80.09 54.10   C 78.14 49.91 75.48 45.16 75.49 40.44   Q 75.50 32.90 75.50 25.30   Q 75.50 24.73 74.93 24.73   L 69.05 24.78   Q 68.45 24.79 68.46 25.39   Q 68.54 33.90 68.51 42.45   C 68.48 48.93 73.53 53.13 73.50 59.11   Q 73.45 68.66 73.52 78.25   Q 73.53 78.81 74.10 78.80   L 80.17 78.63   Q 80.75 78.62 80.73 78.04   C 80.46 71.27 80.09 64.03 80.67 57.30   Z   M 24.05 62.74   C 27.56 66.41 32.44 69.45 35.13 73.73   Q 36.49 75.92 39.03 76.65   Q 39.54 76.79 39.91 76.42   Q 42.00 74.34 40.64 71.80   C 39.48 69.63 39.43 66.89 39.84 64.42   Q 40.44 60.83 39.57 57.29   A 2.36 2.21 -49.4 0 1 39.53 56.39   L 39.86 54.18   A 2.51 2.42 -28.0 0 1 40.12 53.38   C 41.82 50.11 42.84 46.03 45.44 43.44   Q 45.78 43.10 45.75 42.63   C 45.54 38.91 46.49 33.11 45.33 29.81   A 1.77 1.77 0.0 0 0 42.34 29.22   C 40.53 31.25 39.58 33.43 37.43 35.15   C 33.28 38.46 30.00 43.08 26.64 46.37   C 23.90 49.05 19.48 53.15 18.07 56.67   Q 17.88 57.16 18.24 57.53   C 20.08 59.43 22.35 60.98 24.05 62.74   Z   M 84.81 35.46   C 82.79 33.72 81.35 31.57 79.72 29.48   A 1.18 1.18 0.0 0 0 77.65 30.53   C 78.86 34.86 76.79 40.12 78.52 43.78   Q 80.16 47.23 81.62 50.79   Q 82.58 53.14 82.51 55.79   Q 82.24 65.98 82.23 75.68   A 1.32 1.31 -24.8 0 0 84.55 76.53   Q 92.72 66.98 101.77 59.02   Q 102.78 58.14 103.50 54.74   A 1.06 1.03 31.1 0 0 103.27 53.86   Q 94.69 43.96 84.81 35.46   Z"
     id="path2378" />
  <path
     fill="#fdda07"
     d="   M 46.01 83.49   Q 45.44 82.93 44.90 82.19   Q 44.63 81.83 45.04 81.64   C 47.55 80.48 51.56 81.19 51.48 77.12   C 51.33 70.18 49.66 60.92 52.98 54.66   C 54.12 52.53 55.08 50.61 55.15 48.05   C 55.27 43.99 56.57 39.96 56.53 36.28   C 56.50 33.34 56.99 21.22 51.88 22.49   A 0.52 0.37 14.1 0 1 51.30 21.81   Q 51.48 21.71 51.50 21.51   Q 51.52 21.27 51.72 21.13   Q 55.23 18.77 58.95 13.73   Q 59.96 12.37 61.87 12.36   Q 62.49 12.36 62.89 12.82   L 71.18 22.31   A 0.45 0.45 0.0 0 1 70.72 23.04   C 64.35 21.35 65.95 33.93 66.01 37.25   Q 66.02 37.64 66.30 37.92   Q 66.40 38.02 66.49 38.12   Q 66.53 38.15 66.52 38.20   C 66.16 39.89 64.82 44.54 66.15 45.84   Q 66.52 46.20 66.65 46.70   Q 67.93 51.40 69.98 55.81   C 70.58 57.11 71.27 57.11 71.36 59.07   Q 71.77 68.04 71.59 73.51   C 71.55 74.86 72.08 76.63 71.29 78.39   Q 71.09 78.83 71.23 79.29   C 72.02 81.91 76.17 80.38 78.32 80.73   A 0.88 0.88 0.0 0 1 78.76 82.26   Q 70.28 89.56 62.91 97.99   Q 62.55 98.41 62.01 98.27   Q 59.14 97.53 57.90 96.10   Q 52.23 89.53 46.01 83.49   Z"
     id="path2380" />
  <path
     fill="#090303"
     d="   M 42.19 77.81   Q 42.27 67.62 42.27 57.43   C 42.28 51.17 47.48 47.04 47.49 41.14   Q 47.50 33.26 47.50 25.40   A 0.59 0.58 -0.5 0 1 48.08 24.82   L 53.45 24.72   Q 54.01 24.71 54.04 25.26   C 54.48 31.97 55.36 42.61 52.48 48.76   C 51.05 51.81 49.18 54.95 48.89 58.31   Q 48.03 68.21 48.77 78.14   Q 48.81 78.76 48.20 78.75   L 42.43 78.74   A 0.43 0.42 83.0 0 1 42.02 78.41   Q 41.95 78.13 42.11 77.99   Q 42.19 77.92 42.19 77.81   Z"
     id="path2382" />
  <path
     fill="#090303"
     d="   M 80.67 57.30   C 80.09 64.03 80.46 71.27 80.73 78.04   Q 80.75 78.62 80.17 78.63   L 74.10 78.80   Q 73.53 78.81 73.52 78.25   Q 73.45 68.66 73.50 59.11   C 73.53 53.13 68.48 48.93 68.51 42.45   Q 68.54 33.90 68.46 25.39   Q 68.45 24.79 69.05 24.78   L 74.93 24.73   Q 75.50 24.73 75.50 25.30   Q 75.50 32.90 75.49 40.44   C 75.48 45.16 78.14 49.91 80.09 54.10   Q 80.82 55.65 80.67 57.30   Z"
     id="path2384" />
  <path
     fill="#fdda07"
     d="   M 35.13 73.73   C 32.44 69.45 27.56 66.41 24.05 62.74   C 22.35 60.98 20.08 59.43 18.24 57.53   Q 17.88 57.16 18.07 56.67   C 19.48 53.15 23.90 49.05 26.64 46.37   C 30.00 43.08 33.28 38.46 37.43 35.15   C 39.58 33.43 40.53 31.25 42.34 29.22   A 1.77 1.77 0.0 0 1 45.33 29.81   C 46.49 33.11 45.54 38.91 45.75 42.63   Q 45.78 43.10 45.44 43.44   C 42.84 46.03 41.82 50.11 40.12 53.38   A 2.51 2.42 -28.0 0 0 39.86 54.18   L 39.53 56.39   A 2.36 2.21 -49.4 0 0 39.57 57.29   Q 40.44 60.83 39.84 64.42   C 39.43 66.89 39.48 69.63 40.64 71.80   Q 42.00 74.34 39.91 76.42   Q 39.54 76.79 39.03 76.65   Q 36.49 75.92 35.13 73.73   Z"
     id="path2386" />
  <path
     fill="#fdda07"
     d="   M 84.81 35.46   Q 94.69 43.96 103.27 53.86   A 1.06 1.03 31.1 0 1 103.50 54.74   Q 102.78 58.14 101.77 59.02   Q 92.72 66.98 84.55 76.53   A 1.32 1.31 -24.8 0 1 82.23 75.68   Q 82.24 65.98 82.51 55.79   Q 82.58 53.14 81.62 50.79   Q 80.16 47.23 78.52 43.78   C 76.79 40.12 78.86 34.86 77.65 30.53   A 1.18 1.18 0.0 0 1 79.72 29.48   C 81.35 31.57 82.79 33.72 84.81 35.46   Z"
     id="path2388" />
</svg>
