<?xml version="1.0" encoding="UTF-8" standalone="no"?>
<svg
   xmlns:dc="http://purl.org/dc/elements/1.1/"
   xmlns:cc="http://creativecommons.org/ns#"
   xmlns:rdf="http://www.w3.org/1999/02/22-rdf-syntax-ns#"
   xmlns:svg="http://www.w3.org/2000/svg"
   xmlns="http://www.w3.org/2000/svg"
   xmlns:sodipodi="http://sodipodi.sourceforge.net/DTD/sodipodi-0.dtd"
   xmlns:inkscape="http://www.inkscape.org/namespaces/inkscape"
   version="1.1"
   viewBox="0.00 0.00 86.00 79.00"
   id="svg6880"
   sodipodi:docname="reduder.svg"
   inkscape:version="0.92.2 (5c3e80d, 2017-08-06)">
  <metadata
     id="metadata6886">
    <rdf:RDF>
      <cc:Work
         rdf:about="">
        <dc:format>image/svg+xml</dc:format>
        <dc:type
           rdf:resource="http://purl.org/dc/dcmitype/StillImage" />
        <dc:title></dc:title>
      </cc:Work>
    </rdf:RDF>
  </metadata>
  <defs
     id="defs6884" />
  <sodipodi:namedview
     pagecolor="#ffffff"
     bordercolor="#666666"
     borderopacity="1"
     objecttolerance="10"
     gridtolerance="10"
     guidetolerance="10"
     inkscape:pageopacity="0"
     inkscape:pageshadow="2"
     inkscape:window-width="1600"
     inkscape:window-height="837"
     id="namedview6882"
     showgrid="false"
     inkscape:zoom="2.9873418"
     inkscape:cx="-18.760593"
     inkscape:cy="39.5"
     inkscape:window-x="-8"
     inkscape:window-y="-8"
     inkscape:window-maximized="1"
     inkscape:current-layer="svg6880" />
  <path
     d="m 8.4902,34.3184 a 7.95,7.95 0 0 0 0.0197,11.243 l 30.4444,30.3384 a 7.95,7.95 0 0 0 11.243,-0.0196 L 80.5498,45.4216 A 7.95,7.95 0 0 0 80.5301,34.1786 L 50.0857,3.8402 A 7.95,7.95 0 0 0 38.8427,3.8598 Z M 40.4529,5.7592 a 5.7,5.7 0 0 1 8.061,-0.0141 L 78.6608,35.787 a 5.7,5.7 0 0 1 0.0141,8.061 L 48.6471,73.9808 a 5.7,5.7 0 0 1 -8.061,0.0141 L 10.4392,43.953 a 5.7,5.7 0 0 1 -0.0141,-8.061 z"
     id="path6854"
     inkscape:connector-curvature="0"
     style="fill:#ecdc6d" />
  <path
     d="m 10.4251,35.892 a 5.7,5.7 0 0 0 0.0141,8.061 l 30.1469,30.0419 a 5.7,5.7 0 0 0 8.061,-0.0141 L 78.6749,43.848 A 5.7,5.7 0 0 0 78.6608,35.787 L 48.5139,5.7451 a 5.7,5.7 0 0 0 -8.061,0.0141 z M 42.1593,7.9003 A 3.36,3.36 0 0 1 46.911,7.892 l 29.7786,29.6748 a 3.36,3.36 0 0 1 0.0083,4.7518 L 46.9807,72.1397 A 3.36,3.36 0 0 1 42.229,72.148 L 12.4504,42.4732 a 3.36,3.36 0 0 1 -0.0083,-4.7518 z"
     id="path6866"
     inkscape:connector-curvature="0"
     style="fill:#0a0302" />
  <path
     d="m 12.4421,37.7214 a 3.36,3.36 0 0 0 0.0083,4.7518 L 42.229,72.148 a 3.36,3.36 0 0 0 4.7517,-0.0083 L 76.6979,42.3186 A 3.36,3.36 0 0 0 76.6896,37.5668 L 46.911,7.892 A 3.36,3.36 0 0 0 42.1593,7.9003 Z M 48.68,20.18 q -0.22,5.47 -0.31,10.32 c -0.05,2.67 7.8,7.81 9.97,9.71 q 0.45,0.39 0.46,0.99 l 0.28,15.86 q 0.03,1.44 -1.41,1.44 h -2.54 q -0.65,0 -0.67,-0.66 L 54.22,45.25 A 2.33,2.31 19.4 0 0 53.38,43.51 L 43.89,35.53 A 1.04,1.03 20.1 0 1 43.52,34.74 L 43.51,21.99 q -0.21,0.56 -0.94,0.92 a 0.81,0.81 0 0 0 -0.46,0.7 c -0.21,4.24 -1.4,8.75 0.1,12.2 1.04,2.39 4.57,3.89 6.39,6.42 q 0.29,0.41 0.76,0.59 c 5.07,1.91 3.56,10.4 3.15,16.73 q -0.03,0.52 0.41,0.78 l 0.95,0.56 q 0.55,0.32 0.12,0.78 l -8.07,8.61 q -1.28,1.36 -2.58,0.01 l -8.53,-8.82 a 0.88,0.88 0 0 1 -0.2,-0.83 q 0.44,-1.58 2.03,-1.89 0.48,-0.1 0.51,-0.59 c 0.63,-12.35 0.1,-19.71 -0.12,-27.4 -0.07,-2.7 1.69,-4.59 -1.24,-7.24 v 34.4 a 0.54,0.53 88.9 0 1 -0.51,0.54 l -4.37,0.14 q -0.41,0.02 -0.42,-0.4 -0.36,-18.22 -0.15,-36.45 0,-0.53 0.46,-0.79 1.93,-1.12 5.04,-0.18 c -1.24,-1.99 7.15,-13.09 10.83,-9.92 4.41,3.79 7.89,8.02 12.42,12.03 3.61,3.2 6.48,7.19 9.94,10.13 q 2.96,2.52 5.74,4.99 a 2.14,2.14 0 0 1 0.11,3.1 L 64.13,52.14 q -0.42,0.43 -0.37,1.02 c 0.16,2.01 -2.68,1.6 -3.56,0.58 Q 59.96,53.45 59.97,53.07 L 60.25,40.88 A 1.73,1.67 28.8 0 0 59.92,39.82 Q 57.2,36.12 52.6,33.18 51.32,32.36 50.51,30.53 a 1.68,1.69 37.7 0 1 -0.12,-0.98 q 1.06,-6.11 -1.71,-9.37 z M 13.85,39.65 c 3.19,-4.67 8.28,-8.77 12.25,-12.94 a 1.58,1.58 0 0 1 2.73,1.1 L 28.68,54.1 q -0.01,0.91 -0.73,0.36 -7.9,-6.09 -14.07,-13.92 -0.34,-0.44 -0.03,-0.89 z"
     id="path6870"
     inkscape:connector-curvature="0"
     style="fill:#efd337" />
  <path
     d="m 35.84,20.78 -0.05,2.74 c 2.93,2.65 1.17,4.54 1.24,7.24 0.22,7.69 0.75,15.05 0.12,27.4 q -0.03,0.49 -0.51,0.59 -1.59,0.31 -2.03,1.89 a 0.88,0.88 0 0 0 0.2,0.83 l 8.53,8.82 q 1.3,1.35 2.58,-0.01 l 8.07,-8.61 q 0.43,-0.46 -0.12,-0.78 L 52.92,60.33 Q 52.48,60.07 52.51,59.55 C 52.92,53.22 54.43,44.73 49.36,42.82 Q 48.89,42.64 48.6,42.23 C 46.78,39.7 43.25,38.2 42.21,35.81 40.71,32.36 41.9,27.85 42.11,23.61 a 0.81,0.81 0 0 1 0.46,-0.7 q 0.73,-0.36 0.94,-0.92 l 0.04,-0.98 q 0.02,-0.51 0.53,-0.43 1.98,0.32 4.6,-0.4 2.77,3.26 1.71,9.37 a 1.68,1.69 37.7 0 0 0.12,0.98 q 0.81,1.83 2.09,2.65 4.6,2.94 7.32,6.64 a 1.73,1.67 28.8 0 1 0.33,1.06 l -0.28,12.19 q -0.01,0.38 0.23,0.67 c 0.88,1.02 3.72,1.43 3.56,-0.58 q -0.05,-0.59 0.37,-1.02 L 74.88,41.11 a 2.14,2.14 0 0 0 -0.11,-3.1 Q 71.99,35.54 69.03,33.02 C 65.57,30.08 62.7,26.09 59.09,22.89 54.56,18.88 51.08,14.65 46.67,10.86 42.99,7.69 34.6,18.79 35.84,20.78 Z"
     id="path6872"
     inkscape:connector-curvature="0"
     style="fill:#fdda03" />
  <path
     d="m 48.68,20.18 q -2.62,0.72 -4.6,0.4 -0.51,-0.08 -0.53,0.43 l -0.04,0.98 0.01,12.75 a 1.04,1.03 20.1 0 0 0.37,0.79 l 9.49,7.98 a 2.33,2.31 19.4 0 1 0.84,1.74 l 0.24,12.59 q 0.02,0.66 0.67,0.66 h 2.54 q 1.44,0 1.41,-1.44 L 58.8,41.2 Q 58.79,40.6 58.34,40.21 C 56.17,38.31 48.32,33.17 48.37,30.5 q 0.09,-4.85 0.31,-10.32 z"
     id="path6874"
     inkscape:connector-curvature="0"
     style="fill:#0a0302" />
  <path
     d="m 35.79,23.52 0.05,-2.74 q -3.11,-0.94 -5.04,0.18 -0.46,0.26 -0.46,0.79 -0.21,18.23 0.15,36.45 0.01,0.42 0.42,0.4 l 4.37,-0.14 a 0.54,0.53 88.9 0 0 0.51,-0.54 z"
     id="path6876"
     inkscape:connector-curvature="0"
     style="fill:#0a0302" />
  <path
     d="m 26.1,26.71 c -3.97,4.17 -9.06,8.27 -12.25,12.94 q -0.31,0.45 0.03,0.89 6.17,7.83 14.07,13.92 0.72,0.55 0.73,-0.36 l 0.15,-26.29 a 1.58,1.58 0 0 0 -2.73,-1.1 z"
     id="path6878"
     inkscape:connector-curvature="0"
     style="fill:#fdda03" />
</svg>
