<?xml version="1.0" encoding="UTF-8" standalone="no"?>
<svg
   xmlns:dc="http://purl.org/dc/elements/1.1/"
   xmlns:cc="http://creativecommons.org/ns#"
   xmlns:rdf="http://www.w3.org/1999/02/22-rdf-syntax-ns#"
   xmlns:svg="http://www.w3.org/2000/svg"
   xmlns="http://www.w3.org/2000/svg"
   xmlns:sodipodi="http://sodipodi.sourceforge.net/DTD/sodipodi-0.dtd"
   xmlns:inkscape="http://www.inkscape.org/namespaces/inkscape"
   version="1.1"
   viewBox="0.00 0.00 86.00 79.00"
   id="svg6880"
   sodipodi:docname="reduizq.svg"
   inkscape:version="0.92.2 (5c3e80d, 2017-08-06)">
  <metadata
     id="metadata6886">
    <rdf:RDF>
      <cc:Work
         rdf:about="">
        <dc:format>image/svg+xml</dc:format>
        <dc:type
           rdf:resource="http://purl.org/dc/dcmitype/StillImage" />
        <dc:title></dc:title>
      </cc:Work>
    </rdf:RDF>
  </metadata>
  <defs
     id="defs6884" />
  <sodipodi:namedview
     pagecolor="#ffffff"
     bordercolor="#666666"
     borderopacity="1"
     objecttolerance="10"
     gridtolerance="10"
     guidetolerance="10"
     inkscape:pageopacity="0"
     inkscape:pageshadow="2"
     inkscape:window-width="1600"
     inkscape:window-height="837"
     id="namedview6882"
     showgrid="false"
     inkscape:zoom="2.9873418"
     inkscape:cx="43"
     inkscape:cy="39.5"
     inkscape:window-x="-8"
     inkscape:window-y="-8"
     inkscape:window-maximized="1"
     inkscape:current-layer="svg6880" />
  <path
     fill="#ecdc6d"
     d="   M 80.5498 34.3184   A 7.95 7.95 0.0 0 1 80.5301 45.5614   L 50.0857 75.8998   A 7.95 7.95 0.0 0 1 38.8427 75.8802   L 8.4902 45.4216   A 7.95 7.95 0.0 0 1 8.5099 34.1786   L 38.9543 3.8402   A 7.95 7.95 0.0 0 1 50.1973 3.8598   L 80.5498 34.3184   Z   M 48.5871 5.7592   A 5.70 5.70 0.0 0 0 40.5261 5.7451   L 10.3792 35.7870   A 5.70 5.70 0.0 0 0 10.3651 43.8480   L 40.3929 73.9808   A 5.70 5.70 0.0 0 0 48.4539 73.9949   L 78.6008 43.9530   A 5.70 5.70 0.0 0 0 78.6149 35.8920   L 48.5871 5.7592   Z"
     id="path6854" />
  <path
     fill="#0a0302"
     d="   M 78.6149 35.8920   A 5.70 5.70 0.0 0 1 78.6008 43.9530   L 48.4539 73.9949   A 5.70 5.70 0.0 0 1 40.3929 73.9808   L 10.3651 43.8480   A 5.70 5.70 0.0 0 1 10.3792 35.7870   L 40.5261 5.7451   A 5.70 5.70 0.0 0 1 48.5871 5.7592   L 78.6149 35.8920   Z   M 46.8807 7.9003   A 3.36 3.36 0.0 0 0 42.1290 7.8920   L 12.3504 37.5668   A 3.36 3.36 0.0 0 0 12.3421 42.3186   L 42.0593 72.1397   A 3.36 3.36 0.0 0 0 46.8110 72.1480   L 76.5896 42.4732   A 3.36 3.36 0.0 0 0 76.5979 37.7214   L 46.8807 7.9003   Z"
     id="path6866" />
  <path
     fill="#efd337"
     d="   M 76.5979 37.7214   A 3.36 3.36 0.0 0 1 76.5896 42.4732   L 46.8110 72.1480   A 3.36 3.36 0.0 0 1 42.0593 72.1397   L 12.3421 42.3186   A 3.36 3.36 0.0 0 1 12.3504 37.5668   L 42.1290 7.8920   A 3.36 3.36 0.0 0 1 46.8807 7.9003   L 76.5979 37.7214   Z   M 40.36 20.18   Q 40.58 25.65 40.67 30.50   C 40.72 33.17 32.87 38.31 30.70 40.21   Q 30.25 40.60 30.24 41.20   L 29.96 57.06   Q 29.93 58.50 31.37 58.50   L 33.91 58.50   Q 34.56 58.50 34.58 57.84   L 34.82 45.25   A 2.33 2.31 -19.4 0 1 35.66 43.51   L 45.15 35.53   A 1.04 1.03 -20.1 0 0 45.52 34.74   L 45.53 21.99   Q 45.74 22.55 46.47 22.91   A 0.81 0.81 0.0 0 1 46.93 23.61   C 47.14 27.85 48.33 32.36 46.83 35.81   C 45.79 38.20 42.26 39.70 40.44 42.23   Q 40.15 42.64 39.68 42.82   C 34.61 44.73 36.12 53.22 36.53 59.55   Q 36.56 60.07 36.12 60.33   L 35.17 60.89   Q 34.62 61.21 35.05 61.67   L 43.12 70.28   Q 44.40 71.64 45.70 70.29   L 54.23 61.47   A 0.88 0.88 0.0 0 0 54.43 60.64   Q 53.99 59.06 52.40 58.75   Q 51.92 58.65 51.89 58.16   C 51.26 45.81 51.79 38.45 52.01 30.76   C 52.08 28.06 50.32 26.17 53.25 23.52   L 53.25 57.92   A 0.54 0.53 -88.9 0 0 53.76 58.46   L 58.13 58.60   Q 58.54 58.62 58.55 58.20   Q 58.91 39.98 58.70 21.75   Q 58.70 21.22 58.24 20.96   Q 56.31 19.84 53.20 20.78   C 54.44 18.79 46.05 7.69 42.37 10.86   C 37.96 14.65 34.48 18.88 29.95 22.89   C 26.34 26.09 23.47 30.08 20.01 33.02   Q 17.05 35.54 14.27 38.01   A 2.14 2.14 0.0 0 0 14.16 41.11   L 24.91 52.14   Q 25.33 52.57 25.28 53.16   C 25.12 55.17 27.96 54.76 28.84 53.74   Q 29.08 53.45 29.07 53.07   L 28.79 40.88   A 1.73 1.67 -28.8 0 1 29.12 39.82   Q 31.84 36.12 36.44 33.18   Q 37.72 32.36 38.53 30.53   A 1.69 1.68 52.3 0 0 38.65 29.55   Q 37.59 23.44 40.36 20.18   Z   M 75.19 39.65   C 72.00 34.98 66.91 30.88 62.94 26.71   A 1.58 1.58 0.0 0 0 60.21 27.81   L 60.36 54.10   Q 60.37 55.01 61.09 54.46   Q 68.99 48.37 75.16 40.54   Q 75.50 40.10 75.19 39.65   Z"
     id="path6870" />
  <path
     fill="#fdda03"
     d="   M 53.20 20.78   L 53.25 23.52   C 50.32 26.17 52.08 28.06 52.01 30.76   C 51.79 38.45 51.26 45.81 51.89 58.16   Q 51.92 58.65 52.40 58.75   Q 53.99 59.06 54.43 60.64   A 0.88 0.88 0.0 0 1 54.23 61.47   L 45.70 70.29   Q 44.40 71.64 43.12 70.28   L 35.05 61.67   Q 34.62 61.21 35.17 60.89   L 36.12 60.33   Q 36.56 60.07 36.53 59.55   C 36.12 53.22 34.61 44.73 39.68 42.82   Q 40.15 42.64 40.44 42.23   C 42.26 39.70 45.79 38.20 46.83 35.81   C 48.33 32.36 47.14 27.85 46.93 23.61   A 0.81 0.81 0.0 0 0 46.47 22.91   Q 45.74 22.55 45.53 21.99   L 45.49 21.01   Q 45.47 20.50 44.96 20.58   Q 42.98 20.90 40.36 20.18   Q 37.59 23.44 38.65 29.55   A 1.69 1.68 52.3 0 1 38.53 30.53   Q 37.72 32.36 36.44 33.18   Q 31.84 36.12 29.12 39.82   A 1.73 1.67 -28.8 0 0 28.79 40.88   L 29.07 53.07   Q 29.08 53.45 28.84 53.74   C 27.96 54.76 25.12 55.17 25.28 53.16   Q 25.33 52.57 24.91 52.14   L 14.16 41.11   A 2.14 2.14 0.0 0 1 14.27 38.01   Q 17.05 35.54 20.01 33.02   C 23.47 30.08 26.34 26.09 29.95 22.89   C 34.48 18.88 37.96 14.65 42.37 10.86   C 46.05 7.69 54.44 18.79 53.20 20.78   Z"
     id="path6872" />
  <path
     fill="#0a0302"
     d="   M 40.36 20.18   Q 42.98 20.90 44.96 20.58   Q 45.47 20.50 45.49 21.01   L 45.53 21.99   L 45.52 34.74   A 1.04 1.03 -20.1 0 1 45.15 35.53   L 35.66 43.51   A 2.33 2.31 -19.4 0 0 34.82 45.25   L 34.58 57.84   Q 34.56 58.50 33.91 58.50   L 31.37 58.50   Q 29.93 58.50 29.96 57.06   L 30.24 41.20   Q 30.25 40.60 30.70 40.21   C 32.87 38.31 40.72 33.17 40.67 30.50   Q 40.58 25.65 40.36 20.18   Z"
     id="path6874" />
  <path
     fill="#0a0302"
     d="   M 53.25 23.52   L 53.20 20.78   Q 56.31 19.84 58.24 20.96   Q 58.70 21.22 58.70 21.75   Q 58.91 39.98 58.55 58.20   Q 58.54 58.62 58.13 58.60   L 53.76 58.46   A 0.54 0.53 -88.9 0 1 53.25 57.92   L 53.25 23.52   Z"
     id="path6876" />
  <path
     fill="#fdda03"
     d="   M 62.94 26.71   C 66.91 30.88 72.00 34.98 75.19 39.65   Q 75.50 40.10 75.16 40.54   Q 68.99 48.37 61.09 54.46   Q 60.37 55.01 60.36 54.10   L 60.21 27.81   A 1.58 1.58 0.0 0 1 62.94 26.71   Z"
     id="path6878" />
</svg>
