<?xml version="1.0" encoding="UTF-8" standalone="no"?>
<svg
   xmlns:dc="http://purl.org/dc/elements/1.1/"
   xmlns:cc="http://creativecommons.org/ns#"
   xmlns:rdf="http://www.w3.org/1999/02/22-rdf-syntax-ns#"
   xmlns:svg="http://www.w3.org/2000/svg"
   xmlns="http://www.w3.org/2000/svg"
   xmlns:sodipodi="http://sodipodi.sourceforge.net/DTD/sodipodi-0.dtd"
   xmlns:inkscape="http://www.inkscape.org/namespaces/inkscape"
   version="1.1"
   viewBox="0.00 0.00 512.00 512.00"
   id="svg4871"
   sodipodi:docname="semaforo.svg"
   inkscape:version="0.92.2 (5c3e80d, 2017-08-06)">
  <metadata
     id="metadata4877">
    <rdf:RDF>
      <cc:Work
         rdf:about="">
        <dc:format>image/svg+xml</dc:format>
        <dc:type
           rdf:resource="http://purl.org/dc/dcmitype/StillImage" />
        <dc:title></dc:title>
      </cc:Work>
    </rdf:RDF>
  </metadata>
  <defs
     id="defs4875" />
  <sodipodi:namedview
     pagecolor="#ffffff"
     bordercolor="#666666"
     borderopacity="1"
     objecttolerance="10"
     gridtolerance="10"
     guidetolerance="10"
     inkscape:pageopacity="0"
     inkscape:pageshadow="2"
     inkscape:window-width="1600"
     inkscape:window-height="837"
     id="namedview4873"
     showgrid="false"
     inkscape:zoom="0.4609375"
     inkscape:cx="256"
     inkscape:cy="256"
     inkscape:window-x="-8"
     inkscape:window-y="-8"
     inkscape:window-maximized="1"
     inkscape:current-layer="svg4871" />
  <g
     stroke-width="2.00"
     fill="none"
     stroke-linecap="butt"
     id="g4837">
    <path
       stroke="#171718"
       vector-effect="non-scaling-stroke"
       d="   M 209.46 32.00   L 302.48 32.00   A 0.57 0.57 0.0 0 0 302.98 31.17   Q 299.19 23.99 291.00 23.99   Q 255.87 23.98 220.75 24.10   Q 212.56 24.12 209.00 31.26   A 0.51 0.51 0.0 0 0 209.46 32.00"
       id="path4807" />
    <path
       stroke="#1f1f21"
       vector-effect="non-scaling-stroke"
       d="   M 336.00 48.57   A 0.57 0.57 0.0 0 0 335.43 48.00   L 176.57 48.00   A 0.57 0.57 0.0 0 0 176.00 48.57   L 176.00 431.43   A 0.57 0.57 0.0 0 0 176.57 432.00   L 335.43 432.00   A 0.57 0.57 0.0 0 0 336.00 431.43   L 336.00 48.57"
       id="path4809" />
    <path
       stroke="#171718"
       vector-effect="non-scaling-stroke"
       d="   M 150.69 151.45   A 0.63 0.63 0.0 0 0 151.31 151.97   L 159.37 152.01   A 0.63 0.63 0.0 0 0 160.00 151.38   L 160.00 72.63   A 0.63 0.63 0.0 0 0 159.37 72.00   L 138.19 72.00   A 0.63 0.63 0.0 0 0 137.57 72.73   L 150.69 151.45"
       id="path4811" />
    <path
       stroke="#171718"
       vector-effect="non-scaling-stroke"
       d="   M 360.58 151.99   A 0.75 0.75 0.0 0 0 361.31 151.36   L 374.41 72.87   A 0.75 0.75 0.0 0 0 373.67 72.00   L 352.75 72.00   A 0.75 0.75 0.0 0 0 352.00 72.75   L 352.00 151.25   A 0.75 0.75 0.0 0 0 352.75 152.00   L 360.58 151.99"
       id="path4813" />
    <path
       stroke="#171718"
       vector-effect="non-scaling-stroke"
       d="   M 150.69 287.45   A 0.63 0.63 0.0 0 0 151.31 287.97   L 159.37 288.01   A 0.63 0.63 0.0 0 0 160.00 287.38   L 160.00 208.63   A 0.63 0.63 0.0 0 0 159.37 208.00   L 138.19 208.00   A 0.63 0.63 0.0 0 0 137.57 208.73   L 150.69 287.45"
       id="path4815" />
    <path
       stroke="#171718"
       vector-effect="non-scaling-stroke"
       d="   M 360.56 288.00   A 0.75 0.75 0.0 0 0 361.30 287.37   L 374.41 208.87   A 0.75 0.75 0.0 0 0 373.67 208.00   L 352.75 208.00   A 0.75 0.75 0.0 0 0 352.00 208.75   L 352.00 287.25   A 0.75 0.75 0.0 0 0 352.75 288.00   L 360.56 288.00"
       id="path4817" />
    <path
       stroke="#171718"
       vector-effect="non-scaling-stroke"
       d="   M 150.69 415.45   A 0.63 0.63 0.0 0 0 151.31 415.97   L 159.37 416.01   A 0.63 0.63 0.0 0 0 160.00 415.38   L 160.00 336.63   A 0.63 0.63 0.0 0 0 159.37 336.00   L 138.19 336.00   A 0.63 0.63 0.0 0 0 137.57 336.73   L 150.69 415.45"
       id="path4819" />
    <path
       stroke="#171718"
       vector-effect="non-scaling-stroke"
       d="   M 374.41 336.88   A 0.75 0.75 0.0 0 0 373.67 336.01   L 352.75 336.00   A 0.75 0.75 0.0 0 0 352.00 336.75   L 352.00 415.25   A 0.75 0.75 0.0 0 0 352.75 416.00   L 360.57 416.00   A 0.75 0.75 0.0 0 0 361.31 415.37   L 374.41 336.88"
       id="path4821" />
    <path
       stroke="#171718"
       vector-effect="non-scaling-stroke"
       d="   M 280.00 448.58   A 0.58 0.58 0.0 0 0 279.42 448.00   L 232.58 448.00   A 0.58 0.58 0.0 0 0 232.00 448.58   L 232.00 487.42   A 0.58 0.58 0.0 0 0 232.58 488.00   L 279.42 488.00   A 0.58 0.58 0.0 0 0 280.00 487.42   L 280.00 448.58"
       id="path4823" />
    <path
       stroke="#1f1f21"
       vector-effect="non-scaling-stroke"
       d="   M 311.92 112.01   A 55.93 55.93 0.0 0 0 255.99 56.08   A 55.93 55.93 0.0 0 0 200.06 112.01   A 55.93 55.93 0.0 0 0 255.99 167.94   A 55.93 55.93 0.0 0 0 311.92 112.01"
       id="path4825" />
    <path
       stroke="#1f1f21"
       vector-effect="non-scaling-stroke"
       d="   M 311.92 240.00   A 55.93 55.93 0.0 0 0 255.99 184.07   A 55.93 55.93 0.0 0 0 200.06 240.00   A 55.93 55.93 0.0 0 0 255.99 295.93   A 55.93 55.93 0.0 0 0 311.92 240.00"
       id="path4827" />
    <path
       stroke="#1f1f21"
       vector-effect="non-scaling-stroke"
       d="   M 311.92 368.01   A 55.93 55.93 0.0 0 0 255.99 312.08   A 55.93 55.93 0.0 0 0 200.06 368.01   A 55.93 55.93 0.0 0 0 255.99 423.94   A 55.93 55.93 0.0 0 0 311.92 368.01"
       id="path4829" />
    <path
       stroke="#6c0014"
       vector-effect="non-scaling-stroke"
       d="   M 295.91 111.99   A 39.92 39.92 0.0 0 0 255.99 72.07   A 39.92 39.92 0.0 0 0 216.07 111.99   A 39.92 39.92 0.0 0 0 255.99 151.91   A 39.92 39.92 0.0 0 0 295.91 111.99"
       id="path4831" />
    <path
       stroke="#806d22"
       vector-effect="non-scaling-stroke"
       d="   M 295.92 239.99   A 39.93 39.93 0.0 0 0 255.99 200.06   A 39.93 39.93 0.0 0 0 216.06 239.99   A 39.93 39.93 0.0 0 0 255.99 279.92   A 39.93 39.93 0.0 0 0 295.92 239.99"
       id="path4833" />
    <path
       stroke="#496602"
       vector-effect="non-scaling-stroke"
       d="   M 295.92 367.98   A 39.93 39.93 0.0 0 0 255.99 328.05   A 39.93 39.93 0.0 0 0 216.06 367.98   A 39.93 39.93 0.0 0 0 255.99 407.91   A 39.93 39.93 0.0 0 0 295.92 367.98"
       id="path4835" />
  </g>
  <path
     fill="#000000"
     d="   M 320.34 31.97   Q 331.80 32.07 343.25 31.96   C 355.17 31.86 351.93 48.06 352.03 55.42   A 0.57 0.57 0.0 0 0 352.60 55.98   Q 366.98 56.04 381.26 56.01   C 388.02 55.99 392.97 58.64 391.71 66.24   Q 384.01 112.61 376.27 158.96   C 375.24 165.12 372.90 168.03 366.59 167.99   Q 359.55 167.93 352.49 168.03   A 0.51 0.50 89.4 0 0 352.00 168.54   L 352.00 191.46   Q 352.00 191.96 352.50 191.96   Q 366.66 192.07 380.71 192.00   C 388.77 191.95 392.93 194.76 391.54 203.15   Q 383.93 249.19 376.22 295.21   C 375.21 301.23 372.74 304.03 366.62 303.99   Q 359.57 303.94 352.50 304.03   Q 352.00 304.04 352.00 304.54   L 352.00 319.46   Q 352.00 319.97 352.52 319.98   Q 366.93 320.04 381.26 320.01   C 388.02 319.99 392.97 322.64 391.71 330.24   Q 384.01 376.61 376.27 422.96   C 375.23 429.15 372.90 432.02 366.58 431.99   Q 359.59 431.96 352.60 432.02   Q 352.03 432.03 352.02 432.60   C 351.86 440.77 352.95 447.98 342.24 447.99   Q 319.37 448.01 296.57 448.00   A 0.56 0.56 0.0 0 0 296.00 448.56   Q 295.99 470.71 296.00 493.06   C 296.00 500.16 293.86 503.98 286.50 503.99   Q 256.44 504.02 226.38 503.99   C 219.54 503.98 216.02 501.50 216.01 494.57   Q 215.98 471.54 216.01 448.57   A 0.57 0.57 0.0 0 0 215.44 448.00   Q 193.01 447.99 170.36 448.01   C 159.09 448.01 160.20 441.52 159.98 432.60   Q 159.97 432.04 159.41 432.03   C 151.80 431.92 137.76 435.10 135.99 424.50   Q 128.25 378.32 120.59 332.13   C 119.31 324.42 121.65 320.03 129.73 320.01   Q 144.68 319.98 159.63 320.01   A 0.37 0.37 0.0 0 0 160.00 319.64   L 160.00 304.54   A 0.51 0.50 90.0 0 0 159.50 304.03   C 151.85 303.93 137.72 307.08 135.96 296.51   Q 128.25 250.32 120.59 204.13   C 119.31 196.40 121.66 192.03 129.74 192.01   Q 144.63 191.98 159.48 192.01   A 0.53 0.52 90.0 0 0 160.00 191.48   L 160.00 168.72   A 0.69 0.69 0.0 0 0 159.32 168.03   C 151.70 167.92 137.72 171.06 135.96 160.51   Q 128.25 114.32 120.59 68.13   C 119.31 60.40 121.66 56.03 129.74 56.01   Q 144.61 55.98 159.44 56.01   A 0.56 0.55 90.0 0 0 159.99 55.45   Q 160.01 49.26 160.00 42.94   C 159.99 35.79 162.11 32.03 169.51 32.01   Q 180.70 31.99 191.76 32.00   A 0.48 0.46 -82.8 0 0 192.21 31.64   Q 196.35 14.07 212.01 9.32   Q 216.50 7.96 225.13 7.98   Q 256.31 8.04 287.48 7.98   C 303.91 7.94 315.73 14.32 319.73 31.48   Q 319.84 31.97 320.34 31.97   Z   M 209.46 32.00   L 302.48 32.00   A 0.57 0.57 0.0 0 0 302.98 31.17   Q 299.19 23.99 291.00 23.99   Q 255.87 23.98 220.75 24.10   Q 212.56 24.12 209.00 31.26   A 0.51 0.51 0.0 0 0 209.46 32.00   Z   M 336.00 48.57   A 0.57 0.57 0.0 0 0 335.43 48.00   L 176.57 48.00   A 0.57 0.57 0.0 0 0 176.00 48.57   L 176.00 431.43   A 0.57 0.57 0.0 0 0 176.57 432.00   L 335.43 432.00   A 0.57 0.57 0.0 0 0 336.00 431.43   L 336.00 48.57   Z   M 150.69 151.45   A 0.63 0.63 0.0 0 0 151.31 151.97   L 159.37 152.01   A 0.63 0.63 0.0 0 0 160.00 151.38   L 160.00 72.63   A 0.63 0.63 0.0 0 0 159.37 72.00   L 138.19 72.00   A 0.63 0.63 0.0 0 0 137.57 72.73   L 150.69 151.45   Z   M 360.58 151.99   A 0.75 0.75 0.0 0 0 361.31 151.36   L 374.41 72.87   A 0.75 0.75 0.0 0 0 373.67 72.00   L 352.75 72.00   A 0.75 0.75 0.0 0 0 352.00 72.75   L 352.00 151.25   A 0.75 0.75 0.0 0 0 352.75 152.00   L 360.58 151.99   Z   M 150.69 287.45   A 0.63 0.63 0.0 0 0 151.31 287.97   L 159.37 288.01   A 0.63 0.63 0.0 0 0 160.00 287.38   L 160.00 208.63   A 0.63 0.63 0.0 0 0 159.37 208.00   L 138.19 208.00   A 0.63 0.63 0.0 0 0 137.57 208.73   L 150.69 287.45   Z   M 360.56 288.00   A 0.75 0.75 0.0 0 0 361.30 287.37   L 374.41 208.87   A 0.75 0.75 0.0 0 0 373.67 208.00   L 352.75 208.00   A 0.75 0.75 0.0 0 0 352.00 208.75   L 352.00 287.25   A 0.75 0.75 0.0 0 0 352.75 288.00   L 360.56 288.00   Z   M 150.69 415.45   A 0.63 0.63 0.0 0 0 151.31 415.97   L 159.37 416.01   A 0.63 0.63 0.0 0 0 160.00 415.38   L 160.00 336.63   A 0.63 0.63 0.0 0 0 159.37 336.00   L 138.19 336.00   A 0.63 0.63 0.0 0 0 137.57 336.73   L 150.69 415.45   Z   M 374.41 336.88   A 0.75 0.75 0.0 0 0 373.67 336.01   L 352.75 336.00   A 0.75 0.75 0.0 0 0 352.00 336.75   L 352.00 415.25   A 0.75 0.75 0.0 0 0 352.75 416.00   L 360.57 416.00   A 0.75 0.75 0.0 0 0 361.31 415.37   L 374.41 336.88   Z   M 280.00 448.58   A 0.58 0.58 0.0 0 0 279.42 448.00   L 232.58 448.00   A 0.58 0.58 0.0 0 0 232.00 448.58   L 232.00 487.42   A 0.58 0.58 0.0 0 0 232.58 488.00   L 279.42 488.00   A 0.58 0.58 0.0 0 0 280.00 487.42   L 280.00 448.58   Z"
     id="path4839" />
  <path
     fill="#2d2d30"
     d="   M 209.46 32.00   A 0.51 0.51 0.0 0 1 209.00 31.26   Q 212.56 24.12 220.75 24.10   Q 255.87 23.98 291.00 23.99   Q 299.19 23.99 302.98 31.17   A 0.57 0.57 0.0 0 1 302.48 32.00   L 209.46 32.00   Z"
     id="path4841" />
  <path
     fill="#3e3d42"
     d="   M 336.00 431.43   A 0.57 0.57 0.0 0 1 335.43 432.00   L 176.57 432.00   A 0.57 0.57 0.0 0 1 176.00 431.43   L 176.00 48.57   A 0.57 0.57 0.0 0 1 176.57 48.00   L 335.43 48.00   A 0.57 0.57 0.0 0 1 336.00 48.57   L 336.00 431.43   Z   M 311.92 112.01   A 55.93 55.93 0.0 0 0 255.99 56.08   A 55.93 55.93 0.0 0 0 200.06 112.01   A 55.93 55.93 0.0 0 0 255.99 167.94   A 55.93 55.93 0.0 0 0 311.92 112.01   Z   M 311.92 240.00   A 55.93 55.93 0.0 0 0 255.99 184.07   A 55.93 55.93 0.0 0 0 200.06 240.00   A 55.93 55.93 0.0 0 0 255.99 295.93   A 55.93 55.93 0.0 0 0 311.92 240.00   Z   M 311.92 368.01   A 55.93 55.93 0.0 0 0 255.99 312.08   A 55.93 55.93 0.0 0 0 200.06 368.01   A 55.93 55.93 0.0 0 0 255.99 423.94   A 55.93 55.93 0.0 0 0 311.92 368.01   Z"
     id="path4843" />
  <path
     fill="#000000"
     d="   M 311.92 112.01   A 55.93 55.93 0.0 0 1 255.99 167.94   A 55.93 55.93 0.0 0 1 200.06 112.01   A 55.93 55.93 0.0 0 1 255.99 56.08   A 55.93 55.93 0.0 0 1 311.92 112.01   Z   M 295.91 111.99   A 39.92 39.92 0.0 0 0 255.99 72.07   A 39.92 39.92 0.0 0 0 216.07 111.99   A 39.92 39.92 0.0 0 0 255.99 151.91   A 39.92 39.92 0.0 0 0 295.91 111.99   Z"
     id="path4845" />
  <path
     fill="#2d2d30"
     d="   M 150.69 151.45   L 137.57 72.73   A 0.63 0.63 0.0 0 1 138.19 72.00   L 159.37 72.00   A 0.63 0.63 0.0 0 1 160.00 72.63   L 160.00 151.38   A 0.63 0.63 0.0 0 1 159.37 152.01   L 151.31 151.97   A 0.63 0.63 0.0 0 1 150.69 151.45   Z"
     id="path4847" />
  <circle
     fill="#d80027"
     cx="255.99"
     cy="111.99"
     r="39.92"
     id="circle4849"
     style="fill:#000000" />
  <path
     fill="#2d2d30"
     d="   M 360.58 151.99   L 352.75 152.00   A 0.75 0.75 0.0 0 1 352.00 151.25   L 352.00 72.75   A 0.75 0.75 0.0 0 1 352.75 72.00   L 373.67 72.00   A 0.75 0.75 0.0 0 1 374.41 72.87   L 361.31 151.36   A 0.75 0.75 0.0 0 1 360.58 151.99   Z"
     id="path4851" />
  <path
     fill="#000000"
     d="   M 311.92 240.00   A 55.93 55.93 0.0 0 1 255.99 295.93   A 55.93 55.93 0.0 0 1 200.06 240.00   A 55.93 55.93 0.0 0 1 255.99 184.07   A 55.93 55.93 0.0 0 1 311.92 240.00   Z   M 295.92 239.99   A 39.93 39.93 0.0 0 0 255.99 200.06   A 39.93 39.93 0.0 0 0 216.06 239.99   A 39.93 39.93 0.0 0 0 255.99 279.92   A 39.93 39.93 0.0 0 0 295.92 239.99   Z"
     id="path4853" />
  <circle
     fill="#ffda44"
     cx="255.99"
     cy="239.99"
     r="39.93"
     id="circle4855"
     style="fill:#000000" />
  <path
     fill="#2d2d30"
     d="   M 150.69 287.45   L 137.57 208.73   A 0.63 0.63 0.0 0 1 138.19 208.00   L 159.37 208.00   A 0.63 0.63 0.0 0 1 160.00 208.63   L 160.00 287.38   A 0.63 0.63 0.0 0 1 159.37 288.01   L 151.31 287.97   A 0.63 0.63 0.0 0 1 150.69 287.45   Z"
     id="path4857" />
  <path
     fill="#2d2d30"
     d="   M 360.56 288.00   L 352.75 288.00   A 0.75 0.75 0.0 0 1 352.00 287.25   L 352.00 208.75   A 0.75 0.75 0.0 0 1 352.75 208.00   L 373.67 208.00   A 0.75 0.75 0.0 0 1 374.41 208.87   L 361.30 287.37   A 0.75 0.75 0.0 0 1 360.56 288.00   Z"
     id="path4859" />
  <path
     fill="#000000"
     d="   M 311.92 368.01   A 55.93 55.93 0.0 0 1 255.99 423.94   A 55.93 55.93 0.0 0 1 200.06 368.01   A 55.93 55.93 0.0 0 1 255.99 312.08   A 55.93 55.93 0.0 0 1 311.92 368.01   Z   M 295.92 367.98   A 39.93 39.93 0.0 0 0 255.99 328.05   A 39.93 39.93 0.0 0 0 216.06 367.98   A 39.93 39.93 0.0 0 0 255.99 407.91   A 39.93 39.93 0.0 0 0 295.92 367.98   Z"
     id="path4861" />
  <circle
     fill="#91cc04"
     cx="255.99"
     cy="367.98"
     r="39.93"
     id="circle4863"
     style="fill:#000000" />
  <path
     fill="#2d2d30"
     d="   M 150.69 415.45   L 137.57 336.73   A 0.63 0.63 0.0 0 1 138.19 336.00   L 159.37 336.00   A 0.63 0.63 0.0 0 1 160.00 336.63   L 160.00 415.38   A 0.63 0.63 0.0 0 1 159.37 416.01   L 151.31 415.97   A 0.63 0.63 0.0 0 1 150.69 415.45   Z"
     id="path4865" />
  <path
     fill="#2d2d30"
     d="   M 374.41 336.88   L 361.31 415.37   A 0.75 0.75 0.0 0 1 360.57 416.00   L 352.75 416.00   A 0.75 0.75 0.0 0 1 352.00 415.25   L 352.00 336.75   A 0.75 0.75 0.0 0 1 352.75 336.00   L 373.67 336.01   A 0.75 0.75 0.0 0 1 374.41 336.88   Z"
     id="path4867" />
  <rect
     fill="#2d2d30"
     x="232.00"
     y="448.00"
     width="48.00"
     height="40.00"
     rx="0.58"
     id="rect4869" />
</svg>
