<?xml version="1.0" encoding="UTF-8" standalone="no"?>
<!-- Created with Inkscape (http://www.inkscape.org/) -->

<svg
   width="24.503574mm"
   height="48.072258mm"
   viewBox="0 0 24.503574 48.072258"
   version="1.1"
   id="svg4448"
   inkscape:version="1.2.1 (9c6d41e410, 2022-07-14)"
   sodipodi:docname="taxi.svg"
   xmlns:inkscape="http://www.inkscape.org/namespaces/inkscape"
   xmlns:sodipodi="http://sodipodi.sourceforge.net/DTD/sodipodi-0.dtd"
   xmlns="http://www.w3.org/2000/svg"
   xmlns:svg="http://www.w3.org/2000/svg">
  <sodipodi:namedview
     id="namedview4450"
     pagecolor="#ffffff"
     bordercolor="#666666"
     borderopacity="1.0"
     inkscape:showpageshadow="2"
     inkscape:pageopacity="0.0"
     inkscape:pagecheckerboard="0"
     inkscape:deskcolor="#d1d1d1"
     inkscape:document-units="mm"
     showgrid="false"
     inkscape:zoom="0.49085999"
     inkscape:cx="-73.340669"
     inkscape:cy="156.86754"
     inkscape:window-width="1366"
     inkscape:window-height="705"
     inkscape:window-x="-8"
     inkscape:window-y="-8"
     inkscape:window-maximized="1"
     inkscape:current-layer="layer1" />
  <defs
     id="defs4445">
    <linearGradient
       id="SVGID_00000006699831896823509850000018222740918114664082_"
       gradientUnits="userSpaceOnUse"
       x1="132.1313"
       y1="285.52521"
       x2="102.1964"
       y2="311.53409">
			<stop
   offset="0"
   style="stop-color:#FFFFFF"
   id="stop2550" />

			<stop
   offset="1"
   style="stop-color:#F0B631"
   id="stop2552" />

		</linearGradient>
    <linearGradient
       id="SVGID_00000142882584370892005700000001376514826282407606_"
       gradientUnits="userSpaceOnUse"
       x1="94.036697"
       y1="407.31741"
       x2="127.1467"
       y2="407.31741">
			<stop
   offset="0"
   style="stop-color:#FFFFFF"
   id="stop2575" />

			<stop
   offset="0.1856"
   style="stop-color:#C4C4C4"
   id="stop2577" />

			<stop
   offset="0.4039"
   style="stop-color:#858585"
   id="stop2579" />

			<stop
   offset="0.5638"
   style="stop-color:#5E5E5E"
   id="stop2581" />

			<stop
   offset="0.6468"
   style="stop-color:#4F4F4F"
   id="stop2583" />

			<stop
   offset="0.7343"
   style="stop-color:#525252"
   id="stop2585" />

			<stop
   offset="0.7916"
   style="stop-color:#5A5A5A"
   id="stop2587" />

			<stop
   offset="0.8404"
   style="stop-color:#696969"
   id="stop2589" />

			<stop
   offset="0.8843"
   style="stop-color:#7F7F7F"
   id="stop2591" />

			<stop
   offset="0.925"
   style="stop-color:#9A9A9A"
   id="stop2593" />

			<stop
   offset="0.9628"
   style="stop-color:#BBBBBB"
   id="stop2595" />

			<stop
   offset="0.9986"
   style="stop-color:#E2E2E2"
   id="stop2597" />

			<stop
   offset="1"
   style="stop-color:#E4E4E4"
   id="stop2599" />

		</linearGradient>
    <linearGradient
       id="SVGID_00000131352995025937250860000007459000531558213303_"
       gradientUnits="userSpaceOnUse"
       x1="121.9936"
       y1="354.4166"
       x2="107.7801"
       y2="376.14301">
			<stop
   offset="0"
   style="stop-color:#FFFFFF"
   id="stop2608" />

			<stop
   offset="1"
   style="stop-color:#F0B631"
   id="stop2610" />

		</linearGradient>
    <linearGradient
       id="SVGID_00000029029206429519678240000011154704495206564023_"
       gradientUnits="userSpaceOnUse"
       x1="102.4278"
       y1="334.46661"
       x2="128.2733"
       y2="334.46661">
			<stop
   offset="0"
   style="stop-color:#FFFFFF"
   id="stop2647" />

			<stop
   offset="0.1856"
   style="stop-color:#C4C4C4"
   id="stop2649" />

			<stop
   offset="0.4039"
   style="stop-color:#858585"
   id="stop2651" />

			<stop
   offset="0.5638"
   style="stop-color:#5E5E5E"
   id="stop2653" />

			<stop
   offset="0.6468"
   style="stop-color:#4F4F4F"
   id="stop2655" />

			<stop
   offset="0.7343"
   style="stop-color:#525252"
   id="stop2657" />

			<stop
   offset="0.7916"
   style="stop-color:#5A5A5A"
   id="stop2659" />

			<stop
   offset="0.8404"
   style="stop-color:#696969"
   id="stop2661" />

			<stop
   offset="0.8843"
   style="stop-color:#7F7F7F"
   id="stop2663" />

			<stop
   offset="0.925"
   style="stop-color:#9A9A9A"
   id="stop2665" />

			<stop
   offset="0.9628"
   style="stop-color:#BBBBBB"
   id="stop2667" />

			<stop
   offset="0.9986"
   style="stop-color:#E2E2E2"
   id="stop2669" />

			<stop
   offset="1"
   style="stop-color:#E4E4E4"
   id="stop2671" />

		</linearGradient>
    <linearGradient
       id="SVGID_00000163787894882171462670000011373278242725749945_"
       gradientUnits="userSpaceOnUse"
       x1="79.607101"
       y1="279.28479"
       x2="79.114098"
       y2="313.2124">
			<stop
   offset="0"
   style="stop-color:#FFFFFF"
   id="stop2676" />

			<stop
   offset="1"
   style="stop-color:#F0B631"
   id="stop2678" />

		</linearGradient>
    <linearGradient
       id="SVGID_00000111153525759806720460000005115077558085225651_"
       gradientUnits="userSpaceOnUse"
       x1="144.2296"
       y1="279.2851"
       x2="143.7366"
       y2="313.2124">
			<stop
   offset="0"
   style="stop-color:#FFFFFF"
   id="stop2683" />

			<stop
   offset="1"
   style="stop-color:#F0B631"
   id="stop2685" />

		</linearGradient>
  </defs>
  <g
     inkscape:label="Capa 1"
     inkscape:groupmode="layer"
     id="layer1"
     transform="translate(-71.296307,-107.48474)">
    <g
       id="g2762"
       transform="matrix(0.26458333,0,0,0.26458333,53.962121,37.225644)">
		<g
   id="g2526">
			<path
   style="fill:#484d51"
   d="m 131.358,443.582 v 0 c 11.566,-1.758 15.67,-4.616 15.67,-6.53 l 2.268,-7.319 c 0,0 2.268,5.288 2.268,7.319 v 0 c 0,4.43 -5.012,7.711 -14.915,9.776 -2.456,0.513 -4.874,-0.991 -5.291,-3.246 z"
   id="path2524" />

		</g>

		<g
   id="g2530">
			<path
   style="fill:#484d51"
   d="m 94.036,443.823 c -0.372,2.278 -2.786,3.794 -5.274,3.33 -10.869,-2.026 -16.576,-5.487 -16.576,-10.101 v 0 c 0,-2.031 2.268,-7.632 2.268,-7.632 l 2.268,7.632 c 0,2.211 5.354,5.161 17.315,6.765 z"
   id="path2528" />

		</g>

		<path
   style="fill:#484d51"
   d="m 150.939,286.425 -78.06,0.257 -0.024,-7.183 c -0.061,-18.431 77.999,-18.689 78.06,-0.257 z"
   id="path2532" />

		<rect
   x="74.454002"
   y="291.26901"
   style="fill:#f0b631"
   width="74.842003"
   height="133.30299"
   id="rect2534" />

		<path
   style="fill:#f7af2f"
   d="M 149.296,286.153 H 74.454 v -6.373 c 0,-16.353 74.842,-16.353 74.842,0 z"
   id="path2536" />

		<path
   style="fill:#f28f00"
   d="m 147.152,280.668 v 5.48 h -70.55 v -5.48 c 0,-2.42 2.08,-4.42 5.54,-6.01 l 0.48,-0.21 c 1.28,-0.56 2.74,-1.06 4.34,-1.51 13.44,-3.78 36.75,-3.76 50.07,0.07 h 0.01 c 0.75,0.22 1.46,0.44 2.15,0.69 l 0.06,0.02 c 4.85,1.7 7.9,4.02 7.9,6.95 z"
   id="path2538" />

		<path
   style="fill:#fbfbfb"
   d="m 94.826,273.182 -4.554,2.835 v -6.466 c 0,-0.624 0.41,-1.13 0.916,-1.13 l 2.722,-0.907 c 0.506,0 0.916,0.506 0.916,1.13 z"
   id="path2540" />

		<path
   style="fill:#fbfbfb"
   d="m 128.809,273.182 4.554,2.835 v -6.466 c 0,-0.624 -0.41,-1.13 -0.916,-1.13 l -2.722,-0.907 c -0.506,0 -0.916,0.506 -0.916,1.13 z"
   id="path2542" />

		<path
   style="fill:#f0b631"
   d="M 149.296,291.597 H 74.454 v -5.49 c 0,-14.087 74.842,-14.087 74.842,0 z"
   id="path2544" />

		<path
   style="fill:#eaa10f"
   d="m 141.291,327.595 h -58.83 l 5.461,-48.252 c 0.145,-1.878 1.343,-3.474 3.275,-4.781 8.754,-5.951 32.586,-5.951 41.349,-0.009 1.932,1.306 3.139,2.903 3.284,4.79 z"
   id="path2546" />

		<path
   style="fill:#f0b631"
   d="M 137.263,327.595 H 86.489 l 4.708,-53.033 c 8.754,-5.951 32.586,-5.951 41.349,-0.009 z"
   id="path2548" />

		
			<linearGradient
   id="linearGradient4299"
   gradientUnits="userSpaceOnUse"
   x1="132.1313"
   y1="285.52521"
   x2="102.1964"
   y2="311.53409">
			<stop
   offset="0"
   style="stop-color:#FFFFFF"
   id="stop4295" />

			<stop
   offset="1"
   style="stop-color:#F0B631"
   id="stop4297" />

		</linearGradient>

		<path
   style="opacity:0.3;fill:url(#SVGID_00000006699831896823509850000018222740918114664082_)"
   d="M 137.263,327.595 H 86.489 l 4.708,-53.033 c 8.754,-5.951 32.586,-5.951 41.349,-0.009 z"
   id="path2555" />

		<path
   style="fill:#484d51"
   d="M 130.558,275.542 H 93.194 l 0.258,-0.167 c -0.17,-5.245 36.681,-5.191 36.843,-0.003 z"
   id="path2557" />

		<path
   style="fill:#1b3338"
   d="m 143.85,332.022 v 82.508 c 0,9.879 -63.956,9.879 -63.956,0 v -82.508 c 0,-1.751 0.934,-3.284 2.567,-4.617 4.209,-3.411 13.063,-5.434 22.779,-6.06 6.35,-0.408 13.063,-0.218 19.087,0.562 7.321,0.943 13.608,2.776 16.946,5.488 1.642,1.334 2.577,2.876 2.577,4.627 z"
   id="path2559" />

		<path
   style="fill:#232323"
   d="m 143.85,414.53 c 0,9.879 -63.956,9.879 -63.956,0 z"
   id="path2561" />

		<path
   style="fill:#f0b631"
   d="m 149.292,424.248 v 10.58 c 0,9.89 -34.4,13.08 -56.55,9.56 -10.53,-1.68 -18.29,-4.86 -18.29,-9.56 v -10.58 z"
   id="path2563" />

		<path
   style="fill:#f0b631"
   d="m 89.323,346.026 -6.86,-18.615 c -1.81,-0.705 -3.775,1.715 -2.566,4.609 l 6.591,16.84 z"
   id="path2565" />

		<path
   style="fill:#f0b631"
   d="m 77.338,366.281 c -1.202,0 -1.202,4.649 0,4.649 l 10.439,-1.037 v -3.952 z"
   id="path2567" />

		<path
   style="fill:#f0b631"
   d="m 146.758,366.281 c 1.202,0 1.202,4.649 0,4.649 l -10.438,-1.037 v -3.952 z"
   id="path2569" />

		<path
   style="fill:#f0b631"
   d="m 134.055,346.026 6.86,-18.615 c 1.81,-0.705 3.775,1.715 2.566,4.609 l -6.591,16.84 z"
   id="path2571" />

		<path
   style="fill:#f0b631"
   d="m 89.363,392.359 -6.502,28.133 c -1.771,1.052 -3.759,-2.563 -2.623,-6.904 l 6.25,-25.572 z"
   id="path2573" />

		
			<linearGradient
   id="linearGradient4337"
   gradientUnits="userSpaceOnUse"
   x1="94.036697"
   y1="407.31741"
   x2="127.1467"
   y2="407.31741">
			<stop
   offset="0"
   style="stop-color:#FFFFFF"
   id="stop4311" />

			<stop
   offset="0.1856"
   style="stop-color:#C4C4C4"
   id="stop4313" />

			<stop
   offset="0.4039"
   style="stop-color:#858585"
   id="stop4315" />

			<stop
   offset="0.5638"
   style="stop-color:#5E5E5E"
   id="stop4317" />

			<stop
   offset="0.6468"
   style="stop-color:#4F4F4F"
   id="stop4319" />

			<stop
   offset="0.7343"
   style="stop-color:#525252"
   id="stop4321" />

			<stop
   offset="0.7916"
   style="stop-color:#5A5A5A"
   id="stop4323" />

			<stop
   offset="0.8404"
   style="stop-color:#696969"
   id="stop4325" />

			<stop
   offset="0.8843"
   style="stop-color:#7F7F7F"
   id="stop4327" />

			<stop
   offset="0.925"
   style="stop-color:#9A9A9A"
   id="stop4329" />

			<stop
   offset="0.9628"
   style="stop-color:#BBBBBB"
   id="stop4331" />

			<stop
   offset="0.9986"
   style="stop-color:#E2E2E2"
   id="stop4333" />

			<stop
   offset="1"
   style="stop-color:#E4E4E4"
   id="stop4335" />

		</linearGradient>

		<path
   style="opacity:0.2;fill:url(#SVGID_00000142882584370892005700000001376514826282407606_)"
   d="m 127.147,421.13 c -8.765,0.951 -17.81,1.063 -27.134,0.336 l -5.976,-27.299 c 6.35,-0.408 22.42,-2.043 28.443,-1.263 z"
   id="path2602" />

		<path
   style="fill:#f0b631"
   d="m 134.014,392.359 6.502,28.133 c 1.771,1.052 3.759,-2.563 2.623,-6.904 l -6.25,-25.572 z"
   id="path2604" />

		<path
   style="fill:#f7af2f"
   d="m 134.604,393.762 c -15.84,1.248 -31.061,1.373 -45.458,0 -1.468,0 -2.658,-1.19 -2.658,-2.658 v -42.42 c 0,-1.468 1.19,-2.658 2.658,-2.658 14.397,-1.643 29.619,-1.493 45.458,0 1.468,0 2.658,1.19 2.658,2.658 v 42.42 c 0,1.468 -1.19,2.658 -2.658,2.658 z"
   id="path2606" />

		
			<linearGradient
   id="linearGradient4346"
   gradientUnits="userSpaceOnUse"
   x1="121.9936"
   y1="354.4166"
   x2="107.7801"
   y2="376.14301">
			<stop
   offset="0"
   style="stop-color:#FFFFFF"
   id="stop4342" />

			<stop
   offset="1"
   style="stop-color:#F0B631"
   id="stop4344" />

		</linearGradient>

		<path
   style="opacity:0.3;fill:url(#SVGID_00000131352995025937250860000007459000531558213303_)"
   d="m 129.654,391.253 c -12.39,1.117 -24.296,1.229 -35.557,0 -1.148,0 -2.079,-1.065 -2.079,-2.38 v -37.979 c 0,-1.314 0.931,-2.38 2.079,-2.38 11.261,-1.471 23.168,-1.337 35.557,0 1.148,0 2.079,1.065 2.079,2.38 v 37.979 c 0,1.314 -0.931,2.38 -2.079,2.38 z"
   id="path2613" />

		<path
   style="fill:#eaa10f"
   d="m 74.776,286.107 v 145.86 c 0,0 -7.177,-96.69 0,-145.86 z"
   id="path2615" />

		<path
   style="fill:#eaa10f"
   d="m 148.974,286.107 v 145.86 c 0,0 7.177,-96.69 0,-145.86 z"
   id="path2617" />

		<g
   id="g2643">
			<g
   id="g2629">
				<g
   id="g2625">
					<path
   style="fill:#232323"
   d="m 65.979,339.986 10.738,-2.63 -0.357,-1.457 c -0.487,-1.986 -2.491,-3.202 -4.477,-2.716 l -3.545,0.868 c -1.986,0.486 -3.202,2.491 -2.716,4.477 z"
   id="path2619" />

					<path
   style="fill:#4d4d4d"
   d="m 65.979,339.986 10.738,-2.63 0.187,0.766 c 0.04,0.164 -0.06,0.329 -0.224,0.37 l -10.144,2.484 c -0.164,0.04 -0.329,-0.06 -0.37,-0.224 z"
   id="path2621" />

					<path
   style="fill:#232323"
   d="m 78.025,337.86 v 0 c 0.662,0.007 0.719,-5.217 0.057,-5.225 l -1.216,0.222 c -0.609,0.111 -0.999,0.712 -0.852,1.314 l 0.71,2.9 c 0.142,0.577 0.724,0.931 1.301,0.789 z"
   id="path2623" />

				</g>

				<path
   style="fill:#232323"
   d="m 77.338,335.793 c 0,0.748 -0.607,1.355 -1.355,1.355 -0.748,0 -1.355,-0.607 -1.355,-1.355 0,-0.748 0.606,-1.355 1.355,-1.355 0.749,0 1.355,0.607 1.355,1.355 z"
   id="path2627" />

			</g>

			<g
   id="g2641">
				<g
   id="g2637">
					<path
   style="fill:#232323"
   d="m 157.663,339.986 -10.738,-2.63 0.357,-1.457 c 0.486,-1.986 2.491,-3.202 4.477,-2.716 l 3.545,0.868 c 1.986,0.486 3.202,2.491 2.716,4.477 z"
   id="path2631" />

					<path
   style="fill:#4d4d4d"
   d="m 157.663,339.986 -10.738,-2.63 -0.188,0.766 c -0.04,0.164 0.06,0.329 0.224,0.37 l 10.145,2.484 c 0.164,0.04 0.329,-0.06 0.37,-0.224 z"
   id="path2633" />

					<path
   style="fill:#232323"
   d="m 145.617,337.86 v 0 c -0.975,0.011 -1.032,-5.214 -0.057,-5.225 l 1.217,0.222 c 0.609,0.111 0.999,0.712 0.851,1.314 l -0.71,2.9 c -0.142,0.577 -0.724,0.931 -1.301,0.789 z"
   id="path2635" />

				</g>

				<circle
   style="fill:#232323"
   cx="147.15199"
   cy="336.276"
   r="1.355"
   id="circle2639" />

			</g>

		</g>

		<path
   style="fill:#232323"
   d="M 141.291,327.595 82.46,327.414 v -0.009 c 10.296,-8.355 48.516,-8.355 58.812,-0.009 0.01,0.126 0.019,0.199 0.019,0.199 z"
   id="path2645" />

		
			<linearGradient
   id="linearGradient4391"
   gradientUnits="userSpaceOnUse"
   x1="102.4278"
   y1="334.46661"
   x2="128.2733"
   y2="334.46661">
			<stop
   offset="0"
   style="stop-color:#FFFFFF"
   id="stop4365" />

			<stop
   offset="0.1856"
   style="stop-color:#C4C4C4"
   id="stop4367" />

			<stop
   offset="0.4039"
   style="stop-color:#858585"
   id="stop4369" />

			<stop
   offset="0.5638"
   style="stop-color:#5E5E5E"
   id="stop4371" />

			<stop
   offset="0.6468"
   style="stop-color:#4F4F4F"
   id="stop4373" />

			<stop
   offset="0.7343"
   style="stop-color:#525252"
   id="stop4375" />

			<stop
   offset="0.7916"
   style="stop-color:#5A5A5A"
   id="stop4377" />

			<stop
   offset="0.8404"
   style="stop-color:#696969"
   id="stop4379" />

			<stop
   offset="0.8843"
   style="stop-color:#7F7F7F"
   id="stop4381" />

			<stop
   offset="0.925"
   style="stop-color:#9A9A9A"
   id="stop4383" />

			<stop
   offset="0.9628"
   style="stop-color:#BBBBBB"
   id="stop4385" />

			<stop
   offset="0.9986"
   style="stop-color:#E2E2E2"
   id="stop4387" />

			<stop
   offset="1"
   style="stop-color:#E4E4E4"
   id="stop4389" />

		</linearGradient>

		<path
   style="opacity:0.2;fill:url(#SVGID_00000029029206429519678240000011154704495206564023_)"
   d="m 128.273,347.798 h -25.845 l 2.812,-26.453 c 6.35,-0.408 13.063,-0.218 19.087,0.562 z"
   id="path2674" />

		
			<linearGradient
   id="linearGradient4398"
   gradientUnits="userSpaceOnUse"
   x1="79.607101"
   y1="279.28479"
   x2="79.114098"
   y2="313.2124">
			<stop
   offset="0"
   style="stop-color:#FFFFFF"
   id="stop4394" />

			<stop
   offset="1"
   style="stop-color:#F0B631"
   id="stop4396" />

		</linearGradient>

		<path
   style="opacity:0.5;fill:url(#SVGID_00000163787894882171462670000011373278242725749945_)"
   d="m 81.681,293.881 c 0,7.698 -1.024,20.147 -2.287,20.147 -1.263,0 -2.287,-12.449 -2.287,-20.147 0,-7.698 1.024,-7.729 2.287,-7.729 1.263,0.001 2.287,0.032 2.287,7.729 z"
   id="path2681" />

		
			<linearGradient
   id="linearGradient4405"
   gradientUnits="userSpaceOnUse"
   x1="144.2296"
   y1="279.2851"
   x2="143.7366"
   y2="313.2124">
			<stop
   offset="0"
   style="stop-color:#FFFFFF"
   id="stop4401" />

			<stop
   offset="1"
   style="stop-color:#F0B631"
   id="stop4403" />

		</linearGradient>

		<path
   style="opacity:0.5;fill:url(#SVGID_00000111153525759806720460000005115077558085225651_)"
   d="m 146.044,293.881 c 0,7.698 -0.908,20.147 -2.028,20.147 -1.12,0 -2.028,-12.449 -2.028,-20.147 0,-7.698 0.908,-7.729 2.028,-7.729 1.12,0.001 2.028,0.032 2.028,7.729 z"
   id="path2688" />

		<path
   style="fill:#0c0c0c"
   d="m 82.209,327.128 c 2.071,-1.732 4.465,-2.758 6.89,-3.69 2.445,-0.87 4.959,-1.53 7.501,-2.009 5.088,-0.964 10.274,-1.187 15.411,-1.178 1.285,0.014 2.569,0.05 3.853,0.117 1.285,0.043 2.568,0.131 3.851,0.226 2.565,0.195 5.133,0.446 7.675,0.899 2.544,0.428 5.076,0.985 7.55,1.789 1.227,0.435 2.45,0.89 3.615,1.515 1.142,0.631 2.36,1.29 3.082,2.64 l -0.694,0.315 c -0.579,-0.893 -1.746,-1.518 -2.846,-2.021 -1.123,-0.517 -2.328,-0.884 -3.531,-1.228 -2.417,-0.677 -4.907,-1.135 -7.414,-1.458 -5.009,-0.686 -10.088,-0.952 -15.164,-0.98 -5.071,-0.096 -10.136,0.137 -15.124,0.91 -2.495,0.371 -4.959,0.927 -7.359,1.671 -2.386,0.725 -4.795,1.675 -6.795,3.053 z"
   id="path2690" />

		<path
   style="fill:#e5e5e5"
   d="m 77.402,365.941 v 0 c -0.634,0 -1.149,-0.514 -1.149,-1.149 v -6.321 c 0,-0.634 0.514,-1.149 1.149,-1.149 v 0 c 0.634,0 1.149,0.514 1.149,1.149 v 6.321 c 0,0.635 -0.514,1.149 -1.149,1.149 z"
   id="path2692" />

		<path
   style="fill:#e5e5e5"
   d="m 146.526,365.941 v 0 c -0.635,0 -1.149,-0.514 -1.149,-1.149 v -6.321 c 0,-0.634 0.514,-1.149 1.149,-1.149 v 0 c 0.634,0 1.149,0.514 1.149,1.149 v 6.321 c 0,0.635 -0.515,1.149 -1.149,1.149 z"
   id="path2694" />

		<path
   style="fill:#e5e5e5"
   d="m 77.402,411.579 v 0 c -0.634,0 -1.149,-0.514 -1.149,-1.149 v -6.321 c 0,-0.634 0.514,-1.149 1.149,-1.149 v 0 c 0.634,0 1.149,0.514 1.149,1.149 v 6.321 c 0,0.634 -0.514,1.149 -1.149,1.149 z"
   id="path2696" />

		<path
   style="fill:#e5e5e5"
   d="m 146.526,411.579 v 0 c -0.635,0 -1.149,-0.514 -1.149,-1.149 v -6.321 c 0,-0.634 0.514,-1.149 1.149,-1.149 v 0 c 0.634,0 1.149,0.514 1.149,1.149 v 6.321 c 0,0.634 -0.515,1.149 -1.149,1.149 z"
   id="path2698" />

		<rect
   x="110.237"
   y="423.53299"
   style="fill:#f0b631"
   width="2.5220001"
   height="13.62"
   id="rect2700" />

		<g
   id="g2706">
			<path
   style="fill:#d11207"
   d="m 77.692,433.618 c -0.38,-0.09 -0.76,-0.14 -1.13,-0.14 -0.74,0 -1.46,0.18 -2.11,0.5 v 0.85 c 0,3.773 5.007,6.564 12.428,8.389 0.326,-2.265 0.77,-4.551 1.512,-6.981 z"
   id="path2702" />

			<path
   style="fill:#ef7911"
   d="m 90.202,436.678 -1.809,-0.443 c -0.743,2.43 -1.186,4.716 -1.512,6.981 1.823,0.448 3.785,0.84 5.862,1.171 0.45,-0.54 0.79,-1.19 0.97,-1.92 0.629,-2.559 -0.951,-5.159 -3.511,-5.789 z"
   id="path2704" />

		</g>

		<g
   id="g2712">
			<path
   style="fill:#d11207"
   d="m 146.052,433.618 c 0.38,-0.09 0.76,-0.14 1.13,-0.14 0.74,0 1.46,0.18 2.11,0.5 v 0.85 c 0,3.773 -5.007,6.564 -12.428,8.389 -0.326,-2.265 -0.77,-4.551 -1.512,-6.981 z"
   id="path2708" />

			<path
   style="fill:#ef7911"
   d="m 133.542,436.678 1.809,-0.443 c 0.743,2.43 1.186,4.716 1.512,6.981 -1.823,0.448 -3.785,0.84 -5.862,1.171 -0.45,-0.54 -0.79,-1.19 -0.97,-1.92 -0.629,-2.559 0.951,-5.159 3.511,-5.789 z"
   id="path2710" />

		</g>

		<rect
   x="102.428"
   y="350.67099"
   style="fill:#fbfbfb"
   width="18.566999"
   height="6.652"
   id="rect2714" />

		<g
   id="g2730">
			<rect
   x="101.584"
   y="428.28699"
   style="fill:#232323"
   width="2.8940001"
   height="2.8940001"
   id="rect2716" />

			<rect
   x="107.371"
   y="428.28699"
   style="fill:#232323"
   width="2.8940001"
   height="2.8940001"
   id="rect2718" />

			<rect
   x="113.158"
   y="428.28699"
   style="fill:#232323"
   width="2.8940001"
   height="2.8940001"
   id="rect2720" />

			<rect
   x="118.946"
   y="428.28699"
   style="fill:#232323"
   width="2.8940001"
   height="2.8940001"
   id="rect2722" />

			<rect
   x="104.478"
   y="431.181"
   style="fill:#232323"
   width="2.8940001"
   height="2.8940001"
   id="rect2724" />

			<rect
   x="110.265"
   y="431.181"
   style="fill:#232323"
   width="2.8940001"
   height="2.8940001"
   id="rect2726" />

			<rect
   x="116.052"
   y="431.181"
   style="fill:#232323"
   width="2.8940001"
   height="2.8940001"
   id="rect2728" />

		</g>

		<g
   id="g2746">
			<rect
   x="101.584"
   y="309.07999"
   style="fill:#232323"
   width="2.8940001"
   height="2.8940001"
   id="rect2732" />

			<rect
   x="107.371"
   y="309.07999"
   style="fill:#232323"
   width="2.8940001"
   height="2.8940001"
   id="rect2734" />

			<rect
   x="113.158"
   y="309.07999"
   style="fill:#232323"
   width="2.8940001"
   height="2.8940001"
   id="rect2736" />

			<rect
   x="118.946"
   y="309.07999"
   style="fill:#232323"
   width="2.8940001"
   height="2.8940001"
   id="rect2738" />

			<rect
   x="104.478"
   y="311.97299"
   style="fill:#232323"
   width="2.8940001"
   height="2.8940001"
   id="rect2740" />

			<rect
   x="110.265"
   y="311.97299"
   style="fill:#232323"
   width="2.8940001"
   height="2.8940001"
   id="rect2742" />

			<rect
   x="116.052"
   y="311.97299"
   style="fill:#232323"
   width="2.8940001"
   height="2.8940001"
   id="rect2744" />

		</g>

		<path
   style="fill:#fbfbfb"
   d="m 87.772,278.128 -11.17,4.94 v -2.4 c 0,-2.42 2.08,-4.42 5.54,-6.01 l 0.48,-0.21 c 1.28,-0.56 2.74,-1.06 4.34,-1.51 0.94,0.1 1.83,4.75 0.81,5.19 z"
   id="path2748" />

		<path
   style="fill:#fbfbfb"
   d="m 147.122,280.758 v 2.4 l -11.17,-4.94 c -1.02,-0.44 -0.13,-5.09 0.81,-5.19 0.09,-0.01 0.18,-0.02 0.27,-0.02 h 0.01 c 6.974,1.455 10.08,4.995 10.08,7.75 z"
   id="path2750" />

		<g
   id="g2760">
			<path
   style="fill:#232323"
   d="m 103.154,300.62 h -1.364 c -0.267,0 -0.401,-0.126 -0.401,-0.379 v -1.169 h 5.012 c 0.267,0 0.401,0.126 0.401,0.379 v 1.169 h -1.754 v 5.953 h -1.494 c -0.267,0 -0.4,-0.126 -0.4,-0.379 z"
   id="path2752" />

			<path
   style="fill:#232323"
   d="m 110.211,304.733 h -1.515 c -0.044,0.332 -0.083,0.661 -0.119,0.985 -0.036,0.325 -0.062,0.61 -0.076,0.855 h -1.45 c -0.101,0 -0.182,-0.033 -0.244,-0.097 -0.061,-0.065 -0.092,-0.173 -0.092,-0.325 0,-0.065 0.004,-0.133 0.011,-0.205 0.008,-0.072 0.018,-0.141 0.033,-0.206 0.194,-1.183 0.415,-2.32 0.66,-3.41 0.245,-1.09 0.555,-2.176 0.931,-3.258 h 1.96 c 0.144,0 0.245,0.036 0.303,0.108 0.058,0.072 0.101,0.148 0.13,0.227 0.325,0.967 0.62,2.062 0.888,3.285 0.267,1.223 0.505,2.517 0.714,3.88 h -1.559 c -0.231,0 -0.364,-0.13 -0.401,-0.39 z m -0.758,-4.275 c -0.151,0.606 -0.272,1.142 -0.363,1.607 -0.09,0.465 -0.175,0.907 -0.255,1.326 h 1.234 c -0.079,-0.419 -0.164,-0.861 -0.254,-1.326 -0.09,-0.466 -0.211,-1.001 -0.362,-1.607 z"
   id="path2754" />

			<path
   style="fill:#232323"
   d="m 113.35,306.573 c -0.116,0 -0.202,-0.034 -0.26,-0.103 -0.057,-0.069 -0.086,-0.157 -0.086,-0.265 0,-0.036 0.003,-0.074 0.011,-0.114 0.007,-0.039 0.018,-0.081 0.032,-0.124 0.195,-0.635 0.422,-1.216 0.682,-1.743 0.26,-0.527 0.541,-1.036 0.844,-1.526 -0.325,-0.541 -0.624,-1.118 -0.898,-1.732 -0.275,-0.613 -0.506,-1.245 -0.693,-1.894 h 1.711 c 0.123,0 0.214,0.03 0.276,0.092 0.061,0.062 0.11,0.153 0.146,0.276 0.101,0.412 0.211,0.806 0.33,1.186 0.119,0.379 0.244,0.734 0.374,1.066 0.145,-0.346 0.287,-0.734 0.428,-1.164 0.14,-0.429 0.266,-0.915 0.374,-1.456 h 1.515 c 0.094,0 0.173,0.03 0.238,0.092 0.065,0.062 0.097,0.153 0.097,0.276 0,0.058 -0.007,0.114 -0.021,0.168 -0.015,0.054 -0.033,0.11 -0.054,0.168 -0.13,0.404 -0.314,0.864 -0.552,1.38 -0.238,0.516 -0.52,1.045 -0.844,1.586 0.346,0.534 0.669,1.131 0.969,1.792 0.299,0.66 0.543,1.34 0.73,2.04 h -1.721 c -0.137,0 -0.236,-0.04 -0.298,-0.119 -0.061,-0.079 -0.113,-0.202 -0.157,-0.368 -0.087,-0.332 -0.193,-0.694 -0.319,-1.088 -0.127,-0.393 -0.273,-0.796 -0.439,-1.207 -0.094,0.231 -0.186,0.473 -0.276,0.725 -0.09,0.253 -0.175,0.503 -0.254,0.752 -0.079,0.249 -0.15,0.485 -0.211,0.709 -0.062,0.224 -0.11,0.422 -0.146,0.595 z"
   id="path2756" />

			<path
   style="fill:#232323"
   d="m 119.974,306.573 c -0.267,0 -0.4,-0.126 -0.4,-0.379 v -7.122 h 1.494 c 0.267,0 0.4,0.126 0.4,0.379 v 7.122 z"
   id="path2758" />

		</g>

	</g>
  </g>
</svg>
