<?xml version="1.0" encoding="UTF-8" standalone="no"?>
<svg
   version="1.1"
   viewBox="0.00 0.00 115.00 118.00"
   id="svg1111"
   sodipodi:docname="vel30.svg"
   inkscape:version="1.2.1 (9c6d41e410, 2022-07-14)"
   xmlns:inkscape="http://www.inkscape.org/namespaces/inkscape"
   xmlns:sodipodi="http://sodipodi.sourceforge.net/DTD/sodipodi-0.dtd"
   xmlns="http://www.w3.org/2000/svg"
   xmlns:svg="http://www.w3.org/2000/svg">
  <defs
     id="defs1115" />
  <sodipodi:namedview
     id="namedview1113"
     pagecolor="#ffffff"
     bordercolor="#666666"
     borderopacity="1.0"
     inkscape:showpageshadow="2"
     inkscape:pageopacity="0.0"
     inkscape:pagecheckerboard="0"
     inkscape:deskcolor="#d1d1d1"
     showgrid="false"
     inkscape:zoom="4.6694915"
     inkscape:cx="53.110708"
     inkscape:cy="37.905626"
     inkscape:window-width="1366"
     inkscape:window-height="705"
     inkscape:window-x="-8"
     inkscape:window-y="-8"
     inkscape:window-maximized="1"
     inkscape:current-layer="svg1111" />
  <ellipse
     style="opacity:1;fill:#ffffff;fill-rule:evenodd;stroke:none;stroke-width:1.124;stroke-linecap:square;stroke-dasharray:8.99205, 4.49603"
     id="path1399"
     cx="59.529999"
     cy="58.34"
     rx="37.650002"
     ry="37.649998" />
  <path
     fill="#c72d24"
     d="   M 106.07 58.48   A 46.66 46.66 0.0 0 1 59.41 105.14   A 46.66 46.66 0.0 0 1 12.75 58.48   A 46.66 46.66 0.0 0 1 59.41 11.82   A 46.66 46.66 0.0 0 1 106.07 58.48   Z   M 97.18 58.34   A 37.65 37.65 0.0 0 0 59.53 20.69   A 37.65 37.65 0.0 0 0 21.88 58.34   A 37.65 37.65 0.0 0 0 59.53 95.99   A 37.65 37.65 0.0 0 0 97.18 58.34   Z"
     id="path1099" />
  <path
     fill="#ffffff"
     d="   M 97.18 58.34   A 37.65 37.65 0.0 0 1 59.53 95.99   A 37.65 37.65 0.0 0 1 21.88 58.34   A 37.65 37.65 0.0 0 1 59.53 20.69   A 37.65 37.65 0.0 0 1 97.18 58.34   Z   M 41.88 53.65   A 0.36 0.35 -18.6 0 1 41.27 53.35   C 41.85 50.05 41.91 43.23 46.92 43.28   Q 49.97 43.31 50.52 46.98   A 0.72 0.71 -7.2 0 0 51.30 47.58   L 56.69 46.99   Q 57.27 46.93 57.14 46.36   Q 56.54 43.57 55.06 41.20   C 51.40 35.33 42.78 36.25 38.64 40.96   C 33.14 47.21 33.39 62.02 36.35 69.76   C 39.89 79.03 52.02 79.74 56.34 70.82   C 59.36 64.59 57.94 54.31 50.83 51.67   Q 45.57 49.72 41.88 53.65   Z   M 64.10 67.79   C 65.83 77.05 77.86 81.13 83.16 72.13   C 87.38 64.96 87.31 48.33 82.34 40.92   C 78.85 35.72 70.59 36.11 67.02 40.47   C 62.18 46.38 62.78 60.71 64.10 67.79   Z"
     id="path1101" />
  <text
     xml:space="preserve"
     style="font-weight:bold;font-size:56px;line-height:1.25;font-family:Goldman;-inkscape-font-specification:'Goldman Bold';letter-spacing:0px;word-spacing:0px"
     x="26.490002"
     y="78.651909"
     id="text1288"><tspan
       sodipodi:role="line"
       id="tspan1286"
       x="26.490002"
       y="78.651909"
       style="font-style:normal;font-variant:normal;font-weight:bold;font-stretch:normal;font-size:56px;font-family:Lato;-inkscape-font-specification:'Lato Bold'">30</tspan></text>
</svg>
