<?xml version="1.0" encoding="UTF-8" standalone="no"?>
<!DOCTYPE svg PUBLIC "-//W3C//DTD SVG 1.1//EN" "http://www.w3.org/Graphics/SVG/1.1/DTD/svg11.dtd">
<svg xmlns="http://www.w3.org/2000/svg" version="1.1" viewBox="0 0 107 106">
<g stroke-width="2.00" fill="none" stroke-linecap="butt">
<path stroke="#857023" vector-effect="non-scaling-stroke" d="
  M 58.7591 4.9777
  A 7.94 7.94 0.0 0 0 47.5302 4.9777
  L 5.2877 47.2202
  A 7.94 7.94 0.0 0 0 5.2877 58.4491
  L 47.6009 100.7623
  A 7.94 7.94 0.0 0 0 58.8298 100.7623
  L 101.0723 58.5198
  A 7.94 7.94 0.0 0 0 101.0723 47.2909
  L 58.7591 4.9777"
/>
<path stroke="#857023" vector-effect="non-scaling-stroke" d="
  M 56.1572 7.5642
  A 3.97 3.97 0.0 0 0 50.5428 7.5642
  L 7.9042 50.2028
  A 3.97 3.97 0.0 0 0 7.9042 55.8172
  L 50.5428 98.4558
  A 3.97 3.97 0.0 0 0 56.1572 98.4558
  L 98.7958 55.8172
  A 3.97 3.97 0.0 0 0 98.7958 50.2028
  L 56.1572 7.5642"
/>
<path stroke="#f6d725" vector-effect="non-scaling-stroke" d="
  M 36.15 25.29
  Q 33.18 27.76 30.54 30.60
  C 29.81 31.39 29.54 32.16 30.07 33.11
  A 1.10 1.10 0.0 0 0 31.61 33.50
  C 35.22 31.22 40.15 26.47 44.52 26.77
  Q 45.14 26.81 45.29 27.41
  Q 45.63 28.79 46.98 28.77
  Q 47.56 28.76 47.69 29.33
  Q 47.98 30.62 46.90 31.47
  Q 46.47 31.81 46.49 32.37
  L 46.53 33.02
  Q 46.56 33.69 47.23 33.63
  C 54.77 32.99 62.64 34.10 70.19 34.57
  C 74.29 34.82 74.16 37.59 74.36 40.70
  Q 75.07 52.18 75.02 63.70
  C 75.00 67.73 74.22 71.75 73.70 75.84
  A 0.96 0.96 0.0 0 0 75.42 76.54
  C 78.12 72.99 80.28 70.66 84.21 67.18
  C 86.64 65.02 88.57 62.32 90.91 60.24
  Q 94.19 57.31 97.19 54.01
  Q 97.53 53.63 97.42 53.14
  C 96.70 49.95 93.66 48.18 90.11 45.75
  Q 89.68 45.46 89.52 44.97
  Q 88.96 43.29 88.41 42.84
  C 84.75 39.91 82.24 36.02 78.55 33.23
  C 76.06 31.35 74.60 28.94 72.11 27.08
  C 69.52 25.13 66.28 21.13 64.19 18.53
  C 61.86 15.62 58.86 13.10 56.06 10.54
  Q 55.69 10.20 55.53 9.73
  C 54.81 7.59 53.15 8.51 52.03 9.67
  C 46.84 15.01 41.95 20.49 36.15 25.29"
/>
<path stroke="#c2af38" vector-effect="non-scaling-stroke" d="
  M 44.00 55.54
  L 44.75 55.79"
/>
<path stroke="#f6d725" vector-effect="non-scaling-stroke" d="
  M 44.75 55.79
  Q 43.76 57.25 41.72 57.21
  Q 41.19 57.20 40.75 56.91
  L 19.41 42.82
  A 0.59 0.58 42.1 0 0 18.72 42.85
  C 16.73 44.46 9.68 50.59 9.66 53.30
  Q 9.65 54.91 11.15 56.33
  Q 18.48 63.26 25.83 70.12
  C 27.26 71.45 29.42 72.22 30.79 74.19
  C 34.79 79.93 40.95 84.94 45.93 89.88
  C 48.84 92.76 48.30 95.88 53.19 97.41
  Q 53.66 97.56 54.01 97.23
  L 69.10 83.11
  A 1.09 1.09 0.0 0 0 67.94 81.30
  C 64.58 82.68 58.17 83.85 58.09 78.05
  Q 57.89 64.88 58.00 51.59
  Q 58.01 50.90 57.31 50.87
  L 52.87 50.70
  Q 52.34 50.68 52.06 50.24
  Q 51.05 48.65 49.05 49.03
  Q 48.45 49.15 48.28 49.74
  Q 48.07 50.49 47.33 50.69
  Q 46.37 50.96 47.13 51.61
  C 49.02 53.22 48.08 56.04 45.50 55.46"
/>
<path stroke="#c2af38" vector-effect="non-scaling-stroke" d="
  M 45.50 55.46
  L 45.04 53.00"
/>
<path stroke="#796a24" vector-effect="non-scaling-stroke" d="
  M 45.04 53.00
  L 44.71 49.50"
/>
<path stroke="#c2af38" vector-effect="non-scaling-stroke" d="
  M 44.71 49.50
  C 44.58 48.28 45.45 48.08 46.39 48.43
  Q 46.84 48.59 47.31 48.57
  C 48.05 48.55 59.21 47.65 60.21 50.00"
/>
<path stroke="#796a24" vector-effect="non-scaling-stroke" d="
  M 60.21 50.00
  L 60.28 78.67
  Q 60.28 79.16 60.76 79.18
  L 71.19 79.54
  Q 71.75 79.56 71.75 79.00
  L 71.75 38.38
  A 2.45 2.45 0.0 0 0 69.32 35.93
  L 44.97 35.70
  Q 44.49 35.70 44.54 35.22
  L 45.10 29.29
  A 0.90 0.90 0.0 0 0 43.74 28.43
  L 22.73 40.92
  A 0.37 0.37 0.0 0 0 22.71 41.55
  L 44.00 55.54"
/>
<path stroke="#4d4618" vector-effect="non-scaling-stroke" d="
  M 60.21 50.00
  C 60.12 48.50 59.16 47.59 57.59 47.64
  Q 51.54 47.82 45.47 47.68
  Q 44.99 47.67 44.72 48.07
  Q 44.26 48.77 44.71 49.50"
/>
<path stroke="#4d4618" vector-effect="non-scaling-stroke" d="
  M 45.04 53.00
  L 44.00 55.54"
/>
<path stroke="#cab319" vector-effect="non-scaling-stroke" d="
  M 44.75 55.79
  L 45.50 55.46"
/>
</g>
<path fill="#eed344" d="
  M 43.19 7.19
  Q 45.95 4.43 47.48 3.31
  Q 47.86 3.04 48.01 2.59
  C 48.37 1.50 48.83 1.05 50.00 0.83
  C 54.00 0.08 56.54 0.91 59.52 3.88
  Q 76.78 21.16 94.07 38.40
  Q 94.42 38.75 94.92 38.75
  L 95.43 38.75
  Q 95.99 38.75 95.99 39.30
  Q 96.00 40.68 97.39 41.86
  Q 102.36 46.07 105.46 50.81
  C 108.00 54.71 100.83 61.33 98.24 63.75
  C 93.97 67.72 89.73 72.73 86.10 76.27
  C 81.79 80.47 77.61 84.34 73.25 88.85
  C 68.21 94.07 62.76 98.80 57.68 103.95
  Q 53.88 107.80 49.30 103.94
  C 40.60 96.62 35.30 90.27 28.52 83.85
  C 22.70 78.34 17.10 72.63 11.31 67.10
  C 9.68 65.55 7.46 62.54 4.69 60.87
  Q 4.22 60.59 3.95 60.12
  L 1.04 55.26
  Q 0.79 54.85 0.78 54.36
  C 0.67 48.38 6.56 43.47 10.99 39.30
  C 22.00 28.93 32.48 17.87 43.19 7.19
  Z
  M 58.7591 4.9777
  A 7.94 7.94 0.0 0 0 47.5302 4.9777
  L 5.2877 47.2202
  A 7.94 7.94 0.0 0 0 5.2877 58.4491
  L 47.6009 100.7623
  A 7.94 7.94 0.0 0 0 58.8298 100.7623
  L 101.0723 58.5198
  A 7.94 7.94 0.0 0 0 101.0723 47.2909
  L 58.7591 4.9777
  Z"
/>
<path fill="#1b0c01" d="
  M 101.0723 47.2909
  A 7.94 7.94 0.0 0 1 101.0723 58.5198
  L 58.8298 100.7623
  A 7.94 7.94 0.0 0 1 47.6009 100.7623
  L 5.2877 58.4491
  A 7.94 7.94 0.0 0 1 5.2877 47.2202
  L 47.5302 4.9777
  A 7.94 7.94 0.0 0 1 58.7591 4.9777
  L 101.0723 47.2909
  Z
  M 56.1572 7.5642
  A 3.97 3.97 0.0 0 0 50.5428 7.5642
  L 7.9042 50.2028
  A 3.97 3.97 0.0 0 0 7.9042 55.8172
  L 50.5428 98.4558
  A 3.97 3.97 0.0 0 0 56.1572 98.4558
  L 98.7958 55.8172
  A 3.97 3.97 0.0 0 0 98.7958 50.2028
  L 56.1572 7.5642
  Z"
/>
<path fill="#eed344" d="
  M 98.7958 50.2028
  A 3.97 3.97 0.0 0 1 98.7958 55.8172
  L 56.1572 98.4558
  A 3.97 3.97 0.0 0 1 50.5428 98.4558
  L 7.9042 55.8172
  A 3.97 3.97 0.0 0 1 7.9042 50.2028
  L 50.5428 7.5642
  A 3.97 3.97 0.0 0 1 56.1572 7.5642
  L 98.7958 50.2028
  Z
  M 36.15 25.29
  Q 33.18 27.76 30.54 30.60
  C 29.81 31.39 29.54 32.16 30.07 33.11
  A 1.10 1.10 0.0 0 0 31.61 33.50
  C 35.22 31.22 40.15 26.47 44.52 26.77
  Q 45.14 26.81 45.29 27.41
  Q 45.63 28.79 46.98 28.77
  Q 47.56 28.76 47.69 29.33
  Q 47.98 30.62 46.90 31.47
  Q 46.47 31.81 46.49 32.37
  L 46.53 33.02
  Q 46.56 33.69 47.23 33.63
  C 54.77 32.99 62.64 34.10 70.19 34.57
  C 74.29 34.82 74.16 37.59 74.36 40.70
  Q 75.07 52.18 75.02 63.70
  C 75.00 67.73 74.22 71.75 73.70 75.84
  A 0.96 0.96 0.0 0 0 75.42 76.54
  C 78.12 72.99 80.28 70.66 84.21 67.18
  C 86.64 65.02 88.57 62.32 90.91 60.24
  Q 94.19 57.31 97.19 54.01
  Q 97.53 53.63 97.42 53.14
  C 96.70 49.95 93.66 48.18 90.11 45.75
  Q 89.68 45.46 89.52 44.97
  Q 88.96 43.29 88.41 42.84
  C 84.75 39.91 82.24 36.02 78.55 33.23
  C 76.06 31.35 74.60 28.94 72.11 27.08
  C 69.52 25.13 66.28 21.13 64.19 18.53
  C 61.86 15.62 58.86 13.10 56.06 10.54
  Q 55.69 10.20 55.53 9.73
  C 54.81 7.59 53.15 8.51 52.03 9.67
  C 46.84 15.01 41.95 20.49 36.15 25.29
  Z
  M 44.00 55.54
  L 44.75 55.79
  Q 43.76 57.25 41.72 57.21
  Q 41.19 57.20 40.75 56.91
  L 19.41 42.82
  A 0.59 0.58 42.1 0 0 18.72 42.85
  C 16.73 44.46 9.68 50.59 9.66 53.30
  Q 9.65 54.91 11.15 56.33
  Q 18.48 63.26 25.83 70.12
  C 27.26 71.45 29.42 72.22 30.79 74.19
  C 34.79 79.93 40.95 84.94 45.93 89.88
  C 48.84 92.76 48.30 95.88 53.19 97.41
  Q 53.66 97.56 54.01 97.23
  L 69.10 83.11
  A 1.09 1.09 0.0 0 0 67.94 81.30
  C 64.58 82.68 58.17 83.85 58.09 78.05
  Q 57.89 64.88 58.00 51.59
  Q 58.01 50.90 57.31 50.87
  L 52.87 50.70
  Q 52.34 50.68 52.06 50.24
  Q 51.05 48.65 49.05 49.03
  Q 48.45 49.15 48.28 49.74
  Q 48.07 50.49 47.33 50.69
  Q 46.37 50.96 47.13 51.61
  C 49.02 53.22 48.08 56.04 45.50 55.46
  L 45.04 53.00
  L 44.71 49.50
  C 44.58 48.28 45.45 48.08 46.39 48.43
  Q 46.84 48.59 47.31 48.57
  C 48.05 48.55 59.21 47.65 60.21 50.00
  L 60.28 78.67
  Q 60.28 79.16 60.76 79.18
  L 71.19 79.54
  Q 71.75 79.56 71.75 79.00
  L 71.75 38.38
  A 2.45 2.45 0.0 0 0 69.32 35.93
  L 44.97 35.70
  Q 44.49 35.70 44.54 35.22
  L 45.10 29.29
  A 0.90 0.90 0.0 0 0 43.74 28.43
  L 22.73 40.92
  A 0.37 0.37 0.0 0 0 22.71 41.55
  L 44.00 55.54
  Z"
/>
<path fill="#fdda05" d="
  M 36.15 25.29
  C 41.95 20.49 46.84 15.01 52.03 9.67
  C 53.15 8.51 54.81 7.59 55.53 9.73
  Q 55.69 10.20 56.06 10.54
  C 58.86 13.10 61.86 15.62 64.19 18.53
  C 66.28 21.13 69.52 25.13 72.11 27.08
  C 74.60 28.94 76.06 31.35 78.55 33.23
  C 82.24 36.02 84.75 39.91 88.41 42.84
  Q 88.96 43.29 89.52 44.97
  Q 89.68 45.46 90.11 45.75
  C 93.66 48.18 96.70 49.95 97.42 53.14
  Q 97.53 53.63 97.19 54.01
  Q 94.19 57.31 90.91 60.24
  C 88.57 62.32 86.64 65.02 84.21 67.18
  C 80.28 70.66 78.12 72.99 75.42 76.54
  A 0.96 0.96 0.0 0 1 73.70 75.84
  C 74.22 71.75 75.00 67.73 75.02 63.70
  Q 75.07 52.18 74.36 40.70
  C 74.16 37.59 74.29 34.82 70.19 34.57
  C 62.64 34.10 54.77 32.99 47.23 33.63
  Q 46.56 33.69 46.53 33.02
  L 46.49 32.37
  Q 46.47 31.81 46.90 31.47
  Q 47.98 30.62 47.69 29.33
  Q 47.56 28.76 46.98 28.77
  Q 45.63 28.79 45.29 27.41
  Q 45.14 26.81 44.52 26.77
  C 40.15 26.47 35.22 31.22 31.61 33.50
  A 1.10 1.10 0.0 0 1 30.07 33.11
  C 29.54 32.16 29.81 31.39 30.54 30.60
  Q 33.18 27.76 36.15 25.29
  Z"
/>
<path fill="#030103" d="
  M 60.21 50.00
  C 60.12 48.50 59.16 47.59 57.59 47.64
  Q 51.54 47.82 45.47 47.68
  Q 44.99 47.67 44.72 48.07
  Q 44.26 48.77 44.71 49.50
  L 45.04 53.00
  L 44.00 55.54
  L 22.71 41.55
  A 0.37 0.37 0.0 0 1 22.73 40.92
  L 43.74 28.43
  A 0.90 0.90 0.0 0 1 45.10 29.29
  L 44.54 35.22
  Q 44.49 35.70 44.97 35.70
  L 69.32 35.93
  A 2.45 2.45 0.0 0 1 71.75 38.38
  L 71.75 79.00
  Q 71.75 79.56 71.19 79.54
  L 60.76 79.18
  Q 60.28 79.16 60.28 78.67
  L 60.21 50.00
  Z"
/>
<path fill="#fdda05" d="
  M 44.75 55.79
  L 45.50 55.46
  C 48.08 56.04 49.02 53.22 47.13 51.61
  Q 46.37 50.96 47.33 50.69
  Q 48.07 50.49 48.28 49.74
  Q 48.45 49.15 49.05 49.03
  Q 51.05 48.65 52.06 50.24
  Q 52.34 50.68 52.87 50.70
  L 57.31 50.87
  Q 58.01 50.90 58.00 51.59
  Q 57.89 64.88 58.09 78.05
  C 58.17 83.85 64.58 82.68 67.94 81.30
  A 1.09 1.09 0.0 0 1 69.10 83.11
  L 54.01 97.23
  Q 53.66 97.56 53.19 97.41
  C 48.30 95.88 48.84 92.76 45.93 89.88
  C 40.95 84.94 34.79 79.93 30.79 74.19
  C 29.42 72.22 27.26 71.45 25.83 70.12
  Q 18.48 63.26 11.15 56.33
  Q 9.65 54.91 9.66 53.30
  C 9.68 50.59 16.73 44.46 18.72 42.85
  A 0.59 0.58 42.1 0 1 19.41 42.82
  L 40.75 56.91
  Q 41.19 57.20 41.72 57.21
  Q 43.76 57.25 44.75 55.79
  Z"
/>
<path fill="#968b2c" d="
  M 60.21 50.00
  C 59.21 47.65 48.05 48.55 47.31 48.57
  Q 46.84 48.59 46.39 48.43
  C 45.45 48.08 44.58 48.28 44.71 49.50
  Q 44.26 48.77 44.72 48.07
  Q 44.99 47.67 45.47 47.68
  Q 51.54 47.82 57.59 47.64
  C 59.16 47.59 60.12 48.50 60.21 50.00
  Z"
/>
<path fill="#968b2c" d="
  M 45.04 53.00
  L 45.50 55.46
  L 44.75 55.79
  L 44.00 55.54
  L 45.04 53.00
  Z"
/>
</svg>
