<?xml version="1.0" encoding="UTF-8" standalone="no"?>
<!DOCTYPE svg PUBLIC "-//W3C//DTD SVG 1.1//EN" "http://www.w3.org/Graphics/SVG/1.1/DTD/svg11.dtd">
<svg xmlns="http://www.w3.org/2000/svg" version="1.1" viewBox="0 0 105 104">
<g stroke-width="2.00" fill="none" stroke-linecap="butt">
<path stroke="#817234" vector-effect="non-scaling-stroke" d="
  M 57.7148 4.7580
  A 7.55 7.55 0.0 0 0 47.0375 4.7394
  L 5.2880 46.3435
  A 7.55 7.55 0.0 0 0 5.2693 57.0208
  L 46.8452 98.7420
  A 7.55 7.55 0.0 0 0 57.5225 98.7606
  L 99.2720 57.1565
  A 7.55 7.55 0.0 0 0 99.2907 46.4792
  L 57.7148 4.7580"
/>
<path stroke="#857221" vector-effect="non-scaling-stroke" d="
  M 55.5761 7.7165
  A 4.49 4.49 0.0 0 0 49.2263 7.7165
  L 8.2565 48.6863
  A 4.49 4.49 0.0 0 0 8.2565 55.0361
  L 49.1839 95.9635
  A 4.49 4.49 0.0 0 0 55.5337 95.9635
  L 96.5035 54.9937
  A 4.49 4.49 0.0 0 0 96.5035 48.6439
  L 55.5761 7.7165"
/>
<path stroke="#7a6c22" vector-effect="non-scaling-stroke" d="
  M 46.00 29.79
  Q 47.24 32.66 49.25 34.44
  Q 50.37 35.44 49.02 36.07
  Q 40.51 40.08 37.25 48.54"
/>
<path stroke="#af9b2e" vector-effect="non-scaling-stroke" d="
  M 37.25 48.54
  C 33.93 53.77 35.49 68.67 35.98 77.86
  Q 36.01 78.42 36.57 78.42
  L 40.25 78.46"
/>
<path stroke="#7a6c22" vector-effect="non-scaling-stroke" d="
  M 40.25 78.46
  L 47.13 78.26
  Q 47.66 78.25 47.62 77.72
  Q 46.74 66.45 47.30 55.10
  C 47.53 50.51 51.13 47.55 54.97 45.79
  Q 55.37 45.61 55.56 46.00
  L 58.21 51.36
  A 1.17 1.17 0.0 0 0 60.23 51.49
  L 61.75 49.21"
/>
<path stroke="#af9b2e" vector-effect="non-scaling-stroke" d="
  M 61.75 49.21
  Q 64.95 44.76 66.46 39.50"
/>
<path stroke="#7a6c22" vector-effect="non-scaling-stroke" d="
  M 66.46 39.50
  L 70.91 30.62
  A 1.04 1.04 0.0 0 0 69.95 29.12
  Q 63.53 29.32 57.77 29.25
  C 54.77 29.22 51.24 28.23 47.75 28.41"
/>
<path stroke="#f6d722" vector-effect="non-scaling-stroke" d="
  M 47.75 28.41
  Q 51.59 26.38 55.91 26.50
  C 60.60 26.62 64.43 25.75 69.11 27.04
  A 0.77 0.77 0.0 0 0 69.86 25.76
  L 53.51 9.28
  Q 53.08 8.85 52.53 9.10
  C 49.84 10.35 47.84 12.85 46.23 14.21
  Q 43.12 16.84 40.18 19.65
  Q 39.82 20.00 39.72 20.48
  Q 39.21 22.97 37.05 23.73
  Q 36.54 23.92 36.17 24.31
  C 32.50 28.23 28.53 31.50 24.84 35.65
  C 20.67 40.36 15.58 44.36 10.97 48.67
  C 9.49 50.07 9.46 51.39 9.90 53.28
  Q 10.01 53.79 10.39 54.14
  L 29.85 72.43
  Q 30.92 73.43 31.81 72.27
  L 33.34 70.26
  Q 33.63 69.88 33.59 69.40
  C 33.31 66.17 33.76 45.34 36.27 43.96
  Q 36.73 43.71 36.98 43.25
  Q 38.90 39.69 42.04 37.10
  Q 42.44 36.77 42.95 36.78
  Q 45.31 36.80 47.00 35.13
  Q 47.36 34.78 47.01 34.41
  L 45.40 32.76
  Q 45.06 32.40 45.00 31.92
  Q 44.83 30.49 46.00 29.79"
/>
<path stroke="#816f04" vector-effect="non-scaling-stroke" d="
  M 47.75 28.41
  L 46.00 29.79"
/>
<path stroke="#393210" vector-effect="non-scaling-stroke" d="
  M 66.46 39.50
  Q 63.43 44.04 61.75 49.21"
/>
<path stroke="#393210" vector-effect="non-scaling-stroke" d="
  M 40.25 78.46
  Q 38.65 77.75 37.07 78.04
  A 0.48 0.48 0.0 0 1 36.50 77.56
  Q 36.76 65.31 36.53 53.93
  C 36.50 52.12 37.26 50.47 37.25 48.54"
/>
<path stroke="#f6d722" vector-effect="non-scaling-stroke" d="
  M 88.74 44.29
  C 83.38 39.63 79.81 35.13 75.15 30.69
  A 1.05 1.05 0.0 0 0 73.38 31.53
  Q 73.63 34.55 71.51 36.56
  Q 71.12 36.93 71.03 37.47
  C 70.20 42.71 67.07 45.07 64.62 48.81
  Q 63.07 51.16 61.26 53.37
  A 2.17 2.16 40.1 0 1 58.16 53.63
  Q 55.87 51.64 53.15 50.58
  A 1.08 1.06 -68.6 0 0 51.76 51.20
  C 50.74 53.84 49.74 56.13 49.77 59.04
  Q 49.85 65.80 50.31 72.55
  C 50.50 75.33 49.73 77.34 49.13 79.91
  A 2.09 2.09 0.0 0 1 46.79 81.50
  L 39.71 80.47
  Q 38.82 80.34 38.98 81.22
  C 39.69 84.97 42.13 85.91 44.91 88.12
  C 47.30 90.02 48.68 93.04 51.41 95.05
  Q 51.81 95.34 52.24 95.11
  Q 57.96 92.11 60.61 86.32
  Q 60.82 85.87 61.25 85.63
  L 65.70 83.21
  Q 66.06 83.02 66.28 82.68
  C 68.58 79.33 72.00 76.73 74.47 73.97
  C 77.02 71.12 79.85 69.12 82.34 65.93
  C 82.85 65.28 87.00 61.68 86.99 61.63
  Q 86.98 61.11 87.48 60.92
  Q 88.97 60.38 89.48 58.92
  Q 89.64 58.45 90.05 58.17
  Q 93.90 55.42 93.50 50.52
  Q 93.46 50.03 93.15 49.63
  C 91.70 47.74 90.59 45.89 88.74 44.29"
/>
</g>
<path fill="#e7d466" d="
  M 23.18 77.26
  Q 22.31 77.02 21.68 76.38
  Q 21.35 76.04 21.20 75.59
  Q 20.75 74.25 19.20 72.79
  C 15.39 69.23 10.27 62.49 7.47 61.96
  Q 7.03 61.88 6.96 61.43
  Q 6.75 60.08 5.62 59.25
  Q 5.17 58.92 4.95 58.39
  Q 4.11 56.38 2.37 55.04
  Q 1.88 54.66 1.77 54.05
  Q 1.09 50.04 3.16 46.52
  Q 3.42 46.08 3.89 45.89
  C 5.42 45.25 5.67 43.85 6.57 42.94
  Q 26.30 22.98 46.05 3.05
  Q 50.12 -1.05 55.30 1.42
  C 57.78 2.59 59.89 5.21 61.94 7.30
  C 63.54 8.94 65.95 9.44 67.20 12.04
  C 68.61 14.93 70.71 15.09 72.72 17.01
  Q 73.07 17.34 74.46 19.66
  C 75.55 21.48 77.49 21.89 78.78 23.19
  Q 80.78 25.19 82.82 27.15
  Q 83.14 27.46 83.23 27.90
  Q 83.49 29.23 84.85 29.68
  Q 85.37 29.85 85.75 30.23
  Q 92.72 37.21 99.74 44.14
  C 104.57 48.91 104.86 53.56 100.21 58.39
  C 86.27 72.87 72.60 86.29 58.63 99.92
  C 54.48 103.97 51.25 104.25 46.82 100.45
  C 45.65 99.45 44.05 98.87 43.11 97.73
  Q 39.75 93.65 36.12 89.78
  Q 35.79 89.42 35.31 89.30
  C 33.28 88.76 33.34 85.71 30.27 84.82
  Q 29.77 84.68 29.44 84.28
  L 24.07 77.84
  Q 23.72 77.41 23.18 77.26
  Z
  M 57.7148 4.7580
  A 7.55 7.55 0.0 0 0 47.0375 4.7394
  L 5.2880 46.3435
  A 7.55 7.55 0.0 0 0 5.2693 57.0208
  L 46.8452 98.7420
  A 7.55 7.55 0.0 0 0 57.5225 98.7606
  L 99.2720 57.1565
  A 7.55 7.55 0.0 0 0 99.2907 46.4792
  L 57.7148 4.7580
  Z"
/>
<path fill="#1b0f02" d="
  M 99.2907 46.4792
  A 7.55 7.55 0.0 0 1 99.2720 57.1565
  L 57.5225 98.7606
  A 7.55 7.55 0.0 0 1 46.8452 98.7420
  L 5.2693 57.0208
  A 7.55 7.55 0.0 0 1 5.2880 46.3435
  L 47.0375 4.7394
  A 7.55 7.55 0.0 0 1 57.7148 4.7580
  L 99.2907 46.4792
  Z
  M 55.5761 7.7165
  A 4.49 4.49 0.0 0 0 49.2263 7.7165
  L 8.2565 48.6863
  A 4.49 4.49 0.0 0 0 8.2565 55.0361
  L 49.1839 95.9635
  A 4.49 4.49 0.0 0 0 55.5337 95.9635
  L 96.5035 54.9937
  A 4.49 4.49 0.0 0 0 96.5035 48.6439
  L 55.5761 7.7165
  Z"
/>
<path fill="#efd440" d="
  M 96.5035 48.6439
  A 4.49 4.49 0.0 0 1 96.5035 54.9937
  L 55.5337 95.9635
  A 4.49 4.49 0.0 0 1 49.1839 95.9635
  L 8.2565 55.0361
  A 4.49 4.49 0.0 0 1 8.2565 48.6863
  L 49.2263 7.7165
  A 4.49 4.49 0.0 0 1 55.5761 7.7165
  L 96.5035 48.6439
  Z
  M 46.00 29.79
  Q 47.24 32.66 49.25 34.44
  Q 50.37 35.44 49.02 36.07
  Q 40.51 40.08 37.25 48.54
  C 33.93 53.77 35.49 68.67 35.98 77.86
  Q 36.01 78.42 36.57 78.42
  L 40.25 78.46
  L 47.13 78.26
  Q 47.66 78.25 47.62 77.72
  Q 46.74 66.45 47.30 55.10
  C 47.53 50.51 51.13 47.55 54.97 45.79
  Q 55.37 45.61 55.56 46.00
  L 58.21 51.36
  A 1.17 1.17 0.0 0 0 60.23 51.49
  L 61.75 49.21
  Q 64.95 44.76 66.46 39.50
  L 70.91 30.62
  A 1.04 1.04 0.0 0 0 69.95 29.12
  Q 63.53 29.32 57.77 29.25
  C 54.77 29.22 51.24 28.23 47.75 28.41
  Q 51.59 26.38 55.91 26.50
  C 60.60 26.62 64.43 25.75 69.11 27.04
  A 0.77 0.77 0.0 0 0 69.86 25.76
  L 53.51 9.28
  Q 53.08 8.85 52.53 9.10
  C 49.84 10.35 47.84 12.85 46.23 14.21
  Q 43.12 16.84 40.18 19.65
  Q 39.82 20.00 39.72 20.48
  Q 39.21 22.97 37.05 23.73
  Q 36.54 23.92 36.17 24.31
  C 32.50 28.23 28.53 31.50 24.84 35.65
  C 20.67 40.36 15.58 44.36 10.97 48.67
  C 9.49 50.07 9.46 51.39 9.90 53.28
  Q 10.01 53.79 10.39 54.14
  L 29.85 72.43
  Q 30.92 73.43 31.81 72.27
  L 33.34 70.26
  Q 33.63 69.88 33.59 69.40
  C 33.31 66.17 33.76 45.34 36.27 43.96
  Q 36.73 43.71 36.98 43.25
  Q 38.90 39.69 42.04 37.10
  Q 42.44 36.77 42.95 36.78
  Q 45.31 36.80 47.00 35.13
  Q 47.36 34.78 47.01 34.41
  L 45.40 32.76
  Q 45.06 32.40 45.00 31.92
  Q 44.83 30.49 46.00 29.79
  Z
  M 88.74 44.29
  C 83.38 39.63 79.81 35.13 75.15 30.69
  A 1.05 1.05 0.0 0 0 73.38 31.53
  Q 73.63 34.55 71.51 36.56
  Q 71.12 36.93 71.03 37.47
  C 70.20 42.71 67.07 45.07 64.62 48.81
  Q 63.07 51.16 61.26 53.37
  A 2.17 2.16 40.1 0 1 58.16 53.63
  Q 55.87 51.64 53.15 50.58
  A 1.08 1.06 -68.6 0 0 51.76 51.20
  C 50.74 53.84 49.74 56.13 49.77 59.04
  Q 49.85 65.80 50.31 72.55
  C 50.50 75.33 49.73 77.34 49.13 79.91
  A 2.09 2.09 0.0 0 1 46.79 81.50
  L 39.71 80.47
  Q 38.82 80.34 38.98 81.22
  C 39.69 84.97 42.13 85.91 44.91 88.12
  C 47.30 90.02 48.68 93.04 51.41 95.05
  Q 51.81 95.34 52.24 95.11
  Q 57.96 92.11 60.61 86.32
  Q 60.82 85.87 61.25 85.63
  L 65.70 83.21
  Q 66.06 83.02 66.28 82.68
  C 68.58 79.33 72.00 76.73 74.47 73.97
  C 77.02 71.12 79.85 69.12 82.34 65.93
  C 82.85 65.28 87.00 61.68 86.99 61.63
  Q 86.98 61.11 87.48 60.92
  Q 88.97 60.38 89.48 58.92
  Q 89.64 58.45 90.05 58.17
  Q 93.90 55.42 93.50 50.52
  Q 93.46 50.03 93.15 49.63
  C 91.70 47.74 90.59 45.89 88.74 44.29
  Z"
/>
<path fill="#fdda04" d="
  M 47.75 28.41
  L 46.00 29.79
  Q 44.83 30.49 45.00 31.92
  Q 45.06 32.40 45.40 32.76
  L 47.01 34.41
  Q 47.36 34.78 47.00 35.13
  Q 45.31 36.80 42.95 36.78
  Q 42.44 36.77 42.04 37.10
  Q 38.90 39.69 36.98 43.25
  Q 36.73 43.71 36.27 43.96
  C 33.76 45.34 33.31 66.17 33.59 69.40
  Q 33.63 69.88 33.34 70.26
  L 31.81 72.27
  Q 30.92 73.43 29.85 72.43
  L 10.39 54.14
  Q 10.01 53.79 9.90 53.28
  C 9.46 51.39 9.49 50.07 10.97 48.67
  C 15.58 44.36 20.67 40.36 24.84 35.65
  C 28.53 31.50 32.50 28.23 36.17 24.31
  Q 36.54 23.92 37.05 23.73
  Q 39.21 22.97 39.72 20.48
  Q 39.82 20.00 40.18 19.65
  Q 43.12 16.84 46.23 14.21
  C 47.84 12.85 49.84 10.35 52.53 9.10
  Q 53.08 8.85 53.51 9.28
  L 69.86 25.76
  A 0.77 0.77 0.0 0 1 69.11 27.04
  C 64.43 25.75 60.60 26.62 55.91 26.50
  Q 51.59 26.38 47.75 28.41
  Z"
/>
<path fill="#040304" d="
  M 47.75 28.41
  C 51.24 28.23 54.77 29.22 57.77 29.25
  Q 63.53 29.32 69.95 29.12
  A 1.04 1.04 0.0 0 1 70.91 30.62
  L 66.46 39.50
  Q 63.43 44.04 61.75 49.21
  L 60.23 51.49
  A 1.17 1.17 0.0 0 1 58.21 51.36
  L 55.56 46.00
  Q 55.37 45.61 54.97 45.79
  C 51.13 47.55 47.53 50.51 47.30 55.10
  Q 46.74 66.45 47.62 77.72
  Q 47.66 78.25 47.13 78.26
  L 40.25 78.46
  Q 38.65 77.75 37.07 78.04
  A 0.48 0.48 0.0 0 1 36.50 77.56
  Q 36.76 65.31 36.53 53.93
  C 36.50 52.12 37.26 50.47 37.25 48.54
  Q 40.51 40.08 49.02 36.07
  Q 50.37 35.44 49.25 34.44
  Q 47.24 32.66 46.00 29.79
  L 47.75 28.41
  Z"
/>
<path fill="#fdda04" d="
  M 75.15 30.69
  C 79.81 35.13 83.38 39.63 88.74 44.29
  C 90.59 45.89 91.70 47.74 93.15 49.63
  Q 93.46 50.03 93.50 50.52
  Q 93.90 55.42 90.05 58.17
  Q 89.64 58.45 89.48 58.92
  Q 88.97 60.38 87.48 60.92
  Q 86.98 61.11 86.99 61.63
  C 87.00 61.68 82.85 65.28 82.34 65.93
  C 79.85 69.12 77.02 71.12 74.47 73.97
  C 72.00 76.73 68.58 79.33 66.28 82.68
  Q 66.06 83.02 65.70 83.21
  L 61.25 85.63
  Q 60.82 85.87 60.61 86.32
  Q 57.96 92.11 52.24 95.11
  Q 51.81 95.34 51.41 95.05
  C 48.68 93.04 47.30 90.02 44.91 88.12
  C 42.13 85.91 39.69 84.97 38.98 81.22
  Q 38.82 80.34 39.71 80.47
  L 46.79 81.50
  A 2.09 2.09 0.0 0 0 49.13 79.91
  C 49.73 77.34 50.50 75.33 50.31 72.55
  Q 49.85 65.80 49.77 59.04
  C 49.74 56.13 50.74 53.84 51.76 51.20
  A 1.08 1.06 -68.6 0 1 53.15 50.58
  Q 55.87 51.64 58.16 53.63
  A 2.17 2.16 40.1 0 0 61.26 53.37
  Q 63.07 51.16 64.62 48.81
  C 67.07 45.07 70.20 42.71 71.03 37.47
  Q 71.12 36.93 71.51 36.56
  Q 73.63 34.55 73.38 31.53
  A 1.05 1.05 0.0 0 1 75.15 30.69
  Z"
/>
<path fill="#6e611c" d="
  M 66.46 39.50
  Q 64.95 44.76 61.75 49.21
  Q 63.43 44.04 66.46 39.50
  Z"
/>
<path fill="#6e611c" d="
  M 37.25 48.54
  C 37.26 50.47 36.50 52.12 36.53 53.93
  Q 36.76 65.31 36.50 77.56
  A 0.48 0.48 0.0 0 0 37.07 78.04
  Q 38.65 77.75 40.25 78.46
  L 36.57 78.42
  Q 36.01 78.42 35.98 77.86
  C 35.49 68.67 33.93 53.77 37.25 48.54
  Z"
/>
</svg>
