<?xml version="1.0" encoding="UTF-8" standalone="no"?>
<!DOCTYPE svg PUBLIC "-//W3C//DTD SVG 1.1//EN" "http://www.w3.org/Graphics/SVG/1.1/DTD/svg11.dtd">
<svg xmlns="http://www.w3.org/2000/svg" version="1.1" viewBox="0 0 104 104">
<g stroke-width="2.00" fill="none" stroke-linecap="butt">
<path stroke="#857437" vector-effect="non-scaling-stroke" d="
  M 56.7690 4.6820
  A 7.30 7.30 0.0 0 0 46.4452 4.6820
  L 4.5420 46.5852
  A 7.30 7.30 0.0 0 0 4.5420 56.9090
  L 46.4310 98.7980
  A 7.30 7.30 0.0 0 0 56.7548 98.7980
  L 98.6580 56.8948
  A 7.30 7.30 0.0 0 0 98.6580 46.5710
  L 56.7690 4.6820"
/>
<path stroke="#847023" vector-effect="non-scaling-stroke" d="
  M 54.7966 7.7536
  A 4.49 4.49 0.0 0 0 48.4468 7.7536
  L 7.5336 48.6668
  A 4.49 4.49 0.0 0 0 7.5336 55.0166
  L 48.5034 95.9864
  A 4.49 4.49 0.0 0 0 54.8532 95.9864
  L 95.7664 55.0732
  A 4.49 4.49 0.0 0 0 95.7664 48.7234
  L 54.7966 7.7536"
/>
<path stroke="#7a6c24" vector-effect="non-scaling-stroke" d="
  M 53.50 35.54
  L 42.56 18.65
  Q 42.20 18.08 41.85 18.66
  L 30.43 37.67
  A 0.99 0.99 0.0 0 0 31.48 39.15
  L 36.97 38.01
  Q 37.39 37.93 37.40 38.36
  L 37.54 57.53
  A 3.00 2.99 89.7 0 0 40.53 60.50
  L 56.75 60.50
  Q 57.25 60.50 57.25 61.00
  L 57.25 79.04
  Q 57.25 79.72 57.93 79.73
  L 67.65 79.93"
/>
<path stroke="#b3982b" vector-effect="non-scaling-stroke" d="
  M 67.65 79.93
  C 69.52 80.80 68.55 76.58 68.21 75.75"
/>
<path stroke="#7a6c24" vector-effect="non-scaling-stroke" d="
  M 68.21 75.75
  Q 68.21 75.62 68.21 75.50"
/>
<path stroke="#b3982b" vector-effect="non-scaling-stroke" d="
  M 68.21 75.50
  L 68.21 67.75"
/>
<path stroke="#7a6c24" vector-effect="non-scaling-stroke" d="
  M 68.21 67.75
  Q 68.32 59.78 68.07 51.82
  Q 67.99 49.50 65.94 49.60
  Q 56.04 50.04 47.81 48.50"
/>
<path stroke="#b3982b" vector-effect="non-scaling-stroke" d="
  M 47.81 48.50
  L 48.42 38.67
  Q 48.44 38.30 48.81 38.26
  L 49.25 38.21"
/>
<path stroke="#7a6c24" vector-effect="non-scaling-stroke" d="
  M 49.25 38.21
  L 53.50 39.29"
/>
<path stroke="#f6d726" vector-effect="non-scaling-stroke" d="
  M 53.50 39.29
  L 50.16 43.63
  Q 49.87 44.00 49.78 44.47
  C 49.27 47.22 51.12 47.35 53.22 46.89
  Q 58.86 45.66 64.44 47.32
  Q 64.91 47.45 65.38 47.33
  C 72.91 45.44 70.60 55.11 70.49 58.74
  Q 70.20 67.62 70.25 75.84
  A 0.80 0.80 0.0 0 0 71.69 76.31
  Q 76.10 70.39 81.49 65.79
  C 86.57 61.46 90.30 57.09 95.01 52.87
  Q 95.43 52.49 95.13 52.02
  C 91.66 46.52 86.69 43.16 82.67 38.74
  Q 79.18 34.91 75.38 31.39
  C 67.56 24.15 60.27 16.42 52.53 9.06
  Q 52.13 8.67 51.67 9.00
  Q 47.33 12.10 44.06 16.36
  Q 43.77 16.72 44.04 17.10
  L 55.38 33.18
  Q 55.72 33.66 55.40 34.16
  Q 54.68 35.26 53.50 35.54"
/>
<path stroke="#816f05" vector-effect="non-scaling-stroke" d="
  M 53.50 39.29
  Q 55.69 37.63 53.50 35.54"
/>
<path stroke="#3f300b" vector-effect="non-scaling-stroke" d="
  M 49.25 38.21
  Q 48.85 37.91 48.36 37.81
  Q 47.87 37.72 47.87 38.21
  L 47.81 48.50"
/>
<path stroke="#3f300b" vector-effect="non-scaling-stroke" d="
  M 68.21 67.75
  Q 67.48 71.64 68.21 75.50"
/>
<path stroke="#3f300b" vector-effect="non-scaling-stroke" d="
  M 68.21 75.75
  L 67.65 79.93"
/>
<path stroke="#f6d726" vector-effect="non-scaling-stroke" d="
  M 28.39 71.81
  Q 34.33 79.07 41.35 85.29
  C 43.89 87.54 47.02 91.22 50.53 93.61
  A 2.07 2.06 -54.7 0 0 53.35 93.12
  Q 54.85 91.08 57.27 90.42
  Q 57.76 90.28 57.97 89.82
  L 58.15 89.45
  Q 58.40 88.94 58.88 88.63
  Q 61.68 86.85 63.54 84.15
  Q 63.90 83.64 63.38 83.29
  Q 60.28 81.23 56.60 81.51
  A 1.73 1.72 87.9 0 1 54.74 79.78
  L 54.84 63.70
  A 1.34 1.33 -6.7 0 0 53.18 62.40
  C 49.02 63.44 42.81 62.56 38.66 62.49
  Q 38.18 62.48 37.78 62.22
  Q 35.33 60.65 35.41 58.26
  Q 35.67 50.60 34.50 45.50
  C 33.79 42.41 30.37 42.18 28.93 40.24
  C 26.58 37.09 29.81 33.19 32.05 31.02
  A 0.73 0.73 0.0 0 0 31.75 29.80
  C 28.37 28.82 26.30 32.98 24.26 35.17
  C 22.39 37.18 21.18 39.86 18.87 41.92
  C 16.68 43.87 13.29 44.56 11.29 47.95
  C 10.42 49.42 9.80 49.76 8.35 50.44
  Q 7.80 50.70 7.91 51.31
  C 8.40 54.17 21.11 65.19 26.97 70.99
  Q 27.21 71.22 27.53 71.30
  C 27.84 71.38 28.17 71.55 28.39 71.81"
/>
</g>
<path fill="#efdc6c" d="
  M 7.88 62.25
  L 7.49 62.25
  Q 7.01 62.25 6.92 61.77
  C 6.41 58.92 3.31 57.00 1.38 55.00
  Q 1.02 54.63 0.91 54.12
  Q -0.01 49.93 1.98 46.34
  Q 2.27 45.80 2.88 45.75
  Q 4.83 45.57 4.77 43.54
  Q 4.76 43.07 5.21 42.95
  Q 8.70 41.97 9.97 38.58
  Q 10.15 38.11 10.54 37.80
  C 12.40 36.36 13.37 35.57 15.02 33.46
  C 16.19 31.97 17.76 31.26 18.89 29.77
  Q 23.21 24.00 29.16 19.93
  Q 29.58 19.64 29.74 19.16
  C 30.63 16.47 32.95 15.66 34.41 13.92
  Q 38.07 9.53 42.57 6.05
  C 45.75 3.60 46.81 0.44 51.91 0.72
  C 53.34 0.80 54.80 0.32 55.91 1.81
  Q 56.22 2.23 56.66 2.50
  Q 58.96 3.90 60.75 5.89
  Q 61.15 6.33 61.27 6.91
  Q 61.62 8.59 63.24 8.88
  Q 63.73 8.97 64.09 9.32
  L 70.75 15.83
  Q 71.10 16.17 71.18 16.64
  C 71.70 19.55 75.29 19.91 77.10 22.94
  C 78.41 25.15 80.72 26.02 82.19 27.46
  Q 88.01 33.18 93.57 39.14
  C 94.67 40.32 96.10 42.63 98.05 43.91
  C 107.47 50.09 100.73 58.25 94.54 62.86
  Q 93.11 63.92 91.63 65.80
  C 89.85 68.05 87.66 69.39 85.84 71.67
  Q 84.55 73.27 82.94 74.54
  C 81.09 76.00 80.08 77.80 78.31 79.56
  Q 73.01 84.85 67.72 90.15
  Q 67.34 90.54 67.20 91.07
  Q 66.96 92.07 65.95 92.29
  Q 65.51 92.39 65.18 92.70
  C 62.61 95.14 61.99 98.17 58.33 99.53
  Q 57.86 99.71 57.56 100.11
  C 54.46 104.22 48.94 103.51 45.54 100.23
  Q 35.73 90.73 26.26 80.87
  Q 25.94 80.54 25.86 80.09
  Q 25.68 79.11 24.67 78.99
  Q 24.22 78.94 23.91 78.61
  L 21.24 75.88
  Q 20.83 75.46 20.75 74.89
  Q 20.61 73.99 19.56 73.99
  Q 19.12 73.99 19.05 73.55
  Q 18.75 71.54 16.80 71.03
  Q 16.35 70.92 16.13 70.50
  Q 14.16 66.71 10.34 64.77
  Q 9.83 64.51 9.75 63.94
  Q 9.63 62.94 8.55 62.41
  Q 8.23 62.25 7.88 62.25
  Z
  M 56.7690 4.6820
  A 7.30 7.30 0.0 0 0 46.4452 4.6820
  L 4.5420 46.5852
  A 7.30 7.30 0.0 0 0 4.5420 56.9090
  L 46.4310 98.7980
  A 7.30 7.30 0.0 0 0 56.7548 98.7980
  L 98.6580 56.8948
  A 7.30 7.30 0.0 0 0 98.6580 46.5710
  L 56.7690 4.6820
  Z"
/>
<path fill="#1a0c01" d="
  M 98.6580 46.5710
  A 7.30 7.30 0.0 0 1 98.6580 56.8948
  L 56.7548 98.7980
  A 7.30 7.30 0.0 0 1 46.4310 98.7980
  L 4.5420 56.9090
  A 7.30 7.30 0.0 0 1 4.5420 46.5852
  L 46.4452 4.6820
  A 7.30 7.30 0.0 0 1 56.7690 4.6820
  L 98.6580 46.5710
  Z
  M 54.7966 7.7536
  A 4.49 4.49 0.0 0 0 48.4468 7.7536
  L 7.5336 48.6668
  A 4.49 4.49 0.0 0 0 7.5336 55.0166
  L 48.5034 95.9864
  A 4.49 4.49 0.0 0 0 54.8532 95.9864
  L 95.7664 55.0732
  A 4.49 4.49 0.0 0 0 95.7664 48.7234
  L 54.7966 7.7536
  Z"
/>
<path fill="#eed444" d="
  M 95.7664 48.7234
  A 4.49 4.49 0.0 0 1 95.7664 55.0732
  L 54.8532 95.9864
  A 4.49 4.49 0.0 0 1 48.5034 95.9864
  L 7.5336 55.0166
  A 4.49 4.49 0.0 0 1 7.5336 48.6668
  L 48.4468 7.7536
  A 4.49 4.49 0.0 0 1 54.7966 7.7536
  L 95.7664 48.7234
  Z
  M 53.50 35.54
  L 42.56 18.65
  Q 42.20 18.08 41.85 18.66
  L 30.43 37.67
  A 0.99 0.99 0.0 0 0 31.48 39.15
  L 36.97 38.01
  Q 37.39 37.93 37.40 38.36
  L 37.54 57.53
  A 3.00 2.99 89.7 0 0 40.53 60.50
  L 56.75 60.50
  Q 57.25 60.50 57.25 61.00
  L 57.25 79.04
  Q 57.25 79.72 57.93 79.73
  L 67.65 79.93
  C 69.52 80.80 68.55 76.58 68.21 75.75
  Q 68.21 75.62 68.21 75.50
  L 68.21 67.75
  Q 68.32 59.78 68.07 51.82
  Q 67.99 49.50 65.94 49.60
  Q 56.04 50.04 47.81 48.50
  L 48.42 38.67
  Q 48.44 38.30 48.81 38.26
  L 49.25 38.21
  L 53.50 39.29
  L 50.16 43.63
  Q 49.87 44.00 49.78 44.47
  C 49.27 47.22 51.12 47.35 53.22 46.89
  Q 58.86 45.66 64.44 47.32
  Q 64.91 47.45 65.38 47.33
  C 72.91 45.44 70.60 55.11 70.49 58.74
  Q 70.20 67.62 70.25 75.84
  A 0.80 0.80 0.0 0 0 71.69 76.31
  Q 76.10 70.39 81.49 65.79
  C 86.57 61.46 90.30 57.09 95.01 52.87
  Q 95.43 52.49 95.13 52.02
  C 91.66 46.52 86.69 43.16 82.67 38.74
  Q 79.18 34.91 75.38 31.39
  C 67.56 24.15 60.27 16.42 52.53 9.06
  Q 52.13 8.67 51.67 9.00
  Q 47.33 12.10 44.06 16.36
  Q 43.77 16.72 44.04 17.10
  L 55.38 33.18
  Q 55.72 33.66 55.40 34.16
  Q 54.68 35.26 53.50 35.54
  Z
  M 28.39 71.81
  Q 34.33 79.07 41.35 85.29
  C 43.89 87.54 47.02 91.22 50.53 93.61
  A 2.07 2.06 -54.7 0 0 53.35 93.12
  Q 54.85 91.08 57.27 90.42
  Q 57.76 90.28 57.97 89.82
  L 58.15 89.45
  Q 58.40 88.94 58.88 88.63
  Q 61.68 86.85 63.54 84.15
  Q 63.90 83.64 63.38 83.29
  Q 60.28 81.23 56.60 81.51
  A 1.73 1.72 87.9 0 1 54.74 79.78
  L 54.84 63.70
  A 1.34 1.33 -6.7 0 0 53.18 62.40
  C 49.02 63.44 42.81 62.56 38.66 62.49
  Q 38.18 62.48 37.78 62.22
  Q 35.33 60.65 35.41 58.26
  Q 35.67 50.60 34.50 45.50
  C 33.79 42.41 30.37 42.18 28.93 40.24
  C 26.58 37.09 29.81 33.19 32.05 31.02
  A 0.73 0.73 0.0 0 0 31.75 29.80
  C 28.37 28.82 26.30 32.98 24.26 35.17
  C 22.39 37.18 21.18 39.86 18.87 41.92
  C 16.68 43.87 13.29 44.56 11.29 47.95
  C 10.42 49.42 9.80 49.76 8.35 50.44
  Q 7.80 50.70 7.91 51.31
  C 8.40 54.17 21.11 65.19 26.97 70.99
  Q 27.21 71.22 27.53 71.30
  C 27.84 71.38 28.17 71.55 28.39 71.81
  Z"
/>
<path fill="#fdda07" d="
  M 53.50 39.29
  Q 55.69 37.63 53.50 35.54
  Q 54.68 35.26 55.40 34.16
  Q 55.72 33.66 55.38 33.18
  L 44.04 17.10
  Q 43.77 16.72 44.06 16.36
  Q 47.33 12.10 51.67 9.00
  Q 52.13 8.67 52.53 9.06
  C 60.27 16.42 67.56 24.15 75.38 31.39
  Q 79.18 34.91 82.67 38.74
  C 86.69 43.16 91.66 46.52 95.13 52.02
  Q 95.43 52.49 95.01 52.87
  C 90.30 57.09 86.57 61.46 81.49 65.79
  Q 76.10 70.39 71.69 76.31
  A 0.80 0.80 0.0 0 1 70.25 75.84
  Q 70.20 67.62 70.49 58.74
  C 70.60 55.11 72.91 45.44 65.38 47.33
  Q 64.91 47.45 64.44 47.32
  Q 58.86 45.66 53.22 46.89
  C 51.12 47.35 49.27 47.22 49.78 44.47
  Q 49.87 44.00 50.16 43.63
  L 53.50 39.29
  Z"
/>
<path fill="#050303" d="
  M 53.50 35.54
  Q 55.69 37.63 53.50 39.29
  L 49.25 38.21
  Q 48.85 37.91 48.36 37.81
  Q 47.87 37.72 47.87 38.21
  L 47.81 48.50
  Q 56.04 50.04 65.94 49.60
  Q 67.99 49.50 68.07 51.82
  Q 68.32 59.78 68.21 67.75
  Q 67.48 71.64 68.21 75.50
  Q 68.21 75.62 68.21 75.75
  L 67.65 79.93
  L 57.93 79.73
  Q 57.25 79.72 57.25 79.04
  L 57.25 61.00
  Q 57.25 60.50 56.75 60.50
  L 40.53 60.50
  A 3.00 2.99 89.7 0 1 37.54 57.53
  L 37.40 38.36
  Q 37.39 37.93 36.97 38.01
  L 31.48 39.15
  A 0.99 0.99 0.0 0 1 30.43 37.67
  L 41.85 18.66
  Q 42.20 18.08 42.56 18.65
  L 53.50 35.54
  Z"
/>
<path fill="#fdda07" d="
  M 28.39 71.81
  C 28.17 71.55 27.84 71.38 27.53 71.30
  Q 27.21 71.22 26.97 70.99
  C 21.11 65.19 8.40 54.17 7.91 51.31
  Q 7.80 50.70 8.35 50.44
  C 9.80 49.76 10.42 49.42 11.29 47.95
  C 13.29 44.56 16.68 43.87 18.87 41.92
  C 21.18 39.86 22.39 37.18 24.26 35.17
  C 26.30 32.98 28.37 28.82 31.75 29.80
  A 0.73 0.73 0.0 0 1 32.05 31.02
  C 29.81 33.19 26.58 37.09 28.93 40.24
  C 30.37 42.18 33.79 42.41 34.50 45.50
  Q 35.67 50.60 35.41 58.26
  Q 35.33 60.65 37.78 62.22
  Q 38.18 62.48 38.66 62.49
  C 42.81 62.56 49.02 63.44 53.18 62.40
  A 1.34 1.33 -6.7 0 1 54.84 63.70
  L 54.74 79.78
  A 1.73 1.72 87.9 0 0 56.60 81.51
  Q 60.28 81.23 63.38 83.29
  Q 63.90 83.64 63.54 84.15
  Q 61.68 86.85 58.88 88.63
  Q 58.40 88.94 58.15 89.45
  L 57.97 89.82
  Q 57.76 90.28 57.27 90.42
  Q 54.85 91.08 53.35 93.12
  A 2.07 2.06 -54.7 0 1 50.53 93.61
  C 47.02 91.22 43.89 87.54 41.35 85.29
  Q 34.33 79.07 28.39 71.81
  Z"
/>
<path fill="#785c12" d="
  M 49.25 38.21
  L 48.81 38.26
  Q 48.44 38.30 48.42 38.67
  L 47.81 48.50
  L 47.87 38.21
  Q 47.87 37.72 48.36 37.81
  Q 48.85 37.91 49.25 38.21
  Z"
/>
<path fill="#785c12" d="
  M 68.21 67.75
  L 68.21 75.50
  Q 67.48 71.64 68.21 67.75
  Z"
/>
<path fill="#785c12" d="
  M 68.21 75.75
  C 68.55 76.58 69.52 80.80 67.65 79.93
  L 68.21 75.75
  Z"
/>
</svg>
