<?xml version="1.0" encoding="UTF-8" standalone="no"?>
<!DOCTYPE svg PUBLIC "-//W3C//DTD SVG 1.1//EN" "http://www.w3.org/Graphics/SVG/1.1/DTD/svg11.dtd">
<svg xmlns="http://www.w3.org/2000/svg" version="1.1" viewBox="0 0 107 104">
<g stroke-width="2.00" fill="none" stroke-linecap="butt">
<path stroke="#837023" vector-effect="non-scaling-stroke" d="
  M 59.6667 4.7033
  A 7.46 7.46 0.0 0 0 49.1167 4.7033
  L 7.3833 46.4367
  A 7.46 7.46 0.0 0 0 7.3833 56.9867
  L 49.1733 98.7767
  A 7.46 7.46 0.0 0 0 59.7233 98.7767
  L 101.4567 57.0433
  A 7.46 7.46 0.0 0 0 101.4567 46.4933
  L 59.6667 4.7033"
/>
<path stroke="#837023" vector-effect="non-scaling-stroke" d="
  M 98.7351 54.6531
  A 3.93 3.93 0.0 0 0 98.7351 49.0952
  L 57.1148 7.4749
  A 3.93 3.93 0.0 0 0 51.5569 7.4749
  L 9.9649 49.0669
  A 3.93 3.93 0.0 0 0 9.9649 54.6248
  L 51.5852 96.2451
  A 3.93 3.93 0.0 0 0 57.1431 96.2451
  L 98.7351 54.6531"
/>
<path stroke="#f6d724" vector-effect="non-scaling-stroke" d="
  M 45.09 34.60
  C 46.60 33.28 45.69 30.45 47.16 28.41
  Q 52.82 20.57 57.59 12.16
  Q 57.85 11.70 57.51 11.29
  L 55.51 8.87
  Q 55.12 8.40 54.53 8.57
  Q 52.22 9.25 51.42 10.17
  Q 41.15 22.06 29.63 32.72
  C 24.77 37.21 19.31 43.28 13.49 48.22
  Q 11.98 49.49 10.96 51.48
  Q 10.72 51.94 11.06 52.32
  C 17.53 59.74 25.24 66.00 31.89 73.34
  C 33.08 74.65 34.40 76.83 36.24 78.27
  Q 36.65 78.59 37.15 78.44
  Q 38.82 77.94 38.43 75.75
  C 37.01 67.80 40.85 64.50 46.00 59.55
  Q 46.43 59.14 45.97 58.76
  C 43.60 56.82 42.88 54.52 41.10 52.07
  C 39.54 49.94 39.65 46.79 39.72 44.00
  C 39.81 39.89 42.20 37.13 45.09 34.60"
/>
<path stroke="#837023" vector-effect="non-scaling-stroke" d="
  M 40.71 74.75
  Q 40.19 78.13 40.71 81.50"
/>
<path stroke="#7b6d24" vector-effect="non-scaling-stroke" d="
  M 40.71 81.50
  C 40.54 84.17 49.01 83.28 50.18 83.20
  Q 50.75 83.16 50.75 82.59
  C 50.75 79.73 49.52 72.46 53.00 71.46"
/>
<path stroke="#837023" vector-effect="non-scaling-stroke" d="
  M 53.00 71.46
  Q 55.41 71.93 57.25 70.54"
/>
<path stroke="#7b6d24" vector-effect="non-scaling-stroke" d="
  M 57.25 70.54
  C 70.02 65.24 65.77 48.75 52.80 48.42
  A 1.98 1.97 79.6 0 1 51.04 47.20
  Q 50.44 45.71 51.89 44.79
  Q 52.29 44.53 52.77 44.53
  Q 64.08 44.47 65.32 33.22
  Q 65.39 32.61 65.99 32.70
  L 71.46 33.50"
/>
<path stroke="#f6d724" vector-effect="non-scaling-stroke" d="
  M 71.46 33.50
  L 71.21 34.58
  Q 71.11 35.04 70.64 35.06
  C 67.67 35.17 67.11 39.61 65.15 41.59
  C 63.85 42.91 59.41 47.76 62.81 49.13
  Q 63.20 49.29 63.47 49.60
  L 65.82 52.35
  Q 66.14 52.71 66.23 53.19
  L 67.45 59.65
  Q 67.54 60.14 67.41 60.61
  L 65.08 68.63
  Q 64.91 69.21 64.37 69.48
  L 53.12 74.93
  Q 52.70 75.14 52.73 75.65
  C 52.85 78.31 53.56 83.40 50.90 84.80
  C 44.69 88.08 51.17 92.67 54.02 94.66
  Q 54.45 94.96 54.90 94.70
  Q 58.74 92.50 60.31 90.57
  Q 66.69 82.74 74.23 76.05
  C 77.13 73.47 80.28 69.81 83.85 67.17
  Q 84.22 66.90 84.33 66.46
  Q 84.77 64.69 86.65 64.43
  Q 87.18 64.35 87.51 63.93
  L 96.49 52.19
  Q 96.79 51.80 96.54 51.38
  C 93.88 46.89 90.15 44.23 87.32 41.23
  C 83.29 36.98 79.09 32.93 75.14 28.60
  Q 74.80 28.23 74.30 28.29
  Q 72.83 28.48 72.68 29.91
  Q 72.63 30.39 72.21 30.63
  L 71.50 31.04"
/>
<path stroke="#7b6d24" vector-effect="non-scaling-stroke" d="
  M 71.50 31.04
  L 60.47 14.70
  Q 59.47 13.21 58.52 14.74
  L 48.36 31.15
  A 1.36 1.36 0.0 0 0 49.32 33.21
  C 50.31 33.35 54.53 32.08 54.81 33.52
  A 0.63 0.63 0.0 0 1 54.23 34.27
  C 49.69 34.56 45.37 35.76 43.03 39.95
  C 38.30 48.43 43.88 56.76 52.93 57.72
  C 54.30 57.87 54.87 58.46 55.25 59.70
  Q 55.44 60.29 54.86 60.50
  C 52.24 61.46 49.46 61.37 47.23 62.64
  Q 40.56 66.41 40.71 74.75"
/>
<path stroke="#827004" vector-effect="non-scaling-stroke" d="
  M 71.50 31.04
  Q 72.08 32.30 71.46 33.50"
/>
<path stroke="#0f0903" vector-effect="non-scaling-stroke" d="
  M 57.25 70.54
  Q 54.96 70.41 53.00 71.46"
/>
<path stroke="#0f0903" vector-effect="non-scaling-stroke" d="
  M 40.71 81.50
  Q 41.83 78.16 40.71 74.75"
/>
</g>
<path fill="#eed443" d="
  M 37.56 89.13
  Q 37.04 88.86 36.99 88.35
  Q 36.95 87.92 36.70 87.56
  Q 35.19 85.39 33.10 83.89
  C 28.48 80.58 24.67 77.63 22.41 73.05
  Q 22.19 72.60 21.77 72.32
  Q 18.02 69.79 15.07 66.42
  C 11.58 62.43 5.33 58.58 3.16 52.79
  Q 3.00 52.35 3.14 51.90
  Q 4.68 47.11 6.25 45.50
  C 12.34 39.27 18.75 33.33 24.57 26.85
  C 26.31 24.90 28.36 23.63 30.00 21.60
  C 32.39 18.65 35.95 15.85 37.99 13.79
  Q 43.77 7.98 47.05 4.31
  C 56.49 -6.23 63.88 8.02 70.34 11.64
  C 70.92 11.97 71.46 13.60 72.12 14.26
  Q 87.03 29.36 102.12 44.28
  C 107.48 49.57 107.44 53.62 102.23 58.68
  C 93.44 67.22 85.04 76.13 76.26 84.66
  C 70.52 90.24 65.77 96.06 59.29 101.30
  C 51.75 107.39 42.18 94.49 38.18 89.64
  Q 37.92 89.32 37.56 89.13
  Z
  M 59.6667 4.7033
  A 7.46 7.46 0.0 0 0 49.1167 4.7033
  L 7.3833 46.4367
  A 7.46 7.46 0.0 0 0 7.3833 56.9867
  L 49.1733 98.7767
  A 7.46 7.46 0.0 0 0 59.7233 98.7767
  L 101.4567 57.0433
  A 7.46 7.46 0.0 0 0 101.4567 46.4933
  L 59.6667 4.7033
  Z"
/>
<path fill="#170c02" d="
  M 101.4567 46.4933
  A 7.46 7.46 0.0 0 1 101.4567 57.0433
  L 59.7233 98.7767
  A 7.46 7.46 0.0 0 1 49.1733 98.7767
  L 7.3833 56.9867
  A 7.46 7.46 0.0 0 1 7.3833 46.4367
  L 49.1167 4.7033
  A 7.46 7.46 0.0 0 1 59.6667 4.7033
  L 101.4567 46.4933
  Z
  M 98.7351 54.6531
  A 3.93 3.93 0.0 0 0 98.7351 49.0952
  L 57.1148 7.4749
  A 3.93 3.93 0.0 0 0 51.5569 7.4749
  L 9.9649 49.0669
  A 3.93 3.93 0.0 0 0 9.9649 54.6248
  L 51.5852 96.2451
  A 3.93 3.93 0.0 0 0 57.1431 96.2451
  L 98.7351 54.6531
  Z"
/>
<path fill="#eed443" d="
  M 57.1431 96.2451
  A 3.93 3.93 0.0 0 1 51.5852 96.2451
  L 9.9649 54.6248
  A 3.93 3.93 0.0 0 1 9.9649 49.0669
  L 51.5569 7.4749
  A 3.93 3.93 0.0 0 1 57.1148 7.4749
  L 98.7351 49.0952
  A 3.93 3.93 0.0 0 1 98.7351 54.6531
  L 57.1431 96.2451
  Z
  M 45.09 34.60
  C 46.60 33.28 45.69 30.45 47.16 28.41
  Q 52.82 20.57 57.59 12.16
  Q 57.85 11.70 57.51 11.29
  L 55.51 8.87
  Q 55.12 8.40 54.53 8.57
  Q 52.22 9.25 51.42 10.17
  Q 41.15 22.06 29.63 32.72
  C 24.77 37.21 19.31 43.28 13.49 48.22
  Q 11.98 49.49 10.96 51.48
  Q 10.72 51.94 11.06 52.32
  C 17.53 59.74 25.24 66.00 31.89 73.34
  C 33.08 74.65 34.40 76.83 36.24 78.27
  Q 36.65 78.59 37.15 78.44
  Q 38.82 77.94 38.43 75.75
  C 37.01 67.80 40.85 64.50 46.00 59.55
  Q 46.43 59.14 45.97 58.76
  C 43.60 56.82 42.88 54.52 41.10 52.07
  C 39.54 49.94 39.65 46.79 39.72 44.00
  C 39.81 39.89 42.20 37.13 45.09 34.60
  Z
  M 40.71 74.75
  Q 40.19 78.13 40.71 81.50
  C 40.54 84.17 49.01 83.28 50.18 83.20
  Q 50.75 83.16 50.75 82.59
  C 50.75 79.73 49.52 72.46 53.00 71.46
  Q 55.41 71.93 57.25 70.54
  C 70.02 65.24 65.77 48.75 52.80 48.42
  A 1.98 1.97 79.6 0 1 51.04 47.20
  Q 50.44 45.71 51.89 44.79
  Q 52.29 44.53 52.77 44.53
  Q 64.08 44.47 65.32 33.22
  Q 65.39 32.61 65.99 32.70
  L 71.46 33.50
  L 71.21 34.58
  Q 71.11 35.04 70.64 35.06
  C 67.67 35.17 67.11 39.61 65.15 41.59
  C 63.85 42.91 59.41 47.76 62.81 49.13
  Q 63.20 49.29 63.47 49.60
  L 65.82 52.35
  Q 66.14 52.71 66.23 53.19
  L 67.45 59.65
  Q 67.54 60.14 67.41 60.61
  L 65.08 68.63
  Q 64.91 69.21 64.37 69.48
  L 53.12 74.93
  Q 52.70 75.14 52.73 75.65
  C 52.85 78.31 53.56 83.40 50.90 84.80
  C 44.69 88.08 51.17 92.67 54.02 94.66
  Q 54.45 94.96 54.90 94.70
  Q 58.74 92.50 60.31 90.57
  Q 66.69 82.74 74.23 76.05
  C 77.13 73.47 80.28 69.81 83.85 67.17
  Q 84.22 66.90 84.33 66.46
  Q 84.77 64.69 86.65 64.43
  Q 87.18 64.35 87.51 63.93
  L 96.49 52.19
  Q 96.79 51.80 96.54 51.38
  C 93.88 46.89 90.15 44.23 87.32 41.23
  C 83.29 36.98 79.09 32.93 75.14 28.60
  Q 74.80 28.23 74.30 28.29
  Q 72.83 28.48 72.68 29.91
  Q 72.63 30.39 72.21 30.63
  L 71.50 31.04
  L 60.47 14.70
  Q 59.47 13.21 58.52 14.74
  L 48.36 31.15
  A 1.36 1.36 0.0 0 0 49.32 33.21
  C 50.31 33.35 54.53 32.08 54.81 33.52
  A 0.63 0.63 0.0 0 1 54.23 34.27
  C 49.69 34.56 45.37 35.76 43.03 39.95
  C 38.30 48.43 43.88 56.76 52.93 57.72
  C 54.30 57.87 54.87 58.46 55.25 59.70
  Q 55.44 60.29 54.86 60.50
  C 52.24 61.46 49.46 61.37 47.23 62.64
  Q 40.56 66.41 40.71 74.75
  Z"
/>
<path fill="#fdda04" d="
  M 45.09 34.60
  C 42.20 37.13 39.81 39.89 39.72 44.00
  C 39.65 46.79 39.54 49.94 41.10 52.07
  C 42.88 54.52 43.60 56.82 45.97 58.76
  Q 46.43 59.14 46.00 59.55
  C 40.85 64.50 37.01 67.80 38.43 75.75
  Q 38.82 77.94 37.15 78.44
  Q 36.65 78.59 36.24 78.27
  C 34.40 76.83 33.08 74.65 31.89 73.34
  C 25.24 66.00 17.53 59.74 11.06 52.32
  Q 10.72 51.94 10.96 51.48
  Q 11.98 49.49 13.49 48.22
  C 19.31 43.28 24.77 37.21 29.63 32.72
  Q 41.15 22.06 51.42 10.17
  Q 52.22 9.25 54.53 8.57
  Q 55.12 8.40 55.51 8.87
  L 57.51 11.29
  Q 57.85 11.70 57.59 12.16
  Q 52.82 20.57 47.16 28.41
  C 45.69 30.45 46.60 33.28 45.09 34.60
  Z"
/>
<path fill="#070504" d="
  M 71.50 31.04
  Q 72.08 32.30 71.46 33.50
  L 65.99 32.70
  Q 65.39 32.61 65.32 33.22
  Q 64.08 44.47 52.77 44.53
  Q 52.29 44.53 51.89 44.79
  Q 50.44 45.71 51.04 47.20
  A 1.98 1.97 79.6 0 0 52.80 48.42
  C 65.77 48.75 70.02 65.24 57.25 70.54
  Q 54.96 70.41 53.00 71.46
  C 49.52 72.46 50.75 79.73 50.75 82.59
  Q 50.75 83.16 50.18 83.20
  C 49.01 83.28 40.54 84.17 40.71 81.50
  Q 41.83 78.16 40.71 74.75
  Q 40.56 66.41 47.23 62.64
  C 49.46 61.37 52.24 61.46 54.86 60.50
  Q 55.44 60.29 55.25 59.70
  C 54.87 58.46 54.30 57.87 52.93 57.72
  C 43.88 56.76 38.30 48.43 43.03 39.95
  C 45.37 35.76 49.69 34.56 54.23 34.27
  A 0.63 0.63 0.0 0 0 54.81 33.52
  C 54.53 32.08 50.31 33.35 49.32 33.21
  A 1.36 1.36 0.0 0 1 48.36 31.15
  L 58.52 14.74
  Q 59.47 13.21 60.47 14.70
  L 71.50 31.04
  Z"
/>
<path fill="#fdda04" d="
  M 71.46 33.50
  Q 72.08 32.30 71.50 31.04
  L 72.21 30.63
  Q 72.63 30.39 72.68 29.91
  Q 72.83 28.48 74.30 28.29
  Q 74.80 28.23 75.14 28.60
  C 79.09 32.93 83.29 36.98 87.32 41.23
  C 90.15 44.23 93.88 46.89 96.54 51.38
  Q 96.79 51.80 96.49 52.19
  L 87.51 63.93
  Q 87.18 64.35 86.65 64.43
  Q 84.77 64.69 84.33 66.46
  Q 84.22 66.90 83.85 67.17
  C 80.28 69.81 77.13 73.47 74.23 76.05
  Q 66.69 82.74 60.31 90.57
  Q 58.74 92.50 54.90 94.70
  Q 54.45 94.96 54.02 94.66
  C 51.17 92.67 44.69 88.08 50.90 84.80
  C 53.56 83.40 52.85 78.31 52.73 75.65
  Q 52.70 75.14 53.12 74.93
  L 64.37 69.48
  Q 64.91 69.21 65.08 68.63
  L 67.41 60.61
  Q 67.54 60.14 67.45 59.65
  L 66.23 53.19
  Q 66.14 52.71 65.82 52.35
  L 63.47 49.60
  Q 63.20 49.29 62.81 49.13
  C 59.41 47.76 63.85 42.91 65.15 41.59
  C 67.11 39.61 67.67 35.17 70.64 35.06
  Q 71.11 35.04 71.21 34.58
  L 71.46 33.50
  Z"
/>
<path fill="#170c02" d="
  M 57.25 70.54
  Q 55.41 71.93 53.00 71.46
  Q 54.96 70.41 57.25 70.54
  Z"
/>
<path fill="#170c02" d="
  M 40.71 74.75
  Q 41.83 78.16 40.71 81.50
  Q 40.19 78.13 40.71 74.75
  Z"
/>
</svg>
