<?xml version="1.0" encoding="UTF-8" standalone="no"?>
<!DOCTYPE svg PUBLIC "-//W3C//DTD SVG 1.1//EN" "http://www.w3.org/Graphics/SVG/1.1/DTD/svg11.dtd">
<svg xmlns="http://www.w3.org/2000/svg" version="1.1" viewBox="0 0 105 102">
<g stroke-width="2.00" fill="none" stroke-linecap="butt">
<path stroke="#e6ce52" vector-effect="non-scaling-stroke" d="
  M 8.79 40.50
  L 9.75 40.54"
/>
<path stroke="#7c6a31" vector-effect="non-scaling-stroke" d="
  M 9.75 40.54
  C 6.89 45.08 1.20 46.98 3.69 53.31
  Q 4.41 55.15 7.49 58.18
  Q 27.32 77.65 46.78 97.47
  C 50.95 101.71 55.55 99.58 59.36 95.82
  Q 78.87 76.63 98.13 57.19
  C 103.17 52.10 102.36 48.47 97.41 43.51
  Q 77.66 23.76 57.83 4.05
  C 50.09 -3.64 43.45 7.65 38.54 12.25"
/>
<path stroke="#e6ce52" vector-effect="non-scaling-stroke" d="
  M 38.54 12.25
  L 38.00 11.96"
/>
<path stroke="#877122" vector-effect="non-scaling-stroke" d="
  M 9.75 40.54
  L 38.54 12.25"
/>
<path stroke="#877122" vector-effect="non-scaling-stroke" d="
  M 55.3046 6.5669
  A 4.18 4.18 0.0 0 0 49.3932 6.5565
  L 8.0970 47.7089
  A 4.18 4.18 0.0 0 0 8.0866 53.6203
  L 49.2954 94.9731
  A 4.18 4.18 0.0 0 0 55.2068 94.9835
  L 96.5030 53.8311
  A 4.18 4.18 0.0 0 0 96.5134 47.9197
  L 55.3046 6.5669"
/>
<path stroke="#f7d724" vector-effect="non-scaling-stroke" d="
  M 50.94 8.94
  Q 47.69 13.18 42.93 15.85
  A 1.00 1.00 0.0 0 0 42.79 17.50
  L 44.83 19.14
  Q 45.18 19.42 45.35 19.83
  Q 46.71 23.18 49.03 25.88
  C 51.54 28.79 52.92 31.25 54.89 34.13
  C 56.89 37.04 55.53 39.64 55.40 42.64
  A 0.89 0.89 0.0 0 1 54.41 43.49
  L 49.43 42.92
  A 1.16 1.16 0.0 0 0 48.35 44.75
  L 49.79 46.81
  Q 50.11 47.26 50.66 47.35
  C 54.31 47.95 57.66 49.59 61.07 50.83
  Q 72.27 54.88 73.11 67.30
  C 73.20 68.68 72.69 69.68 72.75 71.19
  Q 72.78 71.87 73.46 71.81
  C 77.98 71.43 82.07 65.91 84.05 62.28
  Q 84.29 61.84 84.71 61.58
  C 87.36 59.95 88.67 57.31 91.00 55.74
  C 92.77 54.56 95.75 53.32 95.42 50.70
  Q 95.36 50.26 95.06 49.92
  C 94.03 48.74 92.71 48.24 91.78 47.10
  C 88.36 42.89 84.44 38.00 79.91 34.94
  Q 77.66 33.43 76.32 31.75
  Q 70.84 24.92 64.16 19.23
  C 62.32 17.67 60.79 15.64 58.77 14.02
  C 56.61 12.28 54.11 4.80 50.94 8.94"
/>
<path stroke="#877122" vector-effect="non-scaling-stroke" d="
  M 35.79 42.25
  Q 34.84 45.50 36.21 48.50"
/>
<path stroke="#7c6c23" vector-effect="non-scaling-stroke" d="
  M 36.21 48.50
  Q 39.19 59.64 50.36 61.93
  Q 54.64 62.80 57.33 63.72
  Q 57.88 63.91 58.11 64.45
  Q 60.54 70.19 59.60 76.43
  Q 59.49 77.18 60.25 77.19
  L 70.15 77.28
  Q 70.62 77.28 70.69 76.81
  C 72.94 59.59 65.18 52.84 49.13 49.66
  Q 48.57 49.54 48.30 49.03
  Q 46.41 45.33 46.77 41.17
  Q 46.82 40.65 47.34 40.58
  Q 49.98 40.22 52.65 40.89
  A 1.15 1.15 0.0 0 0 53.91 39.16
  L 41.71 19.72
  Q 41.42 19.26 41.14 19.72
  L 29.05 39.22
  A 0.93 0.93 0.0 0 0 29.88 40.64
  L 35.18 40.45
  Q 35.71 40.43 35.74 40.96
  L 35.79 42.25"
/>
<path stroke="#120902" vector-effect="non-scaling-stroke" d="
  M 36.21 48.50
  Q 36.63 45.31 35.79 42.25"
/>
<path stroke="#f7d724" vector-effect="non-scaling-stroke" d="
  M 24.08 66.30
  C 28.61 70.98 34.51 75.43 38.49 80.45
  C 41.43 84.16 45.19 86.20 47.83 90.47
  C 49.75 93.57 51.10 94.44 54.21 91.90
  Q 58.63 88.29 60.58 85.13
  Q 60.86 84.68 61.36 84.48
  Q 65.21 82.91 67.97 79.75
  A 0.26 0.26 0.0 0 0 67.80 79.32
  Q 63.80 78.92 59.99 79.95
  C 57.58 80.61 56.78 79.33 57.19 77.13
  Q 58.11 72.16 56.55 67.37
  Q 56.40 66.90 55.99 66.63
  C 53.01 64.68 50.27 65.26 47.36 63.96
  C 41.80 61.47 37.62 59.85 34.99 53.27
  Q 33.85 50.42 33.36 44.24
  Q 33.31 43.68 32.75 43.64
  L 28.55 43.31
  A 2.20 2.19 -87.4 0 1 26.53 41.09
  Q 26.57 38.12 28.18 35.67
  C 28.89 34.59 29.01 33.61 27.74 32.99
  Q 27.28 32.76 26.86 33.06
  Q 22.59 36.05 19.38 40.13
  C 18.16 41.68 16.40 42.31 15.37 44.24
  Q 15.14 44.67 14.67 44.81
  Q 9.79 46.24 9.53 51.54
  Q 9.45 53.31 11.14 53.57
  Q 11.65 53.65 11.94 54.08
  Q 13.30 56.07 15.44 57.22
  Q 15.89 57.47 16.18 57.90
  C 18.41 61.24 22.10 64.26 24.08 66.30"
/>
</g>
<path fill="#dcc762" fill-opacity="0.996" d="
  M 49.81 0.00
  L 55.31 0.00
  Q 59.22 2.27 61.86 5.90
  Q 62.18 6.33 62.70 6.48
  Q 64.09 6.87 64.31 8.33
  Q 64.38 8.75 64.78 8.85
  Q 66.61 9.29 67.30 11.12
  Q 67.46 11.56 67.89 11.74
  Q 69.96 12.61 70.48 14.84
  Q 70.64 15.50 71.31 15.57
  Q 72.92 15.73 73.22 17.23
  Q 73.32 17.75 73.83 17.90
  Q 74.96 18.22 75.31 19.30
  Q 75.48 19.81 75.86 20.19
  Q 87.16 31.37 98.13 42.87
  C 101.28 46.17 106.75 48.68 102.80 54.36
  C 98.73 60.20 92.10 65.29 86.94 70.26
  C 83.92 73.16 81.07 77.10 78.01 80.01
  Q 72.26 85.49 66.55 91.01
  Q 66.54 91.03 66.52 91.02
  Q 66.36 91.00 66.24 91.00
  Q 66.03 90.99 65.91 91.16
  Q 60.78 97.83 53.44 102.00
  L 51.69 102.00
  Q 45.48 99.46 43.83 97.42
  C 38.30 90.55 32.68 85.66 23.90 77.29
  C 23.03 76.46 22.85 76.06 22.58 74.91
  Q 22.45 74.33 21.86 74.29
  Q 20.09 74.16 19.79 72.49
  Q 19.70 71.96 19.29 71.61
  C 13.34 66.57 9.40 62.10 2.44 55.08
  Q -0.12 52.49 1.61 49.40
  Q 1.85 48.96 1.87 48.47
  Q 1.92 46.93 3.33 46.14
  Q 3.87 45.84 3.76 45.23
  Q 3.52 43.80 4.97 43.73
  Q 5.45 43.70 5.86 43.45
  Q 7.68 42.32 8.79 40.50
  L 9.75 40.54
  C 6.89 45.08 1.20 46.98 3.69 53.31
  Q 4.41 55.15 7.49 58.18
  Q 27.32 77.65 46.78 97.47
  C 50.95 101.71 55.55 99.58 59.36 95.82
  Q 78.87 76.63 98.13 57.19
  C 103.17 52.10 102.36 48.47 97.41 43.51
  Q 77.66 23.76 57.83 4.05
  C 50.09 -3.64 43.45 7.65 38.54 12.25
  L 38.00 11.96
  C 42.30 7.92 43.43 2.52 49.81 0.00
  Z"
/>
<path fill="#1d0e01" d="
  M 9.75 40.54
  L 38.54 12.25
  C 43.45 7.65 50.09 -3.64 57.83 4.05
  Q 77.66 23.76 97.41 43.51
  C 102.36 48.47 103.17 52.10 98.13 57.19
  Q 78.87 76.63 59.36 95.82
  C 55.55 99.58 50.95 101.71 46.78 97.47
  Q 27.32 77.65 7.49 58.18
  Q 4.41 55.15 3.69 53.31
  C 1.20 46.98 6.89 45.08 9.75 40.54
  Z
  M 55.3046 6.5669
  A 4.18 4.18 0.0 0 0 49.3932 6.5565
  L 8.0970 47.7089
  A 4.18 4.18 0.0 0 0 8.0866 53.6203
  L 49.2954 94.9731
  A 4.18 4.18 0.0 0 0 55.2068 94.9835
  L 96.5030 53.8311
  A 4.18 4.18 0.0 0 0 96.5134 47.9197
  L 55.3046 6.5669
  Z"
/>
<path fill="#f0d443" d="
  M 96.5134 47.9197
  A 4.18 4.18 0.0 0 1 96.5030 53.8311
  L 55.2068 94.9835
  A 4.18 4.18 0.0 0 1 49.2954 94.9731
  L 8.0866 53.6203
  A 4.18 4.18 0.0 0 1 8.0970 47.7089
  L 49.3932 6.5565
  A 4.18 4.18 0.0 0 1 55.3046 6.5669
  L 96.5134 47.9197
  Z
  M 50.94 8.94
  Q 47.69 13.18 42.93 15.85
  A 1.00 1.00 0.0 0 0 42.79 17.50
  L 44.83 19.14
  Q 45.18 19.42 45.35 19.83
  Q 46.71 23.18 49.03 25.88
  C 51.54 28.79 52.92 31.25 54.89 34.13
  C 56.89 37.04 55.53 39.64 55.40 42.64
  A 0.89 0.89 0.0 0 1 54.41 43.49
  L 49.43 42.92
  A 1.16 1.16 0.0 0 0 48.35 44.75
  L 49.79 46.81
  Q 50.11 47.26 50.66 47.35
  C 54.31 47.95 57.66 49.59 61.07 50.83
  Q 72.27 54.88 73.11 67.30
  C 73.20 68.68 72.69 69.68 72.75 71.19
  Q 72.78 71.87 73.46 71.81
  C 77.98 71.43 82.07 65.91 84.05 62.28
  Q 84.29 61.84 84.71 61.58
  C 87.36 59.95 88.67 57.31 91.00 55.74
  C 92.77 54.56 95.75 53.32 95.42 50.70
  Q 95.36 50.26 95.06 49.92
  C 94.03 48.74 92.71 48.24 91.78 47.10
  C 88.36 42.89 84.44 38.00 79.91 34.94
  Q 77.66 33.43 76.32 31.75
  Q 70.84 24.92 64.16 19.23
  C 62.32 17.67 60.79 15.64 58.77 14.02
  C 56.61 12.28 54.11 4.80 50.94 8.94
  Z
  M 35.79 42.25
  Q 34.84 45.50 36.21 48.50
  Q 39.19 59.64 50.36 61.93
  Q 54.64 62.80 57.33 63.72
  Q 57.88 63.91 58.11 64.45
  Q 60.54 70.19 59.60 76.43
  Q 59.49 77.18 60.25 77.19
  L 70.15 77.28
  Q 70.62 77.28 70.69 76.81
  C 72.94 59.59 65.18 52.84 49.13 49.66
  Q 48.57 49.54 48.30 49.03
  Q 46.41 45.33 46.77 41.17
  Q 46.82 40.65 47.34 40.58
  Q 49.98 40.22 52.65 40.89
  A 1.15 1.15 0.0 0 0 53.91 39.16
  L 41.71 19.72
  Q 41.42 19.26 41.14 19.72
  L 29.05 39.22
  A 0.93 0.93 0.0 0 0 29.88 40.64
  L 35.18 40.45
  Q 35.71 40.43 35.74 40.96
  L 35.79 42.25
  Z
  M 24.08 66.30
  C 28.61 70.98 34.51 75.43 38.49 80.45
  C 41.43 84.16 45.19 86.20 47.83 90.47
  C 49.75 93.57 51.10 94.44 54.21 91.90
  Q 58.63 88.29 60.58 85.13
  Q 60.86 84.68 61.36 84.48
  Q 65.21 82.91 67.97 79.75
  A 0.26 0.26 0.0 0 0 67.80 79.32
  Q 63.80 78.92 59.99 79.95
  C 57.58 80.61 56.78 79.33 57.19 77.13
  Q 58.11 72.16 56.55 67.37
  Q 56.40 66.90 55.99 66.63
  C 53.01 64.68 50.27 65.26 47.36 63.96
  C 41.80 61.47 37.62 59.85 34.99 53.27
  Q 33.85 50.42 33.36 44.24
  Q 33.31 43.68 32.75 43.64
  L 28.55 43.31
  A 2.20 2.19 -87.4 0 1 26.53 41.09
  Q 26.57 38.12 28.18 35.67
  C 28.89 34.59 29.01 33.61 27.74 32.99
  Q 27.28 32.76 26.86 33.06
  Q 22.59 36.05 19.38 40.13
  C 18.16 41.68 16.40 42.31 15.37 44.24
  Q 15.14 44.67 14.67 44.81
  Q 9.79 46.24 9.53 51.54
  Q 9.45 53.31 11.14 53.57
  Q 11.65 53.65 11.94 54.08
  Q 13.30 56.07 15.44 57.22
  Q 15.89 57.47 16.18 57.90
  C 18.41 61.24 22.10 64.26 24.08 66.30
  Z"
/>
<path fill="#fdda04" d="
  M 50.94 8.94
  C 54.11 4.80 56.61 12.28 58.77 14.02
  C 60.79 15.64 62.32 17.67 64.16 19.23
  Q 70.84 24.92 76.32 31.75
  Q 77.66 33.43 79.91 34.94
  C 84.44 38.00 88.36 42.89 91.78 47.10
  C 92.71 48.24 94.03 48.74 95.06 49.92
  Q 95.36 50.26 95.42 50.70
  C 95.75 53.32 92.77 54.56 91.00 55.74
  C 88.67 57.31 87.36 59.95 84.71 61.58
  Q 84.29 61.84 84.05 62.28
  C 82.07 65.91 77.98 71.43 73.46 71.81
  Q 72.78 71.87 72.75 71.19
  C 72.69 69.68 73.20 68.68 73.11 67.30
  Q 72.27 54.88 61.07 50.83
  C 57.66 49.59 54.31 47.95 50.66 47.35
  Q 50.11 47.26 49.79 46.81
  L 48.35 44.75
  A 1.16 1.16 0.0 0 1 49.43 42.92
  L 54.41 43.49
  A 0.89 0.89 0.0 0 0 55.40 42.64
  C 55.53 39.64 56.89 37.04 54.89 34.13
  C 52.92 31.25 51.54 28.79 49.03 25.88
  Q 46.71 23.18 45.35 19.83
  Q 45.18 19.42 44.83 19.14
  L 42.79 17.50
  A 1.00 1.00 0.0 0 1 42.93 15.85
  Q 47.69 13.18 50.94 8.94
  Z"
/>
<path fill="#f0d443" d="
  M 38.00 11.96
  L 38.54 12.25
  L 9.75 40.54
  L 8.79 40.50
  Q 10.19 37.59 12.77 35.60
  C 13.90 34.73 15.43 34.80 15.94 32.83
  Q 16.06 32.35 16.46 32.05
  C 19.26 29.92 21.39 28.14 23.65 25.07
  Q 26.20 21.59 29.23 19.24
  C 32.46 16.75 34.15 13.92 38.00 11.96
  Z"
/>
<path fill="#070403" d="
  M 36.21 48.50
  Q 36.63 45.31 35.79 42.25
  L 35.74 40.96
  Q 35.71 40.43 35.18 40.45
  L 29.88 40.64
  A 0.93 0.93 0.0 0 1 29.05 39.22
  L 41.14 19.72
  Q 41.42 19.26 41.71 19.72
  L 53.91 39.16
  A 1.15 1.15 0.0 0 1 52.65 40.89
  Q 49.98 40.22 47.34 40.58
  Q 46.82 40.65 46.77 41.17
  Q 46.41 45.33 48.30 49.03
  Q 48.57 49.54 49.13 49.66
  C 65.18 52.84 72.94 59.59 70.69 76.81
  Q 70.62 77.28 70.15 77.28
  L 60.25 77.19
  Q 59.49 77.18 59.60 76.43
  Q 60.54 70.19 58.11 64.45
  Q 57.88 63.91 57.33 63.72
  Q 54.64 62.80 50.36 61.93
  Q 39.19 59.64 36.21 48.50
  Z"
/>
<path fill="#fdda04" d="
  M 24.08 66.30
  C 22.10 64.26 18.41 61.24 16.18 57.90
  Q 15.89 57.47 15.44 57.22
  Q 13.30 56.07 11.94 54.08
  Q 11.65 53.65 11.14 53.57
  Q 9.45 53.31 9.53 51.54
  Q 9.79 46.24 14.67 44.81
  Q 15.14 44.67 15.37 44.24
  C 16.40 42.31 18.16 41.68 19.38 40.13
  Q 22.59 36.05 26.86 33.06
  Q 27.28 32.76 27.74 32.99
  C 29.01 33.61 28.89 34.59 28.18 35.67
  Q 26.57 38.12 26.53 41.09
  A 2.20 2.19 -87.4 0 0 28.55 43.31
  L 32.75 43.64
  Q 33.31 43.68 33.36 44.24
  Q 33.85 50.42 34.99 53.27
  C 37.62 59.85 41.80 61.47 47.36 63.96
  C 50.27 65.26 53.01 64.68 55.99 66.63
  Q 56.40 66.90 56.55 67.37
  Q 58.11 72.16 57.19 77.13
  C 56.78 79.33 57.58 80.61 59.99 79.95
  Q 63.80 78.92 67.80 79.32
  A 0.26 0.26 0.0 0 1 67.97 79.75
  Q 65.21 82.91 61.36 84.48
  Q 60.86 84.68 60.58 85.13
  Q 58.63 88.29 54.21 91.90
  C 51.10 94.44 49.75 93.57 47.83 90.47
  C 45.19 86.20 41.43 84.16 38.49 80.45
  C 34.51 75.43 28.61 70.98 24.08 66.30
  Z"
/>
<path fill="#1d0e01" d="
  M 35.79 42.25
  Q 36.63 45.31 36.21 48.50
  Q 34.84 45.50 35.79 42.25
  Z"
/>
</svg>
