<?xml version="1.0" encoding="UTF-8" standalone="no"?>
<!DOCTYPE svg PUBLIC "-//W3C//DTD SVG 1.1//EN" "http://www.w3.org/Graphics/SVG/1.1/DTD/svg11.dtd">
<svg xmlns="http://www.w3.org/2000/svg" version="1.1" viewBox="0 0 105 102">
<g stroke-width="2.00" fill="none" stroke-linecap="butt">
<path stroke="#f1d855" vector-effect="non-scaling-stroke" d="
  M 44.71 95.25
  L 45.46 95.00"
/>
<path stroke="#887535" vector-effect="non-scaling-stroke" d="
  M 45.46 95.00
  C 51.29 102.92 56.67 99.09 62.16 93.48
  Q 80.48 74.75 99.11 56.29
  C 105.41 50.05 101.59 46.90 96.39 41.64
  Q 77.72 22.77 58.99 3.93
  C 55.27 0.19 50.60 0.47 46.83 4.19
  Q 19.81 30.87 5.51 45.75
  C 2.19 49.20 3.31 52.69 6.48 55.90
  Q 18.26 67.83 30.04 79.75"
/>
<path stroke="#f1d855" vector-effect="non-scaling-stroke" d="
  M 30.04 79.75
  L 29.50 80.29"
/>
<path stroke="#867122" vector-effect="non-scaling-stroke" d="
  M 45.46 95.00
  L 30.04 79.75"
/>
<path stroke="#867122" vector-effect="non-scaling-stroke" d="
  M 56.1407 6.2380
  A 4.49 4.49 0.0 0 0 49.7909 6.2269
  L 8.7780 47.0968
  A 4.49 4.49 0.0 0 0 8.7670 53.4467
  L 49.6793 94.5020
  A 4.49 4.49 0.0 0 0 56.0291 94.5131
  L 97.0420 53.6432
  A 4.49 4.49 0.0 0 0 97.0530 47.2933
  L 56.1407 6.2380"
/>
<path stroke="#796b23" vector-effect="non-scaling-stroke" d="
  M 47.25 84.04
  L 58.51 84.01
  A 0.74 0.74 0.0 0 0 59.25 83.27
  L 59.25 57.04
  Q 59.25 56.55 59.74 56.55
  L 85.00 56.54"
/>
<path stroke="#f6d725" vector-effect="non-scaling-stroke" d="
  M 85.00 56.54
  C 84.01 60.92 66.54 59.45 63.28 58.96
  Q 61.71 58.73 61.71 60.31
  L 61.68 83.72
  A 1.20 1.20 0.0 0 0 63.83 84.45
  Q 65.34 82.46 66.70 80.39
  C 68.78 77.22 71.58 75.19 74.29 72.67
  C 76.36 70.74 79.68 69.37 81.54 66.53
  Q 83.80 63.06 87.24 61.25
  Q 87.73 60.99 87.97 60.49
  Q 88.86 58.70 90.53 57.67
  Q 90.74 57.54 90.75 57.29
  Q 90.75 57.16 90.75 57.02
  Q 90.75 56.85 90.88 56.73
  L 96.40 51.77
  A 1.26 1.26 0.0 0 0 96.42 49.93
  L 90.09 43.91
  Q 89.78 43.61 89.63 43.22
  Q 88.87 41.19 86.97 40.46
  Q 86.50 40.28 86.18 39.89
  C 82.21 35.10 77.11 30.49 73.18 26.44
  Q 68.03 21.12 62.59 16.09
  Q 62.24 15.77 62.14 15.31
  Q 61.85 13.93 60.57 13.25
  Q 60.11 13.00 59.80 12.57
  Q 57.78 9.83 54.97 7.87
  C 51.83 5.67 50.68 8.66 48.71 10.11
  C 47.13 11.27 42.06 14.47 41.99 16.39
  Q 41.97 16.87 41.63 17.22
  C 34.08 24.87 29.46 32.12 19.34 39.06
  C 17.77 40.14 16.37 42.00 14.54 43.54
  Q 12.06 45.62 10.60 50.41
  Q 10.46 50.88 10.61 51.34
  C 11.62 54.47 16.43 59.37 19.21 61.31
  C 22.60 63.69 25.21 67.39 27.77 69.74
  Q 34.94 76.33 41.66 83.40
  Q 42.00 83.76 42.00 84.25
  L 42.00 84.96
  Q 42.00 85.42 42.32 85.73
  C 46.22 89.55 49.83 93.80 53.53 94.52
  Q 54.02 94.61 54.32 94.20
  L 58.43 88.64
  Q 58.77 88.17 58.56 87.63
  L 58.10 86.45
  Q 57.90 85.94 57.36 85.94
  L 48.24 85.91
  Q 47.72 85.91 47.45 85.47
  Q 47.08 84.87 47.25 84.04"
/>
<path stroke="#806e06" vector-effect="non-scaling-stroke" d="
  M 85.00 56.54
  L 86.25 56.21"
/>
<path stroke="#f6d725" vector-effect="non-scaling-stroke" d="
  M 86.25 56.21
  Q 87.64 56.15 87.75 55.31
  Q 88.35 50.54 87.40 43.98
  Q 87.33 43.53 86.94 43.29
  L 85.03 42.10
  Q 84.57 41.82 84.03 41.82
  L 64.92 41.98
  A 2.55 2.55 0.0 0 1 62.35 39.59
  L 61.11 18.79
  Q 61.08 18.29 60.73 17.94
  L 60.40 17.61
  Q 60.08 17.29 59.90 16.89
  L 59.16 15.30
  Q 58.95 14.84 58.44 14.83
  C 53.25 14.72 48.09 13.73 44.40 18.23
  Q 44.11 18.58 44.10 19.04
  L 43.88 39.65
  Q 43.88 40.02 44.12 40.29
  Q 44.87 41.14 44.32 42.05
  Q 44.01 42.56 43.52 42.23
  C 42.23 41.36 25.62 41.75 22.54 41.57
  Q 22.01 41.54 21.57 41.83
  L 17.48 44.42
  Q 17.00 44.73 17.12 45.28
  Q 18.22 50.25 17.33 55.23
  Q 17.24 55.74 17.68 56.01
  L 18.95 56.79
  Q 19.29 57.00 19.40 57.39
  C 19.91 59.14 24.67 60.19 26.55 60.04
  Q 34.40 59.40 42.31 59.10
  Q 43.31 59.06 43.51 60.04
  C 44.96 67.11 44.34 75.30 44.71 82.58
  Q 44.74 83.09 45.24 83.20
  L 46.71 83.50"
/>
<path stroke="#806e06" vector-effect="non-scaling-stroke" d="
  M 46.71 83.50
  L 47.25 84.04"
/>
<path stroke="#796b23" vector-effect="non-scaling-stroke" d="
  M 86.25 56.21
  L 86.20 44.91
  Q 86.20 44.25 85.54 44.25
  L 59.75 44.25
  Q 59.25 44.25 59.25 43.75
  L 59.25 17.91
  Q 59.25 17.32 58.66 17.31
  L 47.39 17.23
  Q 46.75 17.22 46.75 17.86
  L 46.75 43.75
  Q 46.75 44.25 46.25 44.25
  L 20.00 44.25
  A 0.50 0.50 0.0 0 0 19.50 44.75
  L 19.50 56.00
  Q 19.50 56.50 20.00 56.50
  L 46.02 56.50
  A 0.72 0.72 0.0 0 1 46.74 57.22
  L 46.71 83.50"
/>
</g>
<path fill="#f3dc68" d="
  M 49.81 0.00
  L 56.31 0.00
  L 58.21 0.88
  Q 58.64 1.07 58.84 1.49
  Q 59.66 3.23 61.60 4.90
  C 69.46 11.65 77.30 19.93 85.52 27.86
  C 88.12 30.37 89.96 33.36 92.57 35.76
  C 93.69 36.79 95.68 37.25 96.42 39.40
  Q 96.59 39.88 96.98 40.20
  C 102.58 44.70 107.89 49.82 101.12 56.75
  C 93.35 64.71 85.58 73.32 77.27 80.67
  C 71.44 85.83 66.00 91.90 60.46 97.41
  C 59.94 97.93 59.62 98.63 59.22 99.25
  Q 58.96 99.66 58.51 99.85
  L 53.44 102.00
  L 51.44 102.00
  L 45.46 97.95
  Q 45.09 97.70 45.02 97.26
  L 44.71 95.25
  L 45.46 95.00
  C 51.29 102.92 56.67 99.09 62.16 93.48
  Q 80.48 74.75 99.11 56.29
  C 105.41 50.05 101.59 46.90 96.39 41.64
  Q 77.72 22.77 58.99 3.93
  C 55.27 0.19 50.60 0.47 46.83 4.19
  Q 19.81 30.87 5.51 45.75
  C 2.19 49.20 3.31 52.69 6.48 55.90
  Q 18.26 67.83 30.04 79.75
  L 29.50 80.29
  C 26.73 79.30 23.14 74.69 20.75 72.62
  C 14.51 67.22 9.95 61.84 4.31 56.50
  C -3.14 49.46 5.59 42.69 10.49 37.99
  C 12.75 35.81 16.18 31.62 19.68 29.19
  C 22.13 27.48 23.13 25.11 25.19 23.37
  C 26.74 22.07 30.63 17.06 32.26 16.74
  Q 32.73 16.65 33.07 16.31
  Q 40.74 8.73 48.17 0.92
  Q 48.56 0.50 49.81 0.00
  Z"
/>
<path fill="#1c0d02" d="
  M 45.46 95.00
  L 30.04 79.75
  Q 18.26 67.83 6.48 55.90
  C 3.31 52.69 2.19 49.20 5.51 45.75
  Q 19.81 30.87 46.83 4.19
  C 50.60 0.47 55.27 0.19 58.99 3.93
  Q 77.72 22.77 96.39 41.64
  C 101.59 46.90 105.41 50.05 99.11 56.29
  Q 80.48 74.75 62.16 93.48
  C 56.67 99.09 51.29 102.92 45.46 95.00
  Z
  M 56.1407 6.2380
  A 4.49 4.49 0.0 0 0 49.7909 6.2269
  L 8.7780 47.0968
  A 4.49 4.49 0.0 0 0 8.7670 53.4467
  L 49.6793 94.5020
  A 4.49 4.49 0.0 0 0 56.0291 94.5131
  L 97.0420 53.6432
  A 4.49 4.49 0.0 0 0 97.0530 47.2933
  L 56.1407 6.2380
  Z"
/>
<path fill="#efd442" d="
  M 97.0530 47.2933
  A 4.49 4.49 0.0 0 1 97.0420 53.6432
  L 56.0291 94.5131
  A 4.49 4.49 0.0 0 1 49.6793 94.5020
  L 8.7670 53.4467
  A 4.49 4.49 0.0 0 1 8.7780 47.0968
  L 49.7909 6.2269
  A 4.49 4.49 0.0 0 1 56.1407 6.2380
  L 97.0530 47.2933
  Z
  M 47.25 84.04
  L 58.51 84.01
  A 0.74 0.74 0.0 0 0 59.25 83.27
  L 59.25 57.04
  Q 59.25 56.55 59.74 56.55
  L 85.00 56.54
  C 84.01 60.92 66.54 59.45 63.28 58.96
  Q 61.71 58.73 61.71 60.31
  L 61.68 83.72
  A 1.20 1.20 0.0 0 0 63.83 84.45
  Q 65.34 82.46 66.70 80.39
  C 68.78 77.22 71.58 75.19 74.29 72.67
  C 76.36 70.74 79.68 69.37 81.54 66.53
  Q 83.80 63.06 87.24 61.25
  Q 87.73 60.99 87.97 60.49
  Q 88.86 58.70 90.53 57.67
  Q 90.74 57.54 90.75 57.29
  Q 90.75 57.16 90.75 57.02
  Q 90.75 56.85 90.88 56.73
  L 96.40 51.77
  A 1.26 1.26 0.0 0 0 96.42 49.93
  L 90.09 43.91
  Q 89.78 43.61 89.63 43.22
  Q 88.87 41.19 86.97 40.46
  Q 86.50 40.28 86.18 39.89
  C 82.21 35.10 77.11 30.49 73.18 26.44
  Q 68.03 21.12 62.59 16.09
  Q 62.24 15.77 62.14 15.31
  Q 61.85 13.93 60.57 13.25
  Q 60.11 13.00 59.80 12.57
  Q 57.78 9.83 54.97 7.87
  C 51.83 5.67 50.68 8.66 48.71 10.11
  C 47.13 11.27 42.06 14.47 41.99 16.39
  Q 41.97 16.87 41.63 17.22
  C 34.08 24.87 29.46 32.12 19.34 39.06
  C 17.77 40.14 16.37 42.00 14.54 43.54
  Q 12.06 45.62 10.60 50.41
  Q 10.46 50.88 10.61 51.34
  C 11.62 54.47 16.43 59.37 19.21 61.31
  C 22.60 63.69 25.21 67.39 27.77 69.74
  Q 34.94 76.33 41.66 83.40
  Q 42.00 83.76 42.00 84.25
  L 42.00 84.96
  Q 42.00 85.42 42.32 85.73
  C 46.22 89.55 49.83 93.80 53.53 94.52
  Q 54.02 94.61 54.32 94.20
  L 58.43 88.64
  Q 58.77 88.17 58.56 87.63
  L 58.10 86.45
  Q 57.90 85.94 57.36 85.94
  L 48.24 85.91
  Q 47.72 85.91 47.45 85.47
  Q 47.08 84.87 47.25 84.04
  Z"
/>
<path fill="#fcda08" d="
  M 85.00 56.54
  L 86.25 56.21
  Q 87.64 56.15 87.75 55.31
  Q 88.35 50.54 87.40 43.98
  Q 87.33 43.53 86.94 43.29
  L 85.03 42.10
  Q 84.57 41.82 84.03 41.82
  L 64.92 41.98
  A 2.55 2.55 0.0 0 1 62.35 39.59
  L 61.11 18.79
  Q 61.08 18.29 60.73 17.94
  L 60.40 17.61
  Q 60.08 17.29 59.90 16.89
  L 59.16 15.30
  Q 58.95 14.84 58.44 14.83
  C 53.25 14.72 48.09 13.73 44.40 18.23
  Q 44.11 18.58 44.10 19.04
  L 43.88 39.65
  Q 43.88 40.02 44.12 40.29
  Q 44.87 41.14 44.32 42.05
  Q 44.01 42.56 43.52 42.23
  C 42.23 41.36 25.62 41.75 22.54 41.57
  Q 22.01 41.54 21.57 41.83
  L 17.48 44.42
  Q 17.00 44.73 17.12 45.28
  Q 18.22 50.25 17.33 55.23
  Q 17.24 55.74 17.68 56.01
  L 18.95 56.79
  Q 19.29 57.00 19.40 57.39
  C 19.91 59.14 24.67 60.19 26.55 60.04
  Q 34.40 59.40 42.31 59.10
  Q 43.31 59.06 43.51 60.04
  C 44.96 67.11 44.34 75.30 44.71 82.58
  Q 44.74 83.09 45.24 83.20
  L 46.71 83.50
  L 47.25 84.04
  Q 47.08 84.87 47.45 85.47
  Q 47.72 85.91 48.24 85.91
  L 57.36 85.94
  Q 57.90 85.94 58.10 86.45
  L 58.56 87.63
  Q 58.77 88.17 58.43 88.64
  L 54.32 94.20
  Q 54.02 94.61 53.53 94.52
  C 49.83 93.80 46.22 89.55 42.32 85.73
  Q 42.00 85.42 42.00 84.96
  L 42.00 84.25
  Q 42.00 83.76 41.66 83.40
  Q 34.94 76.33 27.77 69.74
  C 25.21 67.39 22.60 63.69 19.21 61.31
  C 16.43 59.37 11.62 54.47 10.61 51.34
  Q 10.46 50.88 10.60 50.41
  Q 12.06 45.62 14.54 43.54
  C 16.37 42.00 17.77 40.14 19.34 39.06
  C 29.46 32.12 34.08 24.87 41.63 17.22
  Q 41.97 16.87 41.99 16.39
  C 42.06 14.47 47.13 11.27 48.71 10.11
  C 50.68 8.66 51.83 5.67 54.97 7.87
  Q 57.78 9.83 59.80 12.57
  Q 60.11 13.00 60.57 13.25
  Q 61.85 13.93 62.14 15.31
  Q 62.24 15.77 62.59 16.09
  Q 68.03 21.12 73.18 26.44
  C 77.11 30.49 82.21 35.10 86.18 39.89
  Q 86.50 40.28 86.97 40.46
  Q 88.87 41.19 89.63 43.22
  Q 89.78 43.61 90.09 43.91
  L 96.42 49.93
  A 1.26 1.26 0.0 0 1 96.40 51.77
  L 90.88 56.73
  Q 90.75 56.85 90.75 57.02
  Q 90.75 57.16 90.75 57.29
  Q 90.74 57.54 90.53 57.67
  Q 88.86 58.70 87.97 60.49
  Q 87.73 60.99 87.24 61.25
  Q 83.80 63.06 81.54 66.53
  C 79.68 69.37 76.36 70.74 74.29 72.67
  C 71.58 75.19 68.78 77.22 66.70 80.39
  Q 65.34 82.46 63.83 84.45
  A 1.20 1.20 0.0 0 1 61.68 83.72
  L 61.71 60.31
  Q 61.71 58.73 63.28 58.96
  C 66.54 59.45 84.01 60.92 85.00 56.54
  Z"
/>
<path fill="#efd442" d="
  M 86.25 56.21
  L 86.20 44.91
  Q 86.20 44.25 85.54 44.25
  L 59.75 44.25
  Q 59.25 44.25 59.25 43.75
  L 59.25 17.91
  Q 59.25 17.32 58.66 17.31
  L 47.39 17.23
  Q 46.75 17.22 46.75 17.86
  L 46.75 43.75
  Q 46.75 44.25 46.25 44.25
  L 20.00 44.25
  A 0.50 0.50 0.0 0 0 19.50 44.75
  L 19.50 56.00
  Q 19.50 56.50 20.00 56.50
  L 46.02 56.50
  A 0.72 0.72 0.0 0 1 46.74 57.22
  L 46.71 83.50
  L 45.24 83.20
  Q 44.74 83.09 44.71 82.58
  C 44.34 75.30 44.96 67.11 43.51 60.04
  Q 43.31 59.06 42.31 59.10
  Q 34.40 59.40 26.55 60.04
  C 24.67 60.19 19.91 59.14 19.40 57.39
  Q 19.29 57.00 18.95 56.79
  L 17.68 56.01
  Q 17.24 55.74 17.33 55.23
  Q 18.22 50.25 17.12 45.28
  Q 17.00 44.73 17.48 44.42
  L 21.57 41.83
  Q 22.01 41.54 22.54 41.57
  C 25.62 41.75 42.23 41.36 43.52 42.23
  Q 44.01 42.56 44.32 42.05
  Q 44.87 41.14 44.12 40.29
  Q 43.88 40.02 43.88 39.65
  L 44.10 19.04
  Q 44.11 18.58 44.40 18.23
  C 48.09 13.73 53.25 14.72 58.44 14.83
  Q 58.95 14.84 59.16 15.30
  L 59.90 16.89
  Q 60.08 17.29 60.40 17.61
  L 60.73 17.94
  Q 61.08 18.29 61.11 18.79
  L 62.35 39.59
  A 2.55 2.55 0.0 0 0 64.92 41.98
  L 84.03 41.82
  Q 84.57 41.82 85.03 42.10
  L 86.94 43.29
  Q 87.33 43.53 87.40 43.98
  Q 88.35 50.54 87.75 55.31
  Q 87.64 56.15 86.25 56.21
  Z"
/>
<path fill="#030203" d="
  M 86.25 56.21
  L 85.00 56.54
  L 59.74 56.55
  Q 59.25 56.55 59.25 57.04
  L 59.25 83.27
  A 0.74 0.74 0.0 0 1 58.51 84.01
  L 47.25 84.04
  L 46.71 83.50
  L 46.74 57.22
  A 0.72 0.72 0.0 0 0 46.02 56.50
  L 20.00 56.50
  Q 19.50 56.50 19.50 56.00
  L 19.50 44.75
  A 0.50 0.50 0.0 0 1 20.00 44.25
  L 46.25 44.25
  Q 46.75 44.25 46.75 43.75
  L 46.75 17.86
  Q 46.75 17.22 47.39 17.23
  L 58.66 17.31
  Q 59.25 17.32 59.25 17.91
  L 59.25 43.75
  Q 59.25 44.25 59.75 44.25
  L 85.54 44.25
  Q 86.20 44.25 86.20 44.91
  L 86.25 56.21
  Z"
/>
<path fill="#efd442" d="
  M 30.04 79.75
  L 45.46 95.00
  L 44.71 95.25
  Q 43.37 93.58 41.43 92.76
  Q 40.98 92.57 40.82 92.11
  L 40.49 91.15
  Q 40.31 90.65 39.82 90.46
  Q 37.43 89.53 35.93 87.32
  Q 35.77 87.09 35.69 86.83
  Q 35.53 86.29 34.96 86.19
  Q 34.41 86.10 34.05 85.68
  L 29.50 80.29
  L 30.04 79.75
  Z"
/>
</svg>
