<?xml version="1.0" encoding="UTF-8" standalone="no"?>
<!DOCTYPE svg PUBLIC "-//W3C//DTD SVG 1.1//EN" "http://www.w3.org/Graphics/SVG/1.1/DTD/svg11.dtd">
<svg xmlns="http://www.w3.org/2000/svg" version="1.1" viewBox="0 0 103 103">
<g stroke-width="2.00" fill="none" stroke-linecap="butt">
<path stroke="#857736" vector-effect="non-scaling-stroke" d="
  M 100.31 47.19
  Q 79.06 25.82 57.52 4.82
  C 52.78 0.20 49.10 1.16 44.55 5.64
  Q 24.95 24.94 5.56 44.44
  C 1.16 48.86 1.61 53.25 6.00 57.68
  Q 25.17 77.07 44.34 96.47
  C 49.06 101.24 53.61 101.28 58.51 96.41
  C 72.19 82.80 86.19 69.33 99.34 55.22
  Q 99.55 55.00 99.85 55.00
  L 100.21 55.00"
/>
<path stroke="#847021" vector-effect="non-scaling-stroke" d="
  M 54.7796 6.9265
  A 4.47 4.47 0.0 0 0 48.4580 6.9265
  L 7.5165 47.8680
  A 4.47 4.47 0.0 0 0 7.5165 54.1896
  L 48.5004 95.1735
  A 4.47 4.47 0.0 0 0 54.8220 95.1735
  L 95.7635 54.2320
  A 4.47 4.47 0.0 0 0 95.7635 47.9104
  L 54.7796 6.9265"
/>
<path stroke="#7c6d22" vector-effect="non-scaling-stroke" d="
  M 65.00 26.21
  Q 49.31 20.23 35.57 29.71
  Q 35.03 30.09 34.51 29.68
  L 32.12 27.77
  A 0.77 0.77 0.0 0 0 30.87 28.33
  L 29.82 45.52
  A 0.50 0.50 0.0 0 0 30.53 46.01
  L 44.82 39.36
  A 1.17 1.16 -37.6 0 0 45.08 37.41
  L 43.56 36.14
  Q 43.12 35.78 43.55 35.40
  C 48.30 31.29 56.21 31.91 61.55 34.17
  Q 61.94 34.34 62.14 33.96
  L 65.75 27.21"
/>
<path stroke="#f7d823" vector-effect="non-scaling-stroke" d="
  M 65.75 27.21
  C 69.33 28.46 65.56 32.16 64.31 33.44
  Q 63.96 33.78 64.00 34.27
  C 64.27 37.70 58.55 35.53 57.45 35.47
  Q 53.66 35.25 48.91 35.40
  A 1.34 1.34 0.0 0 0 47.84 37.49
  C 50.14 40.87 36.73 46.47 34.60 47.33
  C 33.96 47.59 33.48 48.33 33.22 48.92
  Q 32.99 49.46 33.50 49.73
  L 34.85 50.45
  Q 35.40 50.75 35.42 51.38
  Q 35.55 56.02 38.59 59.45
  Q 38.90 59.80 38.94 60.25
  Q 39.16 62.43 40.99 63.54
  Q 41.37 63.77 41.81 63.69
  C 47.77 62.63 49.80 66.74 54.62 68.55
  C 57.12 69.49 64.62 73.99 59.76 77.29
  C 54.69 80.73 47.93 83.18 44.56 88.00
  A 0.65 0.65 0.0 0 0 44.73 88.92
  C 46.88 90.31 49.16 93.68 51.36 94.17
  Q 51.84 94.28 52.26 94.04
  C 57.76 90.93 60.07 87.22 63.78 83.02
  C 64.87 81.78 65.06 80.57 66.06 79.20
  Q 66.37 78.79 66.17 78.32
  L 61.75 67.41
  Q 61.52 66.83 61.99 66.42
  Q 66.14 62.89 69.09 58.28
  Q 69.36 57.86 69.21 57.38
  Q 68.66 55.64 67.02 55.30
  A 1.69 1.69 0.0 0 1 65.68 53.61
  L 66.00 38.87
  Q 66.01 38.33 66.42 37.97
  Q 67.53 36.98 69.21 37.00"
/>
<path stroke="#7c6d22" vector-effect="non-scaling-stroke" d="
  M 69.21 37.00
  L 67.96 51.25"
/>
<path stroke="#847021" vector-effect="non-scaling-stroke" d="
  M 67.96 51.25
  Q 67.06 52.85 68.46 53.50"
/>
<path stroke="#7c6d22" vector-effect="non-scaling-stroke" d="
  M 68.46 53.50
  Q 68.93 53.92 69.60 53.97
  Q 70.13 54.01 70.40 53.56
  Q 71.02 52.54 71.91 51.78
  Q 72.77 51.04 72.56 52.15
  C 71.93 55.45 71.62 58.85 69.70 61.65
  Q 67.46 64.92 64.54 67.75
  Q 64.16 68.12 64.38 68.59
  L 67.54 75.47
  Q 67.77 75.98 68.23 75.65
  Q 82.84 65.18 80.68 47.17
  Q 80.63 46.69 81.07 46.49
  L 85.17 44.67
  A 0.67 0.67 0.0 0 0 85.22 43.47
  Q 81.97 41.69 78.80 39.83
  C 77.02 38.78 74.51 38.36 72.65 36.59
  Q 72.11 36.08 69.54 35.25"
/>
<path stroke="#f7d823" vector-effect="non-scaling-stroke" d="
  M 69.54 35.25
  Q 70.03 34.62 69.78 33.78
  Q 69.60 33.16 70.25 33.20
  Q 72.86 33.37 74.56 35.40
  Q 74.88 35.78 75.38 35.74
  Q 75.57 35.72 75.73 35.75
  Q 76.04 35.81 76.22 36.07
  Q 77.99 38.62 80.76 36.99
  A 0.88 0.88 0.0 0 0 80.88 35.55
  Q 72.60 28.66 65.41 20.76
  C 62.80 17.89 59.40 15.07 56.69 11.81
  C 51.20 5.19 48.96 8.73 44.81 13.64
  Q 43.41 15.29 41.16 17.32
  C 38.14 20.06 36.67 22.95 32.83 24.73
  A 0.80 0.79 48.4 0 0 32.75 26.13
  C 37.13 28.83 44.24 23.03 48.54 22.31
  Q 52.83 21.59 57.15 21.98
  C 59.61 22.20 64.21 20.80 65.25 23.93
  Q 65.41 24.40 65.10 24.80
  Q 64.57 25.49 65.00 26.21"
/>
<path stroke="#826f04" vector-effect="non-scaling-stroke" d="
  M 69.54 35.25
  L 69.21 37.00"
/>
<path stroke="#826f04" vector-effect="non-scaling-stroke" d="
  M 65.75 27.21
  L 65.00 26.21"
/>
<path stroke="#0f0802" vector-effect="non-scaling-stroke" d="
  M 68.46 53.50
  L 67.96 51.25"
/>
<path stroke="#f7d823" vector-effect="non-scaling-stroke" d="
  M 24.06 68.27
  A 0.12 0.11 61.2 0 0 24.18 68.31
  L 26.75 67.58
  Q 27.33 67.41 27.21 66.82
  C 27.00 65.77 26.91 65.03 26.22 64.11
  C 23.04 59.92 19.90 49.38 28.34 49.43
  A 0.81 0.81 0.0 0 0 28.99 48.14
  C 26.68 45.04 28.11 37.27 28.14 33.20
  A 1.20 1.20 0.0 0 0 26.03 32.40
  Q 18.78 40.71 9.75 47.76
  Q 8.15 49.01 8.31 51.50
  Q 8.34 51.97 8.65 52.32
  C 11.96 55.98 15.19 59.21 18.92 62.44
  Q 21.39 64.58 24.06 68.27"
/>
<path stroke="#f7d823" vector-effect="non-scaling-stroke" d="
  M 94.38 50.24
  C 91.83 46.49 88.51 42.48 84.45 48.15
  C 82.68 50.63 82.53 58.07 81.98 61.40
  Q 81.50 64.33 84.07 62.86
  Q 85.41 62.09 86.80 59.96
  C 88.70 57.07 91.57 55.18 94.08 52.86
  A 2.02 2.02 0.0 0 0 94.38 50.24"
/>
<path stroke="#7c6d22" vector-effect="non-scaling-stroke" d="
  M 59.14 74.61
  L 44.47 65.25
  A 0.70 0.70 0.0 0 0 43.46 65.54
  Q 42.98 66.58 43.43 67.62
  Q 43.61 68.03 43.29 68.34
  C 42.99 68.63 42.57 68.50 42.24 68.26
  Q 34.16 62.39 33.38 52.34
  Q 33.34 51.75 32.75 51.75
  L 25.30 51.75
  Q 24.69 51.75 24.73 52.36
  C 25.53 63.33 32.23 74.39 43.13 77.74
  A 1.21 1.21 0.0 0 1 43.97 79.05
  L 43.38 83.67
  A 0.57 0.57 0.0 0 0 44.24 84.23
  C 45.84 83.26 59.35 75.46 59.23 74.75
  A 0.20 0.19 13.8 0 0 59.14 74.61"
/>
</g>
<path fill="#f4e26a" d="
  M 51.31 0.00
  L 52.56 0.00
  C 53.96 0.42 55.43 0.71 56.54 1.77
  Q 67.04 11.78 76.97 22.38
  Q 76.97 22.38 79.08 24.00
  C 81.29 25.70 81.48 27.81 84.66 29.23
  Q 85.13 29.44 85.39 29.89
  Q 87.83 34.08 91.98 36.52
  C 92.80 37.00 92.99 37.58 93.17 38.47
  Q 93.27 38.97 93.68 39.29
  Q 97.88 42.53 100.31 47.19
  Q 79.06 25.82 57.52 4.82
  C 52.78 0.20 49.10 1.16 44.55 5.64
  Q 24.95 24.94 5.56 44.44
  C 1.16 48.86 1.61 53.25 6.00 57.68
  Q 25.17 77.07 44.34 96.47
  C 49.06 101.24 53.61 101.28 58.51 96.41
  C 72.19 82.80 86.19 69.33 99.34 55.22
  Q 99.55 55.00 99.85 55.00
  L 100.21 55.00
  Q 98.55 60.56 93.48 63.17
  Q 92.99 63.43 92.76 63.92
  Q 91.17 67.32 87.80 69.03
  Q 87.31 69.28 87.08 69.77
  C 85.46 73.20 82.54 74.23 80.44 76.61
  C 74.88 82.89 68.74 88.46 63.10 94.76
  C 58.29 100.12 52.24 105.64 45.51 99.69
  C 39.27 94.18 33.92 87.93 27.82 82.32
  C 23.53 78.38 19.71 73.64 15.62 70.02
  C 9.11 64.24 3.25 58.83 0.00 51.44
  L 0.00 50.44
  Q 0.77 49.21 0.84 47.68
  Q 0.87 47.14 1.27 46.78
  L 5.38 43.16
  Q 5.80 42.80 5.76 42.25
  Q 5.65 40.87 7.10 40.72
  Q 7.58 40.67 7.95 40.36
  C 10.32 38.37 11.75 35.99 14.16 34.01
  C 16.38 32.19 18.23 29.63 20.13 27.86
  Q 30.53 18.21 36.23 12.24
  C 38.56 9.80 40.92 8.08 42.91 5.47
  Q 46.07 1.33 51.31 0.00
  Z"
/>
<path fill="#160b01" d="
  M 100.31 47.19
  L 100.21 55.00
  L 99.85 55.00
  Q 99.55 55.00 99.34 55.22
  C 86.19 69.33 72.19 82.80 58.51 96.41
  C 53.61 101.28 49.06 101.24 44.34 96.47
  Q 25.17 77.07 6.00 57.68
  C 1.61 53.25 1.16 48.86 5.56 44.44
  Q 24.95 24.94 44.55 5.64
  C 49.10 1.16 52.78 0.20 57.52 4.82
  Q 79.06 25.82 100.31 47.19
  Z
  M 54.7796 6.9265
  A 4.47 4.47 0.0 0 0 48.4580 6.9265
  L 7.5165 47.8680
  A 4.47 4.47 0.0 0 0 7.5165 54.1896
  L 48.5004 95.1735
  A 4.47 4.47 0.0 0 0 54.8220 95.1735
  L 95.7635 54.2320
  A 4.47 4.47 0.0 0 0 95.7635 47.9104
  L 54.7796 6.9265
  Z"
/>
<path fill="#f1d541" d="
  M 95.7635 47.9104
  A 4.47 4.47 0.0 0 1 95.7635 54.2320
  L 54.8220 95.1735
  A 4.47 4.47 0.0 0 1 48.5004 95.1735
  L 7.5165 54.1896
  A 4.47 4.47 0.0 0 1 7.5165 47.8680
  L 48.4580 6.9265
  A 4.47 4.47 0.0 0 1 54.7796 6.9265
  L 95.7635 47.9104
  Z
  M 65.00 26.21
  Q 49.31 20.23 35.57 29.71
  Q 35.03 30.09 34.51 29.68
  L 32.12 27.77
  A 0.77 0.77 0.0 0 0 30.87 28.33
  L 29.82 45.52
  A 0.50 0.50 0.0 0 0 30.53 46.01
  L 44.82 39.36
  A 1.17 1.16 -37.6 0 0 45.08 37.41
  L 43.56 36.14
  Q 43.12 35.78 43.55 35.40
  C 48.30 31.29 56.21 31.91 61.55 34.17
  Q 61.94 34.34 62.14 33.96
  L 65.75 27.21
  C 69.33 28.46 65.56 32.16 64.31 33.44
  Q 63.96 33.78 64.00 34.27
  C 64.27 37.70 58.55 35.53 57.45 35.47
  Q 53.66 35.25 48.91 35.40
  A 1.34 1.34 0.0 0 0 47.84 37.49
  C 50.14 40.87 36.73 46.47 34.60 47.33
  C 33.96 47.59 33.48 48.33 33.22 48.92
  Q 32.99 49.46 33.50 49.73
  L 34.85 50.45
  Q 35.40 50.75 35.42 51.38
  Q 35.55 56.02 38.59 59.45
  Q 38.90 59.80 38.94 60.25
  Q 39.16 62.43 40.99 63.54
  Q 41.37 63.77 41.81 63.69
  C 47.77 62.63 49.80 66.74 54.62 68.55
  C 57.12 69.49 64.62 73.99 59.76 77.29
  C 54.69 80.73 47.93 83.18 44.56 88.00
  A 0.65 0.65 0.0 0 0 44.73 88.92
  C 46.88 90.31 49.16 93.68 51.36 94.17
  Q 51.84 94.28 52.26 94.04
  C 57.76 90.93 60.07 87.22 63.78 83.02
  C 64.87 81.78 65.06 80.57 66.06 79.20
  Q 66.37 78.79 66.17 78.32
  L 61.75 67.41
  Q 61.52 66.83 61.99 66.42
  Q 66.14 62.89 69.09 58.28
  Q 69.36 57.86 69.21 57.38
  Q 68.66 55.64 67.02 55.30
  A 1.69 1.69 0.0 0 1 65.68 53.61
  L 66.00 38.87
  Q 66.01 38.33 66.42 37.97
  Q 67.53 36.98 69.21 37.00
  L 67.96 51.25
  Q 67.06 52.85 68.46 53.50
  Q 68.93 53.92 69.60 53.97
  Q 70.13 54.01 70.40 53.56
  Q 71.02 52.54 71.91 51.78
  Q 72.77 51.04 72.56 52.15
  C 71.93 55.45 71.62 58.85 69.70 61.65
  Q 67.46 64.92 64.54 67.75
  Q 64.16 68.12 64.38 68.59
  L 67.54 75.47
  Q 67.77 75.98 68.23 75.65
  Q 82.84 65.18 80.68 47.17
  Q 80.63 46.69 81.07 46.49
  L 85.17 44.67
  A 0.67 0.67 0.0 0 0 85.22 43.47
  Q 81.97 41.69 78.80 39.83
  C 77.02 38.78 74.51 38.36 72.65 36.59
  Q 72.11 36.08 69.54 35.25
  Q 70.03 34.62 69.78 33.78
  Q 69.60 33.16 70.25 33.20
  Q 72.86 33.37 74.56 35.40
  Q 74.88 35.78 75.38 35.74
  Q 75.57 35.72 75.73 35.75
  Q 76.04 35.81 76.22 36.07
  Q 77.99 38.62 80.76 36.99
  A 0.88 0.88 0.0 0 0 80.88 35.55
  Q 72.60 28.66 65.41 20.76
  C 62.80 17.89 59.40 15.07 56.69 11.81
  C 51.20 5.19 48.96 8.73 44.81 13.64
  Q 43.41 15.29 41.16 17.32
  C 38.14 20.06 36.67 22.95 32.83 24.73
  A 0.80 0.79 48.4 0 0 32.75 26.13
  C 37.13 28.83 44.24 23.03 48.54 22.31
  Q 52.83 21.59 57.15 21.98
  C 59.61 22.20 64.21 20.80 65.25 23.93
  Q 65.41 24.40 65.10 24.80
  Q 64.57 25.49 65.00 26.21
  Z
  M 24.06 68.27
  A 0.12 0.11 61.2 0 0 24.18 68.31
  L 26.75 67.58
  Q 27.33 67.41 27.21 66.82
  C 27.00 65.77 26.91 65.03 26.22 64.11
  C 23.04 59.92 19.90 49.38 28.34 49.43
  A 0.81 0.81 0.0 0 0 28.99 48.14
  C 26.68 45.04 28.11 37.27 28.14 33.20
  A 1.20 1.20 0.0 0 0 26.03 32.40
  Q 18.78 40.71 9.75 47.76
  Q 8.15 49.01 8.31 51.50
  Q 8.34 51.97 8.65 52.32
  C 11.96 55.98 15.19 59.21 18.92 62.44
  Q 21.39 64.58 24.06 68.27
  Z
  M 94.38 50.24
  C 91.83 46.49 88.51 42.48 84.45 48.15
  C 82.68 50.63 82.53 58.07 81.98 61.40
  Q 81.50 64.33 84.07 62.86
  Q 85.41 62.09 86.80 59.96
  C 88.70 57.07 91.57 55.18 94.08 52.86
  A 2.02 2.02 0.0 0 0 94.38 50.24
  Z
  M 59.14 74.61
  L 44.47 65.25
  A 0.70 0.70 0.0 0 0 43.46 65.54
  Q 42.98 66.58 43.43 67.62
  Q 43.61 68.03 43.29 68.34
  C 42.99 68.63 42.57 68.50 42.24 68.26
  Q 34.16 62.39 33.38 52.34
  Q 33.34 51.75 32.75 51.75
  L 25.30 51.75
  Q 24.69 51.75 24.73 52.36
  C 25.53 63.33 32.23 74.39 43.13 77.74
  A 1.21 1.21 0.0 0 1 43.97 79.05
  L 43.38 83.67
  A 0.57 0.57 0.0 0 0 44.24 84.23
  C 45.84 83.26 59.35 75.46 59.23 74.75
  A 0.20 0.19 13.8 0 0 59.14 74.61
  Z"
/>
<path fill="#fcda05" d="
  M 69.54 35.25
  L 69.21 37.00
  Q 67.53 36.98 66.42 37.97
  Q 66.01 38.33 66.00 38.87
  L 65.68 53.61
  A 1.69 1.69 0.0 0 0 67.02 55.30
  Q 68.66 55.64 69.21 57.38
  Q 69.36 57.86 69.09 58.28
  Q 66.14 62.89 61.99 66.42
  Q 61.52 66.83 61.75 67.41
  L 66.17 78.32
  Q 66.37 78.79 66.06 79.20
  C 65.06 80.57 64.87 81.78 63.78 83.02
  C 60.07 87.22 57.76 90.93 52.26 94.04
  Q 51.84 94.28 51.36 94.17
  C 49.16 93.68 46.88 90.31 44.73 88.92
  A 0.65 0.65 0.0 0 1 44.56 88.00
  C 47.93 83.18 54.69 80.73 59.76 77.29
  C 64.62 73.99 57.12 69.49 54.62 68.55
  C 49.80 66.74 47.77 62.63 41.81 63.69
  Q 41.37 63.77 40.99 63.54
  Q 39.16 62.43 38.94 60.25
  Q 38.90 59.80 38.59 59.45
  Q 35.55 56.02 35.42 51.38
  Q 35.40 50.75 34.85 50.45
  L 33.50 49.73
  Q 32.99 49.46 33.22 48.92
  C 33.48 48.33 33.96 47.59 34.60 47.33
  C 36.73 46.47 50.14 40.87 47.84 37.49
  A 1.34 1.34 0.0 0 1 48.91 35.40
  Q 53.66 35.25 57.45 35.47
  C 58.55 35.53 64.27 37.70 64.00 34.27
  Q 63.96 33.78 64.31 33.44
  C 65.56 32.16 69.33 28.46 65.75 27.21
  L 65.00 26.21
  Q 64.57 25.49 65.10 24.80
  Q 65.41 24.40 65.25 23.93
  C 64.21 20.80 59.61 22.20 57.15 21.98
  Q 52.83 21.59 48.54 22.31
  C 44.24 23.03 37.13 28.83 32.75 26.13
  A 0.80 0.79 48.4 0 1 32.83 24.73
  C 36.67 22.95 38.14 20.06 41.16 17.32
  Q 43.41 15.29 44.81 13.64
  C 48.96 8.73 51.20 5.19 56.69 11.81
  C 59.40 15.07 62.80 17.89 65.41 20.76
  Q 72.60 28.66 80.88 35.55
  A 0.88 0.88 0.0 0 1 80.76 36.99
  Q 77.99 38.62 76.22 36.07
  Q 76.04 35.81 75.73 35.75
  Q 75.57 35.72 75.38 35.74
  Q 74.88 35.78 74.56 35.40
  Q 72.86 33.37 70.25 33.20
  Q 69.60 33.16 69.78 33.78
  Q 70.03 34.62 69.54 35.25
  Z"
/>
<path fill="#070403" d="
  M 65.00 26.21
  L 65.75 27.21
  L 62.14 33.96
  Q 61.94 34.34 61.55 34.17
  C 56.21 31.91 48.30 31.29 43.55 35.40
  Q 43.12 35.78 43.56 36.14
  L 45.08 37.41
  A 1.17 1.16 -37.6 0 1 44.82 39.36
  L 30.53 46.01
  A 0.50 0.50 0.0 0 1 29.82 45.52
  L 30.87 28.33
  A 0.77 0.77 0.0 0 1 32.12 27.77
  L 34.51 29.68
  Q 35.03 30.09 35.57 29.71
  Q 49.31 20.23 65.00 26.21
  Z"
/>
<path fill="#fcda05" d="
  M 24.06 68.27
  Q 21.39 64.58 18.92 62.44
  C 15.19 59.21 11.96 55.98 8.65 52.32
  Q 8.34 51.97 8.31 51.50
  Q 8.15 49.01 9.75 47.76
  Q 18.78 40.71 26.03 32.40
  A 1.20 1.20 0.0 0 1 28.14 33.20
  C 28.11 37.27 26.68 45.04 28.99 48.14
  A 0.81 0.81 0.0 0 1 28.34 49.43
  C 19.90 49.38 23.04 59.92 26.22 64.11
  C 26.91 65.03 27.00 65.77 27.21 66.82
  Q 27.33 67.41 26.75 67.58
  L 24.18 68.31
  A 0.12 0.11 61.2 0 1 24.06 68.27
  Z"
/>
<path fill="#070403" d="
  M 69.54 35.25
  Q 72.11 36.08 72.65 36.59
  C 74.51 38.36 77.02 38.78 78.80 39.83
  Q 81.97 41.69 85.22 43.47
  A 0.67 0.67 0.0 0 1 85.17 44.67
  L 81.07 46.49
  Q 80.63 46.69 80.68 47.17
  Q 82.84 65.18 68.23 75.65
  Q 67.77 75.98 67.54 75.47
  L 64.38 68.59
  Q 64.16 68.12 64.54 67.75
  Q 67.46 64.92 69.70 61.65
  C 71.62 58.85 71.93 55.45 72.56 52.15
  Q 72.77 51.04 71.91 51.78
  Q 71.02 52.54 70.40 53.56
  Q 70.13 54.01 69.60 53.97
  Q 68.93 53.92 68.46 53.50
  L 67.96 51.25
  L 69.21 37.00
  L 69.54 35.25
  Z"
/>
<path fill="#fcda05" d="
  M 84.45 48.15
  C 88.51 42.48 91.83 46.49 94.38 50.24
  A 2.02 2.02 0.0 0 1 94.08 52.86
  C 91.57 55.18 88.70 57.07 86.80 59.96
  Q 85.41 62.09 84.07 62.86
  Q 81.50 64.33 81.98 61.40
  C 82.53 58.07 82.68 50.63 84.45 48.15
  Z"
/>
<path fill="#160b01" d="
  M 67.96 51.25
  L 68.46 53.50
  Q 67.06 52.85 67.96 51.25
  Z"
/>
<path fill="#070403" d="
  M 59.14 74.61
  A 0.20 0.19 13.8 0 1 59.23 74.75
  C 59.35 75.46 45.84 83.26 44.24 84.23
  A 0.57 0.57 0.0 0 1 43.38 83.67
  L 43.97 79.05
  A 1.21 1.21 0.0 0 0 43.13 77.74
  C 32.23 74.39 25.53 63.33 24.73 52.36
  Q 24.69 51.75 25.30 51.75
  L 32.75 51.75
  Q 33.34 51.75 33.38 52.34
  Q 34.16 62.39 42.24 68.26
  C 42.57 68.50 42.99 68.63 43.29 68.34
  Q 43.61 68.03 43.43 67.62
  Q 42.98 66.58 43.46 65.54
  A 0.70 0.70 0.0 0 1 44.47 65.25
  L 59.14 74.61
  Z"
/>
</svg>
