<?xml version="1.0" encoding="UTF-8" standalone="no"?>
<!DOCTYPE svg PUBLIC "-//W3C//DTD SVG 1.1//EN" "http://www.w3.org/Graphics/SVG/1.1/DTD/svg11.dtd">
<svg xmlns="http://www.w3.org/2000/svg" version="1.1" viewBox="0 0 105 104">
<g stroke-width="2.00" fill="none" stroke-linecap="butt">
<path stroke="#7e7033" vector-effect="non-scaling-stroke" d="
  M 57.4635 5.9593
  A 7.75 7.75 0.0 0 0 46.5034 5.9593
  L 5.1093 47.3534
  A 7.75 7.75 0.0 0 0 5.1093 58.3135
  L 46.6165 99.8207
  A 7.75 7.75 0.0 0 0 57.5766 99.8207
  L 98.9707 58.4266
  A 7.75 7.75 0.0 0 0 98.9707 47.4665
  L 57.4635 5.9593"
/>
<path stroke="#8a7404" vector-effect="non-scaling-stroke" d="
  M 40.28 88.20
  Q 44.29 92.63 49.79 97.45
  C 53.04 100.29 55.62 96.35 58.04 93.75"
/>
<path stroke="#846f22" vector-effect="non-scaling-stroke" d="
  M 58.04 93.75
  Q 77.13 75.15 95.92 56.24
  C 97.36 54.78 98.51 52.35 96.95 50.80
  Q 76.75 30.75 56.69 10.56
  C 54.86 8.72 53.17 6.16 50.19 8.18
  Q 47.45 10.03 45.15 12.41
  Q 27.10 31.14 8.63 49.48
  C 6.45 51.65 5.50 53.34 7.95 55.80
  Q 24.09 71.99 40.28 88.20"
/>
<path stroke="#f6d525" vector-effect="non-scaling-stroke" d="
  M 58.04 93.75
  C 58.62 92.33 59.09 91.03 60.19 89.87
  C 63.25 86.62 65.43 82.69 68.88 79.93
  Q 76.75 73.64 80.59 68.57
  Q 83.69 64.48 87.16 62.52
  C 90.40 60.69 94.15 56.29 95.03 52.61
  Q 95.14 52.16 94.79 51.87
  Q 94.53 51.65 94.19 51.57
  Q 93.71 51.46 93.40 51.08
  C 88.58 45.13 81.93 39.93 77.42 35.20
  Q 68.73 26.07 59.80 17.19
  C 57.44 14.84 55.84 12.02 52.09 10.73
  Q 51.60 10.56 51.13 10.78
  Q 46.03 13.20 43.36 18.13
  Q 43.14 18.52 42.74 18.73
  Q 40.90 19.67 39.68 20.93
  Q 34.25 26.54 27.39 34.42
  C 25.67 36.40 23.33 37.69 21.45 40.10
  C 19.04 43.19 9.77 50.30 10.28 53.85
  C 10.71 56.85 17.94 62.48 20.35 64.56
  Q 20.70 64.86 20.81 65.30
  L 21.07 66.30
  Q 21.20 66.80 21.60 67.12
  Q 32.71 76.10 40.28 88.20"
/>
<path stroke="#847005" vector-effect="non-scaling-stroke" d="
  M 38.28 33.46
  Q 38.55 37.24 41.93 38.61
  Q 42.50 38.84 42.50 39.46
  L 42.50 46.45
  Q 42.50 46.90 42.05 46.93
  L 38.36 47.17
  Q 37.67 47.21 37.90 47.86
  Q 39.16 51.50 42.11 53.94
  Q 42.50 54.26 42.50 54.76
  L 42.50 62.96
  Q 42.50 63.42 42.04 63.48
  L 37.71 64.00"
/>
<path stroke="#f6d525" vector-effect="non-scaling-stroke" d="
  M 37.71 64.00
  Q 37.30 67.23 39.71 69.20
  A 2.49 2.48 20.3 0 1 40.63 71.19
  L 40.45 77.94
  Q 40.44 78.49 40.98 78.49
  L 42.46 78.50"
/>
<path stroke="#847005" vector-effect="non-scaling-stroke" d="
  M 42.46 78.50
  Q 44.89 79.25 47.66 78.96
  Q 48.25 78.90 48.25 79.49
  L 48.25 86.05
  Q 48.25 86.70 48.90 86.68
  L 54.71 86.50"
/>
<path stroke="#f6d525" vector-effect="non-scaling-stroke" d="
  M 54.71 86.50
  Q 54.76 86.97 55.36 87.18
  A 0.85 0.84 -76.3 0 0 56.47 86.50
  L 57.21 81.61
  Q 57.29 81.08 57.81 80.93
  L 60.34 80.23
  Q 60.80 80.10 61.13 79.77
  Q 64.40 76.58 63.38 71.83
  Q 63.26 71.32 63.56 70.88
  C 64.81 69.04 68.77 65.11 67.33 62.98
  Q 67.06 62.59 66.61 62.47
  L 63.38 61.60
  Q 62.58 61.39 62.93 60.63
  Q 64.16 57.94 63.39 55.01
  Q 63.25 54.49 63.62 54.10
  L 65.61 51.95
  Q 65.97 51.56 66.46 51.39
  C 69.37 50.35 67.75 44.82 63.92 44.88
  Q 63.27 44.89 63.27 44.25
  C 63.24 40.99 71.68 33.35 65.36 30.88
  Q 64.95 30.73 64.60 30.98
  Q 63.99 31.41 63.38 30.96
  Q 62.93 30.64 62.98 30.09
  C 63.72 22.62 50.21 24.45 44.82 24.81
  Q 44.32 24.85 43.86 24.64
  C 40.48 23.11 39.79 30.38 39.43 32.61
  Q 39.35 33.09 38.89 33.25
  L 38.28 33.46"
/>
<path stroke="#7e6b23" vector-effect="non-scaling-stroke" d="
  M 54.71 86.50
  L 54.96 79.53
  Q 54.98 79.00 55.52 79.00
  L 60.37 79.00
  Q 61.00 79.00 61.00 78.38
  L 61.00 70.30
  Q 61.00 69.78 61.33 69.39
  L 65.46 64.37
  A 0.43 0.42 21.7 0 0 65.16 63.68
  L 61.57 63.42
  Q 61.00 63.38 61.00 62.81
  L 61.00 54.76
  Q 61.00 54.23 61.37 53.85
  Q 63.89 51.27 65.54 48.07
  Q 65.89 47.38 65.12 47.33
  L 61.59 47.07
  Q 61.06 47.03 61.04 46.50
  C 60.97 44.72 60.06 38.34 62.70 38.22
  Q 63.27 38.19 63.58 37.71
  L 65.54 34.72
  A 0.79 0.79 0.0 0 0 64.87 33.50
  L 61.64 33.50
  Q 61.03 33.50 61.02 32.89
  L 60.96 28.01
  Q 60.95 27.39 60.33 27.38
  L 43.24 27.27
  Q 42.50 27.26 42.50 28.01
  L 42.50 32.76
  Q 42.50 33.26 42.01 33.39
  Q 40.33 33.84 38.28 33.46"
/>
<path stroke="#7e6b23" vector-effect="non-scaling-stroke" d="
  M 42.46 78.50
  L 42.47 70.09
  Q 42.48 69.58 42.08 69.26
  Q 39.38 67.07 37.71 64.00"
/>
<path stroke="#710c08" vector-effect="non-scaling-stroke" d="
  M 57.57 38.24
  A 5.71 5.71 0.0 0 0 51.86 32.53
  A 5.71 5.71 0.0 0 0 46.15 38.24
  A 5.71 5.71 0.0 0 0 51.86 43.95
  A 5.71 5.71 0.0 0 0 57.57 38.24"
/>
<path stroke="#847005" vector-effect="non-scaling-stroke" d="
  M 57.17 54.52
  A 4.97 4.97 0.0 0 0 52.20 49.55
  A 4.97 4.97 0.0 0 0 47.23 54.52
  A 4.97 4.97 0.0 0 0 52.20 59.49
  A 4.97 4.97 0.0 0 0 57.17 54.52"
/>
<path stroke="#137912" vector-effect="non-scaling-stroke" d="
  M 56.99 69.56
  A 4.79 4.79 0.0 0 0 52.20 64.77
  A 4.79 4.79 0.0 0 0 47.41 69.56
  A 4.79 4.79 0.0 0 0 52.20 74.35
  A 4.79 4.79 0.0 0 0 56.99 69.56"
/>
</g>
<path fill="#e4d365" d="
  M 54.69 104.00
  L 50.69 104.00
  Q 45.46 102.40 42.87 97.68
  C 42.56 97.13 40.73 96.23 40.14 95.64
  Q 24.48 79.99 8.78 64.37
  Q 7.94 63.54 6.18 60.85
  C 4.84 58.78 2.50 57.93 1.55 55.81
  Q -0.69 50.83 4.13 47.40
  Q 4.54 47.11 4.73 46.65
  C 5.95 43.80 13.11 38.75 13.00 38.02
  Q 12.93 37.51 13.29 37.15
  Q 25.97 24.28 38.68 11.45
  Q 38.80 11.33 41.28 8.52
  C 47.42 1.58 54.28 -1.85 60.50 7.05
  C 61.35 8.26 61.28 9.71 63.23 10.07
  Q 63.70 10.16 64.04 10.49
  Q 71.26 17.51 78.35 24.65
  Q 85.26 31.60 92.38 38.34
  Q 92.83 38.77 96.63 43.11
  C 98.60 45.36 101.64 46.65 102.80 49.17
  C 105.09 54.17 102.15 59.59 97.66 62.27
  Q 97.22 62.53 96.99 62.98
  C 95.72 65.49 93.21 66.68 91.76 68.12
  Q 81.53 78.22 71.32 88.32
  Q 70.67 88.96 69.57 89.45
  Q 69.10 89.66 68.84 90.10
  C 67.15 93.03 64.59 93.96 62.85 96.57
  C 60.36 100.31 57.40 101.23 54.69 104.00
  Z
  M 57.4635 5.9593
  A 7.75 7.75 0.0 0 0 46.5034 5.9593
  L 5.1093 47.3534
  A 7.75 7.75 0.0 0 0 5.1093 58.3135
  L 46.6165 99.8207
  A 7.75 7.75 0.0 0 0 57.5766 99.8207
  L 98.9707 58.4266
  A 7.75 7.75 0.0 0 0 98.9707 47.4665
  L 57.4635 5.9593
  Z"
/>
<path fill="#170d01" d="
  M 98.9707 47.4665
  A 7.75 7.75 0.0 0 1 98.9707 58.4266
  L 57.5766 99.8207
  A 7.75 7.75 0.0 0 1 46.6165 99.8207
  L 5.1093 58.3135
  A 7.75 7.75 0.0 0 1 5.1093 47.3534
  L 46.5034 5.9593
  A 7.75 7.75 0.0 0 1 57.4635 5.9593
  L 98.9707 47.4665
  Z
  M 40.28 88.20
  Q 44.29 92.63 49.79 97.45
  C 53.04 100.29 55.62 96.35 58.04 93.75
  Q 77.13 75.15 95.92 56.24
  C 97.36 54.78 98.51 52.35 96.95 50.80
  Q 76.75 30.75 56.69 10.56
  C 54.86 8.72 53.17 6.16 50.19 8.18
  Q 47.45 10.03 45.15 12.41
  Q 27.10 31.14 8.63 49.48
  C 6.45 51.65 5.50 53.34 7.95 55.80
  Q 24.09 71.99 40.28 88.20
  Z"
/>
<path fill="#f0d043" d="
  M 58.04 93.75
  C 58.62 92.33 59.09 91.03 60.19 89.87
  C 63.25 86.62 65.43 82.69 68.88 79.93
  Q 76.75 73.64 80.59 68.57
  Q 83.69 64.48 87.16 62.52
  C 90.40 60.69 94.15 56.29 95.03 52.61
  Q 95.14 52.16 94.79 51.87
  Q 94.53 51.65 94.19 51.57
  Q 93.71 51.46 93.40 51.08
  C 88.58 45.13 81.93 39.93 77.42 35.20
  Q 68.73 26.07 59.80 17.19
  C 57.44 14.84 55.84 12.02 52.09 10.73
  Q 51.60 10.56 51.13 10.78
  Q 46.03 13.20 43.36 18.13
  Q 43.14 18.52 42.74 18.73
  Q 40.90 19.67 39.68 20.93
  Q 34.25 26.54 27.39 34.42
  C 25.67 36.40 23.33 37.69 21.45 40.10
  C 19.04 43.19 9.77 50.30 10.28 53.85
  C 10.71 56.85 17.94 62.48 20.35 64.56
  Q 20.70 64.86 20.81 65.30
  L 21.07 66.30
  Q 21.20 66.80 21.60 67.12
  Q 32.71 76.10 40.28 88.20
  Q 24.09 71.99 7.95 55.80
  C 5.50 53.34 6.45 51.65 8.63 49.48
  Q 27.10 31.14 45.15 12.41
  Q 47.45 10.03 50.19 8.18
  C 53.17 6.16 54.86 8.72 56.69 10.56
  Q 76.75 30.75 96.95 50.80
  C 98.51 52.35 97.36 54.78 95.92 56.24
  Q 77.13 75.15 58.04 93.75
  Z"
/>
<path fill="#fcda07" d="
  M 58.04 93.75
  C 55.62 96.35 53.04 100.29 49.79 97.45
  Q 44.29 92.63 40.28 88.20
  Q 32.71 76.10 21.60 67.12
  Q 21.20 66.80 21.07 66.30
  L 20.81 65.30
  Q 20.70 64.86 20.35 64.56
  C 17.94 62.48 10.71 56.85 10.28 53.85
  C 9.77 50.30 19.04 43.19 21.45 40.10
  C 23.33 37.69 25.67 36.40 27.39 34.42
  Q 34.25 26.54 39.68 20.93
  Q 40.90 19.67 42.74 18.73
  Q 43.14 18.52 43.36 18.13
  Q 46.03 13.20 51.13 10.78
  Q 51.60 10.56 52.09 10.73
  C 55.84 12.02 57.44 14.84 59.80 17.19
  Q 68.73 26.07 77.42 35.20
  C 81.93 39.93 88.58 45.13 93.40 51.08
  Q 93.71 51.46 94.19 51.57
  Q 94.53 51.65 94.79 51.87
  Q 95.14 52.16 95.03 52.61
  C 94.15 56.29 90.40 60.69 87.16 62.52
  Q 83.69 64.48 80.59 68.57
  Q 76.75 73.64 68.88 79.93
  C 65.43 82.69 63.25 86.62 60.19 89.87
  C 59.09 91.03 58.62 92.33 58.04 93.75
  Z
  M 38.28 33.46
  Q 38.55 37.24 41.93 38.61
  Q 42.50 38.84 42.50 39.46
  L 42.50 46.45
  Q 42.50 46.90 42.05 46.93
  L 38.36 47.17
  Q 37.67 47.21 37.90 47.86
  Q 39.16 51.50 42.11 53.94
  Q 42.50 54.26 42.50 54.76
  L 42.50 62.96
  Q 42.50 63.42 42.04 63.48
  L 37.71 64.00
  Q 37.30 67.23 39.71 69.20
  A 2.49 2.48 20.3 0 1 40.63 71.19
  L 40.45 77.94
  Q 40.44 78.49 40.98 78.49
  L 42.46 78.50
  Q 44.89 79.25 47.66 78.96
  Q 48.25 78.90 48.25 79.49
  L 48.25 86.05
  Q 48.25 86.70 48.90 86.68
  L 54.71 86.50
  Q 54.76 86.97 55.36 87.18
  A 0.85 0.84 -76.3 0 0 56.47 86.50
  L 57.21 81.61
  Q 57.29 81.08 57.81 80.93
  L 60.34 80.23
  Q 60.80 80.10 61.13 79.77
  Q 64.40 76.58 63.38 71.83
  Q 63.26 71.32 63.56 70.88
  C 64.81 69.04 68.77 65.11 67.33 62.98
  Q 67.06 62.59 66.61 62.47
  L 63.38 61.60
  Q 62.58 61.39 62.93 60.63
  Q 64.16 57.94 63.39 55.01
  Q 63.25 54.49 63.62 54.10
  L 65.61 51.95
  Q 65.97 51.56 66.46 51.39
  C 69.37 50.35 67.75 44.82 63.92 44.88
  Q 63.27 44.89 63.27 44.25
  C 63.24 40.99 71.68 33.35 65.36 30.88
  Q 64.95 30.73 64.60 30.98
  Q 63.99 31.41 63.38 30.96
  Q 62.93 30.64 62.98 30.09
  C 63.72 22.62 50.21 24.45 44.82 24.81
  Q 44.32 24.85 43.86 24.64
  C 40.48 23.11 39.79 30.38 39.43 32.61
  Q 39.35 33.09 38.89 33.25
  L 38.28 33.46
  Z"
/>
<path fill="#f0d043" d="
  M 54.71 86.50
  L 54.96 79.53
  Q 54.98 79.00 55.52 79.00
  L 60.37 79.00
  Q 61.00 79.00 61.00 78.38
  L 61.00 70.30
  Q 61.00 69.78 61.33 69.39
  L 65.46 64.37
  A 0.43 0.42 21.7 0 0 65.16 63.68
  L 61.57 63.42
  Q 61.00 63.38 61.00 62.81
  L 61.00 54.76
  Q 61.00 54.23 61.37 53.85
  Q 63.89 51.27 65.54 48.07
  Q 65.89 47.38 65.12 47.33
  L 61.59 47.07
  Q 61.06 47.03 61.04 46.50
  C 60.97 44.72 60.06 38.34 62.70 38.22
  Q 63.27 38.19 63.58 37.71
  L 65.54 34.72
  A 0.79 0.79 0.0 0 0 64.87 33.50
  L 61.64 33.50
  Q 61.03 33.50 61.02 32.89
  L 60.96 28.01
  Q 60.95 27.39 60.33 27.38
  L 43.24 27.27
  Q 42.50 27.26 42.50 28.01
  L 42.50 32.76
  Q 42.50 33.26 42.01 33.39
  Q 40.33 33.84 38.28 33.46
  L 38.89 33.25
  Q 39.35 33.09 39.43 32.61
  C 39.79 30.38 40.48 23.11 43.86 24.64
  Q 44.32 24.85 44.82 24.81
  C 50.21 24.45 63.72 22.62 62.98 30.09
  Q 62.93 30.64 63.38 30.96
  Q 63.99 31.41 64.60 30.98
  Q 64.95 30.73 65.36 30.88
  C 71.68 33.35 63.24 40.99 63.27 44.25
  Q 63.27 44.89 63.92 44.88
  C 67.75 44.82 69.37 50.35 66.46 51.39
  Q 65.97 51.56 65.61 51.95
  L 63.62 54.10
  Q 63.25 54.49 63.39 55.01
  Q 64.16 57.94 62.93 60.63
  Q 62.58 61.39 63.38 61.60
  L 66.61 62.47
  Q 67.06 62.59 67.33 62.98
  C 68.77 65.11 64.81 69.04 63.56 70.88
  Q 63.26 71.32 63.38 71.83
  Q 64.40 76.58 61.13 79.77
  Q 60.80 80.10 60.34 80.23
  L 57.81 80.93
  Q 57.29 81.08 57.21 81.61
  L 56.47 86.50
  A 0.85 0.84 -76.3 0 1 55.36 87.18
  Q 54.76 86.97 54.71 86.50
  Z"
/>
<path fill="#0c0503" d="
  M 54.71 86.50
  L 48.90 86.68
  Q 48.25 86.70 48.25 86.05
  L 48.25 79.49
  Q 48.25 78.90 47.66 78.96
  Q 44.89 79.25 42.46 78.50
  L 42.47 70.09
  Q 42.48 69.58 42.08 69.26
  Q 39.38 67.07 37.71 64.00
  L 42.04 63.48
  Q 42.50 63.42 42.50 62.96
  L 42.50 54.76
  Q 42.50 54.26 42.11 53.94
  Q 39.16 51.50 37.90 47.86
  Q 37.67 47.21 38.36 47.17
  L 42.05 46.93
  Q 42.50 46.90 42.50 46.45
  L 42.50 39.46
  Q 42.50 38.84 41.93 38.61
  Q 38.55 37.24 38.28 33.46
  Q 40.33 33.84 42.01 33.39
  Q 42.50 33.26 42.50 32.76
  L 42.50 28.01
  Q 42.50 27.26 43.24 27.27
  L 60.33 27.38
  Q 60.95 27.39 60.96 28.01
  L 61.02 32.89
  Q 61.03 33.50 61.64 33.50
  L 64.87 33.50
  A 0.79 0.79 0.0 0 1 65.54 34.72
  L 63.58 37.71
  Q 63.27 38.19 62.70 38.22
  C 60.06 38.34 60.97 44.72 61.04 46.50
  Q 61.06 47.03 61.59 47.07
  L 65.12 47.33
  Q 65.89 47.38 65.54 48.07
  Q 63.89 51.27 61.37 53.85
  Q 61.00 54.23 61.00 54.76
  L 61.00 62.81
  Q 61.00 63.38 61.57 63.42
  L 65.16 63.68
  A 0.43 0.42 21.7 0 1 65.46 64.37
  L 61.33 69.39
  Q 61.00 69.78 61.00 70.30
  L 61.00 78.38
  Q 61.00 79.00 60.37 79.00
  L 55.52 79.00
  Q 54.98 79.00 54.96 79.53
  L 54.71 86.50
  Z
  M 57.57 38.24
  A 5.71 5.71 0.0 0 0 51.86 32.53
  A 5.71 5.71 0.0 0 0 46.15 38.24
  A 5.71 5.71 0.0 0 0 51.86 43.95
  A 5.71 5.71 0.0 0 0 57.57 38.24
  Z
  M 57.17 54.52
  A 4.97 4.97 0.0 0 0 52.20 49.55
  A 4.97 4.97 0.0 0 0 47.23 54.52
  A 4.97 4.97 0.0 0 0 52.20 59.49
  A 4.97 4.97 0.0 0 0 57.17 54.52
  Z
  M 56.99 69.56
  A 4.79 4.79 0.0 0 0 52.20 64.77
  A 4.79 4.79 0.0 0 0 47.41 69.56
  A 4.79 4.79 0.0 0 0 52.20 74.35
  A 4.79 4.79 0.0 0 0 56.99 69.56
  Z"
/>
<circle fill="#d5130d" cx="51.86" cy="38.24" r="5.71"/>
<circle fill="#fcda07" cx="52.20" cy="54.52" r="4.97"/>
<path fill="#f0d043" d="
  M 37.71 64.00
  Q 39.38 67.07 42.08 69.26
  Q 42.48 69.58 42.47 70.09
  L 42.46 78.50
  L 40.98 78.49
  Q 40.44 78.49 40.45 77.94
  L 40.63 71.19
  A 2.49 2.48 20.3 0 0 39.71 69.20
  Q 37.30 67.23 37.71 64.00
  Z"
/>
<circle fill="#19ec21" cx="52.20" cy="69.56" r="4.79"/>
</svg>
