<?xml version="1.0" encoding="UTF-8" standalone="no"?>
<!DOCTYPE svg PUBLIC "-//W3C//DTD SVG 1.1//EN" "http://www.w3.org/Graphics/SVG/1.1/DTD/svg11.dtd">
<svg xmlns="http://www.w3.org/2000/svg" version="1.1" viewBox="0 0 104 105">
<g stroke-width="2.00" fill="none" stroke-linecap="butt">
<path stroke="#837021" vector-effect="non-scaling-stroke" d="
  M 99.0780 57.7262
  A 7.45 7.45 0.0 0 0 99.0780 47.1903
  L 57.2597 5.3720
  A 7.45 7.45 0.0 0 0 46.7238 5.3720
  L 4.9620 47.1338
  A 7.45 7.45 0.0 0 0 4.9620 57.6697
  L 46.7803 99.4880
  A 7.45 7.45 0.0 0 0 57.3162 99.4880
  L 99.0780 57.7262"
/>
<path stroke="#837021" vector-effect="non-scaling-stroke" d="
  M 96.2695 55.6618
  A 4.33 4.33 0.0 0 0 96.2695 49.5382
  L 55.1018 8.3705
  A 4.33 4.33 0.0 0 0 48.9782 8.3705
  L 7.8105 49.5382
  A 4.33 4.33 0.0 0 0 7.8105 55.6618
  L 48.9782 96.8295
  A 4.33 4.33 0.0 0 0 55.1018 96.8295
  L 96.2695 55.6618"
/>
<path stroke="#f6d722" vector-effect="non-scaling-stroke" d="
  M 37.07 83.03
  C 42.32 85.93 45.29 87.39 48.27 93.00
  Q 48.84 94.07 51.90 95.49
  Q 52.37 95.71 52.80 95.43
  Q 54.49 94.30 55.52 92.54
  Q 58.30 87.82 62.44 84.24
  C 63.00 83.75 63.04 83.55 63.00 82.81
  Q 62.98 82.34 63.41 82.16
  C 65.50 81.29 63.48 79.06 62.20 78.48
  Q 61.72 78.27 61.66 77.74
  Q 60.52 68.46 61.67 55.25
  Q 62.54 45.24 61.13 29.00
  Q 60.95 26.99 61.80 25.37
  Q 62.01 24.96 62.47 25.00
  L 66.18 25.32
  Q 66.77 25.37 66.94 24.80
  C 67.31 23.64 66.99 23.04 66.07 22.25
  C 61.34 18.13 57.32 13.61 52.44 9.66
  A 1.02 1.01 -47.9 0 0 51.08 9.73
  L 39.07 21.61
  Q 38.65 22.02 38.75 22.59
  C 39.18 25.21 34.75 27.62 32.80 28.03
  Q 32.30 28.14 32.01 28.55
  C 28.26 33.86 24.06 36.09 20.22 40.46
  Q 14.84 46.59 8.76 51.43
  A 1.06 1.06 0.0 0 0 8.77 53.11
  C 12.44 55.92 14.90 58.01 17.77 62.16
  Q 21.00 66.84 25.66 70.60
  Q 27.34 71.96 28.39 74.18
  Q 28.62 74.67 29.11 74.45
  C 32.09 73.13 30.77 66.28 30.67 63.57
  Q 30.64 62.46 29.86 59.42
  C 27.70 50.99 38.39 45.34 43.42 40.61
  Q 43.80 40.27 43.81 39.75
  L 44.20 27.23
  Q 44.22 26.68 44.62 26.30
  C 46.39 24.67 51.69 25.24 54.12 25.26
  Q 54.70 25.27 54.83 25.83
  Q 57.23 36.11 56.03 46.62
  Q 55.97 47.10 55.59 47.38
  Q 47.61 53.16 40.82 60.27
  Q 40.41 60.70 40.41 61.29
  L 40.38 79.46
  A 0.96 0.95 -83.1 0 1 39.20 80.39
  Q 37.77 80.05 36.74 81.31
  Q 35.87 82.37 37.07 83.03"
/>
<path stroke="#a9912b" vector-effect="non-scaling-stroke" d="
  M 32.29 69.00
  C 32.35 71.23 30.71 75.90 32.31 78.15
  Q 32.62 78.58 33.16 78.53
  L 36.75 78.21"
/>
<path stroke="#7c6b21" vector-effect="non-scaling-stroke" d="
  M 36.75 78.21
  Q 37.38 78.35 38.03 78.12
  Q 38.51 77.96 38.51 77.46
  Q 38.47 69.14 38.56 60.81
  Q 38.59 58.23 40.83 56.58
  Q 44.06 54.20 53.00 46.33
  Q 53.39 45.99 53.39 45.47
  L 53.31 27.02
  Q 53.30 26.23 52.52 26.21
  L 47.49 26.10
  Q 47.31 26.10 47.18 25.98
  L 46.96 25.75
  Q 46.50 25.29 46.50 25.95
  L 46.50 41.49
  Q 46.50 41.95 46.15 42.24
  C 44.11 43.91 32.33 52.70 32.34 54.56
  Q 32.38 61.78 32.29 69.00"
/>
<path stroke="#36290c" vector-effect="non-scaling-stroke" d="
  M 36.75 78.21
  C 31.80 78.06 32.55 72.34 32.29 69.00"
/>
<path stroke="#a9912b" vector-effect="non-scaling-stroke" d="
  M 64.50 78.04
  C 66.99 79.58 68.89 78.24 71.27 78.22
  Q 71.76 78.22 71.72 77.73
  L 71.46 74.50"
/>
<path stroke="#7c6b21" vector-effect="non-scaling-stroke" d="
  M 71.46 74.50
  L 71.47 26.79
  Q 71.47 26.09 70.78 26.11
  L 64.43 26.29
  Q 63.84 26.31 63.86 26.90
  C 64.37 43.33 63.14 60.53 64.50 78.04"
/>
<path stroke="#36290c" vector-effect="non-scaling-stroke" d="
  M 71.46 74.50
  Q 71.48 76.10 70.81 77.45
  Q 70.58 77.91 70.07 77.92
  L 64.50 78.04"
/>
<path stroke="#f6d722" vector-effect="non-scaling-stroke" d="
  M 75.03 37.96
  L 74.57 38.31
  Q 74.18 38.60 74.18 39.07
  L 73.93 71.79
  Q 73.93 72.10 74.22 72.21
  Q 76.46 73.03 77.27 70.75
  Q 77.45 70.24 77.98 70.12
  C 80.78 69.46 89.65 59.35 92.23 56.80
  Q 92.57 56.47 92.74 56.02
  Q 93.26 54.65 94.97 54.36
  A 1.02 1.02 0.0 0 0 95.62 52.75
  C 89.99 45.16 82.25 38.89 75.67 32.02
  Q 75.31 31.64 74.81 31.84
  C 72.21 32.88 74.88 35.85 75.26 37.30
  Q 75.37 37.71 75.03 37.96"
/>
</g>
<path fill="#efd340" d="
  M 22.23 77.02
  C 18.52 72.62 13.41 67.76 9.18 63.73
  C 4.68 59.44 -3.65 53.92 3.21 46.86
  Q 23.40 26.10 44.25 6.00
  Q 48.35 2.05 52.39 0.79
  Q 52.95 0.62 53.44 0.95
  Q 59.49 5.15 64.26 10.80
  Q 64.58 11.18 65.06 11.35
  C 66.82 11.95 67.00 13.33 67.93 14.27
  Q 72.82 19.22 77.75 24.12
  Q 78.10 24.47 78.58 24.59
  C 80.89 25.18 80.99 27.18 82.14 28.44
  Q 84.02 30.51 86.09 32.42
  Q 86.48 32.78 86.99 32.93
  Q 88.82 33.44 89.29 35.32
  Q 89.40 35.76 89.72 36.09
  C 91.74 38.18 94.19 39.02 95.61 41.63
  Q 97.45 44.98 101.86 47.02
  Q 102.36 47.26 102.26 47.80
  Q 102.02 49.09 102.87 50.01
  Q 103.25 50.42 103.25 50.98
  L 103.25 55.26
  Q 103.25 55.76 102.87 56.09
  Q 98.69 59.73 94.99 63.82
  C 94.14 64.76 92.05 65.92 91.23 67.34
  Q 90.56 68.51 90.03 69.01
  Q 75.32 82.83 61.63 97.65
  C 53.33 106.63 48.63 105.10 41.06 96.68
  C 35.96 91.00 28.46 84.42 22.23 77.02
  Z
  M 99.0780 57.7262
  A 7.45 7.45 0.0 0 0 99.0780 47.1903
  L 57.2597 5.3720
  A 7.45 7.45 0.0 0 0 46.7238 5.3720
  L 4.9620 47.1338
  A 7.45 7.45 0.0 0 0 4.9620 57.6697
  L 46.7803 99.4880
  A 7.45 7.45 0.0 0 0 57.3162 99.4880
  L 99.0780 57.7262
  Z"
/>
<path fill="#160c01" d="
  M 57.3162 99.4880
  A 7.45 7.45 0.0 0 1 46.7803 99.4880
  L 4.9620 57.6697
  A 7.45 7.45 0.0 0 1 4.9620 47.1338
  L 46.7238 5.3720
  A 7.45 7.45 0.0 0 1 57.2597 5.3720
  L 99.0780 47.1903
  A 7.45 7.45 0.0 0 1 99.0780 57.7262
  L 57.3162 99.4880
  Z
  M 96.2695 55.6618
  A 4.33 4.33 0.0 0 0 96.2695 49.5382
  L 55.1018 8.3705
  A 4.33 4.33 0.0 0 0 48.9782 8.3705
  L 7.8105 49.5382
  A 4.33 4.33 0.0 0 0 7.8105 55.6618
  L 48.9782 96.8295
  A 4.33 4.33 0.0 0 0 55.1018 96.8295
  L 96.2695 55.6618
  Z"
/>
<path fill="#efd340" d="
  M 55.1018 96.8295
  A 4.33 4.33 0.0 0 1 48.9782 96.8295
  L 7.8105 55.6618
  A 4.33 4.33 0.0 0 1 7.8105 49.5382
  L 48.9782 8.3705
  A 4.33 4.33 0.0 0 1 55.1018 8.3705
  L 96.2695 49.5382
  A 4.33 4.33 0.0 0 1 96.2695 55.6618
  L 55.1018 96.8295
  Z
  M 37.07 83.03
  C 42.32 85.93 45.29 87.39 48.27 93.00
  Q 48.84 94.07 51.90 95.49
  Q 52.37 95.71 52.80 95.43
  Q 54.49 94.30 55.52 92.54
  Q 58.30 87.82 62.44 84.24
  C 63.00 83.75 63.04 83.55 63.00 82.81
  Q 62.98 82.34 63.41 82.16
  C 65.50 81.29 63.48 79.06 62.20 78.48
  Q 61.72 78.27 61.66 77.74
  Q 60.52 68.46 61.67 55.25
  Q 62.54 45.24 61.13 29.00
  Q 60.95 26.99 61.80 25.37
  Q 62.01 24.96 62.47 25.00
  L 66.18 25.32
  Q 66.77 25.37 66.94 24.80
  C 67.31 23.64 66.99 23.04 66.07 22.25
  C 61.34 18.13 57.32 13.61 52.44 9.66
  A 1.02 1.01 -47.9 0 0 51.08 9.73
  L 39.07 21.61
  Q 38.65 22.02 38.75 22.59
  C 39.18 25.21 34.75 27.62 32.80 28.03
  Q 32.30 28.14 32.01 28.55
  C 28.26 33.86 24.06 36.09 20.22 40.46
  Q 14.84 46.59 8.76 51.43
  A 1.06 1.06 0.0 0 0 8.77 53.11
  C 12.44 55.92 14.90 58.01 17.77 62.16
  Q 21.00 66.84 25.66 70.60
  Q 27.34 71.96 28.39 74.18
  Q 28.62 74.67 29.11 74.45
  C 32.09 73.13 30.77 66.28 30.67 63.57
  Q 30.64 62.46 29.86 59.42
  C 27.70 50.99 38.39 45.34 43.42 40.61
  Q 43.80 40.27 43.81 39.75
  L 44.20 27.23
  Q 44.22 26.68 44.62 26.30
  C 46.39 24.67 51.69 25.24 54.12 25.26
  Q 54.70 25.27 54.83 25.83
  Q 57.23 36.11 56.03 46.62
  Q 55.97 47.10 55.59 47.38
  Q 47.61 53.16 40.82 60.27
  Q 40.41 60.70 40.41 61.29
  L 40.38 79.46
  A 0.96 0.95 -83.1 0 1 39.20 80.39
  Q 37.77 80.05 36.74 81.31
  Q 35.87 82.37 37.07 83.03
  Z
  M 32.29 69.00
  C 32.35 71.23 30.71 75.90 32.31 78.15
  Q 32.62 78.58 33.16 78.53
  L 36.75 78.21
  Q 37.38 78.35 38.03 78.12
  Q 38.51 77.96 38.51 77.46
  Q 38.47 69.14 38.56 60.81
  Q 38.59 58.23 40.83 56.58
  Q 44.06 54.20 53.00 46.33
  Q 53.39 45.99 53.39 45.47
  L 53.31 27.02
  Q 53.30 26.23 52.52 26.21
  L 47.49 26.10
  Q 47.31 26.10 47.18 25.98
  L 46.96 25.75
  Q 46.50 25.29 46.50 25.95
  L 46.50 41.49
  Q 46.50 41.95 46.15 42.24
  C 44.11 43.91 32.33 52.70 32.34 54.56
  Q 32.38 61.78 32.29 69.00
  Z
  M 64.50 78.04
  C 66.99 79.58 68.89 78.24 71.27 78.22
  Q 71.76 78.22 71.72 77.73
  L 71.46 74.50
  L 71.47 26.79
  Q 71.47 26.09 70.78 26.11
  L 64.43 26.29
  Q 63.84 26.31 63.86 26.90
  C 64.37 43.33 63.14 60.53 64.50 78.04
  Z
  M 75.03 37.96
  L 74.57 38.31
  Q 74.18 38.60 74.18 39.07
  L 73.93 71.79
  Q 73.93 72.10 74.22 72.21
  Q 76.46 73.03 77.27 70.75
  Q 77.45 70.24 77.98 70.12
  C 80.78 69.46 89.65 59.35 92.23 56.80
  Q 92.57 56.47 92.74 56.02
  Q 93.26 54.65 94.97 54.36
  A 1.02 1.02 0.0 0 0 95.62 52.75
  C 89.99 45.16 82.25 38.89 75.67 32.02
  Q 75.31 31.64 74.81 31.84
  C 72.21 32.88 74.88 35.85 75.26 37.30
  Q 75.37 37.71 75.03 37.96
  Z"
/>
<path fill="#fdda04" d="
  M 48.27 93.00
  C 45.29 87.39 42.32 85.93 37.07 83.03
  Q 35.87 82.37 36.74 81.31
  Q 37.77 80.05 39.20 80.39
  A 0.96 0.95 -83.1 0 0 40.38 79.46
  L 40.41 61.29
  Q 40.41 60.70 40.82 60.27
  Q 47.61 53.16 55.59 47.38
  Q 55.97 47.10 56.03 46.62
  Q 57.23 36.11 54.83 25.83
  Q 54.70 25.27 54.12 25.26
  C 51.69 25.24 46.39 24.67 44.62 26.30
  Q 44.22 26.68 44.20 27.23
  L 43.81 39.75
  Q 43.80 40.27 43.42 40.61
  C 38.39 45.34 27.70 50.99 29.86 59.42
  Q 30.64 62.46 30.67 63.57
  C 30.77 66.28 32.09 73.13 29.11 74.45
  Q 28.62 74.67 28.39 74.18
  Q 27.34 71.96 25.66 70.60
  Q 21.00 66.84 17.77 62.16
  C 14.90 58.01 12.44 55.92 8.77 53.11
  A 1.06 1.06 0.0 0 1 8.76 51.43
  Q 14.84 46.59 20.22 40.46
  C 24.06 36.09 28.26 33.86 32.01 28.55
  Q 32.30 28.14 32.80 28.03
  C 34.75 27.62 39.18 25.21 38.75 22.59
  Q 38.65 22.02 39.07 21.61
  L 51.08 9.73
  A 1.02 1.01 -47.9 0 1 52.44 9.66
  C 57.32 13.61 61.34 18.13 66.07 22.25
  C 66.99 23.04 67.31 23.64 66.94 24.80
  Q 66.77 25.37 66.18 25.32
  L 62.47 25.00
  Q 62.01 24.96 61.80 25.37
  Q 60.95 26.99 61.13 29.00
  Q 62.54 45.24 61.67 55.25
  Q 60.52 68.46 61.66 77.74
  Q 61.72 78.27 62.20 78.48
  C 63.48 79.06 65.50 81.29 63.41 82.16
  Q 62.98 82.34 63.00 82.81
  C 63.04 83.55 63.00 83.75 62.44 84.24
  Q 58.30 87.82 55.52 92.54
  Q 54.49 94.30 52.80 95.43
  Q 52.37 95.71 51.90 95.49
  Q 48.84 94.07 48.27 93.00
  Z"
/>
<path fill="#090302" d="
  M 36.75 78.21
  C 31.80 78.06 32.55 72.34 32.29 69.00
  Q 32.38 61.78 32.34 54.56
  C 32.33 52.70 44.11 43.91 46.15 42.24
  Q 46.50 41.95 46.50 41.49
  L 46.50 25.95
  Q 46.50 25.29 46.96 25.75
  L 47.18 25.98
  Q 47.31 26.10 47.49 26.10
  L 52.52 26.21
  Q 53.30 26.23 53.31 27.02
  L 53.39 45.47
  Q 53.39 45.99 53.00 46.33
  Q 44.06 54.20 40.83 56.58
  Q 38.59 58.23 38.56 60.81
  Q 38.47 69.14 38.51 77.46
  Q 38.51 77.96 38.03 78.12
  Q 37.38 78.35 36.75 78.21
  Z"
/>
<path fill="#090302" d="
  M 71.46 74.50
  Q 71.48 76.10 70.81 77.45
  Q 70.58 77.91 70.07 77.92
  L 64.50 78.04
  C 63.14 60.53 64.37 43.33 63.86 26.90
  Q 63.84 26.31 64.43 26.29
  L 70.78 26.11
  Q 71.47 26.09 71.47 26.79
  L 71.46 74.50
  Z"
/>
<path fill="#fdda04" d="
  M 75.26 37.30
  C 74.88 35.85 72.21 32.88 74.81 31.84
  Q 75.31 31.64 75.67 32.02
  C 82.25 38.89 89.99 45.16 95.62 52.75
  A 1.02 1.02 0.0 0 1 94.97 54.36
  Q 93.26 54.65 92.74 56.02
  Q 92.57 56.47 92.23 56.80
  C 89.65 59.35 80.78 69.46 77.98 70.12
  Q 77.45 70.24 77.27 70.75
  Q 76.46 73.03 74.22 72.21
  Q 73.93 72.10 73.93 71.79
  L 74.18 39.07
  Q 74.18 38.60 74.57 38.31
  L 75.03 37.96
  Q 75.37 37.71 75.26 37.30
  Z"
/>
<path fill="#634e16" d="
  M 32.29 69.00
  C 32.55 72.34 31.80 78.06 36.75 78.21
  L 33.16 78.53
  Q 32.62 78.58 32.31 78.15
  C 30.71 75.90 32.35 71.23 32.29 69.00
  Z"
/>
<path fill="#634e16" d="
  M 71.46 74.50
  L 71.72 77.73
  Q 71.76 78.22 71.27 78.22
  C 68.89 78.24 66.99 79.58 64.50 78.04
  L 70.07 77.92
  Q 70.58 77.91 70.81 77.45
  Q 71.48 76.10 71.46 74.50
  Z"
/>
</svg>
