<?xml version="1.0" encoding="UTF-8" standalone="no"?>
<!DOCTYPE svg PUBLIC "-//W3C//DTD SVG 1.1//EN" "http://www.w3.org/Graphics/SVG/1.1/DTD/svg11.dtd">
<svg xmlns="http://www.w3.org/2000/svg" version="1.1" viewBox="0 0 106 105">
<g stroke-width="2.00" fill="none" stroke-linecap="butt">
<path stroke="#867733" vector-effect="non-scaling-stroke" d="
  M 58.6634 5.2072
  A 7.84 7.84 0.0 0 0 47.5759 5.1878
  L 5.0472 47.5684
  A 7.84 7.84 0.0 0 0 5.0279 58.6558
  L 47.4366 101.2128
  A 7.84 7.84 0.0 0 0 58.5241 101.2322
  L 101.0528 58.8516
  A 7.84 7.84 0.0 0 0 101.0721 47.7642
  L 58.6634 5.2072"
/>
<path stroke="#867733" vector-effect="non-scaling-stroke" d="
  M 13.46 44.75
  Q 11.81 46.23 7.68 50.67
  C 5.90 52.58 6.05 54.01 7.86 55.88
  Q 16.67 64.95 25.71 73.75"
/>
<path stroke="#876f0d" vector-effect="non-scaling-stroke" d="
  M 25.71 73.75
  Q 41.96 90.79 50.02 98.47
  C 52.69 101.01 55.15 99.69 57.44 97.35
  Q 88.24 66.01 97.53 56.78
  Q 99.15 55.17 99.81 53.49
  Q 100.02 52.98 99.73 52.51
  Q 98.22 50.06 97.07 48.93
  Q 77.65 29.66 58.50 10.09
  C 54.93 6.43 52.45 5.29 48.49 9.26
  Q 30.90 26.91 13.46 44.75"
/>
<path stroke="#fddd3d" vector-effect="non-scaling-stroke" d="
  M 25.71 73.75
  L 26.15 72.89
  Q 26.41 72.41 26.02 72.01
  Q 15.72 61.55 10.19 55.56
  Q 8.99 54.26 9.17 52.47
  Q 9.21 52.01 9.53 51.66
  L 14.04 46.87
  Q 14.46 46.42 14.24 45.84
  Q 14.00 45.23 13.46 44.75"
/>
<path stroke="#806b0c" vector-effect="non-scaling-stroke" d="
  M 58.95 24.27
  L 65.62 25.40
  A 0.96 0.96 0.0 0 0 66.68 24.11
  Q 66.47 23.58 65.94 23.06
  Q 59.51 16.63 52.88 10.30
  A 0.59 0.59 0.0 0 0 52.05 10.31
  C 49.83 12.53 38.95 22.35 38.49 24.53
  A 0.91 0.91 0.0 0 0 39.51 25.61
  L 47.26 24.53
  Q 47.88 24.44 47.92 25.07
  L 48.23 30.36
  Q 48.28 31.18 49.11 31.17
  L 57.57 31.06
  Q 58.20 31.06 58.22 30.43
  L 58.32 24.79
  Q 58.33 24.17 58.95 24.27"
/>
<path stroke="#ef740f" vector-effect="non-scaling-stroke" d="
  M 44.83 89.62
  C 47.74 94.87 54.75 97.47 58.34 91.56
  Q 70.56 71.43 84.39 46.59
  C 88.23 39.69 83.19 36.52 76.74 36.51
  Q 51.82 36.47 26.92 36.66
  Q 23.39 36.68 21.72 37.76
  C 18.92 39.59 18.35 42.56 20.03 45.51
  Q 20.70 46.70 20.94 48.08
  Q 20.96 48.19 21.07 48.20
  L 21.31 48.24
  Q 21.59 48.27 21.73 48.52
  Q 33.41 69.00 44.83 89.62"
/>
<path stroke="#f08983" vector-effect="non-scaling-stroke" d="
  M 30.46 50.25
  Q 39.37 65.94 48.84 81.31
  C 49.73 82.75 50.85 85.06 52.35 86.14
  Q 53.59 87.04 54.36 85.71
  Q 65.75 65.97 76.74 46.74
  Q 77.46 45.49 77.41 45.01
  Q 77.26 43.66 76.09 43.64
  L 50.52 43.31"
/>
<path stroke="#e76359" vector-effect="non-scaling-stroke" d="
  M 50.52 43.31
  Q 40.00 42.56 29.20 43.15
  A 1.69 1.69 0.0 0 0 27.83 45.68
  L 30.46 50.25"
/>
<path stroke="#f7d9d5" vector-effect="non-scaling-stroke" d="
  M 50.52 43.31
  Q 42.78 44.97 34.91 44.31
  C 33.42 44.18 29.10 43.48 29.34 46.04
  C 29.49 47.63 30.75 48.18 30.46 50.25"
/>
</g>
<path fill="#fce563" d="
  M 54.94 105.00
  L 49.69 105.00
  Q 43.95 101.11 39.57 95.84
  Q 38.37 94.40 35.87 92.26
  C 33.99 90.65 32.72 88.55 31.23 87.06
  C 21.58 77.36 11.62 68.05 2.42 57.94
  C -1.79 53.31 2.89 47.66 6.37 44.12
  C 8.98 41.47 12.03 37.06 15.41 35.62
  Q 15.88 35.42 16.14 34.99
  Q 18.70 30.70 22.99 28.11
  Q 23.44 27.84 23.67 27.37
  C 25.12 24.34 28.67 22.46 31.02 20.33
  Q 31.80 19.63 34.39 16.16
  C 36.08 13.89 38.43 12.66 40.04 10.49
  C 42.60 7.06 46.30 5.48 47.94 2.76
  Q 48.20 2.34 48.62 2.07
  C 56.64 -2.91 63.40 7.95 68.39 12.79
  Q 73.98 18.23 79.39 23.84
  C 86.86 31.59 95.24 39.14 102.83 47.17
  Q 103.15 47.51 103.22 47.99
  Q 103.34 48.98 104.16 49.57
  Q 104.59 49.88 104.75 50.39
  C 106.74 56.68 103.21 58.02 100.19 62.15
  C 98.14 64.96 95.18 66.70 93.12 69.10
  C 87.69 75.44 81.37 80.68 75.78 86.89
  Q 71.56 91.59 66.84 95.79
  C 63.10 99.13 60.67 103.13 54.94 105.00
  Z
  M 58.6634 5.2072
  A 7.84 7.84 0.0 0 0 47.5759 5.1878
  L 5.0472 47.5684
  A 7.84 7.84 0.0 0 0 5.0279 58.6558
  L 47.4366 101.2128
  A 7.84 7.84 0.0 0 0 58.5241 101.2322
  L 101.0528 58.8516
  A 7.84 7.84 0.0 0 0 101.0721 47.7642
  L 58.6634 5.2072
  Z"
/>
<path fill="#100802" d="
  M 101.0721 47.7642
  A 7.84 7.84 0.0 0 1 101.0528 58.8516
  L 58.5241 101.2322
  A 7.84 7.84 0.0 0 1 47.4366 101.2128
  L 5.0279 58.6558
  A 7.84 7.84 0.0 0 1 5.0472 47.5684
  L 47.5759 5.1878
  A 7.84 7.84 0.0 0 1 58.6634 5.2072
  L 101.0721 47.7642
  Z
  M 13.46 44.75
  Q 11.81 46.23 7.68 50.67
  C 5.90 52.58 6.05 54.01 7.86 55.88
  Q 16.67 64.95 25.71 73.75
  Q 41.96 90.79 50.02 98.47
  C 52.69 101.01 55.15 99.69 57.44 97.35
  Q 88.24 66.01 97.53 56.78
  Q 99.15 55.17 99.81 53.49
  Q 100.02 52.98 99.73 52.51
  Q 98.22 50.06 97.07 48.93
  Q 77.65 29.66 58.50 10.09
  C 54.93 6.43 52.45 5.29 48.49 9.26
  Q 30.90 26.91 13.46 44.75
  Z"
/>
<path fill="#fed517" d="
  M 25.71 73.75
  L 26.15 72.89
  Q 26.41 72.41 26.02 72.01
  Q 15.72 61.55 10.19 55.56
  Q 8.99 54.26 9.17 52.47
  Q 9.21 52.01 9.53 51.66
  L 14.04 46.87
  Q 14.46 46.42 14.24 45.84
  Q 14.00 45.23 13.46 44.75
  Q 30.90 26.91 48.49 9.26
  C 52.45 5.29 54.93 6.43 58.50 10.09
  Q 77.65 29.66 97.07 48.93
  Q 98.22 50.06 99.73 52.51
  Q 100.02 52.98 99.81 53.49
  Q 99.15 55.17 97.53 56.78
  Q 88.24 66.01 57.44 97.35
  C 55.15 99.69 52.69 101.01 50.02 98.47
  Q 41.96 90.79 25.71 73.75
  Z
  M 58.95 24.27
  L 65.62 25.40
  A 0.96 0.96 0.0 0 0 66.68 24.11
  Q 66.47 23.58 65.94 23.06
  Q 59.51 16.63 52.88 10.30
  A 0.59 0.59 0.0 0 0 52.05 10.31
  C 49.83 12.53 38.95 22.35 38.49 24.53
  A 0.91 0.91 0.0 0 0 39.51 25.61
  L 47.26 24.53
  Q 47.88 24.44 47.92 25.07
  L 48.23 30.36
  Q 48.28 31.18 49.11 31.17
  L 57.57 31.06
  Q 58.20 31.06 58.22 30.43
  L 58.32 24.79
  Q 58.33 24.17 58.95 24.27
  Z
  M 44.83 89.62
  C 47.74 94.87 54.75 97.47 58.34 91.56
  Q 70.56 71.43 84.39 46.59
  C 88.23 39.69 83.19 36.52 76.74 36.51
  Q 51.82 36.47 26.92 36.66
  Q 23.39 36.68 21.72 37.76
  C 18.92 39.59 18.35 42.56 20.03 45.51
  Q 20.70 46.70 20.94 48.08
  Q 20.96 48.19 21.07 48.20
  L 21.31 48.24
  Q 21.59 48.27 21.73 48.52
  Q 33.41 69.00 44.83 89.62
  Z"
/>
<path fill="#010101" d="
  M 58.32 24.79
  L 58.22 30.43
  Q 58.20 31.06 57.57 31.06
  L 49.11 31.17
  Q 48.28 31.18 48.23 30.36
  L 47.92 25.07
  Q 47.88 24.44 47.26 24.53
  L 39.51 25.61
  A 0.91 0.91 0.0 0 1 38.49 24.53
  C 38.95 22.35 49.83 12.53 52.05 10.31
  A 0.59 0.59 0.0 0 1 52.88 10.30
  Q 59.51 16.63 65.94 23.06
  Q 66.47 23.58 66.68 24.11
  A 0.96 0.96 0.0 0 1 65.62 25.40
  L 58.95 24.27
  Q 58.33 24.17 58.32 24.79
  Z"
/>
<path fill="#e01207" d="
  M 58.34 91.56
  C 54.75 97.47 47.74 94.87 44.83 89.62
  Q 33.41 69.00 21.73 48.52
  Q 21.59 48.27 21.31 48.24
  L 21.07 48.20
  Q 20.96 48.19 20.94 48.08
  Q 20.70 46.70 20.03 45.51
  C 18.35 42.56 18.92 39.59 21.72 37.76
  Q 23.39 36.68 26.92 36.66
  Q 51.82 36.47 76.74 36.51
  C 83.19 36.52 88.23 39.69 84.39 46.59
  Q 70.56 71.43 58.34 91.56
  Z
  M 30.46 50.25
  Q 39.37 65.94 48.84 81.31
  C 49.73 82.75 50.85 85.06 52.35 86.14
  Q 53.59 87.04 54.36 85.71
  Q 65.75 65.97 76.74 46.74
  Q 77.46 45.49 77.41 45.01
  Q 77.26 43.66 76.09 43.64
  L 50.52 43.31
  Q 40.00 42.56 29.20 43.15
  A 1.69 1.69 0.0 0 0 27.83 45.68
  L 30.46 50.25
  Z"
/>
<path fill="#eeb3aa" d="
  M 50.52 43.31
  Q 42.78 44.97 34.91 44.31
  C 33.42 44.18 29.10 43.48 29.34 46.04
  C 29.49 47.63 30.75 48.18 30.46 50.25
  L 27.83 45.68
  A 1.69 1.69 0.0 0 1 29.20 43.15
  Q 40.00 42.56 50.52 43.31
  Z"
/>
<path fill="#ffffff" d="
  M 50.52 43.31
  L 76.09 43.64
  Q 77.26 43.66 77.41 45.01
  Q 77.46 45.49 76.74 46.74
  Q 65.75 65.97 54.36 85.71
  Q 53.59 87.04 52.35 86.14
  C 50.85 85.06 49.73 82.75 48.84 81.31
  Q 39.37 65.94 30.46 50.25
  C 30.75 48.18 29.49 47.63 29.34 46.04
  C 29.10 43.48 33.42 44.18 34.91 44.31
  Q 42.78 44.97 50.52 43.31
  Z"
/>
<path fill="#fce563" d="
  M 13.46 44.75
  Q 14.00 45.23 14.24 45.84
  Q 14.46 46.42 14.04 46.87
  L 9.53 51.66
  Q 9.21 52.01 9.17 52.47
  Q 8.99 54.26 10.19 55.56
  Q 15.72 61.55 26.02 72.01
  Q 26.41 72.41 26.15 72.89
  L 25.71 73.75
  Q 16.67 64.95 7.86 55.88
  C 6.05 54.01 5.90 52.58 7.68 50.67
  Q 11.81 46.23 13.46 44.75
  Z"
/>
</svg>
