<?xml version="1.0" encoding="UTF-8" standalone="no"?>
<!DOCTYPE svg PUBLIC "-//W3C//DTD SVG 1.1//EN" "http://www.w3.org/Graphics/SVG/1.1/DTD/svg11.dtd">
<svg xmlns="http://www.w3.org/2000/svg" version="1.1" viewBox="0 0 105 110">
<g stroke-width="2.00" fill="none" stroke-linecap="butt">
<path stroke="#867638" vector-effect="non-scaling-stroke" d="
  M 58.2960 5.8534
  A 7.57 7.57 0.0 0 0 47.5904 5.8347
  L 5.8833 47.3965
  A 7.57 7.57 0.0 0 0 5.8647 58.1020
  L 47.3840 99.7666
  A 7.57 7.57 0.0 0 0 58.0896 99.7853
  L 99.7967 58.2235
  A 7.57 7.57 0.0 0 0 99.8153 47.5180
  L 58.2960 5.8534"
/>
<path stroke="#8a7305" vector-effect="non-scaling-stroke" d="
  M 24.71 71.75
  L 31.00 78.29"
/>
<path stroke="#847024" vector-effect="non-scaling-stroke" d="
  M 31.00 78.29
  Q 40.38 87.42 49.73 96.59
  C 51.56 98.38 53.33 99.48 55.44 97.43
  Q 70.53 82.79 96.94 56.43
  C 99.80 53.59 98.13 50.45 95.58 47.94
  Q 77.63 30.25 59.81 12.43
  Q 56.97 9.59 53.62 7.30
  Q 53.16 6.99 52.63 7.17
  Q 50.97 7.72 49.46 9.22
  Q 29.87 28.71 10.21 48.16
  C 7.63 50.71 5.91 53.13 8.83 56.16
  Q 16.56 64.18 24.71 71.75"
/>
<path stroke="#f5d727" vector-effect="non-scaling-stroke" d="
  M 31.00 78.29
  Q 33.08 78.53 34.11 80.53
  Q 34.39 81.07 34.99 81.00
  Q 36.15 80.87 36.73 81.76
  Q 37.00 82.19 37.44 82.45
  C 42.43 85.55 45.75 89.31 50.19 94.31
  C 51.84 96.17 53.97 96.14 55.81 94.38
  Q 61.11 89.26 65.65 83.85
  A 1.65 1.65 0.0 0 0 64.89 81.21
  Q 62.50 80.44 60.08 80.94
  A 1.91 1.91 0.0 0 1 57.79 79.16
  C 57.54 73.55 58.67 67.97 58.37 62.43
  C 58.13 57.86 58.82 54.06 57.74 50.30
  Q 57.58 49.76 57.02 49.68
  C 54.93 49.39 51.66 50.97 51.28 47.66
  Q 50.75 43.12 53.60 40.17
  C 55.89 37.79 56.68 36.20 58.07 33.64
  C 59.36 31.25 61.58 29.61 62.82 26.88
  Q 63.00 26.47 63.40 26.25
  L 66.35 24.60
  A 1.28 1.27 53.0 0 0 66.63 22.59
  L 55.21 11.09
  A 2.36 2.36 0.0 0 0 52.20 10.80
  Q 44.94 15.72 39.54 22.76
  Q 39.18 23.22 39.68 23.52
  Q 40.89 24.26 42.28 23.53
  Q 42.68 23.31 43.13 23.31
  C 49.77 23.25 47.89 34.81 47.55 40.57
  Q 46.96 50.32 47.12 54.86
  Q 47.14 55.41 47.64 55.64
  Q 49.42 56.43 51.32 55.94
  Q 51.88 55.79 52.34 56.15
  L 54.88 58.13
  Q 55.17 58.35 55.28 58.70
  Q 55.91 60.82 54.08 61.38
  Q 53.58 61.53 53.38 62.01
  C 52.42 64.34 50.45 66.05 49.36 67.74
  C 47.63 70.41 43.79 78.65 40.25 77.96"
/>
<path stroke="#796b25" vector-effect="non-scaling-stroke" d="
  M 40.25 77.96
  Q 45.93 68.54 52.60 59.64
  A 0.98 0.98 0.0 0 0 51.74 58.08
  L 45.90 58.54
  A 0.37 0.37 0.0 0 1 45.50 58.17
  L 45.50 27.00
  Q 45.50 26.25 44.75 26.25
  L 35.00 26.25
  Q 34.50 26.25 34.50 26.75
  L 34.50 58.00
  Q 34.50 58.56 33.95 58.51
  L 27.75 57.96"
/>
<path stroke="#f5d727" vector-effect="non-scaling-stroke" d="
  M 27.75 57.96
  Q 28.34 57.26 28.26 56.30
  Q 28.21 55.73 28.78 55.74
  L 30.82 55.77
  A 1.17 1.17 0.0 0 0 32.01 54.61
  L 32.19 30.45
  A 0.63 0.63 0.0 0 0 31.06 30.07
  Q 29.56 32.03 28.06 33.87
  C 22.56 40.61 14.90 45.95 10.02 53.21
  A 0.49 0.48 -47.5 0 0 10.04 53.77
  Q 14.53 59.52 20.79 63.25
  Q 21.26 63.53 21.44 64.05
  Q 22.34 66.71 24.66 68.24
  Q 25.14 68.56 25.21 69.14
  Q 25.38 70.56 24.71 71.75"
/>
<path stroke="#806e06" vector-effect="non-scaling-stroke" d="
  M 27.75 57.96
  Q 27.34 57.96 27.19 58.19
  A 1.31 1.18 -47.2 0 0 27.17 59.55
  L 39.66 78.17
  Q 39.82 78.41 40.01 78.20
  L 40.25 77.96"
/>
<path stroke="#bba734" vector-effect="non-scaling-stroke" d="
  M 53.52 47.42
  Q 56.95 47.82 60.05 47.06"
/>
<path stroke="#796b25" vector-effect="non-scaling-stroke" d="
  M 60.05 47.06
  Q 59.96 62.52 60.23 77.50
  Q 60.25 78.46 60.51 79.17"
/>
<path stroke="#bba734" vector-effect="non-scaling-stroke" d="
  M 60.51 79.17
  Q 65.84 79.87 70.96 78.75"
/>
<path stroke="#796b25" vector-effect="non-scaling-stroke" d="
  M 70.96 78.75
  Q 71.45 77.68 71.46 76.43
  Q 71.52 61.73 71.50 47.02
  Q 71.49 46.48 72.04 46.50
  L 72.75 46.54"
/>
<path stroke="#bba734" vector-effect="non-scaling-stroke" d="
  M 72.75 46.54
  L 72.89 46.80
  Q 73.14 47.25 73.65 47.25
  L 77.97 47.25
  Q 78.43 47.25 78.49 46.80
  Q 78.56 46.31 78.36 46.11"
/>
<path stroke="#796b25" vector-effect="non-scaling-stroke" d="
  M 78.36 46.11
  Q 72.62 36.30 66.04 27.42
  Q 65.76 27.03 65.47 27.42
  C 61.71 32.69 58.12 38.69 53.99 43.61
  Q 52.57 45.30 53.52 47.42"
/>
<path stroke="#463f13" vector-effect="non-scaling-stroke" d="
  M 78.36 46.11
  Q 75.74 47.54 72.75 46.54"
/>
<path stroke="#463f13" vector-effect="non-scaling-stroke" d="
  M 70.96 78.75
  Q 65.71 77.95 60.51 79.17"
/>
<path stroke="#463f13" vector-effect="non-scaling-stroke" d="
  M 60.05 47.06
  Q 56.82 45.66 53.52 47.42"
/>
<path stroke="#f5d727" vector-effect="non-scaling-stroke" d="
  M 75.45 74.46
  C 79.09 71.01 82.42 66.26 86.26 63.63
  C 89.86 61.18 92.76 57.31 95.72 54.15
  A 1.66 1.65 41.5 0 0 95.57 51.74
  Q 93.11 49.71 91.14 47.31
  C 88.14 43.65 85.34 41.55 82.03 38.75
  Q 81.73 38.50 81.63 38.11
  Q 81.60 37.97 81.57 37.83
  Q 81.49 37.36 81.16 37.02
  L 73.91 29.52
  Q 73.46 29.05 72.83 29.26
  L 71.69 29.64
  Q 70.95 29.88 71.37 30.55
  Q 72.08 31.66 72.27 32.94
  Q 72.35 33.42 72.65 33.81
  Q 76.58 38.82 80.37 43.92
  C 83.92 48.69 77.29 49.55 74.62 50.32
  A 0.90 0.90 0.0 0 0 73.97 51.20
  Q 74.25 61.66 73.35 71.99
  Q 73.22 73.48 73.66 74.21
  A 1.16 1.15 52.9 0 0 75.45 74.46"
/>
</g>
<path fill="#f3e06e" d="
  M 45.08 6.63
  C 47.94 4.11 48.72 1.39 53.61 1.72
  C 55.72 1.86 58.95 4.12 60.48 5.65
  Q 70.15 15.39 79.75 25.19
  Q 80.13 25.58 80.25 26.11
  Q 80.60 27.57 82.00 27.85
  Q 82.49 27.94 82.83 28.30
  L 99.23 45.86
  Q 99.63 46.29 100.21 46.44
  C 103.09 47.16 105.47 51.59 103.56 54.27
  Q 103.25 54.70 103.25 55.23
  L 103.25 55.80
  Q 103.25 56.33 102.88 56.72
  Q 81.69 78.36 60.75 100.25
  Q 57.45 103.71 52.72 104.32
  Q 52.22 104.38 51.77 104.15
  C 49.96 103.19 48.01 102.45 46.53 101.03
  Q 37.38 92.27 28.49 83.26
  Q 18.12 72.76 7.64 62.36
  Q 3.63 58.38 1.25 54.62
  Q 0.97 54.18 1.00 53.66
  Q 1.30 48.76 5.14 46.29
  C 7.26 44.93 7.13 43.45 8.77 42.14
  C 13.07 38.70 15.61 35.13 19.28 31.91
  Q 22.30 29.25 23.29 28.15
  Q 33.57 16.76 45.08 6.63
  Z
  M 58.2960 5.8534
  A 7.57 7.57 0.0 0 0 47.5904 5.8347
  L 5.8833 47.3965
  A 7.57 7.57 0.0 0 0 5.8647 58.1020
  L 47.3840 99.7666
  A 7.57 7.57 0.0 0 0 58.0896 99.7853
  L 99.7967 58.2235
  A 7.57 7.57 0.0 0 0 99.8153 47.5180
  L 58.2960 5.8534
  Z"
/>
<path fill="#190c02" d="
  M 99.8153 47.5180
  A 7.57 7.57 0.0 0 1 99.7967 58.2235
  L 58.0896 99.7853
  A 7.57 7.57 0.0 0 1 47.3840 99.7666
  L 5.8647 58.1020
  A 7.57 7.57 0.0 0 1 5.8833 47.3965
  L 47.5904 5.8347
  A 7.57 7.57 0.0 0 1 58.2960 5.8534
  L 99.8153 47.5180
  Z
  M 24.71 71.75
  L 31.00 78.29
  Q 40.38 87.42 49.73 96.59
  C 51.56 98.38 53.33 99.48 55.44 97.43
  Q 70.53 82.79 96.94 56.43
  C 99.80 53.59 98.13 50.45 95.58 47.94
  Q 77.63 30.25 59.81 12.43
  Q 56.97 9.59 53.62 7.30
  Q 53.16 6.99 52.63 7.17
  Q 50.97 7.72 49.46 9.22
  Q 29.87 28.71 10.21 48.16
  C 7.63 50.71 5.91 53.13 8.83 56.16
  Q 16.56 64.18 24.71 71.75
  Z"
/>
<path fill="#eed346" d="
  M 31.00 78.29
  Q 33.08 78.53 34.11 80.53
  Q 34.39 81.07 34.99 81.00
  Q 36.15 80.87 36.73 81.76
  Q 37.00 82.19 37.44 82.45
  C 42.43 85.55 45.75 89.31 50.19 94.31
  C 51.84 96.17 53.97 96.14 55.81 94.38
  Q 61.11 89.26 65.65 83.85
  A 1.65 1.65 0.0 0 0 64.89 81.21
  Q 62.50 80.44 60.08 80.94
  A 1.91 1.91 0.0 0 1 57.79 79.16
  C 57.54 73.55 58.67 67.97 58.37 62.43
  C 58.13 57.86 58.82 54.06 57.74 50.30
  Q 57.58 49.76 57.02 49.68
  C 54.93 49.39 51.66 50.97 51.28 47.66
  Q 50.75 43.12 53.60 40.17
  C 55.89 37.79 56.68 36.20 58.07 33.64
  C 59.36 31.25 61.58 29.61 62.82 26.88
  Q 63.00 26.47 63.40 26.25
  L 66.35 24.60
  A 1.28 1.27 53.0 0 0 66.63 22.59
  L 55.21 11.09
  A 2.36 2.36 0.0 0 0 52.20 10.80
  Q 44.94 15.72 39.54 22.76
  Q 39.18 23.22 39.68 23.52
  Q 40.89 24.26 42.28 23.53
  Q 42.68 23.31 43.13 23.31
  C 49.77 23.25 47.89 34.81 47.55 40.57
  Q 46.96 50.32 47.12 54.86
  Q 47.14 55.41 47.64 55.64
  Q 49.42 56.43 51.32 55.94
  Q 51.88 55.79 52.34 56.15
  L 54.88 58.13
  Q 55.17 58.35 55.28 58.70
  Q 55.91 60.82 54.08 61.38
  Q 53.58 61.53 53.38 62.01
  C 52.42 64.34 50.45 66.05 49.36 67.74
  C 47.63 70.41 43.79 78.65 40.25 77.96
  Q 45.93 68.54 52.60 59.64
  A 0.98 0.98 0.0 0 0 51.74 58.08
  L 45.90 58.54
  A 0.37 0.37 0.0 0 1 45.50 58.17
  L 45.50 27.00
  Q 45.50 26.25 44.75 26.25
  L 35.00 26.25
  Q 34.50 26.25 34.50 26.75
  L 34.50 58.00
  Q 34.50 58.56 33.95 58.51
  L 27.75 57.96
  Q 28.34 57.26 28.26 56.30
  Q 28.21 55.73 28.78 55.74
  L 30.82 55.77
  A 1.17 1.17 0.0 0 0 32.01 54.61
  L 32.19 30.45
  A 0.63 0.63 0.0 0 0 31.06 30.07
  Q 29.56 32.03 28.06 33.87
  C 22.56 40.61 14.90 45.95 10.02 53.21
  A 0.49 0.48 -47.5 0 0 10.04 53.77
  Q 14.53 59.52 20.79 63.25
  Q 21.26 63.53 21.44 64.05
  Q 22.34 66.71 24.66 68.24
  Q 25.14 68.56 25.21 69.14
  Q 25.38 70.56 24.71 71.75
  Q 16.56 64.18 8.83 56.16
  C 5.91 53.13 7.63 50.71 10.21 48.16
  Q 29.87 28.71 49.46 9.22
  Q 50.97 7.72 52.63 7.17
  Q 53.16 6.99 53.62 7.30
  Q 56.97 9.59 59.81 12.43
  Q 77.63 30.25 95.58 47.94
  C 98.13 50.45 99.80 53.59 96.94 56.43
  Q 70.53 82.79 55.44 97.43
  C 53.33 99.48 51.56 98.38 49.73 96.59
  Q 40.38 87.42 31.00 78.29
  Z
  M 53.52 47.42
  Q 56.95 47.82 60.05 47.06
  Q 59.96 62.52 60.23 77.50
  Q 60.25 78.46 60.51 79.17
  Q 65.84 79.87 70.96 78.75
  Q 71.45 77.68 71.46 76.43
  Q 71.52 61.73 71.50 47.02
  Q 71.49 46.48 72.04 46.50
  L 72.75 46.54
  L 72.89 46.80
  Q 73.14 47.25 73.65 47.25
  L 77.97 47.25
  Q 78.43 47.25 78.49 46.80
  Q 78.56 46.31 78.36 46.11
  Q 72.62 36.30 66.04 27.42
  Q 65.76 27.03 65.47 27.42
  C 61.71 32.69 58.12 38.69 53.99 43.61
  Q 52.57 45.30 53.52 47.42
  Z
  M 75.45 74.46
  C 79.09 71.01 82.42 66.26 86.26 63.63
  C 89.86 61.18 92.76 57.31 95.72 54.15
  A 1.66 1.65 41.5 0 0 95.57 51.74
  Q 93.11 49.71 91.14 47.31
  C 88.14 43.65 85.34 41.55 82.03 38.75
  Q 81.73 38.50 81.63 38.11
  Q 81.60 37.97 81.57 37.83
  Q 81.49 37.36 81.16 37.02
  L 73.91 29.52
  Q 73.46 29.05 72.83 29.26
  L 71.69 29.64
  Q 70.95 29.88 71.37 30.55
  Q 72.08 31.66 72.27 32.94
  Q 72.35 33.42 72.65 33.81
  Q 76.58 38.82 80.37 43.92
  C 83.92 48.69 77.29 49.55 74.62 50.32
  A 0.90 0.90 0.0 0 0 73.97 51.20
  Q 74.25 61.66 73.35 71.99
  Q 73.22 73.48 73.66 74.21
  A 1.16 1.15 52.9 0 0 75.45 74.46
  Z"
/>
<path fill="#fbda08" d="
  M 31.00 78.29
  L 24.71 71.75
  Q 25.38 70.56 25.21 69.14
  Q 25.14 68.56 24.66 68.24
  Q 22.34 66.71 21.44 64.05
  Q 21.26 63.53 20.79 63.25
  Q 14.53 59.52 10.04 53.77
  A 0.49 0.48 -47.5 0 1 10.02 53.21
  C 14.90 45.95 22.56 40.61 28.06 33.87
  Q 29.56 32.03 31.06 30.07
  A 0.63 0.63 0.0 0 1 32.19 30.45
  L 32.01 54.61
  A 1.17 1.17 0.0 0 1 30.82 55.77
  L 28.78 55.74
  Q 28.21 55.73 28.26 56.30
  Q 28.34 57.26 27.75 57.96
  Q 27.34 57.96 27.19 58.19
  A 1.31 1.18 -47.2 0 0 27.17 59.55
  L 39.66 78.17
  Q 39.82 78.41 40.01 78.20
  L 40.25 77.96
  C 43.79 78.65 47.63 70.41 49.36 67.74
  C 50.45 66.05 52.42 64.34 53.38 62.01
  Q 53.58 61.53 54.08 61.38
  Q 55.91 60.82 55.28 58.70
  Q 55.17 58.35 54.88 58.13
  L 52.34 56.15
  Q 51.88 55.79 51.32 55.94
  Q 49.42 56.43 47.64 55.64
  Q 47.14 55.41 47.12 54.86
  Q 46.96 50.32 47.55 40.57
  C 47.89 34.81 49.77 23.25 43.13 23.31
  Q 42.68 23.31 42.28 23.53
  Q 40.89 24.26 39.68 23.52
  Q 39.18 23.22 39.54 22.76
  Q 44.94 15.72 52.20 10.80
  A 2.36 2.36 0.0 0 1 55.21 11.09
  L 66.63 22.59
  A 1.28 1.27 53.0 0 1 66.35 24.60
  L 63.40 26.25
  Q 63.00 26.47 62.82 26.88
  C 61.58 29.61 59.36 31.25 58.07 33.64
  C 56.68 36.20 55.89 37.79 53.60 40.17
  Q 50.75 43.12 51.28 47.66
  C 51.66 50.97 54.93 49.39 57.02 49.68
  Q 57.58 49.76 57.74 50.30
  C 58.82 54.06 58.13 57.86 58.37 62.43
  C 58.67 67.97 57.54 73.55 57.79 79.16
  A 1.91 1.91 0.0 0 0 60.08 80.94
  Q 62.50 80.44 64.89 81.21
  A 1.65 1.65 0.0 0 1 65.65 83.85
  Q 61.11 89.26 55.81 94.38
  C 53.97 96.14 51.84 96.17 50.19 94.31
  C 45.75 89.31 42.43 85.55 37.44 82.45
  Q 37.00 82.19 36.73 81.76
  Q 36.15 80.87 34.99 81.00
  Q 34.39 81.07 34.11 80.53
  Q 33.08 78.53 31.00 78.29
  Z"
/>
<path fill="#040203" d="
  M 40.25 77.96
  L 40.01 78.20
  Q 39.82 78.41 39.66 78.17
  L 27.17 59.55
  A 1.31 1.18 -47.2 0 1 27.19 58.19
  Q 27.34 57.96 27.75 57.96
  L 33.95 58.51
  Q 34.50 58.56 34.50 58.00
  L 34.50 26.75
  Q 34.50 26.25 35.00 26.25
  L 44.75 26.25
  Q 45.50 26.25 45.50 27.00
  L 45.50 58.17
  A 0.37 0.37 0.0 0 0 45.90 58.54
  L 51.74 58.08
  A 0.98 0.98 0.0 0 1 52.60 59.64
  Q 45.93 68.54 40.25 77.96
  Z"
/>
<path fill="#040203" d="
  M 78.36 46.11
  Q 75.74 47.54 72.75 46.54
  L 72.04 46.50
  Q 71.49 46.48 71.50 47.02
  Q 71.52 61.73 71.46 76.43
  Q 71.45 77.68 70.96 78.75
  Q 65.71 77.95 60.51 79.17
  Q 60.25 78.46 60.23 77.50
  Q 59.96 62.52 60.05 47.06
  Q 56.82 45.66 53.52 47.42
  Q 52.57 45.30 53.99 43.61
  C 58.12 38.69 61.71 32.69 65.47 27.42
  Q 65.76 27.03 66.04 27.42
  Q 72.62 36.30 78.36 46.11
  Z"
/>
<path fill="#fbda08" d="
  M 86.26 63.63
  C 82.42 66.26 79.09 71.01 75.45 74.46
  A 1.16 1.15 52.9 0 1 73.66 74.21
  Q 73.22 73.48 73.35 71.99
  Q 74.25 61.66 73.97 51.20
  A 0.90 0.90 0.0 0 1 74.62 50.32
  C 77.29 49.55 83.92 48.69 80.37 43.92
  Q 76.58 38.82 72.65 33.81
  Q 72.35 33.42 72.27 32.94
  Q 72.08 31.66 71.37 30.55
  Q 70.95 29.88 71.69 29.64
  L 72.83 29.26
  Q 73.46 29.05 73.91 29.52
  L 81.16 37.02
  Q 81.49 37.36 81.57 37.83
  Q 81.60 37.97 81.63 38.11
  Q 81.73 38.50 82.03 38.75
  C 85.34 41.55 88.14 43.65 91.14 47.31
  Q 93.11 49.71 95.57 51.74
  A 1.66 1.65 41.5 0 1 95.72 54.15
  C 92.76 57.31 89.86 61.18 86.26 63.63
  Z"
/>
<path fill="#877b22" d="
  M 78.36 46.11
  Q 78.56 46.31 78.49 46.80
  Q 78.43 47.25 77.97 47.25
  L 73.65 47.25
  Q 73.14 47.25 72.89 46.80
  L 72.75 46.54
  Q 75.74 47.54 78.36 46.11
  Z"
/>
<path fill="#877b22" d="
  M 60.05 47.06
  Q 56.95 47.82 53.52 47.42
  Q 56.82 45.66 60.05 47.06
  Z"
/>
<path fill="#877b22" d="
  M 70.96 78.75
  Q 65.84 79.87 60.51 79.17
  Q 65.71 77.95 70.96 78.75
  Z"
/>
</svg>
