<?xml version="1.0" encoding="UTF-8" standalone="no"?>
<!DOCTYPE svg PUBLIC "-//W3C//DTD SVG 1.1//EN" "http://www.w3.org/Graphics/SVG/1.1/DTD/svg11.dtd">
<svg xmlns="http://www.w3.org/2000/svg" version="1.1" viewBox="0 0 105 110">
<g stroke-width="2.00" fill="none" stroke-linecap="butt">
<path stroke="#86721f" vector-effect="non-scaling-stroke" d="
  M 57.0180 10.6253
  A 7.01 7.01 0.0 0 0 47.1044 10.6253
  L 4.8053 52.9244
  A 7.01 7.01 0.0 0 0 4.8053 62.8380
  L 47.0620 105.0947
  A 7.01 7.01 0.0 0 0 56.9756 105.0947
  L 99.2747 62.7956
  A 7.01 7.01 0.0 0 0 99.2747 52.8820
  L 57.0180 10.6253"
/>
<path stroke="#86721f" vector-effect="non-scaling-stroke" d="
  M 55.0923 13.7110
  A 4.28 4.28 0.0 0 0 49.0394 13.7110
  L 7.8010 54.9494
  A 4.28 4.28 0.0 0 0 7.8010 61.0023
  L 49.0677 102.2690
  A 4.28 4.28 0.0 0 0 55.1206 102.2690
  L 96.3590 61.0306
  A 4.28 4.28 0.0 0 0 96.3590 54.9777
  L 55.0923 13.7110"
/>
<path stroke="#7a6c1f" vector-effect="non-scaling-stroke" d="
  M 51.00 37.21
  L 42.32 50.21
  A 1.04 1.04 0.0 0 0 43.29 51.82
  L 46.22 51.51
  Q 46.73 51.46 46.73 51.97
  L 46.79 81.21
  Q 46.79 81.84 47.41 81.72
  Q 49.96 81.24 52.58 81.79
  Q 54.48 82.18 54.48 80.24
  L 54.51 51.94
  Q 54.51 51.38 55.07 51.44
  L 57.85 51.72
  A 0.88 0.88 0.0 0 0 58.71 50.40
  L 51.21 37.25"
/>
<path stroke="#f6d822" vector-effect="non-scaling-stroke" d="
  M 51.21 37.25
  Q 51.16 36.86 51.33 36.63
  Q 52.05 35.61 52.84 36.58
  Q 56.08 40.54 58.02 45.34
  Q 58.19 45.75 58.59 45.95
  C 61.95 47.55 64.84 39.99 65.51 37.80
  Q 65.68 37.26 66.11 36.91
  L 68.41 35.05
  A 0.98 0.98 0.0 0 1 69.95 35.47
  Q 70.38 36.63 69.25 37.21"
/>
<path stroke="#7a6c1f" vector-effect="non-scaling-stroke" d="
  M 69.25 37.21
  L 60.62 50.88
  Q 60.32 51.35 60.84 51.52
  Q 62.44 52.05 64.02 51.54
  Q 65.00 51.22 65.00 52.25
  L 65.00 81.09
  Q 65.00 81.68 65.59 81.68
  L 72.31 81.64
  A 0.45 0.44 90.0 0 0 72.75 81.19
  L 72.75 52.25
  Q 72.75 51.75 73.25 51.75
  L 75.96 51.75
  Q 78.31 51.75 77.10 49.73
  L 71.00 39.54"
/>
<path stroke="#f6d822" vector-effect="non-scaling-stroke" d="
  M 71.00 39.54
  Q 74.13 39.75 74.75 42.58
  Q 74.87 43.10 75.25 43.48
  Q 77.94 46.19 79.61 49.59
  Q 79.86 50.10 79.66 50.62
  Q 78.59 53.50 76.17 55.39
  Q 75.77 55.71 75.72 56.22
  C 75.06 63.18 75.88 69.61 74.41 76.70
  A 1.12 1.11 -4.1 0 0 75.88 77.97
  Q 76.80 77.64 78.06 76.09
  Q 82.02 71.23 86.68 67.07
  C 89.33 64.72 91.69 61.65 94.56 59.45
  Q 96.03 58.32 94.68 57.04
  C 90.87 53.45 87.54 49.20 84.15 45.95
  C 76.92 39.03 70.81 32.67 62.71 24.90
  Q 59.22 21.56 54.72 16.57
  C 52.86 14.51 50.28 15.02 48.47 17.12
  C 45.30 20.82 41.77 23.77 38.53 27.60
  Q 36.20 30.36 33.48 32.78
  A 0.61 0.61 0.0 0 0 33.66 33.80
  C 35.46 34.53 41.93 37.25 40.95 39.74
  C 40.09 41.93 39.67 44.23 39.76 46.42
  A 1.07 1.07 0.0 0 0 41.76 46.92
  C 43.83 43.39 46.33 37.72 50.14 36.15
  Q 50.69 35.93 50.95 36.46
  Q 51.16 36.89 51.00 37.21"
/>
<path stroke="#806e04" vector-effect="non-scaling-stroke" d="
  M 71.00 39.54
  L 69.25 37.21"
/>
<path stroke="#806e04" vector-effect="non-scaling-stroke" d="
  M 51.21 37.25
  Q 51.10 37.23 51.00 37.21"
/>
<path stroke="#f6d822" vector-effect="non-scaling-stroke" d="
  M 26.00 66.46
  C 28.00 65.10 28.40 41.05 26.60 39.95
  A 1.53 1.52 30.7 0 0 24.48 40.49
  Q 22.01 44.81 18.36 47.95
  C 14.68 51.12 12.22 54.75 8.51 57.78
  A 0.75 0.74 -43.3 0 0 8.47 58.91
  C 10.32 60.60 11.98 61.79 13.60 63.90
  C 16.07 67.10 22.78 73.28 25.71 67.00"
/>
<path stroke="#7a6c1f" vector-effect="non-scaling-stroke" d="
  M 25.71 67.00
  L 30.79 75.75"
/>
<path stroke="#86721f" vector-effect="non-scaling-stroke" d="
  M 30.79 75.75
  Q 31.12 77.52 32.50 78.71"
/>
<path stroke="#7a6c1f" vector-effect="non-scaling-stroke" d="
  M 32.50 78.71
  Q 33.02 79.82 34.01 80.49
  Q 34.48 80.82 34.78 80.32
  L 42.22 68.03
  A 1.06 1.06 0.0 0 0 41.09 66.44
  L 38.25 67.05
  A 0.62 0.61 83.7 0 1 37.50 66.44
  L 37.50 37.60
  Q 37.50 36.95 36.85 36.96
  L 30.60 37.09
  Q 29.97 37.10 29.88 37.72
  C 29.19 42.75 30.03 45.87 29.88 49.85
  C 29.67 55.16 29.88 60.54 29.68 66.14
  Q 29.64 67.33 28.48 67.05
  L 26.00 66.46"
/>
<path stroke="#100802" vector-effect="non-scaling-stroke" d="
  M 32.50 78.71
  Q 32.24 76.87 30.79 75.75"
/>
<path stroke="#806e04" vector-effect="non-scaling-stroke" d="
  M 25.71 67.00
  L 26.00 66.46"
/>
<path stroke="#f6d822" vector-effect="non-scaling-stroke" d="
  M 35.88 85.85
  C 38.05 89.24 41.29 91.30 43.75 94.27
  C 46.29 97.33 51.28 103.07 55.24 98.77
  C 59.59 94.04 64.49 89.64 69.00 84.99
  Q 69.42 84.55 68.90 84.24
  Q 67.02 83.13 64.96 83.71
  A 1.13 1.13 0.0 0 1 63.53 82.76
  Q 62.32 72.96 63.15 63.01
  C 63.39 60.06 62.97 57.48 62.48 54.67
  Q 62.37 54.08 61.77 54.03
  L 57.70 53.71
  Q 57.09 53.66 56.85 54.23
  Q 56.20 55.78 56.23 57.50
  C 56.36 64.90 57.49 74.65 55.97 81.76
  Q 55.86 82.26 55.36 82.37
  C 53.19 82.80 51.22 84.01 49.25 83.99
  C 42.81 83.92 44.57 76.54 44.80 72.73
  A 0.90 0.90 0.0 0 0 43.31 72.00
  Q 39.08 75.76 37.48 81.22
  Q 37.33 81.73 36.87 81.98
  Q 34.30 83.38 35.88 85.85"
/>
</g>
<path fill="#f0d63c" d="
  M 27.21 87.16
  C 24.48 86.08 23.76 83.46 22.29 81.92
  Q 18.38 77.83 14.13 74.08
  C 10.60 70.95 7.45 66.92 3.63 63.70
  C -0.04 60.60 -0.70 56.31 3.24 53.07
  Q 3.62 52.76 3.79 52.30
  C 4.45 50.44 7.39 48.07 8.91 46.81
  C 12.48 43.86 14.42 40.19 18.57 37.58
  Q 19.00 37.30 19.25 36.86
  C 20.18 35.17 21.95 34.29 22.93 33.36
  Q 29.73 26.91 31.55 24.55
  Q 33.08 22.57 34.62 21.66
  Q 35.05 21.41 35.29 20.98
  C 37.49 16.95 40.00 16.08 42.92 13.36
  C 44.18 12.19 43.96 10.34 46.34 9.68
  Q 46.80 9.55 47.14 9.22
  C 53.57 2.87 59.94 10.61 63.89 15.10
  Q 66.28 17.81 68.29 19.71
  C 79.20 30.00 89.67 40.86 100.37 51.38
  Q 102.88 53.84 104.10 57.14
  Q 104.26 57.60 104.12 58.06
  Q 103.10 61.38 101.52 63.02
  Q 95.10 69.68 72.73 91.84
  C 68.26 96.26 62.84 101.26 58.34 106.59
  C 54.59 111.03 46.99 109.13 44.32 104.77
  C 42.31 101.48 31.72 90.06 28.39 88.73
  Q 27.97 88.56 27.83 88.13
  L 27.69 87.67
  Q 27.57 87.30 27.21 87.16
  Z
  M 57.0180 10.6253
  A 7.01 7.01 0.0 0 0 47.1044 10.6253
  L 4.8053 52.9244
  A 7.01 7.01 0.0 0 0 4.8053 62.8380
  L 47.0620 105.0947
  A 7.01 7.01 0.0 0 0 56.9756 105.0947
  L 99.2747 62.7956
  A 7.01 7.01 0.0 0 0 99.2747 52.8820
  L 57.0180 10.6253
  Z"
/>
<path fill="#1c0e02" d="
  M 99.2747 52.8820
  A 7.01 7.01 0.0 0 1 99.2747 62.7956
  L 56.9756 105.0947
  A 7.01 7.01 0.0 0 1 47.0620 105.0947
  L 4.8053 62.8380
  A 7.01 7.01 0.0 0 1 4.8053 52.9244
  L 47.1044 10.6253
  A 7.01 7.01 0.0 0 1 57.0180 10.6253
  L 99.2747 52.8820
  Z
  M 55.0923 13.7110
  A 4.28 4.28 0.0 0 0 49.0394 13.7110
  L 7.8010 54.9494
  A 4.28 4.28 0.0 0 0 7.8010 61.0023
  L 49.0677 102.2690
  A 4.28 4.28 0.0 0 0 55.1206 102.2690
  L 96.3590 61.0306
  A 4.28 4.28 0.0 0 0 96.3590 54.9777
  L 55.0923 13.7110
  Z"
/>
<path fill="#f0d63c" d="
  M 96.3590 54.9777
  A 4.28 4.28 0.0 0 1 96.3590 61.0306
  L 55.1206 102.2690
  A 4.28 4.28 0.0 0 1 49.0677 102.2690
  L 7.8010 61.0023
  A 4.28 4.28 0.0 0 1 7.8010 54.9494
  L 49.0394 13.7110
  A 4.28 4.28 0.0 0 1 55.0923 13.7110
  L 96.3590 54.9777
  Z
  M 51.00 37.21
  L 42.32 50.21
  A 1.04 1.04 0.0 0 0 43.29 51.82
  L 46.22 51.51
  Q 46.73 51.46 46.73 51.97
  L 46.79 81.21
  Q 46.79 81.84 47.41 81.72
  Q 49.96 81.24 52.58 81.79
  Q 54.48 82.18 54.48 80.24
  L 54.51 51.94
  Q 54.51 51.38 55.07 51.44
  L 57.85 51.72
  A 0.88 0.88 0.0 0 0 58.71 50.40
  L 51.21 37.25
  Q 51.16 36.86 51.33 36.63
  Q 52.05 35.61 52.84 36.58
  Q 56.08 40.54 58.02 45.34
  Q 58.19 45.75 58.59 45.95
  C 61.95 47.55 64.84 39.99 65.51 37.80
  Q 65.68 37.26 66.11 36.91
  L 68.41 35.05
  A 0.98 0.98 0.0 0 1 69.95 35.47
  Q 70.38 36.63 69.25 37.21
  L 60.62 50.88
  Q 60.32 51.35 60.84 51.52
  Q 62.44 52.05 64.02 51.54
  Q 65.00 51.22 65.00 52.25
  L 65.00 81.09
  Q 65.00 81.68 65.59 81.68
  L 72.31 81.64
  A 0.45 0.44 90.0 0 0 72.75 81.19
  L 72.75 52.25
  Q 72.75 51.75 73.25 51.75
  L 75.96 51.75
  Q 78.31 51.75 77.10 49.73
  L 71.00 39.54
  Q 74.13 39.75 74.75 42.58
  Q 74.87 43.10 75.25 43.48
  Q 77.94 46.19 79.61 49.59
  Q 79.86 50.10 79.66 50.62
  Q 78.59 53.50 76.17 55.39
  Q 75.77 55.71 75.72 56.22
  C 75.06 63.18 75.88 69.61 74.41 76.70
  A 1.12 1.11 -4.1 0 0 75.88 77.97
  Q 76.80 77.64 78.06 76.09
  Q 82.02 71.23 86.68 67.07
  C 89.33 64.72 91.69 61.65 94.56 59.45
  Q 96.03 58.32 94.68 57.04
  C 90.87 53.45 87.54 49.20 84.15 45.95
  C 76.92 39.03 70.81 32.67 62.71 24.90
  Q 59.22 21.56 54.72 16.57
  C 52.86 14.51 50.28 15.02 48.47 17.12
  C 45.30 20.82 41.77 23.77 38.53 27.60
  Q 36.20 30.36 33.48 32.78
  A 0.61 0.61 0.0 0 0 33.66 33.80
  C 35.46 34.53 41.93 37.25 40.95 39.74
  C 40.09 41.93 39.67 44.23 39.76 46.42
  A 1.07 1.07 0.0 0 0 41.76 46.92
  C 43.83 43.39 46.33 37.72 50.14 36.15
  Q 50.69 35.93 50.95 36.46
  Q 51.16 36.89 51.00 37.21
  Z
  M 26.00 66.46
  C 28.00 65.10 28.40 41.05 26.60 39.95
  A 1.53 1.52 30.7 0 0 24.48 40.49
  Q 22.01 44.81 18.36 47.95
  C 14.68 51.12 12.22 54.75 8.51 57.78
  A 0.75 0.74 -43.3 0 0 8.47 58.91
  C 10.32 60.60 11.98 61.79 13.60 63.90
  C 16.07 67.10 22.78 73.28 25.71 67.00
  L 30.79 75.75
  Q 31.12 77.52 32.50 78.71
  Q 33.02 79.82 34.01 80.49
  Q 34.48 80.82 34.78 80.32
  L 42.22 68.03
  A 1.06 1.06 0.0 0 0 41.09 66.44
  L 38.25 67.05
  A 0.62 0.61 83.7 0 1 37.50 66.44
  L 37.50 37.60
  Q 37.50 36.95 36.85 36.96
  L 30.60 37.09
  Q 29.97 37.10 29.88 37.72
  C 29.19 42.75 30.03 45.87 29.88 49.85
  C 29.67 55.16 29.88 60.54 29.68 66.14
  Q 29.64 67.33 28.48 67.05
  L 26.00 66.46
  Z
  M 35.88 85.85
  C 38.05 89.24 41.29 91.30 43.75 94.27
  C 46.29 97.33 51.28 103.07 55.24 98.77
  C 59.59 94.04 64.49 89.64 69.00 84.99
  Q 69.42 84.55 68.90 84.24
  Q 67.02 83.13 64.96 83.71
  A 1.13 1.13 0.0 0 1 63.53 82.76
  Q 62.32 72.96 63.15 63.01
  C 63.39 60.06 62.97 57.48 62.48 54.67
  Q 62.37 54.08 61.77 54.03
  L 57.70 53.71
  Q 57.09 53.66 56.85 54.23
  Q 56.20 55.78 56.23 57.50
  C 56.36 64.90 57.49 74.65 55.97 81.76
  Q 55.86 82.26 55.36 82.37
  C 53.19 82.80 51.22 84.01 49.25 83.99
  C 42.81 83.92 44.57 76.54 44.80 72.73
  A 0.90 0.90 0.0 0 0 43.31 72.00
  Q 39.08 75.76 37.48 81.22
  Q 37.33 81.73 36.87 81.98
  Q 34.30 83.38 35.88 85.85
  Z"
/>
<path fill="#fcda07" d="
  M 71.00 39.54
  L 69.25 37.21
  Q 70.38 36.63 69.95 35.47
  A 0.98 0.98 0.0 0 0 68.41 35.05
  L 66.11 36.91
  Q 65.68 37.26 65.51 37.80
  C 64.84 39.99 61.95 47.55 58.59 45.95
  Q 58.19 45.75 58.02 45.34
  Q 56.08 40.54 52.84 36.58
  Q 52.05 35.61 51.33 36.63
  Q 51.16 36.86 51.21 37.25
  Q 51.10 37.23 51.00 37.21
  Q 51.16 36.89 50.95 36.46
  Q 50.69 35.93 50.14 36.15
  C 46.33 37.72 43.83 43.39 41.76 46.92
  A 1.07 1.07 0.0 0 1 39.76 46.42
  C 39.67 44.23 40.09 41.93 40.95 39.74
  C 41.93 37.25 35.46 34.53 33.66 33.80
  A 0.61 0.61 0.0 0 1 33.48 32.78
  Q 36.20 30.36 38.53 27.60
  C 41.77 23.77 45.30 20.82 48.47 17.12
  C 50.28 15.02 52.86 14.51 54.72 16.57
  Q 59.22 21.56 62.71 24.90
  C 70.81 32.67 76.92 39.03 84.15 45.95
  C 87.54 49.20 90.87 53.45 94.68 57.04
  Q 96.03 58.32 94.56 59.45
  C 91.69 61.65 89.33 64.72 86.68 67.07
  Q 82.02 71.23 78.06 76.09
  Q 76.80 77.64 75.88 77.97
  A 1.12 1.11 -4.1 0 1 74.41 76.70
  C 75.88 69.61 75.06 63.18 75.72 56.22
  Q 75.77 55.71 76.17 55.39
  Q 78.59 53.50 79.66 50.62
  Q 79.86 50.10 79.61 49.59
  Q 77.94 46.19 75.25 43.48
  Q 74.87 43.10 74.75 42.58
  Q 74.13 39.75 71.00 39.54
  Z"
/>
<path fill="#030201" d="
  M 32.50 78.71
  Q 32.24 76.87 30.79 75.75
  L 25.71 67.00
  L 26.00 66.46
  L 28.48 67.05
  Q 29.64 67.33 29.68 66.14
  C 29.88 60.54 29.67 55.16 29.88 49.85
  C 30.03 45.87 29.19 42.75 29.88 37.72
  Q 29.97 37.10 30.60 37.09
  L 36.85 36.96
  Q 37.50 36.95 37.50 37.60
  L 37.50 66.44
  A 0.62 0.61 83.7 0 0 38.25 67.05
  L 41.09 66.44
  A 1.06 1.06 0.0 0 1 42.22 68.03
  L 34.78 80.32
  Q 34.48 80.82 34.01 80.49
  Q 33.02 79.82 32.50 78.71
  Z"
/>
<path fill="#030201" d="
  M 51.00 37.21
  Q 51.10 37.23 51.21 37.25
  L 58.71 50.40
  A 0.88 0.88 0.0 0 1 57.85 51.72
  L 55.07 51.44
  Q 54.51 51.38 54.51 51.94
  L 54.48 80.24
  Q 54.48 82.18 52.58 81.79
  Q 49.96 81.24 47.41 81.72
  Q 46.79 81.84 46.79 81.21
  L 46.73 51.97
  Q 46.73 51.46 46.22 51.51
  L 43.29 51.82
  A 1.04 1.04 0.0 0 1 42.32 50.21
  L 51.00 37.21
  Z"
/>
<path fill="#030201" d="
  M 69.25 37.21
  L 71.00 39.54
  L 77.10 49.73
  Q 78.31 51.75 75.96 51.75
  L 73.25 51.75
  Q 72.75 51.75 72.75 52.25
  L 72.75 81.19
  A 0.45 0.44 -90.0 0 1 72.31 81.64
  L 65.59 81.68
  Q 65.00 81.68 65.00 81.09
  L 65.00 52.25
  Q 65.00 51.22 64.02 51.54
  Q 62.44 52.05 60.84 51.52
  Q 60.32 51.35 60.62 50.88
  L 69.25 37.21
  Z"
/>
<path fill="#fcda07" d="
  M 26.00 66.46
  L 25.71 67.00
  C 22.78 73.28 16.07 67.10 13.60 63.90
  C 11.98 61.79 10.32 60.60 8.47 58.91
  A 0.75 0.74 -43.3 0 1 8.51 57.78
  C 12.22 54.75 14.68 51.12 18.36 47.95
  Q 22.01 44.81 24.48 40.49
  A 1.53 1.52 30.7 0 1 26.60 39.95
  C 28.40 41.05 28.00 65.10 26.00 66.46
  Z"
/>
<path fill="#fcda07" d="
  M 35.88 85.85
  Q 34.30 83.38 36.87 81.98
  Q 37.33 81.73 37.48 81.22
  Q 39.08 75.76 43.31 72.00
  A 0.90 0.90 0.0 0 1 44.80 72.73
  C 44.57 76.54 42.81 83.92 49.25 83.99
  C 51.22 84.01 53.19 82.80 55.36 82.37
  Q 55.86 82.26 55.97 81.76
  C 57.49 74.65 56.36 64.90 56.23 57.50
  Q 56.20 55.78 56.85 54.23
  Q 57.09 53.66 57.70 53.71
  L 61.77 54.03
  Q 62.37 54.08 62.48 54.67
  C 62.97 57.48 63.39 60.06 63.15 63.01
  Q 62.32 72.96 63.53 82.76
  A 1.13 1.13 0.0 0 0 64.96 83.71
  Q 67.02 83.13 68.90 84.24
  Q 69.42 84.55 69.00 84.99
  C 64.49 89.64 59.59 94.04 55.24 98.77
  C 51.28 103.07 46.29 97.33 43.75 94.27
  C 41.29 91.30 38.05 89.24 35.88 85.85
  Z"
/>
<path fill="#1c0e02" d="
  M 30.79 75.75
  Q 32.24 76.87 32.50 78.71
  Q 31.12 77.52 30.79 75.75
  Z"
/>
</svg>
