<?xml version="1.0" encoding="UTF-8" standalone="no"?>
<!DOCTYPE svg PUBLIC "-//W3C//DTD SVG 1.1//EN" "http://www.w3.org/Graphics/SVG/1.1/DTD/svg11.dtd">
<svg xmlns="http://www.w3.org/2000/svg" version="1.1" viewBox="0 0 106 108">
<g stroke-width="2.00" fill="none" stroke-linecap="butt">
<path stroke="#847335" vector-effect="non-scaling-stroke" d="
  M 104.21 53.25
  Q 102.48 49.59 101.45 48.56
  Q 82.11 29.15 62.73 9.79
  C 56.58 3.66 53.21 1.24 46.34 8.10
  Q 26.47 27.98 6.83 48.09
  C 2.79 52.22 1.99 55.73 6.25 60.02
  Q 27.24 81.14 48.46 102.04
  Q 53.76 107.25 59.06 102.08
  Q 81.66 80.06 103.72 57.49"
/>
<path stroke="#857123" vector-effect="non-scaling-stroke" d="
  M 98.9512 57.2942
  A 4.36 4.36 0.0 0 0 98.9512 51.1282
  L 56.8218 8.9988
  A 4.36 4.36 0.0 0 0 50.6558 8.9988
  L 8.5688 51.0858
  A 4.36 4.36 0.0 0 0 8.5688 57.2518
  L 50.6982 99.3812
  A 4.36 4.36 0.0 0 0 56.8642 99.3812
  L 98.9512 57.2942"
/>
<path stroke="#f6d726" vector-effect="non-scaling-stroke" d="
  M 53.50 10.49
  C 46.60 13.49 44.06 19.47 38.71 24.23
  C 36.32 26.35 33.95 29.72 30.53 31.51
  Q 30.14 31.71 29.87 32.04
  Q 28.52 33.67 30.41 34.11
  Q 30.92 34.22 31.42 34.09
  Q 35.90 32.95 39.24 36.29
  Q 39.61 36.66 39.70 37.17
  C 40.20 39.90 42.82 41.33 45.37 42.81
  C 47.14 43.83 49.13 43.45 51.08 43.36
  Q 51.66 43.34 51.74 42.76
  L 52.40 38.03
  Q 52.46 37.58 52.16 37.23
  L 49.68 34.30
  Q 49.31 33.86 49.34 33.28
  L 49.65 26.79
  Q 49.66 26.37 49.94 26.06
  C 54.78 20.41 63.26 22.19 63.49 30.30
  Q 63.51 30.72 63.91 30.85
  L 74.14 34.17
  Q 74.61 34.32 74.88 34.74
  Q 76.53 37.30 78.69 35.95
  A 1.20 1.19 -42.2 0 0 78.79 34.00
  Q 77.08 32.67 76.09 31.67
  Q 66.51 22.06 57.35 12.05
  Q 57.31 12.00 57.23 12.00
  L 56.78 12.00
  Q 56.53 12.00 56.43 11.77
  Q 55.45 9.64 53.50 10.49"
/>
<path stroke="#7c6c23" vector-effect="non-scaling-stroke" d="
  M 61.30 29.94
  A 5.03 5.03 0.0 0 0 56.27 24.91
  A 5.03 5.03 0.0 0 0 51.24 29.94
  A 5.03 5.03 0.0 0 0 56.27 34.97
  A 5.03 5.03 0.0 0 0 61.30 29.94"
/>
<path stroke="#7c6c23" vector-effect="non-scaling-stroke" d="
  M 84.10 46.26
  L 79.90 38.66
  Q 79.69 38.28 79.29 38.47
  L 75.75 40.22
  Q 75.16 40.50 74.84 39.94
  L 72.70 36.19
  Q 72.41 35.66 71.82 35.50
  L 63.06 33.03
  Q 62.58 32.89 62.15 33.13
  L 56.21 36.46
  Q 55.67 36.77 55.56 37.38
  C 55.00 40.77 54.40 46.69 52.36 47.22
  Q 51.79 47.36 51.45 46.89
  L 50.23 45.18
  Q 49.91 44.72 49.45 45.04
  L 46.91 46.76
  Q 46.42 47.09 45.95 46.74
  L 40.17 42.48
  A 1.88 1.88 0.0 0 0 37.91 42.50
  L 33.80 45.62
  Q 33.46 45.88 33.37 46.30
  L 32.24 51.87
  Q 32.11 52.50 31.51 52.72
  L 27.82 54.11
  Q 27.15 54.36 27.21 55.08
  L 27.37 57.15
  Q 27.43 57.92 28.20 57.82
  Q 33.02 57.23 36.57 53.98
  A 0.38 0.38 0.0 0 1 37.20 54.33
  Q 36.61 57.38 34.00 59.10
  Q 33.39 59.51 33.82 60.11
  L 34.49 61.03
  Q 34.75 61.39 34.53 61.79
  Q 30.95 68.20 32.08 75.49
  C 32.39 77.48 33.07 78.36 35.23 77.96
  Q 36.55 77.71 36.59 76.37
  L 36.82 69.19
  Q 36.84 68.66 37.19 68.26
  L 40.66 64.21
  A 0.45 0.44 61.3 0 1 41.44 64.44
  C 42.19 70.05 45.39 72.09 50.02 74.56
  A 1.93 1.92 -67.0 0 0 52.75 73.45
  C 54.39 68.44 45.14 70.28 47.47 62.04
  Q 47.61 61.55 48.05 61.29
  L 49.59 60.37
  Q 50.15 60.03 49.80 59.48
  L 48.14 56.85
  Q 47.83 56.35 48.33 56.03
  Q 50.10 54.94 51.87 53.85
  C 53.46 52.86 54.28 51.28 56.03 50.32
  Q 56.53 50.04 56.85 49.58
  L 57.77 48.24
  Q 58.18 47.66 58.50 48.29
  L 60.23 51.69
  Q 60.49 52.19 60.20 52.69
  Q 58.01 56.53 56.36 60.64
  C 55.39 63.08 52.32 82.06 60.07 77.39
  Q 60.48 77.14 60.61 76.67
  C 61.58 73.31 60.92 68.47 61.06 64.86
  Q 61.09 64.26 61.43 63.77
  L 65.58 57.83
  Q 66.14 57.04 66.18 58.00
  L 66.54 65.18
  Q 66.57 65.73 66.86 66.18
  C 68.42 68.60 72.16 75.27 75.23 77.04
  Q 75.68 77.30 76.17 77.11
  C 82.23 74.87 75.44 67.89 73.54 65.28
  Q 73.24 64.87 73.26 64.36
  L 73.72 52.88
  Q 73.74 52.35 74.22 52.11
  L 83.83 47.15
  Q 84.43 46.84 84.10 46.26"
/>
<path stroke="#7c6c23" vector-effect="non-scaling-stroke" d="
  M 37.78 39.90
  A 4.14 4.14 0.0 0 0 33.64 35.76
  A 4.14 4.14 0.0 0 0 29.50 39.90
  A 4.14 4.14 0.0 0 0 33.64 44.04
  A 4.14 4.14 0.0 0 0 37.78 39.90"
/>
<path stroke="#f6d726" vector-effect="non-scaling-stroke" d="
  M 11.40 56.85
  L 28.83 74.07
  A 0.44 0.44 0.0 0 0 29.56 73.89
  C 30.66 70.43 29.93 67.13 30.43 63.68
  Q 30.50 63.15 30.85 62.74
  Q 31.70 61.73 31.38 60.50
  Q 31.22 59.88 30.60 60.02
  Q 27.65 60.67 25.49 58.66
  Q 25.14 58.33 25.07 57.86
  Q 24.22 52.30 29.35 50.84
  Q 29.83 50.70 30.07 50.25
  Q 31.30 47.83 29.94 45.41
  Q 29.68 44.95 29.19 44.77
  C 25.70 43.43 28.54 39.81 26.82 37.33
  Q 26.47 36.83 25.96 37.15
  Q 23.95 38.39 22.34 40.09
  Q 15.79 47.02 10.19 54.74
  Q 9.88 55.16 10.02 55.67
  Q 10.16 56.19 10.67 56.38
  Q 11.08 56.54 11.40 56.85"
/>
<path stroke="#f6d726" vector-effect="non-scaling-stroke" d="
  M 84.24 68.05
  Q 91.33 62.09 97.15 54.88
  Q 97.47 54.48 97.25 54.02
  C 95.44 50.15 92.42 48.00 89.32 45.19
  Q 88.97 44.88 88.52 44.95
  Q 86.25 45.32 86.06 47.59
  Q 86.01 48.17 85.55 48.53
  C 79.54 53.29 76.62 57.31 76.35 64.60
  Q 76.33 65.16 76.65 65.61
  L 80.32 70.67
  Q 80.66 71.14 81.19 70.92
  C 82.31 70.48 83.68 68.52 84.24 68.05"
/>
<path stroke="#f6d726" vector-effect="non-scaling-stroke" d="
  M 66.18 66.82
  L 66.47 66.98
  Q 66.61 67.05 66.57 66.90
  Q 66.24 65.53 65.02 65.07
  Q 64.55 64.90 64.15 65.19
  Q 62.43 66.44 62.72 68.03
  C 63.25 70.91 62.97 73.03 62.56 75.76
  Q 62.08 79.01 58.70 79.89
  C 56.20 80.53 54.42 78.99 52.76 77.35
  Q 52.39 76.99 51.88 77.02
  C 47.75 77.24 43.66 73.37 40.84 70.83
  A 0.56 0.56 0.0 0 0 39.92 71.12
  L 38.44 77.67
  Q 38.30 78.27 37.88 78.71
  L 35.88 80.77
  Q 35.49 81.18 35.85 81.62
  C 38.62 85.04 42.22 87.44 44.91 91.09
  C 46.30 92.97 48.54 94.95 50.62 97.09
  C 55.24 101.86 64.80 89.33 67.47 85.54
  Q 69.68 82.41 72.96 80.05
  A 1.13 1.13 0.0 0 0 73.13 78.35
  C 70.54 75.57 64.99 71.31 66.13 66.93
  Q 66.16 66.82 66.18 66.82"
/>
<path stroke="#7b6f35" vector-effect="non-scaling-stroke" d="
  M 68.29 39.82
  Q 66.82 39.65 67.66 40.86
  L 69.35 43.27
  A 0.91 0.91 0.0 0 0 71.01 42.77
  Q 71.06 40.14 68.29 39.82"
/>
</g>
<path fill="#eeda67" d="
  M 104.21 53.25
  Q 102.48 49.59 101.45 48.56
  Q 82.11 29.15 62.73 9.79
  C 56.58 3.66 53.21 1.24 46.34 8.10
  Q 26.47 27.98 6.83 48.09
  C 2.79 52.22 1.99 55.73 6.25 60.02
  Q 27.24 81.14 48.46 102.04
  Q 53.76 107.25 59.06 102.08
  Q 81.66 80.06 103.72 57.49
  Q 102.59 60.38 100.38 62.64
  C 98.27 64.79 96.56 67.52 93.89 69.23
  Q 93.48 69.49 93.27 69.93
  L 93.03 70.45
  Q 92.86 70.79 92.49 70.87
  Q 91.47 71.11 91.18 72.07
  Q 91.03 72.58 90.66 72.96
  Q 80.55 83.51 70.12 93.74
  C 65.04 98.73 61.58 103.31 54.79 106.68
  Q 54.36 106.89 53.90 106.80
  C 47.40 105.48 43.27 100.04 38.07 94.49
  C 27.57 83.27 16.05 72.91 5.85 61.41
  Q 5.05 60.52 3.25 59.95
  Q 2.82 59.82 2.80 59.36
  L 2.52 50.52
  Q 2.50 49.92 2.92 49.49
  Q 25.48 26.64 48.31 4.09
  C 52.01 0.43 56.47 0.75 59.67 4.70
  C 61.74 7.26 64.85 9.62 66.71 11.49
  Q 84.47 29.26 102.25 46.98
  Q 104.92 49.64 104.21 53.25
  Z"
/>
<path fill="#190c02" d="
  M 104.21 53.25
  Q 103.49 55.04 103.72 57.49
  Q 81.66 80.06 59.06 102.08
  Q 53.76 107.25 48.46 102.04
  Q 27.24 81.14 6.25 60.02
  C 1.99 55.73 2.79 52.22 6.83 48.09
  Q 26.47 27.98 46.34 8.10
  C 53.21 1.24 56.58 3.66 62.73 9.79
  Q 82.11 29.15 101.45 48.56
  Q 102.48 49.59 104.21 53.25
  Z
  M 98.9512 57.2942
  A 4.36 4.36 0.0 0 0 98.9512 51.1282
  L 56.8218 8.9988
  A 4.36 4.36 0.0 0 0 50.6558 8.9988
  L 8.5688 51.0858
  A 4.36 4.36 0.0 0 0 8.5688 57.2518
  L 50.6982 99.3812
  A 4.36 4.36 0.0 0 0 56.8642 99.3812
  L 98.9512 57.2942
  Z"
/>
<path fill="#f0d543" d="
  M 56.8642 99.3812
  A 4.36 4.36 0.0 0 1 50.6982 99.3812
  L 8.5688 57.2518
  A 4.36 4.36 0.0 0 1 8.5688 51.0858
  L 50.6558 8.9988
  A 4.36 4.36 0.0 0 1 56.8218 8.9988
  L 98.9512 51.1282
  A 4.36 4.36 0.0 0 1 98.9512 57.2942
  L 56.8642 99.3812
  Z
  M 53.50 10.49
  C 46.60 13.49 44.06 19.47 38.71 24.23
  C 36.32 26.35 33.95 29.72 30.53 31.51
  Q 30.14 31.71 29.87 32.04
  Q 28.52 33.67 30.41 34.11
  Q 30.92 34.22 31.42 34.09
  Q 35.90 32.95 39.24 36.29
  Q 39.61 36.66 39.70 37.17
  C 40.20 39.90 42.82 41.33 45.37 42.81
  C 47.14 43.83 49.13 43.45 51.08 43.36
  Q 51.66 43.34 51.74 42.76
  L 52.40 38.03
  Q 52.46 37.58 52.16 37.23
  L 49.68 34.30
  Q 49.31 33.86 49.34 33.28
  L 49.65 26.79
  Q 49.66 26.37 49.94 26.06
  C 54.78 20.41 63.26 22.19 63.49 30.30
  Q 63.51 30.72 63.91 30.85
  L 74.14 34.17
  Q 74.61 34.32 74.88 34.74
  Q 76.53 37.30 78.69 35.95
  A 1.20 1.19 -42.2 0 0 78.79 34.00
  Q 77.08 32.67 76.09 31.67
  Q 66.51 22.06 57.35 12.05
  Q 57.31 12.00 57.23 12.00
  L 56.78 12.00
  Q 56.53 12.00 56.43 11.77
  Q 55.45 9.64 53.50 10.49
  Z
  M 61.30 29.94
  A 5.03 5.03 0.0 0 0 56.27 24.91
  A 5.03 5.03 0.0 0 0 51.24 29.94
  A 5.03 5.03 0.0 0 0 56.27 34.97
  A 5.03 5.03 0.0 0 0 61.30 29.94
  Z
  M 84.10 46.26
  L 79.90 38.66
  Q 79.69 38.28 79.29 38.47
  L 75.75 40.22
  Q 75.16 40.50 74.84 39.94
  L 72.70 36.19
  Q 72.41 35.66 71.82 35.50
  L 63.06 33.03
  Q 62.58 32.89 62.15 33.13
  L 56.21 36.46
  Q 55.67 36.77 55.56 37.38
  C 55.00 40.77 54.40 46.69 52.36 47.22
  Q 51.79 47.36 51.45 46.89
  L 50.23 45.18
  Q 49.91 44.72 49.45 45.04
  L 46.91 46.76
  Q 46.42 47.09 45.95 46.74
  L 40.17 42.48
  A 1.88 1.88 0.0 0 0 37.91 42.50
  L 33.80 45.62
  Q 33.46 45.88 33.37 46.30
  L 32.24 51.87
  Q 32.11 52.50 31.51 52.72
  L 27.82 54.11
  Q 27.15 54.36 27.21 55.08
  L 27.37 57.15
  Q 27.43 57.92 28.20 57.82
  Q 33.02 57.23 36.57 53.98
  A 0.38 0.38 0.0 0 1 37.20 54.33
  Q 36.61 57.38 34.00 59.10
  Q 33.39 59.51 33.82 60.11
  L 34.49 61.03
  Q 34.75 61.39 34.53 61.79
  Q 30.95 68.20 32.08 75.49
  C 32.39 77.48 33.07 78.36 35.23 77.96
  Q 36.55 77.71 36.59 76.37
  L 36.82 69.19
  Q 36.84 68.66 37.19 68.26
  L 40.66 64.21
  A 0.45 0.44 61.3 0 1 41.44 64.44
  C 42.19 70.05 45.39 72.09 50.02 74.56
  A 1.93 1.92 -67.0 0 0 52.75 73.45
  C 54.39 68.44 45.14 70.28 47.47 62.04
  Q 47.61 61.55 48.05 61.29
  L 49.59 60.37
  Q 50.15 60.03 49.80 59.48
  L 48.14 56.85
  Q 47.83 56.35 48.33 56.03
  Q 50.10 54.94 51.87 53.85
  C 53.46 52.86 54.28 51.28 56.03 50.32
  Q 56.53 50.04 56.85 49.58
  L 57.77 48.24
  Q 58.18 47.66 58.50 48.29
  L 60.23 51.69
  Q 60.49 52.19 60.20 52.69
  Q 58.01 56.53 56.36 60.64
  C 55.39 63.08 52.32 82.06 60.07 77.39
  Q 60.48 77.14 60.61 76.67
  C 61.58 73.31 60.92 68.47 61.06 64.86
  Q 61.09 64.26 61.43 63.77
  L 65.58 57.83
  Q 66.14 57.04 66.18 58.00
  L 66.54 65.18
  Q 66.57 65.73 66.86 66.18
  C 68.42 68.60 72.16 75.27 75.23 77.04
  Q 75.68 77.30 76.17 77.11
  C 82.23 74.87 75.44 67.89 73.54 65.28
  Q 73.24 64.87 73.26 64.36
  L 73.72 52.88
  Q 73.74 52.35 74.22 52.11
  L 83.83 47.15
  Q 84.43 46.84 84.10 46.26
  Z
  M 37.78 39.90
  A 4.14 4.14 0.0 0 0 33.64 35.76
  A 4.14 4.14 0.0 0 0 29.50 39.90
  A 4.14 4.14 0.0 0 0 33.64 44.04
  A 4.14 4.14 0.0 0 0 37.78 39.90
  Z
  M 11.40 56.85
  L 28.83 74.07
  A 0.44 0.44 0.0 0 0 29.56 73.89
  C 30.66 70.43 29.93 67.13 30.43 63.68
  Q 30.50 63.15 30.85 62.74
  Q 31.70 61.73 31.38 60.50
  Q 31.22 59.88 30.60 60.02
  Q 27.65 60.67 25.49 58.66
  Q 25.14 58.33 25.07 57.86
  Q 24.22 52.30 29.35 50.84
  Q 29.83 50.70 30.07 50.25
  Q 31.30 47.83 29.94 45.41
  Q 29.68 44.95 29.19 44.77
  C 25.70 43.43 28.54 39.81 26.82 37.33
  Q 26.47 36.83 25.96 37.15
  Q 23.95 38.39 22.34 40.09
  Q 15.79 47.02 10.19 54.74
  Q 9.88 55.16 10.02 55.67
  Q 10.16 56.19 10.67 56.38
  Q 11.08 56.54 11.40 56.85
  Z
  M 84.24 68.05
  Q 91.33 62.09 97.15 54.88
  Q 97.47 54.48 97.25 54.02
  C 95.44 50.15 92.42 48.00 89.32 45.19
  Q 88.97 44.88 88.52 44.95
  Q 86.25 45.32 86.06 47.59
  Q 86.01 48.17 85.55 48.53
  C 79.54 53.29 76.62 57.31 76.35 64.60
  Q 76.33 65.16 76.65 65.61
  L 80.32 70.67
  Q 80.66 71.14 81.19 70.92
  C 82.31 70.48 83.68 68.52 84.24 68.05
  Z
  M 66.18 66.82
  L 66.47 66.98
  Q 66.61 67.05 66.57 66.90
  Q 66.24 65.53 65.02 65.07
  Q 64.55 64.90 64.15 65.19
  Q 62.43 66.44 62.72 68.03
  C 63.25 70.91 62.97 73.03 62.56 75.76
  Q 62.08 79.01 58.70 79.89
  C 56.20 80.53 54.42 78.99 52.76 77.35
  Q 52.39 76.99 51.88 77.02
  C 47.75 77.24 43.66 73.37 40.84 70.83
  A 0.56 0.56 0.0 0 0 39.92 71.12
  L 38.44 77.67
  Q 38.30 78.27 37.88 78.71
  L 35.88 80.77
  Q 35.49 81.18 35.85 81.62
  C 38.62 85.04 42.22 87.44 44.91 91.09
  C 46.30 92.97 48.54 94.95 50.62 97.09
  C 55.24 101.86 64.80 89.33 67.47 85.54
  Q 69.68 82.41 72.96 80.05
  A 1.13 1.13 0.0 0 0 73.13 78.35
  C 70.54 75.57 64.99 71.31 66.13 66.93
  Q 66.16 66.82 66.18 66.82
  Z"
/>
<path fill="#fcd908" d="
  M 38.71 24.23
  C 44.06 19.47 46.60 13.49 53.50 10.49
  Q 55.45 9.64 56.43 11.77
  Q 56.53 12.00 56.78 12.00
  L 57.23 12.00
  Q 57.31 12.00 57.35 12.05
  Q 66.51 22.06 76.09 31.67
  Q 77.08 32.67 78.79 34.00
  A 1.20 1.19 -42.2 0 1 78.69 35.95
  Q 76.53 37.30 74.88 34.74
  Q 74.61 34.32 74.14 34.17
  L 63.91 30.85
  Q 63.51 30.72 63.49 30.30
  C 63.26 22.19 54.78 20.41 49.94 26.06
  Q 49.66 26.37 49.65 26.79
  L 49.34 33.28
  Q 49.31 33.86 49.68 34.30
  L 52.16 37.23
  Q 52.46 37.58 52.40 38.03
  L 51.74 42.76
  Q 51.66 43.34 51.08 43.36
  C 49.13 43.45 47.14 43.83 45.37 42.81
  C 42.82 41.33 40.20 39.90 39.70 37.17
  Q 39.61 36.66 39.24 36.29
  Q 35.90 32.95 31.42 34.09
  Q 30.92 34.22 30.41 34.11
  Q 28.52 33.67 29.87 32.04
  Q 30.14 31.71 30.53 31.51
  C 33.95 29.72 36.32 26.35 38.71 24.23
  Z"
/>
<circle fill="#070302" cx="56.27" cy="29.94" r="5.03"/>
<path fill="#070302" d="
  M 79.90 38.66
  L 84.10 46.26
  Q 84.43 46.84 83.83 47.15
  L 74.22 52.11
  Q 73.74 52.35 73.72 52.88
  L 73.26 64.36
  Q 73.24 64.87 73.54 65.28
  C 75.44 67.89 82.23 74.87 76.17 77.11
  Q 75.68 77.30 75.23 77.04
  C 72.16 75.27 68.42 68.60 66.86 66.18
  Q 66.57 65.73 66.54 65.18
  L 66.18 58.00
  Q 66.14 57.04 65.58 57.83
  L 61.43 63.77
  Q 61.09 64.26 61.06 64.86
  C 60.92 68.47 61.58 73.31 60.61 76.67
  Q 60.48 77.14 60.07 77.39
  C 52.32 82.06 55.39 63.08 56.36 60.64
  Q 58.01 56.53 60.20 52.69
  Q 60.49 52.19 60.23 51.69
  L 58.50 48.29
  Q 58.18 47.66 57.77 48.24
  L 56.85 49.58
  Q 56.53 50.04 56.03 50.32
  C 54.28 51.28 53.46 52.86 51.87 53.85
  Q 50.10 54.94 48.33 56.03
  Q 47.83 56.35 48.14 56.85
  L 49.80 59.48
  Q 50.15 60.03 49.59 60.37
  L 48.05 61.29
  Q 47.61 61.55 47.47 62.04
  C 45.14 70.28 54.39 68.44 52.75 73.45
  A 1.93 1.92 -67.0 0 1 50.02 74.56
  C 45.39 72.09 42.19 70.05 41.44 64.44
  A 0.45 0.44 61.3 0 0 40.66 64.21
  L 37.19 68.26
  Q 36.84 68.66 36.82 69.19
  L 36.59 76.37
  Q 36.55 77.71 35.23 77.96
  C 33.07 78.36 32.39 77.48 32.08 75.49
  Q 30.95 68.20 34.53 61.79
  Q 34.75 61.39 34.49 61.03
  L 33.82 60.11
  Q 33.39 59.51 34.00 59.10
  Q 36.61 57.38 37.20 54.33
  A 0.38 0.38 0.0 0 0 36.57 53.98
  Q 33.02 57.23 28.20 57.82
  Q 27.43 57.92 27.37 57.15
  L 27.21 55.08
  Q 27.15 54.36 27.82 54.11
  L 31.51 52.72
  Q 32.11 52.50 32.24 51.87
  L 33.37 46.30
  Q 33.46 45.88 33.80 45.62
  L 37.91 42.50
  A 1.88 1.88 0.0 0 1 40.17 42.48
  L 45.95 46.74
  Q 46.42 47.09 46.91 46.76
  L 49.45 45.04
  Q 49.91 44.72 50.23 45.18
  L 51.45 46.89
  Q 51.79 47.36 52.36 47.22
  C 54.40 46.69 55.00 40.77 55.56 37.38
  Q 55.67 36.77 56.21 36.46
  L 62.15 33.13
  Q 62.58 32.89 63.06 33.03
  L 71.82 35.50
  Q 72.41 35.66 72.70 36.19
  L 74.84 39.94
  Q 75.16 40.50 75.75 40.22
  L 79.29 38.47
  Q 79.69 38.28 79.90 38.66
  Z
  M 68.29 39.82
  Q 66.82 39.65 67.66 40.86
  L 69.35 43.27
  A 0.91 0.91 0.0 0 0 71.01 42.77
  Q 71.06 40.14 68.29 39.82
  Z"
/>
<circle fill="#070302" cx="33.64" cy="39.90" r="4.14"/>
<path fill="#fcd908" d="
  M 28.83 74.07
  L 11.40 56.85
  Q 11.08 56.54 10.67 56.38
  Q 10.16 56.19 10.02 55.67
  Q 9.88 55.16 10.19 54.74
  Q 15.79 47.02 22.34 40.09
  Q 23.95 38.39 25.96 37.15
  Q 26.47 36.83 26.82 37.33
  C 28.54 39.81 25.70 43.43 29.19 44.77
  Q 29.68 44.95 29.94 45.41
  Q 31.30 47.83 30.07 50.25
  Q 29.83 50.70 29.35 50.84
  Q 24.22 52.30 25.07 57.86
  Q 25.14 58.33 25.49 58.66
  Q 27.65 60.67 30.60 60.02
  Q 31.22 59.88 31.38 60.50
  Q 31.70 61.73 30.85 62.74
  Q 30.50 63.15 30.43 63.68
  C 29.93 67.13 30.66 70.43 29.56 73.89
  A 0.44 0.44 0.0 0 1 28.83 74.07
  Z"
/>
<path fill="#eeda67" d="
  M 68.29 39.82
  Q 71.06 40.14 71.01 42.77
  A 0.91 0.91 0.0 0 1 69.35 43.27
  L 67.66 40.86
  Q 66.82 39.65 68.29 39.82
  Z"
/>
<path fill="#fcd908" d="
  M 84.24 68.05
  C 83.68 68.52 82.31 70.48 81.19 70.92
  Q 80.66 71.14 80.32 70.67
  L 76.65 65.61
  Q 76.33 65.16 76.35 64.60
  C 76.62 57.31 79.54 53.29 85.55 48.53
  Q 86.01 48.17 86.06 47.59
  Q 86.25 45.32 88.52 44.95
  Q 88.97 44.88 89.32 45.19
  C 92.42 48.00 95.44 50.15 97.25 54.02
  Q 97.47 54.48 97.15 54.88
  Q 91.33 62.09 84.24 68.05
  Z"
/>
<path fill="#fcd908" d="
  M 66.13 66.93
  C 64.99 71.31 70.54 75.57 73.13 78.35
  A 1.13 1.13 0.0 0 1 72.96 80.05
  Q 69.68 82.41 67.47 85.54
  C 64.80 89.33 55.24 101.86 50.62 97.09
  C 48.54 94.95 46.30 92.97 44.91 91.09
  C 42.22 87.44 38.62 85.04 35.85 81.62
  Q 35.49 81.18 35.88 80.77
  L 37.88 78.71
  Q 38.30 78.27 38.44 77.67
  L 39.92 71.12
  A 0.56 0.56 0.0 0 1 40.84 70.83
  C 43.66 73.37 47.75 77.24 51.88 77.02
  Q 52.39 76.99 52.76 77.35
  C 54.42 78.99 56.20 80.53 58.70 79.89
  Q 62.08 79.01 62.56 75.76
  C 62.97 73.03 63.25 70.91 62.72 68.03
  Q 62.43 66.44 64.15 65.19
  Q 64.55 64.90 65.02 65.07
  Q 66.24 65.53 66.57 66.90
  Q 66.61 67.05 66.47 66.98
  L 66.18 66.82
  Q 66.16 66.82 66.13 66.93
  Z"
/>
</svg>
