<?xml version="1.0" encoding="UTF-8" standalone="no"?>
<!DOCTYPE svg PUBLIC "-//W3C//DTD SVG 1.1//EN" "http://www.w3.org/Graphics/SVG/1.1/DTD/svg11.dtd">
<svg xmlns="http://www.w3.org/2000/svg" version="1.1" viewBox="0 0 107 97">
<g stroke-width="2.00" fill="none" stroke-linecap="butt">
<path stroke="#d97d7e" stroke-opacity="0.992" vector-effect="non-scaling-stroke" d="
  M 2.04 11.75
  C 3.88 14.58 5.43 18.14 6.84 20.61
  Q 25.69 53.60 44.56 86.58
  C 52.65 100.71 59.99 91.67 64.99 82.52
  C 73.39 67.18 89.02 40.50 101.34 18.92
  C 104.41 13.54 106.04 8.24 100.81 4.02
  C 96.13 0.25 87.19 1.75 81.60 1.75
  Q 48.99 1.75 16.37 1.75
  C 9.04 1.74 4.94 1.07 1.48 7.28"
/>
<path stroke="#e49690" vector-effect="non-scaling-stroke" d="
  M 50.19 82.06
  C 52.46 86.09 54.96 85.24 56.97 81.52
  Q 74.76 48.62 92.86 15.89
  Q 94.02 13.78 95.13 11.55
  Q 95.38 11.05 94.91 10.76
  Q 93.31 9.78 91.68 9.77
  Q 73.43 9.69 16.28 9.77
  C 14.69 9.77 12.92 10.07 11.28 10.21
  Q 10.61 10.27 10.74 10.93
  Q 11.02 12.33 11.97 14.02
  Q 31.10 48.03 50.19 82.06"
/>
</g>
<path fill="#ebcedd" fill-opacity="0.984" d="
  M 2.04 11.75
  C 3.88 14.58 5.43 18.14 6.84 20.61
  Q 25.69 53.60 44.56 86.58
  C 52.65 100.71 59.99 91.67 64.99 82.52
  C 73.39 67.18 89.02 40.50 101.34 18.92
  C 104.41 13.54 106.04 8.24 100.81 4.02
  C 96.13 0.25 87.19 1.75 81.60 1.75
  Q 48.99 1.75 16.37 1.75
  C 9.04 1.74 4.94 1.07 1.48 7.28
  C 2.45 1.78 6.41 0.85 11.68 0.83
  Q 52.34 0.65 93.00 0.79
  C 99.88 0.82 101.19 1.98 104.68 7.49
  Q 104.95 7.90 104.90 8.39
  C 104.62 11.00 105.12 13.27 104.04 15.71
  C 101.06 22.41 96.92 28.52 93.23 34.86
  Q 92.98 35.29 93.01 35.78
  Q 93.06 36.77 92.21 37.30
  Q 91.76 37.58 91.50 38.04
  Q 83.54 51.92 75.63 65.83
  C 75.20 66.59 75.09 67.03 75.01 67.91
  Q 74.96 68.40 74.58 68.72
  C 71.37 71.41 69.10 77.07 66.70 80.65
  C 65.89 81.87 66.29 82.87 65.50 83.95
  C 63.37 86.91 61.59 91.34 58.55 93.10
  Q 55.81 94.69 52.58 95.09
  Q 52.09 95.15 51.65 94.91
  C 44.46 91.03 41.90 83.15 37.74 76.72
  C 36.23 74.39 35.06 71.72 33.57 69.25
  C 32.86 68.10 31.82 65.42 30.49 63.83
  Q 29.45 62.59 29.02 61.80
  Q 16.36 38.70 3.02 15.99
  Q 2.41 14.95 2.04 11.75
  Z"
/>
<path fill="#c82d21" d="
  M 2.04 11.75
  L 1.48 7.28
  C 4.94 1.07 9.04 1.74 16.37 1.75
  Q 48.99 1.75 81.60 1.75
  C 87.19 1.75 96.13 0.25 100.81 4.02
  C 106.04 8.24 104.41 13.54 101.34 18.92
  C 89.02 40.50 73.39 67.18 64.99 82.52
  C 59.99 91.67 52.65 100.71 44.56 86.58
  Q 25.69 53.60 6.84 20.61
  C 5.43 18.14 3.88 14.58 2.04 11.75
  Z
  M 50.19 82.06
  C 52.46 86.09 54.96 85.24 56.97 81.52
  Q 74.76 48.62 92.86 15.89
  Q 94.02 13.78 95.13 11.55
  Q 95.38 11.05 94.91 10.76
  Q 93.31 9.78 91.68 9.77
  Q 73.43 9.69 16.28 9.77
  C 14.69 9.77 12.92 10.07 11.28 10.21
  Q 10.61 10.27 10.74 10.93
  Q 11.02 12.33 11.97 14.02
  Q 31.10 48.03 50.19 82.06
  Z"
/>
<path fill="#ffffff" d="
  M 56.97 81.52
  C 54.96 85.24 52.46 86.09 50.19 82.06
  Q 31.10 48.03 11.97 14.02
  Q 11.02 12.33 10.74 10.93
  Q 10.61 10.27 11.28 10.21
  C 12.92 10.07 14.69 9.77 16.28 9.77
  Q 73.43 9.69 91.68 9.77
  Q 93.31 9.78 94.91 10.76
  Q 95.38 11.05 95.13 11.55
  Q 94.02 13.78 92.86 15.89
  Q 74.76 48.62 56.97 81.52
  Z"
/>
</svg>
