<?xml version="1.0" encoding="UTF-8" standalone="no"?>
<!DOCTYPE svg PUBLIC "-//W3C//DTD SVG 1.1//EN" "http://www.w3.org/Graphics/SVG/1.1/DTD/svg11.dtd">
<svg xmlns="http://www.w3.org/2000/svg" version="1.1" viewBox="0 0 92 92">
<g stroke-width="2.00" fill="none" stroke-linecap="butt">
<path stroke="#e39792" vector-effect="non-scaling-stroke" d="
  M 82.51 46.44
  A 36.56 36.56 0.0 0 0 45.95 9.88
  A 36.56 36.56 0.0 0 0 9.39 46.44
  A 36.56 36.56 0.0 0 0 45.95 83.00
  A 36.56 36.56 0.0 0 0 82.51 46.44"
/>
<path stroke="#8e8d8b" vector-effect="non-scaling-stroke" d="
  M 40.25 33.97
  L 40.25 77.25
  A 0.50 0.50 0.0 0 0 40.75 77.75
  L 50.75 77.75
  Q 51.51 77.75 51.51 77.00
  L 51.49 33.92
  Q 51.49 33.37 52.03 33.46
  L 56.97 34.24
  Q 58.39 34.47 58.26 33.03
  Q 58.14 31.71 57.02 29.80
  Q 52.11 21.42 46.86 13.09
  Q 46.55 12.60 46.23 13.08
  L 33.18 32.67
  A 1.06 1.06 0.0 0 0 34.22 34.31
  L 39.72 33.51
  Q 40.25 33.43 40.25 33.97"
/>
</g>
<path fill="#c72e24" d="
  M 90.98 46.35
  A 45.13 45.13 0.0 0 1 45.85 91.48
  A 45.13 45.13 0.0 0 1 0.72 46.35
  A 45.13 45.13 0.0 0 1 45.85 1.22
  A 45.13 45.13 0.0 0 1 90.98 46.35
  Z
  M 82.51 46.44
  A 36.56 36.56 0.0 0 0 45.95 9.88
  A 36.56 36.56 0.0 0 0 9.39 46.44
  A 36.56 36.56 0.0 0 0 45.95 83.00
  A 36.56 36.56 0.0 0 0 82.51 46.44
  Z"
/>
<path fill="#ffffff" d="
  M 82.51 46.44
  A 36.56 36.56 0.0 0 1 45.95 83.00
  A 36.56 36.56 0.0 0 1 9.39 46.44
  A 36.56 36.56 0.0 0 1 45.95 9.88
  A 36.56 36.56 0.0 0 1 82.51 46.44
  Z
  M 40.25 33.97
  L 40.25 77.25
  A 0.50 0.50 0.0 0 0 40.75 77.75
  L 50.75 77.75
  Q 51.51 77.75 51.51 77.00
  L 51.49 33.92
  Q 51.49 33.37 52.03 33.46
  L 56.97 34.24
  Q 58.39 34.47 58.26 33.03
  Q 58.14 31.71 57.02 29.80
  Q 52.11 21.42 46.86 13.09
  Q 46.55 12.60 46.23 13.08
  L 33.18 32.67
  A 1.06 1.06 0.0 0 0 34.22 34.31
  L 39.72 33.51
  Q 40.25 33.43 40.25 33.97
  Z"
/>
<path fill="#1d1a17" d="
  M 39.72 33.51
  L 34.22 34.31
  A 1.06 1.06 0.0 0 1 33.18 32.67
  L 46.23 13.08
  Q 46.55 12.60 46.86 13.09
  Q 52.11 21.42 57.02 29.80
  Q 58.14 31.71 58.26 33.03
  Q 58.39 34.47 56.97 34.24
  L 52.03 33.46
  Q 51.49 33.37 51.49 33.92
  L 51.51 77.00
  Q 51.51 77.75 50.75 77.75
  L 40.75 77.75
  A 0.50 0.50 0.0 0 1 40.25 77.25
  L 40.25 33.97
  Q 40.25 33.43 39.72 33.51
  Z"
/>
</svg>
