<?xml version="1.0" encoding="UTF-8" standalone="no"?>
<!DOCTYPE svg PUBLIC "-//W3C//DTD SVG 1.1//EN" "http://www.w3.org/Graphics/SVG/1.1/DTD/svg11.dtd">
<svg xmlns="http://www.w3.org/2000/svg" version="1.1" viewBox="0 0 93 94">
<g stroke-width="2.00" fill="none" stroke-linecap="butt">
<path stroke="#c3312c" vector-effect="non-scaling-stroke" d="
  M 89.50 31.71
  L 87.71 32.05
  Q 87.25 32.14 87.08 31.70
  C 83.48 22.19 75.61 12.28 65.89 8.55
  C 64.32 7.95 63.69 7.04 62.07 6.62
  Q 58.40 5.70 54.77 4.67
  C 51.39 3.71 47.58 4.66 44.98 4.60
  Q 40.79 4.51 36.60 4.40
  Q 36.13 4.38 35.84 4.76
  C 35.50 5.21 35.12 5.54 34.52 5.64
  Q 26.32 6.96 21.57 10.56
  Q 11.38 18.29 5.54 32.08
  Q 5.38 32.44 5.00 32.49
  L 3.04 32.75"
/>
<path stroke="#e68e87" vector-effect="non-scaling-stroke" d="
  M 32.78 26.01
  A 0.33 0.33 0.0 0 1 33.39 25.84
  L 40.22 36.60
  A 0.33 0.33 0.0 0 0 40.50 36.75
  L 43.77 36.75
  A 0.33 0.33 0.0 0 0 44.10 36.42
  L 44.30 18.32
  A 0.33 0.33 0.0 0 0 44.01 17.99
  L 40.87 17.56
  A 0.33 0.33 0.0 0 0 40.49 17.89
  L 40.53 29.36
  A 0.33 0.33 0.0 0 1 39.92 29.53
  L 33.04 18.44
  A 0.33 0.33 0.0 0 0 32.82 18.29
  L 29.65 17.69
  A 0.33 0.33 0.0 0 0 29.25 18.01
  L 29.01 36.71
  A 0.33 0.33 0.0 0 0 29.38 37.04
  L 32.35 36.64
  A 0.33 0.33 0.0 0 0 32.63 36.32
  L 32.78 26.01"
/>
<path stroke="#e78a81" vector-effect="non-scaling-stroke" d="
  M 65.5922 25.9250
  A 8.32 8.32 0.0 0 0 57.1140 17.7662
  L 55.4943 17.7973
  A 8.32 8.32 0.0 0 0 47.3356 26.2755
  L 47.3878 28.9950
  A 8.32 8.32 0.0 0 0 55.8660 37.1538
  L 57.4857 37.1227
  A 8.32 8.32 0.0 0 0 65.6444 28.6445
  L 65.5922 25.9250"
/>
<path stroke="#e79590" vector-effect="non-scaling-stroke" d="
  M 82.5001 40.3029
  A 0.27 0.27 0.0 0 0 82.2306 40.0325
  L 10.6707 39.9076
  A 0.27 0.27 0.0 0 0 10.4002 40.1771
  L 10.3799 51.8371
  A 0.27 0.27 0.0 0 0 10.6494 52.1075
  L 82.2093 52.2324
  A 0.27 0.27 0.0 0 0 82.4798 51.9629
  L 82.5001 40.3029"
/>
<path stroke="#e68e87" vector-effect="non-scaling-stroke" d="
  M 57.25 67.50
  C 63.45 68.74 55.33 77.08 51.78 69.25
  Q 51.49 68.62 50.81 68.70
  L 48.81 68.91
  Q 48.12 68.99 48.20 69.67
  C 49.19 77.62 63.99 77.56 63.32 68.90
  C 62.95 64.19 56.53 63.16 53.01 61.98
  A 1.09 1.09 0.0 0 1 52.71 60.07
  Q 56.44 57.31 59.01 60.90
  Q 59.32 61.35 59.87 61.39
  L 62.16 61.54
  Q 62.74 61.58 62.69 61.00
  C 62.17 54.79 53.22 54.41 50.03 58.19
  C 45.51 63.56 53.36 66.73 57.25 67.50"
/>
<path stroke="#e79590" vector-effect="non-scaling-stroke" d="
  M 18.10 67.84
  C 20.68 67.64 24.17 68.12 26.21 66.44
  Q 30.16 63.19 27.01 58.19
  C 25.28 55.44 16.92 56.02 14.06 56.24
  Q 13.52 56.28 13.53 56.82
  L 13.67 74.00
  Q 13.68 74.76 14.42 74.90
  L 16.72 75.33
  Q 17.39 75.45 17.41 74.77
  L 17.54 68.43
  Q 17.55 67.88 18.10 67.84"
/>
<path stroke="#e68e87" vector-effect="non-scaling-stroke" d="
  M 39.63 56.54
  A 0.66 0.66 0.0 0 0 39.03 56.12
  L 35.97 56.09
  A 0.66 0.66 0.0 0 0 35.35 56.50
  L 28.38 74.10
  A 0.66 0.66 0.0 0 0 28.99 75.00
  L 31.68 75.00
  A 0.66 0.66 0.0 0 0 32.28 74.60
  L 33.79 71.15
  A 0.66 0.66 0.0 0 1 34.39 70.75
  L 40.51 70.75
  A 0.66 0.66 0.0 0 1 41.12 71.14
  L 42.65 74.55
  A 0.66 0.66 0.0 0 0 43.20 74.93
  L 46.05 75.17
  A 0.66 0.66 0.0 0 0 46.71 74.27
  L 39.63 56.54"
/>
<path stroke="#e68e87" vector-effect="non-scaling-stroke" d="
  M 70.16 63.25
  L 69.95 59.92
  Q 69.91 59.25 70.58 59.25
  L 79.69 59.25
  Q 80.13 59.25 80.22 58.81
  L 80.58 56.88
  Q 80.74 56.02 79.87 56.02
  L 67.15 56.11
  Q 66.42 56.12 66.41 56.85
  L 66.35 74.53
  Q 66.35 75.07 66.89 75.10
  C 71.85 75.34 80.61 76.35 80.81 73.14
  A 0.85 0.85 0.0 0 0 79.98 72.24
  L 70.71 72.08
  Q 70.10 72.07 70.08 71.47
  L 69.97 67.40
  Q 69.95 66.75 70.60 66.75
  L 78.98 66.75
  Q 79.72 66.75 79.67 66.01
  L 79.57 64.42
  Q 79.53 63.75 78.86 63.75
  L 70.69 63.75
  Q 70.19 63.75 70.16 63.25"
/>
<path stroke="#e78a81" vector-effect="non-scaling-stroke" d="
  M 61.5232 25.5387
  A 4.49 4.49 0.0 0 0 57.0410 21.0409
  L 56.0610 21.0392
  A 4.49 4.49 0.0 0 0 51.5632 25.5213
  L 51.5568 29.2013
  A 4.49 4.49 0.0 0 0 56.0390 33.6991
  L 57.0190 33.7008
  A 4.49 4.49 0.0 0 0 61.5168 29.2187
  L 61.5232 25.5387"
/>
<path stroke="#db9b9b" vector-effect="non-scaling-stroke" d="
  M 18.10 64.84
  C 25.48 66.21 27.12 58.55 18.13 59.33
  Q 17.49 59.39 17.49 60.03
  L 17.51 64.13
  Q 17.51 64.73 18.10 64.84"
/>
<path stroke="#da9492" vector-effect="non-scaling-stroke" d="
  M 35.15 66.71
  A 0.66 0.66 0.0 0 0 35.78 67.58
  L 39.09 67.53
  A 0.66 0.66 0.0 0 0 39.70 66.64
  L 37.97 62.02
  A 0.66 0.66 0.0 0 0 36.73 62.03
  L 35.15 66.71"
/>
</g>
<path fill="#b63737" d="
  M 89.50 31.71
  L 87.71 32.05
  Q 87.25 32.14 87.08 31.70
  C 83.48 22.19 75.61 12.28 65.89 8.55
  C 64.32 7.95 63.69 7.04 62.07 6.62
  Q 58.40 5.70 54.77 4.67
  C 51.39 3.71 47.58 4.66 44.98 4.60
  Q 40.79 4.51 36.60 4.40
  Q 36.13 4.38 35.84 4.76
  C 35.50 5.21 35.12 5.54 34.52 5.64
  Q 26.32 6.96 21.57 10.56
  Q 11.38 18.29 5.54 32.08
  Q 5.38 32.44 5.00 32.49
  L 3.04 32.75
  C 17.20 -8.88 73.80 -9.34 89.50 31.71
  Z"
/>
<path fill="#cf2a20" d="
  M 89.50 31.71
  C 98.52 58.14 83.59 83.72 57.64 91.35
  C 45.10 95.03 29.30 91.39 19.03 83.50
  Q -4.07 65.74 2.18 34.47
  Q 2.28 33.96 3.04 32.75
  L 5.00 32.49
  Q 5.38 32.44 5.54 32.08
  Q 11.38 18.29 21.57 10.56
  Q 26.32 6.96 34.52 5.64
  C 35.12 5.54 35.50 5.21 35.84 4.76
  Q 36.13 4.38 36.60 4.40
  Q 40.79 4.51 44.98 4.60
  C 47.58 4.66 51.39 3.71 54.77 4.67
  Q 58.40 5.70 62.07 6.62
  C 63.69 7.04 64.32 7.95 65.89 8.55
  C 75.61 12.28 83.48 22.19 87.08 31.70
  Q 87.25 32.14 87.71 32.05
  L 89.50 31.71
  Z
  M 32.78 26.01
  A 0.33 0.33 0.0 0 1 33.39 25.84
  L 40.22 36.60
  A 0.33 0.33 0.0 0 0 40.50 36.75
  L 43.77 36.75
  A 0.33 0.33 0.0 0 0 44.10 36.42
  L 44.30 18.32
  A 0.33 0.33 0.0 0 0 44.01 17.99
  L 40.87 17.56
  A 0.33 0.33 0.0 0 0 40.49 17.89
  L 40.53 29.36
  A 0.33 0.33 0.0 0 1 39.92 29.53
  L 33.04 18.44
  A 0.33 0.33 0.0 0 0 32.82 18.29
  L 29.65 17.69
  A 0.33 0.33 0.0 0 0 29.25 18.01
  L 29.01 36.71
  A 0.33 0.33 0.0 0 0 29.38 37.04
  L 32.35 36.64
  A 0.33 0.33 0.0 0 0 32.63 36.32
  L 32.78 26.01
  Z
  M 65.5922 25.9250
  A 8.32 8.32 0.0 0 0 57.1140 17.7662
  L 55.4943 17.7973
  A 8.32 8.32 0.0 0 0 47.3356 26.2755
  L 47.3878 28.9950
  A 8.32 8.32 0.0 0 0 55.8660 37.1538
  L 57.4857 37.1227
  A 8.32 8.32 0.0 0 0 65.6444 28.6445
  L 65.5922 25.9250
  Z
  M 82.5001 40.3029
  A 0.27 0.27 0.0 0 0 82.2306 40.0325
  L 10.6707 39.9076
  A 0.27 0.27 0.0 0 0 10.4002 40.1771
  L 10.3799 51.8371
  A 0.27 0.27 0.0 0 0 10.6494 52.1075
  L 82.2093 52.2324
  A 0.27 0.27 0.0 0 0 82.4798 51.9629
  L 82.5001 40.3029
  Z
  M 57.25 67.50
  C 63.45 68.74 55.33 77.08 51.78 69.25
  Q 51.49 68.62 50.81 68.70
  L 48.81 68.91
  Q 48.12 68.99 48.20 69.67
  C 49.19 77.62 63.99 77.56 63.32 68.90
  C 62.95 64.19 56.53 63.16 53.01 61.98
  A 1.09 1.09 0.0 0 1 52.71 60.07
  Q 56.44 57.31 59.01 60.90
  Q 59.32 61.35 59.87 61.39
  L 62.16 61.54
  Q 62.74 61.58 62.69 61.00
  C 62.17 54.79 53.22 54.41 50.03 58.19
  C 45.51 63.56 53.36 66.73 57.25 67.50
  Z
  M 18.10 67.84
  C 20.68 67.64 24.17 68.12 26.21 66.44
  Q 30.16 63.19 27.01 58.19
  C 25.28 55.44 16.92 56.02 14.06 56.24
  Q 13.52 56.28 13.53 56.82
  L 13.67 74.00
  Q 13.68 74.76 14.42 74.90
  L 16.72 75.33
  Q 17.39 75.45 17.41 74.77
  L 17.54 68.43
  Q 17.55 67.88 18.10 67.84
  Z
  M 39.63 56.54
  A 0.66 0.66 0.0 0 0 39.03 56.12
  L 35.97 56.09
  A 0.66 0.66 0.0 0 0 35.35 56.50
  L 28.38 74.10
  A 0.66 0.66 0.0 0 0 28.99 75.00
  L 31.68 75.00
  A 0.66 0.66 0.0 0 0 32.28 74.60
  L 33.79 71.15
  A 0.66 0.66 0.0 0 1 34.39 70.75
  L 40.51 70.75
  A 0.66 0.66 0.0 0 1 41.12 71.14
  L 42.65 74.55
  A 0.66 0.66 0.0 0 0 43.20 74.93
  L 46.05 75.17
  A 0.66 0.66 0.0 0 0 46.71 74.27
  L 39.63 56.54
  Z
  M 70.16 63.25
  L 69.95 59.92
  Q 69.91 59.25 70.58 59.25
  L 79.69 59.25
  Q 80.13 59.25 80.22 58.81
  L 80.58 56.88
  Q 80.74 56.02 79.87 56.02
  L 67.15 56.11
  Q 66.42 56.12 66.41 56.85
  L 66.35 74.53
  Q 66.35 75.07 66.89 75.10
  C 71.85 75.34 80.61 76.35 80.81 73.14
  A 0.85 0.85 0.0 0 0 79.98 72.24
  L 70.71 72.08
  Q 70.10 72.07 70.08 71.47
  L 69.97 67.40
  Q 69.95 66.75 70.60 66.75
  L 78.98 66.75
  Q 79.72 66.75 79.67 66.01
  L 79.57 64.42
  Q 79.53 63.75 78.86 63.75
  L 70.69 63.75
  Q 70.19 63.75 70.16 63.25
  Z"
/>
<path fill="#fdf1ed" d="
  M 32.78 26.01
  L 32.63 36.32
  A 0.33 0.33 0.0 0 1 32.35 36.64
  L 29.38 37.04
  A 0.33 0.33 0.0 0 1 29.01 36.71
  L 29.25 18.01
  A 0.33 0.33 0.0 0 1 29.65 17.69
  L 32.82 18.29
  A 0.33 0.33 0.0 0 1 33.04 18.44
  L 39.92 29.53
  A 0.33 0.33 0.0 0 0 40.53 29.36
  L 40.49 17.89
  A 0.33 0.33 0.0 0 1 40.87 17.56
  L 44.01 17.99
  A 0.33 0.33 0.0 0 1 44.30 18.32
  L 44.10 36.42
  A 0.33 0.33 0.0 0 1 43.77 36.75
  L 40.50 36.75
  A 0.33 0.33 0.0 0 1 40.22 36.60
  L 33.39 25.84
  A 0.33 0.33 0.0 0 0 32.78 26.01
  Z"
/>
<path fill="#fee9e1" d="
  M 65.6444 28.6445
  A 8.32 8.32 0.0 0 1 57.4857 37.1227
  L 55.8660 37.1538
  A 8.32 8.32 0.0 0 1 47.3878 28.9950
  L 47.3356 26.2755
  A 8.32 8.32 0.0 0 1 55.4943 17.7973
  L 57.1140 17.7662
  A 8.32 8.32 0.0 0 1 65.5922 25.9250
  L 65.6444 28.6445
  Z
  M 61.5232 25.5387
  A 4.49 4.49 0.0 0 0 57.0410 21.0409
  L 56.0610 21.0392
  A 4.49 4.49 0.0 0 0 51.5632 25.5213
  L 51.5568 29.2013
  A 4.49 4.49 0.0 0 0 56.0390 33.6991
  L 57.0190 33.7008
  A 4.49 4.49 0.0 0 0 61.5168 29.2187
  L 61.5232 25.5387
  Z"
/>
<rect fill="#cf2a20" x="-4.98" y="-6.33" transform="translate(56.54,27.37) rotate(0.1)" width="9.96" height="12.66" rx="4.49"/>
<rect fill="#ffffff" x="-36.05" y="-6.10" transform="translate(46.44,46.07) rotate(0.1)" width="72.10" height="12.20" rx="0.27"/>
<path fill="#fdf1ed" d="
  M 51.78 69.25
  C 55.33 77.08 63.45 68.74 57.25 67.50
  C 53.36 66.73 45.51 63.56 50.03 58.19
  C 53.22 54.41 62.17 54.79 62.69 61.00
  Q 62.74 61.58 62.16 61.54
  L 59.87 61.39
  Q 59.32 61.35 59.01 60.90
  Q 56.44 57.31 52.71 60.07
  A 1.09 1.09 0.0 0 0 53.01 61.98
  C 56.53 63.16 62.95 64.19 63.32 68.90
  C 63.99 77.56 49.19 77.62 48.20 69.67
  Q 48.12 68.99 48.81 68.91
  L 50.81 68.70
  Q 51.49 68.62 51.78 69.25
  Z"
/>
<path fill="#ffffff" d="
  M 17.54 68.43
  L 17.41 74.77
  Q 17.39 75.45 16.72 75.33
  L 14.42 74.90
  Q 13.68 74.76 13.67 74.00
  L 13.53 56.82
  Q 13.52 56.28 14.06 56.24
  C 16.92 56.02 25.28 55.44 27.01 58.19
  Q 30.16 63.19 26.21 66.44
  C 24.17 68.12 20.68 67.64 18.10 67.84
  Q 17.55 67.88 17.54 68.43
  Z
  M 18.10 64.84
  C 25.48 66.21 27.12 58.55 18.13 59.33
  Q 17.49 59.39 17.49 60.03
  L 17.51 64.13
  Q 17.51 64.73 18.10 64.84
  Z"
/>
<path fill="#fdf1ed" d="
  M 39.63 56.54
  L 46.71 74.27
  A 0.66 0.66 0.0 0 1 46.05 75.17
  L 43.20 74.93
  A 0.66 0.66 0.0 0 1 42.65 74.55
  L 41.12 71.14
  A 0.66 0.66 0.0 0 0 40.51 70.75
  L 34.39 70.75
  A 0.66 0.66 0.0 0 0 33.79 71.15
  L 32.28 74.60
  A 0.66 0.66 0.0 0 1 31.68 75.00
  L 28.99 75.00
  A 0.66 0.66 0.0 0 1 28.38 74.10
  L 35.35 56.50
  A 0.66 0.66 0.0 0 1 35.97 56.09
  L 39.03 56.12
  A 0.66 0.66 0.0 0 1 39.63 56.54
  Z
  M 35.15 66.71
  A 0.66 0.66 0.0 0 0 35.78 67.58
  L 39.09 67.53
  A 0.66 0.66 0.0 0 0 39.70 66.64
  L 37.97 62.02
  A 0.66 0.66 0.0 0 0 36.73 62.03
  L 35.15 66.71
  Z"
/>
<path fill="#fdf1ed" d="
  M 70.69 63.75
  L 78.86 63.75
  Q 79.53 63.75 79.57 64.42
  L 79.67 66.01
  Q 79.72 66.75 78.98 66.75
  L 70.60 66.75
  Q 69.95 66.75 69.97 67.40
  L 70.08 71.47
  Q 70.10 72.07 70.71 72.08
  L 79.98 72.24
  A 0.85 0.85 0.0 0 1 80.81 73.14
  C 80.61 76.35 71.85 75.34 66.89 75.10
  Q 66.35 75.07 66.35 74.53
  L 66.41 56.85
  Q 66.42 56.12 67.15 56.11
  L 79.87 56.02
  Q 80.74 56.02 80.58 56.88
  L 80.22 58.81
  Q 80.13 59.25 79.69 59.25
  L 70.58 59.25
  Q 69.91 59.25 69.95 59.92
  L 70.16 63.25
  Q 70.19 63.75 70.69 63.75
  Z"
/>
<path fill="#b63737" d="
  M 18.13 59.33
  C 27.12 58.55 25.48 66.21 18.10 64.84
  Q 17.51 64.73 17.51 64.13
  L 17.49 60.03
  Q 17.49 59.39 18.13 59.33
  Z"
/>
<path fill="#b63737" d="
  M 35.15 66.71
  L 36.73 62.03
  A 0.66 0.66 0.0 0 1 37.97 62.02
  L 39.70 66.64
  A 0.66 0.66 0.0 0 1 39.09 67.53
  L 35.78 67.58
  A 0.66 0.66 0.0 0 1 35.15 66.71
  Z"
/>
</svg>
