<?xml version="1.0" encoding="UTF-8" standalone="no"?>
<!DOCTYPE svg PUBLIC "-//W3C//DTD SVG 1.1//EN" "http://www.w3.org/Graphics/SVG/1.1/DTD/svg11.dtd">
<svg xmlns="http://www.w3.org/2000/svg" version="1.1" viewBox="0 0 94 94">
<g stroke-width="2.00" fill="none" stroke-linecap="butt">
<path stroke="#e49692" vector-effect="non-scaling-stroke" d="
  M 84.49 46.97
  A 37.38 37.38 0.0 0 0 47.11 9.59
  A 37.38 37.38 0.0 0 0 9.73 46.97
  A 37.38 37.38 0.0 0 0 47.11 84.35
  A 37.38 37.38 0.0 0 0 84.49 46.97"
/>
<path stroke="#8e8d8c" vector-effect="non-scaling-stroke" d="
  M 39.90 27.57
  L 40.57 22.27
  Q 40.93 19.44 38.48 20.89
  L 17.65 33.18
  A 0.43 0.42 46.8 0 0 17.63 33.90
  L 39.46 48.47
  A 0.73 0.73 0.0 0 0 40.59 47.80
  L 39.99 40.98
  A 0.70 0.70 0.0 0 1 40.66 40.21
  Q 54.15 39.61 58.04 50.56
  C 60.00 56.09 58.90 65.14 59.05 71.54
  A 0.47 0.46 89.4 0 0 59.51 72.00
  L 70.75 72.00
  Q 71.26 72.00 71.26 71.48
  C 71.22 64.00 72.15 54.71 70.10 48.00
  Q 65.31 32.35 48.50 28.60
  C 46.04 28.05 43.04 28.37 40.29 28.07
  Q 39.84 28.02 39.90 27.57"
/>
</g>
<path fill="#c82d24" d="
  M 93.32 46.87
  A 46.31 46.31 0.0 0 1 47.01 93.18
  A 46.31 46.31 0.0 0 1 0.70 46.87
  A 46.31 46.31 0.0 0 1 47.01 0.56
  A 46.31 46.31 0.0 0 1 93.32 46.87
  Z
  M 84.49 46.97
  A 37.38 37.38 0.0 0 0 47.11 9.59
  A 37.38 37.38 0.0 0 0 9.73 46.97
  A 37.38 37.38 0.0 0 0 47.11 84.35
  A 37.38 37.38 0.0 0 0 84.49 46.97
  Z"
/>
<path fill="#ffffff" d="
  M 84.49 46.97
  A 37.38 37.38 0.0 0 1 47.11 84.35
  A 37.38 37.38 0.0 0 1 9.73 46.97
  A 37.38 37.38 0.0 0 1 47.11 9.59
  A 37.38 37.38 0.0 0 1 84.49 46.97
  Z
  M 39.90 27.57
  L 40.57 22.27
  Q 40.93 19.44 38.48 20.89
  L 17.65 33.18
  A 0.43 0.42 46.8 0 0 17.63 33.90
  L 39.46 48.47
  A 0.73 0.73 0.0 0 0 40.59 47.80
  L 39.99 40.98
  A 0.70 0.70 0.0 0 1 40.66 40.21
  Q 54.15 39.61 58.04 50.56
  C 60.00 56.09 58.90 65.14 59.05 71.54
  A 0.47 0.46 89.4 0 0 59.51 72.00
  L 70.75 72.00
  Q 71.26 72.00 71.26 71.48
  C 71.22 64.00 72.15 54.71 70.10 48.00
  Q 65.31 32.35 48.50 28.60
  C 46.04 28.05 43.04 28.37 40.29 28.07
  Q 39.84 28.02 39.90 27.57
  Z"
/>
<path fill="#1d1a19" d="
  M 40.29 28.07
  C 43.04 28.37 46.04 28.05 48.50 28.60
  Q 65.31 32.35 70.10 48.00
  C 72.15 54.71 71.22 64.00 71.26 71.48
  Q 71.26 72.00 70.75 72.00
  L 59.51 72.00
  A 0.47 0.46 89.4 0 1 59.05 71.54
  C 58.90 65.14 60.00 56.09 58.04 50.56
  Q 54.15 39.61 40.66 40.21
  A 0.70 0.70 0.0 0 0 39.99 40.98
  L 40.59 47.80
  A 0.73 0.73 0.0 0 1 39.46 48.47
  L 17.63 33.90
  A 0.43 0.42 46.8 0 1 17.65 33.18
  L 38.48 20.89
  Q 40.93 19.44 40.57 22.27
  L 39.90 27.57
  Q 39.84 28.02 40.29 28.07
  Z"
/>
</svg>
