<?xml version="1.0" encoding="UTF-8" standalone="no"?>
<!DOCTYPE svg PUBLIC "-//W3C//DTD SVG 1.1//EN" "http://www.w3.org/Graphics/SVG/1.1/DTD/svg11.dtd">
<svg xmlns="http://www.w3.org/2000/svg" version="1.1" viewBox="0 0 94 94">
<g stroke-width="2.00" fill="none" stroke-linecap="butt">
<path stroke="#75231d" vector-effect="non-scaling-stroke" d="
  M 30.75 24.79
  C 32.77 29.23 36.15 30.07 39.05 32.88
  Q 43.26 36.97 47.31 41.23
  Q 47.64 41.57 48.06 41.78
  L 49.04 42.25"
/>
<path stroke="#e59692" vector-effect="non-scaling-stroke" d="
  M 49.04 42.25
  Q 49.03 42.38 49.02 42.51
  Q 49.00 42.71 49.14 42.84
  L 54.71 48.50"
/>
<path stroke="#75231d" vector-effect="non-scaling-stroke" d="
  M 54.71 48.50
  Q 55.11 49.82 56.54 50.21"
/>
<path stroke="#e59692" vector-effect="non-scaling-stroke" d="
  M 56.54 50.21
  L 76.14 69.73
  Q 76.54 70.12 76.86 69.67
  C 94.51 44.65 79.45 11.55 48.75 9.23
  Q 35.20 8.20 23.85 16.96
  Q 23.43 17.28 23.80 17.67
  L 30.75 24.79"
/>
<path stroke="#8f8c8b" vector-effect="non-scaling-stroke" d="
  M 56.54 50.21
  L 79.11 35.26
  A 0.38 0.38 0.0 0 0 79.09 34.62
  Q 69.64 29.15 60.48 23.49
  Q 58.37 22.18 55.74 21.54
  A 0.70 0.69 -86.2 0 0 54.89 22.29
  L 55.54 28.67
  Q 55.60 29.25 55.02 29.25
  L 36.77 29.25
  Q 36.28 29.25 35.89 28.94
  L 30.75 24.79"
/>
<path stroke="#8f8c8b" vector-effect="non-scaling-stroke" d="
  M 54.71 48.50
  L 55.56 42.91
  Q 55.66 42.29 55.03 42.28
  L 49.04 42.25"
/>
<path stroke="#75231d" vector-effect="non-scaling-stroke" d="
  M 39.00 48.11
  Q 33.36 41.49 26.87 35.65"
/>
<path stroke="#e59692" vector-effect="non-scaling-stroke" d="
  M 26.87 35.65
  L 16.34 25.45
  Q 16.03 25.15 15.79 25.52
  C -6.67 60.60 32.79 100.25 68.26 77.82
  Q 68.69 77.56 68.33 77.21
  C 58.65 67.53 49.28 56.99 39.00 48.11"
/>
<path stroke="#8f8c8b" vector-effect="non-scaling-stroke" d="
  M 26.87 35.65
  L 26.78 74.79
  A 0.71 0.71 0.0 0 0 27.49 75.50
  L 38.23 75.50
  Q 38.84 75.50 38.84 74.89
  L 39.00 48.11"
/>
</g>
<path fill="#ca2d24" d="
  M 93.08 46.73
  A 46.32 46.32 0.0 0 1 46.76 93.05
  A 46.32 46.32 0.0 0 1 0.44 46.73
  A 46.32 46.32 0.0 0 1 46.76 0.41
  A 46.32 46.32 0.0 0 1 93.08 46.73
  Z
  M 30.75 24.79
  C 32.77 29.23 36.15 30.07 39.05 32.88
  Q 43.26 36.97 47.31 41.23
  Q 47.64 41.57 48.06 41.78
  L 49.04 42.25
  Q 49.03 42.38 49.02 42.51
  Q 49.00 42.71 49.14 42.84
  L 54.71 48.50
  Q 55.11 49.82 56.54 50.21
  L 76.14 69.73
  Q 76.54 70.12 76.86 69.67
  C 94.51 44.65 79.45 11.55 48.75 9.23
  Q 35.20 8.20 23.85 16.96
  Q 23.43 17.28 23.80 17.67
  L 30.75 24.79
  Z
  M 39.00 48.11
  Q 33.36 41.49 26.87 35.65
  L 16.34 25.45
  Q 16.03 25.15 15.79 25.52
  C -6.67 60.60 32.79 100.25 68.26 77.82
  Q 68.69 77.56 68.33 77.21
  C 58.65 67.53 49.28 56.99 39.00 48.11
  Z"
/>
<path fill="#ffffff" d="
  M 56.54 50.21
  L 79.11 35.26
  A 0.38 0.38 0.0 0 0 79.09 34.62
  Q 69.64 29.15 60.48 23.49
  Q 58.37 22.18 55.74 21.54
  A 0.70 0.69 -86.2 0 0 54.89 22.29
  L 55.54 28.67
  Q 55.60 29.25 55.02 29.25
  L 36.77 29.25
  Q 36.28 29.25 35.89 28.94
  L 30.75 24.79
  L 23.80 17.67
  Q 23.43 17.28 23.85 16.96
  Q 35.20 8.20 48.75 9.23
  C 79.45 11.55 94.51 44.65 76.86 69.67
  Q 76.54 70.12 76.14 69.73
  L 56.54 50.21
  Z"
/>
<path fill="#1f1916" d="
  M 56.54 50.21
  Q 55.11 49.82 54.71 48.50
  L 55.56 42.91
  Q 55.66 42.29 55.03 42.28
  L 49.04 42.25
  L 48.06 41.78
  Q 47.64 41.57 47.31 41.23
  Q 43.26 36.97 39.05 32.88
  C 36.15 30.07 32.77 29.23 30.75 24.79
  L 35.89 28.94
  Q 36.28 29.25 36.77 29.25
  L 55.02 29.25
  Q 55.60 29.25 55.54 28.67
  L 54.89 22.29
  A 0.70 0.69 -86.2 0 1 55.74 21.54
  Q 58.37 22.18 60.48 23.49
  Q 69.64 29.15 79.09 34.62
  A 0.38 0.38 0.0 0 1 79.11 35.26
  L 56.54 50.21
  Z"
/>
<path fill="#ffffff" d="
  M 26.87 35.65
  L 26.78 74.79
  A 0.71 0.71 0.0 0 0 27.49 75.50
  L 38.23 75.50
  Q 38.84 75.50 38.84 74.89
  L 39.00 48.11
  C 49.28 56.99 58.65 67.53 68.33 77.21
  Q 68.69 77.56 68.26 77.82
  C 32.79 100.25 -6.67 60.60 15.79 25.52
  Q 16.03 25.15 16.34 25.45
  L 26.87 35.65
  Z"
/>
<path fill="#1f1916" d="
  M 39.00 48.11
  L 38.84 74.89
  Q 38.84 75.50 38.23 75.50
  L 27.49 75.50
  A 0.71 0.71 0.0 0 1 26.78 74.79
  L 26.87 35.65
  Q 33.36 41.49 39.00 48.11
  Z"
/>
<path fill="#ffffff" d="
  M 49.04 42.25
  L 55.03 42.28
  Q 55.66 42.29 55.56 42.91
  L 54.71 48.50
  L 49.14 42.84
  Q 49.00 42.71 49.02 42.51
  Q 49.03 42.38 49.04 42.25
  Z"
/>
</svg>
