<?xml version="1.0" encoding="UTF-8" standalone="no"?>
<!DOCTYPE svg PUBLIC "-//W3C//DTD SVG 1.1//EN" "http://www.w3.org/Graphics/SVG/1.1/DTD/svg11.dtd">
<svg xmlns="http://www.w3.org/2000/svg" version="1.1" viewBox="0 0 94 93">
<g stroke-width="2.00" fill="none" stroke-linecap="butt">
<path stroke="#75231d" vector-effect="non-scaling-stroke" d="
  M 30.50 23.04
  L 38.42 31.27
  Q 38.72 31.58 39.13 31.43
  L 39.50 31.29"
/>
<path stroke="#e59691" vector-effect="non-scaling-stroke" d="
  M 39.50 31.29
  Q 39.50 31.43 39.50 31.57
  Q 39.50 31.81 39.67 31.97
  L 53.21 45.75"
/>
<path stroke="#75231d" vector-effect="non-scaling-stroke" d="
  M 53.21 45.75
  L 65.31 57.67"
/>
<path stroke="#e59691" vector-effect="non-scaling-stroke" d="
  M 65.31 57.67
  L 76.19 68.67
  Q 76.59 69.07 76.91 68.60
  C 93.47 44.66 79.63 13.28 50.77 9.36
  Q 36.95 7.49 24.58 16.22
  Q 24.18 16.50 24.52 16.85
  L 30.50 23.04"
/>
<path stroke="#8f8c8b" vector-effect="non-scaling-stroke" d="
  M 65.31 57.67
  Q 65.60 47.68 65.52 37.94
  C 65.46 28.99 64.13 23.67 56.93 18.82
  C 47.79 12.68 37.75 15.17 30.50 23.04"
/>
<path stroke="#8f8c8b" vector-effect="non-scaling-stroke" d="
  M 53.21 45.75
  C 53.25 41.44 54.16 33.48 51.93 30.24
  C 48.84 25.74 43.04 27.20 39.50 31.29"
/>
<path stroke="#75231d" vector-effect="non-scaling-stroke" d="
  M 65.71 74.00
  C 63.33 69.93 58.42 65.74 53.19 60.87"
/>
<path stroke="#e59691" vector-effect="non-scaling-stroke" d="
  M 53.19 60.87
  Q 46.59 53.33 39.00 46.79"
/>
<path stroke="#75231d" vector-effect="non-scaling-stroke" d="
  M 39.00 46.79
  L 38.63 46.08
  Q 38.40 45.64 38.03 45.32
  C 35.43 43.08 29.77 36.06 26.79 35.75"
/>
<path stroke="#e59691" vector-effect="non-scaling-stroke" d="
  M 26.79 35.75
  C 26.04 32.07 19.85 27.50 17.14 24.79
  A 0.84 0.84 0.0 0 0 15.84 24.92
  C -7.55 60.66 32.58 99.53 68.36 77.34
  A 0.83 0.83 0.0 0 0 68.66 76.24
  Q 67.56 74.18 65.71 74.00"
/>
<path stroke="#8f8c8b" vector-effect="non-scaling-stroke" d="
  M 26.79 35.75
  L 26.75 53.77
  Q 26.75 54.26 26.26 54.19
  L 20.91 53.41
  A 1.22 1.22 0.0 0 0 19.72 55.28
  L 32.46 74.83
  Q 33.18 75.92 33.86 74.81
  L 45.87 55.34
  A 1.25 1.24 -47.9 0 0 45.80 53.93
  C 44.90 52.76 40.68 54.24 39.35 54.48
  Q 38.82 54.57 38.83 54.04
  L 39.00 46.79"
/>
<path stroke="#8f8c8b" vector-effect="non-scaling-stroke" d="
  M 53.19 60.87
  L 53.24 74.97
  Q 53.24 75.48 53.75 75.48
  Q 59.47 75.54 64.99 75.49
  Q 66.24 75.48 65.71 74.00"
/>
</g>
<path fill="#ca2d23" d="
  M 92.84 46.52
  A 46.17 46.17 0.0 0 1 46.67 92.69
  A 46.17 46.17 0.0 0 1 0.50 46.52
  A 46.17 46.17 0.0 0 1 46.67 0.35
  A 46.17 46.17 0.0 0 1 92.84 46.52
  Z
  M 30.50 23.04
  L 38.42 31.27
  Q 38.72 31.58 39.13 31.43
  L 39.50 31.29
  Q 39.50 31.43 39.50 31.57
  Q 39.50 31.81 39.67 31.97
  L 53.21 45.75
  L 65.31 57.67
  L 76.19 68.67
  Q 76.59 69.07 76.91 68.60
  C 93.47 44.66 79.63 13.28 50.77 9.36
  Q 36.95 7.49 24.58 16.22
  Q 24.18 16.50 24.52 16.85
  L 30.50 23.04
  Z
  M 65.71 74.00
  C 63.33 69.93 58.42 65.74 53.19 60.87
  Q 46.59 53.33 39.00 46.79
  L 38.63 46.08
  Q 38.40 45.64 38.03 45.32
  C 35.43 43.08 29.77 36.06 26.79 35.75
  C 26.04 32.07 19.85 27.50 17.14 24.79
  A 0.84 0.84 0.0 0 0 15.84 24.92
  C -7.55 60.66 32.58 99.53 68.36 77.34
  A 0.83 0.83 0.0 0 0 68.66 76.24
  Q 67.56 74.18 65.71 74.00
  Z"
/>
<path fill="#ffffff" d="
  M 65.31 57.67
  Q 65.60 47.68 65.52 37.94
  C 65.46 28.99 64.13 23.67 56.93 18.82
  C 47.79 12.68 37.75 15.17 30.50 23.04
  L 24.52 16.85
  Q 24.18 16.50 24.58 16.22
  Q 36.95 7.49 50.77 9.36
  C 79.63 13.28 93.47 44.66 76.91 68.60
  Q 76.59 69.07 76.19 68.67
  L 65.31 57.67
  Z"
/>
<path fill="#1f1916" d="
  M 65.31 57.67
  L 53.21 45.75
  C 53.25 41.44 54.16 33.48 51.93 30.24
  C 48.84 25.74 43.04 27.20 39.50 31.29
  L 39.13 31.43
  Q 38.72 31.58 38.42 31.27
  L 30.50 23.04
  C 37.75 15.17 47.79 12.68 56.93 18.82
  C 64.13 23.67 65.46 28.99 65.52 37.94
  Q 65.60 47.68 65.31 57.67
  Z"
/>
<path fill="#ffffff" d="
  M 26.79 35.75
  L 26.75 53.77
  Q 26.75 54.26 26.26 54.19
  L 20.91 53.41
  A 1.22 1.22 0.0 0 0 19.72 55.28
  L 32.46 74.83
  Q 33.18 75.92 33.86 74.81
  L 45.87 55.34
  A 1.25 1.24 -47.9 0 0 45.80 53.93
  C 44.90 52.76 40.68 54.24 39.35 54.48
  Q 38.82 54.57 38.83 54.04
  L 39.00 46.79
  Q 46.59 53.33 53.19 60.87
  L 53.24 74.97
  Q 53.24 75.48 53.75 75.48
  Q 59.47 75.54 64.99 75.49
  Q 66.24 75.48 65.71 74.00
  Q 67.56 74.18 68.66 76.24
  A 0.83 0.83 0.0 0 1 68.36 77.34
  C 32.58 99.53 -7.55 60.66 15.84 24.92
  A 0.84 0.84 0.0 0 1 17.14 24.79
  C 19.85 27.50 26.04 32.07 26.79 35.75
  Z"
/>
<path fill="#ffffff" d="
  M 53.21 45.75
  L 39.67 31.97
  Q 39.50 31.81 39.50 31.57
  Q 39.50 31.43 39.50 31.29
  C 43.04 27.20 48.84 25.74 51.93 30.24
  C 54.16 33.48 53.25 41.44 53.21 45.75
  Z"
/>
<path fill="#1f1916" d="
  M 26.79 35.75
  C 29.77 36.06 35.43 43.08 38.03 45.32
  Q 38.40 45.64 38.63 46.08
  L 39.00 46.79
  L 38.83 54.04
  Q 38.82 54.57 39.35 54.48
  C 40.68 54.24 44.90 52.76 45.80 53.93
  A 1.25 1.24 -47.9 0 1 45.87 55.34
  L 33.86 74.81
  Q 33.18 75.92 32.46 74.83
  L 19.72 55.28
  A 1.22 1.22 0.0 0 1 20.91 53.41
  L 26.26 54.19
  Q 26.75 54.26 26.75 53.77
  L 26.79 35.75
  Z"
/>
<path fill="#1f1916" d="
  M 53.19 60.87
  C 58.42 65.74 63.33 69.93 65.71 74.00
  Q 66.24 75.48 64.99 75.49
  Q 59.47 75.54 53.75 75.48
  Q 53.24 75.48 53.24 74.97
  L 53.19 60.87
  Z"
/>
</svg>
