<?xml version="1.0" encoding="UTF-8" standalone="no"?>
<!DOCTYPE svg PUBLIC "-//W3C//DTD SVG 1.1//EN" "http://www.w3.org/Graphics/SVG/1.1/DTD/svg11.dtd">
<svg xmlns="http://www.w3.org/2000/svg" version="1.1" viewBox="0 0 91 91">
<g stroke-width="2.00" fill="none" stroke-linecap="butt">
<path stroke="#75231e" vector-effect="non-scaling-stroke" d="
  M 42.25 34.21
  L 48.71 41.00"
/>
<path stroke="#e59692" vector-effect="non-scaling-stroke" d="
  M 48.71 41.00
  L 49.25 41.79"
/>
<path stroke="#75231e" vector-effect="non-scaling-stroke" d="
  M 49.25 41.79
  C 49.18 42.11 56.51 48.98 57.50 49.29"
/>
<path stroke="#e59692" vector-effect="non-scaling-stroke" d="
  M 57.50 49.29
  C 57.31 50.12 72.67 65.04 74.23 66.60
  Q 75.01 67.38 75.58 66.43
  Q 86.72 47.78 78.69 30.22
  C 68.96 8.96 43.38 3.12 24.51 15.89
  Q 24.15 16.13 24.44 16.44
  Q 32.93 25.71 42.25 34.21"
/>
<path stroke="#8f8c8b" vector-effect="non-scaling-stroke" d="
  M 57.50 49.29
  C 64.33 48.65 64.01 34.75 63.56 29.98
  A 0.90 0.90 0.0 0 1 64.46 29.00
  L 68.92 29.00
  Q 69.72 29.00 69.28 28.33
  L 60.27 14.69
  A 0.80 0.79 44.0 0 0 58.93 14.71
  L 50.66 28.12
  Q 50.28 28.73 51.00 28.79
  L 54.79 29.08
  Q 55.18 29.11 55.20 29.50
  C 55.43 35.03 55.98 41.12 49.25 41.79"
/>
<path stroke="#8f8c8b" vector-effect="non-scaling-stroke" d="
  M 48.71 41.00
  L 48.50 13.80
  Q 48.49 13.32 48.01 13.34
  L 42.48 13.57
  Q 42.07 13.58 42.08 13.99
  L 42.25 34.21"
/>
<path stroke="#75231e" vector-effect="non-scaling-stroke" d="
  M 48.54 55.75
  C 48.17 53.81 40.23 46.98 38.46 45.25"
/>
<path stroke="#e59692" vector-effect="non-scaling-stroke" d="
  M 38.46 45.25
  L 17.21 24.23
  Q 16.84 23.86 16.49 24.25
  Q 13.68 27.46 12.74 30.05
  C -0.33 66.22 34.50 94.76 67.20 74.99
  A 0.49 0.48 51.9 0 0 67.29 74.23
  L 49.05 55.86
  Q 48.96 55.76 48.83 55.75
  Q 48.69 55.74 48.54 55.75"
/>
<path stroke="#8f8c8b" vector-effect="non-scaling-stroke" d="
  M 38.46 45.25
  C 33.62 46.99 28.07 49.85 26.73 54.32
  Q 24.15 62.94 25.59 73.72
  Q 25.66 74.25 26.20 74.25
  L 34.48 74.25
  Q 34.97 74.25 34.95 73.76
  C 34.60 66.89 32.46 56.94 41.50 54.61
  Q 42.00 54.49 42.00 55.00
  L 42.00 74.13
  Q 42.00 74.75 42.63 74.75
  L 47.95 74.75
  Q 48.50 74.75 48.50 74.20
  L 48.54 55.75"
/>
</g>
<path fill="#ca2d25" d="
  M 90.36 45.25
  A 44.72 44.72 0.0 0 1 45.64 89.97
  A 44.72 44.72 0.0 0 1 0.92 45.25
  A 44.72 44.72 0.0 0 1 45.64 0.53
  A 44.72 44.72 0.0 0 1 90.36 45.25
  Z
  M 42.25 34.21
  L 48.71 41.00
  L 49.25 41.79
  C 49.18 42.11 56.51 48.98 57.50 49.29
  C 57.31 50.12 72.67 65.04 74.23 66.60
  Q 75.01 67.38 75.58 66.43
  Q 86.72 47.78 78.69 30.22
  C 68.96 8.96 43.38 3.12 24.51 15.89
  Q 24.15 16.13 24.44 16.44
  Q 32.93 25.71 42.25 34.21
  Z
  M 48.54 55.75
  C 48.17 53.81 40.23 46.98 38.46 45.25
  L 17.21 24.23
  Q 16.84 23.86 16.49 24.25
  Q 13.68 27.46 12.74 30.05
  C -0.33 66.22 34.50 94.76 67.20 74.99
  A 0.49 0.48 51.9 0 0 67.29 74.23
  L 49.05 55.86
  Q 48.96 55.76 48.83 55.75
  Q 48.69 55.74 48.54 55.75
  Z"
/>
<path fill="#ffffff" d="
  M 57.50 49.29
  C 64.33 48.65 64.01 34.75 63.56 29.98
  A 0.90 0.90 0.0 0 1 64.46 29.00
  L 68.92 29.00
  Q 69.72 29.00 69.28 28.33
  L 60.27 14.69
  A 0.80 0.79 44.0 0 0 58.93 14.71
  L 50.66 28.12
  Q 50.28 28.73 51.00 28.79
  L 54.79 29.08
  Q 55.18 29.11 55.20 29.50
  C 55.43 35.03 55.98 41.12 49.25 41.79
  L 48.71 41.00
  L 48.50 13.80
  Q 48.49 13.32 48.01 13.34
  L 42.48 13.57
  Q 42.07 13.58 42.08 13.99
  L 42.25 34.21
  Q 32.93 25.71 24.44 16.44
  Q 24.15 16.13 24.51 15.89
  C 43.38 3.12 68.96 8.96 78.69 30.22
  Q 86.72 47.78 75.58 66.43
  Q 75.01 67.38 74.23 66.60
  C 72.67 65.04 57.31 50.12 57.50 49.29
  Z"
/>
<path fill="#1f1917" d="
  M 48.71 41.00
  L 42.25 34.21
  L 42.08 13.99
  Q 42.07 13.58 42.48 13.57
  L 48.01 13.34
  Q 48.49 13.32 48.50 13.80
  L 48.71 41.00
  Z"
/>
<path fill="#1f1917" d="
  M 57.50 49.29
  C 56.51 48.98 49.18 42.11 49.25 41.79
  C 55.98 41.12 55.43 35.03 55.20 29.50
  Q 55.18 29.11 54.79 29.08
  L 51.00 28.79
  Q 50.28 28.73 50.66 28.12
  L 58.93 14.71
  A 0.80 0.79 44.0 0 1 60.27 14.69
  L 69.28 28.33
  Q 69.72 29.00 68.92 29.00
  L 64.46 29.00
  A 0.90 0.90 0.0 0 0 63.56 29.98
  C 64.01 34.75 64.33 48.65 57.50 49.29
  Z"
/>
<path fill="#ffffff" d="
  M 38.46 45.25
  C 33.62 46.99 28.07 49.85 26.73 54.32
  Q 24.15 62.94 25.59 73.72
  Q 25.66 74.25 26.20 74.25
  L 34.48 74.25
  Q 34.97 74.25 34.95 73.76
  C 34.60 66.89 32.46 56.94 41.50 54.61
  Q 42.00 54.49 42.00 55.00
  L 42.00 74.13
  Q 42.00 74.75 42.63 74.75
  L 47.95 74.75
  Q 48.50 74.75 48.50 74.20
  L 48.54 55.75
  Q 48.69 55.74 48.83 55.75
  Q 48.96 55.76 49.05 55.86
  L 67.29 74.23
  A 0.49 0.48 51.9 0 1 67.20 74.99
  C 34.50 94.76 -0.33 66.22 12.74 30.05
  Q 13.68 27.46 16.49 24.25
  Q 16.84 23.86 17.21 24.23
  L 38.46 45.25
  Z"
/>
<path fill="#1f1917" d="
  M 38.46 45.25
  C 40.23 46.98 48.17 53.81 48.54 55.75
  L 48.50 74.20
  Q 48.50 74.75 47.95 74.75
  L 42.63 74.75
  Q 42.00 74.75 42.00 74.13
  L 42.00 55.00
  Q 42.00 54.49 41.50 54.61
  C 32.46 56.94 34.60 66.89 34.95 73.76
  Q 34.97 74.25 34.48 74.25
  L 26.20 74.25
  Q 25.66 74.25 25.59 73.72
  Q 24.15 62.94 26.73 54.32
  C 28.07 49.85 33.62 46.99 38.46 45.25
  Z"
/>
</svg>
