<?xml version="1.0" encoding="UTF-8" standalone="no"?>
<!DOCTYPE svg PUBLIC "-//W3C//DTD SVG 1.1//EN" "http://www.w3.org/Graphics/SVG/1.1/DTD/svg11.dtd">
<svg xmlns="http://www.w3.org/2000/svg" version="1.1" viewBox="0 0 91 91">
<g stroke-width="2.00" fill="none" stroke-linecap="butt">
<path stroke="#e39792" vector-effect="non-scaling-stroke" d="
  M 81.47 45.28
  A 36.17 36.17 0.0 0 0 45.30 9.11
  A 36.17 36.17 0.0 0 0 9.13 45.28
  A 36.17 36.17 0.0 0 0 45.30 81.45
  A 36.17 36.17 0.0 0 0 81.47 45.28"
/>
<path stroke="#8e8c8b" vector-effect="non-scaling-stroke" d="
  M 52.50 56.48
  A 0.35 0.35 0.0 0 1 53.06 56.20
  Q 58.01 59.93 62.91 56.24
  A 0.33 0.32 -20.9 0 1 63.43 56.47
  L 63.80 60.63
  Q 63.86 61.40 64.63 61.41
  L 69.52 61.50
  Q 70.24 61.52 70.33 60.80
  L 70.87 56.12
  Q 70.93 55.63 71.35 55.39
  Q 74.92 53.33 72.43 49.54
  Q 72.25 49.27 72.25 48.95
  L 72.25 23.91
  Q 72.25 23.25 71.59 23.25
  L 44.25 23.25
  Q 43.68 23.25 43.69 23.82
  Q 44.06 38.64 43.13 53.45
  Q 43.03 55.10 45.14 55.28
  Q 45.72 55.32 45.73 55.91
  L 45.79 60.60
  Q 45.80 61.33 46.54 61.33
  L 51.72 61.31
  Q 52.50 61.31 52.50 60.53
  L 52.50 56.48"
/>
<path stroke="#8e8c8b" vector-effect="non-scaling-stroke" d="
  M 18.11 60.63
  L 18.84 58.59
  Q 18.99 58.17 19.44 58.16
  L 32.91 58.15
  Q 33.53 58.15 33.53 58.76
  Q 33.57 62.15 37.10 61.13
  Q 37.56 61.00 37.67 60.54
  Q 39.94 51.16 33.74 43.89
  Q 33.35 43.44 32.77 43.33
  Q 26.17 42.11 19.53 43.25
  Q 19.08 43.33 18.78 43.67
  Q 12.86 50.22 14.15 58.95
  C 14.40 60.66 15.28 61.76 17.13 61.45
  A 1.29 1.27 4.7 0 0 18.11 60.63"
/>
<path stroke="#8e8c8b" vector-effect="non-scaling-stroke" d="
  M 19.19 45.19
  Q 17.28 48.38 16.29 50.02
  Q 15.87 50.72 16.68 50.65
  Q 26.15 49.85 35.60 50.61
  Q 36.45 50.68 36.01 49.95
  L 32.89 44.85
  Q 32.60 44.36 32.04 44.29
  C 29.85 44.01 20.34 43.27 19.19 45.19"
/>
<path stroke="#8e8c8b" vector-effect="non-scaling-stroke" d="
  M 18.8197 54.6230
  A 2.10 1.59 0.9 0 0 16.7450 53.0002
  A 2.10 1.59 0.9 0 0 14.6203 54.5570
  A 2.10 1.59 0.9 0 0 16.6950 56.1798
  A 2.10 1.59 0.9 0 0 18.8197 54.6230"
/>
<path stroke="#8e8c8b" vector-effect="non-scaling-stroke" d="
  M 37.4160 54.0778
  A 0.83 0.83 0.0 0 0 36.6230 53.2124
  L 34.2852 53.1104
  A 0.83 0.83 0.0 0 0 33.4198 53.9034
  L 33.3640 55.1822
  A 0.83 0.83 0.0 0 0 34.1570 56.0476
  L 36.4948 56.1496
  A 0.83 0.83 0.0 0 0 37.3602 55.3566
  L 37.4160 54.0778"
/>
<path stroke="#72241e" vector-effect="non-scaling-stroke" d="
  M 29.00 55.54
  Q 30.50 56.23 32.04 55.93
  Q 32.98 55.75 32.08 55.43
  Q 30.76 54.96 29.29 55.25"
/>
<path stroke="#8e8c8b" vector-effect="non-scaling-stroke" d="
  M 29.29 55.25
  Q 27.47 52.14 23.51 54.00
  A 0.88 0.88 0.0 0 0 23.90 55.68
  L 29.00 55.54"
/>
<path stroke="#e39792" vector-effect="non-scaling-stroke" d="
  M 29.29 55.25
  L 29.00 55.54"
/>
</g>
<path fill="#c72e25" d="
  M 89.79 45.36
  A 44.60 44.60 0.0 0 1 45.19 89.96
  A 44.60 44.60 0.0 0 1 0.59 45.36
  A 44.60 44.60 0.0 0 1 45.19 0.76
  A 44.60 44.60 0.0 0 1 89.79 45.36
  Z
  M 81.47 45.28
  A 36.17 36.17 0.0 0 0 45.30 9.11
  A 36.17 36.17 0.0 0 0 9.13 45.28
  A 36.17 36.17 0.0 0 0 45.30 81.45
  A 36.17 36.17 0.0 0 0 81.47 45.28
  Z"
/>
<path fill="#ffffff" d="
  M 81.47 45.28
  A 36.17 36.17 0.0 0 1 45.30 81.45
  A 36.17 36.17 0.0 0 1 9.13 45.28
  A 36.17 36.17 0.0 0 1 45.30 9.11
  A 36.17 36.17 0.0 0 1 81.47 45.28
  Z
  M 52.50 56.48
  A 0.35 0.35 0.0 0 1 53.06 56.20
  Q 58.01 59.93 62.91 56.24
  A 0.33 0.32 -20.9 0 1 63.43 56.47
  L 63.80 60.63
  Q 63.86 61.40 64.63 61.41
  L 69.52 61.50
  Q 70.24 61.52 70.33 60.80
  L 70.87 56.12
  Q 70.93 55.63 71.35 55.39
  Q 74.92 53.33 72.43 49.54
  Q 72.25 49.27 72.25 48.95
  L 72.25 23.91
  Q 72.25 23.25 71.59 23.25
  L 44.25 23.25
  Q 43.68 23.25 43.69 23.82
  Q 44.06 38.64 43.13 53.45
  Q 43.03 55.10 45.14 55.28
  Q 45.72 55.32 45.73 55.91
  L 45.79 60.60
  Q 45.80 61.33 46.54 61.33
  L 51.72 61.31
  Q 52.50 61.31 52.50 60.53
  L 52.50 56.48
  Z
  M 18.11 60.63
  L 18.84 58.59
  Q 18.99 58.17 19.44 58.16
  L 32.91 58.15
  Q 33.53 58.15 33.53 58.76
  Q 33.57 62.15 37.10 61.13
  Q 37.56 61.00 37.67 60.54
  Q 39.94 51.16 33.74 43.89
  Q 33.35 43.44 32.77 43.33
  Q 26.17 42.11 19.53 43.25
  Q 19.08 43.33 18.78 43.67
  Q 12.86 50.22 14.15 58.95
  C 14.40 60.66 15.28 61.76 17.13 61.45
  A 1.29 1.27 4.7 0 0 18.11 60.63
  Z"
/>
<path fill="#1d1916" d="
  M 52.50 56.48
  L 52.50 60.53
  Q 52.50 61.31 51.72 61.31
  L 46.54 61.33
  Q 45.80 61.33 45.79 60.60
  L 45.73 55.91
  Q 45.72 55.32 45.14 55.28
  Q 43.03 55.10 43.13 53.45
  Q 44.06 38.64 43.69 23.82
  Q 43.68 23.25 44.25 23.25
  L 71.59 23.25
  Q 72.25 23.25 72.25 23.91
  L 72.25 48.95
  Q 72.25 49.27 72.43 49.54
  Q 74.92 53.33 71.35 55.39
  Q 70.93 55.63 70.87 56.12
  L 70.33 60.80
  Q 70.24 61.52 69.52 61.50
  L 64.63 61.41
  Q 63.86 61.40 63.80 60.63
  L 63.43 56.47
  A 0.33 0.32 -20.9 0 0 62.91 56.24
  Q 58.01 59.93 53.06 56.20
  A 0.35 0.35 0.0 0 0 52.50 56.48
  Z"
/>
<path fill="#1d1916" d="
  M 18.11 60.63
  A 1.29 1.27 4.7 0 1 17.13 61.45
  C 15.28 61.76 14.40 60.66 14.15 58.95
  Q 12.86 50.22 18.78 43.67
  Q 19.08 43.33 19.53 43.25
  Q 26.17 42.11 32.77 43.33
  Q 33.35 43.44 33.74 43.89
  Q 39.94 51.16 37.67 60.54
  Q 37.56 61.00 37.10 61.13
  Q 33.57 62.15 33.53 58.76
  Q 33.53 58.15 32.91 58.15
  L 19.44 58.16
  Q 18.99 58.17 18.84 58.59
  L 18.11 60.63
  Z
  M 19.19 45.19
  Q 17.28 48.38 16.29 50.02
  Q 15.87 50.72 16.68 50.65
  Q 26.15 49.85 35.60 50.61
  Q 36.45 50.68 36.01 49.95
  L 32.89 44.85
  Q 32.60 44.36 32.04 44.29
  C 29.85 44.01 20.34 43.27 19.19 45.19
  Z
  M 18.8197 54.6230
  A 2.10 1.59 0.9 0 0 16.7450 53.0002
  A 2.10 1.59 0.9 0 0 14.6203 54.5570
  A 2.10 1.59 0.9 0 0 16.6950 56.1798
  A 2.10 1.59 0.9 0 0 18.8197 54.6230
  Z
  M 37.4160 54.0778
  A 0.83 0.83 0.0 0 0 36.6230 53.2124
  L 34.2852 53.1104
  A 0.83 0.83 0.0 0 0 33.4198 53.9034
  L 33.3640 55.1822
  A 0.83 0.83 0.0 0 0 34.1570 56.0476
  L 36.4948 56.1496
  A 0.83 0.83 0.0 0 0 37.3602 55.3566
  L 37.4160 54.0778
  Z
  M 29.00 55.54
  Q 30.50 56.23 32.04 55.93
  Q 32.98 55.75 32.08 55.43
  Q 30.76 54.96 29.29 55.25
  Q 27.47 52.14 23.51 54.00
  A 0.88 0.88 0.0 0 0 23.90 55.68
  L 29.00 55.54
  Z"
/>
<path fill="#ffffff" d="
  M 19.19 45.19
  C 20.34 43.27 29.85 44.01 32.04 44.29
  Q 32.60 44.36 32.89 44.85
  L 36.01 49.95
  Q 36.45 50.68 35.60 50.61
  Q 26.15 49.85 16.68 50.65
  Q 15.87 50.72 16.29 50.02
  Q 17.28 48.38 19.19 45.19
  Z"
/>
<ellipse fill="#ffffff" cx="0.00" cy="0.00" transform="translate(16.72,54.59) rotate(0.9)" rx="2.10" ry="1.59"/>
<rect fill="#ffffff" x="-2.00" y="-1.47" transform="translate(35.39,54.63) rotate(2.5)" width="4.00" height="2.94" rx="0.83"/>
<path fill="#ffffff" d="
  M 29.29 55.25
  L 29.00 55.54
  L 23.90 55.68
  A 0.88 0.88 0.0 0 1 23.51 54.00
  Q 27.47 52.14 29.29 55.25
  Z"
/>
<path fill="#c72e25" d="
  M 29.29 55.25
  Q 30.76 54.96 32.08 55.43
  Q 32.98 55.75 32.04 55.93
  Q 30.50 56.23 29.00 55.54
  L 29.29 55.25
  Z"
/>
</svg>
