<?xml version="1.0" encoding="UTF-8" standalone="no"?>
<!DOCTYPE svg PUBLIC "-//W3C//DTD SVG 1.1//EN" "http://www.w3.org/Graphics/SVG/1.1/DTD/svg11.dtd">
<svg xmlns="http://www.w3.org/2000/svg" version="1.1" viewBox="0 0 91 92">
<g stroke-width="2.00" fill="none" stroke-linecap="butt">
<path stroke="#75231d" vector-effect="non-scaling-stroke" d="
  M 50.07 42.87
  Q 55.81 49.32 62.25 55.04"
/>
<path stroke="#e59692" vector-effect="non-scaling-stroke" d="
  M 62.25 55.04
  L 74.55 67.39
  Q 74.94 67.78 75.27 67.34
  C 87.05 52.11 83.81 29.59 69.06 17.65
  C 56.54 7.51 37.34 6.20 24.31 16.41
  Q 23.89 16.73 24.26 17.11
  L 50.07 42.87"
/>
<path stroke="#8f8c8a" vector-effect="non-scaling-stroke" d="
  M 62.25 55.04
  L 72.51 54.67
  Q 73.04 54.65 73.14 55.17
  L 73.53 57.35
  Q 73.64 57.95 74.15 58.28
  Q 76.24 59.61 78.52 58.64
  Q 78.94 58.46 79.09 58.03
  Q 80.86 52.93 80.53 49.99
  C 80.17 46.83 76.24 35.33 71.50 34.75
  C 70.10 34.58 57.32 33.68 55.16 35.37
  Q 51.55 38.21 50.07 42.87"
/>
<path stroke="#c06b6f" vector-effect="non-scaling-stroke" d="
  M 13.21 28.75
  Q 11.65 30.74 11.29 33.25"
/>
<path stroke="#e59692" vector-effect="non-scaling-stroke" d="
  M 11.29 33.25
  Q 6.14 50.77 14.40 64.51
  C 25.39 82.76 49.60 88.20 67.12 75.55
  Q 67.56 75.24 67.18 74.86
  L 52.35 59.85
  Q 52.01 59.50 51.53 59.44
  C 49.95 59.22 49.33 58.73 48.61 57.22
  Q 47.16 54.14 44.31 52.10
  Q 44.17 52.00 44.03 52.10
  L 43.79 52.25"
/>
<path stroke="#75231d" vector-effect="non-scaling-stroke" d="
  M 43.79 52.25
  Q 43.73 49.75 41.51 49.98"
/>
<path stroke="#c06b6f" vector-effect="non-scaling-stroke" d="
  M 41.51 49.98
  Q 39.95 49.07 38.25 48.96"
/>
<path stroke="#75231d" vector-effect="non-scaling-stroke" d="
  M 38.25 48.96
  Q 38.50 47.96 39.52 48.28
  Q 39.76 48.36 39.95 48.18
  L 40.19 47.93
  Q 40.56 47.57 40.16 47.25
  L 36.46 44.25"
/>
<path stroke="#e59692" vector-effect="non-scaling-stroke" d="
  M 36.46 44.25
  L 29.46 37.25"
/>
<path stroke="#75231d" vector-effect="non-scaling-stroke" d="
  M 29.46 37.25
  Q 28.73 35.15 26.65 34.36"
/>
<path stroke="#e59692" vector-effect="non-scaling-stroke" d="
  M 26.65 34.36
  L 16.85 24.44
  Q 16.52 24.11 16.25 24.48
  L 13.21 28.75"
/>
<path stroke="#8f8c8a" vector-effect="non-scaling-stroke" d="
  M 26.65 34.36
  C 23.25 34.24 19.35 34.13 16.98 36.97
  Q 10.04 45.26 11.92 56.46
  C 12.55 60.27 18.41 60.09 18.50 55.56
  A 0.61 0.60 0.5 0 1 19.11 54.97
  L 36.00 54.91
  Q 36.52 54.91 36.56 55.43
  Q 36.88 59.54 41.20 58.91
  C 44.40 58.44 43.29 54.55 43.79 52.25"
/>
<path stroke="#dad4dd" vector-effect="non-scaling-stroke" d="
  M 11.29 33.25
  Q 12.92 31.35 13.21 28.75"
/>
<path stroke="#8f8c8a" vector-effect="non-scaling-stroke" d="
  M 29.46 37.25
  C 21.67 36.36 18.88 36.27 16.07 43.65
  Q 15.85 44.22 16.46 44.19
  Q 26.51 43.69 36.46 44.25"
/>
<path stroke="#6a6168" vector-effect="non-scaling-stroke" d="
  M 38.25 48.96
  C 36.12 50.69 40.23 53.05 41.51 49.98"
/>
<path stroke="#6a6168" vector-effect="non-scaling-stroke" d="
  M 16.54 51.09
  A 1.02 1.02 0.0 0 0 17.06 49.26
  C 15.31 47.94 13.72 48.24 13.73 50.67
  Q 13.74 51.36 14.43 51.30
  L 16.54 51.09"
/>
<path stroke="#8f8c8a" vector-effect="non-scaling-stroke" d="
  M 30.6707 50.1354
  A 0.84 0.84 0.0 0 0 29.8440 49.2823
  L 25.7445 49.2179
  A 0.84 0.84 0.0 0 0 24.8915 50.0446
  L 24.8893 50.1846
  A 0.84 0.84 0.0 0 0 25.7160 51.0377
  L 29.8155 51.1021
  A 0.84 0.84 0.0 0 0 30.6685 50.2754
  L 30.6707 50.1354"
/>
<path stroke="#8f8c8a" vector-effect="non-scaling-stroke" d="
  M 71.20 37.09
  Q 64.27 36.81 57.57 37.26
  C 55.15 37.43 53.54 41.80 52.68 43.66
  A 0.28 0.27 12.4 0 0 52.93 44.05
  L 75.34 44.04
  A 0.44 0.44 0.0 0 0 75.72 43.38
  L 72.60 37.94
  A 1.70 1.66 75.7 0 0 71.20 37.09"
/>
<path stroke="#6a6168" vector-effect="non-scaling-stroke" d="
  M 77.6912 49.3727
  A 0.93 0.93 0.0 0 0 76.6941 48.5150
  L 75.1385 48.6320
  A 0.93 0.93 0.0 0 0 74.2808 49.6291
  L 74.3288 50.2673
  A 0.93 0.93 0.0 0 0 75.3259 51.1250
  L 76.8815 51.0080
  A 0.93 0.93 0.0 0 0 77.7392 50.0109
  L 77.6912 49.3727"
/>
<path stroke="#8f8c8a" vector-effect="non-scaling-stroke" d="
  M 67.2589 50.2525
  A 3.15 1.09 1.5 0 0 64.1385 49.0804
  A 3.15 1.09 1.5 0 0 60.9611 50.0875
  A 3.15 1.09 1.5 0 0 64.0815 51.2596
  A 3.15 1.09 1.5 0 0 67.2589 50.2525"
/>
</g>
<path fill="#ca2d24" d="
  M 91.00 44.06
  L 91.00 48.81
  Q 88.38 70.58 72.12 82.41
  C 48.21 99.80 13.89 89.29 3.66 62.14
  C -9.91 26.15 25.00 -9.69 61.17 3.80
  C 78.72 10.35 89.44 25.19 91.00 44.06
  Z
  M 50.07 42.87
  Q 55.81 49.32 62.25 55.04
  L 74.55 67.39
  Q 74.94 67.78 75.27 67.34
  C 87.05 52.11 83.81 29.59 69.06 17.65
  C 56.54 7.51 37.34 6.20 24.31 16.41
  Q 23.89 16.73 24.26 17.11
  L 50.07 42.87
  Z
  M 13.21 28.75
  Q 11.65 30.74 11.29 33.25
  Q 6.14 50.77 14.40 64.51
  C 25.39 82.76 49.60 88.20 67.12 75.55
  Q 67.56 75.24 67.18 74.86
  L 52.35 59.85
  Q 52.01 59.50 51.53 59.44
  C 49.95 59.22 49.33 58.73 48.61 57.22
  Q 47.16 54.14 44.31 52.10
  Q 44.17 52.00 44.03 52.10
  L 43.79 52.25
  Q 43.73 49.75 41.51 49.98
  Q 39.95 49.07 38.25 48.96
  Q 38.50 47.96 39.52 48.28
  Q 39.76 48.36 39.95 48.18
  L 40.19 47.93
  Q 40.56 47.57 40.16 47.25
  L 36.46 44.25
  L 29.46 37.25
  Q 28.73 35.15 26.65 34.36
  L 16.85 24.44
  Q 16.52 24.11 16.25 24.48
  L 13.21 28.75
  Z"
/>
<path fill="#ffffff" d="
  M 62.25 55.04
  L 72.51 54.67
  Q 73.04 54.65 73.14 55.17
  L 73.53 57.35
  Q 73.64 57.95 74.15 58.28
  Q 76.24 59.61 78.52 58.64
  Q 78.94 58.46 79.09 58.03
  Q 80.86 52.93 80.53 49.99
  C 80.17 46.83 76.24 35.33 71.50 34.75
  C 70.10 34.58 57.32 33.68 55.16 35.37
  Q 51.55 38.21 50.07 42.87
  L 24.26 17.11
  Q 23.89 16.73 24.31 16.41
  C 37.34 6.20 56.54 7.51 69.06 17.65
  C 83.81 29.59 87.05 52.11 75.27 67.34
  Q 74.94 67.78 74.55 67.39
  L 62.25 55.04
  Z"
/>
<path fill="#ffffff" d="
  M 26.65 34.36
  C 23.25 34.24 19.35 34.13 16.98 36.97
  Q 10.04 45.26 11.92 56.46
  C 12.55 60.27 18.41 60.09 18.50 55.56
  A 0.61 0.60 0.5 0 1 19.11 54.97
  L 36.00 54.91
  Q 36.52 54.91 36.56 55.43
  Q 36.88 59.54 41.20 58.91
  C 44.40 58.44 43.29 54.55 43.79 52.25
  L 44.03 52.10
  Q 44.17 52.00 44.31 52.10
  Q 47.16 54.14 48.61 57.22
  C 49.33 58.73 49.95 59.22 51.53 59.44
  Q 52.01 59.50 52.35 59.85
  L 67.18 74.86
  Q 67.56 75.24 67.12 75.55
  C 49.60 88.20 25.39 82.76 14.40 64.51
  Q 6.14 50.77 11.29 33.25
  Q 12.92 31.35 13.21 28.75
  L 16.25 24.48
  Q 16.52 24.11 16.85 24.44
  L 26.65 34.36
  Z"
/>
<path fill="#b5a8ba" d="
  M 13.21 28.75
  Q 12.92 31.35 11.29 33.25
  Q 11.65 30.74 13.21 28.75
  Z"
/>
<path fill="#1f1915" d="
  M 26.65 34.36
  Q 28.73 35.15 29.46 37.25
  C 21.67 36.36 18.88 36.27 16.07 43.65
  Q 15.85 44.22 16.46 44.19
  Q 26.51 43.69 36.46 44.25
  L 40.16 47.25
  Q 40.56 47.57 40.19 47.93
  L 39.95 48.18
  Q 39.76 48.36 39.52 48.28
  Q 38.50 47.96 38.25 48.96
  C 36.12 50.69 40.23 53.05 41.51 49.98
  Q 43.73 49.75 43.79 52.25
  C 43.29 54.55 44.40 58.44 41.20 58.91
  Q 36.88 59.54 36.56 55.43
  Q 36.52 54.91 36.00 54.91
  L 19.11 54.97
  A 0.61 0.60 0.5 0 0 18.50 55.56
  C 18.41 60.09 12.55 60.27 11.92 56.46
  Q 10.04 45.26 16.98 36.97
  C 19.35 34.13 23.25 34.24 26.65 34.36
  Z
  M 16.54 51.09
  A 1.02 1.02 0.0 0 0 17.06 49.26
  C 15.31 47.94 13.72 48.24 13.73 50.67
  Q 13.74 51.36 14.43 51.30
  L 16.54 51.09
  Z
  M 30.6707 50.1354
  A 0.84 0.84 0.0 0 0 29.8440 49.2823
  L 25.7445 49.2179
  A 0.84 0.84 0.0 0 0 24.8915 50.0446
  L 24.8893 50.1846
  A 0.84 0.84 0.0 0 0 25.7160 51.0377
  L 29.8155 51.1021
  A 0.84 0.84 0.0 0 0 30.6685 50.2754
  L 30.6707 50.1354
  Z"
/>
<path fill="#1f1915" d="
  M 62.25 55.04
  Q 55.81 49.32 50.07 42.87
  Q 51.55 38.21 55.16 35.37
  C 57.32 33.68 70.10 34.58 71.50 34.75
  C 76.24 35.33 80.17 46.83 80.53 49.99
  Q 80.86 52.93 79.09 58.03
  Q 78.94 58.46 78.52 58.64
  Q 76.24 59.61 74.15 58.28
  Q 73.64 57.95 73.53 57.35
  L 73.14 55.17
  Q 73.04 54.65 72.51 54.67
  L 62.25 55.04
  Z
  M 71.20 37.09
  Q 64.27 36.81 57.57 37.26
  C 55.15 37.43 53.54 41.80 52.68 43.66
  A 0.28 0.27 12.4 0 0 52.93 44.05
  L 75.34 44.04
  A 0.44 0.44 0.0 0 0 75.72 43.38
  L 72.60 37.94
  A 1.70 1.66 75.7 0 0 71.20 37.09
  Z
  M 77.6912 49.3727
  A 0.93 0.93 0.0 0 0 76.6941 48.5150
  L 75.1385 48.6320
  A 0.93 0.93 0.0 0 0 74.2808 49.6291
  L 74.3288 50.2673
  A 0.93 0.93 0.0 0 0 75.3259 51.1250
  L 76.8815 51.0080
  A 0.93 0.93 0.0 0 0 77.7392 50.0109
  L 77.6912 49.3727
  Z
  M 67.2589 50.2525
  A 3.15 1.09 1.5 0 0 64.1385 49.0804
  A 3.15 1.09 1.5 0 0 60.9611 50.0875
  A 3.15 1.09 1.5 0 0 64.0815 51.2596
  A 3.15 1.09 1.5 0 0 67.2589 50.2525
  Z"
/>
<path fill="#ffffff" d="
  M 29.46 37.25
  L 36.46 44.25
  Q 26.51 43.69 16.46 44.19
  Q 15.85 44.22 16.07 43.65
  C 18.88 36.27 21.67 36.36 29.46 37.25
  Z"
/>
<path fill="#ffffff" d="
  M 71.20 37.09
  A 1.70 1.66 75.7 0 1 72.60 37.94
  L 75.72 43.38
  A 0.44 0.44 0.0 0 1 75.34 44.04
  L 52.93 44.05
  A 0.28 0.27 12.4 0 1 52.68 43.66
  C 53.54 41.80 55.15 37.43 57.57 37.26
  Q 64.27 36.81 71.20 37.09
  Z"
/>
<path fill="#b5a8ba" d="
  M 16.54 51.09
  L 14.43 51.30
  Q 13.74 51.36 13.73 50.67
  C 13.72 48.24 15.31 47.94 17.06 49.26
  A 1.02 1.02 0.0 0 1 16.54 51.09
  Z"
/>
<rect fill="#b5a8ba" x="-1.71" y="-1.25" transform="translate(76.01,49.82) rotate(-4.3)" width="3.42" height="2.50" rx="0.93"/>
<path fill="#b5a8ba" d="
  M 38.25 48.96
  Q 39.95 49.07 41.51 49.98
  C 40.23 53.05 36.12 50.69 38.25 48.96
  Z"
/>
<rect fill="#ffffff" x="-2.89" y="-0.91" transform="translate(27.78,50.16) rotate(0.9)" width="5.78" height="1.82" rx="0.84"/>
<ellipse fill="#ffffff" cx="0.00" cy="0.00" transform="translate(64.11,50.17) rotate(1.5)" rx="3.15" ry="1.09"/>
</svg>
