<?xml version="1.0" encoding="UTF-8" standalone="no"?>
<!DOCTYPE svg PUBLIC "-//W3C//DTD SVG 1.1//EN" "http://www.w3.org/Graphics/SVG/1.1/DTD/svg11.dtd">
<svg xmlns="http://www.w3.org/2000/svg" version="1.1" viewBox="0 0 92 91">
<g stroke-width="2.00" fill="none" stroke-linecap="butt">
<path stroke="#75231d" vector-effect="non-scaling-stroke" d="
  M 30.29 22.18
  L 39.95 32.15
  Q 40.17 32.37 40.49 32.32
  L 40.96 32.25"
/>
<path stroke="#e59692" vector-effect="non-scaling-stroke" d="
  M 40.96 32.25
  C 41.17 34.44 50.01 41.83 50.25 42.04"
/>
<path stroke="#75231d" vector-effect="non-scaling-stroke" d="
  M 50.25 42.04
  L 50.24 42.49
  Q 50.24 42.94 50.57 43.26
  L 58.50 50.80"
/>
<path stroke="#e59692" vector-effect="non-scaling-stroke" d="
  M 58.50 50.80
  L 74.42 66.46
  Q 74.75 66.78 75.02 66.40
  C 99.48 32.38 58.47 -7.75 24.34 15.25
  Q 23.89 15.55 24.22 15.98
  Q 26.88 19.50 30.29 22.18"
/>
<path stroke="#8f8c8b" vector-effect="non-scaling-stroke" d="
  M 58.50 50.80
  Q 68.32 47.11 69.09 36.76
  C 69.79 27.35 66.74 18.29 56.00 17.48
  Q 48.96 16.95 30.89 17.36
  Q 30.34 17.37 30.33 17.92
  L 30.29 22.18"
/>
<path stroke="#8f8c8b" vector-effect="non-scaling-stroke" d="
  M 50.25 42.04
  C 57.85 41.93 62.16 33.62 56.25 28.62
  C 52.86 25.75 45.58 26.32 41.30 26.62
  Q 40.76 26.66 40.78 27.21
  L 40.96 32.25"
/>
<path stroke="#75231d" vector-effect="non-scaling-stroke" d="
  M 44.21 51.75
  Q 44.28 51.59 44.30 51.41
  Q 44.34 50.96 44.02 50.64
  L 31.36 37.83
  Q 31.04 37.50 30.57 37.50
  L 30.29 37.50"
/>
<path stroke="#e59692" vector-effect="non-scaling-stroke" d="
  M 30.29 37.50
  C 29.58 34.93 19.67 26.33 17.16 23.78
  A 0.89 0.89 0.0 0 0 15.77 23.94
  Q 3.47 44.05 14.37 63.19
  C 25.13 82.08 49.55 86.42 67.07 74.48
  Q 67.52 74.18 67.14 73.80
  L 45.83 52.44
  Q 45.47 52.08 44.97 52.03
  Q 44.49 51.97 44.21 51.75"
/>
<path stroke="#8f8c8b" vector-effect="non-scaling-stroke" d="
  M 30.29 37.50
  L 30.46 71.93
  Q 30.46 72.50 31.03 72.50
  L 40.25 72.50
  Q 40.75 72.50 40.75 72.00
  L 40.75 52.25
  Q 40.75 51.77 41.24 51.77
  L 44.21 51.75"
/>
</g>
<path fill="#ca2d24" d="
  M 44.31 0.00
  L 47.31 0.00
  Q 69.17 1.85 81.96 18.52
  C 88.31 26.79 90.40 36.26 90.15 46.86
  C 89.46 76.36 59.80 97.01 32.03 87.84
  C 16.05 82.56 4.38 69.08 1.47 52.50
  C -2.50 29.80 11.32 8.82 33.00 2.00
  Q 35.85 1.11 44.31 0.00
  Z
  M 30.29 22.18
  L 39.95 32.15
  Q 40.17 32.37 40.49 32.32
  L 40.96 32.25
  C 41.17 34.44 50.01 41.83 50.25 42.04
  L 50.24 42.49
  Q 50.24 42.94 50.57 43.26
  L 58.50 50.80
  L 74.42 66.46
  Q 74.75 66.78 75.02 66.40
  C 99.48 32.38 58.47 -7.75 24.34 15.25
  Q 23.89 15.55 24.22 15.98
  Q 26.88 19.50 30.29 22.18
  Z
  M 44.21 51.75
  Q 44.28 51.59 44.30 51.41
  Q 44.34 50.96 44.02 50.64
  L 31.36 37.83
  Q 31.04 37.50 30.57 37.50
  L 30.29 37.50
  C 29.58 34.93 19.67 26.33 17.16 23.78
  A 0.89 0.89 0.0 0 0 15.77 23.94
  Q 3.47 44.05 14.37 63.19
  C 25.13 82.08 49.55 86.42 67.07 74.48
  Q 67.52 74.18 67.14 73.80
  L 45.83 52.44
  Q 45.47 52.08 44.97 52.03
  Q 44.49 51.97 44.21 51.75
  Z"
/>
<path fill="#ffffff" d="
  M 58.50 50.80
  Q 68.32 47.11 69.09 36.76
  C 69.79 27.35 66.74 18.29 56.00 17.48
  Q 48.96 16.95 30.89 17.36
  Q 30.34 17.37 30.33 17.92
  L 30.29 22.18
  Q 26.88 19.50 24.22 15.98
  Q 23.89 15.55 24.34 15.25
  C 58.47 -7.75 99.48 32.38 75.02 66.40
  Q 74.75 66.78 74.42 66.46
  L 58.50 50.80
  Z"
/>
<path fill="#1f1916" d="
  M 58.50 50.80
  L 50.57 43.26
  Q 50.24 42.94 50.24 42.49
  L 50.25 42.04
  C 57.85 41.93 62.16 33.62 56.25 28.62
  C 52.86 25.75 45.58 26.32 41.30 26.62
  Q 40.76 26.66 40.78 27.21
  L 40.96 32.25
  L 40.49 32.32
  Q 40.17 32.37 39.95 32.15
  L 30.29 22.18
  L 30.33 17.92
  Q 30.34 17.37 30.89 17.36
  Q 48.96 16.95 56.00 17.48
  C 66.74 18.29 69.79 27.35 69.09 36.76
  Q 68.32 47.11 58.50 50.80
  Z"
/>
<path fill="#ffffff" d="
  M 30.29 37.50
  L 30.46 71.93
  Q 30.46 72.50 31.03 72.50
  L 40.25 72.50
  Q 40.75 72.50 40.75 72.00
  L 40.75 52.25
  Q 40.75 51.77 41.24 51.77
  L 44.21 51.75
  Q 44.49 51.97 44.97 52.03
  Q 45.47 52.08 45.83 52.44
  L 67.14 73.80
  Q 67.52 74.18 67.07 74.48
  C 49.55 86.42 25.13 82.08 14.37 63.19
  Q 3.47 44.05 15.77 23.94
  A 0.89 0.89 0.0 0 1 17.16 23.78
  C 19.67 26.33 29.58 34.93 30.29 37.50
  Z"
/>
<path fill="#ffffff" d="
  M 50.25 42.04
  C 50.01 41.83 41.17 34.44 40.96 32.25
  L 40.78 27.21
  Q 40.76 26.66 41.30 26.62
  C 45.58 26.32 52.86 25.75 56.25 28.62
  C 62.16 33.62 57.85 41.93 50.25 42.04
  Z"
/>
<path fill="#1f1916" d="
  M 30.29 37.50
  L 30.57 37.50
  Q 31.04 37.50 31.36 37.83
  L 44.02 50.64
  Q 44.34 50.96 44.30 51.41
  Q 44.28 51.59 44.21 51.75
  L 41.24 51.77
  Q 40.75 51.77 40.75 52.25
  L 40.75 72.00
  Q 40.75 72.50 40.25 72.50
  L 31.03 72.50
  Q 30.46 72.50 30.46 71.93
  L 30.29 37.50
  Z"
/>
</svg>
