<?xml version="1.0" encoding="UTF-8" standalone="no"?>
<!DOCTYPE svg PUBLIC "-//W3C//DTD SVG 1.1//EN" "http://www.w3.org/Graphics/SVG/1.1/DTD/svg11.dtd">
<svg xmlns="http://www.w3.org/2000/svg" version="1.1" viewBox="0 0 92 92">
<g stroke-width="2.00" fill="none" stroke-linecap="butt">
<path stroke="#77221c" vector-effect="non-scaling-stroke" d="
  M 31.21 23.25
  Q 35.58 29.01 41.24 33.53"
/>
<path stroke="#e69691" vector-effect="non-scaling-stroke" d="
  M 41.24 33.53
  Q 42.96 35.96 45.59 37.77
  Q 46.05 38.09 46.48 37.74
  Q 51.51 33.58 55.88 28.63"
/>
<path stroke="#77221c" vector-effect="non-scaling-stroke" d="
  M 55.88 28.63
  L 63.85 20.65"
/>
<path stroke="#e69691" vector-effect="non-scaling-stroke" d="
  M 63.85 20.65
  L 67.53 16.85
  Q 68.00 16.36 67.42 16.01
  Q 46.41 2.94 25.39 15.88
  Q 24.37 16.50 25.09 17.46
  Q 27.43 20.53 31.21 23.25"
/>
<path stroke="#908c8b" vector-effect="non-scaling-stroke" d="
  M 63.85 20.65
  C 55.09 16.62 41.82 18.23 32.20 18.29
  Q 30.63 18.30 30.81 19.86
  L 31.21 23.25"
/>
<path stroke="#908c8b" vector-effect="non-scaling-stroke" d="
  M 55.88 28.63
  Q 48.82 26.82 41.89 27.69
  Q 41.31 27.76 41.31 28.34
  L 41.24 33.53"
/>
<path stroke="#7e1f17" vector-effect="non-scaling-stroke" d="
  M 30.87 53.67
  L 38.34 46.39
  Q 38.66 46.08 38.41 45.72
  Q 35.53 41.58 31.11 39.11"
/>
<path stroke="#e69691" vector-effect="non-scaling-stroke" d="
  M 31.11 39.11
  C 28.95 34.33 21.47 28.52 17.63 24.82
  Q 16.83 24.06 16.26 25.00
  Q 3.56 45.96 16.39 66.87
  A 0.66 0.66 0.0 0 0 17.42 66.99
  L 30.87 53.67"
/>
<path stroke="#978885" vector-effect="non-scaling-stroke" d="
  M 31.11 39.11
  L 30.87 53.67"
/>
<path stroke="#77221c" vector-effect="non-scaling-stroke" d="
  M 69.46 29.75
  L 53.86 45.31
  Q 53.51 45.65 53.84 46.01
  L 59.25 51.79"
/>
<path stroke="#e69691" vector-effect="non-scaling-stroke" d="
  M 59.25 51.79
  L 74.94 67.36
  A 0.71 0.70 -50.9 0 0 76.03 67.24
  Q 89.09 46.94 77.01 25.87
  A 2.03 2.03 0.0 0 0 73.82 25.43
  L 69.46 29.75"
/>
<path stroke="#908c8b" vector-effect="non-scaling-stroke" d="
  M 59.25 51.79
  C 68.57 48.28 71.55 39.09 69.46 29.75"
/>
<path stroke="#77221c" vector-effect="non-scaling-stroke" d="
  M 41.34 58.12
  Q 35.62 62.50 31.21 68.25"
/>
<path stroke="#e69691" vector-effect="non-scaling-stroke" d="
  M 31.21 68.25
  L 25.25 74.00
  A 1.12 1.11 39.0 0 0 25.44 75.75
  Q 46.24 88.63 67.24 76.02
  A 0.93 0.93 0.0 0 0 67.42 74.57
  L 46.60 53.72
  Q 46.20 53.32 45.74 53.64
  Q 43.07 55.52 41.34 58.12"
/>
<path stroke="#908c8b" vector-effect="non-scaling-stroke" d="
  M 31.21 68.25
  L 30.85 72.72
  A 0.71 0.71 0.0 0 0 31.56 73.49
  L 40.73 73.50
  Q 41.26 73.50 41.26 72.98
  L 41.34 58.12"
/>
</g>
<path fill="#cc2c22" d="
  M 91.08 46.06
  A 44.80 44.80 0.0 0 1 46.28 90.86
  A 44.80 44.80 0.0 0 1 1.48 46.06
  A 44.80 44.80 0.0 0 1 46.28 1.26
  A 44.80 44.80 0.0 0 1 91.08 46.06
  Z
  M 31.21 23.25
  Q 35.58 29.01 41.24 33.53
  Q 42.96 35.96 45.59 37.77
  Q 46.05 38.09 46.48 37.74
  Q 51.51 33.58 55.88 28.63
  L 63.85 20.65
  L 67.53 16.85
  Q 68.00 16.36 67.42 16.01
  Q 46.41 2.94 25.39 15.88
  Q 24.37 16.50 25.09 17.46
  Q 27.43 20.53 31.21 23.25
  Z
  M 30.87 53.67
  L 38.34 46.39
  Q 38.66 46.08 38.41 45.72
  Q 35.53 41.58 31.11 39.11
  C 28.95 34.33 21.47 28.52 17.63 24.82
  Q 16.83 24.06 16.26 25.00
  Q 3.56 45.96 16.39 66.87
  A 0.66 0.66 0.0 0 0 17.42 66.99
  L 30.87 53.67
  Z
  M 69.46 29.75
  L 53.86 45.31
  Q 53.51 45.65 53.84 46.01
  L 59.25 51.79
  L 74.94 67.36
  A 0.71 0.70 -50.9 0 0 76.03 67.24
  Q 89.09 46.94 77.01 25.87
  A 2.03 2.03 0.0 0 0 73.82 25.43
  L 69.46 29.75
  Z
  M 41.34 58.12
  Q 35.62 62.50 31.21 68.25
  L 25.25 74.00
  A 1.12 1.11 39.0 0 0 25.44 75.75
  Q 46.24 88.63 67.24 76.02
  A 0.93 0.93 0.0 0 0 67.42 74.57
  L 46.60 53.72
  Q 46.20 53.32 45.74 53.64
  Q 43.07 55.52 41.34 58.12
  Z"
/>
<path fill="#ffffff" d="
  M 63.85 20.65
  C 55.09 16.62 41.82 18.23 32.20 18.29
  Q 30.63 18.30 30.81 19.86
  L 31.21 23.25
  Q 27.43 20.53 25.09 17.46
  Q 24.37 16.50 25.39 15.88
  Q 46.41 2.94 67.42 16.01
  Q 68.00 16.36 67.53 16.85
  L 63.85 20.65
  Z"
/>
<path fill="#211816" d="
  M 63.85 20.65
  L 55.88 28.63
  Q 48.82 26.82 41.89 27.69
  Q 41.31 27.76 41.31 28.34
  L 41.24 33.53
  Q 35.58 29.01 31.21 23.25
  L 30.81 19.86
  Q 30.63 18.30 32.20 18.29
  C 41.82 18.23 55.09 16.62 63.85 20.65
  Z"
/>
<path fill="#ffffff" d="
  M 31.11 39.11
  L 30.87 53.67
  L 17.42 66.99
  A 0.66 0.66 0.0 0 1 16.39 66.87
  Q 3.56 45.96 16.26 25.00
  Q 16.83 24.06 17.63 24.82
  C 21.47 28.52 28.95 34.33 31.11 39.11
  Z"
/>
<path fill="#ffffff" d="
  M 59.25 51.79
  C 68.57 48.28 71.55 39.09 69.46 29.75
  L 73.82 25.43
  A 2.03 2.03 0.0 0 1 77.01 25.87
  Q 89.09 46.94 76.03 67.24
  A 0.71 0.70 -50.9 0 1 74.94 67.36
  L 59.25 51.79
  Z"
/>
<path fill="#ffffff" d="
  M 55.88 28.63
  Q 51.51 33.58 46.48 37.74
  Q 46.05 38.09 45.59 37.77
  Q 42.96 35.96 41.24 33.53
  L 41.31 28.34
  Q 41.31 27.76 41.89 27.69
  Q 48.82 26.82 55.88 28.63
  Z"
/>
<path fill="#211816" d="
  M 69.46 29.75
  C 71.55 39.09 68.57 48.28 59.25 51.79
  L 53.84 46.01
  Q 53.51 45.65 53.86 45.31
  L 69.46 29.75
  Z"
/>
<path fill="#2f110b" d="
  M 31.11 39.11
  Q 35.53 41.58 38.41 45.72
  Q 38.66 46.08 38.34 46.39
  L 30.87 53.67
  L 31.11 39.11
  Z"
/>
<path fill="#ffffff" d="
  M 31.21 68.25
  L 30.85 72.72
  A 0.71 0.71 0.0 0 0 31.56 73.49
  L 40.73 73.50
  Q 41.26 73.50 41.26 72.98
  L 41.34 58.12
  Q 43.07 55.52 45.74 53.64
  Q 46.20 53.32 46.60 53.72
  L 67.42 74.57
  A 0.93 0.93 0.0 0 1 67.24 76.02
  Q 46.24 88.63 25.44 75.75
  A 1.12 1.11 39.0 0 1 25.25 74.00
  L 31.21 68.25
  Z"
/>
<path fill="#211816" d="
  M 41.34 58.12
  L 41.26 72.98
  Q 41.26 73.50 40.73 73.50
  L 31.56 73.49
  A 0.71 0.71 0.0 0 1 30.85 72.72
  L 31.21 68.25
  Q 35.62 62.50 41.34 58.12
  Z"
/>
</svg>
