<?xml version="1.0" encoding="UTF-8" standalone="no"?>
<!DOCTYPE svg PUBLIC "-//W3C//DTD SVG 1.1//EN" "http://www.w3.org/Graphics/SVG/1.1/DTD/svg11.dtd">
<svg xmlns="http://www.w3.org/2000/svg" version="1.1" viewBox="0 0 95 95">
<g stroke-width="2.00" fill="none" stroke-linecap="butt">
<path stroke="#e49692" vector-effect="non-scaling-stroke" d="
  M 85.19 47.35
  A 37.65 37.65 0.0 0 0 47.54 9.70
  A 37.65 37.65 0.0 0 0 9.89 47.35
  A 37.65 37.65 0.0 0 0 47.54 85.00
  A 37.65 37.65 0.0 0 0 85.19 47.35"
/>
<path stroke="#8e8d8c" vector-effect="non-scaling-stroke" d="
  M 29.34 42.41
  C 29.86 39.05 30.09 32.28 34.76 32.22
  Q 38.18 32.18 38.44 36.05
  Q 38.48 36.63 39.06 36.58
  L 44.45 36.09
  Q 45.07 36.04 45.01 35.41
  C 44.34 28.88 39.41 25.17 33.00 26.33
  C 27.49 27.32 24.75 31.40 23.45 36.80
  C 21.26 45.85 20.90 68.24 36.42 65.91
  C 48.23 64.15 49.23 44.33 38.36 40.45
  Q 33.92 38.87 29.79 42.65
  A 0.27 0.27 0.0 0 1 29.34 42.41"
/>
<path stroke="#8e8d8c" vector-effect="non-scaling-stroke" d="
  M 52.25 56.80
  C 53.77 64.26 61.52 68.96 68.09 64.51
  C 76.26 58.97 76.08 34.29 68.75 28.36
  C 62.43 23.24 54.34 27.08 52.50 34.76
  Q 49.94 45.40 52.25 56.80"
/>
<path stroke="#8e8d8c" vector-effect="non-scaling-stroke" d="
  M 34.9265 59.8542
  A 7.14 4.73 87.7 0 0 39.3662 52.5302
  A 7.14 4.73 87.7 0 0 34.3535 45.5858
  A 7.14 4.73 87.7 0 0 29.9138 52.9098
  A 7.14 4.73 87.7 0 0 34.9265 59.8542"
/>
<path stroke="#8e8d8c" vector-effect="non-scaling-stroke" d="
  M 62.03 32.54
  C 56.24 33.11 58.14 54.76 59.90 58.57
  Q 60.13 59.08 60.66 59.28
  C 64.22 60.62 65.92 58.29 66.36 54.99
  C 66.79 51.82 69.00 31.86 62.03 32.54"
/>
</g>
<path fill="#c82d24" d="
  M 93.81 47.50
  A 46.41 46.41 0.0 0 1 47.40 93.91
  A 46.41 46.41 0.0 0 1 0.99 47.50
  A 46.41 46.41 0.0 0 1 47.40 1.09
  A 46.41 46.41 0.0 0 1 93.81 47.50
  Z
  M 85.19 47.35
  A 37.65 37.65 0.0 0 0 47.54 9.70
  A 37.65 37.65 0.0 0 0 9.89 47.35
  A 37.65 37.65 0.0 0 0 47.54 85.00
  A 37.65 37.65 0.0 0 0 85.19 47.35
  Z"
/>
<path fill="#ffffff" d="
  M 85.19 47.35
  A 37.65 37.65 0.0 0 1 47.54 85.00
  A 37.65 37.65 0.0 0 1 9.89 47.35
  A 37.65 37.65 0.0 0 1 47.54 9.70
  A 37.65 37.65 0.0 0 1 85.19 47.35
  Z
  M 29.34 42.41
  C 29.86 39.05 30.09 32.28 34.76 32.22
  Q 38.18 32.18 38.44 36.05
  Q 38.48 36.63 39.06 36.58
  L 44.45 36.09
  Q 45.07 36.04 45.01 35.41
  C 44.34 28.88 39.41 25.17 33.00 26.33
  C 27.49 27.32 24.75 31.40 23.45 36.80
  C 21.26 45.85 20.90 68.24 36.42 65.91
  C 48.23 64.15 49.23 44.33 38.36 40.45
  Q 33.92 38.87 29.79 42.65
  A 0.27 0.27 0.0 0 1 29.34 42.41
  Z
  M 52.25 56.80
  C 53.77 64.26 61.52 68.96 68.09 64.51
  C 76.26 58.97 76.08 34.29 68.75 28.36
  C 62.43 23.24 54.34 27.08 52.50 34.76
  Q 49.94 45.40 52.25 56.80
  Z"
/>
<path fill="#1c1b19" d="
  M 29.34 42.41
  A 0.27 0.27 0.0 0 0 29.79 42.65
  Q 33.92 38.87 38.36 40.45
  C 49.23 44.33 48.23 64.15 36.42 65.91
  C 20.90 68.24 21.26 45.85 23.45 36.80
  C 24.75 31.40 27.49 27.32 33.00 26.33
  C 39.41 25.17 44.34 28.88 45.01 35.41
  Q 45.07 36.04 44.45 36.09
  L 39.06 36.58
  Q 38.48 36.63 38.44 36.05
  Q 38.18 32.18 34.76 32.22
  C 30.09 32.28 29.86 39.05 29.34 42.41
  Z
  M 34.9265 59.8542
  A 7.14 4.73 87.7 0 0 39.3662 52.5302
  A 7.14 4.73 87.7 0 0 34.3535 45.5858
  A 7.14 4.73 87.7 0 0 29.9138 52.9098
  A 7.14 4.73 87.7 0 0 34.9265 59.8542
  Z"
/>
<path fill="#1c1b19" d="
  M 68.09 64.51
  C 61.52 68.96 53.77 64.26 52.25 56.80
  Q 49.94 45.40 52.50 34.76
  C 54.34 27.08 62.43 23.24 68.75 28.36
  C 76.08 34.29 76.26 58.97 68.09 64.51
  Z
  M 62.03 32.54
  C 56.24 33.11 58.14 54.76 59.90 58.57
  Q 60.13 59.08 60.66 59.28
  C 64.22 60.62 65.92 58.29 66.36 54.99
  C 66.79 51.82 69.00 31.86 62.03 32.54
  Z"
/>
<path fill="#ffffff" d="
  M 62.03 32.54
  C 69.00 31.86 66.79 51.82 66.36 54.99
  C 65.92 58.29 64.22 60.62 60.66 59.28
  Q 60.13 59.08 59.90 58.57
  C 58.14 54.76 56.24 33.11 62.03 32.54
  Z"
/>
<ellipse fill="#ffffff" cx="0.00" cy="0.00" transform="translate(34.64,52.72) rotate(87.7)" rx="7.14" ry="4.73"/>
</svg>
