<?xml version="1.0" encoding="UTF-8" standalone="no"?>
<!DOCTYPE svg PUBLIC "-//W3C//DTD SVG 1.1//EN" "http://www.w3.org/Graphics/SVG/1.1/DTD/svg11.dtd">
<svg xmlns="http://www.w3.org/2000/svg" version="1.1" viewBox="0 0 106 104">
<g stroke-width="2.00" fill="none" stroke-linecap="butt">
<path stroke="#e69692" vector-effect="non-scaling-stroke" d="
  M 58.13 63.25
  L 72.92 63.25
  Q 73.43 63.25 73.78 63.60
  L 86.80 76.69
  A 0.89 0.88 -50.8 0 0 88.17 76.55
  Q 98.12 61.34 94.38 44.03
  C 88.37 16.20 55.41 3.72 32.13 19.81
  Q 30.86 20.69 31.95 21.78
  L 57.29 47.22
  A 0.24 0.24 0.0 0 1 57.12 47.63
  C 52.18 47.52 43.37 49.24 39.69 45.56
  Q 31.38 37.25 23.10 28.99
  A 0.30 0.30 0.0 0 0 22.64 29.03
  C 5.47 54.04 18.32 87.18 48.42 92.86
  Q 64.83 95.96 78.99 85.49
  Q 79.35 85.22 79.04 84.91
  L 57.91 63.78
  A 0.31 0.31 0.0 0 1 58.13 63.25"
/>
<path stroke="#808080" vector-effect="non-scaling-stroke" d="
  M 21.33 56.94
  C 21.05 55.65 20.13 50.40 18.50 50.49
  Q 17.87 50.52 18.06 51.12
  L 20.89 60.02
  A 0.71 0.70 -45.6 0 0 22.24 60.00
  L 24.68 51.83
  Q 24.74 51.63 24.88 51.49
  L 25.09 51.29
  Q 25.37 51.00 24.98 50.93
  L 23.90 50.72
  Q 23.40 50.62 23.29 51.12
  L 21.95 56.95
  A 0.32 0.32 0.0 0 1 21.33 56.94"
/>
<path stroke="#808080" vector-effect="non-scaling-stroke" d="
  M 41.56 58.62
  Q 39.65 55.92 41.13 52.87
  A 1.35 1.34 -56.2 0 1 43.23 52.45
  L 44.61 53.69
  A 0.52 0.52 0.0 0 0 45.48 53.26
  C 44.99 47.49 36.14 51.66 39.79 58.60
  C 41.40 61.67 45.53 60.43 45.20 56.96
  Q 45.18 56.75 44.97 56.75
  L 44.53 56.75
  Q 44.15 56.75 44.03 57.11
  Q 43.68 58.28 42.58 58.87
  Q 41.96 59.20 41.56 58.62"
/>
<path stroke="#808080" vector-effect="non-scaling-stroke" d="
  M 71.83 58.10
  L 73.54 57.75
  Q 74.19 57.62 74.31 58.28
  Q 74.53 59.48 75.48 60.15
  Q 76.15 60.62 76.05 59.81
  Q 75.48 55.24 73.63 51.06
  A 1.04 1.04 0.0 0 0 71.68 51.19
  L 69.39 59.28
  Q 69.17 60.07 68.60 59.47
  Q 67.34 58.12 66.68 56.36
  Q 66.49 55.84 66.93 55.52
  Q 69.13 53.90 67.77 51.54
  Q 67.43 50.94 66.73 50.90
  L 62.53 50.68
  Q 61.96 50.66 61.97 51.23
  L 62.07 60.01
  A 0.69 0.69 0.0 0 0 63.45 60.02
  L 63.53 56.67
  Q 63.54 56.23 63.94 56.08
  C 65.26 55.57 66.40 58.88 66.78 59.63
  Q 67.01 60.09 67.51 60.22
  Q 70.06 60.86 71.13 58.64
  Q 71.34 58.19 71.83 58.10"
/>
<path stroke="#808080" vector-effect="non-scaling-stroke" d="
  M 89.10 50.86
  C 88.37 50.55 87.78 50.26 87.46 51.25
  Q 86.09 55.52 84.70 59.83
  A 0.53 0.53 0.0 0 0 85.50 60.44
  Q 86.68 59.67 86.73 58.19
  Q 86.75 57.70 87.23 57.76
  L 89.38 58.04
  Q 89.83 58.10 90.04 58.52
  L 90.85 60.17
  A 0.62 0.62 0.0 0 0 92.00 59.70
  L 89.19 50.97
  A 0.17 0.15 -87.1 0 0 89.10 50.86"
/>
<path stroke="#808080" vector-effect="non-scaling-stroke" d="
  M 27.2852 51.1271
  A 0.33 0.33 0.0 0 0 26.9587 50.7937
  L 26.2987 50.7868
  A 0.33 0.33 0.0 0 0 25.9653 51.1133
  L 25.8748 59.7529
  A 0.33 0.33 0.0 0 0 26.2013 60.0863
  L 26.8613 60.0932
  A 0.33 0.33 0.0 0 0 27.1947 59.7667
  L 27.2852 51.1271"
/>
<path stroke="#808080" vector-effect="non-scaling-stroke" d="
  M 33.48 58.64
  Q 33.73 60.05 35.02 60.32
  Q 35.91 60.51 35.61 59.65
  L 32.60 50.87
  A 0.81 0.81 0.0 0 0 31.06 50.89
  L 28.38 59.69
  Q 28.25 60.12 28.69 60.09
  L 29.39 60.04
  Q 29.99 60.01 30.09 59.42
  Q 30.46 57.20 32.76 57.85
  Q 33.37 58.02 33.48 58.64"
/>
<path stroke="#808080" vector-effect="non-scaling-stroke" d="
  M 48.35 58.07
  Q 47.97 56.67 49.10 55.78
  Q 49.55 55.43 50.05 55.70
  Q 51.32 56.36 52.44 55.55
  Q 53.34 54.90 52.25 54.67
  Q 51.10 54.43 49.93 54.75
  Q 49.49 54.87 49.09 54.64
  Q 47.69 53.84 48.55 52.42
  Q 48.81 51.99 49.30 52.04
  L 52.19 52.34
  Q 52.75 52.40 52.75 51.83
  L 52.75 51.50
  Q 52.75 50.75 52.00 50.75
  L 47.77 50.75
  Q 47.10 50.75 47.10 51.42
  L 47.14 59.61
  Q 47.15 60.32 47.86 60.30
  L 52.10 60.14
  Q 52.70 60.11 52.69 59.51
  C 52.66 57.82 50.19 58.74 49.13 58.70
  Q 48.51 58.67 48.35 58.07"
/>
<path stroke="#808080" vector-effect="non-scaling-stroke" d="
  M 57.87 56.95
  C 58.26 58.10 59.14 60.55 60.27 60.34
  Q 60.79 60.24 60.62 59.74
  C 60.11 58.24 58.70 56.72 59.54 55.15
  C 60.32 53.70 60.58 52.44 59.45 51.10
  Q 59.16 50.75 58.70 50.75
  L 54.88 50.75
  Q 54.25 50.75 54.25 51.37
  L 54.25 59.74
  Q 54.25 60.23 54.74 60.25
  Q 54.87 60.25 55.01 60.25
  Q 55.50 60.24 55.50 59.75
  L 55.50 56.75
  Q 55.50 55.92 56.30 56.13
  L 57.29 56.40
  Q 57.73 56.52 57.87 56.95"
/>
<path stroke="#808080" vector-effect="non-scaling-stroke" d="
  M 77.95 60.07
  C 85.88 62.04 86.07 48.63 77.95 50.93
  Q 77.50 51.05 77.50 51.52
  L 77.50 59.49
  Q 77.50 59.95 77.95 60.07"
/>
<path stroke="#808080" vector-effect="non-scaling-stroke" d="
  M 66.6639 53.0572
  A 0.87 0.87 0.0 0 0 65.7655 52.2165
  L 64.3063 52.2649
  A 0.87 0.87 0.0 0 0 63.4656 53.1633
  L 63.4961 54.0828
  A 0.87 0.87 0.0 0 0 64.3945 54.9235
  L 65.8537 54.8751
  A 0.87 0.87 0.0 0 0 66.6944 53.9767
  L 66.6639 53.0572"
/>
<path stroke="#808080" vector-effect="non-scaling-stroke" d="
  M 72.27 53.76
  L 71.74 56.01
  Q 71.51 56.96 72.44 56.65
  L 73.37 56.33
  Q 74.04 56.10 73.79 55.44
  L 73.14 53.70
  Q 72.62 52.32 72.27 53.76"
/>
<path stroke="#808080" vector-effect="non-scaling-stroke" d="
  M 87.94 54.19
  Q 87.45 55.04 87.50 56.00
  Q 87.52 56.50 88.02 56.50
  L 88.85 56.50
  Q 89.49 56.50 89.32 55.88
  L 88.70 53.59
  Q 88.43 52.56 88.02 53.54
  Q 87.88 53.89 87.94 54.19"
/>
<path stroke="#808080" vector-effect="non-scaling-stroke" d="
  M 32.54 56.72
  C 33.02 55.81 32.54 54.72 31.93 54.00
  Q 31.46 53.44 31.30 54.15
  Q 31.00 55.49 31.63 56.72
  Q 32.08 57.59 32.54 56.72"
/>
<path stroke="#808080" vector-effect="non-scaling-stroke" d="
  M 58.9590 53.6703
  A 1.82 1.49 1.9 0 0 57.1894 52.1208
  A 1.82 1.49 1.9 0 0 55.3210 53.5497
  A 1.82 1.49 1.9 0 0 57.0906 55.0992
  A 1.82 1.49 1.9 0 0 58.9590 53.6703"
/>
<path stroke="#808080" vector-effect="non-scaling-stroke" d="
  M 82.1757 53.4682
  A 1.15 1.15 0.0 0 0 81.0460 52.2983
  L 80.1461 52.2826
  A 1.15 1.15 0.0 0 0 78.9762 53.4124
  L 78.9043 57.5318
  A 1.15 1.15 0.0 0 0 80.0340 58.7017
  L 80.9339 58.7174
  A 1.15 1.15 0.0 0 0 82.1038 57.5876
  L 82.1757 53.4682"
/>
</g>
<path fill="#cc2c24" d="
  M 104.73 52.94
  A 49.67 49.67 0.0 0 1 55.06 102.61
  A 49.67 49.67 0.0 0 1 5.39 52.94
  A 49.67 49.67 0.0 0 1 55.06 3.27
  A 49.67 49.67 0.0 0 1 104.73 52.94
  Z
  M 58.13 63.25
  L 72.92 63.25
  Q 73.43 63.25 73.78 63.60
  L 86.80 76.69
  A 0.89 0.88 -50.8 0 0 88.17 76.55
  Q 98.12 61.34 94.38 44.03
  C 88.37 16.20 55.41 3.72 32.13 19.81
  Q 30.86 20.69 31.95 21.78
  L 57.29 47.22
  A 0.24 0.24 0.0 0 1 57.12 47.63
  C 52.18 47.52 43.37 49.24 39.69 45.56
  Q 31.38 37.25 23.10 28.99
  A 0.30 0.30 0.0 0 0 22.64 29.03
  C 5.47 54.04 18.32 87.18 48.42 92.86
  Q 64.83 95.96 78.99 85.49
  Q 79.35 85.22 79.04 84.91
  L 57.91 63.78
  A 0.31 0.31 0.0 0 1 58.13 63.25
  Z"
/>
<path fill="#ffffff" d="
  M 58.13 63.25
  A 0.31 0.31 0.0 0 0 57.91 63.78
  L 79.04 84.91
  Q 79.35 85.22 78.99 85.49
  Q 64.83 95.96 48.42 92.86
  C 18.32 87.18 5.47 54.04 22.64 29.03
  A 0.30 0.30 0.0 0 1 23.10 28.99
  Q 31.38 37.25 39.69 45.56
  C 43.37 49.24 52.18 47.52 57.12 47.63
  A 0.24 0.24 0.0 0 0 57.29 47.22
  L 31.95 21.78
  Q 30.86 20.69 32.13 19.81
  C 55.41 3.72 88.37 16.20 94.38 44.03
  Q 98.12 61.34 88.17 76.55
  A 0.89 0.88 -50.8 0 1 86.80 76.69
  L 73.78 63.60
  Q 73.43 63.25 72.92 63.25
  L 58.13 63.25
  Z
  M 21.33 56.94
  C 21.05 55.65 20.13 50.40 18.50 50.49
  Q 17.87 50.52 18.06 51.12
  L 20.89 60.02
  A 0.71 0.70 -45.6 0 0 22.24 60.00
  L 24.68 51.83
  Q 24.74 51.63 24.88 51.49
  L 25.09 51.29
  Q 25.37 51.00 24.98 50.93
  L 23.90 50.72
  Q 23.40 50.62 23.29 51.12
  L 21.95 56.95
  A 0.32 0.32 0.0 0 1 21.33 56.94
  Z
  M 41.56 58.62
  Q 39.65 55.92 41.13 52.87
  A 1.35 1.34 -56.2 0 1 43.23 52.45
  L 44.61 53.69
  A 0.52 0.52 0.0 0 0 45.48 53.26
  C 44.99 47.49 36.14 51.66 39.79 58.60
  C 41.40 61.67 45.53 60.43 45.20 56.96
  Q 45.18 56.75 44.97 56.75
  L 44.53 56.75
  Q 44.15 56.75 44.03 57.11
  Q 43.68 58.28 42.58 58.87
  Q 41.96 59.20 41.56 58.62
  Z
  M 71.83 58.10
  L 73.54 57.75
  Q 74.19 57.62 74.31 58.28
  Q 74.53 59.48 75.48 60.15
  Q 76.15 60.62 76.05 59.81
  Q 75.48 55.24 73.63 51.06
  A 1.04 1.04 0.0 0 0 71.68 51.19
  L 69.39 59.28
  Q 69.17 60.07 68.60 59.47
  Q 67.34 58.12 66.68 56.36
  Q 66.49 55.84 66.93 55.52
  Q 69.13 53.90 67.77 51.54
  Q 67.43 50.94 66.73 50.90
  L 62.53 50.68
  Q 61.96 50.66 61.97 51.23
  L 62.07 60.01
  A 0.69 0.69 0.0 0 0 63.45 60.02
  L 63.53 56.67
  Q 63.54 56.23 63.94 56.08
  C 65.26 55.57 66.40 58.88 66.78 59.63
  Q 67.01 60.09 67.51 60.22
  Q 70.06 60.86 71.13 58.64
  Q 71.34 58.19 71.83 58.10
  Z
  M 89.10 50.86
  C 88.37 50.55 87.78 50.26 87.46 51.25
  Q 86.09 55.52 84.70 59.83
  A 0.53 0.53 0.0 0 0 85.50 60.44
  Q 86.68 59.67 86.73 58.19
  Q 86.75 57.70 87.23 57.76
  L 89.38 58.04
  Q 89.83 58.10 90.04 58.52
  L 90.85 60.17
  A 0.62 0.62 0.0 0 0 92.00 59.70
  L 89.19 50.97
  A 0.17 0.15 -87.1 0 0 89.10 50.86
  Z
  M 27.2852 51.1271
  A 0.33 0.33 0.0 0 0 26.9587 50.7937
  L 26.2987 50.7868
  A 0.33 0.33 0.0 0 0 25.9653 51.1133
  L 25.8748 59.7529
  A 0.33 0.33 0.0 0 0 26.2013 60.0863
  L 26.8613 60.0932
  A 0.33 0.33 0.0 0 0 27.1947 59.7667
  L 27.2852 51.1271
  Z
  M 33.48 58.64
  Q 33.73 60.05 35.02 60.32
  Q 35.91 60.51 35.61 59.65
  L 32.60 50.87
  A 0.81 0.81 0.0 0 0 31.06 50.89
  L 28.38 59.69
  Q 28.25 60.12 28.69 60.09
  L 29.39 60.04
  Q 29.99 60.01 30.09 59.42
  Q 30.46 57.20 32.76 57.85
  Q 33.37 58.02 33.48 58.64
  Z
  M 48.35 58.07
  Q 47.97 56.67 49.10 55.78
  Q 49.55 55.43 50.05 55.70
  Q 51.32 56.36 52.44 55.55
  Q 53.34 54.90 52.25 54.67
  Q 51.10 54.43 49.93 54.75
  Q 49.49 54.87 49.09 54.64
  Q 47.69 53.84 48.55 52.42
  Q 48.81 51.99 49.30 52.04
  L 52.19 52.34
  Q 52.75 52.40 52.75 51.83
  L 52.75 51.50
  Q 52.75 50.75 52.00 50.75
  L 47.77 50.75
  Q 47.10 50.75 47.10 51.42
  L 47.14 59.61
  Q 47.15 60.32 47.86 60.30
  L 52.10 60.14
  Q 52.70 60.11 52.69 59.51
  C 52.66 57.82 50.19 58.74 49.13 58.70
  Q 48.51 58.67 48.35 58.07
  Z
  M 57.87 56.95
  C 58.26 58.10 59.14 60.55 60.27 60.34
  Q 60.79 60.24 60.62 59.74
  C 60.11 58.24 58.70 56.72 59.54 55.15
  C 60.32 53.70 60.58 52.44 59.45 51.10
  Q 59.16 50.75 58.70 50.75
  L 54.88 50.75
  Q 54.25 50.75 54.25 51.37
  L 54.25 59.74
  Q 54.25 60.23 54.74 60.25
  Q 54.87 60.25 55.01 60.25
  Q 55.50 60.24 55.50 59.75
  L 55.50 56.75
  Q 55.50 55.92 56.30 56.13
  L 57.29 56.40
  Q 57.73 56.52 57.87 56.95
  Z
  M 77.95 60.07
  C 85.88 62.04 86.07 48.63 77.95 50.93
  Q 77.50 51.05 77.50 51.52
  L 77.50 59.49
  Q 77.50 59.95 77.95 60.07
  Z"
/>
<path fill="#000000" d="
  M 21.33 56.94
  A 0.32 0.32 0.0 0 0 21.95 56.95
  L 23.29 51.12
  Q 23.40 50.62 23.90 50.72
  L 24.98 50.93
  Q 25.37 51.00 25.09 51.29
  L 24.88 51.49
  Q 24.74 51.63 24.68 51.83
  L 22.24 60.00
  A 0.71 0.70 -45.6 0 1 20.89 60.02
  L 18.06 51.12
  Q 17.87 50.52 18.50 50.49
  C 20.13 50.40 21.05 55.65 21.33 56.94
  Z"
/>
<path fill="#000000" d="
  M 42.58 58.87
  Q 43.68 58.28 44.03 57.11
  Q 44.15 56.75 44.53 56.75
  L 44.97 56.75
  Q 45.18 56.75 45.20 56.96
  C 45.53 60.43 41.40 61.67 39.79 58.60
  C 36.14 51.66 44.99 47.49 45.48 53.26
  A 0.52 0.52 0.0 0 1 44.61 53.69
  L 43.23 52.45
  A 1.35 1.34 -56.2 0 0 41.13 52.87
  Q 39.65 55.92 41.56 58.62
  Q 41.96 59.20 42.58 58.87
  Z"
/>
<path fill="#000000" d="
  M 71.13 58.64
  Q 70.06 60.86 67.51 60.22
  Q 67.01 60.09 66.78 59.63
  C 66.40 58.88 65.26 55.57 63.94 56.08
  Q 63.54 56.23 63.53 56.67
  L 63.45 60.02
  A 0.69 0.69 0.0 0 1 62.07 60.01
  L 61.97 51.23
  Q 61.96 50.66 62.53 50.68
  L 66.73 50.90
  Q 67.43 50.94 67.77 51.54
  Q 69.13 53.90 66.93 55.52
  Q 66.49 55.84 66.68 56.36
  Q 67.34 58.12 68.60 59.47
  Q 69.17 60.07 69.39 59.28
  L 71.68 51.19
  A 1.04 1.04 0.0 0 1 73.63 51.06
  Q 75.48 55.24 76.05 59.81
  Q 76.15 60.62 75.48 60.15
  Q 74.53 59.48 74.31 58.28
  Q 74.19 57.62 73.54 57.75
  L 71.83 58.10
  Q 71.34 58.19 71.13 58.64
  Z
  M 66.6639 53.0572
  A 0.87 0.87 0.0 0 0 65.7655 52.2165
  L 64.3063 52.2649
  A 0.87 0.87 0.0 0 0 63.4656 53.1633
  L 63.4961 54.0828
  A 0.87 0.87 0.0 0 0 64.3945 54.9235
  L 65.8537 54.8751
  A 0.87 0.87 0.0 0 0 66.6944 53.9767
  L 66.6639 53.0572
  Z
  M 72.27 53.76
  L 71.74 56.01
  Q 71.51 56.96 72.44 56.65
  L 73.37 56.33
  Q 74.04 56.10 73.79 55.44
  L 73.14 53.70
  Q 72.62 52.32 72.27 53.76
  Z"
/>
<path fill="#000000" d="
  M 89.10 50.86
  A 0.17 0.15 -87.1 0 1 89.19 50.97
  L 92.00 59.70
  A 0.62 0.62 0.0 0 1 90.85 60.17
  L 90.04 58.52
  Q 89.83 58.10 89.38 58.04
  L 87.23 57.76
  Q 86.75 57.70 86.73 58.19
  Q 86.68 59.67 85.50 60.44
  A 0.53 0.53 0.0 0 1 84.70 59.83
  Q 86.09 55.52 87.46 51.25
  C 87.78 50.26 88.37 50.55 89.10 50.86
  Z
  M 87.94 54.19
  Q 87.45 55.04 87.50 56.00
  Q 87.52 56.50 88.02 56.50
  L 88.85 56.50
  Q 89.49 56.50 89.32 55.88
  L 88.70 53.59
  Q 88.43 52.56 88.02 53.54
  Q 87.88 53.89 87.94 54.19
  Z"
/>
<rect fill="#000000" x="-0.66" y="-4.65" transform="translate(26.58,55.44) rotate(0.6)" width="1.32" height="9.30" rx="0.33"/>
<path fill="#000000" d="
  M 32.76 57.85
  Q 30.46 57.20 30.09 59.42
  Q 29.99 60.01 29.39 60.04
  L 28.69 60.09
  Q 28.25 60.12 28.38 59.69
  L 31.06 50.89
  A 0.81 0.81 0.0 0 1 32.60 50.87
  L 35.61 59.65
  Q 35.91 60.51 35.02 60.32
  Q 33.73 60.05 33.48 58.64
  Q 33.37 58.02 32.76 57.85
  Z
  M 32.54 56.72
  C 33.02 55.81 32.54 54.72 31.93 54.00
  Q 31.46 53.44 31.30 54.15
  Q 31.00 55.49 31.63 56.72
  Q 32.08 57.59 32.54 56.72
  Z"
/>
<path fill="#000000" d="
  M 49.13 58.70
  C 50.19 58.74 52.66 57.82 52.69 59.51
  Q 52.70 60.11 52.10 60.14
  L 47.86 60.30
  Q 47.15 60.32 47.14 59.61
  L 47.10 51.42
  Q 47.10 50.75 47.77 50.75
  L 52.00 50.75
  Q 52.75 50.75 52.75 51.50
  L 52.75 51.83
  Q 52.75 52.40 52.19 52.34
  L 49.30 52.04
  Q 48.81 51.99 48.55 52.42
  Q 47.69 53.84 49.09 54.64
  Q 49.49 54.87 49.93 54.75
  Q 51.10 54.43 52.25 54.67
  Q 53.34 54.90 52.44 55.55
  Q 51.32 56.36 50.05 55.70
  Q 49.55 55.43 49.10 55.78
  Q 47.97 56.67 48.35 58.07
  Q 48.51 58.67 49.13 58.70
  Z"
/>
<path fill="#000000" d="
  M 57.29 56.40
  L 56.30 56.13
  Q 55.50 55.92 55.50 56.75
  L 55.50 59.75
  Q 55.50 60.24 55.01 60.25
  Q 54.87 60.25 54.74 60.25
  Q 54.25 60.23 54.25 59.74
  L 54.25 51.37
  Q 54.25 50.75 54.88 50.75
  L 58.70 50.75
  Q 59.16 50.75 59.45 51.10
  C 60.58 52.44 60.32 53.70 59.54 55.15
  C 58.70 56.72 60.11 58.24 60.62 59.74
  Q 60.79 60.24 60.27 60.34
  C 59.14 60.55 58.26 58.10 57.87 56.95
  Q 57.73 56.52 57.29 56.40
  Z
  M 58.9590 53.6703
  A 1.82 1.49 1.9 0 0 57.1894 52.1208
  A 1.82 1.49 1.9 0 0 55.3210 53.5497
  A 1.82 1.49 1.9 0 0 57.0906 55.0992
  A 1.82 1.49 1.9 0 0 58.9590 53.6703
  Z"
/>
<path fill="#000000" d="
  M 77.95 50.93
  C 86.07 48.63 85.88 62.04 77.95 60.07
  Q 77.50 59.95 77.50 59.49
  L 77.50 51.52
  Q 77.50 51.05 77.95 50.93
  Z
  M 82.1757 53.4682
  A 1.15 1.15 0.0 0 0 81.0460 52.2983
  L 80.1461 52.2826
  A 1.15 1.15 0.0 0 0 78.9762 53.4124
  L 78.9043 57.5318
  A 1.15 1.15 0.0 0 0 80.0340 58.7017
  L 80.9339 58.7174
  A 1.15 1.15 0.0 0 0 82.1038 57.5876
  L 82.1757 53.4682
  Z"
/>
<ellipse fill="#ffffff" cx="0.00" cy="0.00" transform="translate(57.14,53.61) rotate(1.9)" rx="1.82" ry="1.49"/>
<rect fill="#ffffff" x="-1.60" y="-1.33" transform="translate(65.08,53.57) rotate(-1.9)" width="3.20" height="2.66" rx="0.87"/>
<rect fill="#ffffff" x="-1.60" y="-3.21" transform="translate(80.54,55.50) rotate(1.0)" width="3.20" height="6.42" rx="1.15"/>
<path fill="#ffffff" d="
  M 87.94 54.19
  Q 87.88 53.89 88.02 53.54
  Q 88.43 52.56 88.70 53.59
  L 89.32 55.88
  Q 89.49 56.50 88.85 56.50
  L 88.02 56.50
  Q 87.52 56.50 87.50 56.00
  Q 87.45 55.04 87.94 54.19
  Z"
/>
<path fill="#ffffff" d="
  M 72.27 53.76
  Q 72.62 52.32 73.14 53.70
  L 73.79 55.44
  Q 74.04 56.10 73.37 56.33
  L 72.44 56.65
  Q 71.51 56.96 71.74 56.01
  L 72.27 53.76
  Z"
/>
<path fill="#ffffff" d="
  M 31.93 54.00
  C 32.54 54.72 33.02 55.81 32.54 56.72
  Q 32.08 57.59 31.63 56.72
  Q 31.00 55.49 31.30 54.15
  Q 31.46 53.44 31.93 54.00
  Z"
/>
</svg>
